<svg width="92" height="22" viewBox="0 0 92 22" fill="none" xmlns="http://www.w3.org/2000/svg">
<g clip-path="url(#clip0_10395_22)">
<path d="M32.5198 5.06274C30.9441 5.06274 29.8105 5.64089 29.0793 6.77167V5.35182H26.6817V16.4527H29.0793V10.5041C29.0793 8.35022 30.2129 7.3073 31.8992 7.3073C33.4324 7.3073 34.3846 8.21702 34.3846 9.88343V16.4556H36.7822V9.63971C36.7822 6.79717 35.0733 5.06558 32.5198 5.06558V5.06274Z" fill="white"/>
<path d="M48.1465 6.92754C47.2368 5.6834 45.9502 5.06274 44.2611 5.06274C42.7307 5.06274 41.4412 5.61821 40.3529 6.74899C39.2647 7.87977 38.7319 9.25711 38.7319 10.9009C38.7319 12.5446 39.2647 13.9191 40.3529 15.0527C41.4412 16.1863 42.7279 16.739 44.2611 16.739C45.9473 16.739 47.2368 16.1183 48.1465 14.8515V16.4499H50.5441V5.35182H48.1465V6.92754ZM47.1461 13.4543C46.4801 14.1203 45.6356 14.4547 44.638 14.4547C43.6404 14.4547 42.7959 14.1203 42.1299 13.4543C41.4639 12.7656 41.1323 11.9239 41.1323 10.9009C41.1323 9.87777 41.4639 9.03606 42.1299 8.37006C42.7959 7.68139 43.6404 7.34981 44.638 7.34981C45.6356 7.34981 46.4801 7.68139 47.1461 8.37006C47.8121 9.03606 48.1437 9.8806 48.1437 10.9009C48.1437 11.9211 47.8121 12.7656 47.1461 13.4543Z" fill="white"/>
<path d="M59.1769 5.06274C57.6011 5.06274 56.4675 5.64089 55.7364 6.77167V5.35182H53.3388V16.4527H55.7364V10.5041C55.7364 8.35022 56.87 7.3073 58.5562 7.3073C60.0894 7.3073 61.0417 8.21702 61.0417 9.88343V16.4556H63.4393V9.63971C63.4393 6.79717 61.7303 5.06558 59.1769 5.06558V5.06274Z" fill="white"/>
<path d="M74.8461 6.99547C73.9364 5.70882 72.6469 5.06549 70.9833 5.06549C69.4076 5.06549 68.0983 5.62096 67.01 6.75174C65.9217 7.86268 65.3889 9.21735 65.3889 10.7931C65.3889 12.3688 65.9217 13.7235 67.01 14.8571C68.0983 15.968 69.4076 16.5235 70.9833 16.5235C72.6497 16.5235 73.9364 15.8802 74.8461 14.5935V15.9482C74.8461 17.8782 73.602 19.0118 71.5388 19.0118C69.9631 19.0118 68.8748 18.4336 68.2967 17.3028L66.2307 18.5016C67.1857 20.2984 68.94 21.1883 71.4935 21.1883C73.0692 21.1883 74.4238 20.7434 75.5348 19.8336C76.6457 18.9239 77.2012 17.6344 77.2012 15.9482V5.35173H74.8489V6.99547H74.8461ZM73.8259 13.2785C73.1599 13.9445 72.3153 14.2761 71.3177 14.2761C70.3202 14.2761 69.4756 13.9417 68.787 13.2785C68.121 12.6125 67.7894 11.7907 67.7894 10.7931C67.7894 9.79549 68.121 8.97362 68.787 8.30762C69.4756 7.64163 70.3202 7.31005 71.3177 7.31005C72.3153 7.31005 73.1599 7.64163 73.8259 8.30762C74.5145 8.97362 74.8461 9.79549 74.8461 10.7931C74.8461 11.7907 74.5145 12.6125 73.8259 13.2785Z" fill="white"/>
<path d="M89.3847 6.75174C88.2539 5.62096 86.8766 5.06549 85.2328 5.06549C83.5891 5.06549 82.2146 5.62096 81.081 6.75174C79.9502 7.88252 79.372 9.25986 79.372 10.9036C79.372 12.5473 79.9502 13.9218 81.081 15.0555C82.2117 16.1891 83.6118 16.7417 85.2328 16.7417C86.8539 16.7417 88.2511 16.1862 89.3847 15.0555C90.5155 13.9247 91.0936 12.5473 91.0936 10.9036C91.0936 9.25986 90.5155 7.88535 89.3847 6.75174ZM87.6984 13.4117C87.0324 14.0777 86.2106 14.4093 85.2328 14.4093C84.2551 14.4093 83.436 14.0777 82.7672 13.4117C82.0984 12.7457 81.7696 11.9012 81.7696 10.9036C81.7696 9.90602 82.1012 9.06148 82.7672 8.39548C83.4332 7.72948 84.2551 7.39507 85.2328 7.39507C86.2106 7.39507 87.0296 7.72948 87.6984 8.39548C88.3673 9.06148 88.696 9.90602 88.696 10.9036C88.696 11.9012 88.3616 12.7457 87.6984 13.4117Z" fill="white"/>
<path d="M10.8281 0.072113C4.84824 0.072113 -0.000793457 4.92114 -0.000793457 10.901C-0.000793457 12.0601 0.180585 13.1795 0.517835 14.2253C1.88667 13.6981 3.49357 13.0832 3.55592 13.0633C3.66928 13.0265 3.62394 12.95 3.53608 12.9471C3.44823 12.9443 1.52392 12.8564 1.4644 12.8508C1.40489 12.8451 1.33687 12.8026 1.44456 12.7346C2.00287 12.3747 3.82232 11.2184 4.70937 10.8868C4.80006 10.8528 4.77172 10.7933 4.69803 10.7876C4.62718 10.7791 2.97494 10.6062 2.87575 10.5949C2.77656 10.5835 2.75389 10.5354 2.87292 10.4702C3.39438 10.1783 4.91342 9.35924 6.03853 9.073C6.14906 9.04466 6.22841 8.94831 6.23408 8.83495C6.36161 6.25314 7.09563 4.84463 7.69361 4.03693C7.72195 3.99725 7.77863 3.99442 7.81264 4.02842C8.50698 4.71993 9.17864 5.675 9.7001 6.68675C9.72845 6.74059 9.7993 6.74059 9.81063 6.68675C9.93533 5.96974 10.1734 5.36325 10.4851 4.74543C10.5078 4.70009 10.5673 4.68309 10.607 4.71709C11.1965 5.21305 11.9248 6.26448 12.2932 7.58514C12.3244 7.69283 12.4151 7.76935 12.5256 7.77502L13.4014 7.81753C13.7414 7.83453 14.0588 7.9904 14.2799 8.25113L14.7305 8.7811C14.7787 8.83778 14.8524 8.87179 14.9261 8.87179L19.3046 8.87746C19.3982 8.87746 19.4775 8.95114 19.4917 9.05033C19.6249 10.3313 18.7775 13.0095 16.4394 13.0095C11.9333 13.0095 9.14463 17.4277 10.8195 21.7355C16.8022 21.7355 21.6484 16.8864 21.6484 10.9066C21.6484 4.92681 16.8107 0.072113 10.8281 0.072113Z" fill="white"/>
<path d="M13.8124 9.68251C13.8124 8.92299 13.1492 8.66226 11.5196 8.66226C11.5196 9.7562 13.4326 10.0623 13.8124 9.68251Z" fill="white"/>
</g>
<defs>
<clipPath id="clip0_10395_22">
<rect width="91.0943" height="21.6605" fill="white" transform="translate(0 0.0719147)"/>
</clipPath>
</defs>
</svg>
