<svg width="110" height="26" viewBox="0 0 110 26" fill="none" xmlns="http://www.w3.org/2000/svg">
<g clip-path="url(#clip0_2061_3324)">
<path d="M39.2426 5.9941C37.3401 5.9941 35.9742 6.67049 35.0899 7.99736V6.33196H32.1967V19.3439H35.0899V12.3697C35.0899 9.84549 36.4568 8.62226 38.4926 8.62226C40.3411 8.62226 41.4926 9.68968 41.4926 11.6415V19.3439H44.3861V11.3551C44.3861 8.02394 42.3229 5.9941 39.2426 5.9941Z" fill="#231F20"/>
<path d="M56.8931 15.8302C56.0891 16.6113 55.0721 17.002 53.8659 17.002C52.6607 17.002 51.643 16.6113 50.8393 15.8302C50.0353 15.0236 49.6338 14.0356 49.6338 12.838C49.6338 11.6413 50.0353 10.6523 50.8393 9.87127C51.643 9.06465 52.6607 8.67463 53.8659 8.67463C55.0721 8.67463 56.0891 9.06465 56.8931 9.87127C57.6972 10.6523 58.0983 11.6413 58.0983 12.838C58.0983 14.0356 57.6972 15.0236 56.8931 15.8302ZM58.0983 8.17996C56.9998 6.72286 55.4469 5.99431 53.4103 5.99431C51.5629 5.99431 50.0089 6.64479 48.6961 7.97166C47.3828 9.29853 46.7406 10.9128 46.7406 12.838C46.7406 14.7376 47.3828 16.3771 48.6961 17.7043C50.0089 19.0318 51.5629 19.6826 53.4103 19.6826C55.4469 19.6826 56.9998 18.9537 58.0983 17.4704V19.3438H60.9919V6.33217H58.0983V8.17996Z" fill="#231F20"/>
<path d="M71.4099 5.9941C69.5074 5.9941 68.1412 6.67049 67.2572 7.99736V6.33196H64.364V19.3439H67.2572V12.3697C67.2572 9.84549 68.6241 8.62226 70.6599 8.62226C72.5084 8.62226 73.6598 9.68968 73.6598 11.6415V19.3439H76.5531V11.3551C76.5531 8.02394 74.4902 5.9941 71.4099 5.9941Z" fill="#231F20"/>
<path d="M89.087 15.6229C88.2837 16.403 87.2656 16.7936 86.0601 16.7936C84.8549 16.7936 83.8365 16.403 83.0065 15.6229C82.2025 14.8419 81.801 13.8794 81.801 12.7077C81.801 11.5366 82.2025 10.5742 83.0065 9.79317C83.8365 9.01246 84.8549 8.62244 86.0601 8.62244C87.2656 8.62244 88.2837 9.01246 89.087 9.79317C89.9184 10.5742 90.3195 11.5366 90.3195 12.7077C90.3195 13.8794 89.9184 14.8419 89.087 15.6229ZM90.3195 8.25799C89.2211 6.74873 87.6674 5.99427 85.6583 5.99427C83.7565 5.99427 82.1761 6.64475 80.8633 7.97162C79.55 9.27292 78.9078 10.8606 78.9078 12.7077C78.9078 14.5558 79.55 16.1432 80.8633 17.4704C82.1761 18.7713 83.7565 19.4221 85.6583 19.4221C87.6674 19.4221 89.2211 18.6677 90.3195 17.1581V18.7454C90.3195 21.0095 88.8196 22.3363 86.3279 22.3363C84.4261 22.3363 83.1132 21.66 82.4169 20.3331L79.9252 21.738C81.0773 23.8459 83.1936 24.8874 86.2745 24.8874C88.1763 24.8874 89.8103 24.3659 91.1499 23.2994C92.4895 22.2327 93.1591 20.7231 93.1591 18.7454V6.33214H90.3195V8.25799Z" fill="#231F20"/>
<path d="M105.827 15.779C105.023 16.56 104.032 16.9497 102.853 16.9497C101.675 16.9497 100.684 16.56 99.8799 15.779C99.0762 14.9979 98.6744 14.0089 98.6744 12.8378C98.6744 11.6671 99.0762 10.6781 99.8799 9.89773C100.684 9.11702 101.675 8.72633 102.853 8.72633C104.032 8.72633 105.023 9.11702 105.827 9.89773C106.63 10.6781 107.032 11.6671 107.032 12.8378C107.032 14.0089 106.63 14.9979 105.827 15.779ZM107.863 7.97187C106.497 6.64466 104.836 5.99418 102.853 5.99418C100.897 5.99418 99.2099 6.64466 97.8433 7.97187C96.4774 9.29874 95.7812 10.9127 95.7812 12.8378C95.7812 14.7637 96.4774 16.3773 97.8433 17.7042C99.2099 19.0317 100.897 19.6825 102.853 19.6825C104.836 19.6825 106.497 19.0317 107.863 17.7042C109.229 16.3773 109.926 14.7637 109.926 12.8378C109.926 10.9127 109.229 9.29874 107.863 7.97187Z" fill="#231F20"/>
<path d="M13.0687 0.142411C5.85106 0.142411 0 5.82631 0 12.8377C0 14.1975 0.219898 15.5074 0.627204 16.7356L0.62994 16.736C2.28276 16.119 4.22046 15.3971 4.29775 15.3722C4.43318 15.3284 4.37983 15.2397 4.27381 15.2347C4.16814 15.2304 1.84673 15.127 1.77457 15.1221C1.70275 15.1174 1.62068 15.0649 1.74892 14.9845C2.42366 14.5613 4.6182 13.2068 5.69032 12.8195C5.79908 12.7803 5.76419 12.7112 5.67699 12.7025C5.58978 12.6936 3.59805 12.4909 3.47767 12.4776C3.35729 12.4643 3.33027 12.4079 3.47356 12.3301C4.10419 11.9866 5.93485 11.0275 7.29288 10.692C7.42694 10.6591 7.52167 10.5458 7.52851 10.4116C7.6824 7.38374 8.56815 5.73462 9.29042 4.78581C9.32531 4.73996 9.39302 4.73531 9.43474 4.77551C10.2723 5.58711 11.0828 6.70436 11.7114 7.89004C11.7452 7.95482 11.8324 7.95449 11.8437 7.8907C11.9935 7.05019 12.2818 6.33792 12.6576 5.61535C12.6857 5.56186 12.7575 5.54293 12.805 5.5818C13.5157 6.16218 14.3939 7.39537 14.8409 8.94283C14.8768 9.06808 14.989 9.15911 15.1227 9.16542L16.1808 9.21691C16.5915 9.23685 16.9759 9.42089 17.242 9.72554L17.7861 10.3481C17.8456 10.4156 17.9321 10.4548 18.0234 10.4551L23.3081 10.4624C23.4203 10.4624 23.5164 10.5481 23.5325 10.6647C23.6925 12.167 22.6717 15.3041 19.851 15.3041C14.4131 15.3041 11.0496 20.4837 13.0687 25.5334C20.2863 25.5334 26.1374 19.8495 26.1374 12.8377C26.1374 5.82631 20.2863 0.142411 13.0687 0.142411Z" fill="#231F20"/>
<path d="M16.6671 11.4092C16.6671 10.5188 15.8678 10.2128 13.9004 10.2128C13.9004 11.4955 16.2081 11.855 16.6671 11.4092Z" fill="#231F20"/>
<path d="M16.6671 11.4092C16.2081 11.855 13.9004 11.4955 13.9004 10.2128C15.8678 10.2128 16.6671 10.5188 16.6671 11.4092ZM19.851 15.3047C22.6717 15.3047 23.6925 12.1676 23.5325 10.6653C23.5164 10.5484 23.4203 10.4627 23.3081 10.4627L18.0234 10.4554C17.9321 10.455 17.8456 10.4162 17.7861 10.3484L17.2419 9.72615C16.9759 9.42151 16.5915 9.23713 16.1808 9.2172L15.1227 9.16603C14.9889 9.15939 14.8768 9.06869 14.8409 8.94312C14.3942 7.39565 13.5157 6.16246 12.805 5.58208C12.7575 5.54354 12.6857 5.56215 12.6576 5.61597C12.2818 6.3382 11.9935 7.05048 11.8437 7.89132C11.8324 7.9551 11.7452 7.9551 11.7113 7.89065C11.0828 6.70464 10.2722 5.58739 9.43472 4.77612C9.393 4.73592 9.32529 4.74024 9.2904 4.78609C8.56813 5.73523 7.68272 7.38436 7.52849 10.4122C7.52165 10.5461 7.42692 10.6593 7.29286 10.6926C5.93483 11.0281 4.10417 11.9872 3.47355 12.3304C3.33025 12.4085 3.35727 12.4646 3.47765 12.4779C3.59803 12.4912 5.58976 12.6938 5.67697 12.7028C5.76417 12.7118 5.79906 12.7806 5.69031 12.8198C4.61818 13.2071 2.42364 14.5616 1.7489 14.9851C1.62066 15.0655 1.70273 15.1177 1.77455 15.1227C1.84671 15.1273 4.16812 15.2307 4.2738 15.2353C4.37981 15.24 4.43316 15.329 4.29773 15.3728C4.22045 15.3978 2.28274 16.1197 0.629921 16.7363C0.629237 16.7366 0.628553 16.7369 0.627869 16.7373C2.32139 21.8411 7.25114 25.534 13.0687 25.534C11.0496 20.484 14.413 15.3047 19.851 15.3047Z" fill="white"/>
</g>
<defs>
<clipPath id="clip0_2061_3324">
<rect width="110" height="25.534" fill="white"/>
</clipPath>
</defs>
</svg>
