<svg width="110" height="40" viewBox="0 0 110 40" fill="none" xmlns="http://www.w3.org/2000/svg">
<g clip-path="url(#clip0_10397_80)">
<path d="M38.2102 13.041C36.3587 13.041 35.0268 13.7203 34.1676 15.0489V13.3806H31.3505V26.424H34.1676V19.4344C34.1676 16.9037 35.4996 15.6783 37.4809 15.6783C39.2824 15.6783 40.4013 16.7472 40.4013 18.7052V26.4273H43.2184V18.4188C43.2184 15.0789 41.2105 13.0443 38.2102 13.0443V13.041Z" fill="black"/>
<path d="M56.5713 15.2321C55.5024 13.7702 53.9906 13.041 52.006 13.041C50.2078 13.041 48.6927 13.6936 47.414 15.0223C46.1353 16.3509 45.5092 17.9693 45.5092 19.9006C45.5092 21.832 46.1353 23.447 47.414 24.779C48.6927 26.111 50.2045 26.7603 52.006 26.7603C53.9873 26.7603 55.5024 26.031 56.5713 24.5426V26.4206H59.3884V13.3806H56.5713V15.2321ZM55.3958 22.9009C54.6133 23.6834 53.621 24.0764 52.4488 24.0764C51.2767 24.0764 50.2844 23.6834 49.5018 22.9009C48.7193 22.0917 48.3297 21.1027 48.3297 19.9006C48.3297 18.6985 48.7193 17.7095 49.5018 16.927C50.2844 16.1178 51.2767 15.7282 52.4488 15.7282C53.621 15.7282 54.6133 16.1178 55.3958 16.927C56.1784 17.7095 56.568 18.7018 56.568 19.9006C56.568 21.0994 56.1784 22.0917 55.3958 22.9009Z" fill="black"/>
<path d="M69.5318 13.041C67.6803 13.041 66.3483 13.7203 65.4892 15.0489V13.3806H62.6721V26.424H65.4892V19.4344C65.4892 16.9037 66.8212 15.6783 68.8025 15.6783C70.604 15.6783 71.7229 16.7472 71.7229 18.7052V26.4273H74.54V18.4188C74.54 15.0789 72.532 13.0443 69.5318 13.0443V13.041Z" fill="black"/>
<path d="M87.9428 15.3119C86.8739 13.8001 85.3588 13.0442 83.4041 13.0442C81.5527 13.0442 80.0143 13.6969 78.7356 15.0255C77.4569 16.3308 76.8308 17.9225 76.8308 19.774C76.8308 21.6254 77.4569 23.2171 78.7356 24.5491C80.0143 25.8545 81.5527 26.5071 83.4041 26.5071C85.3621 26.5071 86.8739 25.7512 87.9428 24.2394V25.8312C87.9428 28.0988 86.481 29.4308 84.0568 29.4308C82.2054 29.4308 80.9267 28.7515 80.2474 27.4229L77.8198 28.8314C78.942 30.9426 81.0033 31.9882 84.0035 31.9882C85.855 31.9882 87.4467 31.4654 88.752 30.3965C90.0574 29.3276 90.71 27.8125 90.71 25.8312V13.3805H87.9462V15.3119H87.9428ZM86.7441 22.6944C85.9615 23.4769 84.9692 23.8665 83.7971 23.8665C82.6249 23.8665 81.6326 23.4736 80.8234 22.6944C80.0409 21.9118 79.6513 20.9461 79.6513 19.774C79.6513 18.6019 80.0409 17.6362 80.8234 16.8536C81.6326 16.0711 82.6249 15.6815 83.7971 15.6815C84.9692 15.6815 85.9615 16.0711 86.7441 16.8536C87.5532 17.6362 87.9428 18.6019 87.9428 19.774C87.9428 20.9461 87.5532 21.9118 86.7441 22.6944Z" fill="black"/>
<path d="M105.025 15.0255C103.697 13.6969 102.078 13.0442 100.147 13.0442C98.2157 13.0442 96.6006 13.6969 95.2687 15.0255C93.94 16.3541 93.2607 17.9725 93.2607 19.9039C93.2607 21.8352 93.94 23.4502 95.2687 24.7822C96.5973 26.1142 98.2423 26.7635 100.147 26.7635C102.052 26.7635 103.693 26.1109 105.025 24.7822C106.354 23.4536 107.033 21.8352 107.033 19.9039C107.033 17.9725 106.354 16.3575 105.025 15.0255ZM103.044 22.8509C102.262 23.6334 101.296 24.023 100.147 24.023C98.9982 24.023 98.0358 23.6334 97.25 22.8509C96.4641 22.0683 96.0778 21.076 96.0778 19.9039C96.0778 18.7317 96.4674 17.7394 97.25 16.9569C98.0325 16.1743 98.9982 15.7814 100.147 15.7814C101.296 15.7814 102.258 16.1743 103.044 16.9569C103.83 17.7394 104.216 18.7317 104.216 19.9039C104.216 21.076 103.823 22.0683 103.044 22.8509Z" fill="black"/>
<path d="M12.7228 7.17706C5.6966 7.17706 -0.000923157 12.8746 -0.000923157 19.9008C-0.000923157 21.2627 0.212193 22.578 0.608456 23.8068C2.21682 23.1874 4.10489 22.4648 4.17815 22.4415C4.31135 22.3982 4.25807 22.3083 4.15484 22.305C4.05161 22.3016 1.79058 22.1984 1.72066 22.1918C1.65073 22.1851 1.57081 22.1351 1.69735 22.0552C2.35334 21.6323 4.49116 20.2737 5.53344 19.8841C5.63999 19.8441 5.60669 19.7742 5.52012 19.7676C5.43687 19.7576 3.49551 19.5544 3.37896 19.5411C3.26242 19.5278 3.23578 19.4712 3.37563 19.3946C3.98834 19.0516 5.77319 18.0893 7.09518 17.7529C7.22504 17.7196 7.31828 17.6064 7.32494 17.4732C7.47479 14.4397 8.33724 12.7847 9.03986 11.8356C9.07316 11.789 9.13976 11.7857 9.17972 11.8257C9.99555 12.6382 10.7847 13.7604 11.3975 14.9491C11.4308 15.0124 11.514 15.0124 11.5273 14.9491C11.6738 14.1067 11.9536 13.3941 12.3198 12.6681C12.3465 12.6149 12.4164 12.5949 12.463 12.6348C13.1557 13.2176 14.0115 14.453 14.4444 16.0047C14.481 16.1313 14.5875 16.2212 14.7174 16.2278L15.7464 16.2778C16.1459 16.2978 16.5189 16.4809 16.7786 16.7873L17.3081 17.41C17.3647 17.4766 17.4513 17.5165 17.5379 17.5165L22.6826 17.5232C22.7925 17.5232 22.8857 17.6098 22.9024 17.7263C23.0589 19.2314 22.0632 22.3782 19.3161 22.3782C14.0214 22.3782 10.7448 27.5696 12.7128 32.6311C19.7423 32.6311 25.4365 26.9336 25.4365 19.9074C25.4365 12.8812 19.7523 7.17706 12.7228 7.17706Z" fill="black"/>
<path d="M16.2293 18.4691C16.2293 17.5767 15.4501 17.2703 13.5354 17.2703C13.5354 18.5557 15.7831 18.9153 16.2293 18.4691Z" fill="black"/>
</g>
<defs>
<clipPath id="clip0_10397_80">
<rect width="107.034" height="25.4507" fill="white" transform="translate(0 7.17682)"/>
</clipPath>
</defs>
</svg>
