<svg width="480" height="114" viewBox="0 0 480 114" fill="currentColor" xmlns="http://www.w3.org/2000/svg">
<g clip-path="url(#clip0_1967_296)">
<path d="M171.152 26.2667C162.859 26.2667 156.893 29.3095 153.044 35.2608V27.7881H140.426V86.2124H153.044V54.9046C153.044 43.5688 159.011 38.0799 167.885 38.0799C175.955 38.0799 180.966 42.8677 180.966 51.6381V86.2273H193.585V50.3554C193.585 35.395 184.591 26.2816 171.152 26.2816V26.2667Z" fill="currentColor"/>
<path d="M253.396 36.0812C248.608 29.5332 241.836 26.2667 232.946 26.2667C224.892 26.2667 218.105 29.1902 212.378 35.1415C206.65 41.0928 203.846 48.3418 203.846 56.9928C203.846 65.6438 206.65 72.8779 212.378 78.8441C218.105 84.8103 224.877 87.7189 232.946 87.7189C241.821 87.7189 248.608 84.4524 253.396 77.7851V86.1975H266.014V27.7881H253.396V36.0812ZM248.131 70.4317C244.625 73.9369 240.181 75.6969 234.93 75.6969C229.68 75.6969 225.235 73.9369 221.73 70.4317C218.225 66.8072 216.48 62.3773 216.48 56.9928C216.48 51.6083 218.225 47.1783 221.73 43.6732C225.235 40.0487 229.68 38.3036 234.93 38.3036C240.181 38.3036 244.625 40.0487 248.131 43.6732C251.636 47.1783 253.381 51.6232 253.381 56.9928C253.381 62.3624 251.636 66.8072 248.131 70.4317Z" fill="currentColor"/>
<path d="M311.45 26.2667C303.157 26.2667 297.19 29.3095 293.342 35.2608V27.7881H280.724V86.2124H293.342V54.9046C293.342 43.5688 299.308 38.0799 308.183 38.0799C316.253 38.0799 321.264 42.8677 321.264 51.6381V86.2273H333.883V50.3554C333.883 35.395 324.889 26.2816 311.45 26.2816V26.2667Z" fill="currentColor"/>
<path d="M393.918 36.4391C389.13 29.6674 382.343 26.2816 373.588 26.2816C365.295 26.2816 358.404 29.205 352.676 35.1563C346.949 41.0032 344.145 48.1329 344.145 56.4259C344.145 64.719 346.949 71.8486 352.676 77.8148C358.404 83.6617 365.295 86.5852 373.588 86.5852C382.358 86.5852 389.13 83.1994 393.918 76.4277V83.5573C393.918 93.7148 387.37 99.6811 376.511 99.6811C368.218 99.6811 362.491 96.6383 359.448 90.687L348.574 96.9963C353.601 106.453 362.834 111.136 376.273 111.136C384.566 111.136 391.695 108.794 397.542 104.007C403.389 99.2187 406.313 92.4321 406.313 83.5573V27.788H393.933V36.4391H393.918ZM388.548 69.5069C385.043 73.012 380.598 74.7572 375.348 74.7572C370.098 74.7572 365.653 72.9971 362.028 69.5069C358.523 66.0017 356.778 61.6762 356.778 56.4259C356.778 51.1756 358.523 46.8501 362.028 43.345C365.653 39.8398 370.098 38.0947 375.348 38.0947C380.598 38.0947 385.043 39.8398 388.548 43.345C392.173 46.8501 393.918 51.1756 393.918 56.4259C393.918 61.6762 392.173 66.0017 388.548 69.5069Z" fill="currentColor"/>
<path d="M470.434 35.1563C464.483 29.205 457.234 26.2816 448.583 26.2816C439.932 26.2816 432.698 29.205 426.732 35.1563C420.781 41.1076 417.738 48.3566 417.738 57.0076C417.738 65.6587 420.781 72.8927 426.732 78.8589C432.683 84.8252 440.051 87.7337 448.583 87.7337C457.115 87.7337 464.468 84.8102 470.434 78.8589C476.386 72.9076 479.429 65.6587 479.429 57.0076C479.429 48.3566 476.386 41.1225 470.434 35.1563ZM461.56 70.2079C458.055 73.7131 453.729 75.4582 448.583 75.4582C443.437 75.4582 439.127 73.7131 435.607 70.2079C432.087 66.7027 430.356 62.2579 430.356 57.0076C430.356 51.7573 432.101 47.3125 435.607 43.8073C439.112 40.3022 443.437 38.5422 448.583 38.5422C453.729 38.5422 458.04 40.3022 461.56 43.8073C465.08 47.3125 466.81 51.7573 466.81 57.0076C466.81 62.2579 465.05 66.7027 461.56 70.2079Z" fill="currentColor"/>
<path d="M56.988 0.00115967C25.5161 0.00115967 -0.00439453 25.5217 -0.00439453 56.9935C-0.00439453 63.094 0.950202 68.9857 2.72515 74.4895C9.92937 71.7152 18.3865 68.4785 18.7146 68.3741C19.3113 68.1802 19.0726 67.7775 18.6102 67.7626C18.1479 67.7477 8.02018 67.2853 7.70695 67.2555C7.39373 67.2256 7.03575 67.0019 7.60255 66.6439C10.5409 64.7496 20.1167 58.6641 24.7853 56.919C25.2626 56.74 25.1134 56.4268 24.7256 56.3969C24.3527 56.3522 15.657 55.4423 15.1349 55.3827C14.6129 55.323 14.4935 55.0694 15.12 54.7264C17.8645 53.1901 25.8592 48.8795 31.7807 47.373C32.3624 47.2239 32.78 46.7167 32.8099 46.1201C33.4811 32.532 37.3442 25.119 40.4914 20.868C40.6405 20.6592 40.9388 20.6443 41.1178 20.8233C44.7721 24.4627 48.3071 29.4892 51.0516 34.8141C51.2008 35.0975 51.5736 35.0975 51.6333 34.8141C52.2896 31.0405 53.5425 27.8485 55.1832 24.5969C55.3025 24.3583 55.6158 24.2688 55.8246 24.4478C58.927 27.058 62.7603 32.5917 64.6993 39.5423C64.8634 40.1091 65.3407 40.5118 65.9224 40.5417L70.5313 40.7654C72.3212 40.8549 73.9917 41.6753 75.1552 43.0475L77.5267 45.8367C77.7803 46.135 78.1681 46.314 78.5559 46.314L101.6 46.3438C102.093 46.3438 102.51 46.7316 102.585 47.2537C103.286 53.9955 98.8262 68.0907 86.5208 68.0907C62.8051 68.0907 48.1281 91.3441 56.9432 114.016C88.43 114.016 113.936 88.4952 113.936 57.0234C113.936 25.5515 88.4748 0.00115967 56.988 0.00115967Z" fill="currentColor"/>
<path d="M72.6946 50.5809C72.6946 46.5835 69.2044 45.2113 60.6279 45.2113C60.6279 50.9687 70.6959 52.5796 72.6946 50.5809Z" fill="currentColor"/>
<path d="M86.5789 68.0765C98.8842 68.0765 103.329 53.9962 102.643 47.2395C102.568 46.7174 102.151 46.3296 101.659 46.3296L78.614 46.2998C78.2112 46.2998 77.8383 46.1208 77.5848 45.8225L75.2132 43.0333C74.0498 41.6611 72.3793 40.8407 70.5894 40.7512L65.9805 40.5275C65.3988 40.4976 64.9065 40.0949 64.7574 39.5281C62.8035 32.5775 58.9851 27.0438 55.8826 24.4336C55.6738 24.2546 55.3606 24.3441 55.2413 24.5827C53.6005 27.8194 52.3476 31.0263 51.6914 34.7999C51.6466 35.0833 51.2588 35.0833 51.1096 34.7999C48.3652 29.475 44.8302 24.4634 41.1759 20.8091C40.9969 20.6301 40.6986 20.645 40.5494 20.8538C37.4022 25.1197 33.5391 32.5178 32.8679 46.1059C32.8381 46.7025 32.4204 47.2097 31.8387 47.3588C25.9172 48.8653 17.9374 53.1759 15.178 54.7122C14.5516 55.0552 14.6709 55.3088 15.193 55.3685C15.715 55.4281 24.4108 56.338 24.7837 56.3827C25.1566 56.4275 25.3206 56.7258 24.8433 56.9048C20.1598 58.6499 10.599 64.7205 7.66059 66.6297C7.0938 66.9877 7.45178 67.2263 7.765 67.2413C8.07823 67.2562 18.2059 67.7186 18.6683 67.7484C19.1307 67.7633 19.3693 68.166 18.7727 68.3599C18.4296 68.4793 9.98742 71.7159 2.7832 74.4753C10.1664 97.3856 31.6747 113.972 57.046 113.972C48.2459 91.3001 62.9079 68.0467 86.6236 68.0467L86.5789 68.0765ZM72.6925 50.5806C70.6938 52.5793 60.6258 50.9684 60.6258 45.211C69.2022 45.211 72.6925 46.5832 72.6925 50.5806Z" fill="none"/>
</g>
<defs>
<clipPath id="clip0_1967_296">
<rect width="479.431" height="114" fill="black"/>
</clipPath>
</defs>
</svg>