<svg width="215" height="160" viewBox="0 0 215 160" fill="none"
  xmlns="http://www.w3.org/2000/svg">
  <path d="M62.7489 26.6365C62.7489 26.6365 86.9824 45.0265 123.824 10.6406C156.542 -19.8966 183.257 28.2843 183.444 51.3573C183.686 81.2458 150.726 105.161 166.721 124.792C182.717 144.424 135 176.842 109.282 148.786C77.2904 113.886 68.6236 142.242 50.3885 142.242C37.301 142.242 10.4311 109.723 28.5761 85.5301C43.8448 65.1718 35.5175 58.4153 31.4849 51.3573C25.6678 41.1782 39.4824 13.5491 62.7489 26.6365Z" fill="#F4F4F5"/>
  <path d="M160.038 67.2754C161.341 67.7594 162.765 67.7916 164.119 67.4807C169.793 66.1783 189.304 62.7298 185.914 77.8489C185.175 80.8486 173.748 97.6478 190.022 103.78C191.214 104.235 192.475 104.484 193.751 104.515C198.762 104.618 208.691 103.435 212.846 99.2048C217.866 94.0948 212.382 96.5181 212.382 96.5181C212.382 96.5181 193.298 104.846 186.557 96.0106C185.806 95.0275 185.329 93.5997 185.192 92.3705C184.955 90.2393 185.901 87.423 187.144 84.9713C188.827 81.6532 196.904 66.7269 179.367 62.3787C175.327 61.4166 169.459 60.5524 161.893 63.7378C157.48 65.5958 158.457 66.6879 160.038 67.2754Z" fill="#D4D4D8"/>
  <path d="M163.944 61.7032L158.864 63.6043C157.111 64.2605 156.221 66.214 156.877 67.9674L157.129 68.6402C157.786 70.3936 159.739 71.2831 161.492 70.6268L166.572 68.7258C168.325 68.0695 169.215 66.1161 168.559 64.3626L168.307 63.6898C167.651 61.9364 165.697 61.0469 163.944 61.7032Z" fill="#18181B"/>
  <path d="M132.764 67.2041L116.012 73.4738C115.135 73.8019 114.69 74.7787 115.018 75.6554L115.084 75.8317C115.413 76.7084 116.389 77.1531 117.266 76.825L134.018 70.5553C134.895 70.2272 135.34 69.2505 135.011 68.3738L134.946 68.1974C134.617 67.3207 133.641 66.876 132.764 67.2041Z" fill="white"/>
  <path d="M137.439 79.6962L120.687 85.9659C119.81 86.294 119.366 87.2708 119.694 88.1475L119.76 88.3238C120.088 89.2006 121.065 89.6453 121.941 89.3172L138.694 83.0474C139.57 82.7193 140.015 81.7426 139.687 80.8658L139.621 80.6895C139.293 79.8128 138.316 79.3681 137.439 79.6962Z" fill="white"/>
  <path d="M152.906 58.679L139.329 63.7605C137.575 64.4167 136.686 66.3702 137.342 68.1236L141.977 80.5093C142.634 82.2628 144.587 83.1523 146.341 82.496L159.918 77.4146C161.671 76.7583 162.561 74.8048 161.905 73.0514L157.269 60.6657C156.613 58.9122 154.659 58.0228 152.906 58.679Z" fill="#A1A1AA"/>
  <path d="M140.731 61.9284L127.154 67.0098C125.4 67.6661 124.511 69.6195 125.167 71.373L130.698 86.1496C131.354 87.9031 133.307 88.7926 135.061 88.1363L148.638 83.0549C150.392 82.3986 151.281 80.4451 150.625 78.6917L145.094 63.915C144.438 62.1616 142.485 61.2721 140.731 61.9284Z" fill="#A1A1AA"/>
  <path d="M142.857 58.9295L142.75 58.9694C141.581 59.4069 140.988 60.7092 141.426 61.8781L149.173 82.5786C149.611 83.7476 150.913 84.3406 152.082 83.9031L152.188 83.8632C153.357 83.4257 153.95 82.1234 153.513 80.9544L145.765 60.254C145.328 59.085 144.026 58.492 142.857 58.9295Z" fill="#18181B"/>
  <path d="M4.41293 72.1646C4.41293 72.1646 31.6807 64.5016 27.7219 82.1564C27.0344 84.9499 17.138 99.3335 28.9261 106.24C31.4573 107.722 34.3784 108.379 37.3117 108.364C42.5711 108.337 50.9088 107.324 54.6544 103.512C59.6743 98.4017 54.1902 100.825 54.1902 100.825C54.1902 100.825 38.5299 107.267 30.4732 102.132C27.7222 100.379 26.4753 96.9838 27.2223 93.8082C27.6042 92.2308 28.1856 90.7085 28.9526 89.2782C30.7048 85.9965 38.7126 71.0338 21.175 66.6855C17.135 65.7235 11.2673 64.8592 3.70137 68.0447C-3.86455 71.2302 4.41293 72.1646 4.41293 72.1646Z" fill="#D4D4D8"/>
  <path d="M58.321 96.8744L53.2415 98.7755C51.488 99.4318 50.5985 101.385 51.2548 103.139L51.5066 103.812C52.1628 105.565 54.1163 106.454 55.8698 105.798L60.9493 103.897C62.7028 103.241 63.5922 101.287 62.936 99.5339L62.6842 98.8611C62.0279 97.1076 60.0745 96.2182 58.321 96.8744Z" fill="#18181B"/>
  <path d="M66.9032 88.5171L59.375 91.3346C57.6215 91.9908 56.7321 93.9443 57.3883 95.6978L61.0184 105.397C61.6746 107.15 63.6281 108.04 65.3815 107.384L72.9097 104.566C74.6632 103.91 75.5526 101.956 74.8964 100.203L71.2663 90.5037C70.6101 88.7503 68.6566 87.8608 66.9032 88.5171Z" fill="#A1A1AA"/>
  <path d="M79.4358 81.0496L68.2092 85.2513C66.4558 85.9076 65.5663 87.861 66.2226 89.6145L71.7529 104.391C72.4091 106.145 74.3626 107.034 76.1161 106.378L87.3427 102.176C89.0961 101.52 89.9856 99.5664 89.3294 97.8129L83.799 83.0363C83.1428 81.2828 81.1893 80.3933 79.4358 81.0496Z" fill="#A1A1AA"/>
  <path d="M81.8138 77.9894L81.7073 78.0292C80.5383 78.4667 79.9454 79.769 80.3829 80.938L88.1303 101.638C88.5678 102.807 89.8701 103.4 91.0391 102.963L91.1456 102.923C92.3145 102.486 92.9075 101.183 92.47 100.014L84.7226 79.3138C84.2851 78.1449 82.9828 77.5519 81.8138 77.9894Z" fill="#18181B"/>
  <path d="M106.022 102.524C106.401 102.671 106.709 102.959 106.88 103.328C107.052 103.697 107.073 104.118 106.94 104.502L102.223 119.081C101.941 119.952 101.018 120.426 100.191 120.124L99.0397 119.704C98.2135 119.402 97.817 118.445 98.1677 117.6L104.037 103.442C104.185 103.063 104.475 102.755 104.845 102.585C105.215 102.414 105.636 102.392 106.022 102.524V102.524Z" fill="#A1A1AA"/>
  <path d="M113.352 103.096C113.483 103.092 113.613 103.115 113.736 103.161C113.858 103.208 113.97 103.279 114.065 103.369C114.16 103.459 114.237 103.567 114.29 103.687C114.344 103.806 114.373 103.935 114.377 104.066L114.838 114.032C114.853 114.316 114.755 114.594 114.565 114.806C114.375 115.018 114.109 115.145 113.825 115.161L113.017 115.189C112.878 115.192 112.741 115.167 112.612 115.115C112.484 115.063 112.368 114.984 112.272 114.885C112.176 114.786 112.101 114.667 112.052 114.538C112.004 114.408 111.983 114.27 111.991 114.131L112.338 104.137C112.345 103.868 112.454 103.612 112.642 103.419C112.829 103.226 113.083 103.111 113.352 103.096V103.096Z" fill="#A1A1AA"/>
  <path d="M118.656 98.8205C119.344 98.3152 120.384 98.5982 121.014 99.4619L132.201 114.796C132.869 115.712 132.818 116.922 132.088 117.458L131.071 118.205C130.341 118.741 129.227 118.386 128.619 117.426L118.449 101.344C117.877 100.439 117.968 99.3256 118.656 98.8205Z" fill="#A1A1AA"/>
</svg>
