<svg width="110" height="30" viewBox="0 0 110 30" fill="none" xmlns="http://www.w3.org/2000/svg">
<path d="M15.2926 12.236C17.234 12.236 18.0228 12.5578 18.0228 13.4952C17.5697 13.9649 15.2926 13.586 15.2926 12.236ZM14.472 28.1444C14.445 28.1444 14.4183 28.1441 14.3916 28.1441C12.5727 22.8991 15.8734 17.5967 21.1647 17.5967C23.948 17.5967 24.9555 14.2937 24.7974 12.712C24.782 12.589 24.6868 12.4989 24.5759 12.4989L19.3612 12.4911C19.2712 12.4907 19.1853 12.4499 19.1272 12.3783L18.5902 11.7231C18.3274 11.4021 17.9486 11.2085 17.543 11.1875L16.4989 11.1336C16.3668 11.1265 16.2563 11.0308 16.2204 10.8988C15.7796 9.26966 14.9131 7.9711 14.2116 7.35995C14.165 7.31951 14.0938 7.33938 14.0665 7.39577C13.6955 8.15626 13.4108 8.9061 13.2633 9.79108C13.252 9.85847 13.1661 9.85847 13.1326 9.79072C12.5121 8.54217 11.7124 7.36598 10.8859 6.5115C10.8448 6.46929 10.7781 6.4739 10.7435 6.52214C10.0307 7.52134 9.15703 9.2576 9.00474 12.4453C8.99824 12.5868 8.90482 12.706 8.77238 12.7408C7.43226 13.0941 5.6257 14.1039 5.00355 14.4653C4.86221 14.5473 4.88856 14.6065 5.00766 14.6207C5.1264 14.6345 7.0921 14.8481 7.17799 14.8573C7.26389 14.8669 7.29845 14.9392 7.19134 14.9804C6.13286 15.3886 3.96766 16.8145 3.30171 17.26C3.17509 17.3448 3.25585 17.4001 3.32703 17.4051C3.39821 17.4101 5.68901 17.5186 5.79339 17.5236C5.89776 17.5285 5.95046 17.6225 5.817 17.6683C5.74376 17.6938 3.97964 18.3947 2.3962 19.0254C2.00299 17.7563 1.79013 16.4038 1.79013 14.9999C1.79013 7.74055 7.46785 1.85568 14.472 1.85568C21.4758 1.85568 27.1539 7.74055 27.1539 14.9999C27.1539 22.2596 21.4758 28.1444 14.472 28.1444ZM14.472 -0.00012207C6.49219 -0.00012207 0 6.72893 0 14.9999C0 23.2708 6.49219 29.9999 14.472 29.9999C22.4518 29.9999 28.944 23.2708 28.944 14.9999C28.944 6.72893 22.4518 -0.00012207 14.472 -0.00012207Z" fill="white"/>
<path d="M45.3256 13.4388V21.8502H42.4705V13.7403C42.4705 11.6851 41.334 10.5614 39.51 10.5614C37.5012 10.5614 36.1525 11.8494 36.1525 14.5071V21.8502H33.2974V8.15017H36.1525V9.90382C37.0251 8.50665 38.3728 7.79441 40.2502 7.79441C43.2897 7.79441 45.3256 9.93149 45.3256 13.4388Z" fill="white"/>
<path d="M54.6796 19.384C55.8702 19.384 56.8739 18.9725 57.6668 18.15C58.4604 17.3008 58.8567 16.2601 58.8567 14.9995C58.8567 13.7396 58.4604 12.6982 57.6668 11.876C56.8739 11.0265 55.8702 10.6161 54.6796 10.6161C53.4901 10.6161 52.4864 11.0265 51.6931 11.876C50.8998 12.6982 50.5036 13.7396 50.5036 14.9995C50.5036 16.2601 50.8998 17.3008 51.6931 18.15C52.4864 18.9725 53.4901 19.384 54.6796 19.384ZM58.8567 8.1495H61.7118V21.8495H58.8567V19.8767C57.7726 21.4388 56.2401 22.206 54.2306 22.206C52.407 22.206 50.8735 21.5207 49.5782 20.1232C48.2826 18.726 47.6484 16.9993 47.6484 14.9995C47.6484 12.9724 48.2826 11.273 49.5782 9.87584C50.8735 8.47902 52.407 7.79409 54.2306 7.79409C56.2401 7.79409 57.7726 8.56096 58.8567 10.0954V8.1495Z" fill="white"/>
<path d="M77.0673 13.4388V21.8502H74.2122V13.7403C74.2122 11.6851 73.076 10.5614 71.2517 10.5614C69.2429 10.5614 67.8942 11.8494 67.8942 14.5071V21.8502H65.0391V8.15017H67.8942V9.90382C68.7665 8.50665 70.1148 7.79441 71.9919 7.79441C75.0318 7.79441 77.0673 9.93149 77.0673 13.4388Z" fill="white"/>
<path d="M86.448 19.4646C87.6376 19.4646 88.6423 19.0535 89.4349 18.2317C90.2548 17.4098 90.6511 16.3964 90.6511 15.1628C90.6511 13.9298 90.2548 12.9164 89.4349 12.0942C88.6423 11.272 87.6376 10.8613 86.448 10.8613C85.2585 10.8613 84.2541 11.272 83.4345 12.0942C82.6412 12.9164 82.2452 13.9298 82.2452 15.1628C82.2452 16.3964 82.6412 17.4098 83.4345 18.2317C84.2541 19.0535 85.2585 19.4646 86.448 19.4646ZM90.6511 8.44967H93.4532V21.5197C93.4532 23.6018 92.7924 25.1913 91.4707 26.3146C90.1487 27.4376 88.5362 27.986 86.6595 27.986C83.6189 27.986 81.531 26.8899 80.3942 24.6706L82.8527 23.1911C83.5399 24.5883 84.8355 25.3002 86.7119 25.3002C89.171 25.3002 90.6511 23.9033 90.6511 21.5197V19.8484C89.567 21.4374 88.0338 22.232 86.051 22.232C84.1747 22.232 82.6152 21.5467 81.3196 20.1768C80.0239 18.7797 79.3901 17.1083 79.3901 15.1628C79.3901 13.2176 80.0239 11.5462 81.3196 10.176C82.6152 8.77919 84.1747 8.09426 86.051 8.09426C88.0338 8.09426 89.567 8.88844 90.6511 10.4779V8.44967Z" fill="white"/>
<path d="M103.021 19.329C104.184 19.329 105.162 18.9183 105.955 18.0961C106.748 17.2739 107.145 16.2325 107.145 14.9995C107.145 13.7669 106.748 12.7252 105.955 11.904C105.162 11.0818 104.184 10.6704 103.021 10.6704C101.858 10.6704 100.88 11.0818 100.087 11.904C99.2934 12.7252 98.8974 13.7669 98.8974 14.9995C98.8974 16.2325 99.2934 17.2739 100.087 18.0961C100.88 18.9183 101.858 19.329 103.021 19.329ZM98.0775 20.1232C96.7292 18.726 96.042 17.0277 96.042 14.9995C96.042 12.9727 96.7292 11.2734 98.0775 9.87619C99.4258 8.47902 101.091 7.79409 103.021 7.79409C104.977 7.79409 106.616 8.47902 107.964 9.87619C109.312 11.2734 110 12.9727 110 14.9995C110 17.0277 109.312 18.726 107.964 20.1232C106.616 21.5211 104.977 22.206 103.021 22.206C101.091 22.206 99.4258 21.5211 98.0775 20.1232Z" fill="white"/>
</svg>
