<svg width="431" height="100" viewBox="0 0 431 100" fill="none" xmlns="http://www.w3.org/2000/svg">
<g clip-path="url(#clip0_2061_3248)">
<path d="M153.688 23.4749C146.237 23.4749 140.887 26.1239 137.424 31.3204V24.7981H126.093V75.7573H137.424V48.4439C137.424 38.5583 142.777 33.7677 150.75 33.7677C157.989 33.7677 162.499 37.9481 162.499 45.5919V75.7573H173.831V44.4704C173.831 31.4245 165.751 23.4749 153.688 23.4749Z" fill="#231F20"/>
<path d="M222.813 61.9967C219.664 65.0555 215.681 66.5856 210.957 66.5856C206.237 66.5856 202.252 65.0555 199.104 61.9967C195.955 58.8377 194.383 54.9683 194.383 50.2779C194.383 45.5915 195.955 41.7182 199.104 38.6593C202.252 35.5003 206.237 33.9729 210.957 33.9729C215.681 33.9729 219.664 35.5003 222.813 38.6593C225.962 41.7182 227.533 45.5915 227.533 50.2779C227.533 54.9683 225.962 58.8377 222.813 61.9967ZM227.533 32.0356C223.231 26.329 217.149 23.4758 209.173 23.4758C201.938 23.4758 195.852 26.0233 190.711 31.2198C185.567 36.4163 183.052 42.7382 183.052 50.2779C183.052 57.7175 185.567 64.1383 190.711 69.3361C195.852 74.5352 201.938 77.084 209.173 77.084C217.149 77.084 223.231 74.2294 227.533 68.4201V75.7569H238.865V24.799H227.533V32.0356Z" fill="#231F20"/>
<path d="M279.666 23.4749C272.215 23.4749 266.864 26.1239 263.402 31.3204V24.7981H252.071V75.7573H263.402V48.4439C263.402 38.5583 268.756 33.7677 276.729 33.7677C283.968 33.7677 288.477 37.9481 288.477 45.5919V75.7573H299.808V44.4704C299.808 31.4245 291.729 23.4749 279.666 23.4749Z" fill="#231F20"/>
<path d="M348.896 61.1847C345.749 64.2396 341.762 65.7697 337.041 65.7697C332.321 65.7697 328.333 64.2396 325.082 61.1847C321.933 58.1259 320.361 54.3567 320.361 49.7678C320.361 45.1815 321.933 41.4123 325.082 38.3534C328.333 35.2959 332.321 33.7684 337.041 33.7684C341.762 33.7684 345.749 35.2959 348.896 38.3534C352.151 41.4123 353.723 45.1815 353.723 49.7678C353.723 54.3567 352.151 58.1259 348.896 61.1847ZM353.723 32.3412C349.421 26.4304 343.336 23.4756 335.467 23.4756C328.019 23.4756 321.83 26.0231 316.688 31.2196C311.545 36.3159 309.03 42.5338 309.03 49.7678C309.03 57.0056 311.545 63.2222 316.688 68.42C321.83 73.515 328.019 76.0638 335.467 76.0638C343.336 76.0638 349.421 73.109 353.723 67.197V73.4135C353.723 82.2803 347.848 87.4768 338.09 87.4768C330.642 87.4768 325.5 84.8278 322.773 79.6313L313.015 85.1336C317.527 93.3889 325.815 97.4678 337.881 97.4678C345.329 97.4678 351.728 95.4251 356.974 91.2486C362.221 87.0709 364.843 81.1588 364.843 73.4135V24.7988H353.723V32.3412Z" fill="#231F20"/>
<path d="M414.455 61.7959C411.306 64.8547 407.426 66.3809 402.81 66.3809C398.193 66.3809 394.311 64.8547 391.164 61.7959C388.017 58.737 386.443 54.8637 386.443 50.2774C386.443 45.6925 388.017 41.8192 391.164 38.7629C394.311 35.7054 398.193 34.1753 402.81 34.1753C407.426 34.1753 411.306 35.7054 414.455 38.7629C417.601 41.8192 419.175 45.6925 419.175 50.2774C419.175 54.8637 417.601 58.737 414.455 61.7959ZM422.428 31.2206C417.079 26.0228 410.572 23.4753 402.81 23.4753C395.149 23.4753 388.54 26.0228 383.188 31.2206C377.839 36.4171 375.112 42.7377 375.112 50.2774C375.112 57.8198 377.839 64.1391 383.188 69.3356C388.54 74.5347 395.149 77.0835 402.81 77.0835C410.572 77.0835 417.079 74.5347 422.428 69.3356C427.778 64.1391 430.507 57.8198 430.507 50.2774C430.507 42.7377 427.778 36.4171 422.428 31.2206Z" fill="#231F20"/>
<path d="M51.1815 0.558361C22.9147 0.558361 -6.10352e-05 22.8185 -6.10352e-05 50.2777C-6.10352e-05 55.603 0.861134 60.7331 2.45629 65.5432L2.467 65.5445C8.94003 63.1284 16.5287 60.3011 16.8314 60.2036C17.3618 60.0318 17.1529 59.6844 16.7377 59.6649C16.3238 59.648 7.23237 59.2434 6.94977 59.2238C6.66851 59.2056 6.34707 59.0001 6.84932 58.6852C9.49184 57.0276 18.0864 51.7231 22.2852 50.2061C22.7111 50.0526 22.5745 49.7819 22.233 49.7481C21.8914 49.713 14.0911 48.9193 13.6197 48.8673C13.1482 48.8152 13.0424 48.5941 13.6036 48.2896C16.0734 46.9443 23.2428 43.1881 28.5614 41.874C29.0864 41.7452 29.4574 41.3015 29.4842 40.7759C30.0869 28.9179 33.5558 22.4594 36.3844 18.7435C36.521 18.5639 36.7862 18.5457 36.9496 18.7032C40.2297 21.8817 43.4039 26.2572 45.8656 30.9007C45.9982 31.1544 46.3397 31.1531 46.3839 30.9033C46.9706 27.6116 48.0996 24.8221 49.5716 21.9923C49.6814 21.7828 49.9627 21.7086 50.1488 21.8609C52.932 24.1338 56.3714 28.9634 58.1219 35.0238C58.2625 35.5143 58.7019 35.8708 59.2255 35.8956L63.3695 36.0972C64.978 36.1753 66.4834 36.8961 67.5254 38.0892L69.6563 40.5274C69.8894 40.7915 70.2282 40.945 70.5858 40.9463L91.2826 40.975C91.7219 40.975 92.0983 41.3106 92.1612 41.7673C92.788 47.6508 88.7901 59.9368 77.7432 59.9368C56.4464 59.9368 43.274 80.2219 51.1815 99.9982C79.4482 99.9982 102.363 77.7382 102.363 50.2777C102.363 22.8185 79.4482 0.558361 51.1815 0.558361Z" fill="#231F20"/>
<path d="M65.274 44.6822C65.274 41.1953 62.144 39.997 54.4388 39.997C54.4388 45.0205 63.4766 46.4282 65.274 44.6822Z" fill="#231F20"/>
<path d="M65.2741 44.6822C63.4767 46.4282 54.4388 45.0205 54.4388 39.997C62.144 39.997 65.2741 41.1953 65.2741 44.6822ZM77.7433 59.9386C88.7902 59.9386 92.7881 47.6525 92.1613 41.7691C92.0984 41.3111 91.722 40.9754 91.2827 40.9754L70.5859 40.9468C70.2283 40.9455 69.8894 40.7933 69.6564 40.5279L67.5255 38.0909C66.4835 36.8979 64.9781 36.1758 63.3695 36.0977L59.2256 35.8973C58.7019 35.8713 58.2626 35.5161 58.122 35.0243C56.3728 28.9639 52.9321 24.1343 50.1489 21.8613C49.9628 21.7104 49.6815 21.7833 49.5717 21.994C48.0997 24.8226 46.9707 27.6121 46.384 30.9051C46.3398 31.1549 45.9983 31.1549 45.8657 30.9025C43.404 26.2577 40.2298 21.8821 36.9497 18.7049C36.7863 18.5475 36.5211 18.5644 36.3845 18.744C33.5558 22.4611 30.0883 28.9197 29.4842 40.7777C29.4575 41.302 29.0865 41.7457 28.5614 41.8758C23.2429 43.1899 16.0734 46.9461 13.6037 48.2901C13.0425 48.5958 13.1483 48.8157 13.6198 48.8677C14.0912 48.9198 21.8915 49.7135 22.2331 49.7486C22.5746 49.7837 22.7112 50.053 22.2853 50.2066C18.0865 51.7236 9.49192 57.0281 6.8494 58.687C6.34715 59.0018 6.66859 59.2061 6.94985 59.2256C7.23245 59.2438 16.3239 59.6485 16.7378 59.6667C17.1529 59.6849 17.3619 60.0336 16.8315 60.2053C16.5288 60.3029 8.94011 63.1301 2.46708 65.5449C2.4644 65.5462 2.46172 65.5475 2.45905 65.5488C9.09146 85.5373 28.398 100 51.1815 100C43.2741 80.2224 56.4465 59.9386 77.7433 59.9386Z" fill="white"/>
</g>
<defs>
<clipPath id="clip0_2061_3248">
<rect width="430.798" height="100" fill="white"/>
</clipPath>
</defs>
</svg>
