<svg width="110" height="30" viewBox="0 0 110 30" fill="none" xmlns="http://www.w3.org/2000/svg">
<path d="M15.2928 12.1512C17.2342 12.1512 18.0231 12.4707 18.0231 13.4017C17.57 13.868 15.2928 13.4918 15.2928 12.1512ZM14.4722 27.9493C14.4452 27.9493 14.4185 27.9489 14.3918 27.9489C12.5729 22.7403 15.8736 17.4746 21.1649 17.4746C23.9482 17.4746 24.9557 14.1945 24.7976 12.6239C24.7822 12.5017 24.687 12.4122 24.5762 12.4122L19.3615 12.4045C19.2715 12.4041 19.1856 12.3636 19.1274 12.2924L18.5904 11.6418C18.3276 11.3231 17.9488 11.1307 17.5433 11.11L16.4992 11.0564C16.3671 11.0494 16.2565 10.9543 16.2206 10.8232C15.7798 9.20539 14.9133 7.91583 14.2118 7.30892C14.1652 7.26876 14.0941 7.28849 14.0667 7.34449C13.6957 8.0997 13.411 8.84434 13.2635 9.72319C13.2522 9.79011 13.1663 9.79011 13.1328 9.72283C12.5123 8.48294 11.7126 7.31491 10.8861 6.46635C10.8451 6.42444 10.7783 6.42902 10.7438 6.47692C10.0309 7.46919 9.15724 9.19341 9.00496 12.359C8.99846 12.4996 8.90503 12.6179 8.77259 12.6524C7.43247 13.0033 5.62591 14.0061 5.00376 14.365C4.86243 14.4464 4.88878 14.5052 5.00787 14.5193C5.12662 14.5331 7.09231 14.7451 7.17821 14.7543C7.2641 14.7638 7.29867 14.8356 7.19155 14.8765C6.13308 15.2819 3.96787 16.6979 3.30192 17.1403C3.1753 17.2245 3.25606 17.2795 3.32724 17.2844C3.39842 17.2893 5.68922 17.3971 5.7936 17.4021C5.89797 17.407 5.95068 17.5003 5.81721 17.5458C5.74398 17.5711 3.97985 18.2672 2.39641 18.8935C2.00321 17.6331 1.79035 16.29 1.79035 14.8959C1.79035 7.68687 7.46806 1.84282 14.4722 1.84282C21.476 1.84282 27.1541 7.68687 27.1541 14.8959C27.1541 22.1052 21.476 27.9493 14.4722 27.9493ZM14.4722 -0.000107465C6.4924 -0.000107465 0.000213623 6.68228 0.000213623 14.8959C0.000213623 23.1094 6.4924 29.7918 14.4722 29.7918C22.452 29.7918 28.9442 23.1094 28.9442 14.8959C28.9442 6.68228 22.452 -0.000107465 14.4722 -0.000107465Z" fill="#202020"/>
<path d="M45.3255 13.3456V21.6987H42.4704V13.645C42.4704 11.6041 41.3339 10.4882 39.5099 10.4882C37.5011 10.4882 36.1524 11.7672 36.1524 14.4065V21.6987H33.2973V8.09365H36.1524V9.83514C37.0251 8.44766 38.3727 7.74035 40.2501 7.74035C43.2897 7.74035 45.3255 9.86261 45.3255 13.3456Z" fill="#202020"/>
<path d="M54.6796 19.2495C55.8702 19.2495 56.8739 18.8409 57.6668 18.0241C58.4604 17.1808 58.8567 16.1474 58.8567 14.8955C58.8567 13.6443 58.4604 12.6101 57.6668 11.7936C56.8739 10.95 55.8702 10.5425 54.6796 10.5425C53.49 10.5425 52.4863 10.95 51.6931 11.7936C50.8998 12.6101 50.5035 13.6443 50.5035 14.8955C50.5035 16.1474 50.8998 17.1808 51.6931 18.0241C52.4863 18.8409 53.49 19.2495 54.6796 19.2495ZM58.8567 8.09298H61.7118V21.698H58.8567V19.7388C57.7725 21.2901 56.2401 22.052 54.2306 22.052C52.4069 22.052 50.8735 21.3715 49.5782 19.9836C48.2825 18.5961 47.6484 16.8814 47.6484 14.8955C47.6484 12.8824 48.2825 11.1948 49.5782 9.80734C50.8735 8.42021 52.4069 7.74003 54.2306 7.74003C56.2401 7.74003 57.7725 8.50158 58.8567 10.0254V8.09298Z" fill="#202020"/>
<path d="M77.0674 13.3456V21.6987H74.2123V13.645C74.2123 11.6041 73.0761 10.4882 71.2518 10.4882C69.243 10.4882 67.8943 11.7672 67.8943 14.4065V21.6987H65.0392V8.09365H67.8943V9.83514C68.7666 8.44766 70.1149 7.74035 71.992 7.74035C75.0319 7.74035 77.0674 9.86261 77.0674 13.3456Z" fill="#202020"/>
<path d="M86.4481 19.3296C87.6377 19.3296 88.6424 18.9213 89.435 18.1052C90.255 17.289 90.6512 16.2827 90.6512 15.0576C90.6512 13.8332 90.255 12.8268 89.435 12.0103C88.6424 11.1938 87.6377 10.786 86.4481 10.786C85.2586 10.786 84.2542 11.1938 83.4346 12.0103C82.6413 12.8268 82.2454 13.8332 82.2454 15.0576C82.2454 16.2827 82.6413 17.289 83.4346 18.1052C84.2542 18.9213 85.2586 19.3296 86.4481 19.3296ZM90.6512 8.39105H93.4533V21.3705C93.4533 23.4381 92.7925 25.0165 91.4709 26.1321C90.1489 27.2473 88.5363 27.7919 86.6596 27.7919C83.619 27.7919 81.5312 26.7034 80.3943 24.4994L82.8528 23.0302C83.54 24.4177 84.8356 25.1247 86.712 25.1247C89.1712 25.1247 90.6512 23.7375 90.6512 21.3705V19.7107C89.5671 21.2888 88.034 22.0778 86.0512 22.0778C84.1748 22.0778 82.6153 21.3972 81.3197 20.0369C80.0241 18.6494 79.3903 16.9896 79.3903 15.0576C79.3903 13.1259 80.0241 11.4661 81.3197 10.1054C82.6153 8.71829 84.1748 8.03811 86.0512 8.03811C88.034 8.03811 89.5671 8.82678 90.6512 10.4052V8.39105Z" fill="#202020"/>
<path d="M103.021 19.195C104.184 19.195 105.162 18.7871 105.955 17.9706C106.748 17.1541 107.145 16.1199 107.145 14.8955C107.145 13.6714 106.748 12.6369 105.955 11.8215C105.162 11.005 104.184 10.5964 103.021 10.5964C101.858 10.5964 100.88 11.005 100.087 11.8215C99.2933 12.6369 98.8974 13.6714 98.8974 14.8955C98.8974 16.1199 99.2933 17.1541 100.087 17.9706C100.88 18.7871 101.858 19.195 103.021 19.195ZM98.0774 19.9836C96.7291 18.5961 96.0419 16.9096 96.0419 14.8955C96.0419 12.8828 96.7291 11.1952 98.0774 9.80769C99.4258 8.42021 101.091 7.74003 103.021 7.74003C104.977 7.74003 106.616 8.42021 107.964 9.80769C109.312 11.1952 110 12.8828 110 14.8955C110 16.9096 109.312 18.5961 107.964 19.9836C106.616 21.3718 104.977 22.052 103.021 22.052C101.091 22.052 99.4258 21.3718 98.0774 19.9836Z" fill="#202020"/>
</svg>
