<svg width="50" height="50" viewBox="0 0 50 50" fill="none" xmlns="http://www.w3.org/2000/svg">
<g clip-path="url(#clip0_10737_2)">
<path d="M25.0015 0C11.1931 0 0 11.1931 0 25.0015C0 27.6782 0.421718 30.2583 1.20073 32.6773H1.20658C4.36947 31.4649 8.07415 30.0416 8.22351 29.9918C8.48123 29.9069 8.38166 29.7312 8.17665 29.7224C7.97458 29.7136 3.53482 29.5115 3.39718 29.4998C3.25953 29.4881 3.10139 29.3885 3.34739 29.2274C4.6389 28.3928 8.83559 25.7278 10.8885 24.9634C11.0965 24.8872 11.0291 24.7496 10.8622 24.732C10.6953 24.7145 6.88514 24.3162 6.65378 24.2898C6.42242 24.2635 6.37264 24.1522 6.645 23.9999C7.85158 23.3234 11.3542 21.4344 13.9519 20.7755C14.2096 20.7111 14.3882 20.4885 14.4029 20.222C14.6986 14.2594 16.3914 11.0115 17.7737 9.14309C17.841 9.05231 17.9699 9.04352 18.049 9.12259C19.6509 10.7216 21.2031 12.921 22.4038 15.2551C22.4682 15.381 22.6352 15.381 22.6586 15.2551C22.9456 13.6004 23.4962 12.1976 24.2166 10.7743C24.2693 10.6689 24.407 10.6308 24.4977 10.707C25.8566 11.8491 27.5376 14.2799 28.3928 17.3256C28.4631 17.5716 28.6769 17.7503 28.9316 17.7649L30.9553 17.8674C31.7402 17.9055 32.4753 18.2686 32.9848 18.869L34.0245 20.0961C34.1387 20.2278 34.3027 20.3069 34.4784 20.3069L44.5879 20.3216C44.8017 20.3216 44.9862 20.4914 45.0185 20.7199C45.326 23.6777 43.3726 29.8571 37.9752 29.8571C27.5728 29.8571 21.1386 40.0574 25.0015 50C38.8098 50 50.0029 38.8069 50.0029 24.9985C50.0029 11.1902 38.8069 0 25.0015 0Z" fill="black"/>
<path d="M31.8837 22.1871C31.8837 20.4329 30.3549 19.8325 26.5917 19.8325C26.5917 22.3569 31.0051 23.0657 31.8837 22.1871Z" fill="black"/>
<path d="M37.9752 29.8571C43.3726 29.8571 45.326 23.6807 45.0185 20.7198C44.9863 20.4914 44.8047 20.3216 44.588 20.3216L34.4784 20.3069C34.3027 20.3069 34.1387 20.2308 34.0245 20.0961L32.9849 18.869C32.4753 18.2686 31.7402 17.9055 30.9553 17.8674L28.9317 17.7649C28.6769 17.7532 28.4602 17.5716 28.3928 17.3256C27.5377 14.2799 25.8596 11.8491 24.4978 10.707C24.407 10.6308 24.2693 10.6689 24.2166 10.7743C23.4962 12.1976 22.9456 13.6004 22.6586 15.2551C22.6381 15.381 22.4712 15.381 22.4038 15.2551C21.2031 12.921 19.6509 10.7187 18.049 9.12259C17.9699 9.04352 17.8411 9.0523 17.7737 9.14309C16.3914 11.0115 14.6987 14.2594 14.4029 20.222C14.3912 20.4856 14.2096 20.7081 13.9519 20.7755C11.3542 21.4374 7.8516 23.3263 6.64501 23.9999C6.37265 24.1522 6.42244 24.2635 6.6538 24.2898C6.88516 24.3162 10.6953 24.7145 10.8622 24.732C11.0291 24.7496 11.0965 24.8843 10.8886 24.9634C8.83854 25.7278 4.63892 28.3928 3.34741 29.2274C3.10141 29.3856 3.25955 29.4881 3.3972 29.4998C3.53484 29.5115 7.9746 29.7136 8.17667 29.7224C8.37875 29.7312 8.48125 29.9069 8.22353 29.9918C8.0771 30.0416 4.36949 31.462 1.2066 32.6773C1.2066 32.6773 1.20367 32.6773 1.20074 32.6773C4.43978 42.7283 13.8699 50 25.0015 50C21.1387 40.0574 27.5728 29.8571 37.9752 29.8571ZM31.8837 22.1871C31.0051 23.0657 26.5917 22.3569 26.5917 19.8325C30.355 19.8325 31.8837 20.4358 31.8837 22.1871Z" fill="white"/>
</g>
<defs>
<clipPath id="clip0_10737_2">
<rect width="50" height="50" fill="white"/>
</clipPath>
</defs>
</svg>
