<svg width="58" height="16" viewBox="0 0 58 16" fill="none" xmlns="http://www.w3.org/2000/svg">
<path d="M9.80181 4.74707V10.7285H7.69744V4.96147C7.69744 3.50003 6.85977 2.70096 5.51537 2.70096C4.03477 2.70096 3.04072 3.61682 3.04072 5.5068V10.7285H0.93634V0.986282H3.04072V2.23332C3.68391 1.23978 4.6772 0.733293 6.06095 0.733293C8.30128 0.733293 9.80181 2.25299 9.80181 4.74707Z" fill="white"/>
<path d="M16.6967 8.97761C17.5742 8.97761 18.314 8.68502 18.8984 8.10009C19.4833 7.49625 19.7754 6.7562 19.7754 5.85976C19.7754 4.96383 19.4833 4.22328 18.8984 3.6386C18.314 3.0345 17.5742 2.74267 16.6967 2.74267C15.8199 2.74267 15.0801 3.0345 14.4954 3.6386C13.9107 4.22328 13.6187 4.96383 13.6187 5.85976C13.6187 6.7562 13.9107 7.49625 14.4954 8.10009C15.0801 8.68502 15.8199 8.97761 16.6967 8.97761ZM19.7754 0.988645H21.8798V10.7309H19.7754V9.32796C18.9763 10.4388 17.8468 10.9844 16.3657 10.9844C15.0216 10.9844 13.8913 10.4971 12.9366 9.50326C11.9817 8.50972 11.5143 7.28185 11.5143 5.85976C11.5143 4.41825 11.9817 3.20981 12.9366 2.21626C13.8913 1.22297 15.0216 0.735908 16.3657 0.735908C17.8468 0.735908 18.9763 1.28123 19.7754 2.37239V0.988645Z" fill="white"/>
<path d="M33.1978 4.74707V10.7285H31.0934V4.96147C31.0934 3.50003 30.256 2.70096 28.9114 2.70096C27.4308 2.70096 26.4367 3.61682 26.4367 5.5068V10.7285H24.3323V0.986282H26.4367V2.23332C27.0797 1.23978 28.0735 0.733293 29.4569 0.733293C31.6975 0.733293 33.1978 2.25299 33.1978 4.74707Z" fill="white"/>
<path d="M40.1125 9.03411C40.9893 9.03411 41.7299 8.74178 42.314 8.15735C42.9184 7.57293 43.2105 6.8523 43.2105 5.97504C43.2105 5.09828 42.9184 4.37765 42.314 3.79297C41.7299 3.2083 40.9893 2.91621 40.1125 2.91621C39.2358 2.91621 38.4955 3.2083 37.8914 3.79297C37.3067 4.37765 37.0149 5.09828 37.0149 5.97504C37.0149 6.8523 37.3067 7.57293 37.8914 8.15735C38.4955 8.74178 39.2358 9.03411 40.1125 9.03411ZM43.2105 1.20128H45.2757V10.4955C45.2757 11.9762 44.7887 13.1064 43.8146 13.9052C42.8402 14.7038 41.6517 15.0938 40.2684 15.0938C38.0273 15.0938 36.4885 14.3144 35.6505 12.7361L37.4626 11.6841C37.9691 12.6776 38.924 13.1838 40.307 13.1838C42.1196 13.1838 43.2105 12.1906 43.2105 10.4955V9.30703C42.4114 10.437 41.2814 11.002 39.8199 11.002C38.437 11.002 37.2875 10.5147 36.3326 9.5406C35.3776 8.54705 34.9105 7.35853 34.9105 5.97504C34.9105 4.59179 35.3776 3.40327 36.3326 2.4289C37.2875 1.43561 38.437 0.948543 39.8199 0.948543C41.2814 0.948543 42.4114 1.51329 43.2105 2.64355V1.20128Z" fill="white"/>
<path d="M52.3265 8.93852C53.1839 8.93852 53.9047 8.64643 54.4892 8.06175C55.0736 7.47708 55.3659 6.73652 55.3659 5.85976C55.3659 4.98325 55.0736 4.24245 54.4892 3.65853C53.9047 3.07385 53.1839 2.78126 52.3265 2.78126C51.4692 2.78126 50.7483 3.07385 50.1639 3.65853C49.579 4.24245 49.2871 4.98325 49.2871 5.85976C49.2871 6.73652 49.579 7.47708 50.1639 8.06175C50.7483 8.64643 51.4692 8.93852 52.3265 8.93852ZM48.6828 9.50326C47.689 8.50972 47.1825 7.30203 47.1825 5.85976C47.1825 4.41851 47.689 3.21006 48.6828 2.21651C49.6766 1.22297 50.9037 0.735908 52.3265 0.735908C53.768 0.735908 54.9765 1.22297 55.9698 2.21651C56.9636 3.21006 57.4706 4.41851 57.4706 5.85976C57.4706 7.30203 56.9636 8.50972 55.9698 9.50326C54.9765 10.4973 53.768 10.9844 52.3265 10.9844C50.9037 10.9844 49.6766 10.4973 48.6828 9.50326Z" fill="white"/>
</svg>
