<svg width="250" height="194" viewBox="0 0 250 194" fill="none" xmlns="http://www.w3.org/2000/svg">
<path d="M39.1031 147.751V174.133H29.8209V148.697C29.8209 142.253 26.1269 138.727 20.1975 138.727C13.6664 138.727 9.28257 142.767 9.28257 151.104V174.133H0.000442505V131.165H9.28257V136.665C12.1184 132.282 16.4999 130.049 22.6024 130.049C32.4849 130.049 39.1031 136.752 39.1031 147.751Z" fill="white"/>
<path d="M69.5137 166.4C73.3832 166.4 76.6475 165.109 79.2255 162.531C81.8048 159.867 83.0926 156.602 83.0926 152.649C83.0926 148.696 81.8048 145.431 79.2255 142.853C76.6475 140.188 73.3832 138.9 69.5137 138.9C65.6467 138.9 62.3836 140.188 59.8043 142.853C57.2263 145.431 55.9373 148.696 55.9373 152.649C55.9373 156.602 57.2263 159.867 59.8043 162.531C62.3836 165.109 65.6467 166.4 69.5137 166.4ZM83.0926 131.165H92.3747V174.133H83.0926V167.946C79.5681 172.845 74.5863 175.251 68.0529 175.251C62.1258 175.251 57.1404 173.103 52.9284 168.718C48.7176 164.337 46.6563 158.922 46.6563 152.649C46.6563 146.29 48.7176 140.961 52.9284 136.58C57.1404 132.197 62.1258 130.049 68.0529 130.049C74.5863 130.049 79.5681 132.455 83.0926 137.267V131.165Z" fill="white"/>
<path d="M142.294 147.751V174.133H133.013V148.697C133.013 142.253 129.319 138.727 123.388 138.727C116.857 138.727 112.473 142.767 112.473 151.104V174.133H103.191V131.165H112.473V136.665C115.31 132.282 119.692 130.049 125.794 130.049C135.676 130.049 142.294 136.752 142.294 147.751Z" fill="white"/>
<path d="M172.793 165.713C176.659 165.713 179.927 164.421 182.503 161.846C185.169 159.268 186.457 156.088 186.457 152.218C186.457 148.351 185.169 145.173 182.503 142.595C179.927 140.016 176.659 138.728 172.793 138.728C168.926 138.728 165.659 140.016 162.997 142.595C160.417 145.173 159.13 148.351 159.13 152.218C159.13 156.088 160.417 159.268 162.997 161.846C165.659 164.421 168.926 165.713 172.793 165.713ZM186.457 131.165H195.566V172.157C195.566 178.688 193.417 183.673 189.121 187.197C184.823 190.718 179.581 192.439 173.481 192.439C163.597 192.439 156.808 189.001 153.112 182.04L161.105 177.4C163.339 181.782 167.55 184.015 173.651 184.015C181.644 184.015 186.457 179.633 186.457 172.157V166.916C182.932 171.9 177.948 174.391 171.503 174.391C165.403 174.391 160.333 172.242 156.121 167.946C151.909 163.563 149.847 158.322 149.847 152.218C149.847 146.118 151.909 140.875 156.121 136.58C160.333 132.197 165.403 130.049 171.503 130.049C177.948 130.049 182.932 132.539 186.457 137.525V131.165Z" fill="white"/>
<path d="M226.664 166.228C230.446 166.228 233.625 164.94 236.204 162.361C238.78 159.783 240.07 156.515 240.07 152.649C240.07 148.782 238.78 145.515 236.204 142.939C233.625 140.36 230.446 139.07 226.664 139.07C222.883 139.07 219.705 140.36 217.125 142.939C214.547 145.515 213.26 148.782 213.26 152.649C213.26 156.515 214.547 159.783 217.125 162.361C219.705 164.94 222.883 166.228 226.664 166.228ZM210.592 168.719C206.21 164.336 203.976 159.009 203.976 152.649C203.976 146.291 206.21 140.96 210.592 136.579C214.977 132.196 220.39 130.049 226.664 130.049C233.022 130.049 238.352 132.196 242.735 136.579C247.117 140.96 249.352 146.291 249.352 152.649C249.352 159.009 247.117 164.336 242.735 168.719C238.352 173.104 233.022 175.252 226.664 175.252C220.39 175.252 214.977 173.104 210.592 168.719Z" fill="white"/>
<path d="M127.933 46.8343C135.635 46.8343 138.763 48.066 138.763 51.655C136.967 53.4513 127.933 52.0023 127.933 46.8343ZM124.676 107.726C124.571 107.726 124.464 107.725 124.358 107.724C117.141 87.6473 130.236 67.3524 151.228 67.3524C162.271 67.3524 166.268 54.7104 165.641 48.6568C165.578 48.1854 165.202 47.8405 164.762 47.8405L144.074 47.8094C143.717 47.8094 143.376 47.6519 143.144 47.3798L141.015 44.8709C139.972 43.6428 138.468 42.9016 136.859 42.8216L132.719 42.614C132.194 42.5877 131.755 42.2213 131.614 41.7164C129.865 35.4802 126.427 30.5103 123.643 28.171C123.458 28.0158 123.177 28.091 123.068 28.3071C121.596 31.2193 120.467 34.0897 119.881 37.477C119.836 37.7336 119.496 37.7336 119.362 37.4746C116.902 32.6957 113.729 28.1937 110.45 24.9234C110.288 24.7611 110.021 24.779 109.884 24.9628C107.057 28.788 103.591 35.4337 102.988 47.6352C102.96 48.177 102.59 48.633 102.065 48.7666C96.7481 50.1177 89.5821 53.9836 87.1127 55.3669C86.553 55.6808 86.6568 55.9076 87.1282 55.9613C87.6009 56.015 95.3982 56.8314 95.7396 56.8684C96.081 56.9042 96.217 57.1799 95.7921 57.3386C91.5933 58.9009 83.0022 64.359 80.3621 66.0645C79.8596 66.3892 80.1795 66.6004 80.4623 66.6195C80.7428 66.6386 89.8316 67.054 90.2458 67.0731C90.6599 67.0922 90.8688 67.4502 90.3389 67.6269C90.05 67.7236 83.0511 70.4078 76.7684 72.82C75.2084 67.9647 74.3646 62.7871 74.3646 57.4138C74.3646 29.6271 96.8902 7.10151 124.676 7.10151C152.464 7.10151 174.988 29.6271 174.988 57.4138C174.988 85.2005 152.464 107.726 124.676 107.726ZM124.676 -3.05176e-05C93.0183 -3.05176e-05 67.2618 25.7553 67.2618 57.4138C67.2618 89.0711 93.0183 114.828 124.676 114.828C156.334 114.828 182.091 89.0711 182.091 57.4138C182.091 25.7553 156.334 -3.05176e-05 124.676 -3.05176e-05Z" fill="white"/>
</svg>
