<svg width="50" height="50" viewBox="0 0 50 50" fill="none" xmlns="http://www.w3.org/2000/svg">
<g clip-path="url(#clip0_8955_404)">
<path d="M25.0015 0C11.1931 0 0 11.1931 0 25.0015C0 27.6782 0.421718 30.2583 1.20073 32.6773H1.20658C4.36947 31.4649 8.07415 30.0416 8.22351 29.9918C8.48123 29.9069 8.38166 29.7312 8.17665 29.7224C7.97458 29.7136 3.53482 29.5115 3.39718 29.4998C3.25953 29.4881 3.10139 29.3885 3.34739 29.2274C4.6389 28.3928 8.83559 25.7278 10.8885 24.9634C11.0965 24.8872 11.0291 24.7496 10.8622 24.732C10.6953 24.7145 6.88514 24.3162 6.65378 24.2898C6.42242 24.2635 6.37264 24.1522 6.645 23.9999C7.85158 23.3234 11.3542 21.4344 13.9519 20.7755C14.2096 20.7111 14.3882 20.4885 14.4029 20.222C14.6986 14.2594 16.3914 11.0115 17.7737 9.14309C17.841 9.05231 17.9699 9.04352 18.049 9.12259C19.6509 10.7216 21.2031 12.921 22.4038 15.2551C22.4682 15.381 22.6352 15.381 22.6586 15.2551C22.9456 13.6004 23.4962 12.1976 24.2166 10.7743C24.2693 10.6689 24.407 10.6308 24.4977 10.707C25.8566 11.8491 27.5376 14.2799 28.3928 17.3256C28.4631 17.5716 28.6769 17.7502 28.9316 17.7649L30.9553 17.8674C31.7402 17.9055 32.4753 18.2686 32.9848 18.869L34.0245 20.0961C34.1387 20.2278 34.3027 20.3069 34.4784 20.3069L44.5879 20.3216C44.8017 20.3216 44.9862 20.4914 45.0185 20.7199C45.326 23.6777 43.3726 29.8571 37.9752 29.8571C27.5728 29.8571 21.1386 40.0574 25.0015 50C38.8098 50 50.0029 38.8069 50.0029 24.9985C50.0029 11.1902 38.8069 0 25.0015 0Z" fill="white"/>
<path d="M31.8838 22.1871C31.8838 20.4329 30.355 19.8325 26.5918 19.8325C26.5918 22.357 31.0052 23.0657 31.8838 22.1871Z" fill="white"/>
<path d="M37.9756 29.8573C43.373 29.8573 45.3264 23.6808 45.0189 20.72C44.9867 20.4916 44.8051 20.3217 44.5884 20.3217L34.4789 20.3071C34.3032 20.3071 34.1391 20.231 34.0249 20.0962L32.9853 18.8692C32.4757 18.2688 31.7406 17.9056 30.9558 17.8676L28.9321 17.7651C28.6773 17.7534 28.4606 17.5718 28.3932 17.3258C27.5381 14.28 25.86 11.8493 24.4982 10.7071C24.4074 10.631 24.2698 10.6691 24.217 10.7745C23.4966 12.1978 22.946 13.6006 22.659 15.2553C22.6385 15.3812 22.4716 15.3812 22.4042 15.2553C21.2035 12.9212 19.6514 10.7189 18.0494 9.12277C17.9703 9.0437 17.8415 9.05248 17.7741 9.14327C16.3918 11.0117 14.6991 14.2595 14.4033 20.2222C14.3916 20.4857 14.21 20.7083 13.9523 20.7757C11.3546 21.4375 7.85203 23.3265 6.64544 24.0001C6.37308 24.1523 6.42287 24.2636 6.65423 24.29C6.88559 24.3163 10.6957 24.7146 10.8626 24.7322C11.0296 24.7498 11.0969 24.8845 10.889 24.9636C8.83896 25.7279 4.63935 28.393 3.34784 29.2276C3.10183 29.3858 3.25998 29.4883 3.39762 29.5C3.53527 29.5117 7.97503 29.7138 8.1771 29.7225C8.37917 29.7313 8.48167 29.907 8.22396 29.992C8.07753 30.0418 4.36992 31.4621 1.20703 32.6775C1.20703 32.6775 1.2041 32.6775 1.20117 32.6775C4.4402 42.7285 13.8703 50.0002 25.0019 50.0002C21.1391 40.0576 27.5732 29.8573 37.9756 29.8573ZM31.8841 22.1873C31.0055 23.0658 26.5921 22.3571 26.5921 19.8327C30.3554 19.8327 31.8841 20.436 31.8841 22.1873Z" fill="#0B0B0C"/>
</g>
<defs>
<clipPath id="clip0_8955_404">
<rect width="50" height="50" fill="white"/>
</clipPath>
</defs>
</svg>
