<svg width="390" height="80" viewBox="0 0 390 80" fill="none" xmlns="http://www.w3.org/2000/svg">
<rect x="0.5" y="0.5" width="389" height="79" rx="11.5" fill="black"/>
<g clip-path="url(#clip0_317_801)">
<circle cx="49" cy="40.0002" r="27.26" fill="black"/>
<g clip-path="url(#clip1_317_801)">
<path d="M50.6448 34.6565C54.535 34.6565 56.1157 35.2787 56.1157 37.0914C55.2078 37.999 50.6448 37.2665 50.6448 34.6565ZM48.9998 65.4127C48.9465 65.4127 48.8929 65.4121 48.8393 65.4115C45.1941 55.2715 51.8083 45.0206 62.4115 45.0206C67.9887 45.0206 70.0081 38.6348 69.6912 35.5771C69.6597 35.339 69.4695 35.1648 69.2474 35.1648L58.7978 35.1493C58.617 35.149 58.4455 35.0697 58.3286 34.9318L57.2526 33.665C56.7258 33.0446 55.9663 32.6698 55.1542 32.6295L53.0618 32.525C52.7971 32.5114 52.5756 32.3266 52.5041 32.0713C51.6208 28.9214 49.8841 26.411 48.4785 25.2296C48.3852 25.1511 48.2425 25.1896 48.1874 25.2983C47.4443 26.7691 46.8739 28.2192 46.5779 29.9298C46.5552 30.0598 46.3834 30.0598 46.3159 29.9289C45.0733 27.5152 43.4702 25.2408 41.814 23.5889C41.7319 23.5071 41.5977 23.5165 41.5287 23.6095C40.1004 25.5416 38.3497 28.8984 38.045 35.0612C38.0313 35.3347 37.8444 35.5649 37.5791 35.6325C34.8933 36.3153 31.2739 38.2674 30.0264 38.9669C29.7435 39.125 29.7965 39.2395 30.0346 39.2665C30.2727 39.294 34.2114 39.7063 34.3837 39.7245C34.5561 39.7427 34.6252 39.8823 34.4104 39.9623C32.2899 40.7517 27.9504 43.5084 26.6166 44.3696C26.3628 44.5338 26.5245 44.6401 26.6672 44.6501C26.8093 44.6598 31.3999 44.8695 31.6092 44.8792C31.8185 44.8888 31.924 45.07 31.6562 45.1591C31.5098 45.2078 27.9753 46.5637 24.8015 47.7821C24.0135 45.3296 23.5876 42.7147 23.5876 40.0002C23.5876 25.9651 34.9651 14.5876 48.9998 14.5876C63.0352 14.5876 74.4127 25.9651 74.4127 40.0002C74.4127 54.0355 63.0352 65.4127 48.9998 65.4127ZM48.9998 11C33.0094 11 20 24.0094 20 40.0002C20 55.9906 33.0094 69 48.9998 69C64.9903 69 78 55.9906 78 40.0002C78 24.0094 64.9903 11 48.9998 11Z" fill="white"/>
</g>
</g>
<path d="M105.619 51V31.279H98.9439V28.8855H115.125V31.279H108.45V51H105.619ZM119.108 51V28.8855H126.018C127.524 28.8855 128.861 29.0878 130.03 29.4923C131.199 29.8744 132.109 30.5261 132.761 31.4476C133.435 32.3465 133.772 33.5601 133.772 35.0884C133.772 36.5716 133.435 37.7965 132.761 38.7629C132.109 39.7293 131.199 40.4597 130.03 40.9541C128.861 41.426 127.524 41.662 126.018 41.662H121.906V51H119.108ZM121.906 39.3697H125.614C127.344 39.3697 128.67 39.0213 129.592 38.3246C130.513 37.6055 130.974 36.5267 130.974 35.0884C130.974 33.65 130.513 32.6387 129.592 32.0544C128.67 31.4476 127.344 31.1442 125.614 31.1442H121.906V39.3697ZM131.244 51L125.479 40.8867L127.67 39.4034L134.412 51H131.244ZM141.841 51V42.4374L135.2 28.8855H138.2L141.066 35.1221C141.403 35.9311 141.74 36.729 142.077 37.5156C142.437 38.3021 142.807 39.1112 143.189 39.9428H143.324C143.729 39.1112 144.111 38.3021 144.471 37.5156C144.853 36.729 145.212 35.9311 145.549 35.1221L148.381 28.8855H151.314L144.639 42.4374V51H141.841ZM161.049 51V28.8855H164.117L171.971 42.6396C172.398 43.3813 172.803 44.1566 173.185 44.9657C173.567 45.7523 173.949 46.5614 174.331 47.3929H174.466C174.399 46.2467 174.32 45.0781 174.23 43.887C174.14 42.6734 174.095 41.5047 174.095 40.381V28.8855H176.792V51H173.724L165.87 37.2459C165.465 36.5042 165.049 35.7289 164.622 34.9198C164.218 34.1107 163.836 33.3017 163.476 32.4926H163.341C163.431 33.5938 163.51 34.7288 163.577 35.8974C163.667 37.0661 163.712 38.246 163.712 39.4371V51H161.049ZM179.943 51L187.427 28.8855H190.595L198.079 51H195.113L191.236 38.628C190.831 37.3919 190.449 36.1671 190.09 34.9535C189.73 33.7174 189.371 32.4589 189.011 31.1779H188.876C188.539 32.4589 188.191 33.7174 187.831 34.9535C187.472 36.1671 187.09 37.3919 186.685 38.628L182.774 51H179.943ZM183.853 44.2578V42.0328H194.068V44.2578H183.853ZM201.18 51V28.8855H204.247L212.102 42.6396C212.529 43.3813 212.934 44.1566 213.316 44.9657C213.698 45.7523 214.08 46.5614 214.462 47.3929H214.597C214.529 46.2467 214.451 45.0781 214.361 43.887C214.271 42.6734 214.226 41.5047 214.226 40.381V28.8855H216.923V51H213.855L206 37.2459C205.596 36.5042 205.18 35.7289 204.753 34.9198C204.349 34.1107 203.966 33.3017 203.607 32.4926H203.472C203.562 33.5938 203.641 34.7288 203.708 35.8974C203.798 37.0661 203.843 38.246 203.843 39.4371V51H201.18ZM231.704 51.4045C229.749 51.4045 228.018 50.9551 226.512 50.0561C225.029 49.1347 223.86 47.8199 223.006 46.1119C222.152 44.4039 221.725 42.3475 221.725 39.9428C221.725 38.1673 221.973 36.5716 222.467 35.1558C222.984 33.7399 223.692 32.5375 224.591 31.5487C225.512 30.5374 226.591 29.7732 227.827 29.2563C229.063 28.7394 230.412 28.481 231.872 28.481C233.401 28.481 234.682 28.7619 235.715 29.3238C236.772 29.8856 237.614 30.5149 238.244 31.2116L236.693 32.9646C236.154 32.3802 235.502 31.897 234.738 31.515C233.996 31.1329 233.063 30.9419 231.94 30.9419C230.456 30.9419 229.164 31.3127 228.063 32.0544C226.962 32.7735 226.108 33.7961 225.501 35.1221C224.917 36.448 224.624 38.0325 224.624 39.8753C224.624 41.7407 224.905 43.3476 225.467 44.696C226.052 46.0445 226.883 47.0895 227.962 47.8312C229.063 48.5728 230.4 48.9436 231.973 48.9436C232.76 48.9436 233.513 48.8313 234.232 48.6065C234.951 48.3593 235.524 48.0334 235.951 47.6289V41.8643H231.266V39.5382H238.513V48.8425C237.817 49.5841 236.873 50.2022 235.682 50.6966C234.513 51.1686 233.187 51.4045 231.704 51.4045ZM251.971 51.4045C250.128 51.4045 248.487 50.9326 247.049 49.9887C245.633 49.0448 244.52 47.7075 243.711 45.977C242.925 44.2465 242.531 42.2014 242.531 39.8416C242.531 37.4818 242.925 35.4592 243.711 33.7736C244.52 32.0656 245.633 30.7621 247.049 29.8631C248.487 28.9417 250.128 28.481 251.971 28.481C253.836 28.481 255.476 28.9417 256.892 29.8631C258.308 30.7621 259.421 32.0656 260.23 33.7736C261.039 35.4592 261.443 37.4818 261.443 39.8416C261.443 42.2014 261.039 44.2465 260.23 45.977C259.421 47.7075 258.308 49.0448 256.892 49.9887C255.476 50.9326 253.836 51.4045 251.971 51.4045ZM251.971 48.9099C253.296 48.9099 254.443 48.5391 255.409 47.7974C256.398 47.0558 257.162 46.0108 257.701 44.6623C258.241 43.2914 258.51 41.6845 258.51 39.8416C258.51 38.0212 258.241 36.448 257.701 35.1221C257.162 33.7961 256.398 32.7735 255.409 32.0544C254.443 31.3127 253.296 30.9419 251.971 30.9419C250.667 30.9419 249.521 31.3127 248.532 32.0544C247.543 32.7735 246.779 33.7961 246.24 35.1221C245.7 36.448 245.431 38.0212 245.431 39.8416C245.431 41.6845 245.7 43.2914 246.24 44.6623C246.779 46.0108 247.543 47.0558 248.532 47.7974C249.521 48.5391 250.667 48.9099 251.971 48.9099ZM281.342 51.4045C279.499 51.4045 277.836 50.9551 276.352 50.0561C274.892 49.1347 273.745 47.8199 272.914 46.1119C272.082 44.4039 271.666 42.3475 271.666 39.9428C271.666 38.1673 271.902 36.5716 272.374 35.1558C272.869 33.7399 273.566 32.5375 274.465 31.5487C275.363 30.5374 276.397 29.7732 277.566 29.2563C278.757 28.7394 280.061 28.481 281.476 28.481C282.802 28.481 283.982 28.7507 285.016 29.29C286.072 29.8294 286.915 30.4699 287.544 31.2116L286.027 32.9308C285.443 32.3016 284.769 31.8184 284.005 31.4813C283.263 31.1217 282.432 30.9419 281.51 30.9419C280.139 30.9419 278.926 31.3127 277.869 32.0544C276.836 32.7735 276.026 33.8073 275.442 35.1558C274.858 36.4817 274.566 38.0549 274.566 39.8753C274.566 41.7407 274.847 43.3476 275.408 44.696C275.97 46.0445 276.779 47.0895 277.836 47.8312C278.892 48.5503 280.128 48.9099 281.544 48.9099C282.578 48.9099 283.499 48.7189 284.308 48.3368C285.14 47.9323 285.893 47.348 286.567 46.5838L288.05 48.2357C287.174 49.247 286.196 50.0336 285.117 50.5955C284.038 51.1348 282.78 51.4045 281.342 51.4045ZM292.206 51V28.8855H295.004V48.6065H304.679V51H292.206ZM315.903 51.4045C314.06 51.4045 312.42 50.9326 310.981 49.9887C309.565 49.0448 308.453 47.7075 307.644 45.977C306.857 44.2465 306.464 42.2014 306.464 39.8416C306.464 37.4818 306.857 35.4592 307.644 33.7736C308.453 32.0656 309.565 30.7621 310.981 29.8631C312.42 28.9417 314.06 28.481 315.903 28.481C317.768 28.481 319.409 28.9417 320.825 29.8631C322.241 30.7621 323.353 32.0656 324.162 33.7736C324.971 35.4592 325.376 37.4818 325.376 39.8416C325.376 42.2014 324.971 44.2465 324.162 45.977C323.353 47.7075 322.241 49.0448 320.825 49.9887C319.409 50.9326 317.768 51.4045 315.903 51.4045ZM315.903 48.9099C317.229 48.9099 318.375 48.5391 319.342 47.7974C320.33 47.0558 321.095 46.0108 321.634 44.6623C322.173 43.2914 322.443 41.6845 322.443 39.8416C322.443 38.0212 322.173 36.448 321.634 35.1221C321.095 33.7961 320.33 32.7735 319.342 32.0544C318.375 31.3127 317.229 30.9419 315.903 30.9419C314.6 30.9419 313.453 31.3127 312.465 32.0544C311.476 32.7735 310.712 33.7961 310.172 35.1221C309.633 36.448 309.363 38.0212 309.363 39.8416C309.363 41.6845 309.633 43.2914 310.172 44.6623C310.712 46.0108 311.476 47.0558 312.465 47.7974C313.453 48.5391 314.6 48.9099 315.903 48.9099ZM337.986 51.4045C336.84 51.4045 335.784 51.2472 334.817 50.9326C333.873 50.5955 333.042 50.0673 332.323 49.3482C331.603 48.6065 331.042 47.6289 330.637 46.4153C330.232 45.2017 330.03 43.7296 330.03 41.9991V28.8855H332.828V42.0666C332.828 43.7971 333.053 45.168 333.502 46.1793C333.974 47.1682 334.592 47.8761 335.357 48.3031C336.143 48.7076 337.02 48.9099 337.986 48.9099C338.952 48.9099 339.829 48.7076 340.615 48.3031C341.425 47.8761 342.065 47.1682 342.537 46.1793C343.009 45.168 343.245 43.7971 343.245 42.0666V28.8855H345.908V41.9991C345.908 43.7296 345.706 45.2017 345.301 46.4153C344.919 47.6289 344.369 48.6065 343.649 49.3482C342.93 50.0673 342.088 50.5955 341.121 50.9326C340.155 51.2472 339.11 51.4045 337.986 51.4045ZM351.859 51V28.8855H357.388C359.658 28.8855 361.568 29.3125 363.119 30.1665C364.669 31.0205 365.838 32.2679 366.625 33.9085C367.434 35.5266 367.838 37.5043 367.838 39.8416C367.838 42.1789 367.434 44.1904 366.625 45.8759C365.838 47.539 364.681 48.8088 363.152 49.6853C361.624 50.5618 359.748 51 357.523 51H351.859ZM354.657 48.7076H357.186C358.916 48.7076 360.354 48.3593 361.501 47.6626C362.647 46.9434 363.501 45.9321 364.063 44.6286C364.624 43.3251 364.905 41.7294 364.905 39.8416C364.905 37.9987 364.624 36.4256 364.063 35.1221C363.501 33.8186 362.647 32.8409 361.501 32.1892C360.354 31.515 358.916 31.1779 357.186 31.1779H354.657V48.7076Z" fill="white"/>
<rect x="0.5" y="0.5" width="389" height="79" rx="11.5" stroke="white"/>
<defs>
<clipPath id="clip0_317_801">
<rect width="58" height="58" fill="white" transform="translate(20 11)"/>
</clipPath>
<clipPath id="clip1_317_801">
<rect width="58" height="58" fill="white" transform="translate(20 11)"/>
</clipPath>
</defs>
</svg>
