<svg width="385" height="80" viewBox="0 0 385 80" fill="none" xmlns="http://www.w3.org/2000/svg">
<rect x="0.5" y="0.5" width="384" height="79" rx="11.5" fill="black"/>
<g clip-path="url(#clip0_317_801)">
<circle cx="50" cy="40.0002" r="27.26" fill="black"/>
<g clip-path="url(#clip1_317_801)">
<path d="M51.6448 34.6565C55.535 34.6565 57.1157 35.2787 57.1157 37.0914C56.2078 37.999 51.6448 37.2665 51.6448 34.6565ZM49.9998 65.4127C49.9465 65.4127 49.8929 65.4121 49.8393 65.4115C46.1941 55.2715 52.8083 45.0206 63.4115 45.0206C68.9887 45.0206 71.0081 38.6348 70.6912 35.5771C70.6597 35.339 70.4695 35.1648 70.2474 35.1648L59.7978 35.1493C59.617 35.149 59.4455 35.0697 59.3286 34.9318L58.2526 33.665C57.7258 33.0446 56.9663 32.6698 56.1542 32.6295L54.0618 32.525C53.7971 32.5114 53.5756 32.3266 53.5041 32.0713C52.6208 28.9214 50.8841 26.411 49.4785 25.2296C49.3852 25.1511 49.2425 25.1896 49.1874 25.2983C48.4443 26.7691 47.8739 28.2192 47.5779 29.9298C47.5552 30.0598 47.3834 30.0598 47.3159 29.9289C46.0733 27.5152 44.4702 25.2408 42.814 23.5889C42.7319 23.5071 42.5977 23.5165 42.5287 23.6095C41.1004 25.5416 39.3497 28.8984 39.045 35.0612C39.0313 35.3347 38.8444 35.5649 38.5791 35.6325C35.8933 36.3153 32.2739 38.2674 31.0264 38.9669C30.7435 39.125 30.7965 39.2395 31.0346 39.2665C31.2727 39.294 35.2114 39.7063 35.3837 39.7245C35.5561 39.7427 35.6252 39.8823 35.4104 39.9623C33.2899 40.7517 28.9504 43.5084 27.6166 44.3696C27.3628 44.5338 27.5245 44.6401 27.6672 44.6501C27.8093 44.6598 32.3999 44.8695 32.6092 44.8792C32.8185 44.8888 32.924 45.07 32.6562 45.1591C32.5098 45.2078 28.9753 46.5637 25.8015 47.7821C25.0135 45.3296 24.5876 42.7147 24.5876 40.0002C24.5876 25.9651 35.9651 14.5876 49.9998 14.5876C64.0352 14.5876 75.4127 25.9651 75.4127 40.0002C75.4127 54.0355 64.0352 65.4127 49.9998 65.4127ZM49.9998 11C34.0094 11 21 24.0094 21 40.0002C21 55.9906 34.0094 69 49.9998 69C65.9903 69 79 55.9906 79 40.0002C79 24.0094 65.9903 11 49.9998 11Z" fill="white"/>
</g>
</g>
<path d="M96.6281 31.1165V28.4828H115.016V31.1165H107.306V53H104.338V31.1165H96.6281ZM117.305 53V34.6121H120.035V37.3895H120.226C120.562 36.4796 121.168 35.7414 122.046 35.1748C122.924 34.6081 123.914 34.3248 125.015 34.3248C125.222 34.3248 125.482 34.3288 125.793 34.3368C126.104 34.3448 126.34 34.3567 126.499 34.3727V37.2458C126.404 37.2219 126.184 37.1859 125.841 37.1381C125.506 37.0822 125.151 37.0543 124.776 37.0543C123.882 37.0543 123.084 37.2418 122.381 37.6169C121.687 37.984 121.136 38.4948 120.729 39.1492C120.33 39.7957 120.131 40.5339 120.131 41.3639V53H117.305ZM132.228 59.8955C131.749 59.8955 131.322 59.8556 130.947 59.7757C130.572 59.7039 130.312 59.6321 130.169 59.5603L130.887 57.0702C131.573 57.2458 132.18 57.3097 132.707 57.2618C133.233 57.2139 133.7 56.9785 134.107 56.5555C134.522 56.1405 134.901 55.4661 135.244 54.5323L135.771 53.0958L128.971 34.6121H132.036L137.112 49.265H137.303L142.379 34.6121H145.444L137.639 55.6816C137.288 56.6313 136.853 57.4174 136.334 58.0399C135.815 58.6704 135.213 59.1373 134.526 59.4405C133.848 59.7438 133.082 59.8955 132.228 59.8955ZM178.479 28.4828V53H175.606L162.246 33.7502H162.006V53H159.037V28.4828H161.91L175.318 47.7805H175.558V28.4828H178.479ZM189.447 53.431C188.282 53.431 187.225 53.2115 186.275 52.7725C185.325 52.3256 184.571 51.6832 184.012 50.8452C183.454 49.9992 183.174 48.9777 183.174 47.7805C183.174 46.7271 183.382 45.8731 183.797 45.2187C184.212 44.5563 184.767 44.0375 185.461 43.6624C186.155 43.2873 186.921 43.008 187.759 42.8244C188.605 42.6329 189.455 42.4812 190.309 42.3695C191.427 42.2259 192.332 42.1181 193.027 42.0463C193.729 41.9665 194.24 41.8348 194.559 41.6512C194.886 41.4677 195.05 41.1484 195.05 40.6935V40.5978C195.05 39.4166 194.727 38.4988 194.08 37.8444C193.442 37.1899 192.472 36.8627 191.171 36.8627C189.822 36.8627 188.765 37.158 187.999 37.7486C187.233 38.3392 186.694 38.9697 186.383 39.6401L183.701 38.6824C184.18 37.565 184.818 36.6951 185.617 36.0726C186.423 35.4421 187.301 35.0032 188.25 34.7558C189.208 34.5004 190.15 34.3727 191.075 34.3727C191.666 34.3727 192.344 34.4445 193.111 34.5882C193.885 34.7239 194.631 35.0072 195.349 35.4381C196.075 35.8691 196.678 36.5195 197.157 37.3895C197.636 38.2594 197.875 39.4246 197.875 40.8851V53H195.05V50.51H194.906C194.715 50.909 194.396 51.336 193.949 51.7909C193.502 52.2458 192.907 52.6329 192.165 52.9521C191.423 53.2713 190.517 53.431 189.447 53.431ZM189.878 50.8931C190.996 50.8931 191.937 50.6736 192.704 50.2346C193.478 49.7957 194.06 49.229 194.451 48.5347C194.85 47.8404 195.05 47.1101 195.05 46.344V43.7582C194.93 43.9018 194.667 44.0335 194.26 44.1532C193.861 44.265 193.398 44.3647 192.871 44.4525C192.352 44.5323 191.846 44.6041 191.351 44.668C190.864 44.7239 190.469 44.7717 190.166 44.8116C189.431 44.9074 188.745 45.063 188.107 45.2785C187.476 45.486 186.965 45.8013 186.574 46.2243C186.191 46.6393 186 47.2059 186 47.9242C186 48.9058 186.363 49.648 187.089 50.1508C187.823 50.6456 188.753 50.8931 189.878 50.8931ZM205.857 41.9385V53H203.032V34.6121H205.761V37.4852H206.001C206.432 36.5515 207.086 35.8013 207.964 35.2346C208.842 34.66 209.975 34.3727 211.364 34.3727C212.609 34.3727 213.698 34.6281 214.632 35.1389C215.566 35.6416 216.292 36.4078 216.811 37.4373C217.329 38.4589 217.589 39.7518 217.589 41.316V53H214.764V41.5076C214.764 40.063 214.389 38.9377 213.638 38.1317C212.888 37.3176 211.859 36.9106 210.55 36.9106C209.648 36.9106 208.842 37.1061 208.132 37.4972C207.429 37.8883 206.875 38.4589 206.468 39.2091C206.061 39.9593 205.857 40.8691 205.857 41.9385ZM230.174 60.2785C228.809 60.2785 227.636 60.103 226.654 59.7518C225.672 59.4086 224.854 58.9537 224.2 58.3871C223.554 57.8284 223.039 57.2299 222.656 56.5914L224.906 55.0112C225.162 55.3464 225.485 55.7295 225.876 56.1604C226.267 56.5994 226.802 56.9785 227.48 57.2977C228.166 57.6249 229.064 57.7885 230.174 57.7885C231.658 57.7885 232.883 57.4294 233.849 56.7111C234.815 55.9928 235.297 54.8675 235.297 53.3352V49.6002H235.058C234.85 49.9354 234.555 50.3504 234.172 50.8452C233.797 51.332 233.254 51.767 232.544 52.15C231.842 52.5251 230.892 52.7127 229.695 52.7127C228.21 52.7127 226.878 52.3615 225.696 51.6592C224.523 50.9569 223.593 49.9354 222.907 48.5946C222.229 47.2538 221.89 45.6257 221.89 43.7103C221.89 41.8268 222.221 40.1867 222.883 38.7901C223.546 37.3855 224.467 36.3001 225.649 35.5339C226.83 34.7598 228.194 34.3727 229.743 34.3727C230.94 34.3727 231.89 34.5722 232.592 34.9713C233.302 35.3623 233.845 35.8092 234.22 36.312C234.603 36.8069 234.898 37.2139 235.106 37.5331H235.393V34.6121H238.123V53.5267C238.123 55.1069 237.763 56.3919 237.045 57.3815C236.335 58.3791 235.377 59.1093 234.172 59.5722C232.975 60.0431 231.642 60.2785 230.174 60.2785ZM230.078 50.1748C231.211 50.1748 232.169 49.9154 232.951 49.3966C233.733 48.8779 234.328 48.1317 234.735 47.158C235.142 46.1844 235.345 45.0191 235.345 43.6624C235.345 42.3376 235.146 41.1684 234.747 40.1548C234.348 39.1413 233.757 38.3472 232.975 37.7725C232.193 37.1979 231.227 36.9106 230.078 36.9106C228.881 36.9106 227.883 37.2139 227.085 37.8204C226.295 38.427 225.7 39.241 225.301 40.2626C224.91 41.2841 224.715 42.4174 224.715 43.6624C224.715 44.9393 224.914 46.0686 225.313 47.0503C225.72 48.0239 226.319 48.7901 227.109 49.3488C227.907 49.8994 228.897 50.1748 230.078 50.1748ZM250.764 53.3831C249.104 53.3831 247.648 52.988 246.395 52.1979C245.15 51.4078 244.176 50.3025 243.474 48.8819C242.779 47.4613 242.432 45.8013 242.432 43.9018C242.432 41.9864 242.779 40.3144 243.474 38.8859C244.176 37.4573 245.15 36.348 246.395 35.5579C247.648 34.7677 249.104 34.3727 250.764 34.3727C252.424 34.3727 253.877 34.7677 255.122 35.5579C256.375 36.348 257.348 37.4573 258.043 38.8859C258.745 40.3144 259.096 41.9864 259.096 43.9018C259.096 45.8013 258.745 47.4613 258.043 48.8819C257.348 50.3025 256.375 51.4078 255.122 52.1979C253.877 52.988 252.424 53.3831 250.764 53.3831ZM250.764 50.8452C252.025 50.8452 253.063 50.5219 253.877 49.8755C254.691 49.229 255.293 48.3791 255.684 47.3256C256.076 46.2721 256.271 45.1309 256.271 43.9018C256.271 42.6728 256.076 41.5275 255.684 40.4661C255.293 39.4046 254.691 38.5467 253.877 37.8922C253.063 37.2378 252.025 36.9106 250.764 36.9106C249.503 36.9106 248.466 37.2378 247.652 37.8922C246.838 38.5467 246.235 39.4046 245.844 40.4661C245.453 41.5275 245.257 42.6728 245.257 43.9018C245.257 45.1309 245.453 46.2721 245.844 47.3256C246.235 48.3791 246.838 49.229 247.652 49.8755C248.466 50.5219 249.503 50.8452 250.764 50.8452Z" fill="#797979"/>
<path d="M293.002 36.1444H290.033C289.857 35.2905 289.55 34.5403 289.111 33.8938C288.68 33.2474 288.154 32.7047 287.531 32.2658C286.917 31.8188 286.234 31.4836 285.484 31.2602C284.734 31.0367 283.952 30.925 283.138 30.925C281.653 30.925 280.308 31.3001 279.103 32.0503C277.906 32.8005 276.952 33.9058 276.242 35.3663C275.54 36.8268 275.189 38.6185 275.189 40.7414C275.189 42.8643 275.54 44.656 276.242 46.1165C276.952 47.577 277.906 48.6824 279.103 49.4326C280.308 50.1828 281.653 50.5579 283.138 50.5579C283.952 50.5579 284.734 50.4461 285.484 50.2227C286.234 49.9992 286.917 49.668 287.531 49.229C288.154 48.7821 288.68 48.2354 289.111 47.589C289.55 46.9346 289.857 46.1844 290.033 45.3384H293.002C292.778 46.5914 292.371 47.7127 291.781 48.7023C291.19 49.6919 290.456 50.5339 289.578 51.2283C288.7 51.9146 287.715 52.4373 286.621 52.7965C285.536 53.1556 284.375 53.3352 283.138 53.3352C281.047 53.3352 279.187 52.8244 277.559 51.8029C275.931 50.7813 274.65 49.3288 273.716 47.4453C272.782 45.5618 272.316 43.3272 272.316 40.7414C272.316 38.1556 272.782 35.921 273.716 34.0375C274.65 32.154 275.931 30.7015 277.559 29.68C279.187 28.6584 281.047 28.1476 283.138 28.1476C284.375 28.1476 285.536 28.3272 286.621 28.6863C287.715 29.0455 288.7 29.5722 289.578 30.2665C290.456 30.9529 291.19 31.7909 291.781 32.7805C292.371 33.7622 292.778 34.8835 293.002 36.1444ZM300.242 28.4828V53H297.416V28.4828H300.242ZM312.886 53.3831C311.226 53.3831 309.77 52.988 308.517 52.1979C307.272 51.4078 306.298 50.3025 305.596 48.8819C304.901 47.4613 304.554 45.8013 304.554 43.9018C304.554 41.9864 304.901 40.3144 305.596 38.8859C306.298 37.4573 307.272 36.348 308.517 35.5579C309.77 34.7677 311.226 34.3727 312.886 34.3727C314.546 34.3727 315.999 34.7677 317.244 35.5579C318.497 36.348 319.47 37.4573 320.165 38.8859C320.867 40.3144 321.218 41.9864 321.218 43.9018C321.218 45.8013 320.867 47.4613 320.165 48.8819C319.47 50.3025 318.497 51.4078 317.244 52.1979C315.999 52.988 314.546 53.3831 312.886 53.3831ZM312.886 50.8452C314.147 50.8452 315.185 50.5219 315.999 49.8755C316.813 49.229 317.415 48.3791 317.806 47.3256C318.197 46.2721 318.393 45.1309 318.393 43.9018C318.393 42.6728 318.197 41.5275 317.806 40.4661C317.415 39.4046 316.813 38.5467 315.999 37.8922C315.185 37.2378 314.147 36.9106 312.886 36.9106C311.625 36.9106 310.588 37.2378 309.774 37.8922C308.96 38.5467 308.357 39.4046 307.966 40.4661C307.575 41.5275 307.379 42.6728 307.379 43.9018C307.379 45.1309 307.575 46.2721 307.966 47.3256C308.357 48.3791 308.96 49.229 309.774 49.8755C310.588 50.5219 311.625 50.8452 312.886 50.8452ZM337.119 45.482V34.6121H339.944V53H337.119V49.8875H336.928C336.497 50.8212 335.826 51.6153 334.916 52.2698C334.007 52.9162 332.857 53.2394 331.469 53.2394C330.319 53.2394 329.298 52.988 328.404 52.4852C327.51 51.9745 326.808 51.2083 326.297 50.1867C325.786 49.1572 325.531 47.8603 325.531 46.2961V34.6121H328.356V46.1045C328.356 47.4453 328.731 48.5148 329.481 49.3128C330.24 50.1109 331.205 50.51 332.378 50.51C333.081 50.51 333.795 50.3304 334.521 49.9713C335.256 49.6121 335.87 49.0615 336.365 48.3192C336.868 47.577 337.119 46.6313 337.119 45.482ZM352.062 53.3831C350.53 53.3831 349.177 52.996 348.004 52.2219C346.831 51.4397 345.913 50.3384 345.251 48.9178C344.588 47.4892 344.257 45.8013 344.257 43.8539C344.257 41.9226 344.588 40.2466 345.251 38.826C345.913 37.4054 346.835 36.3081 348.016 35.5339C349.197 34.7598 350.562 34.3727 352.11 34.3727C353.307 34.3727 354.253 34.5722 354.947 34.9713C355.65 35.3623 356.184 35.8092 356.551 36.312C356.927 36.8069 357.218 37.2139 357.425 37.5331H357.665V28.4828H360.49V53H357.761V50.1748H357.425C357.218 50.51 356.923 50.933 356.539 51.4437C356.156 51.9465 355.61 52.3974 354.899 52.7965C354.189 53.1875 353.243 53.3831 352.062 53.3831ZM352.445 50.8452C353.579 50.8452 354.536 50.5499 355.318 49.9593C356.101 49.3607 356.695 48.5347 357.102 47.4812C357.509 46.4198 357.713 45.1947 357.713 43.8061C357.713 42.4334 357.513 41.2322 357.114 40.2027C356.715 39.1652 356.124 38.3591 355.342 37.7845C354.56 37.2019 353.595 36.9106 352.445 36.9106C351.248 36.9106 350.251 37.2179 349.452 37.8324C348.662 38.4389 348.068 39.265 347.669 40.3104C347.278 41.348 347.082 42.5132 347.082 43.8061C347.082 45.1149 347.282 46.3041 347.681 47.3735C348.088 48.435 348.686 49.2809 349.476 49.9114C350.274 50.5339 351.264 50.8452 352.445 50.8452Z" fill="white"/>
<rect x="0.5" y="0.5" width="384" height="79" rx="11.5" stroke="white"/>
<defs>
<clipPath id="clip0_317_801">
<rect width="58" height="58" fill="white" transform="translate(21 11)"/>
</clipPath>
<clipPath id="clip1_317_801">
<rect width="58" height="58" fill="white" transform="translate(21 11)"/>
</clipPath>
</defs>
</svg>
