<?xml version="1.0" encoding="UTF-8"?>
<svg xmlns="http://www.w3.org/2000/svg" xmlns:xlink="http://www.w3.org/1999/xlink" width="62px" height="62px" viewBox="0 0 62 62" version="1.1">
<g id="surface1">
<path style=" stroke:none;fill-rule:evenodd;fill:rgb(10.196079%,15.686275%,37.254903%);fill-opacity:1;" d="M 58.691406 30.878906 C 58.691406 15.628906 46.324219 3.261719 31.058594 3.261719 C -5.597656 4.714844 -5.589844 57.046875 31.058594 58.496094 C 46.316406 58.496094 58.691406 46.132812 58.691406 30.875 Z M 26.03125 15.53125 C 25.8125 15.957031 25.8125 16.515625 25.8125 17.632812 L 25.8125 23.957031 C 25.8125 24.390625 25.804688 24.527344 26 24.820312 C 26.167969 25.054688 27.738281 26.253906 28.003906 26.492188 C 28.636719 26.949219 28.636719 27.269531 28.003906 27.726562 C 28.003906 27.726562 26.402344 29.023438 26.402344 29.023438 C 25.886719 29.425781 25.800781 29.605469 25.8125 30.261719 C 25.8125 30.261719 25.8125 44.113281 25.8125 44.113281 C 25.824219 45.796875 25.742188 46.367188 26.898438 47.085938 C 27.324219 47.304688 27.882812 47.304688 29 47.304688 L 33.117188 47.304688 C 34.230469 47.304688 34.789062 47.304688 35.214844 47.085938 C 36.375 46.367188 36.289062 45.800781 36.304688 44.113281 C 36.304688 44.113281 36.304688 37.792969 36.304688 37.792969 C 36.320312 37.136719 36.234375 36.957031 35.710938 36.554688 C 35.710938 36.554688 34.113281 35.257812 34.113281 35.257812 C 33.851562 35.046875 33.71875 34.9375 33.675781 34.8125 C 33.570312 34.421875 33.730469 34.339844 34.113281 34.015625 C 34.113281 34.015625 35.710938 32.71875 35.710938 32.71875 C 36.230469 32.320312 36.316406 32.136719 36.304688 31.484375 C 36.304688 31.484375 36.304688 17.628906 36.304688 17.628906 C 36.289062 15.945312 36.375 15.375 35.214844 14.65625 C 34.789062 14.4375 34.230469 14.4375 33.117188 14.4375 L 29 14.4375 C 27.320312 14.445312 26.742188 14.371094 26.027344 15.523438 Z M 26.03125 15.53125 "/>
</g>
</svg>
