<svg width="50" height="50" viewBox="0 0 50 50" fill="none" xmlns="http://www.w3.org/2000/svg">
<circle cx="25" cy="25" r="25" fill="white"/>
<path d="M11.655 23.3389C11.966 23.3153 12.2565 23.247 12.5254 23.1341C12.7947 23.0211 13.0162 22.8573 13.1895 22.6434C13.3627 22.4288 13.4496 22.1432 13.4496 21.7864C13.4496 21.2509 13.2707 20.8407 12.9122 20.5546C12.5542 20.269 12.1422 20.1263 11.677 20.1263C11.0319 20.1263 10.545 20.337 10.217 20.7581C9.88816 21.1792 9.73024 21.7106 9.74224 22.3507H7.31232C7.33648 21.7106 7.45328 21.1261 7.66224 20.5987C7.87168 20.0718 8.1652 19.6195 8.5428 19.2419C8.91968 18.8645 9.372 18.5731 9.89864 18.3663C10.4253 18.1597 11.0123 18.0564 11.6589 18.0564C12.1616 18.0564 12.6646 18.1308 13.1674 18.2791C13.6706 18.4275 14.1222 18.6502 14.5237 18.9469C14.925 19.2436 15.2511 19.6052 15.5024 20.033C15.7537 20.4602 15.88 20.9525 15.88 21.51C15.88 22.1155 15.7336 22.6496 15.4417 23.1125C15.1497 23.5755 14.7121 23.8898 14.1286 24.0557V24.0916C14.8203 24.2459 15.3626 24.5783 15.7567 25.0888C16.1503 25.5994 16.3469 26.2106 16.3469 26.9225C16.3469 27.5756 16.2182 28.1572 15.9605 28.6679C15.7026 29.1787 15.3584 29.6055 14.927 29.9502C14.496 30.2941 13.9985 30.5555 13.435 30.7331C12.8718 30.9105 12.2846 31 11.6742 31C10.967 31 10.3234 30.8989 9.74168 30.6974C9.16064 30.4946 8.66608 30.2006 8.2588 29.8136C7.8512 29.4271 7.53704 28.9552 7.31544 28.3969C7.09336 27.839 6.98872 27.1986 7.00096 26.4751H9.4308C9.44248 26.8074 9.49648 27.1245 9.59296 27.4269C9.68896 27.7293 9.82728 27.9905 10.0074 28.2098C10.1874 28.4291 10.4122 28.6046 10.6826 28.7351C10.9526 28.8651 11.2738 28.9302 11.6458 28.9302C12.222 28.9302 12.7086 28.756 13.1046 28.4069C13.501 28.0578 13.699 27.5815 13.699 26.9779C13.699 26.504 13.6034 26.1429 13.4129 25.8944C13.2218 25.6456 12.9832 25.4656 12.6958 25.3526C12.4086 25.2403 12.0942 25.1752 11.7534 25.1576C11.4124 25.1397 11.0864 25.1305 10.7759 25.1305V23.3389C11.0508 23.3626 11.3438 23.3626 11.655 23.3389Z" fill="#1E76C0"/>
<path d="M23.7428 19.6718C25.1639 19.6718 26.5713 20.2418 27.604 21.236L27.8796 21.501V19.3625L27.8106 19.3145C26.6296 18.4932 25.3272 18.0941 23.8291 18.0941C19.9948 18.0941 16.8755 21.0044 16.8755 24.5815C16.8755 28.1056 19.9948 30.9726 23.8291 30.9726C25.2284 30.9726 26.6413 30.5396 27.8088 29.7539L27.8796 29.7058V27.574L27.606 27.8288C26.5376 28.8241 25.1419 29.3949 23.7775 29.3949C20.9992 29.3949 18.6519 27.1686 18.6519 24.5332C18.6519 21.8981 20.9831 19.6718 23.7428 19.6718Z" fill="#706D6E"/>
<path d="M27.9019 22.093V27.0634L30.0948 24.4747L27.9019 22.093Z" fill="#1E76C0"/>
<path d="M41.1807 30.8875L36.021 24.6389L41.1797 18.4067H38.4432L34.6593 22.9892L30.8757 18.4067H28.1395L33.2983 24.6389L28.1383 30.8875H30.8479L34.6593 26.2838L38.4714 30.8875H41.1807Z" fill="#706D6E"/>
</svg>
