<svg xmlns="http://www.w3.org/2000/svg" width="62" height="62" fill="none">
  <rect width="62" height="62" rx="8" fill="#fff"/>
  <g fill="#00A556">
    <path d="M16.5 31c0-4.5 3.2-7.5 7.5-7.5 2.2 0 4 .8 5.2 2.1-1.2-1.8-1.7-3.8-1.7-5.6 0-4.5 3.2-7.5 7.5-7.5s7.5 3 7.5 7.5c0 1.8-.5 3.8-1.7 5.6 1.2-1.3 3-2.1 5.2-2.1 4.3 0 7.5 3 7.5 7.5s-3.2 7.5-7.5 7.5c-2.2 0-4-.8-5.2-2.1 1.2 1.8 1.7 3.8 1.7 5.6 0 4.5-3.2 7.5-7.5 7.5s-7.5-3-7.5-7.5c0-1.8.5-3.8 1.7-5.6-1.2 1.3-3 2.1-5.2 2.1-4.3 0-7.5-3-7.5-7.5z"/>
    <circle cx="24" cy="31" r="4" fill="#fff"/>
    <circle cx="35" cy="20" r="4" fill="#fff"/>
    <circle cx="46" cy="31" r="4" fill="#fff"/>
    <circle cx="35" cy="42" r="4" fill="#fff"/>
  </g>
</svg>
