<svg width="50" height="50" viewBox="0 0 50 50" fill="none" xmlns="http://www.w3.org/2000/svg">
<circle cx="25" cy="25" r="25" fill="white"/>
<g clip-path="url(#clip0_34_27)">
<path d="M29.4984 22.7737H25.7232L24.8531 24.5141C24.7345 24.7835 24.5371 25.088 24.5371 25.088H24.4974C24.4974 25.088 24.3198 24.7835 24.1814 24.5141L23.3112 22.7737H19.5377L22.5032 27.5823L19.5497 32.3952H23.2595L24.2602 30.386C24.359 30.1994 24.4974 29.8379 24.4974 29.8379H24.5371C24.5371 29.8379 24.6749 30.1994 24.7737 30.386L25.7906 32.3952H29.5036L26.55 27.5823L29.4978 22.7737H29.4984Z" fill="#3A3A3B"/>
<path d="M12.775 29.9469C11.7289 29.9469 10.901 29.0999 10.901 28.047C10.901 27.1542 11.3586 26.4673 11.7294 26.0553C13.2545 26.7877 14.6495 27.337 14.6495 28.2757C14.6495 29.3517 13.9303 29.9469 12.7755 29.9469H12.775ZM12.8837 20.0808C13.9079 20.0808 14.5179 20.6761 14.5179 21.5918C14.5179 22.5992 14.1037 23.3547 13.9731 23.606C12.6 22.9876 11.4672 22.4384 11.4672 21.3625C11.4672 20.653 11.9033 20.0808 12.8837 20.0808ZM16.7189 25.0254C16.8714 24.8196 18.244 23.0568 18.244 21.2939C18.244 18.2493 15.8686 16.5555 12.9703 16.5555C9.33152 16.5555 7.74061 18.8907 7.74061 21.2714C7.74061 22.6677 8.32872 23.6521 9.15707 24.4076C8.67761 24.7966 7 26.2846 7 28.3904C7 30.9998 8.98316 33.4722 12.7745 33.4722C16.5658 33.4722 18.549 30.9769 18.549 28.482C18.549 26.8338 17.7645 25.7809 16.7183 25.0254H16.7189Z" fill="#3A3A3B"/>
<path d="M36.226 29.9469C35.1805 29.9469 34.3521 29.0999 34.3521 28.047C34.3521 27.1542 34.8097 26.4673 35.1805 26.0553C36.7055 26.7877 38.1006 27.337 38.1006 28.2757C38.1006 29.3517 37.3814 29.9469 36.2266 29.9469H36.226ZM36.3353 20.0808C37.3594 20.0808 37.9694 20.6761 37.9694 21.5918C37.9694 22.5992 37.5552 23.3547 37.4247 23.606C36.0516 22.9876 34.9187 22.4384 34.9187 21.3625C34.9187 20.653 35.3549 20.0808 36.3353 20.0808ZM40.1705 25.0254C40.3229 24.8196 41.6955 23.0568 41.6955 21.2939C41.6955 18.2493 39.3202 16.5555 36.422 16.5555C32.7832 16.5555 31.1922 18.8907 31.1922 21.2714C31.1922 22.6677 31.7802 23.6521 32.6085 24.4076C32.1292 24.7966 30.451 26.2846 30.451 28.3904C30.451 30.9998 32.4341 33.4722 36.2256 33.4722C40.0169 33.4722 42 30.9769 42 28.482C42 26.8338 41.2154 25.7809 40.1693 25.0254H40.1705Z" fill="#3A3A3B"/>
</g>
<defs>
<clipPath id="clip0_34_27">
<rect width="35" height="35" fill="white" transform="translate(7 8)"/>
</clipPath>
</defs>
</svg>
