<svg width="62" height="62" viewBox="0 0 62 62" fill="none" xmlns="http://www.w3.org/2000/svg"><rect width="62" height="62" rx="31" fill="white"/><rect width="44" height="41.0667" transform="translate(9 10)" fill="black"/><path d="M30.9331 11.3086C33.0648 15.0281 35.0159 18.4311 37.0636 22.0026C35.6003 22.074 35.1684 23.0901 34.6476 24.0602C30.8341 31.1649 27.0231 38.272 23.1513 45.3434C22.3255 46.8522 21.9089 48.2332 23.3265 49.7574H9C16.3398 36.8909 23.54 24.2695 30.9331 11.3086Z" fill="white"/><path d="M39.3373 49.6657C40.3079 48.2234 39.6778 47.0312 38.9892 45.8288C37.5971 43.401 36.2276 40.958 34.8557 38.5175C34.6753 38.1983 34.4034 37.7183 34.1875 37.2614C34.599 37.2538 35.1046 37.2614 35.4273 37.2588C38.4735 37.2435 41.5223 37.269 44.5684 37.2231C45.4983 37.2077 45.9887 37.5652 46.4358 38.3872C48.1178 41.4787 49.8987 44.5192 51.6364 47.5826C51.9845 48.1979 52.3071 48.8284 52.7568 49.6657H39.3373Z" fill="white"/></svg>