<svg width="62" height="62" viewBox="0 0 62 62" fill="none" xmlns="http://www.w3.org/2000/svg"><rect width="62" height="62" rx="31" fill="white"/><path fill-rule="evenodd" clip-rule="evenodd" d="M18.4921 9.26522C19.5599 9.97411 42.948 27.5912 43.5224 28.1229C44.5079 28.8318 45 29.7167 45 30.6016V31.1332C45 31.8421 44.7545 32.991 43.6046 33.8771C43.1125 34.3196 18.2467 53 18.2467 53V48.8396C18.2467 47.6002 18.3289 46.9793 19.6409 46.0944C20.7086 45.3856 37.6143 32.7258 39.8295 31.044C38.774 30.2434 34.4405 26.9899 30.0678 23.7082C25.2593 20.1002 20.4055 16.458 19.8041 15.9936L19.6396 15.9056L19.4555 15.7479C18.7241 15.1246 18.1632 14.6479 18.1632 13.3377V9L18.4921 9.26522ZM30.8864 32.1941C30.2298 32.727 29.5732 32.9922 28.9166 32.9922C28.3422 32.9922 27.7679 32.815 27.1113 32.3726C25.6336 31.3092 18.1645 25.7322 18.0835 25.6442L18 25.555V22.8111C18 22.1022 18.3277 21.6598 18.7388 21.3933C19.1487 21.1293 19.8065 21.2173 20.2975 21.6598C21.4474 22.4567 32.3615 30.6016 32.4438 30.6908L32.6892 30.8668L32.4438 31.044C32.4438 31.044 31.705 31.5757 30.8851 32.1953L30.8864 32.1941Z" fill="black"/></svg>