<svg width="57" height="22" viewBox="0 0 57 22" fill="none" xmlns="http://www.w3.org/2000/svg">
<g clip-path="url(#clip0_9009_2996)">
<rect width="57" height="22" fill="none"/>
<path d="M8.83569 16.6393C7.60129 16.6393 7.05989 16.3577 7.01658 15.145C6.5618 16.0546 5.45734 16.7259 3.72485 16.7259C1.40765 16.7259 0 15.5132 0 13.4775C0 11.3335 1.75414 10.1858 3.85479 10.1858C5.00256 10.1858 5.82549 10.4023 6.41021 10.8354L6.34524 10.1858C6.15033 8.02015 5.65224 6.74244 4.22294 6.74244C2.29555 6.74244 3.16179 9.38448 1.34268 9.38448C0.649683 9.38448 0.151593 8.97302 0.151593 8.28002C0.151593 6.89403 1.92739 5.89785 4.2446 5.89785C6.99492 5.89785 8.77072 6.98066 9.03059 9.68767L9.48537 14.4304C9.61531 15.8597 10.6765 15.3399 10.6765 16.0762C10.6981 16.5093 9.78856 16.6393 8.83569 16.6393ZM2.79364 13.1526C2.79364 14.452 3.42166 15.4698 4.82931 15.4698C5.80383 15.4698 6.67008 14.8202 6.69173 13.824L6.60511 12.8711C6.45352 11.7883 5.69555 11.1819 4.65606 11.1819C3.44332 11.1819 2.79364 11.9616 2.79364 13.1526Z" fill="white"/>
<path d="M15.7509 16.7259C12.6324 16.7259 10.6617 14.4737 10.6617 11.4418C10.6617 8.15009 13.0006 5.89785 15.8592 5.89785C18.3713 5.89785 20.0821 7.28384 20.0821 8.60487C20.0821 9.31952 19.5624 9.81761 18.7395 9.79595C16.877 9.75264 17.57 6.78575 15.4694 6.80741C14.17 6.80741 13.3471 7.86856 13.3471 10.0775C13.3471 13.0011 14.7981 14.8418 16.8121 14.8418C18.1981 14.8418 18.9993 14.1705 19.5407 13.1093C19.8006 12.6329 20.3204 12.8495 20.2554 13.3042C20.0388 15.0151 18.4579 16.7259 15.7509 16.7259Z" fill="white"/>
<path d="M25.4302 16.7259C23.1563 16.7259 21.5104 15.5998 21.5104 12.8711V8.34499C21.5104 7.43544 20.6875 7.28384 20.6875 6.82906V6.7641C20.6875 6.56919 20.8391 6.4176 21.0773 6.37429L23.5028 5.94116C23.9359 5.85454 24.2174 5.91951 24.2174 6.30932V12.503C24.2174 14.4087 24.9104 15.21 26.2315 15.21C27.4659 15.21 28.462 14.2788 28.462 12.7845V8.34499C28.462 7.43544 27.6174 7.28384 27.6174 6.82906V6.7641C27.6174 6.59085 27.7474 6.4176 28.0073 6.37429L30.4544 5.94116C30.9308 5.8762 31.1907 5.94116 31.1907 6.28766V14.387C31.1907 16.0546 32.2735 15.2966 32.2735 16.0329C32.2735 16.4877 31.6671 16.6393 30.5627 16.6393C29.22 16.6393 28.7869 16.2495 28.7436 14.8418C28.0939 16.0329 26.9028 16.7259 25.4302 16.7259Z" fill="white"/>
<path d="M33.5096 16.5093C33.2281 16.5093 33.0332 16.3794 33.0332 16.1628V16.0762C33.0332 15.5781 33.8561 15.4698 33.8561 14.6036V9.16792C33.8561 8.25837 33.0332 8.02015 33.0332 7.60869V7.54372C33.0332 7.39212 33.1414 7.28384 33.4446 7.13225L35.7618 5.98448C36.2816 5.74626 36.5631 6.00613 36.5631 6.37429V14.6036C36.5631 15.4698 37.386 15.5781 37.386 16.0762V16.1628C37.386 16.3794 37.1911 16.5093 36.9096 16.5093H33.5096ZM33.423 2.73606C33.423 1.76154 34.1593 1.06854 35.1988 1.06854C36.2383 1.06854 36.9746 1.76154 36.9746 2.73606C36.9746 3.73224 36.2383 4.40358 35.1988 4.40358C34.1593 4.40358 33.423 3.73224 33.423 2.73606Z" fill="white"/>
<path d="M42.3991 16.7259C40.5583 16.7259 39.3889 15.5781 39.3889 13.4125V7.24053H38.1112C37.873 7.24053 37.7214 7.06728 37.7214 6.85072V6.52588C37.7214 6.26601 37.8513 6.11441 38.1112 6.11441H38.5226C40.1252 6.11441 40.6883 5.22651 40.8832 3.97046C40.9265 3.66727 41.0997 3.49403 41.3379 3.49403H41.6411C41.9443 3.49403 42.0959 3.66727 42.0959 3.97046V6.11441H44.8029C45.0195 6.11441 45.1927 6.28766 45.1927 6.52588V6.85072C45.1927 7.06728 45.0195 7.24053 44.8029 7.24053H42.0959V13.4775C42.0959 14.4737 42.6156 15.0151 43.3953 15.0151C44.3698 15.0151 44.608 14.2788 44.8029 13.6291C44.8462 13.4125 45.0195 13.3259 45.1711 13.3259C45.366 13.3259 45.5609 13.4558 45.5609 13.6724C45.5609 15.145 44.4348 16.7259 42.3991 16.7259Z" fill="white"/>
<path d="M48.1374 21.1654C46.6648 21.1654 45.582 20.3208 45.582 19.1947C45.582 18.48 46.0151 18.0253 46.7081 18.0253C48.1158 18.0253 47.726 19.8877 48.8304 19.8877C49.6534 19.8877 50.2164 19.173 51.1693 16.9425L47.1413 8.08512C46.6648 7.02397 46.0151 7.04563 46.0151 6.56919V6.48257C46.0151 6.26601 46.1884 6.11441 46.4266 6.11441H50.0648C50.2814 6.11441 50.433 6.24435 50.433 6.46091V6.52588C50.433 7.04563 49.6534 7.06728 50.0865 8.17174L52.4903 14.1055L54.8075 8.36665C55.284 7.21887 54.1362 7.15391 54.1362 6.52588V6.46091C54.1362 6.24435 54.2878 6.11441 54.5477 6.11441H56.9948C57.233 6.11441 57.4063 6.24435 57.4063 6.43925V6.52588C57.4063 7.04563 56.6699 7.24053 56.3018 8.08512L52.0139 17.982C51.0394 20.2558 49.9566 21.1654 48.1374 21.1654Z" fill="white"/>
</g>
<defs>
<clipPath id="clip0_9009_2996">
<rect width="57" height="22" fill="none"/>
</clipPath>
</defs>
</svg>