<svg xmlns="http://www.w3.org/2000/svg" width="62" height="62"><rect width="62" height="62" rx="31" fill="#fff"/><mask id="a" maskUnits="userSpaceOnUse" x="9" y="23" width="44" height="17"><path d="M53 23H9v16.983h44z" fill="#fff"/></mask><g mask="url(#a)"><path d="M15.821 35.844c-.953 0-1.371-.217-1.404-1.154-.351.702-1.204 1.22-2.541 1.22-1.789 0-2.875-.936-2.875-2.508 0-1.655 1.354-2.541 2.976-2.541.886 0 1.521.167 1.973.502l-.05-.502c-.15-1.672-.535-2.658-1.638-2.658-1.488 0-.819 2.04-2.223 2.04-.535 0-.919-.318-.919-.853 0-1.07 1.371-1.839 3.159-1.839 2.123 0 3.494.836 3.694 2.925l.351 3.661c.1 1.103.919.702.919 1.27.017.334-.685.435-1.421.435zm-4.664-2.691c0 1.003.485 1.789 1.571 1.789.752 0 1.421-.501 1.438-1.27l-.067-.736c-.117-.836-.702-1.304-1.504-1.304-.936 0-1.438.602-1.438 1.521m10.002 2.758c-2.407 0-3.928-1.739-3.928-4.079 0-2.541 1.805-4.28 4.012-4.28 1.939 0 3.26 1.07 3.26 2.09 0 .552-.401.936-1.036.919-1.438-.033-.903-2.324-2.524-2.307-1.003 0-1.638.819-1.638 2.524 0 2.257 1.12 3.678 2.675 3.678 1.07 0 1.688-.518 2.106-1.337.201-.368.602-.201.552.15-.167 1.321-1.388 2.641-3.477 2.641zm7.471 0c-1.755 0-3.026-.869-3.026-2.976v-3.494c0-.702-.635-.819-.635-1.17v-.05c0-.15.117-.267.301-.301l1.872-.334c.334-.067.552-.017.552.284v4.781c0 1.471.535 2.09 1.555 2.09.953 0 1.722-.719 1.722-1.872v-3.427c0-.702-.652-.819-.652-1.17v-.05c0-.134.1-.267.301-.301l1.889-.334c.368-.05.568 0 .568.267v6.252c0 1.287.836.702.836 1.27 0 .351-.468.468-1.321.468-1.036 0-1.371-.301-1.404-1.388-.502.919-1.421 1.454-2.558 1.454zm6.237-.167c-.217 0-.368-.1-.368-.267v-.067c0-.384.635-.468.635-1.137v-4.196c0-.702-.635-.886-.635-1.204v-.05c0-.117.084-.201.318-.318l1.789-.886c.401-.184.618.017.618.301v6.352c0 .669.635.752.635 1.137v.067c0 .167-.15.267-.368.267h-2.625zM34.8 25.112c0-.752.568-1.287 1.371-1.287s1.371.535 1.371 1.287c0 .769-.568 1.287-1.371 1.287s-1.371-.518-1.371-1.287m6.929 10.799c-1.421 0-2.324-.886-2.324-2.558v-4.764h-.986a.29.29 0 0 1-.301-.301v-.251c0-.201.1-.318.301-.318h.318c1.237 0 1.672-.685 1.822-1.655.033-.234.167-.368.351-.368h.234c.234 0 .351.134.351.368v1.655h2.09c.167 0 .301.134.301.318v.251a.3.3 0 0 1-.301.301h-2.09v4.814c0 .769.401 1.187 1.003 1.187.752 0 .936-.568 1.087-1.07a.28.28 0 0 1 .284-.234c.151 0 .301.1.301.267 0 1.137-.869 2.357-2.441 2.357zm4.43 3.427c-1.137 0-1.973-.652-1.973-1.521 0-.552.334-.903.869-.903 1.087 0 .786 1.438 1.638 1.438.635 0 1.07-.552 1.806-2.273l-3.109-6.837c-.368-.819-.869-.802-.869-1.17v-.067c0-.167.134-.284.318-.284h2.809c.167 0 .284.1.284.268v.05c0 .401-.602.418-.267 1.27l1.856 4.581 1.789-4.43c.368-.886-.518-.936-.518-1.421v-.05c0-.167.117-.268.318-.268h1.889c.184 0 .318.1.318.251v.067c0 .401-.569.552-.853 1.204l-3.31 7.64c-.752 1.755-1.588 2.457-2.992 2.457z"/></g></svg>