<svg width="70" height="70" viewBox="0 0 70 70" fill="none" xmlns="http://www.w3.org/2000/svg"><g filter="url(#filter0_d_3127_107)"><path d="M57.001 37.2127V52.9983H41.2153C36.8491 52.9983 32.9307 51.2071 30.0758 48.3522C27.221 45.4974 25.4297 41.523 25.4297 37.2127C25.4297 36.597 25.4857 35.9812 25.5416 35.3654C28.4525 39.004 32.8747 41.2991 37.8567 41.2991H45.3017V33.7981C45.3017 28.8161 43.0066 24.3939 39.3681 21.483C39.9278 21.4271 40.5436 21.3711 41.1593 21.3711C49.8918 21.4271 57.001 28.4802 57.001 37.2127Z" fill="url(#paint0_linear_3127_107)"/><path d="M30.0171 48.3521C32.872 51.207 36.8464 52.9982 41.1566 52.9982H34.9991C28.9536 52.9982 23.4118 50.5352 19.4374 46.5608C15.463 42.5864 13 37.1007 13 30.9991C13 18.852 22.852 9 34.9991 9C38.5817 9 41.9963 9.89564 45.0191 11.407C42.8919 10.3435 40.373 9.72771 37.854 9.72771C33.4877 9.72771 29.5693 11.519 26.7145 14.3738C23.8596 17.2287 22.0683 21.2031 22.0683 25.5133C22.0683 27.3606 22.4042 29.1519 22.964 30.8312C23.5797 32.5105 24.4194 34.0219 25.483 35.3654C25.427 35.9811 25.371 36.5969 25.371 37.2126C25.427 41.5789 27.1623 45.4973 30.0171 48.3521Z" fill="url(#paint1_linear_3127_107)"/><path d="M56.9989 30.9999V37.2134C56.9989 28.481 49.9458 21.4278 41.2133 21.4278C33.0966 21.4278 26.4353 27.5293 25.5396 35.3662C24.4761 34.0227 23.5804 32.5113 23.0206 30.832C22.4049 29.1527 22.125 27.4174 22.125 25.5141C22.125 21.1479 23.9163 17.2295 26.7711 14.3746C29.626 11.5198 33.6004 9.72852 37.9106 9.72852C40.4296 9.72852 42.8926 10.3443 45.0757 11.4078H45.1317C52.1289 15.0464 56.9989 22.4914 56.9989 30.9999Z" fill="url(#paint2_linear_3127_107)"/></g><defs><filter id="filter0_d_3127_107" x="0" y="0" width="70" height="70" filterUnits="userSpaceOnUse" color-interpolation-filters="sRGB"><feFlood flood-opacity="0" result="BackgroundImageFix"/><feColorMatrix in="SourceAlpha" type="matrix" values="0 0 0 0 0 0 0 0 0 0 0 0 0 0 0 0 0 0 127 0" result="hardAlpha"/><feOffset dy="4"/><feGaussianBlur stdDeviation="2"/><feComposite in2="hardAlpha" operator="out"/><feColorMatrix type="matrix" values="0 0 0 0 0 0 0 0 0 0 0 0 0 0 0 0 0 0 0.25 0"/><feBlend mode="normal" in2="BackgroundImageFix" result="effect1_dropShadow_3127_107"/><feBlend mode="normal" in="SourceGraphic" in2="effect1_dropShadow_3127_107" result="shape"/></filter><linearGradient id="paint0_linear_3127_107" x1="29.7587" y1="48.3747" x2="53.2421" y2="34.207" gradientUnits="userSpaceOnUse"><stop stop-color="#00649C"/><stop offset="0.11" stop-color="#0875AC"/><stop offset="0.37" stop-color="#1A9ACF"/><stop offset="0.62" stop-color="#28B5E9"/><stop offset="0.83" stop-color="#30C6F9"/><stop offset="1" stop-color="#33CCFF"/></linearGradient><linearGradient id="paint1_linear_3127_107" x1="35.1193" y1="6.97205" x2="24.4633" y2="51.7271" gradientUnits="userSpaceOnUse"><stop stop-color="#00649C"/><stop offset="0.11" stop-color="#0875AC"/><stop offset="0.37" stop-color="#1A9ACF"/><stop offset="0.62" stop-color="#28B5E9"/><stop offset="0.83" stop-color="#30C6F9"/><stop offset="1" stop-color="#33CCFF"/></linearGradient><linearGradient id="paint2_linear_3127_107" x1="56.5167" y1="30.733" x2="23.7739" y2="19.3021" gradientUnits="userSpaceOnUse"><stop stop-color="#00649C"/><stop offset="0.11" stop-color="#0875AC"/><stop offset="0.37" stop-color="#1A9ACF"/><stop offset="0.62" stop-color="#28B5E9"/><stop offset="0.83" stop-color="#30C6F9"/><stop offset="1" stop-color="#33CCFF"/></linearGradient></defs></svg>
