<svg width="62" height="62" viewBox="0 0 62 62" fill="none" xmlns="http://www.w3.org/2000/svg">
<path d="M52.2942 28.6153C50.1061 20.8004 42.1349 9.62518 42.1349 9.62518C42.1349 9.62518 37.2116 9 30.6471 9C24.0826 9 19.1593 9.62518 19.1593 9.62518C19.1593 9.62518 11.1882 20.8004 9 28.6153C17.9089 44.1668 30.2564 52.5287 30.6471 52.6068C30.9597 52.5287 42.6038 44.3231 52.2942 28.6153Z" fill="#EB1000"/>
<path d="M29.0839 35.9636L23.3791 36.9796C23.301 36.9796 23.301 36.9796 23.301 36.9014L18.6902 20.881L25.4891 25.4917L25.1765 30.5714C25.1765 30.6495 25.3328 30.7277 25.3328 30.5714L28.1462 22.6002L18.6121 19.318L23.4573 16.5828L30.5688 19.0054L37.6021 16.5828L42.5255 19.318L32.9914 22.6784L35.8047 30.6495C35.8829 30.7277 36.0392 30.7277 35.961 30.6495L35.6484 25.5699L42.4473 20.9591L37.8366 36.9796C37.8366 37.0577 37.7584 37.0577 37.7584 37.0577L32.0536 35.9636L31.2721 33.6973L34.2418 31.431C34.3199 31.3529 34.2417 31.2747 34.1636 31.2747H26.9739C26.8958 31.2747 26.8176 31.431 26.8958 31.431L29.8654 33.6973L29.0839 35.9636ZM26.0362 37.8392L27.2865 41.0433H34.0073L35.2577 37.8392L30.6469 37.1359L26.0362 37.8392Z" fill="white"/>
<path d="M33.6169 53C33.3043 53 32.9917 52.7656 32.9917 52.3748C32.9917 52.0622 33.2261 51.7496 33.6169 51.7496C33.9295 51.7496 34.2421 51.9841 34.2421 52.3748C34.1639 52.6874 33.9295 53 33.6169 53ZM33.6169 51.9059C33.3043 51.9059 33.0699 52.1404 33.0699 52.3748C33.0699 52.6874 33.3043 52.9219 33.6169 52.9219C33.9295 52.9219 34.0858 52.6874 34.0858 52.3748C34.0858 52.0622 33.8513 51.9059 33.6169 51.9059ZM33.7732 52.6874L33.6169 52.453H33.4606V52.6874H33.3824V51.9841H33.6169C33.695 51.9841 33.8513 52.0622 33.8513 52.2185C33.8513 52.3748 33.695 52.453 33.695 52.453L33.8513 52.6874H33.7732ZM33.6169 52.1404H33.4606V52.3748H33.6169C33.695 52.3748 33.7732 52.2967 33.7732 52.2185C33.7732 52.1404 33.695 52.1404 33.6169 52.1404Z" fill="#EB1000"/>
</svg>
