<svg xmlns="http://www.w3.org/2000/svg" width="62" height="62" fill="none"><g clip-path="url(#a)"><path fill="#37C0E1" d="M25.156 22.367h3.884v12.818h-3.695v-1.909c-.074.025-.083.055-.124.12a4.4 4.4 0 0 1-.951 1.075l-.055.046c-.863.701-1.953 1.04-3.047 1.037h-.04c-1.044-.002-2.189-.16-3.06-.793l-.059-.042a4 4 0 0 1-.394-.344l-.047-.045c-.934-.908-1.189-2.422-1.235-3.675q-.003-.242-.002-.484v-.903l.001-.728v-.969l.001-1.812.413-.001c.275-.002.54.011.813.06l.059.01c.724.13 1.474.401 2.003.945q.07.069.149.129c.134.109.24.213.268.391.012.139.01.277.006.416q-.002.107-.002.213 0 .201-.004.402-.005.293-.006.584v.088l-.001.044-.003.25c-.016.94.077 2.013.74 2.73.313.306.74.472 1.164.524l.05.007c.737.078 1.565-.038 2.16-.519.58-.51.808-1.245.925-1.996l.008-.056c.061-.425.068-.848.068-1.277v-.256l.002-.441.003-1.676.002-1.006v-.064l.001-.49z"/><path fill="#1F91AF" d="M16.901 21.997h.286a4 4 0 0 1 .876.072c.66.124 1.289.387 1.815.819l.033.017c.045.029.07.052.098.098.02.112.017.222.015.335v.104l-.001.281-.001.294q0 .279-.003.557-.002.316-.003.634-.002.651-.007 1.303a.6.6 0 0 1-.163-.123 3.6 3.6 0 0 0-1.194-.725l-.046-.018a5.4 5.4 0 0 0-1.24-.296 4.7 4.7 0 0 0-1.542.025l-.05.01a3.1 3.1 0 0 0-1.59.838l-.03.03a2 2 0 0 0-.223.262l-.032.043a4 4 0 0 0-.243.378L13.62 27c-.644 1.155-.61 2.539-.612 3.824l-.001.454-.002.81-.002.787v.05l-.002.384-.004 1.877H9V22.367h3.827v2.525h.038l.018-.067c.122-.371.35-.708.585-1.012l.025-.033a4 4 0 0 1 .76-.762c.745-.586 1.696-1.016 2.648-1.021"/><path fill="#2CB24B" d="M32.644 21.997h.348a6.4 6.4 0 0 1 1.09.072c.992.154 2.005.555 2.63 1.397l.042.054c.805 1.062.98 2.523.978 3.826v4.433l-.001.577v2.829h-3.677l-.003-1.59-.002-.997-.001-.524v-.067l-.002-1.058-.005-2.217v-.265c0-.457-.006-.913-.078-1.366l-.01-.062c-.08-.499-.232-1.006-.559-1.395l-.029-.038c-.315-.399-.83-.563-1.31-.618a4 4 0 0 0-.365-.007h-.048c-.691.005-1.357.167-1.871.664-.068.07-.126.149-.183.229l-.059.078h-.037a141 141 0 0 1-.014-1.476 37 37 0 0 1-.006-.624q-.002-.12-.002-.241 0-.035-.002-.072c.002-.133.022-.2.114-.297q.048-.044.098-.085l.043-.036q.055-.046.112-.089l.041-.032c.796-.606 1.768-.999 2.768-1.003"/><path fill="#D52229" d="M42.366 33.414q.121.003.243.002.204 0 .407.006l.572.007c1.162.008 2.069.047 2.965.887l.019-.868.688-.002h.422l.47-.002c.645-.003 1.177.115 1.68.544l.036.028c.373.305.62.846.681 1.321q.008.146.007.29v.04a2 2 0 0 1-.094.654 2.18 2.18 0 0 1-1.079 1.283c-.302.153-.609.22-.945.22v1.175H46.57l-.018-.867c-.065.066-.065.066-.127.133-.401.436-1.063.72-1.642.74a15 15 0 0 1-.38 0h-.139l-.363-.002-.438-.001-.663-.003v-1.175h-1.357l-.038.096-.059.11-.036.064-.04.07-.04.07q-.145.26-.295.518l-.02.035c-.11.19-.11.19-.132.212l-.084.003h-.538L39.817 39h-.393l-.808-.002q.04-.103.094-.199l.034-.06.037-.065.038-.067.099-.173.053-.094.197-.345.165-.288.065-.116.033-.057 1.683-2.95.033-.057.066-.116.167-.294.035-.06.064-.112q.03-.053.062-.104a.7.7 0 0 0 .06-.148c.12-.35.462-.289.765-.28m-.261.878-.02.043-.035.058-.028.05-.033.06-.035.062-.056.1-.058.103q-.251.45-.51.895-.147.255-.291.512a104 104 0 0 1-.5.878l-.066.115q-.016.029-.033.058l-.132.232-.066.114-.173.303-.037.064-.07.12-.03.056-.029.048a1 1 0 0 0-.061.143q.2.018.4.014l.068-.001c.075-.017.102-.046.15-.108q.022-.053.041-.11c.04-.1.1-.192.155-.286l.066-.119.037-.061c.035-.06.06-.121.086-.186.12-.283.12-.283.258-.343.153-.035.31-.029.465-.023q.102.003.204.002.192 0 .385.006.261.005.522.006.41.004.82.014v1.195l.565.002.177.001c.683.002 1.261-.121 1.768-.621.122-.126.374-.395.374-.578h.886v1.196h.471V37.11l.53.006c.277.003.55-.017.798-.156l.038-.02c.108-.06.202-.131.293-.216l.035-.03c.273-.253.418-.65.437-1.018 0-.432-.166-.805-.455-1.114-.323-.315-.74-.412-1.173-.407h-.076l-.275.002-.623.003v1.793l-.697-.02-.076-.327a2.15 2.15 0 0 0-1.08-1.258 3 3 0 0 0-.285-.106l-.037-.011a2.3 2.3 0 0 0-.647-.078l-.395-.003-.343-.002q-.246 0-.49-.003a33 33 0 0 0-.553-.004h-.23l-.068-.003c-.14.002-.197.025-.264.153"/><path fill="#D52229" d="m43.97 34.643.434-.004c.437-.006.799.075 1.15.351l.042.033c.295.243.475.63.523 1.008.019.321-.013.613-.15.906l-.025.053a1.5 1.5 0 0 1-.296.39l-.044.047c-.278.279-.661.4-1.043.398h-.323l-.268-.001v-.713l.45-.006c.285-.005.554-.052.762-.272.187-.23.24-.447.22-.744a.88.88 0 0 0-.328-.554.97.97 0 0 0-.588-.167l-.154-.003-.105-.003-.257-.006z"/><path fill="#B9BABB" d="M21.009 36.996h.527l-.015.296-.005.1-.007.146-.003.049q-.007.133-.015.265-.015.218-.011.435l.584-1.29h.471q.002.203-.008.407l-.005.096-.008.147a10 10 0 0 0-.016.64l.104-.234.016-.037q.169-.386.33-.774l.02-.045.035-.085c.04-.095.04-.095.06-.116q.06-.003.118-.002h.147l.076.001.187.001a1.4 1.4 0 0 1-.09.226q-.017.03-.033.063l-.035.068-.036.07q-.119.232-.242.46-.16.302-.31.61l-.021.042-.039.078c-.06.12-.126.232-.193.35h-.528l.057-1.215c-.276.606-.276.606-.547 1.214h-.528a69 69 0 0 1-.03-1.397zm.433 1.35.019.038zm1.018 0 .019.038zM34.205 36.995l.414-.002.14-.001.204-.001h.063c.212 0 .437.008.6.161.087.155.074.31.03.479a.53.53 0 0 1-.282.289l.051.036c.088.075.125.18.144.293a.7.7 0 0 1-.177.48.9.9 0 0 1-.627.234h-.22500000000000003l-.205-.001-.62-.001a2 2 0 0 1 .075-.387l.044-.17.03-.118.063-.247.081-.317.063-.244.03-.117.054-.212c.029-.111.029-.111.05-.154m.415.424a1.7 1.7 0 0 0-.095.347l.217.004.062.002a.5.5 0 0 0 .325-.084c.036-.056.037-.088.037-.156-.014-.059-.014-.059-.063-.088-.096-.035-.182-.032-.283-.029h-.059zm-.189.713-.073.259-.015.055-.015.051c-.011.036-.011.036-.01.059l.225.003.064.002a.7.7 0 0 0 .352-.063.28.28 0 0 0 .085-.195c-.004-.074-.004-.074-.044-.122-.069-.05-.124-.051-.206-.051h-.198zM31.039 36.992h.163l.168-.002c.639-.002.639-.002.874.236.176.241.182.527.145.816-.053.3-.217.564-.463.74a1.3 1.3 0 0 1-.735.184h-.072l-.382-.002-.378-.003c.033-.183.08-.362.126-.542l.026-.101.069-.266.055-.215.067-.26.012-.049.096-.37.015-.059.013-.05c.028-.088.124-.057.2-.057m.225.465q-.096.337-.185.676l-.021.077-.029.11-.017.065c-.015.058-.015.058-.012.132.353.02.353.02.668-.124a.83.83 0 0 0 .226-.566c-.005-.117-.025-.214-.11-.3-.114-.072-.206-.075-.337-.072h-.054zM26.344 36.995l.43-.002.146-.001.277-.002c.19 0 .399.005.56.12.111.116.13.248.133.405-.014.165-.053.315-.175.429a1 1 0 0 1-.221.13l.036.035c.073.08.06.167.06.27v.21000000000000002l-.001.107-.001.265h-.528c0-.155.002-.294.018-.444a.4.4 0 0 0-.037-.173c-.058-.056-.1-.066-.177-.068-.03 0-.03 0-.059-.002l-.06-.001-.062-.002-.15-.004-.006.06c-.015.123-.049.242-.08.363l-.018.072c-.045.177-.045.177-.066.199l-.114.002h-.07l-.072-.001h-.073l-.18-.001c.011-.094.029-.183.052-.275l.01-.04q.016-.066.033-.131l.023-.093.049-.194.061-.245c.083-.33.167-.66.262-.988m.414.424q-.048.142-.088.286l-.014.053c-.013.048-.013.048-.01.104l.236.004.068.001c.145.001.25-.002.362-.104a.36.36 0 0 0 .05-.229.35.35 0 0 0-.132-.115l-.107-.002h-.199z"/><path fill="#D52229" d="m47.74 34.643.468-.006c.358-.006.642.027.913.29.211.227.285.474.282.783a1.03 1.03 0 0 1-.343.706c-.278.226-.564.223-.901.217h-.122l-.297-.005v-.694q.073 0 .148-.002l.383-.007h.043c.122-.004.233-.024.32-.116a.35.35 0 0 0 .049-.24.28.28 0 0 0-.123-.166.6.6 0 0 0-.242-.037l-.05-.001-.158-.003-.107-.002-.263-.004z"/><path fill="#B9BABB" d="M20.25 37.097c.138.113.238.238.268.42.034.383-.013.773-.254 1.085a1.14 1.14 0 0 1-.65.399c-.073.005-.146.004-.22.005h-.06a.78.78 0 0 1-.583-.223c-.177-.19-.185-.433-.18-.682a1.26 1.26 0 0 1 .383-.854c.33-.308.91-.418 1.296-.15m-.957.477a1.05 1.05 0 0 0-.207.694c.022.097.06.182.132.25.106.06.209.078.327.047.182-.064.282-.18.368-.353.09-.195.141-.415.075-.627a.37.37 0 0 0-.148-.165.51.51 0 0 0-.547.154M24.138 36.996h1.527c-.019.174-.019.174-.094.463h-1.037l-.038.212-.019.077h.924c-.019.135-.019.135-.094.424l-.943.02-.094.327h1.037l-.113.443h-1.546c.021-.173.021-.173.038-.24l.012-.045.012-.049.013-.052.044-.17.03-.118.207-.808.03-.118.042-.163.012-.049c.029-.11.029-.11.05-.154M28.762 36.992h.33899999999999997l.27.001h.277l.541.002c-.02.17-.02.17-.036.231l-.01.038-.01.038-.01.039c-.025.094-.025.094-.047.116l-.095.002h-.562l-.36-.002-.057.27.924.02c-.038.211-.038.211-.095.423h-.961l-.019.154-.057.193h1.018c-.018.154-.018.154-.094.444h-1.565c.261-1.05.261-1.05.378-1.51l.07-.279.013-.048c.034-.132.034-.132.148-.132"/><path fill="#D52229" d="M42.801 34.645h.698v1.985H41.33l.113-.232.049-.122c.131-.306.131-.306.274-.364.168-.034.334-.018.504-.005l.53.029z"/><path fill="#B9BABB" d="M16.915 36.992h.32699999999999996l.211-.001h.198c.22 0 .383.033.545.19.107.166.12.351.09.544a.75.75 0 0 1-.335.492c-.218.123-.457.136-.701.13h-.075l-.182-.003-.014.062q-.063.278-.137.555h-.527q.08-.358.172-.713l.028-.107.057-.223.073-.286.056-.22q.014-.052.027-.106l.038-.146.01-.044c.033-.123.033-.123.139-.124m.304.446-.056.21-.017.06-.015.058-.014.053c-.012.042-.012.042-.01.082l.267.005c.146.002.24-.011.353-.112.05-.067.052-.133.048-.215-.006-.05-.006-.05-.053-.094a.36.36 0 0 0-.199-.048h-.109zM36.052 36.995h.528l.037.16.059.257.035.152.01.048c.018.08.018.08.048.154l.04-.06q.157-.228.318-.455l.03-.044.03-.041.025-.037.028-.037.032-.053c.043-.044.043-.044.107-.055l.076.002h.04l.127.003.086.002q.105 0 .21.004a.46.46 0 0 1-.119.197l-.032.037-.068.078-.033.038q-.06.07-.116.143-.096.12-.195.237l-.028.035-.058.068-.141.168-.049.059-.047.058-.023.03a.7.7 0 0 0-.121.274l-.012.048-.038.148-.026.101-.062.247h-.528l.038-.141.096-.369.012-.042c.048-.191-.009-.355-.067-.538l-.022-.068-.068-.216-.068-.217-.042-.135-.02-.061-.017-.054c-.012-.048-.012-.048-.012-.125"/><path fill="#D52229" d="M52.51 33.487c.243.199.437.45.49.771.02.241.025.49-.075.713l-.025.056a1.3 1.3 0 0 1-.258.35l-.035.036a.9.9 0 0 1-.256.172l-.035.017c-.27.124-.614.128-.893.03a1.22 1.22 0 0 1-.662-.63 1.32 1.32 0 0 1-.023-.975c.128-.3.348-.53.645-.656.37-.136.797-.12 1.127.116m-1.433.405a1.06 1.06 0 0 0-.188.752c.046.25.178.48.377.636.245.158.482.223.773.173a1 1 0 0 0 .617-.463c.12-.238.172-.466.106-.73l-.01-.04a.9.9 0 0 0-.148-.309l-.03-.04a.91.91 0 0 0-.597-.35c-.356-.027-.668.084-.9.371"/><path fill="#D52229" d="M51.36 33.758c.726 0 .726 0 .886.115.09.117.107.221.094.367a.39.39 0 0 1-.17.231l-.037.02.053.026c.096.066.105.19.128.298l.03.17.01.058.024.141h-.302l-.026-.142-.015-.085-.025-.142-.008-.05-.006-.043a.2.2 0 0 0-.09-.116 1 1 0 0 0-.155-.015l-.146-.004v.597h-.245zm.245.25v.328l.144.004.044.001a.37.37 0 0 0 .227-.063c.04-.051.037-.078.035-.145-.011-.065-.011-.065-.044-.1-.075-.039-.149-.03-.232-.028h-.05z"/></g><defs><clipPath id="a"><path fill="#fff" d="M9 22h44v17H9z"/></clipPath></defs></svg>