<svg width="62" height="62" viewBox="0 0 62 62" fill="none" xmlns="http://www.w3.org/2000/svg"><path d="M45.3831 21.0192H38.2229L38.2332 24.3062C35.2036 20.7941 31.1649 21.0023 31.1649 21.0023H20.6995L9 41.0237H16.8717L19.2895 36.7923L23.8844 36.7871V41.0444L31.0071 41.0561C31.0071 41.0561 35.1221 41.1363 38.2074 37.7211L38.2022 41.025H44.9148L44.92 36.8104H45.6146C48.3364 37.0187 53.0206 34.2037 52.9999 28.7511C52.9857 24.2299 49.5291 21.0192 45.3831 21.0192ZM44.9303 34.3926L42.3107 34.3991L42.3056 38.6215L40.6484 38.6253V34.3887H37.7171C37.7171 34.3887 36.1298 38.4611 30.8169 38.6046L26.5001 38.6266V34.3706L17.8587 34.3693L15.331 38.6189H13.353L22.0876 23.6103H30.7807C36.2566 23.6413 38.0935 28.2608 38.3406 29.9827H40.6497L40.6523 23.5663L45.1088 23.5676C48.4891 23.7319 50.4606 26.5623 50.5188 28.4756C50.6132 31.4923 48.4981 34.2529 44.9303 34.3926Z" fill="#CF4037"/><path d="M28.2064 25.322L28.209 27.8044H30.4405C34.8362 27.7928 34.8388 34.3605 30.3228 34.3476H28.2077V36.8339H30.3383C33.7561 36.852 36.4287 34.5183 36.4235 30.8716C36.4209 28.6039 34.4883 25.3207 30.7355 25.3207L28.2064 25.322ZM42.4039 25.3401V27.829H44.8165C46.3728 27.9053 46.4038 30.1562 44.8321 30.1472H42.4169V32.6594C42.4169 32.6594 44.5087 32.6723 44.7014 32.6594C46.735 32.6529 48.559 31.2455 48.559 28.8562C48.559 26.4901 46.6871 25.3414 44.7014 25.3414C45.0468 25.3401 42.4039 25.3401 42.4039 25.3401ZM23.9957 25.2909L26.4976 25.2858V32.671H18.9351L20.3878 30.1381L23.9892 30.1524L23.9957 25.2909Z" fill="#CF4037"/></svg>