<svg width="62" height="62" viewBox="0 0 62 62" fill="none" xmlns="http://www.w3.org/2000/svg"><path d="M22.2 53C14.9096 53 9 47.0904 9 39.8V22.2C9 14.9096 14.9096 9 22.2 9H39.8C47.0904 9 53 14.9096 53 22.2V39.8C53 47.0904 47.0904 53 39.8 53H22.2Z" fill="#B2FF49"/><path d="M42.0385 28.8452L40.835 24.3488C40.4357 22.8641 39.5582 21.5522 38.3385 20.6161C37.1188 19.68 35.6247 19.1716 34.0872 19.1699H27.9222C26.3847 19.1718 24.8904 19.68 23.6707 20.6161C22.451 21.5524 21.5737 22.8642 21.1744 24.349L19.9705 28.845H17.8047V31.3205H44.2047V28.8452H42.0385ZM23.5652 24.9893C23.8229 24.0305 24.3894 23.1834 25.177 22.5788C25.9647 21.9744 26.9293 21.6462 27.9222 21.6452H34.0872C35.0799 21.6462 36.0447 21.9742 36.8324 22.5787C37.62 23.1829 38.1865 24.03 38.4444 24.9887L39.477 28.8455H22.5324L23.5652 24.9893Z" fill="#222222"/><path d="M18.8516 36.5091H20.283C20.1618 36.9429 20.1009 37.3911 20.1019 37.8416C20.1155 39.17 20.6527 40.4395 21.597 41.3741C22.5411 42.3087 23.8159 42.8329 25.1445 42.8329C26.4731 42.8329 27.7479 42.3087 28.6921 41.3741C29.6363 40.4395 30.1736 39.17 30.1872 37.8416C30.188 37.3911 30.1269 36.9429 30.0056 36.5091H31.9941C31.8727 36.9429 31.8115 37.3911 31.8124 37.8416C31.8259 39.17 32.3632 40.4395 33.3075 41.3741C34.2516 42.3087 35.5266 42.8329 36.855 42.8329C38.1836 42.8329 39.4584 42.3087 40.4027 41.3741C41.3468 40.4395 41.8841 39.17 41.8976 37.8416C41.8988 37.3911 41.8378 36.9429 41.7166 36.5091H43.148V34.0342H18.8516V36.5091ZM39.0475 36.5091C39.2939 36.9098 39.4238 37.3711 39.423 37.8416C39.4161 38.518 39.1426 39.1645 38.6617 39.6405C38.1809 40.1165 37.5317 40.3834 36.8551 40.3834C36.1786 40.3834 35.5294 40.1165 35.0486 39.6405C34.5677 39.1645 34.2942 38.518 34.2873 37.8416C34.2865 37.3711 34.4164 36.9098 34.6628 36.5091H39.0475ZM27.3367 36.5091C27.5831 36.9098 27.7132 37.3711 27.7122 37.8416C27.7053 38.518 27.4318 39.1645 26.9509 39.6405C26.4701 40.1165 25.8209 40.3834 25.1444 40.3834C24.4678 40.3834 23.8186 40.1165 23.3378 39.6405C22.857 39.1645 22.5834 38.518 22.5765 37.8416C22.5757 37.3711 22.7056 36.9098 22.952 36.5091H27.3367Z" fill="#222222"/></svg>