<svg xmlns="http://www.w3.org/2000/svg" width="62" height="62" fill="none"><g clip-path="url(#A)"><path fill-rule="evenodd" d="M46.968 30.758a4.21 4.21 0 0 1-.13 1.031l2.147 2.161c4.142 4.211 4.113 10.972-.066 15.147s-10.945 4.205-15.16.066l-2.129-2.128c-.699.185-1.435.185-2.134 0l-2.116 2.116c-4.204 4.201-11.021 4.202-15.227.001s-4.206-11.012-.001-15.213l2.379-2.379a4.14 4.14 0 0 1 0-1.618l-2.377-2.377a10.75 10.75 0 0 1-2.786-10.391c.996-3.712 3.898-6.612 7.614-7.606s7.68.067 10.4 2.785l1.864 1.863c.856-.279 1.78-.274 2.633.016l1.882-1.881c4.215-4.139 10.981-4.11 15.16.066s4.208 10.936.066 15.147l-2.154 2.152c.09.34.135.691.135 1.043zM36.671 15.274l-2.024 2.022a4.2 4.2 0 0 1 .103.917c0 .44-.07.876-.207 1.294l7.191 7.178c.336-.087.683-.131 1.03-.13.414-.001.827.06 1.223.18l2.075-2.076c2.52-2.604 2.485-6.745-.078-9.306a6.65 6.65 0 0 0-9.314-.078zm-2.055 26.65l7.099-7.095a4.15 4.15 0 0 0 2.278-.052l2.078 2.076c2.52 2.604 2.485 6.745-.078 9.307a6.65 6.65 0 0 1-9.314.078l-2.096-2.096c.111-.383.168-.779.169-1.177 0-.351-.045-.701-.135-1.04zm-2.854-2.979l6.971-6.965.002.005a4.2 4.2 0 0 1 0-2.453l-7.229-7.223c-.618.149-1.262.152-1.882.011l-7.009 6.999a4.19 4.19 0 0 1 0 2.874l6.746 6.74c.785-.229 1.619-.224 2.401.013zm-5.206-19.393l-.003.003c-.251-.741-.287-1.538-.105-2.299l-1.985-1.984a6.65 6.65 0 0 0-9.314.078c-2.563 2.561-2.598 6.703-.078 9.307l2.161 2.157a4.17 4.17 0 0 1 2.249-.18l7.073-7.078.001.003.002-.007zM19.48 34.883a4.2 4.2 0 0 1-2.249-.175l-2.161 2.146c-2.52 2.604-2.485 6.745.078 9.306a6.65 6.65 0 0 0 9.315.078l2.051-2.051a4.2 4.2 0 0 1-.18-1.222c0-.367.048-.733.144-1.087l-6.998-6.994z" fill="#2665f1"/></g><defs><clipPath id="A"><path fill="#fff" transform="translate(9 9)" d="M0 0h44v44H0z"/></clipPath></defs></svg>