<svg width="62" height="62" viewBox="0 0 62 62" fill="none" xmlns="http://www.w3.org/2000/svg"><path d="M38.4869 39.0976L43.9985 49.4482C44.1302 49.6955 43.9515 50 43.6712 50H20.0783C20.014 50.0006 19.9506 49.9843 19.8945 49.9525C19.8384 49.9208 19.7915 49.8747 19.7584 49.8189C19.7253 49.7632 19.7072 49.6996 19.7059 49.6346C19.7046 49.5695 19.7202 49.5053 19.751 49.4482L25.067 39.4667C25.0978 39.4098 25.1133 39.3457 25.1121 39.2809C25.1109 39.216 25.093 39.1525 25.0601 39.0968C25.0273 39.0411 24.9806 38.995 24.9247 38.9631C24.8689 38.9312 24.8057 38.9146 24.7416 38.915H9.36726C9.29273 38.9147 9.22004 38.8915 9.15878 38.8486C9.09751 38.8057 9.05054 38.745 9.02406 38.6745C8.99758 38.6041 8.99283 38.5272 9.01044 38.4539C9.02805 38.3807 9.0672 38.3145 9.12271 38.2642L39.3597 11.0978C39.6701 10.82 40.131 11.1853 39.9297 11.5544L29.9598 30.2768C29.766 30.6459 30.2269 31.0112 30.5317 30.7334L52.3808 11.1054C52.6912 10.8276 53.152 11.1929 52.9508 11.562L38.4756 38.7494C38.4456 38.8035 38.4299 38.8644 38.4299 38.9264C38.4299 38.9884 38.4456 39.0493 38.4756 39.1033L38.4869 39.0976Z" fill="#FF4D00"/></svg>
