<svg xmlns="http://www.w3.org/2000/svg" width="62" height="62" fill="none"><path fill-rule="evenodd" d="M42.172 9.946C39.69 9.374 35.611 9 31 9s-8.69.374-11.172.946c-4.948 1.038-8.844 4.934-9.882 9.882C9.374 22.31 9 26.389 9 31s.374 8.69.946 11.172c1.038 4.948 4.934 8.844 9.882 9.882C22.31 52.626 26.389 53 31 53s8.69-.374 11.172-.946c4.948-1.038 8.844-4.934 9.882-9.882C52.626 39.69 53 35.611 53 31s-.374-8.69-.946-11.172c-1.038-4.948-4.934-8.844-9.882-9.882z" fill="#00b388"/><mask id="A" maskUnits="userSpaceOnUse" x="9" y="9" width="44" height="44"><path d="M42.172 9.946C39.69 9.374 35.611 9 31 9s-8.69.374-11.172.946c-4.948 1.038-8.844 4.934-9.882 9.882C9.374 22.31 9 26.389 9 31s.374 8.69.946 11.172c1.038 4.948 4.934 8.844 9.882 9.882C22.31 52.626 26.389 53 31 53s8.69-.374 11.172-.946c4.948-1.038 8.844-4.934 9.882-9.882C52.626 39.69 53 35.611 53 31s-.374-8.69-.946-11.172c-1.038-4.948-4.934-8.844-9.882-9.882z" fill="#fff"/></mask><g mask="url(#A)"><path fill-rule="evenodd" d="M36.287 42.775c-.418-.994-1.304-1.742-2.382-1.968-.645-.149-1.706-.246-2.905-.246s-2.259.097-2.905.246c-1.071.225-1.952.964-2.373 1.947-.146.341-.495.549-.865.515l-.239-.023c-1.725-.172-3.081-.411-3.869-.691a1.4 1.4 0 0 1-.91-1.309l.001-.044.004-.074.004-.062c.134-1.796 1.225-5.999 2.854-10.798 1.862-5.485 3.809-9.926 4.687-10.792a1.88 1.88 0 0 1 .481-.362c.07-.04.158-.078.263-.114.585-.198 1.648-.329 2.865-.329s2.282.131 2.858.325a1.59 1.59 0 0 1 .272.117c.179.094.34.216.479.361.879.868 2.827 5.309 4.689 10.794 1.629 4.798 2.719 9.002 2.854 10.798 0 .015.001.03.003.045l.006.09.001.044c0 .598-.376 1.108-.905 1.307-.792.281-2.146.521-3.869.693l-.273.026c-.354.032-.689-.169-.826-.497z" fill="#fff"/></g></svg>