<svg xmlns="http://www.w3.org/2000/svg" width="62" height="62" fill="none"><g clip-path="url(#A)"><path d="M28.401 13.459l-16.198 6.703a1.09 1.09 0 0 0 .015 2.012l16.266 6.45c1.429.567 3.021.567 4.45 0L49.2 22.173a1.09 1.09 0 0 0 .015-2.011l-16.198-6.703c-1.478-.611-3.138-.611-4.616 0" fill="#fcb400"/><path d="M32.152 32.146V48.26c0 .766.773 1.291 1.485 1.009l18.125-7.035c.202-.08.375-.219.498-.399s.188-.392.187-.61V25.111c0-.766-.773-1.291-1.485-1.009l-18.125 7.035c-.202.08-.375.219-.498.399s-.187.392-.187.609z" fill="#18bfff"/><path d="M27.919 32.977l-5.379 2.597-.546.264-11.355 5.441c-.72.347-1.639-.177-1.639-.977V25.178c0-.289.148-.539.347-.727.082-.081.174-.151.275-.206.271-.163.658-.206.987-.076l17.219 6.823c.875.347.944 1.573.09 1.986z" fill="#f82b60"/><path d="M27.919 32.977l-5.379 2.597L9.347 24.451c.082-.081.174-.151.275-.206.271-.163.658-.206.987-.076l17.219 6.823c.875.347.944 1.573.09 1.986z" fill="#000" fill-opacity=".25"/></g><defs><clipPath id="A"><path fill="#fff" transform="translate(9 13)" d="M0 0h44v36.838H0z"/></clipPath></defs></svg>