<svg xmlns="http://www.w3.org/2000/svg" width="62" height="62" fill="none"><rect width="62" height="62" rx="31" fill="#fff"/><path d="M30.968 9C18.955 9 9.163 18.695 9.002 30.644c-.161 12.175 9.695 22.224 21.838 22.321a21.8 21.8 0 0 0 10.597-2.641c.322-.161.354-.612.097-.837l-2.061-1.836a1.39 1.39 0 0 0-1.514-.258 17.6 17.6 0 0 1-7.183 1.417c-9.824-.129-17.779-8.31-17.618-18.134.161-9.695 8.084-17.554 17.844-17.554h17.844v31.694L38.731 35.83c-.322-.29-.837-.225-1.095.129-1.61 2.158-4.284 3.479-7.215 3.285-4.09-.29-7.376-3.575-7.698-7.634a8.3 8.3 0 0 1 8.278-8.922c4.316 0 7.891 3.317 8.278 7.569.032.387.193.741.483.966l2.641 2.351c.29.258.773.097.837-.29a12.8 12.8 0 0 0 .193-3.156 12.5 12.5 0 0 0-11.627-11.563c-7.086-.451-13.045 5.121-13.238 12.078-.193 6.796 5.379 12.626 12.175 12.787a12.33 12.33 0 0 0 7.569-2.383L51.55 52.772a.865.865 0 0 0 1.449-.644V9.837A.853.853 0 0 0 52.162 9z" fill="#003dff"/></svg>