<?xml version="1.0" encoding="UTF-8"?>
<svg xmlns="http://www.w3.org/2000/svg" xmlns:xlink="http://www.w3.org/1999/xlink" width="80px" height="70px" viewBox="0 0 80 70" version="1.1">
<g id="surface1">
<path style=" stroke:none;fill-rule:nonzero;fill:rgb(14.509804%,18.431373%,24.313725%);fill-opacity:1;" d="M 22.535156 25.421875 C 22.535156 26.863281 22.640625 28.03125 22.828125 28.886719 C 23.039062 29.746094 23.304688 30.679688 23.679688 31.691406 C 23.8125 32.003906 23.863281 32.3125 23.863281 32.585938 C 23.863281 32.976562 23.703125 33.363281 23.359375 33.753906 L 21.683594 35.390625 C 21.441406 35.621094 21.203125 35.738281 20.992188 35.738281 C 20.726562 35.738281 20.457031 35.546875 20.191406 35.195312 C 19.820312 34.609375 19.5 33.988281 19.234375 33.363281 C 18.96875 32.703125 18.703125 31.964844 18.410156 31.066406 C 16.335938 34.648438 13.726562 36.441406 10.589844 36.441406 C 8.355469 36.441406 6.570312 35.507812 5.269531 33.636719 C 3.964844 31.769531 3.300781 29.277344 3.300781 26.164062 C 3.300781 22.855469 4.097656 20.167969 5.71875 18.144531 C 7.34375 16.121094 9.496094 15.109375 12.238281 15.109375 C 13.144531 15.109375 14.074219 15.222656 15.058594 15.417969 C 16.042969 15.613281 17.054688 15.925781 18.117188 16.277344 L 18.117188 13.433594 C 18.117188 10.476562 17.691406 8.410156 16.867188 7.207031 C 16.015625 6 14.578125 5.414062 12.53125 5.414062 C 11.597656 5.414062 10.640625 5.570312 9.65625 5.921875 C 8.671875 6.269531 7.714844 6.699219 6.785156 7.246094 C 6.359375 7.515625 6.039062 7.671875 5.851562 7.75 C 5.667969 7.828125 5.535156 7.867188 5.425781 7.867188 C 5.054688 7.867188 4.867188 7.476562 4.867188 6.660156 L 4.867188 4.753906 C 4.867188 4.128906 4.921875 3.664062 5.054688 3.390625 C 5.1875 3.117188 5.425781 2.84375 5.800781 2.574219 C 6.730469 1.871094 7.847656 1.289062 9.152344 0.820312 C 10.457031 0.316406 11.839844 0.0820312 13.300781 0.0820312 C 16.46875 0.0820312 18.78125 1.132812 20.273438 3.234375 C 21.734375 5.335938 22.480469 8.527344 22.480469 12.8125 L 22.480469 25.421875 Z M 11.734375 31.339844 C 12.609375 31.339844 13.515625 31.105469 14.472656 30.640625 C 15.429688 30.171875 16.28125 29.316406 17 28.148438 C 17.425781 27.410156 17.746094 26.589844 17.90625 25.65625 C 18.066406 24.722656 18.171875 23.59375 18.171875 22.269531 L 18.171875 20.636719 C 17.398438 20.363281 16.574219 20.128906 15.722656 19.972656 C 14.871094 19.816406 14.046875 19.738281 13.222656 19.738281 C 11.441406 19.738281 10.136719 20.246094 9.257812 21.296875 C 8.378906 22.347656 7.953125 23.828125 7.953125 25.773438 C 7.953125 27.605469 8.273438 28.964844 8.9375 29.902344 C 9.578125 30.875 10.507812 31.339844 11.734375 31.339844 Z M 33.097656 35.546875 C 32.617188 35.546875 32.296875 35.429688 32.085938 35.15625 C 31.871094 34.921875 31.6875 34.378906 31.527344 33.636719 L 25.273438 3.546875 C 25.113281 2.765625 25.035156 2.261719 25.035156 1.988281 C 25.035156 1.367188 25.246094 1.015625 25.671875 1.015625 L 28.28125 1.015625 C 28.785156 1.015625 29.132812 1.132812 29.316406 1.40625 C 29.53125 1.636719 29.691406 2.183594 29.851562 2.921875 L 34.320312 28.695312 L 38.46875 2.921875 C 38.601562 2.144531 38.761719 1.636719 38.976562 1.40625 C 39.1875 1.171875 39.5625 1.015625 40.039062 1.015625 L 42.167969 1.015625 C 42.671875 1.015625 43.019531 1.132812 43.234375 1.40625 C 43.445312 1.636719 43.632812 2.183594 43.738281 2.921875 L 47.941406 29.003906 L 52.542969 2.921875 C 52.703125 2.144531 52.890625 1.636719 53.074219 1.40625 C 53.289062 1.171875 53.636719 1.015625 54.113281 1.015625 L 56.589844 1.015625 C 57.011719 1.015625 57.253906 1.328125 57.253906 1.988281 C 57.253906 2.183594 57.226562 2.378906 57.199219 2.613281 C 57.171875 2.84375 57.121094 3.15625 57.011719 3.585938 L 50.601562 33.675781 C 50.441406 34.453125 50.257812 34.960938 50.042969 35.195312 C 49.832031 35.429688 49.484375 35.582031 49.03125 35.582031 L 46.746094 35.582031 C 46.238281 35.582031 45.894531 35.46875 45.679688 35.195312 C 45.46875 34.921875 45.28125 34.417969 45.175781 33.636719 L 41.050781 8.527344 L 36.953125 33.597656 C 36.820312 34.378906 36.660156 34.882812 36.449219 35.15625 C 36.234375 35.429688 35.863281 35.546875 35.382812 35.546875 Z M 67.28125 36.597656 C 65.898438 36.597656 64.515625 36.363281 63.1875 35.894531 C 61.855469 35.429688 60.816406 34.921875 60.125 34.339844 C 59.699219 33.988281 59.40625 33.597656 59.300781 33.25 C 59.195312 32.898438 59.140625 32.507812 59.140625 32.160156 L 59.140625 30.171875 C 59.140625 29.355469 59.355469 28.964844 59.753906 28.964844 C 59.914062 28.964844 60.074219 29.003906 60.234375 29.082031 C 60.390625 29.160156 60.632812 29.316406 60.898438 29.472656 C 61.800781 30.054688 62.785156 30.523438 63.824219 30.835938 C 64.886719 31.144531 65.925781 31.300781 66.992188 31.300781 C 68.667969 31.300781 69.96875 30.875 70.875 30.015625 C 71.777344 29.160156 72.257812 27.914062 72.257812 26.320312 C 72.257812 25.230469 72.019531 24.332031 71.539062 23.59375 C 71.0625 22.855469 70.15625 22.191406 68.851562 21.570312 L 64.996094 19.816406 C 63.054688 18.921875 61.617188 17.597656 60.738281 15.847656 C 59.859375 14.132812 59.40625 12.226562 59.40625 10.203125 C 59.40625 8.566406 59.648438 7.128906 60.125 5.882812 C 60.605469 4.636719 61.242188 3.546875 62.042969 2.691406 C 62.839844 1.792969 63.746094 1.132812 64.808594 0.664062 C 65.871094 0.199219 66.992188 0.00390625 68.160156 0.00390625 C 68.746094 0.00390625 69.359375 0.0429688 69.945312 0.160156 C 70.554688 0.277344 71.113281 0.433594 71.671875 0.585938 C 72.203125 0.78125 72.710938 0.976562 73.1875 1.210938 C 73.667969 1.445312 74.039062 1.675781 74.304688 1.910156 C 74.679688 2.222656 74.945312 2.535156 75.105469 2.882812 C 75.265625 3.195312 75.34375 3.625 75.34375 4.167969 L 75.34375 6 C 75.34375 6.816406 75.132812 7.246094 74.730469 7.246094 C 74.519531 7.246094 74.171875 7.089844 73.722656 6.777344 C 72.203125 5.765625 70.503906 5.257812 68.613281 5.257812 C 67.097656 5.257812 65.898438 5.609375 65.074219 6.347656 C 64.25 7.089844 63.824219 8.21875 63.824219 9.8125 C 63.824219 10.902344 64.089844 11.835938 64.621094 12.578125 C 65.15625 13.316406 66.140625 14.058594 67.550781 14.71875 L 71.328125 16.46875 C 73.242188 17.367188 74.625 18.609375 75.449219 20.207031 C 76.273438 21.804688 76.675781 23.632812 76.675781 25.65625 C 76.675781 27.332031 76.433594 28.847656 75.984375 30.171875 C 75.503906 31.496094 74.867188 32.664062 74.039062 33.597656 C 73.214844 34.570312 72.230469 35.273438 71.085938 35.777344 C 69.890625 36.324219 68.640625 36.597656 67.28125 36.597656 Z M 67.28125 36.597656 "/>
<path style=" stroke:none;fill-rule:nonzero;fill:rgb(100%,60%,0%);fill-opacity:1;" d="M 72.3125 55.515625 C 63.558594 64.976562 50.839844 69.996094 39.90625 69.996094 C 24.582031 69.996094 10.773438 61.703125 0.347656 47.925781 C -0.480469 46.835938 0.265625 45.355469 1.25 46.210938 C 12.53125 55.789062 26.445312 61.589844 40.839844 61.589844 C 50.546875 61.589844 61.21875 58.628906 71.035156 52.554688 C 72.496094 51.582031 73.746094 53.957031 72.3125 55.515625 Z M 72.3125 55.515625 "/>
<path style=" stroke:none;fill-rule:nonzero;fill:rgb(100%,60%,0%);fill-opacity:1;" d="M 75.957031 49.441406 C 74.839844 47.339844 68.558594 48.429688 65.714844 48.9375 C 64.863281 49.09375 64.730469 48.003906 65.5 47.183594 C 70.503906 42.046875 78.722656 43.523438 79.679688 45.238281 C 80.636719 46.988281 79.414062 59.019531 74.730469 64.78125 C 74.015625 65.675781 73.320312 65.207031 73.640625 64.039062 C 74.707031 60.1875 77.074219 51.503906 75.957031 49.441406 Z M 75.957031 49.441406 "/>
</g>
</svg>
