<svg xmlns="http://www.w3.org/2000/svg" xmlns:xlink="http://www.w3.org/1999/xlink" width="62" height="62" fill="none"><rect width="62" height="62" rx="31" fill="#fff"/><use xlink:href="#B" fill="#f90"/><use xlink:href="#C" fill-rule="evenodd" fill="#000"/><use xlink:href="#B" fill="#f90"/><use xlink:href="#C" fill-rule="evenodd" fill="#000"/><defs ><path id="B" d="M47.451 45.221c-18.161 8.643-29.431 1.412-36.646-2.98-.447-.277-1.205.065-.547.821C12.661 45.975 20.538 53 30.82 53c10.289 0 16.41-5.614 17.176-6.593.761-.971.223-1.507-.545-1.186h0zm5.1-2.817c-.488-.635-2.965-.753-4.525-.562-1.562.186-3.906 1.14-3.702 1.714.105.215.318.118 1.391.022 1.076-.107 4.09-.488 4.718.333.631.827-.961 4.764-1.252 5.4-.281.635.107.799.635.376.52-.423 1.463-1.518 2.095-3.067.628-1.558 1.011-3.731.64-4.215z"/><path id="C" d="M35.24 27.585c0 2.268.057 4.159-1.089 6.173-.925 1.638-2.391 2.645-4.028 2.645-2.235 0-3.537-1.703-3.537-4.216 0-4.961 4.446-5.862 8.654-5.862v1.261zm5.87 14.188c-.385.344-.942.368-1.375.139-1.932-1.605-2.276-2.349-3.34-3.881-3.193 3.259-5.453 4.233-9.595 4.233-4.896 0-8.711-3.021-8.711-9.071 0-4.724 2.563-7.941 6.206-9.513 3.16-1.392 7.573-1.638 10.946-2.022v-.753c0-1.384.106-3.021-.704-4.216-.712-1.073-2.071-1.515-3.267-1.515-2.219 0-4.2 1.138-4.683 3.496-.098.524-.483 1.04-1.007 1.064l-5.649-.606c-.475-.107-.999-.491-.868-1.22C20.364 11.063 26.545 9 32.079 9c2.833 0 6.533.753 8.769 2.898 2.833 2.644 2.563 6.173 2.563 10.013v9.071c0 2.726 1.13 3.922 2.194 5.395.377.524.459 1.154-.016 1.547-1.187.991-3.299 2.833-4.462 3.864l-.016-.016"/></defs></svg>