<svg width="62" height="62" viewBox="0 0 62 62" fill="none" xmlns="http://www.w3.org/2000/svg"><rect width="62" height="62" rx="31" fill="white"/><mask id="mask0_2766_73" style="mask-type:luminance" maskUnits="userSpaceOnUse" x="9" y="14" width="44" height="34"><path d="M53 14H9V47.2118H53V14Z" fill="white"/></mask><g mask="url(#mask0_2766_73)"><path d="M9 14H23.1018V25.079H17.7579C15.436 25.079 13.2092 24.1569 11.5669 22.5156C9.92462 20.8743 9.00133 18.6479 9 16.3261V14Z" fill="#222222"/><path d="M52.9932 25.0792V14.0103H27.9777V25.0792H27.9928V36.148H14.3672V47.2121H25.4862H36.5502H47.5539V36.148H39.0567V25.0792H52.9932Z" fill="#222222"/><path d="M28.0505 30.6079C28.0512 31.3412 27.9069 32.0674 27.626 32.7447C27.3451 33.422 26.9331 34.0372 26.4137 34.5548C25.8942 35.0723 25.2776 35.4821 24.5993 35.7606C23.9209 36.039 23.1942 36.1808 22.4609 36.1775H44.689C43.2119 36.1775 41.7953 35.5906 40.7507 34.5462C39.7062 33.5017 39.1194 32.085 39.1194 30.6079C39.1153 29.145 39.6873 27.7393 40.7119 26.6951C41.7365 25.6508 43.131 25.052 44.5938 25.0283H27.9954" fill="#222222"/></g></svg>