<svg xmlns="http://www.w3.org/2000/svg" width="62" height="62"><rect width="62" height="62" rx="31" fill="#fff"/><path d="M26.448 29.228c.974 0 1.761.784 1.761 1.75s-.786 1.75-1.761 1.75-1.761-.784-1.761-1.75a1.75 1.75 0 0 1 1.761-1.75"/><path d="m27.687 32.205-1.246-1.234 1.246-1.234 1.246 1.234zm3.267-2.977a1.75 1.75 0 0 1 1.755 1.744 1.75 1.75 0 1 1-3.51 0 1.75 1.75 0 0 1 1.755-1.744"/><path d="m29.686 32.172-1.212-1.207 1.212-1.207 1.212 1.207z"/><path d="M29.071 30.742h-.742v-.368a.48.48 0 0 0 .371.148.53.53 0 0 0 .371-.148zm.006.822a.53.53 0 0 0-.371-.148.53.53 0 0 0-.371.148v-.367h.742z"/><path d="M29.077 31.112c0 .165-.111.258-.205.186q-.083-.066-.166-.066c-.083 0-.111.022-.166.066-.094.077-.205-.022-.205-.186v-.208c0-.115.061-.214.138-.214h.471c.078 0 .138.093.138.214v.208zm5.132-1.375 1.246 1.234-1.246 1.234-1.246-1.234z"/><path d="M30.948 32.717a1.75 1.75 0 0 1-1.755-1.744 1.755 1.755 0 1 1 3.51 0 1.75 1.75 0 0 1-1.755 1.744m4.506 0a1.75 1.75 0 0 1-1.755-1.744 1.755 1.755 0 0 1 3.51 0 1.745 1.745 0 0 1-1.755 1.744"/><path d="m32.216 29.769 1.212 1.207-1.212 1.207-1.212-1.207z"/><path d="M32.825 31.202h.742v.367a.48.48 0 0 0-.371-.148.53.53 0 0 0-.371.148zm0-.828a.53.53 0 0 0 .371.148.53.53 0 0 0 .371-.148v.368h-.742z"/><path d="M32.825 30.828c0-.165.111-.258.205-.186q.083.066.166.066c.083 0 .111-.022.166-.066.094-.077.205.022.205.186v.208c0 .115-.061.214-.138.214h-.471c-.078 0-.138-.093-.138-.214v-.208zm14.801 22.046a5.06 5.06 0 0 0 5.057-5.057 5.06 5.06 0 0 0-5.057-5.057 5.06 5.06 0 0 0-5.057 5.057 5.06 5.06 0 0 0 5.057 5.057M14.374 9a5.06 5.06 0 0 0-5.057 5.057 5.06 5.06 0 0 0 5.057 5.057 5.06 5.06 0 0 0 5.057-5.057A5.06 5.06 0 0 0 14.374 9"/><path d="M36.121 47.814a5.06 5.06 0 0 1-5.057 5.057 5.04 5.04 0 0 1-3.464-1.372l-.045.045-1.738-1.739v.032c-.892-.919-2.13-1.378-3.319-1.378a4.7 4.7 0 0 0-2.909 1.006l-2.079 2.079-.018-.018a5.04 5.04 0 0 1-3.435 1.345A5.06 5.06 0 0 1 9 47.814a5.06 5.06 0 0 1 5.057-5.057c1.573 0 2.979.718 3.906 1.845l1.624 1.624a4.7 4.7 0 0 0 2.909 1.007c1.189 0 2.427-.459 3.319-1.378v.032l1.738-1.739.013.013a5.04 5.04 0 0 1 3.496-1.404 5.06 5.06 0 0 1 5.057 5.057zM25.879 14.057A5.06 5.06 0 0 1 30.937 9a5.04 5.04 0 0 1 3.464 1.372l.045-.045 1.739 1.739v-.032c.892.919 2.13 1.378 3.319 1.378a4.7 4.7 0 0 0 2.907-1.004l2.081-2.081.018.018A5.04 5.04 0 0 1 47.943 9 5.06 5.06 0 0 1 53 14.057a5.06 5.06 0 0 1-5.057 5.057 5.05 5.05 0 0 1-3.907-1.846l-1.624-1.623a4.7 4.7 0 0 0-2.909-1.007c-1.189 0-2.427.459-3.319 1.378v-.033l-1.739 1.739-.012-.012a5.04 5.04 0 0 1-3.496 1.403 5.06 5.06 0 0 1-5.057-5.057zm5.12 11.821a5.04 5.04 0 0 0-3.434 1.345l-.017-.017-2.081 2.081a4.7 4.7 0 0 1-2.907 1.004c-1.189 0-2.427-.459-3.319-1.378v.032l-1.739-1.739-.014.014a5.04 5.04 0 0 0-3.431-1.342A5.06 5.06 0 0 0 9 30.935a5.06 5.06 0 0 0 5.057 5.057 5.05 5.05 0 0 0 3.933-1.878l1.25-1.25v.031c.892-.919 2.13-1.378 3.319-1.378 1.018 0 2.072.337 2.913 1.01l1.619 1.619a5.05 5.05 0 0 0 3.907 1.846 5.05 5.05 0 0 0 3.933-1.878l1.251-1.251v.032c.892-.919 2.13-1.378 3.319-1.378a4.7 4.7 0 0 1 2.914 1.01l1.622 1.622a5.04 5.04 0 0 0 3.905 1.843 5.06 5.06 0 0 0 5.057-5.057 5.06 5.06 0 0 0-5.057-5.057 5.04 5.04 0 0 0-3.435 1.345l-.017-.017-2.079 2.079a4.7 4.7 0 0 1-2.909 1.006c-1.189 0-2.427-.459-3.319-1.378v.032l-1.739-1.739-.014.014a5.04 5.04 0 0 0-3.431-1.342" fill-rule="evenodd"/></svg>