<svg xmlns="http://www.w3.org/2000/svg" width="62" height="62" fill="none" xmlns:v="https://vecta.io/nano"><path d="M34.233 9h18.1c.368 0 .667.298.667.667v27.662a.67.67 0 0 1-1.224.365l-18.1-27.662A.67.67 0 0 1 34.233 9z" fill="#246dff"/><path d="M27.767 9h-18.1C9.298 9 9 9.298 9 9.667v27.662a.67.67 0 0 0 1.225.365l18.1-27.662A.67.67 0 0 0 27.767 9z" fill="#20a34e"/><path d="M30.69 31.146L10.128 51.862a.67.67 0 0 0 .473 1.136h40.815a.67.67 0 0 0 .477-1.133L31.64 31.149c-.26-.266-.688-.268-.95-.004z" fill="#f86606"/></svg>