<svg xmlns="http://www.w3.org/2000/svg" width="62" height="62" fill="#f8ff2c" xmlns:v="https://vecta.io/nano"><path d="M33.158 25.114l-.007-16.009L31 9a22.03 22.03 0 0 0-5.119.6l4.881 15.371c.275.865-.777 1.534-1.444.917L16.732 14.255a22.11 22.11 0 0 0-4.547 5.338l16.048 8.488a3.36 3.36 0 0 0 4.925-2.968zm-4.371 11.848l.007 15.928L31 53a22.06 22.06 0 0 0 5.045-.582l-4.863-15.313c-.275-.865.777-1.534 1.444-.917l12.57 11.618a22.11 22.11 0 0 0 4.57-5.32l-16.054-8.491a3.36 3.36 0 0 0-4.925 2.968h0zm7.335-7.578l11.657-12.612c-1.521-1.791-3.322-3.337-5.338-4.566l-8.512 16.093a3.36 3.36 0 0 0 2.968 4.925l15.993-.007L53 31a22.06 22.06 0 0 0-.584-5.055l-15.377 4.883c-.865.275-1.534-.776-.917-1.443zm-11.074-.532l-15.944.007L9 30.999a22.05 22.05 0 0 0 .598 5.109l15.308-4.861c.865-.275 1.534.777.917 1.444L14.229 45.236c1.516 1.784 3.312 3.324 5.32 4.551l8.468-16.01a3.36 3.36 0 0 0-2.968-4.925h0z"/></svg>