<svg width="117" viewBox="0 0 117 30" fill="black" xmlns="http://www.w3.org/2000/svg">
    <path
        d="M36.9922 8.07396C34.5826 8.07396 32.9841 9.07813 32.1235 10.9534L32.0622 8.36334H28.3312V29.1152H32.4473V21.2989C33.3545 22.8211 34.8598 23.6603 36.9922 23.6603C41.0616 23.6603 43.6724 20.5668 43.6724 15.844C43.6724 11.153 41.0616 8.07396 36.9922 8.07396ZM36.0237 20.0488C33.795 20.0488 32.3073 18.3124 32.3073 15.844C32.3073 13.3755 33.7834 11.7318 36.0237 11.7318C38.2641 11.7318 39.5243 13.3147 39.5243 15.844C39.5243 18.3732 38.2495 20.0488 36.0237 20.0488Z"
        fill="black"></path>
    <path
        d="M52.7181 8.07396C47.8173 8.07396 44.9615 11.3035 44.9615 15.8584C44.9615 20.4134 47.8319 23.6603 52.7181 23.6603C57.6043 23.6603 60.4602 20.4163 60.4602 15.8584C60.4602 11.3006 57.6189 8.07396 52.7181 8.07396ZM52.7181 20.0343C50.4748 20.0343 49.0338 18.4195 49.0338 15.8584C49.0338 13.2974 50.4924 11.7144 52.7181 11.7144C54.9439 11.7144 56.3733 13.3003 56.3733 15.8584C56.3733 18.4166 54.9614 20.0343 52.7181 20.0343Z"
        fill="black"></path>
    <path d="M65.8572 2.39028H61.7411V23.6602H65.8572V2.39028Z" fill="black"></path>
    <path d="M71.3178 2.39028H67.2018V23.6602H71.3178V2.39028Z" fill="black"></path>
    <path
        d="M80.3785 8.07396C75.4777 8.07396 72.6219 11.3035 72.6219 15.8584C72.6219 20.4134 75.4923 23.6603 80.3785 23.6603C85.2647 23.6603 88.1177 20.4163 88.1177 15.8584C88.1177 11.3006 85.2764 8.07396 80.3785 8.07396ZM80.3785 20.0343C78.1353 20.0343 76.6913 18.4195 76.6913 15.8584C76.6913 13.2974 78.1498 11.7144 80.3785 11.7144C82.6072 11.7144 84.0337 13.3003 84.0337 15.8584C84.0337 18.4166 82.6218 20.0343 80.3785 20.0343Z"
        fill="black"></path>
    <path
        d="M91.5105 19.2122C90.3028 19.2122 89.2614 20.2048 89.2614 21.4289C89.2614 22.653 90.2999 23.6572 91.5105 23.6572C92.7211 23.6572 93.7596 22.653 93.7596 21.4289C93.7596 20.2048 92.7211 19.2122 91.5105 19.2122Z"
        fill="black"></path>
    <path
        d="M97.4213 2.25476C96.0707 2.25476 94.9009 3.33707 94.9009 4.67692C94.9009 6.01678 96.0357 7.11356 97.4213 7.11356C98.807 7.11356 99.9709 6.01678 99.9709 4.67692C99.9709 3.33707 98.7719 2.25476 97.4213 2.25476Z"
        fill="black"></path>
    <path d="M99.4951 8.65268H95.379V23.6602H99.4951V8.65268Z" fill="black"></path>
    <path
        d="M108.722 8.07396C103.821 8.07396 100.965 11.3035 100.965 15.8584C100.965 20.4134 103.835 23.6603 108.722 23.6603C113.608 23.6603 116.461 20.4163 116.461 15.8584C116.461 11.3006 113.619 8.07396 108.722 8.07396ZM108.722 20.0343C106.481 20.0343 105.034 18.4195 105.034 15.8584C105.034 13.2974 106.493 11.7144 108.722 11.7144C110.95 11.7144 112.377 13.3003 112.377 15.8584C112.377 18.4166 110.965 20.0343 108.722 20.0343Z"
        fill="black"></path>
    <path d="M23.051 3.568H19.0049L21.1053 7.13324L23.051 3.568Z" fill="black"></path>
    <path
        d="M14.3144 0L0 23.6515H7.66622C8.69013 23.6515 9.69654 23.394 10.5834 22.9107C11.5431 22.3869 12.2695 21.6258 12.8354 20.7027C13.4976 19.6233 14.1423 18.5323 14.7928 17.4471L16.4614 14.669L14.3085 11.0922L13.3546 12.6143C12.2665 14.4172 11.2368 16.2635 10.1108 18.0432C9.54485 18.9345 8.8039 19.7796 7.71289 19.9966C7.54953 20.0284 7.38034 20.0458 7.21115 20.0516C6.98653 20.0603 6.76191 20.0545 6.53729 20.0545L14.3144 6.92791L24.2939 23.7036H27.1818V21.2381L27.1147 21.1281L14.3144 0Z"
        fill="black"></path>
</svg>