<svg xmlns="http://www.w3.org/2000/svg" width="62" height="62" fill="none"><path d="M44.108 9H17.887C12.976 9 9 12.976 9 17.887v26.226c0 4.905 3.976 8.881 8.887 8.881h26.226A8.89 8.89 0 0 0 53 44.108V17.887C52.995 12.976 49.019 9 44.108 9z" fill="url(#A)"/><path d="M30.81 19.108l.891-1.54c.55-.962 1.776-1.287 2.739-.737s1.287 1.776.737 2.739l-8.584 14.859h6.209c2.013 0 3.14 2.365 2.266 4.003H16.864c-1.111 0-2.002-.891-2.002-2.002s.891-2.002 2.002-2.002h5.103l6.533-11.323-2.04-3.541c-.55-.962-.226-2.178.737-2.739.962-.55 2.178-.226 2.739.737l.874 1.545zm-7.721 21.387l-1.925 3.338c-.55.962-1.776 1.287-2.739.737s-1.287-1.776-.737-2.739l1.43-2.475c1.617-.501 2.931-.116 3.971 1.138zm16.575-6.055h5.208c1.111 0 2.002.891 2.002 2.002s-.891 2.002-2.002 2.002h-2.893l1.952 3.388c.55.962.225 2.178-.737 2.739-.962.55-2.178.226-2.739-.737L33.06 31.019c-1.677-2.893-.478-5.796.704-6.781l5.901 10.201z" fill="#fff"/><defs><linearGradient id="A" x1="30.997" y1="9" x2="30.997" y2="52.995" gradientUnits="userSpaceOnUse"><stop stop-color="#0ed4fc"/><stop offset="1" stop-color="#0c57ef"/></linearGradient></defs></svg>