<svg xmlns="http://www.w3.org/2000/svg" width="62" height="62" fill="none"><g clip-path="url(#A)"><path fill-rule="evenodd" d="M43.377 32.497c-5.277 0-9.554 4.278-9.554 9.555s4.277 9.554 9.554 9.554 9.554-4.278 9.554-9.554-4.277-9.555-9.554-9.555zm-24.823.001C13.278 32.498 9 36.775 9 42.052s4.278 9.554 9.554 9.554 9.555-4.278 9.555-9.554-4.278-9.554-9.555-9.554zM40.52 20.554c0 5.277-4.277 9.555-9.554 9.555s-9.554-4.278-9.554-9.555S25.689 11 30.966 11s9.554 4.278 9.554 9.554z" fill="#f06a6a"/></g><defs><clipPath id="A"><path fill="#fff" transform="translate(9 11)" d="M0 0h44v40.71H0z"/></clipPath></defs></svg>