<svg xmlns="http://www.w3.org/2000/svg" width="62" height="62" fill="none"><mask id="A" maskUnits="userSpaceOnUse" x="9" y="9" width="44" height="44"><path d="M53 9H9v43.777h44V9z" fill="#fff"/></mask><g mask="url(#A)"><path d="M49.352 47.519c.531 1.313 1.099 2.3 1.712 2.958.651.616 1.281.943 1.891.987v1.233c-3.702-.136-7.407-.198-11.111-.184-4.638 0-8.057.06-10.255.184v-1.233c1.548-.083 2.645-.267 3.296-.557.651-.327.979-.883.979-1.663 0-.741-.246-1.725-.735-2.96l-3.601-10.11H19.196l-1.038 2.776c-1.343 3.491-2.017 6.164-2.017 8.013 0 1.686.469 2.836 1.404 3.452s2.321.966 4.151 1.049v1.233c-2.664-.114-5.331-.175-7.997-.184-1.912 0-3.48.06-4.7.184v-1.233c1.017-.166 1.973-.803 2.868-1.911s1.812-2.877 2.749-5.301L28.17 9.05a54.37 54.37 0 0 0 3.234.122c.815 0 1.873-.041 3.175-.122l14.773 38.466v.002zM31.099 34.938l-5.553-15.409-5.863 15.409h11.416z" fill="#504ad0"/></g></svg>