<svg width="62" height="62" viewBox="0 0 62 62" fill="none" xmlns="http://www.w3.org/2000/svg"><path d="M31.1007 9C27.9933 9 24.9789 9.63532 22.1426 10.8905C14.161 14.439 9 22.3728 9 31.0968V51.2722C9 52.2252 9.77491 53 10.7281 53H30.8992C39.6249 53 47.56 47.8399 51.1014 39.8519C52.3568 37.0162 53 34.0023 53 30.5235V10.7278C53 9.77478 52.2251 9 51.2719 9H31.1007Z" fill="white"/><path d="M51.2704 30.5397V10.7285H31.0992C28.1623 10.7285 25.3648 11.3561 22.8463 12.4795C15.7093 15.6484 10.7266 22.7919 10.7266 31.1053V51.2807H30.8977C39.2126 51.2807 46.3497 46.2989 49.5191 39.1631C50.6427 36.6373 51.2704 33.8481 51.2704 30.9039V30.5397Z" fill="#00953B"/><path d="M10.7266 51.2807V31.1053C10.7266 22.7919 15.7093 15.6484 22.8463 12.4795C25.3726 11.3561 28.1623 10.7285 31.0992 10.7285H31.4634V30.5397L10.7266 51.2807Z" fill="#3DAE2B"/><path d="M51.2602 10.7285H31.4609V30.5397H51.2602V10.7285Z" fill="#007934"/><path d="M10.7266 51.28H30.8977C39.2126 51.28 46.3497 46.2982 49.5191 39.1624C50.6427 36.6366 51.2704 33.8474 51.2704 30.9032V30.5391H31.4712L10.7343 51.28H10.7266Z" fill="#00953B"/></svg>