<svg xmlns="http://www.w3.org/2000/svg" width="62" height="62" fill="none"><path d="M22.059 29.296a1.25 1.25 0 0 0-1.13-.484 1.25 1.25 0 0 0-.998.717L9.137 51.116a1.29 1.29 0 0 0 .055 1.255 1.29 1.29 0 0 0 1.096.614h15.03c.243.005.483-.062.688-.192s.369-.318.469-.539c3.239-6.65 1.277-16.872-4.416-22.957z" fill="url(#A)"/><path d="M29.979 9.691a28.47 28.47 0 0 0-1.663 28.111l7.282 14.451a1.29 1.29 0 0 0 1.151.718h15.03a1.33 1.33 0 0 0 1.032-.643 1.33 1.33 0 0 0 .079-1.213L32.174 9.691c-.099-.207-.255-.381-.449-.504S31.306 9 31.077 9s-.454.065-.648.187-.35.297-.449.504z" fill="#2684ff"/><defs><linearGradient id="A" x1="27.978" y1="32.628" x2="16.585" y2="52.366" gradientUnits="userSpaceOnUse"><stop stop-color="#0052cc"/><stop offset=".92" stop-color="#2684ff"/></linearGradient></defs></svg>