<?xml version="1.0" encoding="UTF-8"?>
<svg version="1.1" xmlns="http://www.w3.org/2000/svg" width="415" height="415">
<path d="M0 0 C2.35163268 1.03065302 3.70891463 2.21215142 5.52311188 4.02986455 C6.20685482 4.70763434 6.89059775 5.38540413 7.59506017 6.0837124 C8.33825277 6.83564353 9.08144538 7.58757465 9.84715897 8.36229157 C10.64278583 9.15535516 11.43841268 9.94841874 12.25814945 10.76551455 C14.93390425 13.4363109 17.59876583 16.11772079 20.26384598 18.79916596 C22.17426415 20.71209862 24.08694191 22.62276614 25.99953324 24.53352571 C30.12196959 28.654388 34.2388718 32.78071328 38.35207993 36.91078591 C44.29911168 42.88218512 50.25439718 48.84529613 56.21173826 54.80640822 C65.87658611 64.4778241 75.53471367 74.15592234 85.18865067 83.83822846 C94.56729932 93.2444086 103.94908955 102.64743687 113.33513504 112.04623628 C113.91356129 112.6254507 114.49198754 113.20466511 115.08794186 113.80143148 C117.98971752 116.70712223 120.8915552 119.61275103 123.79342371 122.51834905 C147.87228817 146.62832035 171.94026042 170.74913794 196.00115067 194.87704682 C189.70902836 202.28911634 189.70902836 202.28911634 186.76105362 205.27104402 C186.1939064 205.8467917 185.62675919 206.42253938 185.04242569 207.01573396 C184.44236206 207.62005754 183.84229843 208.22438111 183.22405106 208.84701753 C182.57427292 209.50497315 181.92449478 210.16292878 181.2550264 210.84082246 C179.12263781 212.99783785 176.98629582 215.15086721 174.84880692 217.30282807 C173.74327375 218.41634676 173.74327375 218.41634676 172.61540657 219.55236077 C168.71100696 223.48339745 164.8029976 227.41080899 160.89250809 231.33578706 C157.68229187 234.55931021 154.47948615 237.78992431 151.28313309 241.02719331 C147.39713754 244.96290635 143.49863716 248.8858263 139.59123665 252.80028558 C138.11722648 254.28094315 136.6474189 255.76579854 135.18222862 257.25518441 C114.68305806 278.07333731 89.43429494 293.60146821 59.33846146 294.01748872 C57.07321372 294.02947774 54.80793299 294.03600363 52.54265457 294.03817964 C50.6801355 294.04562699 50.6801355 294.04562699 48.77998978 294.0532248 C45.38679335 294.06529064 41.99365823 294.07278133 38.60044771 294.07723546 C36.47206384 294.08017964 34.34368518 294.08428708 32.21530396 294.08873963 C25.5320165 294.10240188 18.84874118 294.11207253 12.16544074 294.11594152 C4.49649433 294.12040742 -3.17227253 294.13789199 -10.84116441 294.16694212 C-16.7973642 294.18870657 -22.75351405 294.19865374 -28.7097531 294.19998264 C-32.25321432 294.20102098 -35.79650652 294.20671658 -39.33992523 294.22480226 C-63.69833895 294.34210715 -85.50204019 292.52061634 -107.24884933 280.68954682 C-107.83738693 280.3761435 -108.42592453 280.06274018 -109.0322966 279.73983979 C-122.38617118 272.07012704 -133.36581483 259.84743124 -144.17853683 249.06845307 C-145.68686327 247.56911411 -147.19525684 246.06984269 -148.70371383 244.57063508 C-151.83521683 241.45547893 -154.96242989 238.33608564 -158.08722824 235.21420503 C-162.09826754 231.20860658 -166.12532799 227.21951957 -170.15624183 223.23393559 C-173.26317428 220.15663702 -176.35889999 217.06825348 -179.4515509 213.97660851 C-180.93310015 212.49927076 -182.41877926 211.02606279 -183.90860504 209.55707192 C-185.97650585 207.51586383 -188.02819869 205.45963765 -190.07648605 203.39877534 C-190.69550796 202.79458772 -191.31452987 202.19040009 -191.95231003 201.56790376 C-193.62503952 199.86558747 -193.62503952 199.86558747 -195.99884933 196.87704682 C-195.72660898 193.44928482 -194.24466158 191.7461331 -191.87282223 189.36790967 C-191.20100263 188.68703343 -190.52918303 188.00615719 -189.83700526 187.30464834 C-189.09169356 186.56466456 -188.34638186 185.82468079 -187.57848495 185.06227326 C-186.79232719 184.27002439 -186.00616942 183.47777552 -185.19618869 182.66151911 C-182.54860177 179.99722549 -179.89034853 177.34383589 -177.23200363 174.69027925 C-175.33627863 172.78721852 -173.4411405 170.88358904 -171.54667038 168.97928071 C-166.92716041 164.33869934 -162.29940731 159.70642369 -157.66846015 155.07725837 C-153.90619511 151.31629978 -150.14649156 147.55279926 -146.38859886 143.78747201 C-145.30709394 142.70386797 -144.22558826 141.62026469 -143.14408183 140.53666216 C-142.60583594 139.99737274 -142.06759004 139.45808332 -141.51303367 138.90245179 C-131.32979202 128.70030182 -121.13658503 118.50815317 -110.94047699 108.31886444 C-101.60440048 98.98836726 -92.28160462 89.64472653 -82.96488126 80.29490825 C-73.40534606 70.70167865 -63.83660478 61.11772089 -54.25789332 51.54363734 C-48.87746963 46.1654622 -43.50088547 40.78357434 -38.13401741 35.39186883 C-33.56636643 30.80325987 -28.99018555 26.22337719 -24.40257194 21.65472295 C-22.06053924 19.3218812 -19.72416279 16.98382808 -17.39566749 14.63746285 C-14.8751586 12.09894267 -12.3399221 9.57614207 -9.80016464 7.05690217 C-9.0615451 6.30576479 -8.32292557 5.5546274 -7.56192362 4.78072828 C-6.88228078 4.11289078 -6.20263794 3.44505328 -5.50239986 2.75697827 C-4.91817263 2.17247865 -4.33394539 1.58797903 -3.7320143 0.9857673 C-1.99884933 -0.12295318 -1.99884933 -0.12295318 0 0 Z M-63.12384933 129.06454682 C-78.67101971 146.75952096 -85.37727259 168.40706624 -84.16291183 191.70761323 C-82.61488184 212.17754557 -73.49853025 230.50545496 -58.99884933 244.87704682 C-56.52384933 246.85704682 -56.52384933 246.85704682 -53.99884933 248.87704682 C-36.50884933 231.38704682 -19.01884933 213.89704682 -0.99884933 195.87704682 C3.23575882 199.50671095 7.20585381 202.95764347 11.11028153 206.87265229 C11.56972153 207.33194627 12.02916153 207.79124024 12.50252396 208.26445222 C13.99273565 209.75535032 15.47939195 211.24973817 16.96599442 212.74423432 C18.00952145 213.78963008 19.05327219 214.83480257 20.09723526 215.87976289 C22.82345811 218.60977522 25.54666248 221.34277875 28.26921707 224.07644868 C31.05627526 226.87379836 33.84622213 229.66826384 36.63591629 232.46298432 C42.09380148 237.93154377 47.54849625 243.40327127 53.00115067 248.87704682 C69.69157439 238.08368631 78.35115684 218.89277732 82.64568192 200.04892182 C85.45103267 175.01656129 80.68053546 152.58818625 65.18865067 132.46689057 C58.06954716 124.03838053 50.65852251 117.24851934 41.00115067 111.87704682 C39.7849202 111.18675385 39.7849202 111.18675385 38.54411942 110.48251557 C4.07694765 92.05176621 -36.87983744 101.45616734 -63.12384933 129.06454682 Z " fill="#5863F5" transform="translate(207.9988493323326,60.12295317649841)"/>
<path d="M0 0 C4.80228755 3.99473059 9.29709084 8.17959006 13.6628418 12.64453125 C14.95789373 13.95923567 16.25295328 15.2739326 17.54801941 16.58862305 C18.56189759 17.62084488 18.56189759 17.62084488 19.59625816 18.67391968 C23.21809216 22.35709994 26.85565725 26.0247146 30.49023438 29.6953125 C35.09545105 34.34834787 39.69603784 39.00571368 44.28100586 43.67871094 C48.00413036 47.47249154 51.74208569 51.25109941 55.49003029 55.02035522 C56.9063123 56.45013333 58.31719624 57.8852815 59.72226524 59.32608032 C70.93990991 70.82107576 81.64446381 79.83381392 98.5 80.25 C106.23223685 80.07959258 112.21312305 78.11095153 119.1171875 74.70703125 C119.73851562 74.47371094 120.35984375 74.24039063 121 74 C121.66 74.33 122.32 74.66 123 75 C102.28661167 91.01922901 79.78795745 99.13592074 53.54150391 99.16113281 C52.29982452 99.16609772 51.05814514 99.17106262 49.77883911 99.17617798 C46.38564269 99.18824382 42.99250756 99.19573451 39.59929705 99.20018864 C37.47091317 99.20313281 35.34253451 99.20724025 33.21415329 99.21169281 C26.53086583 99.22535506 19.84759052 99.2350257 13.16429007 99.2388947 C5.49534366 99.2433606 -2.17342319 99.26084517 -9.84231508 99.2898953 C-15.79851486 99.31165975 -21.75466472 99.32160691 -27.71090376 99.32293582 C-31.25436498 99.32397415 -34.79765719 99.32966976 -38.3410759 99.34775543 C-67.6292986 99.48880123 -98.83268854 96.61312867 -121 75 C-117.76084275 75 -116.07633098 75.67712917 -113.125 76.9375 C-101.83543074 81.75369239 -90.60188373 81.08993233 -79.27734375 76.59765625 C-68.19505961 71.19520784 -58.93998358 60.81893553 -51.00048828 51.49609375 C-46.2609241 46.06595679 -41.14215748 41.01738366 -36.03515625 35.9375 C-34.99118934 34.8954026 -33.94744628 33.85308091 -32.90391541 32.81054688 C-30.18214078 30.09255554 -27.45737477 27.3775831 -24.73193359 24.66326904 C-21.94118927 21.88282982 -19.15334129 19.09948971 -16.36523438 16.31640625 C-10.91295642 10.87479158 -5.45750891 5.43636897 0 0 Z " fill="#35B6FE" transform="translate(207,255)"/>
</svg>
