<svg width="62" height="62" viewBox="0 0 62 62" fill="none" xmlns="http://www.w3.org/2000/svg"><path fill-rule="evenodd" clip-rule="evenodd" d="M17.6275 9C12.8626 9 9 12.8626 9 17.6275V44.3725C9 49.1373 12.8626 53 17.6275 53H44.3725C49.1373 53 53 49.1373 53 44.3725V17.6275C53 12.8626 49.1373 9 44.3725 9H17.6275ZM21.5098 32.7734L33.258 17.1961V29.395H40.4902L28.7419 44.9724V32.7734H21.5098Z" fill="#292440"/><path fill-rule="evenodd" clip-rule="evenodd" d="M17.6275 9C12.8626 9 9 12.8626 9 17.6275V44.3725C9 49.1373 12.8626 53 17.6275 53H44.3725C49.1373 53 53 49.1373 53 44.3725V17.6275C53 12.8626 49.1373 9 44.3725 9H17.6275ZM21.5098 32.7734L33.258 17.1961V29.395H40.4902L28.7419 44.9724V32.7734H21.5098Z" fill="url(#paint0_radial_2310_7)"/><path fill-rule="evenodd" clip-rule="evenodd" d="M17.6275 9C12.8626 9 9 12.8626 9 17.6275V44.3725C9 49.1373 12.8626 53 17.6275 53H44.3725C49.1373 53 53 49.1373 53 44.3725V17.6275C53 12.8626 49.1373 9 44.3725 9H17.6275ZM21.5098 32.7734L33.258 17.1961V29.395H40.4902L28.7419 44.9724V32.7734H21.5098Z" fill="url(#paint1_radial_2310_7)"/><path fill-rule="evenodd" clip-rule="evenodd" d="M17.6275 9C12.8626 9 9 12.8626 9 17.6275V44.3725C9 49.1373 12.8626 53 17.6275 53H44.3725C49.1373 53 53 49.1373 53 44.3725V17.6275C53 12.8626 49.1373 9 44.3725 9H17.6275ZM21.5098 32.7734L33.258 17.1961V29.395H40.4902L28.7419 44.9724V32.7734H21.5098Z" fill="url(#paint2_radial_2310_7)"/><path fill-rule="evenodd" clip-rule="evenodd" d="M21.2941 32.7053L33.3093 16.9805V29.2949H40.7058L28.6906 45.0197L28.6906 32.7053H21.2941Z" fill="white"/><defs><radialGradient id="paint0_radial_2310_7" cx="0" cy="0" r="1" gradientUnits="userSpaceOnUse" gradientTransform="translate(31 53) rotate(-90) scale(27.1765 32.7276)"><stop stop-color="#FF71FD" stop-opacity="0.48"/><stop offset="1" stop-color="#FF71FD" stop-opacity="0"/></radialGradient><radialGradient id="paint1_radial_2310_7" cx="0" cy="0" r="1" gradientUnits="userSpaceOnUse" gradientTransform="translate(53 53) rotate(-135) scale(51.5494 62.0359)"><stop stop-color="#688BFF" stop-opacity="0.48"/><stop offset="1" stop-color="#688BFF" stop-opacity="0"/></radialGradient><radialGradient id="paint2_radial_2310_7" cx="0" cy="0" r="1" gradientUnits="userSpaceOnUse" gradientTransform="translate(9 53) rotate(-46.9946) scale(46.0106 58.4672)"><stop stop-color="#FFC978" stop-opacity="0.48"/><stop offset="1" stop-color="#FFC978" stop-opacity="0"/></radialGradient></defs></svg>