<svg xmlns="http://www.w3.org/2000/svg" width="62" height="62"><rect width="62" height="62" rx="31" fill="#fff"/><g clip-path="url(#a)"><path d="m52.567 38.143-3.685-5.852-.361-.506a3.03 3.03 0 0 0-2.529-1.373l-5.924-.072-.361.723-7.08 11.343-.361.65 2.962 4.768a3.03 3.03 0 0 0 2.529 1.373h8.309c1.011 0 2.023-.506 2.529-1.373l.289-.433 3.685-5.924c.578-1.084.578-2.312 0-3.323zm-1.156 2.529-3.685 5.924s0 .072-.072.072c-.145.144-.289.144-.361.144s-.289 0-.433-.217l-3.685-5.924c-.072-.072-.072-.145-.145-.217 0-.072-.072-.145-.072-.217-.072-.289-.072-.578 0-.939.072-.145.072-.289.217-.434l3.685-5.852c.072-.145.217-.217.289-.217h.144a.49.49 0 0 1 .434.217l3.685 5.852a1.64 1.64 0 0 1 0 1.806zM41.657 23.91c.578-.939.578-2.24 0-3.179l-3.685-5.852-.289-.506A3.03 3.03 0 0 0 35.154 13h-8.309a3.03 3.03 0 0 0-2.529 1.373L9.434 38.215C9.145 38.649 9 39.227 9 39.732c0 .578.145 1.084.434 1.59l3.974 6.358c.578.939 1.517 1.445 2.601 1.445h8.309c1.011 0 2.023-.506 2.529-1.373l.289-.506 2.962-4.768 8.742-14.016 2.818-4.552zm-.867-1.517c0 .289-.072.578-.289.867L25.979 46.524c-.145.217-.361.217-.433.217s-.289 0-.434-.217l-3.685-5.925a1.52 1.52 0 0 1 0-1.734l14.594-23.264c.145-.217.361-.217.434-.217s.289 0 .434.217l3.685 5.852a2 2 0 0 1 .217.939z"/></g><defs><clipPath id="a"><path fill="#fff" d="M9 13h44v36.125H9z"/></clipPath></defs></svg>