<svg xmlns="http://www.w3.org/2000/svg" width="62" height="62"><rect width="62" height="62" rx="31" fill="#fff"/><path d="M15.324 28.106c7.214-1.188 12.865-7.153 14.054-14.363l.398-3.468c.097-.552-.274-1.317-.972-1.264-5.452.424-10.59 2.222-13.457 3.393a3.78 3.78 0 0 0-2.346 3.495v11.31a1.09 1.09 0 0 0 1.264 1.073l1.06-.172zm17.531-14.367c1.188 7.215 6.839 13.175 14.054 14.363l1.06.172a1.086 1.086 0 0 0 1.263-1.074V15.89a3.78 3.78 0 0 0-2.346-3.495c-2.863-1.171-8.005-2.969-13.457-3.393-.698-.053-1.06.72-.976 1.264l.398 3.468.005.004zm14.049 17.53C37.048 33.213 32.47 39.765 32.47 52.17c0 .623.619 1.052 1.136.707 4.533-3.057 14.509-11.036 15.538-21.021.04-1.259-1.533-.667-2.24-.587m-31.577 0c9.857 1.944 14.434 8.496 14.434 20.901 0 .623-.619 1.051-1.136.707-4.533-3.057-14.509-11.036-15.538-21.021-.04-1.259 1.533-.667 2.24-.587"/></svg>