<?xml version="1.0" encoding="UTF-8"?>
<svg id="Layer_1" data-name="Layer 1" xmlns="http://www.w3.org/2000/svg" width="288" height="148.27" viewBox="0 0 288 148.27">
  <path d="m31.43,63.46h16.65l31.09,82.57h-14.79l-6.52-18.43H21.54l-6.64,18.43H0L31.43,63.46Zm22.82,52.94l-14.32-40.35h-.23l-14.79,40.35h29.34Z" style="fill: #fff;"/>
  <path d="m91.63,145.55c-3.16-1.81-5.61-4.46-7.34-7.93-1.74-3.47-2.61-7.58-2.61-12.31v-39.42h12.91v36.93c0,4.42,1.18,7.95,3.55,10.59,2.37,2.64,5.57,3.97,9.6,3.97,3.24,0,6.2-.77,8.89-2.31,2.69-1.54,4.82-3.67,6.4-6.4,1.58-2.72,2.37-5.78,2.37-9.17v-33.62h12.79v60.13h-11.25l-1.66-8.53h-.12c-2.61,3.47-5.73,6.14-9.35,7.99-3.64,1.86-7.86,2.78-12.68,2.78-4.5,0-8.34-.91-11.49-2.72Z" style="fill: #fff;"/>
  <path d="m141.91,85.9h13.5l17.53,49.25h.23l17.66-49.25h13.51l-23.22,60.13h-16.23l-22.98-60.13Z" style="fill: #fff;"/>
  <rect x="210.5" y="85.9" width="12.91" height="60.13" style="fill: #fff;"/>
  <path d="m234.55,58.67h12.79v52.32h.12l22.51-25.1h16l-22.27,23.8,24.29,36.35h-15.05l-17.66-27.58-7.94,8.41v19.18h-12.79V58.67h-.01Z" style="fill: #fff;"/>
  <path d="m94.59,70.87c0-31.95,26-57.95,57.95-57.95,15.09,0,28.85,5.8,39.17,15.29-4.08-1.23-8.4-1.9-12.87-1.9-24.57,0-44.57,19.99-44.57,44.57h0s12.92,0,12.92,0h0c0-17.45,14.2-31.65,31.65-31.65s30.76,13.32,31.61,30.02c.02.54.04,1.08.04,1.63h0s12.92,0,12.92,0h0c0-.77-.02-1.53-.06-2.29C222.14,30.56,190.85,0,152.54,0s-70.87,31.79-70.87,70.87h0s12.92,0,12.92,0h0Z" style="fill: #8e77fb;"/>
</svg>