<svg xmlns="http://www.w3.org/2000/svg" width="62" height="62" fill="none" xmlns:v="https://vecta.io/nano"><rect width="62" height="62" rx="31" fill="#fff"/><g fill="#000"><path d="M32.434 29.912l.007-.004.002-.002-.009.006zm-20.109 7.4l-.002-.022-.002-.011.004.033zm30.746.907c-.035.011-.073.013-.108.024l-.033.011.141-.035z"/><path d="M13.802 29.697h2.544l4.75 12.615h-2.26l-.996-2.816h-5.549l-1.014 2.816H9l4.802-12.615zm3.486 8.088L15.1 31.62h-.035l-2.26 6.165h4.483zM23 42.238c-.483-.276-.857-.681-1.121-1.212s-.399-1.158-.399-1.881v-6.023h1.972v5.642c0 .675.18 1.215.542 1.618s.851.607 1.467.607c.495 0 .947-.118 1.358-.353a2.61 2.61 0 0 0 .978-.978c.241-.416.362-.883.362-1.401v-5.136h1.954v9.187h-1.719l-.254-1.303h-.018a4.14 4.14 0 0 1-1.428 1.221c-.553.283-1.201.425-1.937.425-.687 0-1.274-.139-1.755-.416l-.002.003zm7.681-9.117h2.062l2.678 7.525h.035l2.698-7.525h2.064l-3.548 9.187h-2.48l-3.511-9.187zm12.452 0h-1.972v9.187h1.972v-9.187zm1.702-4.16h1.954v7.994h.018l3.439-3.835h2.444l-3.402 3.636L53 42.31h-2.299l-2.698-4.214-1.213 1.285v2.93h-1.954v-13.35z"/></g><path d="M23.452 30.828c0-4.881 3.972-8.854 8.854-8.854 2.306 0 4.408.886 5.985 2.336a6.8 6.8 0 0 0-1.966-.29 6.82 6.82 0 0 0-6.809 6.81h1.974c0-2.666 2.17-4.835 4.836-4.835s4.7 2.035 4.83 4.587l.006.249h1.974a6.65 6.65 0 0 0-.009-.35A10.84 10.84 0 0 0 32.306 20c-5.853 0-10.828 4.857-10.828 10.828h1.974z" fill="#8e77fb"/></svg>
