<svg xmlns="http://www.w3.org/2000/svg" width="62" height="62" fill="none" fill-rule="evenodd"><path d="M44.988 52.911h7.48l-6.6-15.786c-1.788 1.903-3.469 3.903-5.036 5.991l4.156 9.795z" fill="#f60"/><path d="M31.25 42.564l-3.513-4.175-1.831 4.324c2.633 3.923 4.383 7.299 5.331 8.917 4.083-7.935 9.442-15.145 15.862-21.342l-1.041-2.444a80.66 80.66 0 0 0-14.809 14.72z" fill="#059bd2"/><path d="M34.535 10h-6.6L10 52.91h7.478l12.956-30.58.616-1.66h.347l.614 1.66 3.852 9.064a72.36 72.36 0 0 1 5.532-4.974L34.535 10z" fill="#f60"/></svg>