<svg version="1.1" xmlns="http://www.w3.org/2000/svg" width="64" height="64" viewBox="0 0 180 180">
<path d="M0 0 C0.99 0.99 0.99 0.99 2 2 C1.71676025 5.96535644 -0.82669212 8.80795405 -3 12 C-5.03377848 18.10133545 -4.98823417 24.75087972 -2.125 30.5625 C-0.88591283 32.76991085 0.18914731 34.18914731 2 36 C1.8123477 40.68314879 -0.70902414 43.64214269 -3.5625 47.125 C-6.25015925 50.43314473 -8.7726132 53.61585758 -10.94921875 57.29296875 C-12.7779546 60.35937398 -14.2705925 62.68910165 -17 65 C-20.79174994 65.66611823 -24.00492634 65.58791703 -27.828125 65.19140625 C-31.18747733 64.98868671 -32.15866634 65.44431112 -35 67 C-37.75692293 67.57138299 -39.35780752 67.37004755 -41.80322266 65.9609375 C-43.8577412 64.53241703 -45.83844404 63.03768569 -47.8125 61.5 C-48.50537109 60.97535156 -49.19824219 60.45070313 -49.91210938 59.91015625 C-51.61619194 58.61740396 -53.30921324 57.31009389 -55 56 C-54.41196203 52.97580475 -53.77321882 49.98241547 -53 47 C-54.93386878 45.51586815 -56.87178073 44.03762572 -58.8125 42.5625 C-59.35970703 42.14162109 -59.90691406 41.72074219 -60.47070312 41.28710938 C-62.97679457 39.38855525 -64.99420019 38.00193327 -68 37 C-68.25394531 37.56589844 -68.50789063 38.13179687 -68.76953125 38.71484375 C-70.60935826 42.13166534 -73.14554066 44.91844812 -75.63671875 47.87890625 C-76.08660156 48.57886719 -76.53648438 49.27882812 -77 50 C-75.68895551 53.93313346 -73.17504178 55.36757006 -69.9375 57.6875 C-69.36966797 58.10322266 -68.80183594 58.51894531 -68.21679688 58.94726562 C-66.81596827 59.97140082 -65.40859652 60.98657535 -64 62 C-63.278125 61.319375 -62.55625 60.63875 -61.8125 59.9375 C-59 58 -59 58 -56.609375 57.94921875 C-53.07092466 59.37413363 -50.22458561 61.47628051 -47.25 63.8125 C-46.66089844 64.25142578 -46.07179687 64.69035156 -45.46484375 65.14257812 C-43.09843022 66.97314859 -41.25234977 68.41773392 -40.046875 71.19921875 C-40 73 -40 73 -41 75 C-41.46590276 81.05673588 -40.32336988 84.90217349 -36.6875 89.75 C-33.12274449 92.39055964 -29.88725465 93.03168767 -25.5 92.875 C-20.56734621 91.64183655 -17.38085117 89.65702141 -14.125 85.75 C-12.64292539 82.12715096 -12.39693274 78.82947707 -13 75 C-13.53625 73.948125 -14.0725 72.89625 -14.625 71.8125 C-16 69 -16 69 -15.375 66.7109375 C-13.71941195 63.44679516 -11.64369632 60.66286958 -9.375 57.8125 C-8.93349609 57.24950195 -8.49199219 56.68650391 -8.03710938 56.10644531 C-7.13392102 54.95699193 -6.22800204 53.8096788 -5.31933594 52.66455078 C-4.08259702 51.10420919 -2.85728212 49.53483202 -1.6328125 47.96484375 C3.73459716 41.13270142 3.73459716 41.13270142 6 40 C6.78375 40.309375 7.5675 40.61875 8.375 40.9375 C15.0645372 42.89822642 22.23188101 42.55232087 29 41 C33.99908155 48.88789507 32.43162294 63.08250016 30.78515625 71.81640625 C26.08851419 90.86000466 15.96768636 106.74046871 -1 117 C-17.83016717 126.95900801 -38.65502607 129.33972 -57.625 124.5 C-65.1636373 121.91210958 -72.11618851 117.97217133 -79 114 C-79 113.34 -79 112.68 -79 112 C-79.73476562 111.76152344 -80.46953125 111.52304688 -81.2265625 111.27734375 C-90.58229119 106.96843772 -97.69403168 94.5558304 -101.5078125 85.3671875 C-107.8647019 67.96747309 -109.05738535 47.35562966 -101.15576172 30.16308594 C-98.74923878 25.24670037 -96.03716843 20.55575265 -93 16 C-92.34 16 -91.68 16 -91 16 C-90.74089844 15.41863281 -90.48179688 14.83726563 -90.21484375 14.23828125 C-83.7645016 2.3538888 -69.25052613 -4.13300285 -57 -8 C-37.94410075 -13.42034468 -16.83391733 -10.19354855 0 0 Z " fill="#EE0B5C" transform="translate(108,46)"/>
<path d="M0 0 C5.70395554 3.02482491 10.29132057 8.1701433 13.26171875 13.859375 C15.25640139 20.59264517 15.45951506 30.57806144 12.625 37.0625 C8.4211863 43.66849295 2.77608451 48.44841588 -4.75 50.6875 C-12.98036057 52.28959309 -20.57445244 51.34040373 -27.8125 47 C-33.20888672 43.00667383 -37.76195341 37.29977237 -38.9375 30.5625 C-39.64275843 22.57342496 -38.85286785 16.57556852 -34.9375 9.5625 C-34.6075 8.9025 -34.2775 8.2425 -33.9375 7.5625 C-33.2775 7.5625 -32.6175 7.5625 -31.9375 7.5625 C-31.69386719 6.95921875 -31.45023438 6.3559375 -31.19921875 5.734375 C-25.55858673 -3.97519591 -9.15635104 -3.42175056 0 0 Z " fill="#221E1F" transform="translate(162.9375,9.4375)"/>
</svg>
