<svg width="62" height="62" viewBox="0 0 62 62" fill="none" xmlns="http://www.w3.org/2000/svg"><path fill-rule="evenodd" clip-rule="evenodd" d="M30.9997 9C34.6977 9 37.6954 11.998 37.6954 15.6961C37.6954 17.1188 37.2519 18.4378 36.4953 19.5224H39.6087L42.4783 19.5223V22.3921V25.5056C43.5628 24.7491 44.8817 24.3054 46.3043 24.3054C50.0021 24.3054 53 27.3034 53 31.0015C53 34.6998 50.0021 37.6977 46.3043 37.6977C44.8817 37.6977 43.5628 37.254 42.4783 36.4976V42.4804H36.4958C37.2522 43.565 37.6959 44.8841 37.6959 46.3067C37.6959 50.005 34.6981 53.0028 31.0001 53.0028C27.3023 53.0028 24.3044 50.005 24.3044 46.3067C24.3044 44.8841 24.7481 43.565 25.5045 42.4804H19.5217L19.5217 39.6108L19.5217 36.4972C18.4372 37.2537 17.1183 37.6974 15.6957 37.6974C11.9978 37.6974 9 34.6994 9 31.0013C9 27.3031 11.9978 24.3051 15.6957 24.3051C17.1183 24.3051 18.4372 24.7488 19.5217 25.5054V19.5224H25.5042C24.7478 18.4378 24.3041 17.1188 24.3041 15.6961C24.3041 11.998 27.3019 9 30.9997 9ZM22.3913 31.0366L22.3914 31.0013L22.3913 30.9658V22.3921H30.9644L30.9997 22.3923L31.0351 22.3921H39.6087V30.9586L39.6086 31.0015L39.6087 31.0447V39.6108H31.0431L31.0001 39.6105L30.9572 39.6108H22.3913V31.0366ZM34.3476 46.3068C34.3476 48.156 32.8487 49.6549 30.9997 49.6549C29.1509 49.6549 27.652 48.156 27.652 46.3068C27.652 44.4578 29.1509 42.9588 30.9997 42.9588C32.8487 42.9588 34.3476 44.4578 34.3476 46.3068ZM46.3044 34.3493C48.1534 34.3493 49.6523 32.8504 49.6523 31.0013C49.6523 29.1521 48.1534 27.6531 46.3044 27.6531C44.4554 27.6531 42.9566 29.1521 42.9566 31.0013C42.9566 32.8504 44.4554 34.3493 46.3044 34.3493ZM31.0003 12.348C29.1513 12.348 27.6524 13.847 27.6524 15.6961C27.6524 17.5452 29.1513 19.0441 31.0003 19.0441C32.8493 19.0441 34.3481 17.5452 34.3481 15.6961C34.3481 13.847 32.8493 12.348 31.0003 12.348ZM12.2778 30.4981C12.5031 28.6628 14.1735 27.3577 16.0087 27.583C17.8439 27.8084 19.1489 29.4789 18.9236 31.3142C18.6983 33.1495 17.0279 34.4547 15.1927 34.2293C13.3575 34.0039 12.0525 32.3334 12.2778 30.4981Z" fill="url(#paint0_linear_1641_114)"/><defs><linearGradient id="paint0_linear_1641_114" x1="3.46218" y1="20.6006" x2="17.6367" y2="63.8395" gradientUnits="userSpaceOnUse"><stop stop-color="#FF5740"/><stop offset="1" stop-color="#E22922"/></linearGradient></defs></svg>