<svg xmlns="http://www.w3.org/2000/svg" width="62" height="62" fill="none"><rect width="62" height="62" rx="31" fill="#fff"/><path d="M21.398 27.555c0 .541.059.98.161 1.302.117.322.263.673.468 1.054.073.117.102.234.102.336 0 .146-.088.293-.278.439l-.922.615c-.132.088-.263.132-.38.132-.146 0-.293-.073-.439-.205a4.53 4.53 0 0 1-.527-.688l-.454-.863c-1.141 1.346-2.575 2.019-4.302 2.019-1.229 0-2.21-.351-2.927-1.054s-1.083-1.639-1.083-2.809c0-1.244.439-2.254 1.332-3.014s2.078-1.141 3.585-1.141a11.58 11.58 0 0 1 1.551.117 19.84 19.84 0 0 1 1.683.322v-1.068c0-1.112-.234-1.888-.688-2.341-.468-.454-1.258-.673-2.385-.673a6.66 6.66 0 0 0-1.58.19c-.541.132-1.068.293-1.58.497-.234.103-.41.161-.512.19a.9.9 0 0 1-.234.044c-.205 0-.307-.146-.307-.454v-.717c0-.234.029-.41.102-.512s.205-.205.41-.307c.512-.263 1.127-.483 1.844-.658.717-.19 1.478-.278 2.283-.278 1.741 0 3.014.395 3.834 1.185.805.79 1.215 1.99 1.215 3.6v4.741h.029zm-5.941 2.224c.483 0 .98-.088 1.507-.263a3.26 3.26 0 0 0 1.39-.936 2.32 2.32 0 0 0 .497-.936c.088-.351.146-.776.146-1.273v-.615c-.424-.102-.878-.19-1.346-.249s-.922-.088-1.375-.088c-.98 0-1.697.19-2.18.585s-.717.951-.717 1.683c0 .688.176 1.2.541 1.551.351.366.863.541 1.536.541zm11.75 1.58c-.263 0-.439-.044-.556-.146-.117-.088-.22-.293-.307-.571l-3.439-11.311c-.088-.293-.132-.483-.132-.585 0-.234.117-.366.351-.366h1.434c.278 0 .468.044.571.146.117.088.205.293.293.571l2.458 9.687 2.283-9.687c.073-.293.161-.483.278-.571s.322-.146.585-.146h1.171c.278 0 .468.044.585.146.117.088.22.293.278.571l2.312 9.804 2.531-9.804c.088-.293.19-.483.293-.571.117-.088.307-.146.571-.146h1.361c.234 0 .366.117.366.366 0 .073-.015.146-.029.234a2.08 2.08 0 0 1-.102.366l-3.526 11.311c-.088.293-.19.483-.307.571s-.307.146-.556.146h-1.258c-.278 0-.468-.044-.585-.146s-.22-.293-.278-.585l-2.268-9.438-2.253 9.423c-.073.293-.161.483-.278.585s-.322.146-.585.146h-1.258zm18.803.395c-.761 0-1.522-.088-2.253-.263s-1.302-.366-1.683-.585c-.234-.132-.395-.278-.454-.41a1.03 1.03 0 0 1-.088-.41v-.746c0-.307.117-.454.337-.454a.83.83 0 0 1 .263.044c.088.029.22.088.366.146a7.96 7.96 0 0 0 1.61.512 8.79 8.79 0 0 0 1.741.176c.922 0 1.639-.161 2.136-.483s.761-.79.761-1.39c0-.41-.132-.746-.395-1.024s-.761-.527-1.478-.761l-2.122-.658c-1.068-.337-1.858-.834-2.341-1.493-.483-.644-.732-1.361-.732-2.122 0-.614.132-1.156.395-1.624s.614-.878 1.053-1.2c.439-.336.937-.585 1.522-.761s1.2-.249 1.844-.249c.322 0 .658.015.98.058l.951.161.834.234c.263.088.468.176.615.263.205.117.351.234.439.366.088.117.132.278.132.483v.688c0 .307-.117.468-.337.468-.117 0-.307-.058-.556-.175-.834-.38-1.771-.571-2.809-.571-.834 0-1.492.132-1.946.41s-.688.702-.688 1.302a1.38 1.38 0 0 0 .439 1.039c.293.278.834.556 1.609.805l2.078.659c1.053.337 1.814.805 2.268 1.405a3.31 3.31 0 0 1 .673 2.049c0 .629-.132 1.2-.381 1.697-.263.498-.614.937-1.068 1.288-.454.366-.995.629-1.624.819a6.96 6.96 0 0 1-2.093.307z" fill="#252f3e"/><path d="M48.776 38.866c-4.814 3.556-11.809 5.443-17.822 5.443-8.428 0-16.023-3.117-21.759-8.297-.454-.41-.044-.966.498-.644 6.204 3.6 13.857 5.78 21.773 5.78 5.341 0 11.209-1.112 16.608-3.395.805-.366 1.492.527.702 1.112zm2.005-2.283c-.615-.79-4.068-.38-5.634-.19-.468.059-.541-.351-.117-.658 2.751-1.931 7.272-1.375 7.799-.732.527.658-.146 5.18-2.722 7.346-.395.337-.776.161-.6-.278.585-1.449 1.888-4.712 1.273-5.487z" fill="#f90"/></svg>