<svg width="62" height="62" viewBox="0 0 62 62" fill="none" xmlns="http://www.w3.org/2000/svg"><rect width="62" height="62" rx="31" fill="white"/><g clip-path="url(#clip0_539_2)"><rect width="44" height="37.9777" transform="translate(9 12)" fill="black"/><mask id="mask0_539_2" style="mask-type:luminance" maskUnits="userSpaceOnUse" x="9" y="12" width="44" height="38"><path d="M53 12H9V49.9777H53V12Z" fill="white"/></mask><g mask="url(#mask0_539_2)"><path d="M52.6006 38.4994L43.2182 22.7969C42.7879 22.0752 41.7278 21.4848 40.8621 21.4848H35.0046C33.6432 21.4848 33.0851 20.5571 33.7641 19.4234L36.9764 14.0614C37.2313 13.6359 37.2307 13.112 36.975 12.6869C36.7193 12.2618 36.2469 12 35.7359 12H27.5646C26.6988 12 25.6364 12.5891 25.2033 13.3092L9.32507 39.7087C8.89184 40.4288 8.89167 41.6072 9.32441 42.3274L13.41 49.1271C14.0908 50.26 15.2072 50.2613 15.8908 49.13L19.0832 43.8475C19.767 42.7162 20.8831 42.7174 21.564 43.8503L24.4581 48.6672C24.8909 49.3875 25.9532 49.9767 26.8188 49.9767H45.701C46.5663 49.9767 47.6288 49.3875 48.0616 48.6672L52.5958 41.1212C53.0285 40.401 53.0306 39.2212 52.6006 38.4994ZM39.9295 37.7437C40.6061 38.8788 40.0457 39.8078 38.6843 39.8078H23.997C22.6356 39.8078 22.0786 38.8808 22.7593 37.7479L30.1086 25.5167C30.7893 24.3838 31.9032 24.3839 32.584 25.5168L39.9295 37.7437Z" fill="white"/></g></g><defs><clipPath id="clip0_539_2"><rect width="44" height="37.9777" fill="white" transform="translate(9 12)"/></clipPath></defs></svg>