<svg width="62" height="62" viewBox="0 0 62 62" fill="none" xmlns="http://www.w3.org/2000/svg"><path fill-rule="evenodd" clip-rule="evenodd" d="M42.0284 11H19.9712L9 30.5556L19.9712 50.1111H42.0284L53 30.5556L42.0284 11ZM42.1428 39.338C42.1428 40.9772 40.7714 42.3823 39.1713 42.3823H22.9431C21.343 42.3823 19.9716 40.9772 19.9716 39.338V21.8905C19.9716 20.2512 21.343 18.8457 22.9431 18.8457H34.9429H37.2284H37.5716L42.1432 23.5297V25.9888V39.3384L42.1428 39.338ZM29.3427 33.7172C29.3427 33.483 29.2283 33.3662 29.2283 33.2488C29.2283 33.1315 29.1139 33.0147 29 32.8978C28.886 32.781 28.8856 32.7805 28.7712 32.7805H28.4284C28.1996 32.7805 28.0852 32.7805 27.9713 32.8978C27.8574 33.0152 27.7425 33.132 27.6286 33.3662C27.5147 33.6004 27.5142 33.8345 27.5142 34.0687V35.1228V36.2936C27.5142 36.6452 27.6286 36.8788 27.743 36.9962C27.8574 37.2304 27.9718 37.3477 28.0857 37.3477C28.2001 37.465 28.3145 37.465 28.5428 37.465C28.6572 37.465 28.7716 37.465 28.8856 37.3477C28.9455 37.3428 29.0017 37.3165 29.0438 37.2734C29.0858 37.2304 29.1109 37.1736 29.1144 37.1135C29.2288 36.9962 29.2288 36.8793 29.3427 36.7625C29.3427 36.6452 29.4571 36.5283 29.4571 36.2941C29.4571 36.1773 29.4571 35.9426 29.571 35.7084V35.0059V34.1865C29.3427 34.0692 29.3427 33.9524 29.3427 33.7182V33.7172ZM34.4858 24.5833C34.4858 24.3491 34.3714 24.2323 34.3714 24.1149C34.3714 23.9976 34.257 23.8808 34.1426 23.7634C34.0282 23.6461 34.0282 23.6461 33.9138 23.6461H33.5711C33.3428 23.6461 33.2284 23.6461 33.114 23.7634C32.9996 23.8808 32.8852 23.9976 32.7708 24.2318C32.6564 24.466 32.6568 24.7001 32.6568 24.9343V25.9884V27.1592C32.6568 27.5108 32.7708 27.7449 32.8852 27.8618C32.9996 28.096 33.114 28.2133 33.2279 28.2133C33.3423 28.3306 33.4562 28.3306 33.685 28.3306C33.7994 28.3306 33.9133 28.3306 34.0277 28.2133C34.0877 28.2084 34.1439 28.1821 34.1859 28.139C34.228 28.096 34.253 28.0392 34.2565 27.9791C34.3709 27.8618 34.3709 27.7449 34.4853 27.6276C34.4853 27.5108 34.5997 27.3934 34.5997 27.1592C34.5997 27.0424 34.5997 26.8082 34.7141 26.5736V25.871V25.0512C34.5997 25.0512 34.5997 24.8175 34.4858 24.5833ZM36.7713 20.4849H34.9429H22.9431C22.1433 20.4849 21.5718 21.0706 21.5718 21.89V39.338C21.5718 40.1578 22.1433 40.743 22.9431 40.743H39.1718C39.5383 40.7335 39.8866 40.5813 40.1427 40.3189C40.3988 40.0565 40.5425 39.7046 40.5431 39.338V24.3491H36.8862V20.4849H36.7713ZM26.6 23.9981V23.8812V23.7639L26.7144 23.6466L28.0857 22.7099H28.2001H28.3145H28.4289H28.6577H29.0004H29.2288H29.3432V22.8272V28.3311H30.3718H30.4862L30.6001 28.4484C30.7145 28.5653 30.6001 28.5653 30.6001 28.5653V28.7995V29.0336V29.1505C30.6001 29.1505 30.6001 29.2678 30.4862 29.2678H30.3718H26.8288H26.7144L26.6 29.1505V29.0336V28.7995V28.5653V28.4484C26.6 28.4484 26.6 28.3311 26.7144 28.3311H26.8288H28.0857V23.9986L27.0571 24.5843C26.9427 24.5843 26.9427 24.7011 26.8288 24.7011H26.7144C26.7144 24.7011 26.7144 24.5843 26.6 24.5843V24.2332V23.9991V23.9981ZM30.6001 36.5278C30.4862 36.9962 30.3718 37.3477 30.143 37.5819C29.9142 37.9329 29.6859 38.1676 29.4571 38.2844C29.1144 38.4012 28.7712 38.5186 28.314 38.5186C27.8569 38.5186 27.5142 38.4012 27.171 38.2844C27.0077 38.2327 26.8597 38.1416 26.7401 38.019C26.6204 37.8965 26.5329 37.7463 26.4851 37.5819C26.3707 37.2308 26.1424 36.8793 26.1424 36.5278C26.028 36.0595 26.028 35.5911 26.028 35.1228C26.028 34.5371 26.028 34.0687 26.1424 33.7177C26.2568 33.2493 26.3707 32.8978 26.5995 32.6636C26.8283 32.4295 27.0566 32.078 27.2854 31.9611C27.6281 31.8438 27.9713 31.7269 28.4284 31.7269C28.8856 31.7269 29.2283 31.8438 29.571 31.9611C29.7343 32.0128 29.8823 32.1039 30.0019 32.2265C30.1216 32.349 30.2091 32.4992 30.2569 32.6636C30.3713 33.0152 30.5996 33.3662 30.5996 33.7177C30.714 34.186 30.714 34.6544 30.714 35.1228C30.714 35.7084 30.7145 36.1768 30.6001 36.5278ZM35.7432 38.1671V38.2844C35.7432 38.2844 35.7432 38.4012 35.6288 38.4012H35.5144H31.9714H31.857L31.7426 38.2844V38.1671V37.9329V37.6987V37.5819C31.7426 37.5819 31.7426 37.465 31.857 37.465H31.9714H33.2288V33.1325L32.2002 33.7182C32.0858 33.7182 32.0858 33.835 31.9714 33.835H31.857C31.857 33.835 31.857 33.7182 31.7426 33.7182V33.3672V33.133V33.0161V32.8988L31.857 32.7815L33.2284 31.8448H33.3428H33.4572H33.5716H33.8004H34.1431H34.3719H34.4863V31.9621V37.466H35.5149H35.6293L35.7437 37.5828V37.6997V37.9339V38.168L35.7432 38.1671ZM35.8576 27.3939C35.7432 27.8623 35.6288 28.2138 35.4005 28.448C35.1717 28.799 34.9434 29.0336 34.7146 29.1505C34.3719 29.2678 34.0287 29.3847 33.5716 29.3847C33.1144 29.3847 32.7717 29.2673 32.4285 29.1505C32.2652 29.0988 32.1172 29.0077 31.9976 28.8851C31.8779 28.7626 31.7904 28.6124 31.7426 28.448C31.6282 28.2138 31.3999 27.7454 31.3999 27.3939C31.3999 27.0424 31.2855 26.4572 31.2855 25.9888C31.2855 25.4032 31.2855 24.9348 31.3999 24.5838C31.5143 24.1154 31.6287 23.7639 31.857 23.5297C32.0858 23.1787 32.3141 22.944 32.5429 22.8272C32.8856 22.7099 33.2288 22.593 33.686 22.593C34.1431 22.593 34.4858 22.7104 34.829 22.8272C34.9923 22.8789 35.1403 22.97 35.2599 23.0926C35.3796 23.2151 35.4671 23.3653 35.5149 23.5297C35.6293 23.8808 35.8576 24.2323 35.8576 24.5838C35.972 25.0521 35.972 25.5205 35.972 25.9888C35.972 26.5745 35.8576 27.0429 35.8576 27.3939Z" fill="#0078D7"/></svg>