<svg xmlns="http://www.w3.org/2000/svg" enable-background="new 0 0 24 24" viewBox="0 0 24 24" id="azure-devops">
  <polygon fill="#0075D1" points="2.966 8.331 18.021 5.403 10.652 0 10.652 2.476 2.247 5.899 0 8.871 0 15.714 2.966 16.57 2.966 8.331"></polygon>
  <polygon fill="#0075D1" points="8.944 20.939 18.247 24 24 19.092 24 4.412 18.023 5.403 18.023 18.372 2.966 16.57 8.944 24 8.944 20.939"></polygon>
  <polygon fill="#0066B6" points="10.652 0 10.652 2.476 2.247 5.899 0 8.871 0 15.714 2.966 16.57 2.966 8.331 12 6.574 12 .988 10.652 0"></polygon>
  <polygon fill="#0066B6" points="2.966 16.57 8.944 24 8.944 20.939 12 21.944 12 17.651 2.966 16.57"></polygon>
</svg>
