<svg xmlns="http://www.w3.org/2000/svg" width="62" height="62" fill="#73c41d"><path d="M40.791 45.523c-4.561 0-8.451-3.622-8.451-8.451s3.354-8.853 8.585-8.853c5.366 0 8.451 4.292 8.451 8.719 0 4.829-3.353 8.585-8.585 8.585zm.402-20.792c-4.292 0-6.573 1.476-8.182 3.085l-.402.403V14h-3.622v23.206c0 7.109 5.5 11.67 11.804 11.67 6.975 0 12.207-5.366 12.207-12.207.134-6.439-5.5-11.938-11.804-11.938zm-13.95 4.695l-2.951-.537c-1.476-.268-2.146-.402-4.158-1.207-1.878-.805-3.756-2.683-5.366-4.829-1.744-2.146-5.768-5.5-5.768-5.5l2.549.402c1.073.268 3.756 1.073 6.439 2.549.671.268.939.537 1.61.939.939.537 1.878 1.476 2.817 2.415l2.817 2.951c-.939-1.61-3.219-7.512-7.646-12.341-.402-.537 3.085 1.744 4.024 2.683 2.683 2.951 3.085 4.561 4.024 7.244l1.61 5.231z"/></svg>