<svg width="62" height="62" viewBox="0 0 62 62" fill="none" xmlns="http://www.w3.org/2000/svg"><rect width="62" height="62" rx="31" fill="white"/><path fill-rule="evenodd" clip-rule="evenodd" d="M18.4638 17.1587C22.3246 13.7283 26.9029 12 32.1597 12C39.069 12 44.1021 16.4188 47.4843 22.1597C50.8662 27.9003 52.6287 35.0076 52.9937 40.5081C53.0274 40.971 52.9258 41.4335 52.7005 41.8391L52.6994 41.8416L52.698 41.8437C49.4675 47.3936 42.1347 50.4233 32.1613 50.4235C24.9993 50.5176 18.1494 47.4978 13.3876 42.1474C12.8209 41.5173 12.6508 40.625 12.9461 39.8308C13.5848 38.1118 14.7813 35.2444 16.37 32.7991C17.1642 31.5767 18.0633 30.449 19.0484 29.6229C20.0331 28.7972 21.1225 28.2578 22.291 28.2513H22.2924C23.4696 28.2513 24.487 28.7206 25.3692 29.3546C26.2317 29.9745 26.9819 30.765 27.6357 31.4538L27.6753 31.4958L27.6775 31.498C28.052 31.9133 28.4492 32.3073 28.8673 32.6786C30.6486 30.3893 32.1393 27.8873 33.3045 25.2303L33.308 25.222L33.3125 25.2139C33.8775 24.1401 35.1855 23.6982 36.286 24.2093C37.3866 24.7202 37.8928 26.0045 37.4374 27.129L37.435 27.1352L37.4322 27.1412C35.0496 32.2457 33.2088 34.8266 31.8398 36.1329C31.1532 36.7882 30.5797 37.1284 30.1105 37.3019C29.6376 37.477 29.2863 37.477 29.0687 37.477C28.0707 37.477 27.2196 37.092 26.4624 36.5445C25.7201 36.0077 25.0519 35.3027 24.4157 34.6314L24.3888 34.603C24.0967 34.2931 23.654 33.8242 23.2279 33.4332C23.0145 33.2371 22.8112 33.0664 22.6372 32.9461C22.5503 32.886 22.4758 32.842 22.4152 32.8141C22.3852 32.8001 22.3614 32.7916 22.3432 32.7864C22.3389 32.7853 22.3351 32.7844 22.3318 32.7837C22.2603 32.8026 22.1593 32.8518 22.0279 32.9498C21.8819 33.0586 21.7152 33.2146 21.5311 33.417C21.1631 33.8215 20.7435 34.3914 20.3012 35.0841C19.4413 36.4302 18.5102 38.2174 17.7204 40.0979C21.5557 43.8834 26.7617 45.9586 32.1544 45.8461H32.1597C40.0585 45.8461 45.8753 43.7037 48.3979 40.0884C47.949 35.1036 46.3442 29.2175 43.6222 24.5753C40.8808 19.8995 37.0437 16.5418 32.1597 16.5418C23.8176 16.5418 17.4886 22.3611 13.3795 33.9662L13.3769 33.9733L13.3739 33.9804C12.9046 35.0887 11.654 35.6404 10.5192 35.2397C9.38437 34.8388 8.75743 33.6241 9.08811 32.4672L9.09026 32.4595L9.09287 32.452C11.4796 25.6977 14.608 20.5847 18.4638 17.1587Z" fill="black"/></svg>
