<svg xmlns="http://www.w3.org/2000/svg" width="62" height="62" fill="none"><rect width="62" height="62" rx="31" fill="#fff"/><path d="M47.625 28.391s3.622.184 3.622-1.946c0-2.781-4.825-5.285-4.825-5.285l1.228-2.498c.473-.896 1.798-4.383 1.915-5.181.147-1.007-.08-1.32-.08-1.32-.325 2.148-3.824 8.336-4.106 8.545-3.413-1.596-8.103-2.044-8.103-2.044S32.684 9 28.363 9c-4.285 0-4.26 8.275-4.26 8.275s-1.209-2.345-2.732-2.345c-2.222 0-2.953 3.351-2.953 6.992-4.383 0-8.072.982-8.403 1.074-.325.092-1.363.847-.896.755.964-.307 5.469-1.007 9.41-.663.221 3.456 2.241 7.962 2.241 7.962s-4.334 6.273-4.334 10.748c0 1.179.516 3.333 3.622 3.333 2.609 0 5.537-1.565 6.083-1.878-.479.681-.835 1.989-.835 2.59 0 .491.295 1.885 2.302 1.885 2.578 0 5.463-1.977 5.463-1.977s2.725 4.518 5.052 6.587c.626.559 1.228.663 1.228.663s-2.314-2.222-5.359-7.955c2.83-1.743 5.776-5.868 5.776-5.868s.35.012 3.038.012c4.211 0 10.19-.884 10.19-4.229.006-3.45-5.371-6.568-5.371-6.568zm.466-2.081c0 1.221-1.16 1.209-1.16 1.209l-.884.055s-1.676-.878-2.695-1.295c0 0 1.578-2.425 1.946-3.1.276.166 2.793 1.737 2.793 3.131zM30.468 13.868c1.983 0 4.806 4.665 4.806 4.665s-4.407-.393-8.035 1.737c.098-3.358 1.228-6.402 3.229-6.402zm-7.839 3.781c.626 0 1.24.767 1.498 1.412 0 .43.221 2.934.221 2.934l-3.634-.141c0-3.272 1.283-4.205 1.915-4.205zm-.381 22.743c-1.989 0-2.394-1.105-2.394-2.099 0-2.253 1.799-5.408 1.799-5.408s2.019 4.242 5.537 6.028c-1.743 1.025-3.186 1.479-4.941 1.479zM28.7 44.83c-1.393 0-1.565-.902-1.565-1.111 0-.645.509-1.412.509-1.412s2.339-1.578 2.486-1.749l1.731 3.229S30.094 44.83 28.7 44.83zm4.346-1.756c-.847-1.479-1.473-3.026-1.473-3.026s3.481.221 5.353-1.706c-1.166.522-3.026 1.185-5.187.982 4.518-3.978 7.157-6.863 9.386-9.84-.19-.233-1.209-.945-1.461-1.062-1.344 1.62-6.58 7.213-11.43 9.981-6.138-3.345-7.427-13.185-7.556-15.229l3.352.319s-1.258 2.234-1.258 3.88c0 1.639.196 1.725.196 1.725s-.043-2.861 1.725-5.07c1.35 7.17 2.756 10.84 3.849 13.032l1.596-.694s-3.094-8.919-2.922-14.953c1.406-.749 3.487-1.522 5.831-1.522 6.175 0 11.141 2.652 11.141 2.652l-1.94 2.713s-1.731-3.131-4.18-3.689c1.289.958 2.738 2.228 3.487 4.051-5.119-1.995-11.295-3.051-13.277-3.284-.172.73-.147 1.774-.147 1.774s8.281 1.528 14.309 4.972c-.043 7.538-8.256 13.326-9.392 13.995zm7.845-5.635s2.572-3.37 2.529-7.839c0 0 4.156 2.572 4.156 5.083 0 2.799-6.685 2.756-6.685 2.756z" fill="#000"/></svg>