<svg xmlns="http://www.w3.org/2000/svg" width="62" height="62" fill="none"><rect width="62" height="62" rx="31" fill="#fff"/><path fill-rule="evenodd" d="M47.286 29.513H14.757a1.51 1.51 0 0 1-1.501-1.512v-2.294A4.706 4.706 0 0 1 17.963 21h26.085a4.714 4.714 0 0 1 4.707 4.707v2.294c.043.836-.643 1.512-1.469 1.512m-25.677-11a1.55 1.55 0 0 1-1.544-1.544c0-3.838 3.131-6.969 6.969-6.969h7.977a6.98 6.98 0 0 1 6.969 6.969c0 .868-.675 1.544-1.544 1.544H21.608zM48.787 32C51.124 32 53 33.919 53 36.256s-1.919 4.256-4.246 4.256H36.136c-.45-2.412-2.595-4.256-5.157-4.256-2.552 0-4.664 1.844-5.114 4.256H13.246C10.919 40.513 9 38.594 9 36.256S10.919 32 13.246 32zm-1.544 11c.868 0 1.544.718 1.512 1.544v2.712a4.273 4.273 0 0 1-4.256 4.256h-8.277V43zm-21.496 0v8.513h-8.288a4.273 4.273 0 0 1-4.256-4.256v-2.712c0-.868.718-1.544 1.544-1.544z" fill="#000" fill-opacity=".9"/></svg>