<svg xmlns="http://www.w3.org/2000/svg" width="62" height="62" fill="none"><g clip-path="url(#A)" fill="#34313f"><path d="M32.183 34.033h5.55c1.579 0 2.577-.868 2.577-2.263 0-1.315-.999-2.262-2.577-2.262h-5.55c-.184 0-.341.157-.341.316v3.892c.025.184.156.316.341.316zm0 8.969h5.734c1.762 0 2.814-.894 2.814-2.473 0-1.368-.999-2.473-2.814-2.473h-5.734c-.184 0-.341.157-.341.316v4.288c.025.21.156.341.341.341zM52.489 9.097L36.075 25.458h2.683c4.182 0 6.655 2.63 6.655 5.497 0 2.263-1.526 3.919-3.157 4.656-.263.106-.263.474.026.578 1.893.737 3.235 2.71 3.235 5.024 0 3.261-2.183 5.865-6.418 5.865H27.474c-.184 0-.341-.157-.341-.316v-12.39L9.113 52.314c-.237.237-.08.658.263.658H52.7c.157 0 .29-.131.29-.29V9.334c.078-.29-.29-.447-.5-.237z"/></g><defs><clipPath id="A"><path fill="#fff" transform="translate(9 9)" d="M0 0h44v43.972H0z"/></clipPath></defs></svg>