<svg width="62" height="62" viewBox="0 0 62 62" xmlns="http://www.w3.org/2000/svg" xmlns:xlink="http://www.w3.org/1999/xlink"><g transform="translate(16.34, 9) scale(0.09652) translate(-98.154, -26.999)"><linearGradient id="a" gradientTransform="matrix(3.1257 0 0 -3.1257 -318.006 1141.636)" gradientUnits="userSpaceOnUse" x1="183.69" x2="229.302" y1="305.461" y2="254.627"><stop offset="0" stop-color="#37bdff"/><stop offset=".25" stop-color="#26c6f4"/><stop offset=".5" stop-color="#15d0e9"/><stop offset=".75" stop-color="#3bd6df"/><stop offset="1" stop-color="#62dcd4"/></linearGradient><linearGradient id="b" gradientTransform="matrix(3.1257 0 0 -3.1257 -318.006 1141.636)" gradientUnits="userSpaceOnUse" x1="150.92" x2="149.453" y1="236" y2="348.805"><stop offset="0" stop-color="#1b48ef"/><stop offset=".5" stop-color="#2080f1"/><stop offset="1" stop-color="#26b8f4"/></linearGradient><linearGradient id="c" gradientTransform="matrix(3.1257 0 0 -3.1257 -318.006 1141.636)" gradientUnits="userSpaceOnUse" x1="178.928" x2="289.324" y1="240.707" y2="240.707"><stop offset="0" stop-color="#39d2ff"/><stop offset=".5" stop-color="#248ffa"/><stop offset="1" stop-color="#104cf5"/></linearGradient><linearGradient id="d" gradientTransform="matrix(3.1257 0 0 -3.1257 -318.006 1141.636)" gradientUnits="userSpaceOnUse" x1="178.928" x2="289.324" y1="240.615" y2="240.615"><stop offset="0" stop-color="#fff"/><stop offset="1"/></linearGradient><g fill="#fff"><g opacity=".61"><path d="m213.765 461.172-5.561 12.845h-2.936l-5.542-12.845h3.212l3.908 9.175 3.964-9.175zm9.742 8.569h-7.469c.275 1.23 1.321 1.982 2.826 1.982 1.046 0 1.798-.312 2.477-.954l1.523 1.651c-.917 1.046-2.294 1.597-4.074 1.597-3.413 0-5.634-2.147-5.634-5.083 0-2.954 2.257-5.083 5.267-5.083 2.899 0 5.138 1.945 5.138 5.12.001.22-.035.532-.054.77m-7.505-1.67h4.863c-.202-1.248-1.138-2.055-2.422-2.055-1.304 0-2.239.789-2.441 2.055m8.733.863c0-2.973 2.294-5.083 5.505-5.083 2.074 0 3.707.899 4.423 2.514l-2.22 1.193c-.532-.936-1.321-1.358-2.221-1.358-1.45 0-2.587 1.009-2.587 2.734s1.138 2.734 2.587 2.734c.899 0 1.688-.404 2.221-1.358l2.22 1.211c-.716 1.578-2.349 2.495-4.423 2.495-3.211.001-5.505-2.109-5.505-5.082m18.093 4.459c-.587.422-1.45.624-2.331.624-2.33 0-3.688-1.193-3.688-3.542v-4.055h-1.523v-2.202h1.523v-2.404h2.863v2.404h2.459v2.202h-2.459v4.019c0 .844.458 1.303 1.229 1.303.422 0 .844-.128 1.156-.367zm19.646-9.396v2.643c-.238-.018-.422-.037-.642-.037-1.578 0-2.624.862-2.624 2.753v4.661h-2.863v-9.873h2.734v1.303c.697-.954 1.872-1.45 3.395-1.45m.825 8.533 1.009-2.239c1.083.789 2.697 1.339 4.239 1.339 1.762 0 2.477-.587 2.477-1.376 0-2.404-7.469-.752-7.469-5.524 0-2.184 1.762-4 5.413-4 1.615 0 3.267.385 4.459 1.138l-.918 2.257c-1.193-.679-2.422-1.009-3.56-1.009-1.761 0-2.44.66-2.44 1.468 0 2.367 7.468.734 7.468 5.45 0 2.147-1.78 3.982-5.45 3.982-2.035.001-4.09-.605-5.228-1.486m22.129-2.789h-7.469c.275 1.23 1.321 1.982 2.826 1.982 1.046 0 1.798-.312 2.477-.954l1.523 1.651c-.918 1.046-2.294 1.597-4.074 1.597-3.413 0-5.634-2.147-5.634-5.083 0-2.954 2.257-5.083 5.267-5.083 2.9 0 5.138 1.945 5.138 5.12.002.22-.035.532-.054.77m-7.505-1.67h4.863c-.202-1.248-1.138-2.055-2.422-2.055-1.303 0-2.239.789-2.441 2.055m19.084 1.67h-7.469c.275 1.23 1.321 1.982 2.826 1.982 1.046 0 1.798-.312 2.477-.954l1.523 1.651c-.918 1.046-2.294 1.597-4.074 1.597-3.413 0-5.634-2.147-5.634-5.083 0-2.954 2.257-5.083 5.267-5.083 2.899 0 5.138 1.945 5.138 5.12.001.22-.036.532-.054.77m-7.506-1.67h4.863c-.202-1.248-1.138-2.055-2.422-2.055-1.303 0-2.239.789-2.441 2.055m13.707 2.074-1.377 1.358v2.514h-2.862v-13.616h2.862v7.707l4.185-3.964h3.413l-4.111 4.184 4.478 5.689h-3.469zm-46.607 5.214-2.86-2.86a6.057 6.057 0 0 1 -1.534 1.284 5.127 5.127 0 0 1 -.283.199l3.027 3.027a1.166 1.166 0 1 0 1.65-1.65"/><path d="m249.984 463.244a1.288 1.288 0 0 1 .921-.275 1.285 1.285 0 0 0 -1.745.209c-.051 0-.1.006-.151.008a.56.56 0 0 0 .064-.255.563.563 0 0 0 -.346-.519.78.78 0 0 1 .057.786 5.417 5.417 0 0 0 .39 10.82 5.42 5.42 0 0 0 5.42-5.42 5.414 5.414 0 0 0 -4.61-5.354m-2.001 1.412c.435 0 .844.112 1.199.309a2.372 2.372 0 0 1 3.083.419 2.47 2.47 0 0 0 -3.09-.131 2.46 2.46 0 0 0 -1.464-.478c-.3 0-.588.054-.854.152a2.469 2.469 0 0 1 1.126-.271m3.789 4.442c.115.305.181.634.181.979a2.777 2.777 0 0 1 -5.555 0c0-.345.066-.674.181-.979a2.165 2.165 0 0 1 1.133-4.014c.565 0 1.078.218 1.463.572a2.159 2.159 0 0 1 1.464-.572 2.165 2.165 0 1 1 1.133 4.014"/><path d="m251.666 467.061a.902.902 0 1 1 -.614-.854.494.494 0 0 0 .595.676.809.809 0 0 1 .019.178m-3.411 0a.681.681 0 1 1 -.464-.646.374.374 0 0 0 .45.512.655.655 0 0 1 .014.134m-5.347.769h.616v.616h-.616zm11.919 0h.616v.616h-.616z"/><path d="m255.205 468.082h-.14c0-3.248-2.642-5.89-5.89-5.89s-5.89 2.642-5.89 5.89h-.14c0-1.611.627-3.125 1.766-4.264s2.653-1.766 4.264-1.766 3.125.627 4.264 1.766 1.766 2.653 1.766 4.264"/><path d="m248.868 461.814h.616v.616h-.616z"/><path d="m244.95 462.052h8.45v.14h-8.45z"/><path d="m245.174 462.15a.196.196 0 1 1 -.393 0 .196.196 0 0 1 .393 0m8.422 0a.196.196 0 1 1 -.393 0 .196.196 0 0 1 .393 0m60.76 11.259c0 1.559-2.364 1.559-2.364 0 .001-1.558 2.364-1.558 2.364 0zm-152.617-6.86 1.772 6.088 1.855-6.088h2.215l-2.823 8.14h-2.33l-.837-2.396-.722-2.708-.722 2.708-.837 2.396h-2.33l-2.839-8.14h2.231l1.855 6.088 1.756-6.088zm14.974 0 1.772 6.088 1.855-6.088h2.215l-2.823 8.14h-2.33l-.837-2.396-.722-2.708-.722 2.708-.837 2.396h-2.33l-2.839-8.14h2.231l1.855 6.088 1.756-6.088zm14.974 0 1.772 6.088 1.855-6.088h2.215l-2.823 8.14h-2.33l-.837-2.396-.722-2.708-.722 2.708-.837 2.396h-2.33l-2.839-8.14h2.231l1.855 6.088 1.756-6.088zm9.221 6.971c0 1.559-2.364 1.559-2.364 0 .001-1.558 2.364-1.558 2.364 0zm121.802-.111c-.935.919-1.919 1.28-3.117 1.28-2.346 0-4.3-1.411-4.3-4.282s1.953-4.284 4.3-4.284c1.149 0 2.035.329 2.921 1.199l-1.264 1.329a2.449 2.449 0 0 0 -1.623-.64c-1.346 0-2.33.985-2.33 2.396 0 1.542 1.05 2.362 2.297 2.362.64 0 1.28-.18 1.772-.672zm9.095-2.937c0 2.33-1.591 4.217-4.217 4.217s-4.201-1.887-4.201-4.217c0-2.314 1.609-4.217 4.185-4.217 2.577 0 4.233 1.903 4.233 4.217zm-6.416 0c0 1.231.739 2.38 2.199 2.38s2.199-1.149 2.199-2.38c0-1.215-.854-2.396-2.199-2.396-1.444.001-2.199 1.182-2.199 2.396zm13.183 4.217v-4.332c0-1.068-.559-2.035-1.658-2.035-1.082 0-1.722.967-1.722 2.035v4.332h-2.003v-8.107h1.855l.148.985c.426-.82 1.362-1.116 2.133-1.116.969 0 1.937.394 2.396 1.51.723-1.149 1.658-1.478 2.708-1.478 2.297 0 3.43 1.412 3.43 3.84v4.365h-2.003v-4.365c0-1.066-.442-1.97-1.526-1.97-1.082 0-1.756.935-1.756 2.003v4.332h-2.002z"/></g><g opacity=".61"><path d="m345.988 431.299c-.006-1.224-.959-2.121-2.189-2.14-.924-.014-.832.12-.834-.867-.003-1.097-.007-2.194.003-3.292a1.389 1.389 0 0 0 -.362-.976c-2.342-2.668-4.678-5.342-7.019-8.011-.12-.137-.275-.244-.414-.366h-18.641c-.794.293-1.14.868-1.138 1.709.01 3.748.004 7.496.004 11.243 0 .556-.003.589-.55.551-1.497-.102-2.516.986-2.497 2.492.044 3.476.013 6.953.014 10.429.001 1.58.867 2.443 2.45 2.449.582.002.582.002.582.6 0 2.219-.001 4.438.001 6.657.001 1.192.58 1.771 1.768 1.771h24.04c1.168 0 1.755-.583 1.757-1.745.002-2.256 0-4.512.001-6.768 0-.512.002-.511.52-.515.271-.002.541.008.809-.058.996-.246 1.69-1.044 1.694-2.069.016-3.697.018-7.396.001-11.094zm-28.451-14.137h16.01c.548 0 .554.007.554.561.001 2.243-.001 4.486.001 6.73.001.811.249 1.059 1.06 1.059l5.731.001c.458 0 .479.021.481.483.003.887.002 1.775 0 2.662-.001.477-.024.498-.504.499h-23.331c-.55 0-.552-.001-.552-.561v-10.871c0-.559.004-.563.55-.563zm23.285 34.417h-23.263c-.572 0-.574-.002-.574-.579-.001-1.997-.001-3.994.001-5.991 0-.464.023-.486.478-.487h23.41c.478 0 .499.02.499.503.002 1.997.001 3.994 0 5.991.002.558-.003.563-.551.563z"/><path d="m327.418 417.053h1.757v1.054h-1.757zm-1.756 1.054h1.757v1.054h-1.757zm1.756 1.054h1.757v1.054h-1.757zm-1.756 1.054h1.757v1.054h-1.757zm1.756 1.054h1.757v1.054h-1.757zm-1.756 1.054h1.757v1.054h-1.757zm1.756 1.055h1.757v1.054h-1.757zm-1.756 1.054h1.757v1.054h-1.757zm1.756 1.054h1.757v1.054h-1.757zm-1.756 1.054h1.757v1.054h-1.757zm1.756 1.054h1.757v1.054h-1.757zm-1.756 1.054h1.757v1.054h-1.757zm-138.025 2.651c-.006-1.224-.959-2.121-2.189-2.14-.924-.014-.832.12-.834-.867-.003-1.097-.007-2.194.003-3.292a1.389 1.389 0 0 0 -.362-.976c-2.342-2.668-4.678-5.342-7.019-8.011-.12-.137-.275-.244-.414-.366h-18.641c-.794.293-1.14.868-1.138 1.709.01 3.748.004 7.496.004 11.243 0 .556-.003.589-.55.551-1.497-.102-2.516.986-2.497 2.492.044 3.476.013 6.953.014 10.429.001 1.58.867 2.443 2.45 2.449.582.002.582.002.582.6 0 2.219-.001 4.438.001 6.657.001 1.192.58 1.771 1.768 1.771h24.04c1.168 0 1.755-.583 1.757-1.745.002-2.256 0-4.512.001-6.768 0-.512.002-.511.52-.515.271-.002.541.008.809-.058.996-.246 1.69-1.044 1.694-2.069.016-3.697.019-7.396.001-11.094zm-28.45-14.137h16.01c.548 0 .554.007.554.561.001 2.243-.001 4.486.001 6.73.001.811.249 1.059 1.06 1.059l5.731.001c.458 0 .479.021.481.483.003.887.002 1.775 0 2.662-.001.477-.024.498-.504.499h-23.331c-.55 0-.552-.001-.552-.561v-10.871c-.001-.559.003-.563.55-.563zm23.285 34.417h-23.263c-.572 0-.574-.002-.574-.579-.001-1.997-.001-3.994.001-5.991 0-.464.023-.486.478-.487h23.41c.478 0 .499.02.499.503.002 1.997.001 3.994 0 5.991.001.558-.004.563-.551.563z"/><path d="m159.779 440.669v-7.897h2.779c.375 0 .726.061 1.053.182s.612.292.855.513a2.392 2.392 0 0 1 .783 1.798c0 .375-.07.715-.21 1.02s-.331.568-.573.789c-.243.221-.528.392-.855.513s-.678.182-1.053.182h-1.29v2.901h-1.489zm2.801-4.313c.39 0 .684-.111.882-.331a1.1 1.1 0 0 0 .298-.761c0-.14-.024-.276-.072-.408s-.121-.248-.221-.347c-.099-.099-.223-.178-.37-.237s-.32-.089-.518-.089h-1.312v2.173zm3.728-3.585h1.731l3.177 5.294h.088l-.088-1.522v-3.772h1.478v7.897h-1.566l-3.353-5.592h-.088l.088 1.522v4.07h-1.467zm11.614 3.563h3.872a3.368 3.368 0 0 1 .077.695c0 .507-.077.985-.231 1.434s-.397.849-.728 1.202a3.646 3.646 0 0 1 -1.268.871c-.493.206-1.055.309-1.688.309a4.272 4.272 0 0 1 -1.622-.309 4.033 4.033 0 0 1 -2.217-2.167 4.058 4.058 0 0 1 -.331-1.649c0-.595.11-1.145.331-1.649s.518-.939.894-1.307c.375-.367.816-.654 1.323-.86s1.048-.309 1.622-.309c.64 0 1.211.11 1.715.331s.935.526 1.296.915l-1.025 1.004a2.732 2.732 0 0 0 -.861-.623c-.316-.143-.695-.215-1.136-.215a2.76 2.76 0 0 0 -1.026.193 2.583 2.583 0 0 0 -.85.546c-.242.235-.436.52-.579.855s-.215.708-.215 1.119c0 .412.072.785.215 1.12s.338.62.584.855.531.418.855.546a2.77 2.77 0 0 0 1.037.193c.419 0 .773-.061 1.064-.182.29-.121.538-.278.744-.469.148-.132.275-.3.381-.502s.189-.428.248-.678h-2.482v-1.269zm46.097-5.035c-.006-1.224-.959-2.121-2.189-2.14-.924-.014-.832.12-.834-.867-.003-1.097-.007-2.194.003-3.292a1.389 1.389 0 0 0 -.362-.976c-2.342-2.668-4.678-5.342-7.019-8.011-.12-.137-.275-.244-.414-.366h-18.641c-.794.293-1.14.868-1.138 1.709.01 3.748.004 7.496.004 11.243 0 .556-.003.589-.55.551-1.497-.102-2.516.986-2.497 2.492.044 3.476.013 6.953.014 10.429.001 1.58.867 2.443 2.45 2.449.582.002.582.002.582.6 0 2.219-.001 4.438.001 6.657.001 1.192.58 1.771 1.768 1.771h24.04c1.168 0 1.755-.583 1.757-1.745.002-2.256 0-4.512.001-6.768 0-.512.002-.511.52-.515.271-.002.541.008.809-.058.997-.246 1.69-1.044 1.694-2.069.016-3.697.018-7.396.001-11.094zm-28.451-14.137h16.01c.548 0 .554.007.554.561.001 2.243-.001 4.486.001 6.73.001.811.249 1.059 1.06 1.059l5.731.001c.458 0 .479.021.481.483.003.887.002 1.775 0 2.662-.001.477-.024.498-.504.499h-23.331c-.55 0-.552-.001-.552-.561v-10.871c0-.559.004-.563.55-.563zm23.286 34.417h-23.263c-.572 0-.574-.002-.574-.579-.001-1.997-.001-3.994.001-5.991 0-.464.023-.486.478-.487h23.41c.478 0 .499.02.499.503.002 1.997.001 3.994 0 5.991.001.558-.004.563-.551.563z"/><path d="m205.111 432.771h1.699l2.967 7.897h-1.644l-.651-1.886h-3.044l-.651 1.886h-1.643zm1.886 4.644-.706-1.974-.287-.96h-.088l-.287.96-.706 1.974zm4.334-2.879a.917.917 0 0 1 -.657-.271.903.903 0 0 1 -.27-.656.903.903 0 0 1 .27-.656.909.909 0 0 1 .298-.198.913.913 0 0 1 .359-.072c.257 0 .478.09.662.27.184.181.276.399.276.656s-.092.476-.276.656a.909.909 0 0 1 -.662.271zm-.716 6.133v-5.404h1.445v5.404zm50.429-9.37c-.006-1.224-.959-2.121-2.189-2.14-.924-.014-.832.12-.834-.867-.003-1.097-.007-2.194.003-3.292a1.389 1.389 0 0 0 -.362-.976c-2.342-2.668-4.678-5.342-7.019-8.011-.12-.137-.275-.244-.414-.366h-18.641c-.794.293-1.14.868-1.138 1.709.01 3.748.004 7.496.004 11.243 0 .556-.003.589-.55.551-1.497-.102-2.516.986-2.497 2.492.044 3.476.013 6.953.014 10.429.001 1.58.867 2.443 2.45 2.449.582.002.582.002.582.6 0 2.219-.001 4.438.001 6.657.001 1.192.58 1.771 1.768 1.771h24.04c1.168 0 1.755-.583 1.757-1.745.002-2.256 0-4.512.001-6.768 0-.512.002-.511.52-.515.271-.002.541.008.809-.058.996-.246 1.69-1.044 1.694-2.069.016-3.697.018-7.396.001-11.094zm-28.451-14.137h16.01c.548 0 .554.007.554.561.001 2.243-.001 4.486.001 6.73.001.811.249 1.059 1.06 1.059l5.731.001c.458 0 .479.021.481.483.003.887.002 1.775 0 2.662-.001.477-.024.498-.504.499h-23.331c-.55 0-.552-.001-.552-.561v-10.871c-.001-.559.004-.563.55-.563zm23.285 34.417h-23.263c-.572 0-.574-.002-.574-.579-.001-1.997-.001-3.994.001-5.991 0-.464.023-.486.478-.487h23.41c.478 0 .499.02.499.503.002 1.997.001 3.994 0 5.991.002.558-.003.563-.551.563z"/><path d="m236.361 440.845c-.338 0-.662-.048-.971-.143s-.592-.239-.849-.43-.481-.425-.673-.7a3.385 3.385 0 0 1 -.452-.965l1.401-.551c.103.397.283.726.54.987s.596.392 1.015.392c.154 0 .303-.02.447-.061.143-.04.272-.099.386-.176s.204-.175.27-.292a.822.822 0 0 0 .099-.408.99.99 0 0 0 -.077-.397.941.941 0 0 0 -.259-.331 2.31 2.31 0 0 0 -.475-.298 7.293 7.293 0 0 0 -.722-.298l-.485-.176a3.669 3.669 0 0 1 -.645-.298c-.217-.125-.413-.276-.59-.452s-.322-.384-.436-.623-.171-.509-.171-.81a2.069 2.069 0 0 1 .7-1.572c.224-.202.492-.36.805-.474s.66-.171 1.042-.171c.397 0 .74.053 1.031.16s.537.243.739.408.366.348.491.546c.125.199.217.386.276.563l-1.312.551a1.41 1.41 0 0 0 -.402-.596c-.195-.176-.462-.265-.8-.265-.324 0-.592.075-.805.226s-.32.348-.32.59c0 .235.103.436.309.601s.533.325.982.48l.497.165c.316.111.605.237.866.381.261.143.485.314.673.513a2.1 2.1 0 0 1 .43.678c.1.254.149.546.149.877 0 .412-.083.767-.248 1.064a2.283 2.283 0 0 1 -.634.734 2.754 2.754 0 0 1 -.872.43 3.445 3.445 0 0 1 -.95.141zm3.155-8.074h1.61l1.633 4.754.287 1.015h.088l.309-1.015 1.699-4.754h1.61l-2.879 7.897h-1.566zm11.581 3.563h3.871a3.145 3.145 0 0 1 .078.695c0 .507-.078.985-.232 1.434s-.397.849-.728 1.202a3.636 3.636 0 0 1 -1.268.871c-.493.206-1.055.309-1.688.309-.574 0-1.114-.103-1.621-.309s-.949-.492-1.324-.86a4.075 4.075 0 0 1 -1.225-2.956c0-.595.11-1.145.331-1.649s.518-.939.894-1.307a4.043 4.043 0 0 1 1.324-.86 4.263 4.263 0 0 1 1.621-.309c.64 0 1.211.11 1.715.331s.936.526 1.296.915l-1.026 1.004a2.72 2.72 0 0 0 -.861-.623c-.316-.143-.694-.215-1.136-.215-.36 0-.702.065-1.026.193a2.58 2.58 0 0 0 -.849.546c-.243.235-.436.52-.579.855s-.215.708-.215 1.119c0 .412.072.785.215 1.12s.338.62.585.855c.246.235.531.418.854.546.324.129.669.193 1.037.193.419 0 .774-.061 1.064-.182s.539-.278.745-.469c.147-.132.274-.3.38-.502a2.83 2.83 0 0 0 .248-.678h-2.482v-1.269zm46.203-5.035c-.006-1.224-.959-2.121-2.189-2.14-.924-.014-.832.12-.834-.867-.003-1.097-.007-2.194.003-3.292a1.389 1.389 0 0 0 -.362-.976c-2.342-2.668-4.678-5.342-7.019-8.011-.12-.137-.275-.244-.414-.366h-18.641c-.794.293-1.14.868-1.138 1.709.01 3.748.004 7.496.004 11.243 0 .556-.003.589-.55.551-1.497-.102-2.516.986-2.497 2.492.044 3.476.013 6.953.014 10.429.001 1.58.867 2.443 2.45 2.449.582.002.582.002.582.6 0 2.219-.001 4.438.001 6.657.001 1.192.58 1.771 1.768 1.771h24.04c1.168 0 1.755-.583 1.757-1.745.002-2.256 0-4.512.001-6.768 0-.512.002-.511.52-.515.271-.002.541.008.809-.058.996-.246 1.69-1.044 1.694-2.069.016-3.697.019-7.396.001-11.094zm-28.45-14.137h16.01c.548 0 .554.007.554.561.001 2.243-.001 4.486.001 6.73.001.811.249 1.059 1.06 1.059l5.731.001c.458 0 .479.021.481.483.003.887.002 1.775 0 2.662-.001.477-.024.498-.504.499h-23.331c-.55 0-.552-.001-.552-.561v-10.871c-.001-.559.003-.563.55-.563zm23.285 34.417h-23.263c-.572 0-.574-.002-.574-.579-.001-1.997-.001-3.994.001-5.991 0-.464.023-.486.478-.487h23.41c.478 0 .499.02.499.503v5.991c.001.558-.004.563-.551.563z"/><path d="m272.966 434.183v1.831h3.165v1.412h-3.165v1.831h3.518v1.412h-5.007v-7.897h5.007v1.412h-3.518zm4.886 6.486v-7.897h2.779c.375 0 .726.061 1.053.182s.612.292.855.513.434.483.574.789c.14.305.209.642.209 1.009 0 .375-.07.715-.209 1.02-.14.305-.331.568-.574.789s-.528.392-.855.513-.678.182-1.053.182h-1.29v2.901h-1.489zm2.801-4.313c.389 0 .684-.111.882-.331a1.1 1.1 0 0 0 .298-.761c0-.14-.024-.276-.072-.408s-.121-.248-.221-.347a1.08 1.08 0 0 0 -.37-.237 1.387 1.387 0 0 0 -.518-.089h-1.312v2.173zm6.144 4.489c-.338 0-.662-.048-.971-.143s-.592-.239-.849-.43-.482-.425-.673-.7a3.385 3.385 0 0 1 -.452-.965l1.401-.551c.103.397.283.726.541.987.257.261.595.392 1.015.392.154 0 .303-.02.447-.061.143-.04.272-.099.386-.176s.204-.175.27-.292a.822.822 0 0 0 .1-.408.99.99 0 0 0 -.077-.397.941.941 0 0 0 -.259-.331 2.3 2.3 0 0 0 -.474-.298 7.322 7.322 0 0 0 -.723-.298l-.485-.176c-.213-.073-.428-.173-.645-.298s-.414-.276-.59-.452-.322-.384-.436-.623-.171-.509-.171-.81a2.085 2.085 0 0 1 .7-1.572c.224-.202.493-.36.805-.474s.66-.171 1.042-.171c.397 0 .741.053 1.031.16s.537.243.739.408.365.348.491.546c.125.199.217.386.276.563l-1.312.551a1.404 1.404 0 0 0 -.403-.596c-.195-.176-.462-.265-.799-.265-.324 0-.592.075-.805.226s-.32.348-.32.59c0 .235.103.436.309.601s.533.325.982.48l.496.165c.316.111.605.237.866.381.261.143.485.314.673.513a2.1 2.1 0 0 1 .43.678c.099.254.149.546.149.877 0 .412-.083.767-.248 1.064a2.283 2.283 0 0 1 -.634.734 2.754 2.754 0 0 1 -.872.43 3.463 3.463 0 0 1 -.951.141zm34.597-1.677 4.004-4.985h-3.827v-1.412h5.559v1.5l-3.96 4.985h4.004v1.412h-5.779v-1.5zm7.015-6.397h1.489v7.897h-1.489zm3.077 7.898v-7.897h2.779c.375 0 .726.061 1.053.182s.612.292.855.513.434.483.574.789c.14.305.209.642.209 1.009 0 .375-.07.715-.209 1.02-.14.305-.331.568-.574.789s-.528.392-.855.513-.678.182-1.053.182h-1.29v2.901h-1.489zm2.802-4.313c.389 0 .684-.111.882-.331a1.1 1.1 0 0 0 .298-.761c0-.14-.024-.276-.072-.408s-.121-.248-.221-.347a1.08 1.08 0 0 0 -.37-.237 1.387 1.387 0 0 0 -.518-.089h-1.312v2.173z"/></g><path d="m300.133 433.27h9.067v2.242h-9.067zm0 3.866h9.067v2.243h-9.067z" opacity=".61"/><path d="m156.756 478.878h1.607c1.263 0 2.114.812 2.114 1.974 0 1.161-.851 1.973-2.114 1.973h-1.607zm1.584 3.586c1.049 0 1.725-.665 1.725-1.612s-.677-1.613-1.725-1.613h-1.167v3.225zm6.799-1.613c0-1.15.879-2.007 2.075-2.007 1.184 0 2.069.851 2.069 2.007s-.885 2.007-2.069 2.007c-1.195 0-2.075-.856-2.075-2.007zm3.727 0c0-.942-.705-1.635-1.652-1.635-.953 0-1.663.693-1.663 1.635 0 .941.71 1.635 1.663 1.635.948 0 1.652-.693 1.652-1.635zm10.73-1.973-1.331 3.947h-.44l-1.156-3.366-1.161 3.366h-.434l-1.331-3.947h.429l1.139 3.394 1.178-3.394h.389l1.161 3.411 1.156-3.411zm8.135 0v3.947h-.344l-2.537-3.202v3.202h-.417v-3.947h.344l2.543 3.203v-3.203zm5.362 0h.417v3.586h2.21v.361h-2.627zm6.968 1.973c0-1.15.879-2.007 2.075-2.007 1.184 0 2.069.851 2.069 2.007s-.885 2.007-2.069 2.007c-1.195 0-2.075-.856-2.075-2.007zm3.727 0c0-.942-.705-1.635-1.652-1.635-.953 0-1.663.693-1.663 1.635 0 .941.71 1.635 1.663 1.635.947 0 1.652-.693 1.652-1.635zm7.848.919h-2.199l-.474 1.054h-.434l1.804-3.947h.412l1.804 3.947h-.44zm-.152-.338-.947-2.12-.947 2.12zm5.796-2.554h1.607c1.263 0 2.114.812 2.114 1.974 0 1.161-.851 1.973-2.114 1.973h-1.607zm1.584 3.586c1.049 0 1.725-.665 1.725-1.612s-.677-1.613-1.725-1.613h-1.167v3.225zm15.177-.694h-2.199l-.474 1.054h-.434l1.804-3.947h.412l1.804 3.947h-.44zm-.152-.338-.947-2.12-.947 2.12zm5.796-2.554h.417v3.586h2.21v.361h-2.627zm7.397 0h.417v3.586h2.21v.361h-2.627zm13.367.361v1.551h2.041v.361h-2.041v1.675h-.417v-3.947h2.706v.361h-2.289zm7.229-.361h.417v3.947h-.417zm5.778 0h.417v3.586h2.21v.361h-2.627zm10.188 3.586v.361h-2.791v-3.947h2.706v.361h-2.289v1.404h2.041v.355h-2.041v1.466zm11.028-3.225v1.551h2.041v.361h-2.041v1.675h-.417v-3.947h2.706v.361h-2.289zm6.828 1.612c0-1.15.879-2.007 2.075-2.007 1.184 0 2.069.851 2.069 2.007s-.885 2.007-2.069 2.007c-1.196 0-2.075-.856-2.075-2.007zm3.726 0c0-.942-.705-1.635-1.652-1.635-.953 0-1.663.693-1.663 1.635 0 .941.71 1.635 1.663 1.635.948 0 1.652-.693 1.652-1.635zm8.125 1.974-.902-1.269a2.884 2.884 0 0 1 -.316.017h-1.06v1.252h-.417v-3.947h1.477c1.004 0 1.613.507 1.613 1.353 0 .62-.327 1.054-.902 1.24l.964 1.353h-.457zm-.023-2.594c0-.632-.417-.992-1.207-.992h-1.048v1.979h1.048c.79 0 1.207-.367 1.207-.987zm9.579-1.353v3.947h-.4v-3.158l-1.551 2.656h-.197l-1.551-2.639v3.14h-.4v-3.947h.344l1.714 2.926 1.697-2.926h.344zm7.837 2.892h-2.199l-.473 1.054h-.434l1.804-3.947h.411l1.804 3.947h-.44zm-.152-.338-.947-2.12-.947 2.12zm6.365-2.193h-1.387v-.361h3.192v.361h-1.387v3.586h-.417v-3.586zm6.106 3.107.164-.321c.282.276.784.479 1.302.479.739 0 1.06-.31 1.06-.699 0-1.083-2.43-.417-2.43-1.877 0-.581.451-1.083 1.455-1.083.446 0 .908.13 1.224.35l-.141.333a2.03 2.03 0 0 0 -1.083-.327c-.722 0-1.043.321-1.043.716 0 1.083 2.43.429 2.43 1.866 0 .581-.462 1.077-1.472 1.077-.592-.002-1.173-.21-1.466-.514z" opacity=".61"/></g><path d="m237.456 181.676c-.067.535-.067 1.143-.067 1.74 0 2.32.463 4.55 1.299 6.602l.747 1.539 2.955 7.561 15.352 39.163 13.389 34.2c3.82 6.904 9.937 12.324 17.314 15.212l2.292.842c.089.028.24.028.362.061l36.698 12.619v.028l14.03 4.818.959.323c.033 0 .089.033.123.033a50.594 50.594 0 0 1 8.063 2.777c5.983 2.582 11.409 6.262 16.043 10.751a51.763 51.763 0 0 1 5.175 5.76 49.465 49.465 0 0 1 3.703 5.42c4.896 8.13 7.706 17.688 7.706 27.865 0 1.818-.089 3.574-.273 5.359a29.924 29.924 0 0 1 -.273 2.297v.061a79.005 79.005 0 0 1 -.424 2.431c-.156.786-.301 1.567-.48 2.348a4.916 4.916 0 0 1 -.095.273 38.776 38.776 0 0 1 -.597 2.359 22.404 22.404 0 0 1 -.714 2.225 24.242 24.242 0 0 1 -.842 2.32 22.075 22.075 0 0 1 -.959 2.32 48.484 48.484 0 0 1 -3.502 6.597 54.624 54.624 0 0 1 -5.838 7.779c17.22-18.513 28.668-42.419 31.517-68.873.48-4.338.725-8.738.725-13.166 0-2.827-.123-5.626-.307-8.437-2.169-31.724-16.612-60.096-38.655-80.344-6.078-5.627-12.72-10.634-19.863-14.883l-13.495-6.898-68.382-35.092a16.832 16.832 0 0 0 -6.653-1.361c-8.852.003-16.163 6.756-17.033 15.371z" fill="#7f7f7f"/><path d="m237.456 181.676c-.067.535-.067 1.143-.067 1.74 0 2.32.463 4.55 1.299 6.602l.747 1.539 2.955 7.561 15.352 39.163 13.389 34.2c3.82 6.904 9.937 12.324 17.314 15.212l2.292.842c.089.028.24.028.362.061l36.698 12.619v.028l14.03 4.818.959.323c.033 0 .089.033.123.033a50.594 50.594 0 0 1 8.063 2.777c5.983 2.582 11.409 6.262 16.043 10.751a51.763 51.763 0 0 1 5.175 5.76 49.465 49.465 0 0 1 3.703 5.42c4.896 8.13 7.706 17.688 7.706 27.865 0 1.818-.089 3.574-.273 5.359a29.924 29.924 0 0 1 -.273 2.297v.061a79.005 79.005 0 0 1 -.424 2.431c-.156.786-.301 1.567-.48 2.348a4.916 4.916 0 0 1 -.095.273 38.776 38.776 0 0 1 -.597 2.359 22.404 22.404 0 0 1 -.714 2.225 24.242 24.242 0 0 1 -.842 2.32 22.075 22.075 0 0 1 -.959 2.32 48.484 48.484 0 0 1 -3.502 6.597 54.624 54.624 0 0 1 -5.838 7.779c17.22-18.513 28.668-42.419 31.517-68.873.48-4.338.725-8.738.725-13.166 0-2.827-.123-5.626-.307-8.437-2.169-31.724-16.612-60.096-38.655-80.344-6.078-5.627-12.72-10.634-19.863-14.883l-13.495-6.898-68.382-35.092a16.832 16.832 0 0 0 -6.653-1.361c-8.852.003-16.163 6.756-17.033 15.371z" fill="url(#a)"/><path d="m115.697 27c-9.731.173-17.543 8.136-17.543 17.872v311.75c.039 2.175.162 4.322.318 6.502.139 1.149.29 2.342.502 3.502 4.444 25.021 26.214 44.008 52.501 44.008a53.329 53.329 0 0 0 25.422-6.43c.045-.033.123-.078.162-.078l2.721-1.645 11.03-6.491 14.03-8.325.033-276.993c0-18.407-9.212-34.635-23.315-44.276a8.348 8.348 0 0 1 -.954-.652l-54.592-35.7c-2.766-1.829-6.101-2.978-9.675-3.045h-.64z" fill="#7f7f7f"/><path d="m115.697 27c-9.731.173-17.543 8.136-17.543 17.872v311.75c.039 2.175.162 4.322.318 6.502.139 1.149.29 2.342.502 3.502 4.444 25.021 26.214 44.008 52.501 44.008a53.329 53.329 0 0 0 25.422-6.43c.045-.033.123-.078.162-.078l2.721-1.645 11.03-6.491 14.03-8.325.033-276.993c0-18.407-9.212-34.635-23.315-44.276a8.348 8.348 0 0 1 -.954-.652l-54.592-35.7c-2.766-1.829-6.101-2.978-9.675-3.045h-.64z" fill="url(#b)"/><path d="m332.164 311.805-125.517 74.399-1.807 1.087v.396l-14.03 8.309-11.024 6.508-2.705 1.634-.184.089c-7.545 4.099-16.194 6.418-25.406 6.418-26.281 0-48.079-18.976-52.507-44.008 2.102 18.313 8.342 35.359 17.755 50.209 19.383 30.597 52.161 51.882 90.08 55.579h23.186c20.51-2.141 37.635-10.355 55.635-21.447l27.681-16.93c12.469-7.991 46.311-27.647 56.282-38.677a54.494 54.494 0 0 0 5.838-7.773 48.898 48.898 0 0 0 3.502-6.602c.335-.781.652-1.539.959-2.314.29-.77.563-1.545.842-2.331.519-1.506.931-3.017 1.327-4.573.201-.887.385-1.762.569-2.632.602-3.284.931-6.658.931-10.155 0-10.177-2.81-19.735-7.679-27.854a46.854 46.854 0 0 0 -3.703-5.42 50.8 50.8 0 0 0 -5.175-5.76c-4.634-4.489-10.043-8.169-16.043-10.757a49.053 49.053 0 0 0 -8.063-2.771c-.033 0-.089-.033-.123-.033l-.959-.323z" fill="#7f7f7f"/><path d="m332.164 311.805-125.517 74.399-1.807 1.087v.396l-14.03 8.309-11.024 6.508-2.705 1.634-.184.089c-7.545 4.099-16.194 6.418-25.406 6.418-26.281 0-48.079-18.976-52.507-44.008 2.102 18.313 8.342 35.359 17.755 50.209 19.383 30.597 52.161 51.882 90.08 55.579h23.186c20.51-2.141 37.635-10.355 55.635-21.447l27.681-16.93c12.469-7.991 46.311-27.647 56.282-38.677a54.494 54.494 0 0 0 5.838-7.773 48.898 48.898 0 0 0 3.502-6.602c.335-.781.652-1.539.959-2.314.29-.77.563-1.545.842-2.331.519-1.506.931-3.017 1.327-4.573.201-.887.385-1.762.569-2.632.602-3.284.931-6.658.931-10.155 0-10.177-2.81-19.735-7.679-27.854a46.854 46.854 0 0 0 -3.703-5.42 50.8 50.8 0 0 0 -5.175-5.76c-4.634-4.489-10.043-8.169-16.043-10.757a49.053 49.053 0 0 0 -8.063-2.771c-.033 0-.089-.033-.123-.033l-.959-.323z" fill="url(#c)"/><path d="m383.573 358.992a55.64 55.64 0 0 1 -.937 10.16c-.178.87-.362 1.74-.569 2.621-.39 1.561-.803 3.073-1.322 4.584a86.458 86.458 0 0 1 -.842 2.32 58.45 58.45 0 0 1 -.965 2.32 48.967 48.967 0 0 1 -3.491 6.597 53.887 53.887 0 0 1 -5.844 7.773c-9.97 11.036-43.813 30.692-56.282 38.683l-27.681 16.93c-20.292 12.502-39.464 21.352-63.643 21.96-1.143.033-2.264.061-3.374.061-1.561 0-3.1-.028-4.645-.089-40.941-1.561-76.647-23.56-97.24-56.064a118.987 118.987 0 0 1 -17.755-50.209c4.428 25.032 26.225 44.008 52.507 44.008 9.212 0 17.861-2.325 25.406-6.418l.184-.095 2.705-1.628 11.024-6.508 14.03-8.309v-.396l1.807-1.087 125.518-74.406 9.664-5.727.959.323c.028 0 .089.033.123.033a48.954 48.954 0 0 1 8.063 2.771c6 2.587 11.404 6.268 16.043 10.757a51.485 51.485 0 0 1 5.175 5.76 46.98 46.98 0 0 1 3.703 5.42c4.868 8.12 7.679 17.678 7.679 27.855z" fill="#7f7f7f" opacity=".15"/><path d="m383.573 358.992a55.64 55.64 0 0 1 -.937 10.16c-.178.87-.362 1.74-.569 2.621-.39 1.561-.803 3.073-1.322 4.584a86.458 86.458 0 0 1 -.842 2.32 58.45 58.45 0 0 1 -.965 2.32 48.967 48.967 0 0 1 -3.491 6.597 53.887 53.887 0 0 1 -5.844 7.773c-9.97 11.036-43.813 30.692-56.282 38.683l-27.681 16.93c-20.292 12.502-39.464 21.352-63.643 21.96-1.143.033-2.264.061-3.374.061-1.561 0-3.1-.028-4.645-.089-40.941-1.561-76.647-23.56-97.24-56.064a118.987 118.987 0 0 1 -17.755-50.209c4.428 25.032 26.225 44.008 52.507 44.008 9.212 0 17.861-2.325 25.406-6.418l.184-.095 2.705-1.628 11.024-6.508 14.03-8.309v-.396l1.807-1.087 125.518-74.406 9.664-5.727.959.323c.028 0 .089.033.123.033a48.954 48.954 0 0 1 8.063 2.771c6 2.587 11.404 6.268 16.043 10.757a51.485 51.485 0 0 1 5.175 5.76 46.98 46.98 0 0 1 3.703 5.42c4.868 8.12 7.679 17.678 7.679 27.855z" fill="url(#d)" opacity=".15"/></g></svg>