<svg width="62" height="62" viewBox="0 0 62 62" fill="none" xmlns="http://www.w3.org/2000/svg"><rect width="62" height="62" rx="31" fill="white"/><path d="M48.6019 18.7792C46.885 18.7792 45.3645 19.6779 44.4367 21.0592L38.1409 30.43C37.9137 30.7796 37.523 30.9943 37.1015 31C36.3951 31 35.8215 30.392 35.8215 29.6415C35.8215 29.3603 35.8985 29.1 36.0332 28.8853L41.3494 20.4379C42.3965 18.7488 42.4927 16.6417 41.6054 14.8671C40.7181 13.1001 38.9878 12 37.1015 12H9.00192V17.4264H33.2731C33.2731 18.9217 32.1279 20.1415 30.7209 20.1415H9C9 22.07 9.3811 23.9035 10.0682 25.5679H28.1668C28.1668 27.0632 27.0196 28.2792 25.6126 28.2792H11.5542C13.887 31.5757 17.5979 33.7075 21.7785 33.7075H29.439C30.1473 33.7075 30.7209 34.3155 30.7209 35.0679C30.7209 35.8184 30.1473 36.4264 29.4409 36.4264H21.7785L13.2422 50H30.0838C37.1535 50 43.1568 45.1132 45.2528 38.3511L48.1323 29.081C49.0292 26.1474 50.7115 23.5045 53 21.4335C52.1011 19.8432 50.4689 18.7792 48.6019 18.7792ZM48.6019 22.5146C48.0726 22.5146 47.6453 22.0605 47.6453 21.5C47.6453 20.9395 48.0726 20.4835 48.6019 20.4835C49.1332 20.4835 49.5566 20.9395 49.5566 21.5C49.5624 22.0567 49.1332 22.5146 48.6019 22.5146Z" fill="black"/></svg>