<svg xmlns="http://www.w3.org/2000/svg" width="62" height="62" fill="none"><path d="M11.063 11.179c-.201-.003-.399.039-.582.121s-.346.204-.477.356-.227.331-.282.524-.066.396-.034.594l5.837 35.434a1.87 1.87 0 0 0 1.829 1.561h28.002c.33.004.65-.11.902-.322s.42-.508.473-.833l5.837-35.832c.032-.198.021-.401-.034-.594s-.151-.372-.282-.524-.294-.273-.477-.356-.382-.124-.582-.121l-40.129-.007zm24.578 25.609h-8.938l-2.42-12.643h13.523l-2.166 12.643z" fill="#2684ff"/><path d="M50.711 24.145H37.806l-2.166 12.643h-8.937L16.15 49.314c.335.289.761.45 1.203.454h28.009c.33.004.65-.11.902-.322s.42-.508.473-.833l3.974-24.468z" fill="url(#A)"/><defs><linearGradient id="A" x1="53.694" y1="27.686" x2="32.368" y2="44.33" gradientUnits="userSpaceOnUse"><stop offset=".18" stop-color="#0052cc"/><stop offset="1" stop-color="#2684ff"/></linearGradient></defs></svg>