<svg xmlns="http://www.w3.org/2000/svg" width="62" height="62" fill="none"><path d="M31 53c12.15 0 22-9.85 22-22S43.15 9 31 9 9 18.85 9 31s9.85 22 22 22z" fill="red"/><path d="M35.138 30.48v-.056c1.998-.602 3.36-2.05 3.36-4.237 0-3.528-3.008-4.868-5.93-4.868h-9.887v.288l.993.842c1.19.971 1.349 1.16 1.349 2.037v16.191h6.978c3.661 0 7.326-1.315 7.326-5.526-.004-2.479-1.758-4.396-4.189-4.671zm-6.673-6.205h2.84c1.921 0 2.518.266 3.102.816.443.421.645.997.649 1.672 0 .623-.215 1.186-.67 1.62-.567.546-1.349.812-2.776.812h-3.145v-4.92zm3.171 13.454h-3.171v-5.582h3.309c2.789 0 4.104.709 4.104 2.733 0 2.548-2.466 2.849-4.241 2.849z" fill="#fff"/></svg>