<svg xmlns="http://www.w3.org/2000/svg" width="62" height="62" fill="none"><path d="M53 31.189c0 10.336-6.919 16.448-11.768 19.203C38.047 52.202 35.853 53 32.998 53c-6.633 0-9.404-4.057-9.404-7.589.183-12.805-.151-17.788-.164-18.131-.018-.446-.034-1.145-.467-1.192-.263-.029-.433.052-.736.43-.454.605-1.37.845-1.927.521-.673-.391-.799-1.254-.458-2.049.945-2.118 2.461-3.055 4.504-3.026 3.53.05 4.542 2.364 4.542 5.255l-.079 6.724c1.248-1.021 3.083-2.117 6.147-2.117 4.233 0 7.881 3.119 7.881 8.876 0 3.382-.883 5.119-.889 5.136 4.282-3.736 6.655-9.594 6.655-14.446 0-7.94-6.169-17.309-17.704-17.309-9.477 0-17.89 7.973-17.89 17.448 0 5.276 2.743 10.557 6.711 14.046 1.022.899 1.068 2.182.518 2.715-.652.632-1.791.7-2.746-.038C12.529 44.426 9 38.052 9 31.454 9 18.73 18.777 9 30.9 9 42.54 9 53 18.274 53 31.189zM37.743 41.333c0-3.544-1.803-4.782-4.511-4.241-2.177.436-4.382 2.704-4.621 5.858-.039.52-.053 1.383-.011 2.192.11 2.158 1.911 2.952 4.381 2.909 4.098-.072 4.762-4.323 4.762-6.718z" fill="#ee6123"/></svg>