<svg xmlns="http://www.w3.org/2000/svg" width="62" height="62" fill="none"><path d="M51.327 9.918c.239.136.437.335.572.576a1.68 1.68 0 0 1 .205.829 1.68 1.68 0 0 1-.205.829c-.135.24-.333.439-.572.576-.255.137-.54.208-.829.208s-.574-.072-.829-.208c-.241-.136-.44-.335-.575-.576-.145-.252-.22-.538-.219-.829-.005-.29.067-.576.208-.829.136-.241.334-.44.576-.576.255-.137.54-.208.829-.208s.574.072.829.208h.01zm.125 2.382a1.34 1.34 0 0 0 .37-.977 1.35 1.35 0 0 0-.371-.981c-.126-.125-.277-.223-.443-.287s-.343-.094-.52-.087a1.31 1.31 0 0 0-.971.371 1.33 1.33 0 0 0-.371.984c-.008.18.02.36.084.529s.161.323.287.452a1.3 1.3 0 0 0 .971.374c.178.007.355-.023.521-.088a1.29 1.29 0 0 0 .443-.29zm-.465-1.04a.51.51 0 0 1-.294.17l.468.67h-.305l-.433-.638h-.159v.631h-.257v-1.637h.461a.75.75 0 0 1 .478.131c.051.042.092.095.119.155s.041.126.041.192a.49.49 0 0 1-.1.305l-.017.02zm-.724-.02h.19c.264 0 .395-.097.395-.288s-.132-.27-.395-.27h-.19v.558z" fill="#fff"/><path d="M9 31a22 22 0 0 0 22 22 22 22 0 0 0 22-22A22 22 0 0 0 31 9 22 22 0 0 0 9 31z" fill="url(#A)"/><path d="M39.725 33.753c0-1.248-1.457-3.436-1.457-3.436-.347-.521-.166-.694.374-.375l5.396 3.395c.54.347.54.478 0 .811l-5.396 3.415c-.54.347-.693.146-.374-.374 1.457-2.188 1.457-3.436 1.457-3.436zm-11.62 7.466c4.778 0 7.753-3.443 7.75-7.437 0-4.14-2.902-7.628-7.823-7.441-1.386.056-2.604.718-3.533 1.345v-6.868h-2.858v16.23s1.682 4.161 6.46 4.161l.003.011zm-3.606-4.826v-5.202a5.13 5.13 0 0 1 3.28-2.011c3.308-.415 5.329 2.223 5.329 4.675a4.72 4.72 0 0 1-.444 1.89c-.278.592-.675 1.121-1.168 1.551a4.72 4.72 0 0 1-3.627 1.136 5.01 5.01 0 0 1-3.37-2.038z" fill="#fff"/><defs><linearGradient id="A" x1="16.976" y1="47.141" x2="50.261" y2="12.467" gradientUnits="userSpaceOnUse"><stop stop-color="#0cd973"/><stop offset="1" stop-color="#00cfff"/></linearGradient></defs></svg>