<svg width="62" height="62" viewBox="0 0 62 62" fill="none" xmlns="http://www.w3.org/2000/svg"><path d="M12.8125 52.9548C21.8276 52.9648 31.8531 52.9942 40.2256 52.9999C46.2721 52.9999 51.1398 48.0782 51.1398 42.0503C51.1398 36.0224 46.2721 31.1008 40.2256 31.1008C25.076 31.1341 15.0967 47.5699 12.8125 52.9548Z" fill="url(#paint0_linear_2280_101)"/><path d="M12.7392 9C11.2219 9 10.0004 10.226 10.0004 11.749V14.5089L10 52.9582C15.478 44.7311 14.8919 42.6797 15.2752 34.1532L15.478 24.1629V11.749C15.4777 10.226 14.2565 9 12.7392 9Z" fill="url(#paint1_linear_2280_101)"/><defs><linearGradient id="paint0_linear_2280_101" x1="30.1661" y1="45.8648" x2="12.9198" y2="52.9269" gradientUnits="userSpaceOnUse"><stop stop-color="#F26835"/><stop offset="1" stop-color="#DC450C"/></linearGradient><linearGradient id="paint1_linear_2280_101" x1="12.7418" y1="30.4053" x2="12.7418" y2="53.0632" gradientUnits="userSpaceOnUse"><stop stop-color="#F26835"/><stop offset="1" stop-color="#DC450C"/></linearGradient></defs></svg>