<svg xmlns="http://www.w3.org/2000/svg" width="62" height="62" fill="none"><path d="M31 53c12.15 0 22-9.85 22-22S43.15 9 31 9 9 18.85 9 31s9.85 22 22 22z" fill="#fe4901"/><path d="M33.342 33.369l-3.935 10.268a.87.87 0 0 1-.87.562c-.328-.015-.65-.201-.788-.557l-8.453-21.796a.37.37 0 0 1 .153-.462c.143-.09.343-.095.491.055l7.619 7.637c-.43 1.225.133 2.721 1.73 3.213a1.89 1.89 0 0 0 1.095.01c2.047-.608 2.446-2.892 1.192-4.147a2.41 2.41 0 0 0-2.523-.567l-7.64-7.662c-.148-.151-.143-.347-.046-.482.092-.141.276-.221.471-.146l21.804 8.49c.373.146.558.477.558.808a.86.86 0 0 1-.563.808l-10.296 3.967z" fill="#fff"/></svg>