<svg xmlns="http://www.w3.org/2000/svg" width="62" height="62" fill="none"><g fill-rule="evenodd" fill="#0c3b7c"><path d="M53 17.262A8.27 8.27 0 0 0 44.736 9H17.264A8.27 8.27 0 0 0 9 17.262V43.77a8.27 8.27 0 0 0 8.264 8.262h27.473A8.27 8.27 0 0 0 53 43.77V17.262z"/><path d="M9.001 35.733h21.975v16.298H9.001V35.733z"/></g><path d="M28.998 37.483l-3.544-.003v-4.238c0-.905.351-1.377 1.126-1.484h2.418c1.724 0 2.84 1.087 2.84 2.847 0 1.807-1.087 2.877-2.84 2.878zm-3.544-11.429v-1.115c0-.976.413-1.44 1.318-1.5h1.814c1.555 0 2.487.93 2.487 2.488 0 1.186-.639 2.571-2.43 2.571h-3.189v-2.444zm8.069 4.229l-.641-.36.559-.478c.651-.559 1.742-1.818 1.742-3.989 0-3.325-2.578-5.469-6.569-5.469h-4.553v-.002h-.519c-1.183.044-2.13 1.006-2.143 2.195v18.867h7.305c4.435 0 7.298-2.414 7.298-6.154 0-2.014-.925-3.735-2.48-4.61z" fill="#fff"/><path d="M37.905 38.44a2.6 2.6 0 0 1 2.595-2.607c1.436 0 2.604 1.166 2.604 2.607a2.61 2.61 0 0 1-2.604 2.607c-1.432 0-2.595-1.168-2.595-2.607z" fill="#00bafc"/></svg>