<svg xmlns="http://www.w3.org/2000/svg" width="62" height="62" fill="none"><g clip-path="url(#A)" fill="#0071f7"><path d="M30.671 46.854c-5.291 0-9.565-4.07-9.565-9.362 0-5.088 4.274-9.362 9.565-9.362s9.565 4.274 9.565 9.362c0 5.291-4.274 9.362-9.565 9.362zm14.246-16.688c-2.646-4.884-7.937-8.141-14.042-8.141-3.663 0-6.919 1.221-9.565 3.053V12.053c0-1.628-1.425-3.053-3.053-3.053C16.425 9 15 10.425 15 12.053v25.643c.204 8.548 7.123 15.264 15.671 15.264 6.105 0 11.397-3.46 14.042-8.344l.203-14.449z"/><path d="M44.692 44.555l.215-14.416s1.506 2.905 1.345 7.477-1.56 6.939-1.56 6.939z"/></g><defs><clipPath id="A"><path fill="#fff" transform="translate(15 9)" d="M0 0h31.306v44H0z"/></clipPath></defs></svg>