<svg xmlns="http://www.w3.org/2000/svg" width="62" height="62" fill="none"><rect width="62" height="62" rx="31" fill="#fff"/><path d="M11.445 52.794v-6.377h5.314V15.377h-5.314V9h21.038c9.565 0 15.517 4.252 15.517 11.903 0 4.881-2.977 7.865-6.802 9.353 5.527 1.488 9.353 5.101 9.353 10.202C50.555 48.536 44.179 53 33.544 53H11.445v-.206zm12.54-37.41v11.904h7.865c5.952 0 8.928-2.126 8.928-5.952 0-4.038-3.189-5.952-9.14-5.952l-7.653-.001zm0 31.034h8.928c7.015 0 10.416-2.126 10.416-6.377s-3.614-6.376-10.841-6.376h-8.502v12.753z" fill="#3e3c42"/></svg>