<svg xmlns="http://www.w3.org/2000/svg" width="62" height="62" fill="none"><rect width="62" height="62" rx="31" fill="#fff"/><g clip-path="url(#A)"><path d="M28.88 34.2c.36-3.44 2.52-6.24 5.04-6.24s3.88 2.8 3.52 6.24-2.44 6.28-4.8 6.28-4.28-2.16-3.76-6.28zM31 49.8A18.76 18.76 0 0 1 16.52 43c3.12 1 6.6.12 9.32-2.56a8.96 8.96 0 0 0 .8-.92c1.24 2.68 3.64 4.04 6.04 4.04 4.08 0 7.52-4.2 7.92-9.4s-2.52-9.32-6.4-9.32a7.56 7.56 0 0 0-4 1.08l1.2-7a1.96 1.96 0 0 0-.36-1.6c-.36-.56-.68-.8-1.16-.8h-5.6a.68.68 0 0 0-.64.6c-.149.659-.256 1.327-.32 2-.04.44.28.6.64.6h4.08l-2.28 13.72a9.88 9.88 0 0 1-2.6 4.92c-2.24 2.24-6.36 2.76-8.8.32-.84-.88-2.16-3.04-2.16-7.68 0-10.383 8.417-18.8 18.8-18.8S49.8 20.617 49.8 31 41.383 49.8 31 49.8zM31 9C18.85 9 9 18.85 9 31s9.85 22 22 22 22-9.85 22-22A22 22 0 0 0 31 9z" fill="#212124"/></g><defs><clipPath id="A"><path fill="#fff" transform="translate(9 9)" d="M0 0h44v44H0z"/></clipPath></defs></svg>