<svg xmlns="http://www.w3.org/2000/svg" width="62" height="62" fill="none" xmlns:v="https://vecta.io/nano"><rect width="62" height="62" rx="31" fill="#fff"/><path d="M45.8 27.39c-.262-2.971-1.486-5.767-3.467-7.951a13.64 13.64 0 0 0-7.517-4.223 13.42 13.42 0 0 0-8.508 1.252c-2.622 1.34-4.749 3.524-6.031 6.204-3.03.087-5.915 1.34-8.013 3.553s-3.292 5.155-3.263 8.213 1.253 6 3.38 8.155C14.537 44.748 17.421 46 20.451 46h23.28c2.273-.029 4.487-.874 6.177-2.417s2.768-3.67 3.03-5.971a9.5 9.5 0 0 0-1.632-6.495c-1.311-1.864-3.263-3.174-5.507-3.728zm-2.098 16.193H20.451c-2.389-.029-4.662-.99-6.352-2.709s-2.651-4.019-2.651-6.436a9.16 9.16 0 0 1 2.564-6.466c1.661-1.748 3.933-2.738 6.323-2.796l1.165-.029c2.01.029 4.341 1.66 4.895 3.844.699 2.738-.787 5.563-3.351 6.262-.962.262-1.952.233-2.885-.146-.932-.291-1.457-.146-1.719.408s-.117 1.019.554 1.514c1.428.67 3.03.816 4.545.379 3.7-1.048 5.886-5.097 4.895-9.058-.35-1.311-1.078-2.505-2.069-3.437a6.97 6.97 0 0 0-3.584-1.777 11.28 11.28 0 0 1 5.07-4.689c2.156-.961 4.545-1.223 6.847-.728a11.03 11.03 0 0 1 5.944 3.495c1.573 1.777 2.506 4.019 2.739 6.378l.146 1.777 1.719.408c1.632.408 3.088 1.398 4.05 2.767a7.21 7.21 0 0 1 1.224 4.805c-.175 1.689-.991 3.262-2.244 4.398a6.61 6.61 0 0 1-4.574 1.835z" fill="#071124"/></svg>