<svg xmlns="http://www.w3.org/2000/svg" width="62" height="62" viewBox="0 0 62 62" fill="none">
  <path fill="#079A6E" d="M31 0A31 31 0 0 0 0 31a31 31 0 0 0 31 31a31 31 0 0 0 31-31A31 31 0 0 0 31 0M18.6 12.4h14.84c6.04 0 10.06 3.634 10.06 9.064c0 2.636-0.898 4.804-2.805 6.684C44.972 30.53 46.5 33.05 46.5 36.962c0 7.43-6.86 13.04-16.01 13.04H18.598v-39zm5.384 5.032v14.28h.18c.6-1.12 2.21-2.064 5.8-3.162c5.27-1.704 7.85-3.94 7.85-6.88c0-2.588-1.98-4.296-4.97-4.296zm12.56 13.6c-1.98 0.994-4.31 1.936-7.14 2.864c-3.18 1.002-5.46 3.586-5.46 6.22v5.98h6.12c6.18 0 10.72-3.47 10.72-8.17c0-2.76-1.62-5.39-4.27-6.92z"/>
</svg>