<svg xmlns="http://www.w3.org/2000/svg" width="62" height="62" fill="none"><rect width="62" height="62" rx="31" fill="#fff"/><g clip-path="url(#A)"><path d="M37.521 15.86c-1.713 2.288-2.125 3.05-3.779 3.05H9.065v29.345h9.682c2.184 0 4.31-1.057 5.667-2.817 1.772-2.347 2.008-3.05 3.718-3.05h24.736V13.043h-9.741a7.03 7.03 0 0 0-5.606 2.817zm7.672 18.957H34.862c-2.243 0-4.31.939-5.667 2.758-1.772 2.347-2.125 3.052-3.779 3.052H16.68V26.542h10.332c2.243 0 4.31-1.057 5.667-2.817 1.772-2.288 2.243-2.994 3.836-2.994h8.678v14.086z" fill="#010202"/></g><defs><clipPath id="A"><path fill="#fff" transform="translate(9 13)" d="M0 0h44v35.357H0z"/></clipPath></defs></svg>