<svg xmlns="http://www.w3.org/2000/svg" width="62" height="62" fill="none"><rect width="62" height="62" rx="31" fill="#fff"/><path d="M27.711 9.171c-2.004.442-4.007 1.341-5.569 2.49-2.681 1.989-4.921 5.245-5.805 8.457-.457 1.635-.442 4.773 0 6.424.589 2.136 1.974 4.7 3.551 6.556 1.871 2.21 1.96 2.49 2.077 6.423.074 2.416.147 3.197.324 3.536 1.414 2.637 8.177 3.934 13.495 2.563 1.974-.501 3.669-1.473 4.199-2.401.118-.206.206-1.429.265-3.551.088-3.889.206-4.317 1.694-6.085 1.915-2.284 3.241-4.67 3.919-7.028.427-1.532.471-4.773.074-6.247-1.164-4.302-4.169-8.015-7.985-9.9-2.313-1.134-3.344-1.355-6.556-1.4-1.974-.029-2.991.015-3.683.162zm6.085.884c1.576.28 3.256.884 4.567 1.65 3.168 1.856 5.746 5.318 6.659 8.957.28 1.164.339 3.669.088 4.891-.442 2.239-1.783 4.818-3.639 7.057-1.915 2.298-2.298 3.58-2.254 7.543.029 2.858.015 2.902-1.576 3.742-1.503.796-3.241 1.179-5.834 1.267-3.683.118-6.777-.619-8.162-1.945l-.648-.634V40.02c0-4.022-.339-5.098-2.269-7.425-2.578-3.094-3.816-6.129-3.801-9.355 0-1.856.354-3.33 1.208-5.127 2.092-4.376 5.731-7.249 10.21-8.059 1.459-.265 3.934-.265 5.451 0zm-9.989 8.526c-1.797.825-2.269 3.669-.899 5.466l.383.501-.324.295c-.177.162-.604.412-.958.545-.486.192-.633.324-.633.589 0 .486.221.56.987.339.442-.118.928-.413 1.341-.825.796-.751 1.252-.825 1.562-.221a3.36 3.36 0 0 0 .501.678c.265.221.28.324.147.648-.088.221-.162 1.061-.162 1.871 0 1.665.56 4.464 1.459 7.293.457 1.459.545 1.621.855 1.621.633 0 .619-.236-.177-2.947-.987-3.3-1.341-6.291-.928-7.558.147-.427.265-.545.53-.545.958 0 1.871-.339 2.46-.899.737-.692 1.105-.722 1.665-.133.457.471 1.562.884 2.387.884.707 0 .825.413.737 2.505-.074 1.768-.589 4.081-1.562 6.998-.471 1.4-.427 1.753.191 1.665.251-.03.413-.354.855-1.665 1.385-4.184 2.033-7.72 1.606-8.928-.147-.427-.133-.516.192-.854.191-.206.427-.53.516-.707.221-.427.663-.295 1.414.398 1.267 1.193 2.431 1.429 2.431.501 0-.25-.133-.368-.53-.501a4 4 0 0 1-1.031-.619c-.516-.457-.516-.457-.236-.766.648-.692.84-1.296.84-2.593 0-1.09-.044-1.341-.398-1.93-.766-1.311-2.166-1.65-3.212-.766-.766.648-1.09 1.444-1.09 2.696 0 1.09.147 1.562.751 2.534.25.383.25.413-.059.81-.177.221-.398.383-.516.354-.103-.029-.457-.074-.781-.118-.972-.103-1.193-.177-1.591-.486l-.398-.309.427-.545c.53-.692.751-1.355.751-2.313 0-1.105-.368-2.033-1.046-2.652-.501-.442-.678-.516-1.341-.516-.575 0-.869.088-1.252.383-1.37 1.031-1.606 3.506-.471 5.053l.412.589-.442.368c-.413.354-.604.412-2.004.589-.56.088-.648.044-.943-.368-.309-.442-.309-.486-.074-.855 1.002-1.532 1.076-3.285.206-4.582-.678-.987-1.679-1.37-2.549-.972zm7.661 1.002c.53.412.81 1.12.81 2.033 0 1.193-.589 2.063-1.414 2.063-1.459 0-1.856-3.094-.545-4.125.472-.368.648-.368 1.149.03zm-6.394-.03c.707.383 1.105 2.151.707 3.197-.427 1.134-1.429 1.429-2.107.634-1.341-1.606-.221-4.685 1.4-3.831zm12.582.177c1.075.84 1.105 3.123.044 3.86-.516.368-.928.28-1.414-.265-.943-1.075-.663-3.3.486-3.772.427-.177.427-.177.884.177zM22.217 45.438c-.221.206-.088 1.061.236 1.532 2.048 3.035 10.696 3.889 15.514 1.532.589-.295 1.282-.766 1.576-1.09.619-.692.855-1.547.501-1.886-.339-.339-.619-.162-.825.53-.457 1.562-3.256 2.608-7.322 2.77-3.182.118-5.79-.354-7.514-1.355-.766-.457-1.385-1.164-1.385-1.621 0-.398-.516-.678-.781-.413zm3.49 4.834c-.147.368.074.958.501 1.355 1.297 1.237 4.862 1.738 7.47 1.075 1.93-.486 2.947-1.267 2.843-2.166-.074-.619-.663-.663-.869-.074-.368 1.075-3.256 1.827-5.775 1.503-1.635-.206-2.74-.678-3.182-1.37-.368-.56-.84-.722-.987-.324z" fill="#000"/></svg>