<svg xmlns="http://www.w3.org/2000/svg" width="62" height="62" viewBox="0 0 400 400">
  <rect width="62" height="62" rx="31" fill="#fff"/>
  <g transform="translate(0,400) scale(0.1,-0.1)" fill="#000000">
    <path d="M1760 3465c-136-30-272-91-378-169-182-135-334-356-394-574-31-111-30-324 0-436 40-145 134-319 241-445 127-150 133-169 141-436 5-164 10-217 22-240 96-179 555-267 916-174 134 34 249 100 285 163 8 14 14 97 18 241 6 264 14 293 115 413 130 155 220 317 266 477 29 104 32 324 5 424-79 292-283 544-542 672-157 77-227 92-445 95-134 2-203-1-250-11zm413-60c107-19 221-60 310-112 215-126 390-361 452-608 19-79 23-249 6-332-30-152-121-327-247-479-130-156-156-243-153-512 2-194 1-197-107-254-102-54-220-80-396-86-250-8-460 42-554 132l-44 43v174c0 273-23 346-154 504-175 210-259 416-258 635 0 126 24 226 82 348 142 297 389 492 693 547 99 18 267 18 370 0z"/>
    <path d="M1495 2826c-122-56-154-249-61-371l26-34-22-20c-12-11-41-28-65-37-33-13-43-22-43-40 0-33 15-38 67-23 30 8 63 28 91 56 54 51 85 56 106 15 8-15 23-35 34-46 18-15 19-22 10-44-6-15-11-72-11-127 0-113 38-303 99-495 31-99 37-110 58-110 43 0 42 16-12 200-67 224-91 427-63 513 10 29 18 37 36 37 65 0 127 23 167 61 50 47 75 49 113 9 31-32 106-60 162-60 48 0 56-28 50-170-5-120-40-277-106-475-32-95-29-119 13-113 17 2 28 24 58 113 94 284 138 524 109 606-10 29-9 35 13 58 13 14 29 36 35 48 15 29 45 20 96-27 86-81 165-97 165-34 0 17-9 25-36 34-20 7-51 26-70 42-35 31-35 31-16 52 44 47 57 88 57 176 0 74-3 91-27 131-52 89-147 112-218 52-52-44-74-98-74-183 0-74 10-106 51-172 17-26 17-28-4-55-12-15-27-26-35-24-7 2-31 5-53 8-66 7-81 12-108 33l-27 21 29 37c36 47 51 92 51 157 0 75-25 138-71 180-34 30-46 35-91 35-39 0-59-6-85-26-93-70-109-238-32-343l28-40-30-25c-28-24-41-28-136-40-38-6-44-3-64 25-21 30-21 33-5 58 68 104 73 223 14 311-46 67-114 93-173 66zm520-68c36-28 55-76 55-138 0-81-40-140-96-140-99 0-126 210-37 280 32 25 44 25 78-2zm-434 2c48-26 75-146 48-217-29-77-97-97-143-43-91 109-15 318 95 260zm854-12c73-57 75-212 3-262-35-25-63-19-96 18-64 73-45 224 33 256 29 12 29 12 60-12z"/>
    <path d="M1387 1003c-15-14-6-72 16-104 139-206 726-264 1053-104 40 20 87 52 107 74 42 47 58 105 34 128-23 23-42 11-56-36-31-106-221-177-497-188-216-8-393 24-510 92-52 31-94 79-94 110 0 27-35 46-53 28z"/>
    <path d="M1624 675c-10-25 5-65 34-92 88-84 330-118 507-73 131 33 200 86 193 147-5 42-45 45-59 5-25-73-221-124-392-102-111 14-186 46-216 93-25 38-57 49-67 22z"/>
  </g>
</svg>
