<svg xmlns="http://www.w3.org/2000/svg" width="62" height="62" fill="none"><path d="M50.452 21.365c.002 1.845-.409 3.666-1.203 5.33s-1.951 3.13-3.385 4.288L12.872 12.248a1.82 1.82 0 0 1-.348-.259 1.75 1.75 0 0 1-.386-.569c-.09-.214-.136-.444-.136-.676 0-.463.184-.906.511-1.233A1.74 1.74 0 0 1 13.744 9h24.349c3.278 0 6.421 1.303 8.739 3.622s3.62 5.464 3.62 8.743z" fill="#18b4f4"/><path d="M50.451 40.632c.001 1.624-.319 3.233-.94 4.733s-1.531 2.864-2.679 4.013a12.36 12.36 0 0 1-4.01 2.681c-1.499.622-3.107.942-4.73.942H13.743c-.345-.004-.681-.11-.966-.304s-.505-.47-.633-.79a1.74 1.74 0 0 1-.088-1.009c.071-.337.24-.646.487-.888.098-.098.209-.184.328-.256l12.984-7.373L45.86 31.018a12.36 12.36 0 0 1 3.385 4.286 12.35 12.35 0 0 1 1.206 5.328z" fill="#fd6b3c"/><path d="M45.867 31.048L25.859 42.413l-12.984 7.373a1.66 1.66 0 0 0-.343.253 27.18 27.18 0 0 0 7.713-18.99 27.16 27.16 0 0 0-7.71-18.994 1.79 1.79 0 0 0 .349.259l32.983 18.735z" fill="#a97ff2"/></svg>