<?xml version="1.0" encoding="UTF-8"?>
<svg id="Layer_2" data-name="Layer 2" xmlns="http://www.w3.org/2000/svg" viewBox="0 0 62.67 56.04">
  <defs>
    <style>
      .cls-1 {
        fill: #094303;
        stroke-width: 0px;
      }
    </style>
  </defs>
  <g id="Layer_2-2" data-name="Layer 2">
    <path class="cls-1" d="M.04,10.85l.03,10.86.28,1.12c.33,1.32.81,2.56,1.33,3.46,1.65,2.83,4.5,4.8,7.93,5.51,1.54.32,3.92.26,5.46-.14,3.39-.89,6.31-3.22,7.86-6.34.96-1.92,1.38-4.55,1.08-6.86-.49-3.81-2.86-7.2-6.31-9.06-1.7-.92-3.29-1.29-5.55-1.29-.86,0-1.72.03-1.9.06l-.33.06v4.75c0,2.61.03,4.73.07,4.71,1.45-.73,1.52-.75,2.3-.7.46.02.94.13,1.2.25.65.32,1.28,1,1.54,1.7.9,2.39-.84,4.71-3.4,4.52-1.39-.11-2.3-.91-2.74-2.38-.17-.59-.19-1.46-.22-10.86l-.03-10.21H0s.04,10.85.04,10.85ZM39.94,11.8c-.57.28-1.1.84-1.3,1.37-.14.37-.14,1.18.01,1.71.15.54.94,1.3,1.52,1.46,2.2.61,4.04-1.01,3.48-3.04-.14-.51-.87-1.31-1.43-1.57-.65-.3-1.59-.27-2.27.07ZM45.36,22.09v9.5h5.23V12.59h-5.23v9.5ZM51.58,19.07c.05,6.91.05,7.01.61,8.48.86,2.32,3.36,4.03,6.11,4.21l.93.06v-5.55l-.53-.06c-1.23-.15-1.7-.69-1.79-2.08l-.05-.77h2.27v-5.55h-2.24v-5.23h-5.35s.04,6.48.04,6.48ZM38.53,24.65v6.94h5.23v-13.87h-5.23v6.94ZM24.55,22.16c0,4.87.04,5.27.69,6.63.69,1.45,2.22,2.69,3.8,3.06.87.2,2.44.2,3.22,0,2-.52,3.72-2.21,4.37-4.27.22-.73.23-.9.23-5.23v-4.48l-2.58-.03-2.58-.02-.03,4.28-.03,4.28-.31.27c-.26.22-.39.26-.74.21-.8-.11-.76.1-.82-4.69l-.05-4.29-2.58-.03-2.59-.02s0,4.34,0,4.34Z"/>
    <path class="cls-1" d="M37.01,35.54c-.94.44-1.44,1.22-1.44,2.27,0,1.18.75,2.09,1.92,2.34.67.14,1.49.05,2-.21.94-.48,1.46-1.65,1.21-2.71-.15-.66-.81-1.46-1.44-1.74-.62-.29-1.57-.27-2.24.05ZM8.06,43.04c.04,6.54.04,6.72.28,7.54.41,1.44.92,2.36,1.89,3.33,1.41,1.42,3.03,2.08,5.11,2.09,1.93.01,3.46-.6,5.27-2.13l.55-.47.75.63c1.84,1.56,3.82,2.22,5.87,1.95,1.54-.19,2.52-.6,3.64-1.49,1.25-.99,2.09-2.18,2.64-3.7l.29-.83.03-6.81.03-6.8-3.61.02-3.61.03-.05,5.84c-.05,5.71-.05,5.84-.28,6.14-.54.73-1.44.7-1.81-.05-.19-.36-.2-.79-.23-6.19l-.03-5.78-3.6.02-3.6.03-.05,5.84c-.05,5.71-.05,5.84-.28,6.14-.34.46-.74.62-1.22.47-.7-.21-.68-.05-.75-6.57l-.05-5.87-3.61-.03-3.61-.02s.03,6.69.03,6.69ZM41.76,42.19c0,6.06.06,7.26.44,8.52.81,2.73,3.29,4.63,6.32,4.82l.93.06v-5.55l-.53-.06c-1.12-.14-1.64-.65-1.77-1.75-.03-.29-.07-.64-.1-.81l-.04-.29h2.34v-5.55h-2.35v-5.23h-5.23s0,5.84,0,5.84ZM50.51,45.85v9.5h5.23v-4.05c0-3.36.03-4.12.16-4.36.26-.51.86-.6,1.28-.17l.27.26v8.33h5.23v-4.99c0-5.48-.03-5.8-.65-6.96-.58-1.09-1.44-1.8-2.52-2.08-1.1-.29-2.19-.15-3.19.42-.28.15-.51.28-.53.28s-.04-1.27-.04-2.83v-2.83h-5.23v9.5ZM35.57,48.41v6.94h5.23v-13.87h-5.23v6.94Z"/>
  </g>
</svg>