<svg xmlns="http://www.w3.org/2000/svg" width="62" height="62" fill="none"><path d="M14.054 23.952l.054 14.925.378 1.538c.459 1.808 1.107 3.509 1.835 4.75 2.267 3.887 6.181 6.613 10.904 7.557 2.105.432 5.371.351 7.503-.189a16.96 16.96 0 0 0 10.823-8.718c1.322-2.645 1.889-6.261 1.484-9.419-.675-5.236-3.94-9.905-8.664-12.442-2.321-1.268-4.507-1.781-7.638-1.781-1.187 0-2.348.054-2.618.081l-.459.081v6.532c0 3.59.054 6.505.108 6.477 1.997-.999 2.078-1.026 3.158-.972.621.027 1.296.189 1.646.324a4.54 4.54 0 0 1 2.105 2.321c1.242 3.293-1.16 6.477-4.669 6.208-1.916-.135-3.158-1.241-3.779-3.266-.243-.81-.27-1.997-.297-14.925L25.875 9H14l.054 14.952z" fill="#094303"/></svg>