<svg xmlns="http://www.w3.org/2000/svg" width="62" height="62" fill="none" xmlns:v="https://vecta.io/nano"><path fill-rule="evenodd" d="M39.768 44.422c.356.43.834.747 1.192 1.19.477.59 1.238 2.313 1.244 2.471-.001.393-.317.371-.627.549-.148.055-.234.209-.378-.032-.036-.029-.078-.047-.123-.052s-.091.001-.133.02c-.088.039-.081.173-.07.307.006.084-.045.165-.119.188-.258.081-.528.099-.819.013-.229-.068-.394-.076-.461-.435l-.009-.03c-.412-1.109.433-.466-1.197-3.368l-.059-.148c-.137-.509-.425-.968-.887-1.247a1.54 1.54 0 0 1-.633-.744c-.292-.715-.799-1.162-1.456-1.424l-1.297-.504c-.975-.409-2.13-1.149-2.973-2.426-.036-.055-.08-.11-.113-.175-.071-.14-.68-.871-.54-.821 1.279.534 4.243 1.057 5.936 1.241.252.027.481.184.573.42.013.034.14.25.164.286l.758 1.227c.336.461.796.886.875 1.466.123.906.673 1.451 1.151 2.028zm13.117-10.959c-.027-.037-.108-.082-.101-.175.022-.308-.133-.213-.249-.137-.398.266-.918.361-1.044 1.024-.029.147-.167.2-.276.266-1.034.613-2.174-.117-2.452-1.607-.145-.772-.336-1.527-.644-2.231-.166-.38-.652-.884-.89-1.282-.04-.065-.062-.14-.065-.216-.012-.409-.186-1.35-1.298-1.997l-.025-.015c-1.364-.992-4.298-2.014-5.872-2.491-.601-.167-.762.22-.776.464-.003.047.004.093.016.138l.097.341c.373 1.423.852 3.395.577 3.317-.294-.082-1.023-4.198-2.742-5.383l-.033-.026c-1.122-1.038-3.453-1.525-4.238-1.69a.43.43 0 0 1-.257-.162c-.462-.615-1.185-.802-2.307-.985l-1.207-.175a.45.45 0 0 1-.325-.204.45.45 0 0 1-.049-.381l.002-.005c.036-.112.037-.339-.036-.368-.084-.033-.347.084-.569.109-.148.016-.319-.079-.327-.084-.054-.032.077.08.02.027-.648-.614.968-1.181.611-1.206l-.366-.014a8.28 8.28 0 0 0-1.326.079c-.101.014-.164-.081-.156-.166.002-.021.008-.042.02-.06s.028-.033.046-.043c2.125-1.154 2.923-2.474 2.923-2.474s.647-1.05-.854-1.745c-.286-.133-.651-.252-1.114-.351a17.79 17.79 0 0 1-3.364-1.094l-.844-.393c-.009-.005-.069-.034-.119-.049-.14-.053-.263-.011-.336.164-.119.29.281.439.49.601.892.691 1.904 1.133 2.827 1.732.582.377.599.544.065.911-.775.532-1.65.865-2.532 1.196a.42.42 0 0 1-.139.027c-.465-.307-.932-.368-1.362-.289a2.25 2.25 0 0 0-1.89 1.189c-.041.074-.102.134-.176.174s-.159.057-.243.05a.9.9 0 0 0-.096-.003.7.7 0 0 0-.171-.007c-1.901.146-2.28.927-2.354 1.261-.009.048-.03.092-.06.13s-.069.068-.113.088c-4.09 1.725-6.971.432-7.936-.136l-.021-.013c-.124-.074-.27.044-.217.178.909 2.313 5.597 2.493 6.906 2.496h.15c.098-.001.178.099.145.194-.336.965-.737 1.597-.99 1.945a1.97 1.97 0 0 0-.287.566l-.027.084a1.73 1.73 0 0 0 .013 1.092.45.45 0 0 1 .008.267.7.7 0 0 0-.025.12s-.011.09.006.193c.245 1.497 1.061 1.819 1.061 1.819s.137.084.674.058c1.277-.06 3.423-.366 3.956-.402.057-.003.114.002.169.016l.034.009c.04.01.077.024.113.043 1.846.957 4.596 3.939 5.581 5.663l.171.309c.463.881.95 1.54 1.741 2.124.088.065.339.252.745.483.51.29.923.458 1.256.593.895.361 1.635.548 2.176.685l.482.113 1.27.202c1.785.234 2.613.141 2.939.709a2.1 2.1 0 0 1 .106.32l.008.025c.439 1.28.717 1.429.915 2.016.094.276.239.43.491.505.395.118.747.336.907.765.37.987 1.082 1.75 2.004 2.006 1.017.283 1.482.194 2.092-.653.229-.317.242-.611.056-.941-.365-.645-.905-.953-1.569-1.035-.317-.039-.62-.199-.663-.525-.072-.543-.354-.861-.68-1.196s-.245-.795.117-1.008c.095-.056 1.181-.917 1.621-1.138.157-.081 1.094-.409 1.124-1.067-.136-1.571.12-2.691.239-2.681.068.006-.054.522.156 1.502.011.049.025.096.041.142v.001c.194 1.131 1.54 2.906 2.202 3.66.033.038.059.081.076.128.134.351.31.673.529.978a1.42 1.42 0 0 1 .208.49c.213 1.263.815 2.376.936 3.661.046.489.156 1.083.091 1.303-.015.05-.027.101-.022.153.031.346.142 1.117.273 1.184.141.071.799.204 1.097-.128.023-.029.038-.064.04-.101.058-.554.283-.314.397-.164.016.022.039.038.065.046s.054.006.079-.004a1.2 1.2 0 0 0 .568-.414.19.19 0 0 0 .041-.087c.09-.474.111-.94-.11-1.38a6.77 6.77 0 0 0-.695-1.083c-.62-.811-.964-1.728-.72-2.877.106-.5.002-.96-.275-1.343-.193-.266-.215-.513-.145-.871.211-1.086.281-2.19.167-3.296-.018-.17-.112-.358.038-.492.143-.128.294-.008.428.058.668.327 1.309.23 1.93-.166.144-.092.281-.184.455-.184.716.001 1.05-.47 1.1-.78.019-.12.005-.371-.108-.523z" fill="#ef6a25"/></svg>