<svg xmlns="http://www.w3.org/2000/svg" width="62" height="62">
  <rect width="62" height="62" rx="31" fill="#fff"/>
  <path d="M13.415 35.139C10.897 35.139 9 33.146 9 30.685c0-2.469 1.8-4.479 4.415-4.479 1.388 0 2.349.427 3.1 1.403l-1.211 1.009a2.46 2.46 0 0 0-1.889-.812c-1.703 0-2.64 1.304-2.64 2.879s1.025 2.855 2.64 2.855c.759 0 1.405-.271 1.913-.812l1.195 1.05c-.718.935-1.703 1.362-3.108 1.362zm8.323-6.554h1.63v6.398h-1.63v-.935c-.339.664-.904 1.107-1.986 1.107-1.727 0-3.108-1.501-3.108-3.347s1.38-3.347 3.108-3.347c1.074 0 1.647.443 1.986 1.107v-.984zm.048 3.224c0-1.001-.686-1.829-1.768-1.829-1.041 0-1.719.837-1.719 1.829 0 .968.678 1.829 1.719 1.829 1.073 0 1.768-.837 1.768-1.829M24.523 26h1.63v8.974h-1.63zm2.357 8.129a.97.97 0 0 1 .993-.968c.573 0 .977.443.977.968a.966.966 0 0 1-.977.984.98.98 0 0 1-.993-.984m8.209-.179c-.605.738-1.526 1.206-2.615 1.206-1.945 0-3.374-1.501-3.374-3.347s1.429-3.347 3.374-3.347c1.049 0 1.962.443 2.567 1.14l-1.259 1.058c-.315-.394-.727-.689-1.308-.689-1.041 0-1.719.837-1.719 1.829s.678 1.829 1.719 1.829c.63 0 1.066-.328 1.388-.771zm.137-2.141c0-1.846 1.429-3.347 3.374-3.347s3.374 1.501 3.374 3.347-1.429 3.347-3.374 3.347c-1.945-.008-3.374-1.501-3.374-3.347m5.093 0c0-1.001-.678-1.829-1.719-1.829-1.041-.008-1.719.829-1.719 1.829 0 .992.678 1.829 1.719 1.829s1.719-.837 1.719-1.829M53 31.07v3.904h-1.63v-3.503c0-1.107-.517-1.583-1.291-1.583-.727 0-1.243.361-1.243 1.583v3.503h-1.63v-3.503c0-1.107-.525-1.583-1.292-1.583-.726 0-1.364.361-1.364 1.583v3.503h-1.63v-6.398h1.63v.886c.339-.689.953-1.034 1.897-1.034.896 0 1.647.443 2.058 1.189.412-.763 1.017-1.189 2.115-1.189 1.34.008 2.381 1.025 2.381 2.641z"/>
</svg>
