<svg width="62" height="62" viewBox="0 0 62 62" fill="none" xmlns="http://www.w3.org/2000/svg">
<path d="M39.3076 37.2565C37.9241 38.4843 36.1964 40.0121 33.0636 40.0121H31.1902C28.9232 40.0121 26.8613 39.1881 25.3854 37.6944C23.9436 36.235 23.15 34.2376 23.15 32.0693V29.5061C23.15 27.3379 23.9436 25.3405 25.3854 23.881C26.8613 22.3874 28.9232 21.5647 31.1902 21.5647H33.0636C36.2002 21.5647 37.9241 23.0912 39.3076 24.319C40.7443 25.5848 41.9835 26.6911 45.2884 26.6911C45.7924 26.6909 46.2957 26.6507 46.7934 26.5708L46.782 26.5417C46.5841 26.0501 46.3519 25.573 46.0871 25.1139L43.8783 21.2875C41.8536 17.781 38.0998 15.6141 34.0509 15.6143H29.632C25.5831 15.6141 21.8293 17.781 19.8046 21.2875L17.5958 25.1139C15.5718 28.6207 15.5718 32.9547 17.5958 36.4616L19.8046 40.288C21.8293 43.7945 25.5831 45.9613 29.632 45.9612H34.0509C38.0998 45.9613 41.8536 43.7945 43.8783 40.288L46.0871 36.4679C46.3519 36.0088 46.5841 35.5317 46.782 35.0401L46.7934 35.0123C46.296 34.9296 45.7927 34.8873 45.2884 34.8857C41.9835 34.8857 40.7443 35.9856 39.3076 37.2577" fill="#006BFF"/>
<path d="M33.0636 23.8877H31.1902C27.7397 23.8877 25.4727 26.3522 25.4727 29.5065V32.0697C25.4727 35.224 27.7397 37.6884 31.1902 37.6884H33.0636C38.0912 37.6884 37.6963 32.5621 45.2884 32.5621C46.0078 32.5613 46.7256 32.6274 47.4326 32.7595C47.663 31.4554 47.663 30.1208 47.4326 28.8166C46.7255 28.9481 46.0078 29.0142 45.2884 29.0141C37.6938 29.0141 38.0912 23.8877 33.0636 23.8877Z" fill="#006BFF"/>
<path d="M51.7945 34.6326C50.5016 33.6857 49.0106 33.0447 47.4339 32.758V32.7959C47.2982 33.5517 47.0861 34.2917 46.801 35.0047C48.1034 35.2064 49.3393 35.7154 50.406 36.4895C50.406 36.4996 50.3996 36.5123 50.3958 36.5236C47.8869 44.6476 40.3254 50.2263 31.8229 50.2263C21.1592 50.2263 12.3843 41.4514 12.3843 30.7878C12.3843 20.1241 21.1592 11.3493 31.8229 11.3493C40.3254 11.3493 47.8869 16.9279 50.3958 25.0519C50.3958 25.0633 50.4022 25.076 50.406 25.0861C49.3394 25.8603 48.1035 26.3688 46.801 26.5696C47.0858 27.2835 47.2978 28.0243 47.4339 28.7809C47.4332 28.7927 47.4332 28.8046 47.4339 28.8163C49.0104 28.5302 50.5016 27.8895 51.7945 26.943C53.0375 26.0228 52.797 24.9836 52.6084 24.3684C49.7994 15.2577 41.3216 9 31.7878 9C19.8353 9 10 18.8353 10 30.7878C10 42.7402 19.8353 52.5756 31.7878 52.5756C41.3216 52.5756 49.7994 46.3178 52.6084 37.2072C52.797 36.592 53.0375 35.5528 51.7945 34.6326Z" fill="#006BFF"/>
<path d="M46.7934 26.5694C46.296 26.6521 45.7927 26.6944 45.2884 26.696C41.9835 26.696 40.7443 25.5961 39.3089 24.324C37.9241 23.0961 36.2002 21.5684 33.0636 21.5684H31.1902C28.9219 21.5684 26.8613 22.3924 25.3854 23.886C23.9436 25.3454 23.15 27.3428 23.15 29.5111V32.0743C23.15 34.2426 23.9436 36.24 25.3854 37.6994C26.8613 39.193 28.9219 40.0158 31.1902 40.0158H33.0636C36.2002 40.0158 37.9241 38.4892 39.3089 37.2614C40.7443 35.9957 41.9835 34.8894 45.2884 34.8894C45.7924 34.8895 46.2957 34.9298 46.7934 35.0096C47.0791 34.2969 47.2911 33.5568 47.4263 32.8008C47.4271 32.7882 47.4271 32.7755 47.4263 32.7629C46.7191 32.6317 46.0013 32.566 45.2821 32.5667C37.6874 32.5667 38.0849 37.6943 33.0572 37.6943H31.1839C27.7334 37.6943 25.4664 35.2286 25.4664 32.0743V29.506C25.4664 26.3517 27.7334 23.8873 31.1839 23.8873H33.0572C38.0849 23.8873 37.69 29.0124 45.2821 29.0124C46.0014 29.0137 46.7193 28.948 47.4263 28.8162V28.7807C47.2902 28.0242 47.0782 27.2833 46.7934 26.5694Z" fill="#0AE8F0"/>
<path d="M46.7934 26.5694C46.296 26.6521 45.7927 26.6944 45.2884 26.696C41.9835 26.696 40.7443 25.5961 39.3089 24.324C37.9241 23.0961 36.2002 21.5684 33.0636 21.5684H31.1902C28.9219 21.5684 26.8613 22.3924 25.3854 23.886C23.9436 25.3454 23.15 27.3428 23.15 29.5111V32.0743C23.15 34.2426 23.9436 36.24 25.3854 37.6994C26.8613 39.193 28.9219 40.0158 31.1902 40.0158H33.0636C36.2002 40.0158 37.9241 38.4892 39.3089 37.2614C40.7443 35.9957 41.9835 34.8894 45.2884 34.8894C45.7924 34.8895 46.2957 34.9298 46.7934 35.0096C47.0791 34.2969 47.2911 33.5568 47.4263 32.8008C47.4271 32.7882 47.4271 32.7755 47.4263 32.7629C46.7191 32.6317 46.0013 32.566 45.2821 32.5667C37.6874 32.5667 38.0849 37.6943 33.0572 37.6943H31.1839C27.7334 37.6943 25.4664 35.2286 25.4664 32.0743V29.506C25.4664 26.3517 27.7334 23.8873 31.1839 23.8873H33.0572C38.0849 23.8873 37.69 29.0124 45.2821 29.0124C46.0014 29.0137 46.7193 28.948 47.4263 28.8162V28.7807C47.2902 28.0242 47.0782 27.2833 46.7934 26.5694Z" fill="#0AE8F0"/>
</svg>
