<svg xmlns="http://www.w3.org/2000/svg" xmlns:xlink="http://www.w3.org/1999/xlink" width="62" height="62" fill="none"><g fill="#006bff"><path d="M39.308 37.532c-1.383 1.24-3.111 2.782-6.244 2.782H31.19c-2.267 0-4.329-.832-5.805-2.34-1.442-1.474-2.235-3.49-2.235-5.68v-2.588c0-2.189.794-4.206 2.235-5.68 1.476-1.508 3.538-2.339 5.805-2.339h1.873c3.137 0 4.861 1.541 6.244 2.781 1.437 1.278 2.676 2.395 5.981 2.395.504 0 1.007-.041 1.505-.121l-.011-.029a11.48 11.48 0 0 0-.695-1.442l-2.209-3.864c-2.025-3.541-5.779-5.729-9.827-5.728h-4.419c-4.049 0-7.803 2.188-9.827 5.729l-2.209 3.864a11.57 11.57 0 0 0 0 11.458l2.209 3.864c2.025 3.541 5.778 5.729 9.828 5.729h4.419c4.049 0 7.803-2.188 9.828-5.729l2.209-3.857a11.45 11.45 0 0 0 .695-1.442l.011-.028a9.28 9.28 0 0 0-1.505-.128c-3.305 0-4.544 1.111-5.981 2.395m-6.245-13.501H31.19c-3.451 0-5.718 2.488-5.718 5.674v2.588c0 3.185 2.267 5.673 5.718 5.673h1.873c5.028 0 4.633-5.176 12.225-5.176.719-.001 1.437.066 2.144.199a11.57 11.57 0 0 0 0-3.981 11.61 11.61 0 0 1-2.144.199c-7.595 0-7.197-5.176-12.225-5.176z"/><path d="M51.795 34.882c-1.293-.956-2.784-1.603-4.361-1.893v.038a11.55 11.55 0 0 1-.633 2.23 8.26 8.26 0 0 1 3.605 1.499c0 .01-.006.023-.01.035-2.509 8.203-10.07 13.836-18.573 13.836-10.664 0-19.439-8.86-19.439-19.628s8.775-19.628 19.439-19.628c8.503 0 16.064 5.633 18.573 13.836 0 .011.006.024.01.034-1.067.782-2.303 1.295-3.605 1.498.285.721.497 1.469.633 2.233-.001.012-.001.024 0 .036a10.53 10.53 0 0 0 4.361-1.892c1.243-.929 1.002-1.979.814-2.6C49.799 15.319 41.322 9 31.788 9 19.835 9 10 18.931 10 31s9.835 22 21.788 22c9.534 0 18.012-6.319 20.821-15.518.189-.621.429-1.671-.814-2.6z"/></g><g fill="#0ae8f0"><use xlink:href="#B"/><use xlink:href="#B"/></g><defs ><path id="B" d="M46.793 26.741a9.27 9.27 0 0 1-1.505.128c-3.305 0-4.544-1.111-5.98-2.395-1.385-1.24-3.109-2.782-6.245-2.782H31.19c-2.268 0-4.329.832-5.805 2.34-1.442 1.474-2.235 3.491-2.235 5.68v2.588c0 2.189.794 4.206 2.235 5.68 1.476 1.508 3.537 2.339 5.805 2.339h1.873c3.137 0 4.861-1.541 6.245-2.781 1.435-1.278 2.675-2.395 5.98-2.395.504 0 1.007.041 1.505.121.286-.72.498-1.467.633-2.23.001-.013.001-.026 0-.038a11.59 11.59 0 0 0-2.144-.198c-7.595 0-7.197 5.178-12.225 5.178h-1.873c-3.451 0-5.718-2.49-5.718-5.675v-2.593c0-3.185 2.267-5.674 5.718-5.674h1.873c5.028 0 4.633 5.175 12.225 5.175a11.48 11.48 0 0 0 2.144-.198v-.036a11.62 11.62 0 0 0-.633-2.233z"/></defs></svg>