<svg xmlns="http://www.w3.org/2000/svg" width="400" height="511" viewBox="0 0 400 511" fill="none"><path fill-rule="evenodd" clip-rule="evenodd" d="M341.556 56.6187C339.961 55.092 338.36 53.5734 336.75 52.0625C258.039 -16.5013 144.554 -16.3987 70.4819 46.7354L69 48C64.8932 51.3929 61.0779 54.8029 57.5625 58.8125C55.7102 61 53.8522 63.1611 51.9141 65.2734C13.2517 107.192 -0.36189 158.596 -0.272583 214.399C-0.265864 218.031 -0.266453 221.662 -0.269531 225.294C-0.27473 231.418 -0.273552 237.543 -0.264404 243.668C-0.253403 250.731 -0.249858 257.794 -0.260742 264.857C-0.270338 271.013 -0.275035 277.169 -0.271423 283.326L-0.269987 284.933C-0.267114 288.068 -0.264242 291.203 -0.268646 294.337C-0.284281 302.78 -0.287013 311.222 -0.113891 319.663C1.65171 371.385 23.7494 420.695 61.2109 456.31L63 458C65.4568 460.338 67.9248 462.637 70.4766 464.871L73 467C90.7383 482.007 110.756 493.454 132.66 501.226L135.625 502.25C154.697 509.006 174.267 511.701 194.434 511.635C198.102 511.597 201.768 511.563 205.436 511.576C224.627 511.677 242.508 509.998 260.871 504.211L263.75 503.25C273.181 500.156 282.232 496.641 291.034 492.043L293 491C310.147 481.977 327.811 471.099 341.234 456.93L343 455C348.892 448.733 354.709 442.445 359.988 435.645L362 433C373.364 418.5 382.231 401.957 388.703 384.711L390 381C395.625 365.107 400.035 348.986 400.415 332.038L400.438 329.125C400.521 321.67 399.814 316.375 395.711 309.996C390.287 303.668 383.831 298.617 375.457 297.18C366.829 296.549 358.881 297.468 351.754 302.625C343.491 309.355 339.895 317.079 338.394 327.548C334.668 356.059 323.882 382.852 303.945 404.004L302 406C294.819 413.549 286.905 420.541 278.488 426.68C249.659 446.336 212.715 454.741 178.258 448.68L175 448C142.088 441.39 113.105 424.234 92.2109 397.879L90 395C78.7995 380.574 70.9153 363.893 66.5365 346.18L66 344C62.4399 321.792 62.4399 321.792 62.5911 299.239C62.6012 295.366 62.6004 291.493 62.5957 287.62C62.5879 281.099 62.5897 274.578 62.6034 268.057C62.6199 260.519 62.6252 252.982 62.6089 245.445C62.5945 238.886 62.5874 232.326 62.5929 225.767C62.5935 225.206 62.5943 224.645 62.595 224.085C62.5993 220.736 62.6036 217.388 62.597 214.04L62.5959 213.599C62.5473 195.016 62.5004 177.04 68.1924 159.106L69 156.75C73.337 144.007 79.3087 132.003 86.7305 120.77C108.162 89.7603 141.921 69.9422 178.625 63.125C216.135 56.8955 253.246 67.5184 284 89C314.439 111.468 332.639 144.711 338.562 181.688C339.95 191.736 341.994 199.855 349.25 207.312L352 209C357.244 212.627 361.981 214.287 368.318 214.548C378.182 214.612 384.922 213.101 392.312 206.25C398.582 199.994 400.487 193.747 400.557 185.019L400.5 181.688L400.459 178.192C399.447 135.827 375.845 89.4406 345.43 60.2695C344.133 59.0583 342.838 57.8451 341.556 56.6187ZM291.502 181.788C290.468 164.104 279.077 144.936 266.266 132.957C236.608 107.339 197.369 98.7971 160.938 116.187C139.062 127.689 121.363 145.605 113.739 169.577L113.063 171.812C110.889 178.928 109.999 185.667 112 193C115.404 202.087 120.671 208.069 129.375 212.375C138.84 216.148 147.813 215.368 157.063 211.437C164.482 207.388 168.792 201.236 171.688 193.437C175.199 183.461 179.371 176.709 189.129 171.965C197.052 168.918 205.846 168.8 213.801 171.828C221.843 176.113 226.823 182.605 230.168 190.895C230.418 191.519 230.663 192.145 230.908 192.77C232.366 196.496 233.813 200.196 236.313 203.375C243.819 210.707 250.897 214.716 261.676 215.094C269.782 214.589 277.408 211.52 283.359 205.93C289.568 198.627 291.774 191.171 291.502 181.788Z" fill="white"/></svg>