<svg xmlns="http://www.w3.org/2000/svg" width="62" height="62"><rect width="62" height="62" rx="31" fill="#fff"/><path fill-rule="evenodd" d="m43.397 13.87-.413-.392c-6.769-5.896-16.528-5.888-22.898-.458l-.127.109a8.4 8.4 0 0 0-.984.93 19 19 0 0 1-.486.556C15.163 18.219 13.993 22.64 14 27.438v6.875l.013 2.178a17.05 17.05 0 0 0 5.274 11.751l.154.145a21 21 0 0 0 .643.591l.217.183a16.4 16.4 0 0 0 5.131 2.943l.255.088c1.64.581 3.323.813 5.057.807l.946-.005c1.65.009 3.188-.136 4.767-.633l.248-.083a15 15 0 0 0 2.346-.964l.169-.09c1.475-.776 2.994-1.711 4.148-2.93l.152-.166c.507-.539 1.007-1.08 1.461-1.664l.173-.228c.977-1.247 1.74-2.67 2.296-4.153l.112-.319c.484-1.367.863-2.753.896-4.211l.002-.251c.007-.641-.054-1.096-.406-1.645-.466-.544-1.022-.979-1.742-1.102-.742-.054-1.425.025-2.038.468-.711.579-1.02 1.243-1.149 2.143-.32 2.452-1.248 4.756-2.962 6.575l-.167.172a15 15 0 0 1-2.022 1.778c-2.479 1.69-5.656 2.413-8.62 1.892l-.28-.058c-2.83-.569-5.323-2.044-7.12-4.31l-.19-.248a11.2 11.2 0 0 1-2.018-4.198l-.046-.187c-.306-1.91-.306-1.91-.293-3.849v-2.681l.001-1.944-.001-1.692v-1.047c-.004-1.598-.008-3.144.481-4.686l.069-.203a13.5 13.5 0 0 1 1.525-3.094c1.843-2.667 4.746-4.371 7.903-4.957 3.226-.536 6.417.378 9.062 2.225 2.618 1.932 4.183 4.791 4.692 7.971.119.864.295 1.562.919 2.204l.236.145c.451.312.858.455 1.403.477.848.006 1.428-.124 2.063-.714.539-.538.703-1.075.709-1.826l-.005-.287-.004-.301c-.087-3.643-2.117-7.632-4.732-10.141l-.333-.314zm-4.304 10.764c-.089-1.521-1.069-3.169-2.17-4.199-2.55-2.203-5.925-2.938-9.058-1.442-1.881.989-3.403 2.53-4.059 4.591l-.058.192c-.187.612-.264 1.192-.091 1.822a2.83 2.83 0 0 0 1.494 1.666c.814.325 1.586.257 2.381-.081.638-.348 1.009-.877 1.258-1.548.302-.858.661-1.439 1.5-1.846a2.97 2.97 0 0 1 2.122-.012c.692.369 1.12.927 1.408 1.64l.064.161c.125.321.25.639.465.912.646.631 1.254.975 2.181 1.008a2.96 2.96 0 0 0 1.865-.788c.534-.628.724-1.269.7-2.076z"/></svg>
