<svg width="62" height="62" viewBox="0 0 62 62" fill="none" xmlns="http://www.w3.org/2000/svg"><rect width="62" height="62" rx="31" fill="white"/><path d="M47.461 29.2649V28.8356C47.461 27.6852 46.5106 26.8921 45.416 26.902C44.1934 26.9117 42.9677 26.8592 41.755 27.0363C40.7881 27.1771 39.6869 27.2034 38.9167 27.8852C38.1302 28.5799 37.8975 29.6812 37.6515 30.848C37.5401 31.379 37.4254 31.9263 37.2518 32.4571C36.7274 34.0796 35.5443 35.4527 34.0693 36.259C33.1222 36.777 31.9488 36.1673 31.7783 35.1022C33.4499 34.8334 34.9345 33.5387 35.4688 31.8837C35.6098 31.4445 35.7113 30.9693 35.8196 30.4646C36.1046 29.1175 36.4258 27.5934 37.6745 26.4857C38.7561 25.5286 40.0016 25.3779 41.0996 25.2435C41.6731 25.1747 42.2172 25.1091 42.7153 24.9387C43.9935 24.5028 45.0292 23.7654 45.6388 22.8641C45.9895 22.1201 46.1828 21.2647 46.1828 20.383V18.0986C46.1828 18.0134 46.114 17.9446 46.0288 17.9446H40.6472V17.5152C40.6472 16.4369 39.7722 15.5619 38.6939 15.5619H33.4401L33.4794 10C32.6272 10.4523 30.8968 11.5306 29.6644 13.6314C29.0384 14.6999 28.7304 15.7159 28.5698 16.4927C28.347 17.2006 28.3075 18.0593 28.1142 18.8098C28.2813 19.0458 28.4255 19.3047 28.5369 19.5768H32.329C33.4499 19.5768 34.3578 20.4846 34.3578 21.6055V23.8899C34.3578 25.1583 33.9841 26.3545 33.3417 27.3739C32.5092 28.6128 31.1392 29.6025 29.4809 30.1663C28.7992 30.399 28.1306 30.4776 27.4882 30.5563C26.5411 30.671 25.7216 30.7693 25.0793 31.3428C24.2927 32.041 24.06 33.139 23.8142 34.3058C23.7027 34.8366 23.588 35.3839 23.4143 35.9149C22.8899 37.5372 21.7067 38.9105 20.2319 39.7168C19.2847 40.2346 18.1114 39.625 17.9409 38.5599C19.6124 38.2911 21.0971 36.9965 21.6314 35.3413C21.7723 34.9023 21.8739 34.4269 21.982 33.9222C22.2672 32.5751 22.5884 31.0512 23.8371 29.9433C24.9187 28.9863 26.1641 28.8356 27.2653 28.7013C27.8389 28.6324 28.3829 28.5669 28.8811 28.3964C30.9393 27.6951 32.4207 26.1775 32.4207 23.8932V21.6088C32.4207 21.5236 32.3519 21.4548 32.2667 21.4548H26.8852V21.0254C26.8852 19.9471 26.0101 19.072 24.9318 19.072H19.678L19.7173 13.5102C18.8652 13.9625 17.1347 15.0408 15.9023 17.1416C15.2763 18.2101 14.9683 19.2261 14.8077 20.0028C14.5258 20.8943 14.5979 21.907 14.2112 22.7657C13.8736 23.5064 13.2443 24.0079 12.7363 24.6273C10.3372 27.5411 9 31.4674 9 35.2299C9 44.3904 16.4235 51.814 25.5839 51.814C32.4372 51.814 39.061 47.3271 41.188 40.736C42.0173 38.1699 44.1574 37.0063 46.7204 36.6491C47.7789 36.5017 48.8835 36.5934 49.8897 36.2001C51.7086 35.4889 53 33.6634 53 31.7033V29.4189C53 29.3338 52.9312 29.2649 52.846 29.2649H47.461ZM36.3865 18.2985C36.4587 17.9085 36.7799 17.5873 37.1699 17.5152C37.8745 17.3841 38.4742 17.9839 38.3398 18.6886C38.2679 19.0786 37.9467 19.3998 37.5566 19.4719C36.8518 19.603 36.2522 19.0032 36.3865 18.2985ZM22.6212 21.8054C22.6933 21.4154 23.0145 21.0942 23.4045 21.0221C24.1091 20.891 24.7056 21.4908 24.5745 22.1954C24.5024 22.5855 24.1812 22.9067 23.7912 22.9788C23.0866 23.1099 22.4868 22.5101 22.6179 21.8054H22.6212ZM45.1603 30.0154C45.0882 30.4055 44.767 30.7267 44.3769 30.7988C43.6723 30.9299 43.0725 30.3302 43.2069 29.6254C43.279 29.2354 43.6002 28.9142 43.9902 28.8422C44.6948 28.711 45.2947 29.3108 45.1603 30.0154Z" fill="#0A111D"/><path d="M24.5322 18.3187L24.5617 14.0547C23.8341 14.4414 22.356 15.3624 21.3072 17.1552C21.0712 17.555 20.8909 17.9483 20.75 18.3187H24.5322Z" fill="#0A111D"/><path d="M38.3291 14.8109L38.3585 10.5469C37.631 10.9336 36.1529 11.8546 35.1041 13.6474C34.8681 14.0472 34.6878 14.4405 34.5469 14.8109H38.3291Z" fill="#0A111D"/></svg>