<?xml version="1.0" encoding="UTF-8"?>
<svg xmlns="http://www.w3.org/2000/svg" width="62" height="62" viewBox="0 0 123 128" style="shape-rendering:geometricPrecision; text-rendering:geometricPrecision; image-rendering:optimizeQuality; fill-rule:evenodd; clip-rule:evenodd" xmlns:xlink="http://www.w3.org/1999/xlink">
<g><path style="opacity:0.977" fill="#1d1e21" d="M 48.5,-0.5 C 51.5,-0.5 54.5,-0.5 57.5,-0.5C 70.4273,8.64066 83.7607,17.3073 97.5,25.5C 101.5,29.8333 101.5,34.1667 97.5,38.5C 92.3378,42.2487 87.0044,45.7487 81.5,49C 78.8333,49.6667 76.1667,49.6667 73.5,49C 66.9591,44.8978 60.2924,41.0645 53.5,37.5C 45.7205,40.7711 38.5538,45.1044 32,50.5C 29.9908,55.6096 29.1574,60.9429 29.5,66.5C 29.4267,71.2506 29.9267,75.9173 31,80.5C 36.2923,86.076 42.459,90.576 49.5,94C 51.0412,95.5793 52.2078,97.4127 53,99.5C 53.6667,106.167 53.6667,112.833 53,119.5C 51.6954,122.961 49.5287,125.628 46.5,127.5C 44.1667,127.5 41.8333,127.5 39.5,127.5C 26.2032,118.847 12.8699,110.18 -0.5,101.5C -0.5,78.5 -0.5,55.5 -0.5,32.5C 15.5834,21.0752 31.9167,10.0752 48.5,-0.5 Z"/></g>
<g><path style="opacity:0.979" fill="#1ab692" d="M 122.5,52.5 C 122.5,58.5 122.5,64.5 122.5,70.5C 121.314,73.3397 119.314,75.5064 116.5,77C 104.232,84.272 92.232,91.9387 80.5,100C 77.0357,100.817 73.7024,100.483 70.5,99C 61.0043,92.418 51.3377,86.0846 41.5,80C 39.9512,78.786 38.7845,77.286 38,75.5C 37.3333,69.1667 37.3333,62.8333 38,56.5C 42.6623,50.2502 48.8289,47.4169 56.5,48C 63.1516,52.2403 69.9849,56.0736 77,59.5C 79.3207,59.0905 81.4874,58.2572 83.5,57C 89.8971,52.273 96.5637,47.9396 103.5,44C 111.328,43.5819 117.661,46.4153 122.5,52.5 Z"/></g>
</svg>
