<svg width="62" height="62" viewBox="0 0 62 62" fill="none" xmlns="http://www.w3.org/2000/svg"><rect width="62" height="62" rx="31" fill="white"/><path d="M13.1938 28.7197C14.2596 28.7197 15.2419 29.277 15.7992 29.9388V28.8939H17.7916V37.3442H15.7992V36.2644C15.2419 36.954 14.2596 37.5183 13.1938 37.5183C10.7764 37.5183 9 35.5398 9 33.1225C9 30.7052 10.7764 28.7197 13.1938 28.7197ZM10.9994 33.1155C10.9994 34.4322 12.0792 35.512 13.3958 35.512C14.7125 35.512 15.7923 34.4322 15.7923 33.1155C15.7923 31.7989 14.7125 30.7191 13.3958 30.7191C12.0792 30.7191 10.9994 31.7989 10.9994 33.1155Z" fill="black"/><path d="M19.75 37.3373V28.8871H21.7424V29.8484C22.3136 29.1727 23.1984 28.7129 24.2782 28.7129V30.6078C24.2085 30.5938 24.1249 30.5938 24.0552 30.5938C22.7874 30.5938 21.7424 31.4925 21.7424 32.7743V37.3373H19.75Z" fill="black"/><path d="M25.5695 28.8869H27.5619V29.7995C28.1888 29.1377 29.1014 28.7197 30.0976 28.7197C31.3795 28.7197 32.3966 29.3119 32.9399 30.3081C33.6993 29.3467 34.5979 28.7197 35.9494 28.7197C37.907 28.7197 39.2585 30.106 39.2585 32.2517V37.3372H37.2661V32.6767C37.2661 31.2555 36.5207 30.6007 35.4548 30.6007C34.3054 30.6007 33.4067 31.4436 33.4067 32.7463V37.3441H31.4143V32.6836C31.4143 31.2625 30.6689 30.6076 29.603 30.6076C28.4536 30.6076 27.5549 31.4506 27.5549 32.7881V37.3511H25.5625V28.8869H25.5695Z" fill="black"/><path d="M42.2077 25C42.8695 25 43.392 25.5434 43.392 26.1843C43.392 26.8461 42.8695 27.3825 42.2077 27.3825C41.5459 27.3825 41.0234 26.8391 41.0234 26.1843C41.0234 25.5434 41.5459 25 42.2077 25ZM41.2115 37.3375V28.8873H43.2039V37.3375H41.2115Z" fill="black"/><path d="M45.1641 37.3372V28.8869H47.1565V29.7995C47.7834 29.1377 48.696 28.7197 49.6922 28.7197C51.6498 28.7197 53.0013 30.106 53.0013 32.2517V37.3372H51.0089V32.6767C51.0089 31.2555 50.2635 30.6007 49.1976 30.6007C48.0482 30.6007 47.1495 31.4436 47.1495 32.7811V37.3442H45.1641V37.3372Z" fill="black"/></svg>