<svg xmlns="http://www.w3.org/2000/svg" width="62" height="62" fill="none"><path d="M13.105 33.007a18.06 18.06 0 0 1 4.258-9.82l5.952 5.808a.94.94 0 0 1 .149 1.166c-.388.647-.688 1.348-.892 2.089-.122.444-.527.758-1 .758h-8.467zm-1.046 0h-2.011c-.624 0-1.113-.533-1.041-1.137.495-4.035 2.122-7.726 4.573-10.763.388-.479 1.116-.519 1.559-.088l1.434 1.399c-2.539 2.893-4.185 6.56-4.515 10.59zm7.383-11.878c2.772-2.337 6.255-3.847 10.076-4.161v8.301c0 .459-.321.852-.773.972a8.72 8.72 0 0 0-2.139.861c-.388.219-.877.162-1.192-.145l-5.972-5.828zm-.775-.755l-1.431-1.396c-.443-.433-.399-1.146.09-1.522 3.116-2.388 6.896-3.97 11.026-4.448.621-.071 1.166.405 1.166 1.015v1.966c-4.124.311-7.881 1.909-10.851 4.386zm24.661 0c-2.967-2.476-6.721-4.075-10.846-4.386v-1.966c0-.61.545-1.086 1.166-1.014a22.33 22.33 0 0 1 11.02 4.443 1.01 1.01 0 0 1 .093 1.525l-1.434 1.399zm-.772.752l-5.972 5.828c-.318.311-.804.365-1.192.148-.662-.373-1.382-.664-2.139-.861-.455-.117-.772-.51-.772-.966v-8.304c3.821.311 7.304 1.821 10.076 4.155zm-25.69 25.075c-2.25-2.861-3.655-6.421-3.844-10.305h8.549c.472 0 .877.314.997.758.198.741.495 1.445.88 2.092.227.382.169.864-.152 1.177l-6.43 6.278zm-.347.336l-1.393 1.359c-.443.43-1.175.391-1.562-.088-2.445-3.041-4.069-6.734-4.556-10.775-.073-.604.414-1.137 1.038-1.137h2.005c.306 4.047 1.935 7.732 4.468 10.641zM44.63 23.186c2.317 2.699 3.853 6.09 4.258 9.823h-8.464c-.472 0-.877-.313-1-.758a8.46 8.46 0 0 0-.892-2.092c-.227-.379-.169-.855.146-1.166l5.952-5.808zm.793-.772l1.434-1.399c.44-.43 1.172-.39 1.559.088 2.451 3.038 4.081 6.728 4.576 10.766.076.604-.414 1.137-1.038 1.137h-2.014c-.332-4.03-1.979-7.697-4.518-10.593zm3.556 13.485c-.19 3.881-1.597 7.441-3.844 10.302l-6.433-6.275c-.321-.311-.379-.795-.152-1.177a8.23 8.23 0 0 0 .88-2.092 1.03 1.03 0 0 1 .997-.758h8.552zm.968 0h2.005c.624 0 1.113.533 1.038 1.137-.49 4.038-2.113 7.731-4.559 10.775a1.06 1.06 0 0 1-1.559.088l-1.393-1.359c2.533-2.912 4.162-6.597 4.468-10.641z" fill="#10c2ed"/></svg>