<svg xmlns="http://www.w3.org/2000/svg" width="62" height="62" fill="none"><path d="M37.863 31.045l11.026-20.073a1.26 1.26 0 0 0 0-1.344C48.631 9.269 48.2 9 47.769 9H25.029c-.431 0-.861.269-1.12.627L12.194 30.328c-.258.448-.258.986 0 1.344l11.715 20.701c.258.448.689.627 1.12.627h22.741c.431 0 .861-.269 1.12-.627a1.26 1.26 0 0 0 0-1.344L37.863 31.045zm-1.464-2.688l-9.131-16.668h18.348l-9.217 16.668zM24.942 13.033l9.906 18.012-9.906 18.012-10.164-18.012 10.164-18.012zm2.326 37.279l9.131-16.668 9.131 16.668H27.268z" fill="#fff"/></svg>