<svg xmlns="http://www.w3.org/2000/svg" width="62" height="62" fill="none"><g clip-path="url(#A)"><path d="M53 9H9V53H53V9Z" fill="#009bb5"/><path d="M31.594 38.15c-3.916 0-6.93-3.146-6.93-7.172s2.97-7.106 6.93-7.106c2.75 0 5.192 1.386 6.402 3.894l6.666-2.222c-2.09-5.082-6.996-8.294-13.002-8.294-8.25 0-14.432 5.852-14.432 13.662S23.454 44.75 31.55 44.75c6.116 0 11.176-3.344 13.178-8.624l-6.776-2.266c-1.012 2.662-3.52 4.29-6.358 4.29z" fill="#fff"/></g><defs><clipPath id="A"><path fill="#fff" transform="translate(9 9)" d="M0 0h44v44H0z"/></clipPath></defs></svg>