<svg xmlns="http://www.w3.org/2000/svg" width="62" height="62" viewBox="0 0 71 14.8444" fill="none" class="contain-image brand">
    <rect width="100%" height="100%" fill="white"/>
    <g>
        <path d="M6.97402 4.51252C10.2139 4.49503 12.426 6.15576 12.9555 8.20863L10.3114 9.3593C10.0194 8.08403 8.71118 7.01215 6.83853 7.02226C6.33716 7.00076 5.83656 7.0798 5.36709 7.25458C4.89762 7.42937 4.46905 7.69625 4.10736 8.03907C3.74566 8.38188 3.45839 8.79348 3.26294 9.24891C3.0675 9.70433 2.96795 10.1941 2.97035 10.6885C2.98096 12.6548 4.57443 13.7443 6.51188 13.7339C7.27637 13.768 8.03282 13.5677 8.67703 13.1606C9.32124 12.7535 9.82152 12.1596 10.1089 11.4608L12.5069 12.7247C11.4945 14.8497 9.41529 16.208 6.38924 16.2244C2.63098 16.2447 0.0723053 14.0112 0.0549387 10.7937C0.0107228 7.40386 2.73626 4.53539 6.97402 4.51252Z" fill="black"></path>
        <path d="M15.4272 0.567943L18.4725 0.551507L17.6988 6.06498C18.2214 5.53451 18.8494 5.11592 19.5436 4.83537C20.2377 4.55482 20.9832 4.41834 21.7333 4.43446C24.8434 4.41768 26.818 6.50732 26.375 9.6825L25.5144 15.8987L22.4756 15.9151L23.249 10.3441C23.4978 8.42764 22.5125 7.15618 20.5558 7.16674C18.599 7.1773 17.362 8.49268 17.1133 10.4411L16.3592 15.9736L13.3074 15.9901L15.4272 0.567943Z" fill="black"></path>
        <path d="M37.8714 11.6372L40.3594 12.8176C39.2624 14.8408 36.9817 16.0725 34.1373 16.0878C30.457 16.1077 27.775 13.8112 27.7579 10.6576C27.7397 7.27428 30.5686 4.38626 34.7219 4.36384C38.4217 4.34387 40.8439 6.53962 40.8601 9.53996C40.8593 10.0381 40.8055 10.5348 40.6997 11.0219L30.6695 11.076C30.9634 12.7023 32.4459 13.6583 34.2731 13.6484C35.0042 13.6808 35.7297 13.5092 36.3662 13.1535C37.0028 12.7977 37.5245 12.2721 37.8714 11.6372V11.6372ZM30.8983 9.03833L37.896 9.00056C37.7859 7.80099 36.588 6.75411 34.534 6.7652C33.7682 6.74908 33.0145 6.95623 32.3677 7.36065C31.7208 7.76506 31.2096 8.34872 30.8983 9.03833V9.03833Z" fill="black"></path>
        <path d="M49.0558 4.28561C52.2957 4.26812 54.5013 5.92889 55.0373 7.98172L52.3867 9.13242C52.1012 7.85712 50.7865 6.78528 48.9203 6.79535C48.4189 6.77385 47.9183 6.85289 47.4489 7.02767C46.9794 7.20246 46.5508 7.46934 46.1891 7.81216C45.8274 8.15497 45.5402 8.56657 45.3447 9.02199C45.1493 9.47742 45.0497 9.9672 45.0521 10.4616C45.0627 12.4279 46.6562 13.5174 48.5872 13.507C49.3486 13.538 50.1011 13.3362 50.7416 12.9293C51.3822 12.5223 51.8793 11.9302 52.1648 11.234L54.5692 12.4979C53.5568 14.6229 51.4776 15.9812 48.4516 15.9976C44.6868 16.0179 42.1346 13.7844 42.1173 10.5668C42.0925 7.17695 44.818 4.30848 49.0558 4.28561Z" fill="black"></path>
        <path d="M70.3099 4.38889L65.5605 4.41453L59.3315 8.84026L60.4973 0.324247L57.4519 0.340684L55.3385 15.7373L58.3838 15.7208L59.1818 9.90079L64.8308 15.686L68.9258 15.6639L62.8664 9.48511L70.3099 4.38889Z" fill="black"></path>
    </g>
</svg>
