<svg xmlns="http://www.w3.org/2000/svg" width="62" height="62" fill="none"><g clip-path="url(#A)"><path d="M30.917 9A21.96 21.96 0 0 0 9.102 28.846a21.96 21.96 0 0 0 17.61 23.657A21.96 21.96 0 0 0 51.983 37.3a21.96 21.96 0 0 0-12.651-26.641A22 22 0 0 0 30.917 9zm-11.9 24.784c-.03.433-.223.838-.54 1.133a1.71 1.71 0 0 1-2.336 0c-.317-.296-.51-.701-.54-1.133v-5.629c-.016-.234.016-.469.094-.691a1.71 1.71 0 0 1 .362-.596c.16-.172.354-.309.569-.402s.448-.142.683-.142.467.048.683.142.409.231.569.402a1.71 1.71 0 0 1 .362.596c.079.221.111.457.094.691v5.629zm5.568 5.753a1.71 1.71 0 0 1-.094.691c-.079.221-.202.424-.362.596s-.354.309-.57.402-.448.142-.683.142-.467-.048-.683-.142-.409-.231-.569-.402-.283-.375-.362-.596-.111-.456-.094-.691V22.395c-.016-.234.016-.469.094-.691s.202-.424.362-.596a1.71 1.71 0 0 1 .569-.402c.215-.094.448-.142.683-.142s.467.048.683.142a1.71 1.71 0 0 1 .57.402c.16.172.283.375.362.596a1.71 1.71 0 0 1 .094.691v17.142zm5.569 5.015c.058.257.058.524 0 .781a1.76 1.76 0 0 1-.339.704c-.165.206-.373.373-.611.487s-.498.174-.762.174-.524-.059-.762-.174-.447-.281-.611-.487-.281-.447-.339-.704-.059-.524 0-.781V17.381c.088-.388.306-.735.617-.983s.697-.384 1.096-.384.785.135 1.096.384.529.595.617.983v27.171zm5.559-5.215a1.71 1.71 0 0 1-.093.692 1.73 1.73 0 0 1-.362.598c-.242.259-.558.437-.905.509s-.708.035-1.033-.107-.598-.381-.781-.684-.268-.656-.243-1.01V22.606a1.71 1.71 0 0 1 .242-1.01c.183-.304.456-.543.781-.685s.686-.179 1.033-.107a1.71 1.71 0 0 1 .905.51 1.73 1.73 0 0 1 .362.598 1.71 1.71 0 0 1 .093.694v16.731zm5.568 2.635c-.088.388-.306.735-.617.983s-.698.384-1.096.384-.784-.135-1.096-.384-.529-.595-.617-.983V20.016c.008-.449.192-.876.513-1.191s.751-.491 1.2-.491.88.176 1.2.491.504.742.513 1.191v21.956zm5.559-8.379c-.03.433-.223.838-.54 1.134s-.735.46-1.168.46-.851-.164-1.168-.46-.51-.701-.54-1.134v-5.175c-.018-.235.014-.471.092-.693s.202-.426.362-.598a1.71 1.71 0 0 1 .57-.403c.216-.094.448-.142.684-.142s.468.048.684.142a1.71 1.71 0 0 1 .57.403 1.73 1.73 0 0 1 .362.598 1.71 1.71 0 0 1 .093.694v5.175z" fill="#3c82e9"/></g><defs><clipPath id="A"><path fill="#fff" transform="translate(9 9)" d="M0 0h44v44H0z"/></clipPath></defs></svg>