<?xml version="1.0" encoding="UTF-8"?>
<!DOCTYPE svg PUBLIC "-//W3C//DTD SVG 1.1//EN" "http://www.w3.org/Graphics/SVG/1.1/DTD/svg11.dtd">
<svg xmlns="http://www.w3.org/2000/svg" version="1.1" width="288px" height="288px" style="shape-rendering:geometricPrecision; text-rendering:geometricPrecision; image-rendering:optimizeQuality; fill-rule:evenodd; clip-rule:evenodd" xmlns:xlink="http://www.w3.org/1999/xlink">
<g><path style="opacity:0.978" fill="#3c82e9" d="M 130.5,8.5 C 189.919,6.11643 234.419,30.4498 264,81.5C 287.533,133.552 282.533,182.552 249,228.5C 211.017,271.492 163.85,286.659 107.5,274C 59.3333,259.167 27.8333,227.667 13,179.5C 0.341017,123.15 15.5077,75.983 58.5,38C 79.6851,21.239 103.685,11.4057 130.5,8.5 Z M 125.5,50.5 C 131.88,49.7704 136.047,52.4371 138,58.5C 138.667,115.167 138.667,171.833 138,228.5C 134.671,236.698 129.171,238.532 121.5,234C 120.54,232.581 119.707,231.081 119,229.5C 118.333,172.167 118.333,114.833 119,57.5C 120.018,53.9853 122.185,51.652 125.5,50.5 Z M 193.5,66.5 C 199.347,65.8399 203.513,68.1733 206,73.5C 206.667,120.167 206.667,166.833 206,213.5C 199.667,222.833 193.333,222.833 187,213.5C 186.333,166.833 186.333,120.167 187,73.5C 188.694,70.6424 190.861,68.309 193.5,66.5 Z M 90.5,81.5 C 97.3915,80.2387 101.892,82.9053 104,89.5C 104.667,125.5 104.667,161.5 104,197.5C 101.345,205.41 96.1781,207.577 88.5,204C 86.9512,202.786 85.7845,201.286 85,199.5C 84.3333,162.167 84.3333,124.833 85,87.5C 86.3597,84.9774 88.193,82.9774 90.5,81.5 Z M 159.5,82.5 C 165.88,81.7704 170.047,84.4371 172,90.5C 172.667,125.833 172.667,161.167 172,196.5C 168.671,204.698 163.171,206.532 155.5,202C 154.54,200.581 153.707,199.081 153,197.5C 152.333,161.5 152.333,125.5 153,89.5C 154.018,85.9853 156.185,83.652 159.5,82.5 Z M 57.5,116.5 C 63.8802,115.77 68.0468,118.437 70,124.5C 70.6667,137.167 70.6667,149.833 70,162.5C 66.6709,170.698 61.1709,172.532 53.5,168C 52.5399,166.581 51.7065,165.081 51,163.5C 50.3333,150.167 50.3333,136.833 51,123.5C 52.0183,119.985 54.1849,117.652 57.5,116.5 Z M 228.5,117.5 C 234.402,117.24 238.235,119.907 240,125.5C 240.667,137.5 240.667,149.5 240,161.5C 237.347,168.496 232.514,170.663 225.5,168C 223.19,166.363 221.69,164.196 221,161.5C 220.333,149.5 220.333,137.5 221,125.5C 222.353,121.65 224.853,118.983 228.5,117.5 Z"/></g>
</svg>
