<svg width="62" height="62" viewBox="0 0 62 62" fill="none" xmlns="http://www.w3.org/2000/svg"><path fill-rule="evenodd" clip-rule="evenodd" d="M23.5296 49.297L27.4676 51.1934L28.6138 51.7453L22.5792 25.3091H18.0547L23.5296 49.297Z" fill="#0D2F6A" fill-opacity="0.5"/><path fill-rule="evenodd" clip-rule="evenodd" d="M13.3576 44.4006L18.4416 46.8489L13.5255 25.3091H9L13.3576 44.4006Z" fill="#0D2F6A" fill-opacity="0.5"/><path fill-rule="evenodd" clip-rule="evenodd" d="M34.4624 37.7344L31.6262 25.3091H27.1016L32.1999 47.6469L34.4624 37.7344Z" fill="#0D2F6A" fill-opacity="0.5"/><path fill-rule="evenodd" clip-rule="evenodd" d="M39.8159 48.6497L35.4062 50.7732L43.8389 13.8274L46.8907 17.6527L39.8159 48.6497Z" fill="#0D2F6A"/><path fill-rule="evenodd" clip-rule="evenodd" d="M48.6401 44.4006L44.2266 46.526L49.9432 21.4795L52.9977 25.3095L48.6401 44.4006Z" fill="#0D2F6A"/><path fill-rule="evenodd" clip-rule="evenodd" d="M21.2092 10L18.157 13.8272H35.9919L35.1184 17.6544H15.1049L12.0527 21.4819H34.2448L33.3713 25.3091H9L9.87358 29.1363H32.4978L27.4634 51.1935L30.9999 52.8964L40.7909 10H21.2092Z" fill="#0D2F6A"/></svg>