<svg width="62" height="62" viewBox="0 0 62 62" fill="none" xmlns="http://www.w3.org/2000/svg"><path opacity="0.8" d="M9 38.2075H16.0934C19.8905 38.2075 22.9991 35.2241 23.1868 31.4688H9V38.2075Z" fill="#74BF4B"/><path d="M16.0934 24H9V30.7387H23.1868C22.9991 26.9834 19.8905 24 16.0934 24Z" fill="#74BF4B"/><path d="M45.9059 24C42.1088 24 39.0003 26.9834 38.8125 30.7387H52.9785C52.7907 26.9834 49.6821 24 45.885 24" fill="#74BF4B"/><path opacity="0.8" d="M45.9085 38.2075C49.7055 38.2075 52.8141 35.2241 53.0019 31.4688H38.8359C39.0237 35.2241 42.1323 38.2075 45.9293 38.2075" fill="#74BF4B"/><path d="M23.8984 24V31.0934C23.8984 34.8905 26.8818 37.9991 30.6372 38.1868V24H23.8984Z" fill="#74BF4B"/><path opacity="0.8" d="M31.3438 24V38.2077H38.1034V31.0934V24H31.3438Z" fill="#74BF4B"/></svg>