<svg width="62" height="62" viewBox="0 0 62 62" fill="none" xmlns="http://www.w3.org/2000/svg">
  <rect width="62" height="62" rx="12" fill="#FF6C3F"/>
  <g transform="translate(12.8, 7) scale(0.607)" fill="white">
    <path d="M60 4.5v17.1c0 .7-.6 1.3-1.3 1.4L40 24.5C26.8 26 20.2 31.7 20.2 42c0 10.7 6.6 16 19.8 15.5l18.5-1.4c.8-.1 1.5.6 1.5 1.4v17.1c0 .7-.6 1.3-1.3 1.4-8 .7-16 1.3-24 1.8h-.9c-9.8.3-17.7-2.7-24-8.9C3.2 62.4 0 53.6 0 42.7c0-3 .3-5.8.8-8.5V34c1.4-6.7 4.6-12.5 9.4-17.6C16.7 9.7 25 5.9 34.8 5l23.8-1.8c.7-.1 1.4.5 1.4 1.3z"/>
  </g>
</svg>
