<svg width="62" height="62" viewBox="0 0 360 275" fill="none" xmlns="http://www.w3.org/2000/svg" preserveAspectRatio="xMidYMid meet">
  <g clip-path="url(#clip0_111_2034)">
    <path d="M359.685 153.193C359.685 171.777 358.849 193.209 357.878 203.244C356.44 218.248 343.063 231.58 328.877 232.38C325.113 232.587 320.342 232.802 314.763 233.009V266.734C314.746 268.803 313.909 270.781 312.435 272.233C310.961 273.685 308.971 274.492 306.902 274.477C305.08 274.48 303.313 273.855 301.897 272.708L251.874 234.049C218.668 234.049 189.336 233.187 174.871 232.379C160.686 231.579 147.308 218.246 145.87 203.243C145.727 201.743 145.583 199.99 145.448 198.033C175.931 197.775 202.398 196.945 216.944 196.128C242.387 194.708 265.135 172.185 267.662 145.926C268.982 132.117 269.844 110.276 269.844 90.3041C269.844 84.4193 269.773 78.3731 269.629 72.416C295.31 72.6496 317.056 73.3413 328.88 74.0059C343.065 74.8061 356.443 88.1386 357.881 103.142C358.846 113.179 359.685 134.606 359.685 153.193Z" fill="#00AAFF"/>
    <path d="M251.872 90.3054C251.872 111.986 250.893 132.494 249.77 144.21C248.092 161.711 232.477 177.262 215.936 178.196C214.167 178.295 212.208 178.395 210.079 178.493C208.722 178.556 207.294 178.622 205.802 178.681C204.356 178.744 202.855 178.799 201.293 178.862C200.655 178.88 200.016 178.906 199.357 178.933C198.697 178.96 198.037 178.978 197.354 179.005C196.709 179.023 196.063 179.041 195.418 179.068H195.289C194.597 179.095 193.887 179.113 193.178 179.139C193.08 179.148 192.989 179.148 192.9 179.148L190.304 179.23C178.894 179.572 165.408 179.858 150.728 180.012L144.534 180.065C141.352 180.101 138.118 180.119 134.848 180.128C133.501 180.137 132.138 180.137 130.77 180.137C129.221 180.146 127.652 180.146 126.08 180.146L68.9096 223.108C67.2789 224.383 65.2666 225.073 63.1964 225.067C60.8641 225.115 58.608 224.236 56.9234 222.622C55.2388 221.009 54.2635 218.792 54.2117 216.46V178.988C47.0518 178.737 40.9695 178.472 36.2436 178.197C19.7041 177.263 4.08993 161.712 2.40965 144.211C1.28689 132.496 0.307373 111.994 0.307373 90.3067C0.307373 68.6192 1.28689 48.1165 2.40965 36.4011C4.08734 18.9001 19.7028 3.34919 36.2436 2.41484C53.116 1.47146 87.3487 0.464844 126.085 0.464844C164.822 0.464844 199.053 1.47146 215.926 2.41484C232.465 3.34919 248.08 18.9001 249.76 36.4011C249.904 37.8658 250.039 39.4648 250.174 41.1902C250.2 41.5774 250.227 41.9723 250.263 42.3672C250.363 43.7506 250.47 45.1973 250.56 46.715C250.605 47.3603 250.641 48.0184 250.689 48.6831C250.886 52.0604 251.076 55.7268 251.237 59.6165C251.265 60.3172 251.292 61.018 251.319 61.7368C251.543 67.5442 251.714 73.784 251.795 80.2534C251.804 80.8819 251.813 81.5104 251.822 82.1492C251.83 83.3262 251.848 84.5199 251.848 85.715C251.857 86.4789 251.857 87.2429 251.857 88.0069C251.857 88.7709 251.872 89.5323 251.872 90.3054Z" fill="#00AAFF"/>
  </g>
  <defs>
    <clipPath id="clip0_111_2034">
      <rect width="360" height="275" rx="8" fill="white"/>
    </clipPath>
  </defs>
</svg>