<svg xmlns="http://www.w3.org/2000/svg" width="62" height="62" fill="none"><g clip-path="url(#C)" fill-rule="evenodd"><path d="M13.522 42.416l6.648-5.092c3.53 4.609 7.279 6.733 11.457 6.733 4.155 0 7.801-2.1 11.173-6.672l6.74 4.97c-4.862 6.593-10.911 10.076-17.912 10.076-6.978 0-13.083-3.459-18.105-10.015z" fill="url(#A)"/><path d="M31.606 20.284L19.773 30.48l-5.466-6.344L31.629 9.21l17.188 14.938-5.493 6.321-11.718-10.184z" fill="url(#B)"/></g><defs><linearGradient id="A" x1="13.522" y1="55.151" x2="49.539" y2="55.151" gradientUnits="userSpaceOnUse"><stop stop-color="#8930fd"/><stop offset="1" stop-color="#49ccf9"/></linearGradient><linearGradient id="B" x1="14.307" y1="34.31" x2="48.817" y2="34.31" gradientUnits="userSpaceOnUse"><stop stop-color="#ff02f0"/><stop offset="1" stop-color="#ffc800"/></linearGradient><clipPath id="C"><path fill="#fff" transform="translate(13 9)" d="M0 0h36.776v44H0z"/></clipPath></defs></svg>