<svg width="62" height="62" viewBox="0 0 62 62" fill="none" xmlns="http://www.w3.org/2000/svg"><rect width="62" height="62" rx="31" fill="white"/><path d="M9 9.51212C9 9.21339 9.21339 9 9.51212 9H13.3531C13.6518 9 13.8652 9.21339 13.8652 9.51212V52.4879C13.8652 52.7866 13.6518 53 13.3531 53H9.51212C9.21339 53 9 52.7866 9 52.4879V9.51212ZM18.773 9.51212C18.773 9.21339 18.9864 9 19.2852 9H23.1261C23.4248 9 23.6382 9.21339 23.6382 9.51212V52.4879C23.6382 52.7866 23.4248 53 23.1261 53H19.2852C18.9864 53 18.773 52.7866 18.773 52.4879V9.51212ZM28.5461 9.51212C28.5461 9.21339 28.7595 9 29.0582 9H32.8991C33.1979 9 33.4113 9.21339 33.4113 9.51212V52.4879C33.4113 52.7866 33.1979 53 32.8991 53H29.0582C28.7595 53 28.5461 52.7866 28.5461 52.4879V9.51212ZM38.3191 9.51212C38.3191 9.21339 38.5325 9 38.8312 9H42.6722C42.9709 9 43.1843 9.21339 43.1843 9.51212V52.4879C43.1843 52.7866 42.9709 53 42.6722 53H38.8312C38.5325 53 38.3191 52.7866 38.3191 52.4879V9.51212ZM48.0921 26.6256C48.0921 26.3269 48.3055 26.1135 48.6043 26.1135H52.4452C52.7439 26.1135 52.9573 26.3269 52.9573 26.6256V35.3744C52.9573 35.6731 52.7439 35.8865 52.4452 35.8865H48.6043C48.3055 35.8865 48.0921 35.6731 48.0921 35.3744V26.6256Z" fill="#1E1E1E"/></svg>