<svg width="180" height="180" viewBox="0 0 180 180" fill="none" xmlns="http://www.w3.org/2000/svg">
<path d="M90 0C40.2365 0 0 40.3378 0 90C0 139.763 40.3378 180 90 180C139.662 180 180 139.662 180 90C180 40.3378 139.662 0 90 0ZM152.635 119.797C152.635 137.939 137.939 152.736 119.696 152.736H60.2027C42.0608 152.736 27.2635 138.041 27.2635 119.797V60.3041C27.2635 42.1622 41.9595 27.3649 60.2027 27.3649H119.696C137.838 27.3649 152.635 42.0608 152.635 60.3041V119.797V119.797Z" fill="#0075BB"/>
<path d="M89.5946 88.277L52.196 62.8378L79.2568 114.932C79.4595 115.236 79.6622 115.439 79.8649 115.743C79.9662 115.845 80.0676 116.047 80.1689 116.149C80.473 116.554 80.6757 116.858 80.9797 117.264C81.2838 117.568 81.5878 117.77 81.7905 117.973C85.2365 121.014 89.7973 122.128 94.0541 121.014H94.1554C94.9662 120.811 95.6757 120.507 96.3852 120.203C96.4865 120.101 96.5878 120.101 96.6892 120C97.2973 119.696 97.9054 119.291 98.5135 118.885C98.7162 118.784 98.9189 118.581 99.0203 118.48C99.3243 118.277 99.6284 118.074 99.9324 117.77C100.135 117.568 100.338 117.365 100.541 117.162C100.642 117.061 100.743 116.959 100.845 116.858L101.149 116.453C101.554 115.946 101.858 115.541 102.162 115.034L177.77 9.12162L89.5946 88.277Z" fill="#0075BB"/>
</svg>
