<svg xmlns="http://www.w3.org/2000/svg" width="62" height="62" fill="none"><path d="M53 31.93v-1.859c0-1.584-.62-3.03-1.79-4.407-.62-.689-1.446-1.446-2.41-2.066-.482-.344-1.033-.689-1.653-1.033-.482-.207-.895-.482-1.377-.689a33.35 33.35 0 0 0-4.2-1.446c.207.62.344 1.308.482 1.928l.413 2.066 2.272.895c.344.138.689.275 1.033.482.138.069.344.138.482.207.62.344 1.102.689 1.584 1.033 1.79 1.171 2.892 2.548 3.236 3.925-.344 1.446-1.446 2.823-3.236 3.994l.551 1.515a9.65 9.65 0 0 1 .413 1.928c.964-.62 1.79-1.377 2.41-2.066C52.38 34.959 53 33.513 53 31.93zM26.146 42.671l-2.204-1.928.482 1.721 1.722.207zm3.993-1.583l.826.62 1.721 1.033c.069.069.138.138.207.138a21.4 21.4 0 0 0 2.961-.206l1.721-.207 2.066-.413 1.928-.482c1.515-.413 2.892-.895 4.2-1.446l-.482-1.859c-.069-.138-.069-.344-.138-.551l-.413-1.033c-.689.344-1.515.62-2.272.895-.551.207-1.171.344-1.721.482-.069.069-.138.069-.206.069-.689.206-1.308.344-1.997.413l-1.033.207c-1.033.207-2.066.275-3.167.413l-3.374.138c-1.102 0-2.203-.069-3.305-.138.757.689 1.653 1.308 2.479 1.928zM16.712 23.736c0 .138.069.344.138.551l.413 1.033c.689-.344 1.515-.62 2.272-.895.551-.207 1.171-.344 1.721-.482.069-.069.138-.069.207-.069.689-.138 1.308-.344 1.997-.413l1.033-.207 3.167-.413 3.305-.069 3.374.069c-.757-.689-1.653-1.308-2.479-1.928l-.895-.62-1.653-1.033c-.069-.069-.138-.138-.207-.138-1.033 0-1.997.138-2.961.207l-1.721.207-2.066.413-1.928.482c-1.515.413-2.892.895-4.2 1.446l.482 1.859zm19.143-4.407l2.203 1.928-.482-1.721-1.721-.207zM10.928 30.965c.344-1.377 1.446-2.754 3.236-3.925l-.551-1.515c-.207-.62-.344-1.308-.482-1.928a13.89 13.89 0 0 0-2.341 2.066C9.62 27.041 9 28.487 9 30.07v1.859c0 1.584.62 3.03 1.79 4.407.62.689 1.446 1.377 2.341 2.066l1.721 1.033c.482.207.895.482 1.377.689a33.31 33.31 0 0 0 4.2 1.446c-.207-.62-.344-1.308-.482-1.928l-.413-2.066-2.272-.895c-.344-.138-.689-.275-1.033-.482-.138-.069-.344-.138-.482-.207-.62-.344-1.102-.689-1.584-1.033-1.79-1.17-2.892-2.548-3.236-3.994z" fill="#2f577e"/><g fill="#f4b563"><path d="M35.854 42.671l-2.961.207c.482.344 1.033.62 1.515.826l1.446-1.033zm11.362-26.579l-1.308-1.308c-1.102-1.102-2.617-1.721-4.407-1.859-.964-.069-1.997.069-3.099.275-.62.069-1.308.275-1.928.413-.482.138-.964.344-1.515.551a33.75 33.75 0 0 0-3.994 1.859l1.79 1.102c.551.344 1.102.757 1.653 1.171.757-.413 1.515-.758 2.272-1.033l1.033-.413c.207-.069.413-.069.551-.138.62-.207 1.239-.344 1.859-.482 2.066-.344 3.856-.138 5.095.551"/><path d="M45.219 16.781c.689 1.239.895 3.03.551 5.096.482.207.895.482 1.377.689.62.344 1.171.689 1.653 1.033.207-1.102.344-2.134.275-3.098-.138-1.79-.757-3.305-1.859-4.407-.207-.276-.413-.413-.689-.62m-9.02 23.272l1.033-.207c.689-.069 1.308-.207 1.997-.413.069 0 .138 0 .206-.069.689-.688 1.308-1.446 1.928-2.203l1.033-1.446 1.239-1.653 1.033-1.721c.758-1.377 1.377-2.754 1.859-3.994l-1.584-1.033c-.138-.069-.344-.138-.482-.207-.344-.207-.689-.344-1.033-.482-.275.757-.62 1.515-1.033 2.272-.206.482-.482 1.033-.826 1.515 0 .069-.069.138-.138.206-.275.551-.689 1.102-1.033 1.722l-.62.826-1.928 2.479c-.757.895-1.515 1.721-2.341 2.479-.758.826-1.584 1.584-2.479 2.341l3.167-.413zM26.146 19.329a20.68 20.68 0 0 1 2.961-.207c-.482-.344-1.033-.62-1.515-.826-.482.275-.964.689-1.446 1.033zm-9.365 25.89c-.689-1.239-.895-3.03-.551-5.096-.482-.206-.895-.482-1.377-.688l-1.721-1.033c-.138 1.102-.275 2.135-.207 3.099.138 1.79.758 3.305 1.859 4.407l1.308 1.308c1.102 1.102 2.617 1.721 4.407 1.859.964.069 1.997-.069 3.098-.207l1.928-.482c.482-.138.964-.344 1.515-.551 1.239-.482 2.617-1.102 3.925-1.859l-1.721-1.033-1.653-1.171-2.272.964-1.033.413c-.207.069-.413.138-.551.138-.62.206-1.24.344-1.859.482-2.066.344-3.856.138-5.095-.551z"/><path d="M15.748 35.992c.138.069.344.138.482.207.344.207.689.344 1.033.482.275-.757.62-1.515 1.033-2.272.207-.482.482-1.033.826-1.515 0-.069.069-.138.138-.207.275-.551.689-1.102 1.033-1.721l.62-.826 1.928-2.479c.757-.895 1.515-1.721 2.341-2.479.757-.826 1.584-1.584 2.479-2.341l-3.168.413-1.033.207c-.689.069-1.308.275-1.997.413-.069 0-.138 0-.207.069-.688.689-1.308 1.446-1.928 2.203l-1.102 1.446c-.344.551-.757 1.102-1.171 1.653l-1.033 1.721c-.757 1.377-1.377 2.754-1.859 3.994l1.584 1.033z"/></g><path d="M19.329 35.854a21.4 21.4 0 0 1-.207-2.961 8.22 8.22 0 0 0-.826 1.515c.275.482.689.964 1.033 1.446zm-2.548-19.073c1.239-.689 3.03-.895 5.095-.551.207-.482.482-.895.689-1.377.344-.62.689-1.171 1.033-1.653-1.102-.207-2.134-.344-3.098-.275-1.79.138-3.305.757-4.407 1.859l-1.308 1.308c-1.102 1.102-1.722 2.617-1.859 4.407-.069.964.069 1.997.207 3.099l.482 1.928c.138.482.344.964.551 1.515.482 1.239 1.102 2.617 1.859 3.994l1.033-1.79 1.171-1.653-.964-2.272-.413-1.033c-.069-.207-.138-.413-.138-.551-.207-.62-.344-1.239-.482-1.859-.344-2.066-.138-3.856.551-5.096zm25.89 9.365l.207 2.961c.344-.482.62-1.033.826-1.515-.275-.482-.688-.964-1.033-1.446zm-3.925-1.653l-.206-1.033c-.069-.689-.276-1.308-.413-1.997 0-.069 0-.138-.069-.207-.689-.688-1.446-1.308-2.203-1.928l-1.446-1.033-1.653-1.239-1.79-1.033c-1.308-.757-2.685-1.377-3.925-1.859l-1.033 1.584c-.069.138-.138.344-.207.482-.207.344-.344.689-.482 1.033.757.275 1.515.62 2.272 1.033.482.207 1.033.482 1.515.826.069 0 .138.069.207.138.551.275 1.102.689 1.652 1.033.344.207.62.413.895.62l2.479 1.928c.895.757 1.721 1.515 2.479 2.341.826.757 1.584 1.584 2.341 2.479l-.413-3.168zM23.254 37.507l.207 1.033c.069.689.275 1.308.413 1.997 0 .069 0 .138.069.206.689.689 1.446 1.308 2.203 1.928l1.446 1.033 1.653 1.239 1.721 1.033c1.377.758 2.754 1.377 3.994 1.859l1.033-1.584c.069-.138.138-.344.207-.482.207-.344.344-.689.482-1.033-.757-.275-1.515-.62-2.272-1.033-.482-.206-1.033-.482-1.515-.826-.069 0-.138-.069-.207-.138-.551-.275-1.102-.689-1.721-1.033l-.826-.62-2.479-1.928c-.895-.757-1.721-1.515-2.479-2.341-.826-.758-1.584-1.584-2.341-2.479l.413 3.167zm22.654 9.709l1.308-1.308c1.102-1.102 1.721-2.617 1.859-4.407.069-.964-.069-1.997-.275-3.099a9.65 9.65 0 0 0-.413-1.928c-.138-.482-.344-.964-.551-1.515a28.67 28.67 0 0 0-1.859-3.925l-1.033 1.721-1.239 1.653a16.59 16.59 0 0 1 1.033 2.272l.413 1.033c.069.207.069.413.138.551.207.62.344 1.239.482 1.859.344 2.066.138 3.856-.551 5.095-1.239.689-3.03.895-5.095.551-.207.482-.482.895-.689 1.377-.344.62-.689 1.171-1.033 1.653 1.102.206 2.135.344 3.099.275 1.79-.138 3.305-.757 4.407-1.859z" fill="#5cafcd"/><path d="M20.912 30.139l-.62.895-1.033 1.653c-.069.069-.138.138-.138.207a21.4 21.4 0 0 0 .207 2.961l.207 1.721.413 2.066.482 1.928c.413 1.515.895 2.892 1.446 4.2l1.859-.482c.138-.069.344-.069.551-.138l1.033-.413c-.344-.689-.62-1.515-.895-2.272-.207-.551-.344-1.171-.482-1.721-.069-.069-.069-.138-.069-.206-.138-.689-.344-1.308-.413-1.997l-.207-1.033c-.206-1.033-.275-2.066-.413-3.167l-.138-3.305.138-3.374c-.689.757-1.308 1.653-1.928 2.479zm21.759 5.716l-1.928 2.203 1.721-.482.207-1.721zm-23.342-9.709l1.928-2.204-1.721.482-.207 1.722zm21.759 5.715l.62-.826 1.033-1.722c.069-.069.138-.138.138-.207 0-.964-.138-1.997-.207-2.961l-.207-1.721-.413-2.066-.482-1.928c-.413-1.515-.895-2.892-1.446-4.2l-1.859.482c-.138.069-.344.069-.551.138l-1.033.413c.344.689.62 1.515.895 2.272.207.551.344 1.171.482 1.721.069.069.069.138.069.207.138.689.344 1.308.413 1.997l.207 1.033.413 3.167.069 3.374-.069 3.305c.688-.757 1.308-1.653 1.928-2.479zm-2.686-18.729c-.689-.895-1.377-1.722-2.066-2.341C34.959 9.62 33.513 9 31.93 9h-1.86c-1.584 0-3.03.62-4.407 1.79a13.92 13.92 0 0 0-2.066 2.341l-1.033 1.721c-.207.482-.482.895-.689 1.377a33.31 33.31 0 0 0-1.446 4.2c.62-.207 1.308-.344 1.928-.482l2.066-.413.895-2.272c.138-.344.275-.689.482-1.033.069-.138.138-.344.207-.482.344-.62.689-1.102 1.033-1.584 1.171-1.79 2.548-2.892 3.925-3.236 1.446.344 2.823 1.446 3.994 3.236l1.515-.551M30.07 53h1.859c1.584 0 3.03-.62 4.407-1.79.689-.62 1.377-1.446 2.066-2.41.344-.482.689-1.033 1.033-1.653.207-.482.482-.895.689-1.377a33.35 33.35 0 0 0 1.446-4.2l-1.928.482-2.066.413-.895 2.272c-.138.344-.275.689-.482 1.033-.069.138-.138.344-.207.482-.344.62-.688 1.102-1.033 1.584-1.171 1.79-2.548 2.892-3.994 3.236-1.377-.344-2.754-1.446-3.925-3.236l-1.515.551-1.928.413c.62.964 1.377 1.79 2.066 2.41C27.041 52.38 28.487 53 30.07 53z" fill="#47b178"/></svg>