<svg xmlns="http://www.w3.org/2000/svg" width="64" height="64" viewBox="0 0 64 64" fill="none">
  <path fill="#f38020" d="m40.005 39.899c1.175-2.777-.427-4.059-2.03-4.059l-15.81-.214c-.427 0-.427-.64.107-.747l16.024-.214c1.816-.107 3.953-1.602 4.594-3.525 0 0 1.068-2.243.961-2.564a10.362 10.362 0 0 0-19.976-1.175c-4.06-2.67-8.332.961-7.371 4.914-5.128.32-6.944 4.914-6.41 7.691 0 .107.107.214.32.214h29.27c.107 0 .32-.107.32-.32z"/>
  <path fill="#faae40" d="M45.347 29.003c-.427 0-.641-.107-.748.107l-.534 2.243c-.534 1.71.32 3.205 2.137 3.312l3.418.214c.427 0 .427.64-.107.747l-3.525.107c-3.846.427-4.914 4.166-4.914 4.166 0 .214 0 .32.214.32h12.07l.321-.213a8.653 8.653 0 0 0-8.332-11.003"/>
</svg>
