<svg width="62" height="62" viewBox="0 0 62 62" fill="none" xmlns="http://www.w3.org/2000/svg"><mask id="mask0_2309_41" style="mask-type:luminance" maskUnits="userSpaceOnUse" x="9" y="9" width="44" height="44"><path d="M53 9H9V53H53V9Z" fill="white"/></mask><g mask="url(#mask0_2309_41)"><path d="M36.2631 9H25.7369C16.4934 9 9 16.4934 9 25.7369V36.2631C9 45.5066 16.4934 53 25.7369 53H36.2631C45.5066 53 53 45.5066 53 36.2631V25.7369C53 16.4934 45.5066 9 36.2631 9Z" fill="#0527FF"/><path d="M29.3526 40.2907C29.8772 40.2907 29.9957 40.6122 30.1593 41.0974L30.9265 43.5172C31.0054 43.7995 31.169 43.918 31.4116 43.918H31.7331C31.9757 43.918 32.1336 43.7995 32.2182 43.5172L32.9854 41.0974C33.149 40.6122 33.1885 40.2512 34.1926 40.2512C36.449 40.2512 38.587 39.9297 40.1946 38.3558C40.9618 37.5886 41.887 37.3066 42.7726 37.9102L43.5398 38.4348C44.6284 39.1625 44.9502 40.5276 44.0643 41.4584C41.808 43.7544 38.6265 45.125 34.9993 45.125H28.9577C21.788 45.125 16.4685 39.8056 16.4685 32.7543V29.2907C16.4685 22.2394 21.788 16.9199 28.9577 16.9199H34.9993C38.6265 16.9199 41.808 18.2907 44.0643 20.5866C44.9502 21.5117 44.6284 22.8825 43.5398 23.6102L42.7726 24.1348C41.887 24.7384 40.9618 24.4563 40.1946 23.6891C38.5813 22.1153 36.449 21.7938 34.1926 21.7938L29.3582 21.7543C24.3603 21.7148 21.7034 24.8174 21.7034 29.2907V32.7543C21.7034 37.2276 24.3603 40.2907 29.3582 40.2907H29.3526Z" fill="white"/></g></svg>