<svg width="62" height="62" viewBox="0 0 62 62" fill="none" xmlns="http://www.w3.org/2000/svg"><rect width="62" height="62" rx="31" fill="white"/><path d="M49.1718 21.4081C45.0911 17.3155 38.9701 16.5482 34.1243 18.9781C33.8692 18.9781 33.7417 18.8502 33.8692 18.7223L39.4802 13.0951C39.7352 12.8393 39.6077 12.5835 39.4802 12.4556C34.3793 7.7236 26.3455 7.85149 21.3721 12.8393C17.2914 16.9318 16.5263 23.1986 19.0767 28.0585C19.0767 28.3143 18.9492 28.4422 18.8217 28.3143L13.0832 22.5591C12.8282 22.3033 12.5731 22.4312 12.4456 22.5591C7.7273 27.6748 7.85482 35.6041 12.8282 40.5919C16.9089 44.6845 23.0299 45.4518 27.8757 43.0219C28.1308 43.0219 28.2583 43.1498 28.1308 43.2777L22.5198 48.9049C22.2648 49.1607 22.3923 49.4165 22.5198 49.5444C27.6207 54.2764 35.6545 54.1485 40.6279 49.1607C44.7086 45.0682 45.4737 38.8014 42.9233 33.9415C42.9233 33.6857 43.0508 33.5578 43.1783 33.6857L48.9168 39.4409C49.1718 39.6967 49.4269 39.5688 49.5544 39.4409C54.2727 34.3252 54.1452 26.3959 49.1718 21.4081ZM39.4802 31.1279C36.8022 32.151 32.2115 36.7552 31.1913 39.4409C31.1913 39.6967 30.8087 39.6967 30.6812 39.4409C29.661 36.7552 25.0702 32.151 22.3923 31.1279C22.1372 31.1279 22.1372 30.7442 22.3923 30.6163C25.0702 29.5932 29.661 24.9891 30.6812 22.3033C30.6812 22.0475 31.0638 22.0475 31.1913 22.3033C32.2115 24.9891 36.8022 29.5932 39.4802 30.6163C39.7352 30.6163 39.7352 31 39.4802 31.1279Z" fill="#261C0A"/></svg>