<svg width="62" height="62" viewBox="0 0 64 64" fill="none" xmlns="http://www.w3.org/2000/svg"><path fill="#f38020" d="m 40.005394,39.898861 c 1.175082,-2.777468 -0.427303,-4.059379 -2.029689,-4.059379 L 22.165469,35.625824 c -0.427304,0 -0.427304,-0.640949 0.106779,-0.747778 L 38.29613,34.6644 c 1.816044,-0.106779 3.952562,-1.602398 4.593511,-3.525258 0,0 1.068266,-2.243348 0.961437,-2.563822 A 10.362114,10.362114 0 0 0 23.874634,27.400238 c -4.059391,-2.670651 -8.332428,0.961424 -7.370992,4.913986 -5.127644,0.320475 -6.9436873,4.913998 -6.409555,7.691466 0,0.106779 0.10678,0.213658 0.320475,0.213658 H 39.68487 c 0.106779,0 0.320475,-0.106779 0.320475,-0.320487 z"/><path fill="#faae40" d="m 45.346696,29.002624 c -0.427303,0 -0.640961,-0.10678 -0.74779,0.106779 l -0.534121,2.243335 c -0.534132,1.709214 0.320475,3.204784 2.136519,3.311613 l 3.418429,0.213645 c 0.427304,0 0.427304,0.640962 -0.106779,0.747779 l -3.525259,0.106779 c -3.845733,0.427303 -4.913986,4.166208 -4.913986,4.166208 0,0.213658 0,0.320487 0.213646,0.320487 h 12.071332 l 0.320474,-0.213658 A 8.6528994,8.6528994 0 0 0 45.346696,29.002624"/></svg>
