<svg width="62" height="62" viewBox="0 0 62 62" fill="none" xmlns="http://www.w3.org/2000/svg"><path d="M30.4748 19.8155C30.4748 15.8155 28.0748 12.4155 24.4748 10.8155C20.8748 9.21547 16.6748 10.0155 13.8748 12.8155C11.0748 15.6155 10.2748 19.8155 11.6748 23.4155C13.0748 27.0155 16.6748 29.4154 20.6748 29.4154H30.4748V19.8155ZM33.2748 19.8155C33.2748 15.8155 35.6748 12.4155 39.2748 10.8155C42.8748 9.21547 47.0748 10.0155 49.8748 12.8155C52.6748 15.6155 53.4748 19.8155 52.0748 23.4155C50.6748 27.0155 47.0748 29.4154 43.0748 29.4154H33.2748V19.8155ZM33.2748 41.8154C33.2748 45.8154 35.6748 49.2154 39.2748 50.8154C42.8748 52.4154 47.0748 51.6154 49.8748 48.8154C52.6748 46.0154 53.4748 41.8154 52.0748 38.2154C50.6748 34.6154 47.0748 32.2154 43.0748 32.2154H33.2748V41.8154ZM20.6748 48.8154C24.4748 48.8154 27.6748 45.8154 27.6748 41.8154V34.8154H20.6748C16.8748 34.8154 13.6748 37.8154 13.6748 41.8154C13.6748 45.8154 16.8748 48.8154 20.6748 48.8154ZM30.4748 41.8154C30.4748 45.8154 28.0748 49.2154 24.4748 50.8154C20.8748 52.4154 16.6748 51.6154 13.8748 48.8154C11.0748 46.0154 10.2748 41.8154 11.6748 38.2154C13.0748 34.6154 16.6748 32.2154 20.6748 32.2154H30.4748V41.8154Z" fill="#228800"/></svg>