<svg width="62" height="62" viewBox="0 0 62 62" fill="none" xmlns="http://www.w3.org/2000/svg"><rect width="62" height="62" rx="31" fill="white"/><path d="M40.1988 23.9663C39.7692 24.3958 39.7692 25.0922 40.1988 25.5219L44.8997 30.2229C45.3293 30.6524 45.3293 31.3489 44.8997 31.7785L40.1988 36.4796C39.7692 36.9091 39.7692 37.6056 40.1988 38.0352L42.5322 40.3686C42.9617 40.7983 43.6583 40.7983 44.0878 40.3686L52.6778 31.7785C53.1074 31.3489 53.1074 30.6524 52.6778 30.2229L44.0878 21.6327C43.6583 21.2032 42.9617 21.2032 42.5322 21.6327L40.1988 23.9663Z" fill="black"/><path d="M36.3095 41.9239C35.8799 41.4942 35.1834 41.4942 34.7538 41.9239L31.7777 44.8999C31.3481 45.3296 30.6516 45.3296 30.222 44.8999L17.1003 31.778C16.6707 31.3484 16.6707 30.6519 17.1003 30.2224L30.222 17.1004C30.6516 16.6709 31.3481 16.6709 31.7777 17.1004L34.7538 20.0766C35.1834 20.5061 35.8799 20.5061 36.3095 20.0766L38.6429 17.7431C39.0724 17.3135 39.0724 16.617 38.6429 16.1875L31.7777 9.32219C31.3481 8.8926 30.6516 8.8926 30.222 9.32219L9.32218 30.2224C8.89261 30.6519 8.89261 31.3484 9.32218 31.778L30.222 52.6783C30.6516 53.1078 31.3481 53.1078 31.7777 52.6783L38.6429 45.8129C39.0724 45.3834 39.0724 44.6869 38.6429 44.2573L36.3095 41.9239Z" fill="black"/><path d="M36.5 31C36.5 34.0376 34.0376 36.5 31 36.5C27.9625 36.5 25.5 34.0376 25.5 31C25.5 27.9625 27.9625 25.5 31 25.5C34.0376 25.5 36.5 27.9625 36.5 31Z" fill="black"/></svg>