<svg width="400" height="401" viewBox="0 0 400 401" fill="none" xmlns="http://www.w3.org/2000/svg">
<path d="M283.622 136.052C279.717 139.957 279.717 146.288 283.622 150.194L326.358 192.93C330.263 196.835 330.263 203.167 326.358 207.072L283.622 249.809C279.717 253.714 279.717 260.046 283.622 263.951L304.835 285.164C308.74 289.07 315.072 289.07 318.977 285.164L397.068 207.072C400.973 203.167 400.973 196.835 397.068 192.93L318.977 114.838C315.072 110.933 308.74 110.933 304.835 114.838L283.622 136.052Z" fill="black"/>
<path d="M248.267 299.307C244.362 295.401 238.03 295.401 234.125 299.307L207.069 326.362C203.164 330.268 196.832 330.268 192.927 326.362L73.639 207.072C69.7338 203.167 69.7338 196.835 73.639 192.93L192.927 73.6402C196.832 69.7349 203.164 69.7349 207.069 73.6402L234.125 100.696C238.03 104.601 244.362 104.601 248.267 100.696L269.48 79.4824C273.385 75.5772 273.385 69.2456 269.48 65.3404L207.069 2.92899C203.164 -0.976329 196.832 -0.976329 192.927 2.92899L2.92888 192.93C-0.976293 196.835 -0.976292 203.167 2.92888 207.072L192.927 397.074C196.832 400.979 203.164 400.979 207.069 397.074L269.48 334.662C273.385 330.757 273.385 324.425 269.48 320.52L248.267 299.307Z" fill="black"/>
<path d="M250 200C250 227.614 227.614 250 200 250C172.386 250 150 227.614 150 200C150 172.386 172.386 150 200 150C227.614 150 250 172.386 250 200Z" fill="black"/>
</svg>
