<?xml version="1.0" encoding="UTF-8"?>
<svg xmlns="http://www.w3.org/2000/svg" xmlns:xlink="http://www.w3.org/1999/xlink" width="62px" height="62px" viewBox="0 0 62 62" version="1.1">
<g id="surface1">
<path style=" stroke:none;fill-rule:nonzero;fill:rgb(38.82353%,34.901962%,100%);fill-opacity:1;" d="M 7.449219 45.085938 L 7.449219 20.078125 C 7.449219 19.386719 8.191406 18.957031 8.789062 19.296875 L 30.296875 31.800781 C 30.851562 32.125 31.191406 32.71875 31.191406 33.359375 L 31.191406 58.367188 C 31.191406 59.0625 30.445312 59.492188 29.851562 59.148438 L 8.339844 46.648438 C 7.789062 46.328125 7.449219 45.730469 7.449219 45.089844 Z M 7.449219 45.085938 "/>
<path style=" stroke:none;fill-rule:nonzero;fill:rgb(100%,78.431374%,2.352941%);fill-opacity:1;" d="M 10.238281 15.601562 L 31.410156 3.292969 C 31.964844 2.972656 32.640625 2.972656 33.195312 3.292969 L 54.367188 15.601562 C 55.109375 16.039062 55.109375 17.117188 54.367188 17.550781 L 33.195312 29.859375 C 32.640625 30.179688 31.964844 30.179688 31.410156 29.859375 L 10.238281 17.550781 C 9.496094 17.117188 9.496094 16.039062 10.238281 15.601562 Z M 10.238281 15.601562 "/>
<path style=" stroke:none;fill-rule:nonzero;fill:rgb(4.313726%,74.901962%,74.901962%);fill-opacity:1;" d="M 33.417969 58.371094 L 33.417969 35.183594 C 33.417969 34.488281 34.160156 34.058594 34.757812 34.402344 L 54.367188 45.800781 C 55.109375 46.234375 55.109375 47.3125 54.367188 47.75 L 34.757812 59.148438 C 34.160156 59.496094 33.417969 59.0625 33.417969 58.367188 Z M 33.417969 58.371094 "/>
</g>
</svg>
