<?xml version="1.0" encoding="UTF-8"?>
<svg id="logosandtypes_com" data-name="logosandtypes com" xmlns="http://www.w3.org/2000/svg" viewBox="0 0 150 150">
  <defs>
    <style>
      .cls-1 {
        fill: #ffc806;
      }

      .cls-2 {
        fill: #6359ff;
      }

      .cls-3 {
        fill: none;
      }

      .cls-4 {
        fill: #0bbfbf;
      }
    </style>
  </defs>
  <path class="cls-3" d="M0,0H150V150H0V0Z"/>
  <path class="cls-2" d="M18.02,109.08V48.58c0-1.68,1.8-2.72,3.24-1.89l52.04,30.25c1.34,.78,2.16,2.22,2.16,3.77v60.5c0,1.68-1.8,2.72-3.24,1.89l-52.04-30.24c-1.34-.78-2.16-2.22-2.16-3.77h0Z"/>
  <path class="cls-1" d="M24.77,37.75L75.99,7.97c1.34-.78,2.98-.78,4.32,0l51.22,29.78c1.8,1.05,1.8,3.66,0,4.71l-51.22,29.78c-1.34,.78-2.98,.78-4.32,0L24.77,42.46c-1.8-1.05-1.8-3.66,0-4.71Z"/>
  <path class="cls-4" d="M80.85,141.22v-56.1c0-1.68,1.8-2.72,3.24-1.89l47.44,27.58c1.8,1.05,1.8,3.66,0,4.71l-47.44,27.58c-1.44,.84-3.24-.21-3.24-1.89Z"/>
</svg>