<svg id="Layer_2" data-name="Layer 2" xmlns="http://www.w3.org/2000/svg" viewBox="0 0 62 62" width="62" height="62"><defs><radialGradient id="radial-gradient" cx="-324.08" cy="-810.41" fx="-324.08" fy="-810.41" r="1297.12" gradientTransform="matrix(.68 0 0 .68 62.2 319.26)" gradientUnits="userSpaceOnUse"><stop offset="0" stop-color="#84b3e9"/><stop offset=".21" stop-color="#6fa6e5"/><stop offset=".63" stop-color="#3b86db"/><stop offset="1" stop-color="#0967d2"/></radialGradient><style>.cls-7{fill:#fff}</style></defs><g id="Layer_1-2" data-name="Layer 1"><path d="M0 0h62v62H0z" style="fill:url(#radial-gradient)"/><path class="cls-7" d="M12.194 44.473v-9.898h-.008v-.912c-.042-.573-.515-1.026-1.098-1.026s-1.107.496-1.107 1.107v10.728a3.64 3.64 0 0 0 3.637 3.637v-2.213a1.425 1.425 0 0 1-1.423-1.423Zm37.621-9.898v9.898c0 .785-.639 1.423-1.423 1.423v2.213a3.64 3.64 0 0 0 3.637-3.637V28.455c0-.611-.496-1.107-1.107-1.107h-1.107zm1.106-9.693c.611 0 1.107-.496 1.107-1.107V20.3a3.64 3.64 0 0 0-3.637-3.637h-6.804a1.43 1.43 0 0 1-1.297-.838l-1.185-2.628a3.64 3.64 0 0 0-3.315-2.141h-9.627a3.65 3.65 0 0 0-3.289 2.086l-1.275 2.705a1.43 1.43 0 0 1-1.287.816H13.61A3.64 3.64 0 0 0 9.973 20.3v8.155c0 .611.495 1.107 1.107 1.107h1.107v-9.263c0-.785.639-1.423 1.423-1.423h6.702a3.65 3.65 0 0 0 3.289-2.086l1.275-2.705a1.43 1.43 0 0 1 1.287-.816h9.627c.558 0 1.067.329 1.297.838l1.185 2.628a3.64 3.64 0 0 0 3.315 2.141h6.804c.785 0 1.423.639 1.423 1.423v3.475c0 .611.495 1.107 1.107 1.107"/><path d="M31 21.969a9.36 9.36 0 0 0-6.972 3.117 9.34 9.34 0 0 0-.746 11.532l7.719 11.263 7.719-11.263a9.336 9.336 0 0 0-.746-11.531 9.37 9.37 0 0 0-6.972-3.117Z" style="fill:none"/><path d="M50.44 27.348h-8.577c.265.721.463 1.461.579 2.213h7.375l.625-2.213Z" style="fill:url(#linear-gradient)"/><path d="m12.185 27.348-.625 2.213h7.998c.116-.753.313-1.493.579-2.213z" style="fill:url(#linear-gradient-2)"/><path d="m12.992 45.896.625 2.213h14.857l-1.517-2.213z" style="fill:url(#linear-gradient-3)"/><path d="m48.391 48.109.625-2.213H35.043l-1.517 2.213z" style="fill:url(#linear-gradient-4)"/><path class="cls-7" d="M39.622 23.609C37.43 21.16 34.287 19.755 31 19.755s-6.429 1.405-8.622 3.854a11.6 11.6 0 0 0-2.24 3.74 11.5 11.5 0 0 0-.579 2.213 11.55 11.55 0 0 0 1.895 8.307l5.502 8.028 1.517 2.213 1.613 2.353a1.107 1.107 0 0 0 1.826 0l1.613-2.353 1.517-2.213 5.502-8.028a11.54 11.54 0 0 0 1.896-8.307 11.4 11.4 0 0 0-.579-2.213 11.6 11.6 0 0 0-2.24-3.74Zm-.903 13.008L31 47.88l-7.719-11.263a9.34 9.34 0 0 1 .746-11.532c1.773-1.981 4.315-3.117 6.972-3.117s5.2 1.136 6.972 3.117a9.336 9.336 0 0 1 .746 11.531Z"/><path class="cls-7" d="M30.925 37.341a6.3 6.3 0 0 1-4.471-1.849c-2.465-2.465-2.465-6.476 0-8.942s6.476-2.465 8.942 0a1.105 1.105 0 0 1 0 1.565 1.106 1.106 0 0 1-1.565 0c-1.602-1.602-4.209-1.602-5.811 0s-1.602 4.209 0 5.811 4.209 1.602 5.811 0a1.106 1.106 0 1 1 1.565 1.565 6.3 6.3 0 0 1-4.471 1.849"/></g></svg>