<?xml version="1.0" encoding="UTF-8"?>
<svg id="Layer_2" data-name="Layer 2" xmlns="http://www.w3.org/2000/svg" xmlns:xlink="http://www.w3.org/1999/xlink" viewBox="0 0 635 635">
  <defs>
    <style>
      .cls-1 {
        fill: none;
      }

      .cls-2 {
        fill: url(#linear-gradient-4);
      }

      .cls-3 {
        fill: url(#linear-gradient-3);
      }

      .cls-4 {
        fill: url(#linear-gradient-2);
      }

      .cls-5 {
        fill: url(#radial-gradient);
      }

      .cls-6 {
        fill: url(#linear-gradient);
      }

      .cls-7 {
        fill: #fff;
      }
    </style>
    <radialGradient id="radial-gradient" cx="-324.08" cy="-810.41" fx="-324.08" fy="-810.41" r="1297.12" gradientTransform="translate(62.2 319.26) scale(.68)" gradientUnits="userSpaceOnUse">
      <stop offset="0" stop-color="#84b3e9"/>
      <stop offset=".21" stop-color="#6fa6e5"/>
      <stop offset=".63" stop-color="#3b86db"/>
      <stop offset="1" stop-color="#0967d2"/>
    </radialGradient>
    <linearGradient id="linear-gradient" x1="516.27" y1="278.89" x2="434.17" y2="300.89" gradientUnits="userSpaceOnUse">
      <stop offset=".2" stop-color="#fff"/>
      <stop offset=".27" stop-color="#fff" stop-opacity=".96"/>
      <stop offset=".38" stop-color="#fff" stop-opacity=".87"/>
      <stop offset=".52" stop-color="#fff" stop-opacity=".71"/>
      <stop offset=".68" stop-color="#fff" stop-opacity=".5"/>
      <stop offset=".86" stop-color="#fff" stop-opacity=".22"/>
      <stop offset="1" stop-color="#fff" stop-opacity="0"/>
    </linearGradient>
    <linearGradient id="linear-gradient-2" x1="124.18" y1="281.21" x2="200.62" y2="301.69" xlink:href="#linear-gradient"/>
    <linearGradient id="linear-gradient-3" x1="133.06" y1="481.4" x2="291.63" y2="481.4" gradientUnits="userSpaceOnUse">
      <stop offset=".4" stop-color="#fff"/>
      <stop offset="1" stop-color="#fff" stop-opacity="0"/>
    </linearGradient>
    <linearGradient id="linear-gradient-4" x1="502.02" x2="343.37" xlink:href="#linear-gradient-3"/>
  </defs>
  <g id="Layer_1-2" data-name="Layer 1">
    <g>
      <rect class="cls-5" width="635" height="635"/>
      <g>
        <g>
          <path class="cls-7" d="M124.89,455.49v-101.37h-.08v-9.34c-.43-5.87-5.27-10.51-11.25-10.51s-11.34,5.08-11.34,11.34v109.88c0,20.54,16.71,37.25,37.25,37.25v-22.67c-8.04,0-14.57-6.54-14.57-14.57Z"/>
          <path class="cls-7" d="M510.2,354.12v101.37c0,8.04-6.54,14.57-14.57,14.57v22.67c20.54,0,37.25-16.71,37.25-37.25v-164.05c0-6.26-5.08-11.34-11.34-11.34h-11.34v74.02Z"/>
          <path class="cls-7" d="M521.53,254.84c6.26,0,11.34-5.08,11.34-11.34v-35.59c0-20.54-16.71-37.25-37.25-37.25h-69.69c-5.72,0-10.93-3.37-13.28-8.58l-12.14-26.92c-6.01-13.32-19.34-21.93-33.95-21.93h-98.6c-14.35,0-27.57,8.39-33.69,21.36l-13.06,27.7c-2.39,5.08-7.57,8.36-13.18,8.36h-68.64c-20.54,0-37.25,16.71-37.25,37.25v83.52c0,6.26,5.07,11.34,11.34,11.34h11.34v-94.86c0-8.04,6.54-14.57,14.57-14.57h68.64c14.35,0,27.57-8.39,33.69-21.36l13.06-27.7c2.39-5.08,7.57-8.36,13.18-8.36h98.6c5.72,0,10.93,3.37,13.28,8.58l12.14,26.92c6.01,13.32,19.34,21.93,33.95,21.93h69.69c8.04,0,14.57,6.54,14.57,14.57v35.59c0,6.26,5.07,11.34,11.34,11.34Z"/>
        </g>
        <g>
          <g>
            <path class="cls-1" d="M317.5,225c-27.23,0-53.26,11.63-71.41,31.92-29.54,33-32.68,81.57-7.64,118.11l79.06,115.35,79.06-115.35c25.04-36.54,21.9-85.1-7.64-118.1-18.16-20.29-44.19-31.92-71.41-31.92Z"/>
            <path class="cls-6" d="M516.6,280.1h-87.85c2.71,7.38,4.74,14.96,5.93,22.67h75.53l6.4-22.67Z"/>
            <path class="cls-4" d="M124.8,280.1l-6.4,22.67h81.92c1.19-7.71,3.21-15.29,5.93-22.67h-81.45Z"/>
            <polygon class="cls-3" points="133.06 470.06 139.46 492.73 291.63 492.73 276.09 470.06 133.06 470.06"/>
            <polygon class="cls-2" points="495.62 492.73 502.02 470.06 358.91 470.06 343.37 492.73 495.62 492.73"/>
            <path class="cls-7" d="M405.81,241.8c-22.45-25.08-54.64-39.47-88.31-39.47s-65.85,14.39-88.31,39.47c-10.28,11.49-17.88,24.52-22.94,38.3-2.71,7.38-4.74,14.96-5.93,22.67-4.48,28.99,1.84,59.43,19.41,85.08l56.35,82.22,15.54,22.67,16.52,24.1c2.11,3.08,5.61,4.93,9.35,4.93s7.24-1.84,9.35-4.93l16.52-24.1,15.54-22.67,56.35-82.22c17.58-25.65,23.9-56.08,19.42-85.08-1.19-7.71-3.21-15.29-5.93-22.67-5.06-13.77-12.66-26.81-22.94-38.3ZM396.56,375.03l-79.06,115.35-79.06-115.35c-25.04-36.54-21.9-85.1,7.64-118.11,18.16-20.29,44.19-31.92,71.41-31.92s53.26,11.63,71.41,31.92c29.54,33,32.68,81.57,7.64,118.1Z"/>
          </g>
          <path class="cls-7" d="M316.73,382.44c-16.58,0-33.16-6.31-45.79-18.94-25.25-25.25-25.25-66.33,0-91.58,25.25-25.25,66.33-25.25,91.58,0,4.43,4.43,4.43,11.6,0,16.03-4.43,4.43-11.6,4.43-16.03,0-16.41-16.41-43.11-16.41-59.52,0-16.41,16.41-16.41,43.11,0,59.52,16.41,16.41,43.11,16.41,59.52,0,4.43-4.43,11.6-4.43,16.03,0,4.43,4.43,4.43,11.6,0,16.03-12.62,12.62-29.21,18.94-45.79,18.94Z"/>
        </g>
      </g>
    </g>
  </g>
</svg>