<svg width="62" height="62" viewBox="0 0 62 62" fill="none" xmlns="http://www.w3.org/2000/svg"><path d="M40.7502 40.6974C37.9641 43.3406 34.3012 44.7159 30.4428 44.5671C23.1504 44.2886 17.2178 38.4361 16.9353 31.245C16.7858 27.4372 18.1788 23.8258 20.8589 21.0792C23.5402 18.3301 27.1417 16.815 30.9988 16.815L38.0753 16.8125V9H31.0026C18.869 9 9 18.7334 9 30.6967C9 36.5063 11.2838 41.9592 15.4324 46.0495C19.5808 50.1397 25.1083 52.3934 30.9988 52.3934C36.8893 52.3934 42.3133 50.1637 46.463 46.1137C50.5796 42.0966 52.8954 36.7609 52.9938 31.0748H45.0687C44.9703 34.7328 43.4392 38.1462 40.7502 40.6974Z" fill="#5B39F5"/><path d="M45.8277 17.2587C45.751 17.7011 45.6756 18.1486 45.6053 18.5885C45.4481 19.5654 45.319 20.5259 45.2232 21.441C45.1286 22.3423 45.0813 23.159 45.0813 23.8712L45.0775 27.8329H53V9H46.6188C46.4463 9.43613 46.1932 9.78024 45.8661 10.0248C45.3305 10.4256 44.542 10.6374 43.4556 10.6714L41.3635 10.6777V16.815L45.9057 16.8175L45.8289 17.26L45.8277 17.2587Z" fill="#65DE23"/></svg>