<svg xmlns="http://www.w3.org/2000/svg" width="62" height="62" fill="none"><path d="M10.595 42.276l-1.4 2.289a1.4 1.4 0 0 0 .469 1.904l9.101 5.601a1.4 1.4 0 0 0 1.07.168 1.4 1.4 0 0 0 .87-.644l1.344-2.247c3.606-5.951 7.232-5.223 13.771-2.1l9.024 4.292a1.4 1.4 0 0 0 1.09.048 1.4 1.4 0 0 0 .794-.748l4.334-9.801a1.4 1.4 0 0 0-.7-1.834l-9.101-4.327c-12.266-5.958-22.69-5.573-30.665 7.4z" fill="url(#A)"/><path d="M51.405 20.033l1.4-2.289a1.4 1.4 0 0 0-.469-1.904l-9.101-5.601a1.4 1.4 0 0 0-1.098-.203 1.4 1.4 0 0 0-.897.665l-1.344 2.247c-3.606 5.951-7.232 5.223-13.771 2.1l-8.996-4.271a1.4 1.4 0 0 0-1.09-.048 1.4 1.4 0 0 0-.794.748l-4.334 9.801a1.4 1.4 0 0 0 .7 1.834l9.101 4.327c12.294 5.951 22.719 5.552 30.693-7.407z" fill="url(#B)"/><defs><linearGradient id="A" x1="50.817" y1="54.962" x2="23.281" y2="39.139" gradientUnits="userSpaceOnUse"><stop offset=".18" stop-color="#0052cc"/><stop offset="1" stop-color="#2684ff"/></linearGradient><linearGradient id="B" x1="11.184" y1="7.34" x2="38.726" y2="23.17" gradientUnits="userSpaceOnUse"><stop offset=".18" stop-color="#0052cc"/><stop offset="1" stop-color="#2684ff"/></linearGradient></defs></svg>