<svg width="62" height="62" viewBox="0 0 62 62" fill="none" xmlns="http://www.w3.org/2000/svg">
<path d="M10.5667 41.6945C10.1198 42.4233 9.61792 43.2689 9.19167 43.9427C9.00827 44.2526 8.95378 44.6221 9.03991 44.9718C9.12604 45.3215 9.34593 45.6234 9.6523 45.8127L18.5898 51.3127C18.7451 51.4086 18.9179 51.4726 19.0983 51.501C19.2786 51.5294 19.4627 51.5216 19.64 51.4781C19.8172 51.4345 19.9841 51.3562 20.1307 51.2475C20.2774 51.1388 20.4009 51.0021 20.4942 50.8452C20.8517 50.247 21.3123 49.4702 21.8142 48.6383C25.3548 42.7945 28.916 43.5095 35.3373 46.5758L44.1992 50.7902C44.3653 50.8692 44.5456 50.9142 44.7294 50.9223C44.9132 50.9304 45.0968 50.9016 45.2692 50.8375C45.4417 50.7734 45.5995 50.6753 45.7334 50.5491C45.8672 50.4229 45.9744 50.2711 46.0485 50.1027L50.3042 40.4777C50.4487 40.1473 50.4576 39.7733 50.329 39.4364C50.2004 39.0994 49.9446 38.8265 49.6167 38.6764C47.7467 37.7964 44.0273 36.0433 40.6792 34.4277C28.6342 28.577 18.3973 28.9552 10.5667 41.6945Z" fill="url(#paint0_linear_496_1524)"/>
<path d="M50.641 19.8527C51.0879 19.1239 51.5898 18.2783 52.016 17.6046C52.1995 17.2946 52.2539 16.9251 52.1678 16.5754C52.0817 16.2258 51.8618 15.9238 51.5554 15.7346L42.6179 10.2346C42.4615 10.1292 42.285 10.0571 42.0995 10.0229C41.9139 9.9886 41.7234 9.99289 41.5396 10.0355C41.3558 10.078 41.1827 10.1579 41.0312 10.2703C40.8796 10.3826 40.7528 10.5249 40.6585 10.6883C40.301 11.2864 39.8404 12.0633 39.3385 12.8952C35.7979 18.7389 32.2367 18.0239 25.8154 14.9577L16.981 10.7639C16.8149 10.6849 16.6346 10.6399 16.4508 10.6318C16.267 10.6237 16.0834 10.6525 15.911 10.7166C15.7385 10.7808 15.5807 10.8788 15.4468 11.005C15.313 11.1312 15.2058 11.283 15.1317 11.4514L10.876 21.0764C10.7315 21.4068 10.7226 21.7808 10.8512 22.1177C10.9798 22.4547 11.2356 22.7276 11.5635 22.8777C13.4335 23.7577 17.1529 25.5108 20.501 27.1264C32.5735 32.9702 42.8104 32.5783 50.641 19.8527Z" fill="url(#paint1_linear_496_1524)"/>
<defs>
<linearGradient id="paint0_linear_496_1524" x1="50.0635" y1="54.152" x2="23.0242" y2="38.6145" gradientUnits="userSpaceOnUse">
<stop offset="0.18" stop-color="#0052CC"/>
<stop offset="1" stop-color="#2684FF"/>
</linearGradient>
<linearGradient id="paint1_linear_496_1524" x1="11.1442" y1="7.38831" x2="38.1904" y2="22.9327" gradientUnits="userSpaceOnUse">
<stop offset="0.18" stop-color="#0052CC"/>
<stop offset="1" stop-color="#2684FF"/>
</linearGradient>
</defs>
</svg>
