<svg xmlns="http://www.w3.org/2000/svg" width="64" height="64" viewBox="0 0 64 64" fill="none">
  <g transform="translate(10 10) scale(0.1940035273)">
    <path
      d="M150.9 94.5c-11.5-6.4-24.3-9.8-37.5-9.8s-26 3.4-37.5 9.8c4.6 4.6 8.9 9.7 12.9 15.3 6.9 9.6 11.5 18.8 14.2 25.1l10.4-17 10.4 17c2.8-6.3 7.3-15.5 14.2-25.1 4-5.6 8.4-10.7 12.9-15.3ZM203.2 76.1c-13.7 2.7-26.1 8.4-37.1 17.2-2.5 2-4.9 4-7.2 6.3-4.7 4.5-9.1 9.6-13.1 15.3-11.6 16.1-16.3 31.1-16.4 31.3-.5 1.7-2 2.9-3.8 3.2h-.7c-1.5 0-3-.8-3.8-2l-7.7-11.4-7.7 11.4c-.9 1.3-2.3 2-3.8 2h-.7c-1.8-.3-3.2-1.5-3.8-3.2 0-.1-4.8-15.2-16.4-31.3-4.1-5.7-8.6-10.9-13.2-15.4-.5-.5-1.1-1-1.6-1.5-1.8-1.6-3.6-3.2-5.4-4.6-11-8.8-23.4-14.5-37.1-17.2-2.5-.5-4.1-2.9-3.6-5.5.5-2.5 2.9-4.1 5.4-3.7 15.9 3.1 30.5 10.2 43.3 20.9 13.5-8.2 28.9-12.6 44.7-12.6s31.2 4.4 44.7 12.6c12.8-10.7 27.4-17.8 43.3-20.9 2.5-.5 4.9 1.1 5.4 3.7s-1.2 4.9-3.7 5.4ZM54.9 98.2c-16 14.5-26.5 34.5-29.6 56.3-.4 2.5 1.4 4.9 4 5.3s4.9-1.4 5.3-4c2.8-19.6 12.3-37.6 26.7-50.7.9-.8 1.8-1.5 2.6-2.3-2.3-2.2-4.7-4.3-7.2-6.2-.7.6-1.2 1.1-1.8 1.6Zm146.7 56.3c.4 2.5-1.4 4.9-4 5.3h-.7c-2.3 0-4.3-1.7-4.6-4-2.8-19.6-12.3-37.6-26.7-50.7-.9-.8-1.8-1.5-2.6-2.3 2.3-2.2 4.7-4.3 7.2-6.2.6.5 1.2 1 1.8 1.5 16 14.6 26.5 34.6 29.6 56.4Z"
      fill="#24336A"
    />
  </g>
</svg>
