<svg width="62" height="62" viewBox="0 0 62 62" fill="none" xmlns="http://www.w3.org/2000/svg"><path fill-rule="evenodd" clip-rule="evenodd" d="M37.3671 27.027C37.7812 28.1632 38.8165 28.8862 40.0589 28.8862C40.3695 28.8862 40.68 28.7829 40.9906 28.6796C42.44 28.1632 43.2683 26.5106 42.7506 25.0646C41.8189 22.4824 39.8518 20.4167 37.16 19.1773C35.7106 18.5576 34.0542 19.1773 33.3295 20.6233C32.7083 22.0693 33.3295 23.7219 34.7789 24.4449C36.1247 24.9613 37.0565 25.8909 37.3671 27.027Z" fill="#FF9E1A"/><path fill-rule="evenodd" clip-rule="evenodd" d="M36.4353 9.05497C34.8824 8.74511 33.4329 9.77798 33.1224 11.3273C32.8118 12.8766 33.8471 14.3226 35.4 14.6324C41.8188 15.9752 46.2706 20.2099 47.3059 26.5104C47.513 27.9564 48.7553 28.886 50.1012 28.886C50.3082 28.886 50.4118 28.886 50.6188 28.7827C52.1718 28.4728 53.2071 27.0268 53 25.4775C51.4471 16.9047 45.2353 10.7076 36.4353 9.05497Z" fill="#FF9E1A"/><path fill-rule="evenodd" clip-rule="evenodd" d="M29.1883 37.5618C26.6 37.5618 24.4259 35.496 24.4259 32.8106C24.4259 30.2284 26.4965 28.0594 29.1883 28.0594C30.7412 28.0594 32.0871 26.82 32.0871 25.1674C32.0871 23.6181 30.8448 22.2754 29.1883 22.2754C23.3906 22.2754 18.7318 26.9233 18.7318 32.7073C18.7318 38.4914 23.3906 43.1392 29.1883 43.1392C34.9859 43.1392 39.6448 38.4914 39.6448 32.7073C39.6448 31.158 38.4024 29.8153 36.7459 29.8153C35.193 29.8153 33.8471 31.0547 33.8471 32.7073C33.9506 35.3928 31.7765 37.5618 29.1883 37.5618Z" fill="#1856ED"/><path fill-rule="evenodd" clip-rule="evenodd" d="M46.4776 29.919C44.9247 29.919 43.5788 31.1584 43.5788 32.811C43.5788 40.7641 37.0565 47.2711 29.0847 47.2711C21.1129 47.2711 14.5906 40.7641 14.5906 32.811C14.5906 24.858 21.1129 18.3509 29.0847 18.3509C30.6376 18.3509 31.9835 17.1115 31.9835 15.4589C31.9835 13.9096 30.7412 12.5669 29.0847 12.5669C18.1106 12.6702 9 21.7594 9 32.811C9 43.8627 18.1106 52.9519 29.1882 52.9519C40.2659 52.9519 49.3765 43.8627 49.3765 32.811C49.2729 31.2617 48.0306 29.919 46.4776 29.919Z" fill="#1856ED"/></svg>