<svg xmlns="http://www.w3.org/2000/svg" width="62" height="62" fill="none" xmlns:v="https://vecta.io/nano"><path d="M53 23.776a9.78 9.78 0 0 1-9.775 9.776 9.78 9.78 0 0 1-9.777-9.776A9.78 9.78 0 0 1 43.225 14 9.78 9.78 0 0 1 53 23.776zm-24.447 0a9.78 9.78 0 0 1-9.777 9.776A9.78 9.78 0 0 1 9 23.776 9.78 9.78 0 0 1 18.776 14a9.78 9.78 0 0 1 9.777 9.776z" fill="#fff"/><g fill-rule="evenodd"><path d="M45.669 33.24a9.8 9.8 0 0 1-2.444.308 9.78 9.78 0 0 1-9.777-9.776c0-.844.107-1.663.309-2.444h-5.504c.202.781.309 1.6.309 2.444a9.78 9.78 0 0 1-9.777 9.776 9.79 9.79 0 0 1-2.444-.308v10.084c0 1.35 1.094 2.444 2.444 2.444h24.441c1.35 0 2.444-1.094 2.444-2.444V33.24z" fill="#28e06e"/><path d="M48.11 30.097v13.237a4.89 4.89 0 0 1-4.888 4.888h-24.44a4.89 4.89 0 0 1-4.888-4.888V30.097l3.054.786c.584.15 1.198.231 1.835.231 4.05 0 7.333-3.283 7.333-7.332 0-.637-.081-1.251-.231-1.835l-.787-3.053h11.81l-.785 3.053c-.151.584-.231 1.198-.231 1.835 0 4.049 3.283 7.332 7.331 7.332.637 0 1.251-.08 1.835-.231l3.054-.786zm-2.444 3.153a9.79 9.79 0 0 1-2.444.308 9.78 9.78 0 0 1-9.775-9.776 9.84 9.84 0 0 1 .307-2.444H28.25a9.77 9.77 0 0 1 .309 2.444 9.78 9.78 0 0 1-9.777 9.776c-.843 0-1.662-.107-2.444-.308v10.084c0 1.35 1.095 2.444 2.444 2.444h24.44c1.35 0 2.444-1.094 2.444-2.444V33.249z" fill="#fff"/><path d="M28.561 23.772h4.887c0-.844.107-1.663.309-2.444h-5.504c.202.781.309 1.6.309 2.444zM16.34 33.24a9.79 9.79 0 0 0 2.444.308v9.776h24.441v-9.776a9.8 9.8 0 0 0 2.444-.308v10.084c0 1.35-1.094 2.444-2.444 2.444H18.784c-1.35 0-2.444-1.094-2.444-2.444V33.24z" fill="#115e2e"/></g><path d="M26.11 23.779c0 4.049-3.283 7.332-7.331 7.332s-7.333-3.283-7.333-7.332 3.283-7.332 7.333-7.332 7.331 3.283 7.331 7.332z" fill="#fff"/><g fill="#115e2e"><use href="#B"/><use href="#B" x="-24.43"/><path d="M38.038 33.984a1.22 1.22 0 0 1-.147 1.722c-2.896 2.44-5.834 3-8.342 2.626-2.453-.366-4.422-1.612-5.521-2.687-.481-.472-.49-1.246-.018-1.728s1.246-.49 1.729-.019c.785.77 2.299 1.737 4.17 2.016 1.818.271 4.048-.091 6.407-2.077a1.22 1.22 0 0 1 1.722.147z" fill-rule="evenodd"/></g><path fill-rule="evenodd" d="M43.209 28.667a4.89 4.89 0 0 0 4.888-4.888 4.89 4.89 0 0 0-4.888-4.888 4.89 4.89 0 0 0-4.888 4.888 4.89 4.89 0 0 0 4.888 4.888zm0 2.444c4.05 0 7.333-3.283 7.333-7.332s-3.283-7.332-7.333-7.332-7.333 3.283-7.333 7.332 3.283 7.332 7.333 7.332zM19.732 18.985a4.89 4.89 0 0 0-5.018 2.079 4.88 4.88 0 0 0-.823 2.716 4.89 4.89 0 0 0 5.841 4.795 4.88 4.88 0 0 0 2.502-1.338l1.729 1.728a7.34 7.34 0 0 1-3.755 2.007 7.33 7.33 0 0 1-7.527-3.118 7.32 7.32 0 0 1-1.236-4.073c0-1.45.429-2.868 1.236-4.074a7.33 7.33 0 0 1 7.527-3.118 7.34 7.34 0 0 1 3.755 2.007l-1.729 1.728a4.88 4.88 0 0 0-2.502-1.338z" fill="#18181b"/><defs ><path id="B" d="M45.658 23.772c0 1.35-1.094 2.444-2.444 2.444s-2.444-1.094-2.444-2.444 1.094-2.444 2.444-2.444 2.444 1.094 2.444 2.444z"/></defs></svg>