<svg xmlns="http://www.w3.org/2000/svg" fill="none" viewBox="0 0 40 40" class="size-8 shrink-0"><g clip-path="url(#ca-logo-rounded-blue_svg__a)"><path fill="url(#ca-logo-rounded-blue_svg__b)" d="M19.998 39.997c11.045 0 19.999-8.954 19.999-19.999S31.043 0 19.998 0 0 8.954 0 19.998s8.954 19.999 19.998 19.999"></path><path fill="#0A2F7A" fill-rule="evenodd" d="m24.579 21.133 2.19-5.982 2.19 5.982zm4.51-8.201c-.171-.5-.541-.724-1.06-.724h-3.157L18.894 27.76h3.445l1.305-3.713h6.251l1.328 3.713h3.542zM18.317 24.094l-1.665-1.292c-.787 1.22-2.042 2.044-3.764 2.044-2.658 0-4.185-2.117-4.185-4.86s1.378-4.836 4.257-4.836c1.672 0 2.807.75 3.568 1.97l1.685-1.312a.93.93 0 0 0 .186-1.267c-1.286-1.802-3.286-2.582-5.464-2.582-5.265 0-7.702 3.988-7.702 8.024 0 4.784 2.807 8.049 7.652 8.049 2.313 0 4.354-.84 5.628-2.683a.93.93 0 0 0-.196-1.258z" clip-rule="evenodd"></path></g><defs><linearGradient id="ca-logo-rounded-blue_svg__b" x1="19.998" x2="19.998" y1="0" y2="39.997" gradientUnits="userSpaceOnUse"><stop stop-color="#51A8FF"></stop><stop offset="1" stop-color="#2687E9"></stop></linearGradient><clipPath id="ca-logo-rounded-blue_svg__a"><path fill="#fff" d="M0 0h40v40H0z"></path></clipPath></defs></svg>
