<svg xmlns="http://www.w3.org/2000/svg" width="62" height="62" fill="none"><path d="M25.338 39.663C23 37.463 21.625 34.438 21.625 31S23 24.538 25.2 22.338a4.81 4.81 0 0 0 0-6.875 4.81 4.81 0 0 0-6.875 0C14.475 19.45 12 24.95 12 31s2.475 11.55 6.462 15.538a4.81 4.81 0 0 0 6.875 0 5.08 5.08 0 0 0 0-6.875z" fill="#fae501"/><path d="M25.338 22.338c2.2-2.337 5.225-3.712 8.663-3.712S40.463 20 42.663 22.2a4.81 4.81 0 0 0 6.875 0 4.81 4.81 0 0 0 0-6.875C45.55 11.475 40.05 9 34 9s-11.55 2.475-15.538 6.463a4.81 4.81 0 0 0 0 6.875 5.08 5.08 0 0 0 6.875 0z" fill="#4fb5e1"/><path d="M42.663 39.662C40.463 42 37.438 43.375 34 43.375S27.538 42 25.338 39.8a4.81 4.81 0 0 0-6.875 0 4.81 4.81 0 0 0 0 6.875C22.45 50.525 27.95 53 34 53s11.55-2.475 15.538-6.462a4.81 4.81 0 0 0 0-6.875 5.08 5.08 0 0 0-6.875 0z" fill="#f05751"/><path d="M21.9 23.712c2.658 0 4.813-2.155 4.813-4.812s-2.155-4.812-4.812-4.812-4.812 2.155-4.812 4.812 2.155 4.813 4.813 4.813z" fill="#0681b6"/><path d="M21.9 47.913c2.658 0 4.813-2.155 4.813-4.812s-2.155-4.812-4.812-4.812-4.812 2.155-4.812 4.813 2.155 4.813 4.813 4.813z" fill="#cd4739"/></svg>