<svg xmlns="http://www.w3.org/2000/svg" width="62" height="62" fill="none"><g clip-path="url(#A)"><path d="M40.036 27.909c0 .4-.255.655-.654.655H26.764c-.4 0-.654-.255-.654-.655v-1.454c0-.4.255-.654.654-.654h12.618c.4 0 .654.255.654.654v1.454zm5.6 4.073c0 .4-.255.655-.654.655H29.418c-.4 0-.655-.255-.655-.655v-1.455c0-.4.255-.654.655-.654h15.418c.4 0 .655.255.655.654l.145 1.455zm4.255 4.255c0 .4-.255.655-.655.655H32.364c-.4 0-.654-.255-.654-.655v-1.455c0-.4.255-.655.654-.655h16.873c.4 0 .655.255.655.655v1.455zm0 4.218c0 .4-.255.654-.655.654H32.364c-.4 0-.654-.255-.654-.654V39c0-.4.255-.655.654-.655h16.873c.4 0 .655.255.655.655v1.454zm-4.255 4.073c0 .4-.255.655-.654.655H29.418c-.4 0-.655-.255-.655-.655v-1.454c0-.4.255-.655.655-.655h15.418c.4 0 .655.255.655.655l.145 1.454zm-5.6 4.218c0 .4-.255.655-.654.655H26.764c-.4 0-.654-.255-.654-.655v-1.455c0-.4.255-.655.654-.655h12.618c.4 0 .654.255.654.655v1.455zM16.145 15.255c0 .4.255.655.655.655h12.618c.4 0 .655-.255.655-.655V13.8c0-.4-.255-.655-.655-.655H16.8c-.4 0-.655.255-.655.655v1.454zm-5.6 4.218c0 .4.255.655.655.655h15.418c.4 0 .654-.255.654-.655v-1.455c0-.4-.255-.654-.654-.654H11.2c-.4 0-.655.255-.655.654v1.455zm-4.255 4.218c0 .4.255.655.655.655h16.873c.4 0 .654-.255.654-.655v-1.455c0-.4-.255-.654-.654-.654H6.945c-.4 0-.655.255-.655.654v1.455zm0 4.218c0 .4.255.655.655.655h16.873c.4 0 .654-.255.654-.655v-1.454c0-.4-.255-.654-.654-.654H6.945c-.4 0-.655.255-.655.654v1.454zm4.255 4.073c0 .4.255.655.655.655h15.418c.4 0 .654-.255.654-.655v-1.455c0-.4-.255-.654-.654-.654H11.2c-.4 0-.655.255-.655.654v1.455zm5.6 4.255c0 .4.255.655.655.655h12.618c.4 0 .655-.255.655-.655v-1.455c0-.4-.255-.655-.655-.655H16.8c-.4 0-.655.255-.655.655v1.455z" fill="#f0553d"/></g><defs><clipPath id="A"><path fill="#fff" transform="translate(6 13)" d="M0 0h44v36.727H0z"/></clipPath></defs></svg>