<?xml version="1.0" encoding="UTF-8"?>
<svg width="128px" height="128px" viewBox="0 0 128 128" version="1.1" xmlns="http://www.w3.org/2000/svg" xmlns:xlink="http://www.w3.org/1999/xlink">
    <!-- Generator: Sketch 50.2 (55047) - http://www.bohemiancoding.com/sketch -->
    <title>Copper-icon-pink</title>
    <desc>Created with Sketch.</desc>
    <defs></defs>
    <g id="Copper-icon-pink" stroke="none" stroke-width="1" fill="none" fill-rule="evenodd">
        <g id="circle">
            <circle id="Oval" fill="#FF3465" cx="64" cy="64" r="64"></circle>
            <path d="M49.808381,98.3659429 C45.3851593,96.583761 41.5500708,94.0964301 38.3074294,90.9053805 C35.0604741,87.7157613 32.532508,83.9368491 30.7206552,79.5729351 C28.9073644,75.209021 28,70.401707 28,65.1452717 C28,59.7972957 29.0137748,54.7997488 31.0427624,50.1554915 C33.070312,45.5098039 35.8772459,41.4748641 39.4635641,38.0492416 C43.0470064,34.6250494 47.2473414,31.9274611 52.0573793,29.9564767 C56.8688551,27.9854922 62.0570813,27 67.6249338,27 C71.7735016,27 75.6661093,27.5864322 79.2998808,28.7592967 C82.9293383,29.9335915 86.0914529,31.5527166 88.7804726,33.6152417 C91.4694923,35.6806275 93.5919485,38.1436429 95.1478411,41.0042879 C96.7051718,43.869224 97.4831181,46.8957865 97.4831181,50.0839754 C97.4831181,53.6511998 96.3514291,56.6291313 94.088051,59.0220609 C91.823235,61.4164208 89.0393087,62.6121705 85.7377102,62.6121705 C82.3412052,62.6121705 79.5112636,61.439306 77.2478855,59.093577 C74.9830695,56.7478481 73.8513805,53.7928017 73.8513805,50.2255773 C73.8513805,49.1943148 73.9678567,48.2073922 74.2051232,47.2691006 C74.4395137,46.3322394 74.7932563,44.9705723 75.2649133,43.1869601 C75.7365702,41.5921505 76.0442976,40.3964009 76.1866575,39.5982809 C76.3261414,38.8015912 76.3980403,37.9333855 76.3980403,36.9936635 C76.3980403,34.5549636 75.5999623,32.5596637 74.0081201,31.0120547 C72.41484,29.4630154 70.4059841,28.6892109 67.9873044,28.6892109 C65.8432785,28.6892109 63.8646202,29.3743354 62.0527674,30.7374328 C60.2366006,32.1005302 58.6533864,33.9599495 57.3045626,36.3099694 C55.9528629,38.6642803 54.8830069,41.4605608 54.0921188,44.707393 C53.3012306,47.9542251 52.9057865,51.4113147 52.9057865,55.0786617 C52.9057865,63.6420027 55.075696,70.4388954 59.4169529,75.4722004 C63.7538959,80.5069357 69.6064681,83.0214427 76.9646038,83.0214427 C81.1160475,83.0214427 84.889303,82.2476382 88.285808,80.7000292 C91.6808751,79.1509899 94.9824736,76.7366055 98.1920415,73.4511546 L99.888856,74.2950449 C91.8692503,92.126876 80.0289358,101.039216 64.3693507,101.039216 C59.0847799,101.039216 54.2316027,100.146694 49.808381,98.3659429 Z" id="Fill-4" fill="#FFFFFF"></path>
        </g>
    </g>
</svg>