<svg xmlns="http://www.w3.org/2000/svg" width="62" height="62" fill="#000"><rect width="62" height="62" rx="31" fill="#fff"/><path d="M52.259 32.82c-1.167-1.551-5.173-3.67-5.173-3.67 1.735-.135 3.667-.751 3.667-.751 1.745-.595 1.811-1.468 1.811-1.468.121-.928-1.572-1.693-1.572-1.693-1.866-.99-5.619-1.541-5.619-1.541 1.596-.873 2.569-1.676 2.569-1.676 1.614-1.416 1.174-2.102 1.174-2.102-.229-.841-1.988-1.028-1.988-1.028-1.613-.218-4.269.239-4.269.239 1.018-1.298 1.385-2.5 1.385-2.5.277-.966-.093-1.423-.093-1.423-.44-.751-1.991-.422-1.991-.422-2.285.537-3.861 1.589-3.861 1.589.287-1.028.239-2.534.239-2.534-.062-.571-.191-1.326-.686-1.69-.644-.474-1.551-.086-2.147.284s-1.108.893-1.579 1.416c-.083.093-.519.499-.502.592a15.12 15.12 0 0 0-.561-1.631C32.738 12.015 31.925 11.045 31 11c-.924.049-1.738 1.015-2.064 1.811a15.12 15.12 0 0 0-.561 1.631c.017-.093-.415-.498-.502-.592-.467-.523-.98-1.042-1.579-1.416s-1.503-.758-2.147-.284c-.495.364-.623 1.118-.686 1.69 0 0-.048 1.503.239 2.534 0 0-1.575-1.056-3.861-1.589 0 0-1.555-.325-1.991.422 0 0-.374.457-.093 1.423 0 0 .364 1.201 1.385 2.5 0 0-2.656-.457-4.269-.239 0 0-1.759.191-1.987 1.028 0 0-.44.689 1.174 2.102 0 0 .973.803 2.569 1.676 0 0-3.75.55-5.62 1.541 0 0-1.693.762-1.572 1.693 0 0 .066.873 1.811 1.468 0 0 1.932.613 3.667.751 0 0-4.006 2.119-5.173 3.67 0 0-.938.935-.703 1.79 0 0 .204 1.08 3.054.886 0 0 2.216-.135 4.913-.928-.017.007-2.69 3.033-3.462 4.653 0 0-1.738 2.742-.693 3.812 0 0 .481.637 2.375.052 0 0 2.687-.911 5.536-3.22 0 0-1.191 3.307-1.316 5.89 0 0-.26 2.528 1.046 3.047 0 0 1.094.544 3.165-1.596 0 0 2.496-2.721 3.923-5.481.177 1.53.422 3.078.814 4.57.246.938.547 1.866.976 2.739.319.648.81 1.558 1.631 1.603.824-.045 1.312-.956 1.631-1.607.426-.873.731-1.8.976-2.739.391-1.492.641-3.037.814-4.57 1.426 2.763 3.923 5.481 3.923 5.481 2.07 2.14 3.165 1.596 3.165 1.596 1.305-.523 1.046-3.047 1.046-3.047-.125-2.579-1.316-5.89-1.316-5.89 2.849 2.309 5.536 3.22 5.536 3.22 1.89.585 2.375-.052 2.375-.052 1.046-1.07-.692-3.812-.692-3.812-.772-1.617-3.445-4.647-3.445-4.647 2.68.786 4.896.921 4.896.921 2.85.194 3.054-.886 3.054-.886.235-.855-.703-1.79-.703-1.79v.003zm-4.664-.343s-.422 1.62-6.631-.208c0 0-3.5-1.094-5.02-1.97 0 0 3.203 5.426 3.511 9.764 0 0 .208 2.123-.796 2.51 0 0-1.111.488-3.359-2.341 0 0-2.701-3.272-4.283-8.133-1.582 4.861-4.283 8.133-4.283 8.133-2.247 2.832-3.358 2.341-3.358 2.341-1.004-.388-.796-2.51-.796-2.51.308-4.338 3.511-9.764 3.511-9.764-1.52.876-5.02 1.97-5.02 1.97-6.208 1.828-6.631.208-6.631.208-.495-1.326 3.088-3.428 3.088-3.428 2.725-1.787 6.897-3.085 6.897-3.085-4.861-1.392-6.655-3.061-6.655-3.061-1.503-1.267-1.011-1.863-1.011-1.863.758-1.281 5.017-.474 5.017-.474 3.144.589 4.844 1.423 4.844 1.423-1.312-2.427-1.613-4.518-1.613-4.518-.422-2.652.731-2.881.731-2.881.848-.294 2.081.9 2.081.9 2.389 2.455 3.199 4.906 3.199 4.906s.814-2.451 3.199-4.906c0 0 1.233-1.195 2.081-.9 0 0 1.153.229.731 2.881 0 0-.298 2.091-1.614 4.518 0 0 1.703-.831 4.844-1.423 0 0 4.255-.807 5.017.474 0 0 .492.596-1.011 1.863 0 0-1.794 1.665-6.655 3.061 0 0 4.172 1.298 6.897 3.085 0 0 3.58 2.102 3.088 3.428z"/></svg>