<svg xmlns="http://www.w3.org/2000/svg" width="62" height="62" fill="none" xmlns:v="https://vecta.io/nano"><rect width="62" height="62" rx="31" fill="#fff"/><use href="#C" fill="url(#B)"/><g filter="url(#A)"><use href="#C" fill="#000"/></g><path d="M48.097 14.646a2.31 2.31 0 0 1 2.552 2.055l1.927 19.393a2.31 2.31 0 0 1-2.057 2.534l-12.215 1.325-4.571 7.174c-.138.216-.35.356-.581.407-.217.048-.451.019-.658-.099l-6.055-6.196-12.445 1.352a2.31 2.31 0 0 1-2.555-2.049L9.593 21.079a2.31 2.31 0 0 1 2.061-2.524l36.444-3.908z" stroke="#000" stroke-opacity=".146"/><defs><filter id="A" x="9.118" y="14.171" width="44.933" height="34.852" filterUnits="userSpaceOnUse" color-interpolation-filters="sRGB"><feFlood flood-opacity="0"/><feBlend in="SourceGraphic" result="B"/><feColorMatrix in="SourceAlpha" values="0 0 0 0 0 0 0 0 0 0 0 0 0 0 0 0 0 0 127 0" result="C"/><feOffset dx="1" dy="1"/><feGaussianBlur stdDeviation="1.5"/><feComposite in2="C" operator="arithmetic" k2="-1" k3="1"/><feColorMatrix values="0 0 0 0 1 0 0 0 0 1 0 0 0 0 1 0 0 0 0.156523 0"/><feBlend in2="B"/></filter><linearGradient id="B" x1="2650.68" y1="2869.68" x2="2260.46" y2="1039.39" gradientUnits="userSpaceOnUse"><stop stop-color="#003ab8"/><stop offset="1" stop-color="#3770ec"/></linearGradient><path id="C" d="M51.111 16.657l.002.022 1.924 19.372c.151 1.519-.951 2.876-2.468 3.041l-11.994 1.301-4.452 6.987a1.39 1.39 0 0 1-1.921.426c-.092-.058-.176-.127-.252-.205l-5.687-5.871-12.22 1.327c-1.528.166-2.901-.938-3.066-2.466l-.004-.037-1.842-19.428c-.144-1.517.959-2.867 2.473-3.029l36.444-3.908c1.528-.164 2.899.942 3.063 2.47z"/></defs></svg>