<svg xmlns="http://www.w3.org/2000/svg" width="62" height="62" fill="#da1b1b" xmlns:v="https://vecta.io/nano"><path d="M9 14.051c0 .128.948 2.046 1.061 2.144.023.023.12.173.218.338s.263.384.354.489c.098.105.173.211.173.233s.068.128.158.226l.542.632c.97 1.128 2.37 2.437 3.852 3.596a4.1 4.1 0 0 1 .256.203c.098.083.203.15.226.15s.135.075.233.166c.271.241.542.429 1.963 1.377l1.873 1.211a3.08 3.08 0 0 1 .436.309c.052.053.135.098.173.098.053 0 .812.429 1.196.677a1.88 1.88 0 0 0 .301.166 43.22 43.22 0 0 1 2.219 1.347c1.279.858 2.896 2.325 3.385 3.054.203.308.338.406.338.241 0-.098-.308-.662-.429-.805-.053-.053-.098-.135-.098-.173 0-.083-.451-.82-.587-.963a3.11 3.11 0 0 1-.226-.301c-.203-.308-.451-.587-1.219-1.362-.925-.918-1.031-1.001-2.332-1.971L21.9 24.26c-.038-.03-.211-.143-.376-.241s-.316-.203-.338-.226-.173-.128-.338-.226l-1.053-.67-1.219-.767c-.098-.053-.173-.12-.173-.158 0-.03-.038-.06-.075-.06-.045 0-.226-.105-.399-.233l-1.505-1.061a2.67 2.67 0 0 1-.293-.233c-.09-.068-.18-.128-.203-.128s-.128-.075-.233-.173l-.654-.527-.564-.451c-.053-.053-.286-.241-.511-.421-.97-.76-4.281-3.934-4.612-4.423-.143-.211-.354-.338-.354-.211zm7.056 1.361c-.06.06.023.331.098.331.038 0 .068.038.068.09 0 .113.542 1.196.662 1.324.045.053.09.128.09.166 0 .098.647 1.031.963 1.384.752.843 2.121 2.114 2.648 2.46.105.068.293.218.414.323a6.36 6.36 0 0 0 .527.406l.444.331a5.34 5.34 0 0 0 .451.338l.451.339a5.34 5.34 0 0 0 .451.338l.346.248a23.62 23.62 0 0 0 .564.451l.609.489.669.602c1.098.986 1.941 1.903 2.453 2.671a16.99 16.99 0 0 1 1.136 1.941l.752 1.377.504.842c.098.173.226.361.286.414.053.053.098.135.098.173s.038.113.075.166a42.09 42.09 0 0 1 .797 1.181c1.271 1.926 3.017 3.46 4.732 4.145.813.324 2.513.451 4.739.354 1.55-.06 3.325-.015 3.634.098.098.038.316.068.489.068.173.008.451.053.617.113s.369.113.451.113.248.053.369.113c.113.06.263.113.324.113.12 0 .534.181 1.489.647 1.377.685 2.49 1.497 3.664 2.678.782.79.812.813.858.617.06-.233-.015-1.031-.113-1.211l-.248-.511c-.188-.421-.542-.925-1.068-1.535-.203-.248-.346-.489-.346-.594 0-.308-.293-.79-.639-1.046-.436-.323-1.775-1.001-1.979-1.001-.038 0-.173-.053-.286-.113-.12-.06-.278-.113-.354-.113a.72.72 0 0 1-.263-.068c-.068-.038-.384-.143-.692-.233-1.031-.308-1.693-.542-1.926-.685-.248-.15-.482-.542-.482-.805 0-.196.286-1.083.376-1.174.045-.045.075-.128.075-.188 0-.068.045-.211.105-.324.06-.105.143-.436.196-.73.248-1.459-.542-2.392-3.084-3.664l-1.241-.564-.504-.211c-.196-.09-.406-.158-.466-.158s-.135-.038-.158-.075c-.023-.045-.098-.075-.166-.075-.06 0-.218-.045-.346-.105a25.01 25.01 0 0 0-1.444-.497l-1.324-.451c-.068-.038-.256-.09-.414-.12-.166-.023-.324-.075-.369-.105-.038-.03-.196-.083-.338-.105-.143-.03-.331-.083-.414-.12l-.489-.151-.639-.158-.451-.143a2.52 2.52 0 0 0-.414-.12 1.82 1.82 0 0 1-.376-.105c-.06-.03-.369-.135-.677-.226l-.677-.218c-.068-.038-.233-.09-.376-.12s-.293-.075-.339-.105c-.038-.03-.331-.135-.639-.233-.308-.09-.594-.196-.639-.226-.038-.03-.293-.128-.564-.226s-.519-.203-.557-.241a.37.37 0 0 0-.181-.06c-.15 0-.858-.323-2.648-1.196l-2.671-1.452a33.07 33.07 0 0 0-.677-.451l-.677-.451-.782-.587c-1.362-1.016-3.34-2.919-4.175-4.025l-.301-.399c-.015-.008-.038.008-.06.03zm33.642 22.794c.767.256 1.016.451 1.196.91.181.444-.12.549-.489.166a2.96 2.96 0 0 0-.482-.391c-.143-.09-.308-.203-.361-.256s-.143-.098-.203-.098c-.098 0-.188-.158-.188-.346 0-.135.105-.135.527.015zM10.655 20.152c0 .083.64 1.347.752 1.482.045.053.203.256.354.466.549.737 1.407 1.617 2.55 2.595a18.49 18.49 0 0 0 1.316.993 3.12 3.12 0 0 1 .301.226 2.69 2.69 0 0 0 .406.286c.165.098.316.203.338.226.045.06 2.264 1.377 2.971 1.768l3.272 1.648 2.385 1.279c.685.414 1.783 1.271 2.332 1.821l.587.557c.023 0-.008-.083-.053-.188s-.113-.188-.15-.188c-.03 0-.06-.045-.06-.098 0-.06-.068-.188-.15-.286l-.203-.256c-.549-.722-1.001-1.158-2.385-2.332-.188-.165-1.429-1.008-2.009-1.369-.459-.293-1.384-.812-2.325-1.317l-.489-.286c-.068-.053-.391-.226-1.467-.812-.677-.361-2.392-1.422-2.671-1.648-.038-.038-.211-.151-.376-.248l-.376-.241-.903-.67-.865-.662c-.023-.03-.203-.181-.414-.338-.421-.316-.963-.812-1.971-1.806-.384-.376-.7-.647-.7-.602zm8.546 13.473c-.075.075 1.189 1.249 2.024 1.873l.828.617c.196.151.873.542.933.542.038 0 .12.045.173.09.053.053.218.15.361.226l1.535.662c.06 0 .128.03.151.06.06.098 2.43.843 2.693.843a.62.62 0 0 1 .271.075 2.19 2.19 0 0 0 .466.143l1.166.301a12 12 0 0 0 .715.241l.639.233a.32.32 0 0 0 .173.06 1.09 1.09 0 0 1 .338.105l1.61.624c.022-.03-.053-.128-.173-.218-.188-.15-.519-.444-1.234-1.113l-.451-.406a36.59 36.59 0 0 0-2.294-1.7c-.165-.098-.316-.203-.339-.226-.023-.03-.09-.075-.15-.105l-.564-.309a22.54 22.54 0 0 0-1.956-.97l-.414-.188c-.068-.038-.226-.09-.361-.113-.128-.03-.256-.09-.278-.128-.03-.038-.12-.068-.211-.068-.166.008-.166.008-.015.09a.74.74 0 0 1 .188.135c.023.023.188.135.376.248.399.233 1.128.88 1.128 1.001 0 .045-.053.128-.113.18-.09.075-.309.068-1.091-.03l-1.151-.196-.579-.188c-1.174-.354-3.536-1.663-4.22-2.332-.068-.06-.143-.09-.173-.06zm12.856 3.882c1.407 1.294 5.01 4.973 5.236 5.334.09.135-.015.286-.188.286-.083-.008-.293-.068-.459-.151a2.65 2.65 0 0 0-.354-.15c-.098 0-.843-.474-1.038-.654-.226-.211-.346-.226-.211-.03.218.316 1.309 1.392 1.993 1.979.308.263 1.128.828 1.407.963.451.226.496.263.496.406 0 .128-.038.135-.414.09-.226-.022-.414-.022-.414.015 0 .053.444.271.978.474.391.158 1.482.135 1.791-.03.135-.075.324-.128.406-.113.166.023.181.045.414.549.286.617.948 1.467 1.136 1.467.038 0 .113.045.158.105.09.105 1.121.384 1.181.324.023-.023-.12-.158-.309-.308-.527-.399-.782-.775-.79-1.144 0-.399.165-.722.512-.993.504-.384.813-.489 1.55-.496.602 0 .722.015.986.181.166.098.346.233.399.301.143.173.391.745.391.91 0 .256.143.151.196-.143.105-.572.075-1.189-.068-1.354-.203-.226-.752-.369-1.595-.429-1.437-.09-2.166-.331-2.813-.918-.669-.602-.639-.669.316-.715.677-.038 1.256-.158 1.745-.361l.527-.226.978-.451c1.264-.602 2.039-.782 3.333-.782.94 0 1.189-.053.843-.158-.083-.023-.151-.083-.151-.12s-.03-.068-.068-.068c-.06 0-.707-.391-.955-.579-.113-.09-.534-.316-1.121-.602l-.654-.331c-.075-.038-.166-.068-.203-.068a1.15 1.15 0 0 1-.286-.09c-.308-.128-.812-.271-1.414-.414-.767-.18-3.649-.173-4.928 0-1.903.263-2.234.293-3.122.256-.91-.038-1.241-.098-2.144-.369a6.29 6.29 0 0 1-1.136-.429l-.391-.158c-.03 0-.271-.135-.542-.301l-.527-.301c-.038 0-.669-.429-1.061-.73-.512-.384-.323-.128.384.527z"/></svg>