<svg class="site-logo" height="51.922" viewBox="0 0 247.983 51.922" width="247.983" xmlns="http://www.w3.org/2000/svg">
<path d="M-3202.282,69.922a25.961,25.961,0,0,1,25.96-25.961,25.962,25.962,0,0,1,25.961,25.961,25.961,25.961,0,0,1-25.961,25.96A25.96,25.96,0,0,1-3202.282,69.922Zm1.823-.05a24.138,24.138,0,0,0,24.138,24.139,24.138,24.138,0,0,0,24.138-24.139,24.138,24.138,0,0,0-24.138-24.138A24.138,24.138,0,0,0-3200.459,69.872ZM-3024.2,86.227V62.73h2.217v3.153h.1a8.235,8.235,0,0,1,1.625-1.774,7.65,7.65,0,0,1,1.774-1.084,7.93,7.93,0,0,1,1.773-.542l1.577-.148a9.495,9.495,0,0,1,3.842.739,9.1,9.1,0,0,1,2.956,2.02A9.363,9.363,0,0,1-3006.467,68a8.911,8.911,0,0,1,.591,3.4,9.059,9.059,0,0,1-.689,3.547,8.863,8.863,0,0,1-1.922,2.906,9.213,9.213,0,0,1-2.956,1.971,9.512,9.512,0,0,1-3.744.739l-1.527-.148a8.2,8.2,0,0,1-1.773-.543,7.6,7.6,0,0,1-1.823-1.084,7.433,7.433,0,0,1-1.626-1.724h-.049v9.162Zm11.97-8.276a6.9,6.9,0,0,0,2.266-1.527,6.69,6.69,0,0,0,1.428-2.217l-.049-.049a7.883,7.883,0,0,0-.049-5.714,6.611,6.611,0,0,0-1.577-2.266,7.135,7.135,0,0,0-2.265-1.428,7.34,7.34,0,0,0-2.71-.493,6.67,6.67,0,0,0-2.759.591,7,7,0,0,0-3.646,3.843,7.391,7.391,0,0,0,.05,5.566,6.949,6.949,0,0,0,3.744,3.694,6.708,6.708,0,0,0,2.66.542A7.438,7.438,0,0,0-3012.231,77.952Zm-110.1,8.227,3.005-6.651-6.749-16.8h2.364l5.518,13.842,5.911-13.842,2.316-.05-10.05,23.5Zm-68.129-4.532a4.632,4.632,0,0,1-3.005-2.217,18.836,18.836,0,0,1-1.281-5.271h-.542a.691.691,0,0,1-.519-.184.691.691,0,0,1-.22-.506l-.2-6.5a.739.739,0,0,1,.69-.739h.542c.1-2.02.3-3.547.344-4.188a2.462,2.462,0,0,1,2.118-2.118,103.965,103.965,0,0,1,13.99-1.38,2.7,2.7,0,0,0,2.069-2.414V53.764a.542.542,0,0,1-.415-.59.542.542,0,0,1,.538-.481.542.542,0,0,1,.538.481.542.542,0,0,1-.415.59v2.364a2.747,2.747,0,0,0,2.069,2.414,103.94,103.94,0,0,1,13.99,1.38,2.462,2.462,0,0,1,2.119,2.118c.1.641.247,2.217.345,4.188h.542a.69.69,0,0,1,.507.219.693.693,0,0,1,.184.52l-.2,6.453a.69.69,0,0,1-.219.506.685.685,0,0,1-.519.184h-.542a18.835,18.835,0,0,1-1.281,5.271,4.634,4.634,0,0,1-3.055,2.266,56.3,56.3,0,0,1-14.089,1.823A56.3,56.3,0,0,1-3190.459,81.646Zm-.246-20.937c-2.316.3-2.562.3-2.759,2.021s-1.133,10.837,1.084,15.664a4.235,4.235,0,0,0,2.856,2.021,54.976,54.976,0,0,0,13.2,1.675,54.855,54.855,0,0,0,13.154-1.675,4.236,4.236,0,0,0,2.857-2.021c2.217-4.828,1.281-13.99,1.084-15.714s-.444-1.675-2.76-2.02c-5.468-.345-14.384,9.311-14.384,9.311s-8.517-9.274-14-9.274Q-3190.541,60.7-3190.705,60.71Zm91.528,19.853-1.527-.148a8.1,8.1,0,0,1-1.774-.543,7.8,7.8,0,0,1-1.823-1.084,7.684,7.684,0,0,1-1.625-1.724h-.049v3.054h-2.217v-23.5h2.266v9.212h.049a7.712,7.712,0,0,1,1.626-1.724,9,9,0,0,1,1.773-1.084,7.744,7.744,0,0,1,1.774-.542l1.576-.148a9.5,9.5,0,0,1,3.843.739,9.112,9.112,0,0,1,2.956,2.02A9.368,9.368,0,0,1-3090.458,68a8.934,8.934,0,0,1,.591,3.4,9.065,9.065,0,0,1-.69,3.547,8.958,8.958,0,0,1-1.921,2.906,9.332,9.332,0,0,1-2.957,1.971,9.506,9.506,0,0,1-3.676.739Zm2.956-2.611a6.851,6.851,0,0,0,2.265-1.527,6.7,6.7,0,0,0,1.429-2.217,7.457,7.457,0,0,0,.542-2.758,7.54,7.54,0,0,0-.591-3.005,6.5,6.5,0,0,0-1.577-2.266,7.032,7.032,0,0,0-2.265-1.428,7.341,7.341,0,0,0-2.71-.493,6.7,6.7,0,0,0-2.759.591,6.979,6.979,0,0,0-2.217,1.577,7.34,7.34,0,0,0-1.428,7.833,6.947,6.947,0,0,0,3.744,3.694,6.7,6.7,0,0,0,2.66.542A7.445,7.445,0,0,0-3096.221,77.952Zm17.438,2.561a8.828,8.828,0,0,1-3.449-.689,9.06,9.06,0,0,1-2.906-1.922,9.215,9.215,0,0,1-1.97-2.857,9.159,9.159,0,0,1-.049-7.093,9.139,9.139,0,0,1,1.921-2.907,9.521,9.521,0,0,1,2.857-1.97,8.766,8.766,0,0,1,6.207-.394A9.248,9.248,0,0,1-3074,63.764a9.108,9.108,0,0,1,1.675,1.428,9.842,9.842,0,0,1,1.232,1.577,8.784,8.784,0,0,1,1.083,2.463,10.139,10.139,0,0,1,.3,2.414,2.706,2.706,0,0,1,0,.3c0,.1,0,.2,0,.3h-15.813a6.011,6.011,0,0,0,.641,2.414,6.833,6.833,0,0,0,1.527,2.02,7.389,7.389,0,0,0,2.118,1.379,6.258,6.258,0,0,0,2.463.493,7.663,7.663,0,0,0,2.167-.346,6.667,6.667,0,0,0,1.823-.886,6.388,6.388,0,0,0,1.38-1.281,5.33,5.33,0,0,0,.838-1.576h2.364a8.873,8.873,0,0,1-1.281,2.414,9.256,9.256,0,0,1-1.971,1.921,9.079,9.079,0,0,1-2.462,1.281,8.659,8.659,0,0,1-2.738.445Zm-2.069-15.911a6.747,6.747,0,0,0-2.069,1.084,7.007,7.007,0,0,0-1.675,1.872,6.8,6.8,0,0,0-.936,2.66h13.6a7.145,7.145,0,0,0-.985-2.66,7.008,7.008,0,0,0-1.675-1.872,6.72,6.72,0,0,0-2.021-1.084,6.941,6.941,0,0,0-2.118-.346A7.033,7.033,0,0,0-3080.852,64.6Zm107.144,15.862a9.5,9.5,0,0,1-3.744-.739,9.172,9.172,0,0,1-2.956-1.97,9.317,9.317,0,0,1-1.921-2.907,8.914,8.914,0,0,1,.049-6.995,9.111,9.111,0,0,1,2.021-2.906,9.7,9.7,0,0,1,2.956-1.971,9.17,9.17,0,0,1,3.645-.739,10.1,10.1,0,0,1,2.414.3,8.966,8.966,0,0,1,2.414.985,9.448,9.448,0,0,1,2.167,1.774,8.729,8.729,0,0,1,1.626,2.66h-2.463a7.379,7.379,0,0,0-1.231-1.675,7.1,7.1,0,0,0-1.527-1.133,6.859,6.859,0,0,0-1.675-.69,7.442,7.442,0,0,0-1.675-.2,7.684,7.684,0,0,0-2.561.444,6.984,6.984,0,0,0-2.316,1.38,7.219,7.219,0,0,0-1.675,2.217,6.8,6.8,0,0,0-.641,3.054,7.194,7.194,0,0,0,2.02,5.025,7.188,7.188,0,0,0,5.123,2.119,7.063,7.063,0,0,0,2.414-.345,6.849,6.849,0,0,0,1.774-.887,7.228,7.228,0,0,0,1.231-1.133A6.378,6.378,0,0,0-2967.5,75h2.463a14.216,14.216,0,0,1-1.085,1.773,9.088,9.088,0,0,1-1.723,1.774,9.208,9.208,0,0,1-2.463,1.379,9.4,9.4,0,0,1-3.152.545C-2973.543,80.467-2973.626,80.466-2973.708,80.464Zm-24.385-.739a9.226,9.226,0,0,1-2.956-1.97,8.616,8.616,0,0,1-1.921-2.907,9.3,9.3,0,0,1-.69-3.546,8.819,8.819,0,0,1,.69-3.4A9.218,9.218,0,0,1-3001.1,65a9.081,9.081,0,0,1,2.956-2.02,9.459,9.459,0,0,1,3.842-.739l1.577.148a8.228,8.228,0,0,1,1.823.543,7.563,7.563,0,0,1,1.773,1.084,7.108,7.108,0,0,1,1.577,1.773h.05V62.73h2.217V80.021h-2.217V76.966h-.05a7.183,7.183,0,0,1-1.626,1.774A8.5,8.5,0,0,1-2991,79.774a8.359,8.359,0,0,1-1.773.542l-1.527.148h-.1A9.594,9.594,0,0,1-2998.093,79.725Zm1.085-14.975a7.087,7.087,0,0,0-2.266,1.428,6.607,6.607,0,0,0-1.577,2.266,7.532,7.532,0,0,0-.591,3.005,7.443,7.443,0,0,0,.493,2.758,6.61,6.61,0,0,0,1.428,2.217,6.819,6.819,0,0,0,2.266,1.527,7.439,7.439,0,0,0,2.906.542,6.708,6.708,0,0,0,2.66-.542,7,7,0,0,0,2.217-1.478,6.806,6.806,0,0,0,1.527-2.217,7.134,7.134,0,0,0,.64-2.857,7.186,7.186,0,0,0-.541-2.709,6.838,6.838,0,0,0-1.479-2.266,7.287,7.287,0,0,0-2.217-1.577,6.554,6.554,0,0,0-2.758-.591h-.071A7.3,7.3,0,0,0-2997.008,64.75Zm-142.613,14.926A9.065,9.065,0,0,1-3144.5,74.8a8.966,8.966,0,0,1,.049-7,9.115,9.115,0,0,1,2.02-2.906,9.689,9.689,0,0,1,2.956-1.97,9.144,9.144,0,0,1,3.646-.739,9.973,9.973,0,0,1,2.414.3,9.051,9.051,0,0,1,2.413.986,9.561,9.561,0,0,1,2.168,1.773,8.726,8.726,0,0,1,1.625,2.66h-2.463a6.989,6.989,0,0,0-2.759-2.808,6.81,6.81,0,0,0-1.675-.641,7.547,7.547,0,0,0-1.675-.2,7.645,7.645,0,0,0-2.561.444,6.958,6.958,0,0,0-2.316,1.38,7.094,7.094,0,0,0-1.675,2.217,6.749,6.749,0,0,0-.64,3.054,7.1,7.1,0,0,0,2.094,5.083,7.1,7.1,0,0,0,5.1,2.06,7.1,7.1,0,0,0,2.414-.345,6.861,6.861,0,0,0,1.774-.887,7.032,7.032,0,0,0,1.231-1.133,6.33,6.33,0,0,0,.689-1.183h2.463a14.209,14.209,0,0,1-1.084,1.773,8.919,8.919,0,0,1-1.724,1.774,9.174,9.174,0,0,1-2.463,1.38,10.3,10.3,0,0,1-3.305.545A10.3,10.3,0,0,1-3139.621,79.676Zm178.918.443V64.75h-3.645V62.73h3.645V56.621h2.218V62.73h4.187v2.02h-4.187V80.119Zm-68.424,0V70.07a6.539,6.539,0,0,0-1.231-4.286,4.828,4.828,0,0,0-3.473-1.474,4.828,4.828,0,0,0-3.473,1.474,6.539,6.539,0,0,0-1.231,4.286V80.119h-2.217V70.07a6.452,6.452,0,0,0-1.281-4.286,4.828,4.828,0,0,0-3.473-1.474,4.828,4.828,0,0,0-3.473,1.474,6.539,6.539,0,0,0-1.231,4.286V80.119h-2.218V62.73h2.218V64.8a4.822,4.822,0,0,1,1.97-1.823,5.955,5.955,0,0,1,2.759-.64,6.8,6.8,0,0,1,3.4.837,6.411,6.411,0,0,1,2.414,2.463,6.5,6.5,0,0,1,5.813-3.35,7.4,7.4,0,0,1,2.808.542,6.257,6.257,0,0,1,2.217,1.478,6.7,6.7,0,0,1,1.428,2.364,9.05,9.05,0,0,1,.492,3.1V80.119Zm-28.424,0V62.73h2.217V80.119Zm-9.754,0V62.73h2.217v2.561h.05a4.386,4.386,0,0,1,.936-1.478,4.566,4.566,0,0,1,1.183-.887,4.709,4.709,0,0,1,1.379-.444l1.428-.2v2.364a6.566,6.566,0,0,0-2.118.542,4.286,4.286,0,0,0-1.625,1.183,5.716,5.716,0,0,0-.887,1.625,5.882,5.882,0,0,0-.345,1.971V80.119Zm-113.646-1.182a.6.6,0,0,1-.221-.814.6.6,0,0,1,.813-.221,7.736,7.736,0,0,0,3.6.838,8.377,8.377,0,0,0,4.433-1.282.593.593,0,0,1,.45-.1.59.59,0,0,1,.387.252.591.591,0,0,1,.083.461.591.591,0,0,1-.28.376,9.5,9.5,0,0,1-5.073,1.478h-.1A8.966,8.966,0,0,1-3180.952,78.937Zm8.424-7.292a3.991,3.991,0,0,1,3.941-4.039,4.041,4.041,0,0,1,4.039,3.941,3.99,3.99,0,0,1-3.941,4.039h-.05A3.991,3.991,0,0,1-3172.528,71.645Zm3.909-2.363a2.758,2.758,0,0,0-2.726,2.775,2.758,2.758,0,0,0,2.759,2.742V74.75a2.759,2.759,0,0,0,2.759-2.758,2.758,2.758,0,0,0-2.758-2.709Zm-19.77,2.4a3.992,3.992,0,0,1,3.891-4.072,4.04,4.04,0,0,1,4.089,3.941,3.991,3.991,0,0,1-3.925,4.038h-.065A3.991,3.991,0,0,1-3188.39,71.678Zm1.132.363A2.759,2.759,0,0,0-3184.5,74.8V74.75a2.758,2.758,0,0,0,2.758-2.709,2.759,2.759,0,0,0-2.758-2.759A2.759,2.759,0,0,0-3187.257,72.041Zm16.946,0a1.725,1.725,0,0,1,1.724-1.724,1.724,1.724,0,0,1,1.724,1.724,1.723,1.723,0,0,1-1.724,1.723A1.724,1.724,0,0,1-3170.311,72.041Zm-15.863,0a1.725,1.725,0,0,1,1.724-1.724,1.724,1.724,0,0,1,1.724,1.724,1.724,1.724,0,0,1-1.724,1.723A1.724,1.724,0,0,1-3186.174,72.041Zm128.623-11.429V56.621h2.217v3.991Z" fill="currentcolor" id="logo-cyberimpact" transform="translate(3202.282 -43.961)"></path>
</svg>