<svg xmlns="http://www.w3.org/2000/svg" width="62" height="62" viewBox="0 -0.277 62.493 62.277" class="site-logo"><path d="M0 31C-0.001 13.879 13.878 0 30.999 0c17.121 -0.001 31.001 13.879 31 31 0 17.121 -13.879 31 -31 30.999S0 48.12 0 31m2.177 -0.06C2.178 46.859 15.082 59.764 31 59.765c15.919 -0.001 28.822 -12.906 28.823 -28.824C59.822 15.022 46.919 2.118 31 2.117 15.082 2.118 2.178 15.022 2.177 30.94m11.941 14.059a5.529 5.529 0 0 1 -3.588 -2.647 22.449 22.449 0 0 1 -1.53 -6.294h-0.647a0.836 0.836 0 0 1 -0.62 -0.22 0.836 0.836 0 0 1 -0.263 -0.604l-0.239 -7.762a0.884 0.884 0 0 1 0.824 -0.882h0.647c0.119 -2.412 0.358 -4.235 0.411 -5.001a2.937 2.937 0 0 1 2.529 -2.529 124.187 124.187 0 0 1 16.705 -1.648 3.224 3.224 0 0 0 2.471 -2.883V11.706a0.645 0.645 0 0 1 -0.496 -0.705 0.645 0.645 0 0 1 0.642 -0.574 0.645 0.645 0 0 1 0.642 0.574 0.645 0.645 0 0 1 -0.496 0.705v2.823a3.284 3.284 0 0 0 2.471 2.883c5.599 0.172 11.18 0.722 16.705 1.648a2.937 2.937 0 0 1 2.53 2.529c0.119 0.765 0.295 2.647 0.412 5.001h0.647a0.836 0.836 0 0 1 0.605 0.262c0.155 0.168 0.234 0.393 0.22 0.621l-0.239 7.706a0.836 0.836 0 0 1 -0.262 0.604 0.836 0.836 0 0 1 -0.62 0.22h-0.647a22.449 22.449 0 0 1 -1.53 6.294 5.529 5.529 0 0 1 -3.648 2.706 67.228 67.228 0 0 1 -16.824 2.177 67.228 67.228 0 0 1 -16.817 -2.178m-0.294 -25.001c-2.766 0.358 -3.059 0.358 -3.295 2.413S9.177 35.353 11.824 41.117a5.063 5.063 0 0 0 3.41 2.413 65.676 65.676 0 0 0 15.762 2 65.676 65.676 0 0 0 15.707 -2 5.063 5.063 0 0 0 3.412 -2.413c2.647 -5.765 1.53 -16.705 1.294 -18.764s-0.53 -2 -3.296 -2.412c-6.529 -0.412 -17.176 11.118 -17.176 11.118s-10.17 -11.074 -16.717 -11.074a8.359 8.359 0 0 0 -0.396 0.016zm11.647 21.765a0.716 0.716 0 0 1 -0.264 -0.972 0.716 0.716 0 0 1 0.971 -0.264 9.242 9.242 0 0 0 4.299 1.001 10.03 10.03 0 0 0 5.293 -1.531 0.716 0.716 0 0 1 0.537 -0.119c0.187 0.035 0.355 0.143 0.462 0.301a0.716 0.716 0 0 1 0.099 0.55 0.716 0.716 0 0 1 -0.334 0.449 11.344 11.344 0 0 1 -6.058 1.765h-0.119a10.747 10.747 0 0 1 -4.887 -1.179zm10.059 -8.707a4.764 4.764 0 0 1 4.706 -4.823 4.824 4.824 0 0 1 4.823 4.706 4.764 4.764 0 0 1 -4.706 4.823h-0.06a4.764 4.764 0 0 1 -4.764 -4.705zm4.668 -2.822a3.296 3.296 0 0 0 -3.255 3.314 3.296 3.296 0 0 0 3.295 3.274v-0.057a3.296 3.296 0 0 0 3.295 -3.293 3.296 3.296 0 0 0 -3.293 -3.235zm-23.607 2.866a4.764 4.764 0 0 1 4.646 -4.862 4.824 4.824 0 0 1 4.883 4.706 4.764 4.764 0 0 1 -4.687 4.822h-0.078a4.764 4.764 0 0 1 -4.767 -4.669zm1.352 0.433a3.296 3.296 0 0 0 3.291 3.291v-0.06a3.296 3.296 0 0 0 3.293 -3.235 3.296 3.296 0 0 0 -3.293 -3.295 3.296 3.296 0 0 0 -3.292 3.295zm20.235 0a2.059 2.059 0 1 1 2.059 2.057 2.059 2.059 0 0 1 -2.06 -2.061zm-18.942 0a2.059 2.059 0 1 1 2.059 2.057 2.059 2.059 0 0 1 -2.06 -2.061z" fill="currentcolor"/></svg>