<svg xmlns="http://www.w3.org/2000/svg" width="62" height="62" fill="none"><path d="M26.692 20.554c1.52-1.036 3.478-.629 3.151-.317-.625.595.206.419.296 1.518.066.809-.198 1.254-.426 1.508-.475.062-1.051.178-1.746.404a8.88 8.88 0 0 0-1.081.431c-.082-.054-.172-.12-.278-.211-1.072-.93-1.036-2.569.084-3.333zm9.08 6.403c.276-.214 1.529-.617 2.69-.754.609-.072 1.478-.113 1.663-.01.368.203.368.832.116 1.412-.367.843-.886 1.776-1.473 1.852-.958.127-1.864-.392-2.899-1.165-.369-.278-.596-.95-.097-1.336zm1.748-8.213c1.415.658 1.23 1.911 1.269 2.646.011.211.007.354-.011.452-.196-.106-.506-.184-.997-.162-.143.006-.283.023-.418.044-.522-.28-.834-.827-1.12-1.409l-.066-.148-.025-.063-.01-.029c-.157-.497-.051-.596.015-.749s.324-.285-.054-.416c-.032-.012-.073-.019-.118-.028.25-.31.999-.385 1.535-.138zm-7.713 14.975c-1.524-.979-3.102-2.382-3.791-3.159-.116-.087-.097-.474-.097-.474.622.484 3.204 2.329 5.935 3.171.963.298 2.441.41 3.723-.317.98-.555 2.159-1.523 2.863-2.521l.129.223c-.005.148-.329.871-.493 1.161.298.171.52.218.851.308l2.261-.352c.811-1.311 1.393-3.424.773-5.437-.354-1.154-2.199-3.452-2.331-3.578-.463-.445.078-2.166-.841-4.043-.971-1.986-3.501-4.057-4.599-4.958.324.237 2.318 1.041 3.248 2.163.087-.116.123-.718.203-.871-.798-1.046-.86-2.906-.86-3.403 0-.912-.463-1.945-.463-1.945s.798.632 1.005 1.721a7.03 7.03 0 0 0 1.451 3.164c1.301 1.62 2.476 2.452 3.07 1.853.711-.719-.721-3.937-2.549-5.733-2.134-2.096-2.692-1.826-3.944-1.379-.999.356-1.539 3.193-4.143 3.136-.441-.051-1.577-.079-2.139-.074l.544-.724s-.873.351-1.618.797l-.057-.086c.251-.529.521-.864.521-.864s-.698.419-1.335.921c.116-.631.555-1.031.555-1.031s-.882.159-2.005 1.395c-1.276.349-1.583.578-2.6 1.028-1.654-.361-2.434-.943-3.177-2.014-.566-.819-1.574-.943-2.603-.52l-3.4 1.47 1.264.002c-.883.335-1.731.795-1.731.795l.924-.006a8.65 8.65 0 0 1-.883.655C12.655 14.78 12 15.458 12 15.458s.548-.25 1.041-.39c-.344.789-1.027 1.369-.901 2.335.121.882 1.203 2.698 2.6 3.813.121.097 2.029 1.863 3.469 1.138s2.006-1.369 2.243-2.359c.278-1.136.12-1.995-.475-4.462l-.952-3.292.055-.039c.471.993 1.675 3.611 2.16 5.37.758 2.742.521 4.133.174 4.643-1.046 1.538-3.724 1.741-4.943.889-.187 2.952.473 4.252.696 4.907-.111.753.377 2.151.377 2.151s.055-.635.278-.97c.06.747.436 1.634.436 1.634s-.023-.548.148-1.022c.241.409.418.506.647.812.228.798.686 1.381.686 1.381s-.074-.428-.034-.873c1.117 1.073 1.31 2.639 1.421 3.843.313 3.309-5.217 5.939-6.289 8.009-.812 1.226-1.299 3.165.076 4.309 3.325 2.761 2.048 3.521 3.712 4.735 2.283 1.664 5.14.919 6.113-.435 1.354-1.886 1.006-3.666.503-5.33-.393-1.301-1.461-3.464-2.783-4.3a5.78 5.78 0 0 0-3.776-.901l.103-.118c1.6-.318 3.273-.143 4.483.637 1.374.883 2.631 2.398 3.288 4.72.745-.106.851-.154 1.533-.251l-1.536-11.96 3.252-.361zm.888 14.992l-.177-1.659 3.456-5.271 3.923 1.146 3.373-5.634 4.043 2.667 3.072-6.443 1.092 11.733-18.782 3.459zm18.822-17.595l-12.346 2.238c-.306.394-1.062 1.086-1.425 1.267-1.559.785-2.613.558-3.524.321-.586-.148-.925-.232-1.411-.45l-3.013.413 1.829 15.262 21.15-3.813-1.259-15.238z" fill="#fff"/></svg>