<?xml version="1.0" encoding="UTF-8"?>
<svg xmlns="http://www.w3.org/2000/svg" xmlns:xlink="http://www.w3.org/1999/xlink" width="62px" height="62px" viewBox="0 0 62 62" version="1.1">
<defs>
<clipPath id="clip1">
  <path d="M 0.855469 0.578125 L 16 0.578125 L 16 14 L 0.855469 14 Z M 0.855469 0.578125 "/>
</clipPath>
<clipPath id="clip2">
  <path d="M 0.855469 0.578125 L 16 0.578125 L 16 14 L 0.855469 14 Z M 0.855469 0.578125 "/>
</clipPath>
</defs>
<g id="surface1">
<path style=" stroke:none;fill-rule:nonzero;fill:rgb(100%,30.980393%,0%);fill-opacity:1;" d="M 50.84375 30.664062 L 33.964844 12.835938 C 30.066406 8.710938 23.246094 8.261719 18.730469 11.820312 L 12.066406 17.082031 C 7.554688 20.640625 7.058594 26.871094 10.957031 30.992188 L 27.835938 48.824219 C 31.734375 52.945312 38.554688 53.394531 43.070312 49.835938 L 49.734375 44.578125 C 54.25 41.019531 54.742188 34.789062 50.84375 30.664062 Z M 45.523438 40.046875 C 44.773438 40.648438 43.84375 40.945312 42.925781 40.957031 C 41.792969 40.964844 40.664062 40.546875 39.855469 39.707031 L 22.851562 22.042969 C 21.386719 20.515625 21.554688 18.207031 23.222656 16.867188 C 24.890625 15.523438 27.421875 15.679688 28.890625 17.203125 L 45.894531 34.871094 C 47.359375 36.394531 47.191406 38.707031 45.523438 40.046875 Z M 45.523438 40.046875 "/>
<g clip-path="url(#clip1)" clip-rule="nonzero">
<path style=" stroke:none;fill-rule:nonzero;fill:rgb(100%,30.980393%,0%);fill-opacity:1;" d="M 11.765625 13.398438 C 11.675781 13.398438 11.585938 13.398438 11.484375 13.398438 L 4.003906 13.171875 C 2.210938 13.121094 0.800781 11.75 0.855469 10.113281 C 0.914062 8.476562 2.414062 7.1875 4.21875 7.238281 L 8.6875 7.371094 L 9.179688 3.230469 C 9.371094 1.601562 10.980469 0.414062 12.761719 0.601562 C 14.542969 0.773438 15.84375 2.246094 15.640625 3.875 L 14.824219 10.746094 C 14.65625 12.210938 13.34375 13.316406 11.765625 13.398438 Z M 11.765625 13.398438 "/>
</g>
<path style=" stroke:none;fill-rule:nonzero;fill:rgb(100%,30.980393%,0%);fill-opacity:1;" d="M 50.074219 48.28125 C 50.164062 48.28125 50.253906 48.28125 50.355469 48.28125 L 57.835938 48.503906 C 59.628906 48.558594 61.039062 49.929688 60.984375 51.574219 C 60.925781 53.210938 59.425781 54.5 57.621094 54.449219 L 53.152344 54.316406 L 52.660156 58.460938 C 52.46875 60.085938 50.859375 61.273438 49.078125 61.089844 C 47.296875 60.914062 45.996094 59.441406 46.199219 57.816406 L 47.015625 50.941406 C 47.183594 49.476562 48.496094 48.371094 50.074219 48.292969 Z M 50.074219 48.28125 "/>
<path style=" stroke:none;fill-rule:nonzero;fill:rgb(100%,30.980393%,0%);fill-opacity:1;" d="M 50.84375 30.664062 L 33.964844 12.835938 C 30.066406 8.710938 23.246094 8.261719 18.730469 11.820312 L 12.066406 17.082031 C 7.554688 20.640625 7.058594 26.871094 10.957031 30.992188 L 27.835938 48.824219 C 31.734375 52.945312 38.554688 53.394531 43.070312 49.835938 L 49.734375 44.578125 C 54.25 41.019531 54.742188 34.789062 50.84375 30.664062 Z M 45.523438 40.046875 C 44.773438 40.648438 43.84375 40.945312 42.925781 40.957031 C 41.792969 40.964844 40.664062 40.546875 39.855469 39.707031 L 22.851562 22.042969 C 21.386719 20.515625 21.554688 18.207031 23.222656 16.867188 C 24.890625 15.523438 27.421875 15.679688 28.890625 17.203125 L 45.894531 34.871094 C 47.359375 36.394531 47.191406 38.707031 45.523438 40.046875 Z M 45.523438 40.046875 "/>
<g clip-path="url(#clip2)" clip-rule="nonzero">
<path style=" stroke:none;fill-rule:nonzero;fill:rgb(100%,30.980393%,0%);fill-opacity:1;" d="M 11.765625 13.398438 C 11.675781 13.398438 11.585938 13.398438 11.484375 13.398438 L 4.003906 13.171875 C 2.210938 13.121094 0.800781 11.75 0.855469 10.113281 C 0.914062 8.476562 2.414062 7.1875 4.21875 7.238281 L 8.6875 7.371094 L 9.179688 3.230469 C 9.371094 1.601562 10.980469 0.414062 12.761719 0.601562 C 14.542969 0.773438 15.84375 2.246094 15.640625 3.875 L 14.824219 10.746094 C 14.65625 12.210938 13.34375 13.316406 11.765625 13.398438 Z M 11.765625 13.398438 "/>
</g>
<path style=" stroke:none;fill-rule:nonzero;fill:rgb(100%,30.980393%,0%);fill-opacity:1;" d="M 50.074219 48.28125 C 50.164062 48.28125 50.253906 48.28125 50.355469 48.28125 L 57.835938 48.503906 C 59.628906 48.558594 61.039062 49.929688 60.984375 51.574219 C 60.925781 53.210938 59.425781 54.5 57.621094 54.449219 L 53.152344 54.316406 L 52.660156 58.460938 C 52.46875 60.085938 50.859375 61.273438 49.078125 61.089844 C 47.296875 60.914062 45.996094 59.441406 46.199219 57.816406 L 47.015625 50.941406 C 47.183594 49.476562 48.496094 48.371094 50.074219 48.292969 Z M 50.074219 48.28125 "/>
</g>
</svg>
