<svg xmlns="http://www.w3.org/2000/svg" viewBox="0 0 62 62" xml:space="preserve" width="62" height="62" fill="#632ca6"><rect width="62" height="62" rx="31" fill="#fff"/><path d="m46.119 42.495-4.157-2.742-3.468 5.793-4.033-1.179-3.551 5.42.182 1.706 19.309-3.558-1.122-12.065zm-18.007-5.202 3.098-.426c.501.225.85.311 1.451.464.936.244 2.02.478 3.624-.331.373-.185 1.151-.896 1.466-1.302l12.693-2.303 1.295 15.671-21.745 3.919zm23.578-5.647-1.253.239L48.03 7.016 7.016 11.772l5.053 41.004 4.801-.697c-.383-.547-.98-1.21-2-2.058-1.414-1.175-.914-3.17-.08-4.43 1.103-2.129 6.789-4.834 6.467-8.237-.116-1.237-.312-2.848-1.461-3.951-.043.458.034.899.034.899s-.471-.602-.707-1.422c-.233-.315-.417-.415-.665-.835-.177.486-.153 1.05-.153 1.05s-.386-.911-.448-1.681c-.229.344-.287.998-.287.998s-.501-1.437-.387-2.21c-.229-.673-.907-2.01-.715-5.047 1.252.877 4.007.669 5.081-.914.357-.524.6-1.955-.178-4.774-.5-1.808-1.738-4.5-2.221-5.521l-.058.041c.254.823.779 2.548.98 3.384.609 2.537.773 3.42.487 4.589-.243 1.017-.827 1.682-2.306 2.425-1.479.746-3.442-1.069-3.567-1.169-1.437-1.145-2.549-3.013-2.673-3.92-.129-.993.572-1.59.926-2.402-.506.145-1.07.401-1.07.401s.673-.697 1.504-1.3a9 9 0 0 0 .908-.673c-.525-.009-.951.006-.951.006s.875-.473 1.782-.817c-.663-.029-1.298-.005-1.298-.005s1.952-.873 3.494-1.514c1.06-.435 2.096-.306 2.678.535.764 1.102 1.566 1.701 3.267 2.072 1.044-.463 1.361-.701 2.673-1.058 1.155-1.27 2.062-1.434 2.062-1.434s-.45.413-.57 1.061c.655-.516 1.372-.946 1.372-.946s-.278.343-.537.888l.06.089c.764-.458 1.662-.819 1.662-.819s-.257.324-.558.745c.576-.005 1.744.025 2.198.076 2.677.059 3.232-2.859 4.259-3.225 1.286-.459 1.861-.737 4.053 1.416 1.881 1.848 3.35 5.156 2.621 5.897-.612.615-1.818-.24-3.156-1.907a7.2 7.2 0 0 1-1.492-3.253c-.211-1.119-1.033-1.769-1.033-1.769s.477 1.064.477 2.001c0 .512.064 2.425.885 3.499-.081.157-.119.777-.209.895-.955-1.154-3.005-1.979-3.339-2.223 1.131.927 3.732 3.057 4.731 5.098.945 1.93.388 3.7.866 4.158.136.131 2.032 2.493 2.397 3.68.636 2.069.038 4.242-.795 5.591l-2.325.362c-.34-.095-.57-.142-.875-.319.168-.298.502-1.04.506-1.193l-.131-.23c-.724 1.025-1.936 2.021-2.943 2.593-1.318.747-2.838.632-3.827.326-2.807-.866-5.462-2.763-6.102-3.261 0 0-.02.398.101.487.708.798 2.329 2.243 3.897 3.249l-3.341.368 1.58 12.3c-.7.1-.809.149-1.576.259-.676-2.387-1.968-3.946-3.381-4.854-1.246-.801-2.964-.981-4.609-.655l-.106.123c1.144-.119 2.494.047 3.881.925 1.361.861 2.458 3.084 2.862 4.423.517 1.711.875 3.541-.517 5.481-.99 1.379-3.881 2.141-6.216.493.624 1.003 1.467 1.824 2.602 1.978 1.685.229 3.285-.064 4.386-1.194.94-.966 1.438-2.987 1.307-5.115l1.487-.216.537 3.82 24.624-2.965zM36.709 21.273c-.069.157-.177.26-.015.77l.01.029.026.066.068.153c.292.598.613 1.161 1.15 1.449a4 4 0 0 1 .431-.047c.504-.022.822.058 1.024.166.018-.1.022-.247.011-.464-.039-.757.15-2.044-1.305-2.722-.549-.255-1.319-.176-1.576.142a.6.6 0 0 1 .121.027c.388.136.125.27.055.43m4.077 7.062c-.191-.105-1.082-.064-1.709.011-1.194.141-2.483.555-2.765.776-.514.397-.28 1.089.099 1.373 1.064.795 1.996 1.328 2.981 1.198.605-.079 1.137-1.036 1.515-1.905.259-.598.259-1.244-.12-1.453M30.216 22.21c.337-.32-1.677-.74-3.24.326-1.152.786-1.189 2.471-.086 3.427.11.095.201.162.287.216a10 10 0 0 1 2.907-.857c.233-.261.505-.72.437-1.552-.092-1.128-.947-.949-.305-1.56"/></svg>