<svg xmlns="http://www.w3.org/2000/svg" width="62" height="62" fill="none" fill-rule="evenodd"><path d="M17.379 52.708h2.202l3.001-8.214 2.533 6.655h-2.913v1.559h5.651l-3.975-10.133h-2.513l-3.986 10.133zm8.818-10.143v1.695h3.206v8.448h2.221v-8.457h3.235v-1.686h-8.661zm9.431-.019v10.162h6.986v-1.715h-4.735v-2.767h4.239V46.52h-4.248v-2.289h4.541v-1.685h-6.782zm7.308.058h2.299l2.787 8.106 2.231-6.509H47.68v-1.597H53l-3.809 10.103h-2.397l-3.858-10.103z" fill="#26a895"/><path d="M9 9h43.727v31.334H9V9z" fill="#a0c877"/><path d="M9.01 42.575h3.225c.146.146 5.603-.682 5.554 4.94.127 5.7-5.846 5.223-5.846 5.223H9.01V42.575zm2.787 1.754h-.653v6.694h.536c1.228.019 4.004-.243 3.888-3.585-.039-3.03-2.543-3.147-3.771-3.108z" fill="#26a895"/></svg>