<svg width="62" height="62" viewBox="0 0 62 62" fill="none" xmlns="http://www.w3.org/2000/svg"><path fill-rule="evenodd" clip-rule="evenodd" d="M38.3112 24.0938V11.8221L47 9V38.6076H46.9832C46.8628 41.1288 46.1964 43.4732 44.9867 45.5636C43.6538 47.8776 41.7301 49.7139 39.308 51.0284C36.8887 52.3428 34.1026 53 31.0308 53C27.9562 53 25.1729 52.3428 22.7508 51.0284C20.3287 49.7139 18.405 47.8776 17.0441 45.5636C15.6972 43.2495 15 40.6511 15 37.8289C15 34.9626 15.6972 32.3503 17.0581 30.0666C18.405 27.7664 20.3287 25.9301 22.7508 24.6019C25.1729 23.2736 27.9562 22.6026 31.0308 22.6026C33.6937 22.6026 36.1299 23.1079 38.3112 24.0938ZM31.0308 30.097C28.9559 30.097 27.3206 30.7984 25.9905 32.2454C24.6409 33.7089 23.9912 35.5314 23.9912 37.8289C23.9912 40.085 24.6409 41.8909 25.9905 43.3545C27.3066 44.8014 28.9559 45.5056 31.0308 45.5056C33.0581 45.5056 34.6934 44.8014 36.0403 43.3545C37.4011 41.8909 38.0676 40.085 38.0676 37.8289C38.0676 35.5314 37.4011 33.7089 36.0403 32.2454C34.6934 30.7984 33.0581 30.097 31.0308 30.097Z" fill="#3067DB"/></svg>