<svg xmlns="http://www.w3.org/2000/svg" width="62" height="62" fill="#15357a"><path d="M23.043 51.229c-2.686 0-5.084-.652-7.194-1.957s-3.779-3.088-5.007-5.352S9 39.086 9 36.209s.614-5.429 1.842-7.654c1.228-2.264 2.897-4.029 5.007-5.295 2.11-1.305 4.508-1.957 7.194-1.957 2.149 0 4.029.403 5.64 1.208s2.916 1.938 3.913 3.396V11.299L39.963 10v40.539h-6.561l-.806-4.086c-.921 1.266-2.149 2.379-3.683 3.338-1.496.959-3.453 1.439-5.87 1.439zm1.554-6.446c2.379 0 4.316-.787 5.813-2.36 1.535-1.611 2.302-3.664 2.302-6.158s-.767-4.527-2.302-6.1c-1.496-1.611-3.434-2.417-5.812-2.417-2.34 0-4.278.787-5.813 2.36s-2.302 3.606-2.302 6.1.767 4.547 2.302 6.158 3.472 2.417 5.813 2.417zm23.399 6.055c2.764 0 5.004-2.24 5.004-5.004s-2.24-5.004-5.004-5.004-5.004 2.24-5.004 5.004 2.24 5.004 5.004 5.004z"/></svg>