<svg width="62" height="62" viewBox="0 0 62 62" fill="none" xmlns="http://www.w3.org/2000/svg"><rect width="62" height="62" rx="31" fill="white"/><path d="M12.3589 9.2639C12.14 9.48136 12.0032 10.3784 12.0032 11.5472C12.0032 12.6889 12.14 13.6674 12.3589 13.9121C12.6325 14.3198 13.7269 14.3741 21.3053 14.4829C29.3762 14.5644 30.0328 14.6188 31.8385 15.1896C38.3772 17.3098 42.6452 21.7405 43.9037 27.7206C44.5056 30.4932 44.2594 33.5648 43.2198 36.3645C42.5632 38.2129 41.1952 40.768 40.8943 40.768C40.8395 40.768 40.8943 40.3059 41.0311 39.7351C41.4141 38.1314 41.3047 33.9997 40.8669 32.0969C39.5263 26.4974 35.4498 22.3657 29.6498 20.762C27.5158 20.1639 13.0429 19.8649 12.4136 20.3814C12.1127 20.626 12.0032 21.2784 12.0032 22.6103C12.0032 25.7091 11.6476 25.546 18.3779 25.546C24.9714 25.546 26.9412 25.7907 29.3762 26.8779C34.4923 29.1884 36.7631 35.1141 34.6838 40.6865C33.8357 42.8611 31.647 45.0628 29.1847 46.2316C27.2148 47.1287 27.1327 47.1558 22.7553 47.2374L18.2958 47.3461V39.7351C18.2958 33.157 18.2411 32.0426 17.8581 31.6892C17.2562 31.064 13.0429 31.064 12.441 31.6892C12.058 32.0426 12.0032 33.3745 12.0032 42.1C12.0032 51.4506 12.0306 52.1302 12.4957 52.5379C12.9335 52.9456 13.9184 53 20.5666 53C28.9384 53 31.2366 52.7825 34.8479 51.6137C38.3499 50.4992 41.2499 48.7324 43.8764 46.0685C48.4727 41.4204 50.2237 36.7179 49.9774 29.7593C49.868 26.6877 49.7312 25.8722 48.9378 23.5345C46.6396 16.739 41.2226 11.7103 34.0272 9.726C32.0026 9.18236 31.1271 9.12799 22.2628 9.01926C14.8212 8.9649 12.6051 9.01926 12.3589 9.2639Z" fill="black"/></svg>