<svg width="62" height="62" viewBox="0 0 62 62" fill="none" xmlns="http://www.w3.org/2000/svg"><g clip-path="url(#clip0_3327_104)"><path d="M31 9C18.8495 9 9 18.8495 9 31C9 43.1505 18.8495 53 31 53C43.1505 53 53 43.1505 53 31C53 18.8495 43.1485 9 31 9ZM14.4671 34.3859C14.3808 35.7953 14.1692 36.4856 13.8179 36.5904C13.2755 36.7527 12.8523 35.9186 12.5831 35.1255C11.9709 33.3237 11.7017 31.3801 11.7017 29.3769C11.7038 18.8289 20.2548 10.2779 30.8028 10.2779C34.0736 10.2779 37.1533 11.1018 39.8448 12.5502C35.6679 13.9124 34.6961 24.9103 34.6961 24.9103C33.977 23.5194 32.8696 22.4079 31.3472 21.7196C26.4143 19.4905 18.8412 22.2189 15.9587 28.5921C15.0835 30.5295 14.5822 32.5019 14.4671 34.3838V34.3859ZM32.4484 33.8743C31.1829 37.254 27.797 39.1072 24.8857 38.0183C21.9744 36.9273 20.6431 33.3052 21.9087 29.9255C23.1743 26.5478 26.5601 24.6926 29.4714 25.7815C32.3827 26.8724 33.714 30.4946 32.4484 33.8743ZM30.8028 48.4759C25.8657 48.4759 21.3663 46.6022 17.9763 43.5265C17.927 43.4834 17.8407 43.3848 17.8838 43.3272C17.9105 43.2923 18.0009 43.2964 18.1694 43.4115C18.6276 43.7238 20.3246 44.8024 22.8579 44.8044C26.3978 44.8065 30.1864 42.8198 32.6498 39.3127C32.6334 40.4837 33.4634 42.7766 36.3829 43.7854C37.2869 44.0977 37.7286 44.7346 37.7553 45.427C37.8581 48.1328 33.1244 48.4739 30.8028 48.4739V48.4759ZM40.8351 43.0951C39.7811 42.9944 36.7075 42.5547 38.8689 32.9148C41.0303 23.2749 41.1165 20.2075 43.7957 19.8603C47.9273 19.3261 49.9018 25.5781 49.9018 29.3749C49.9018 31.641 49.5052 33.8147 48.782 35.8302C45.7701 43.2492 41.6651 43.1731 40.8351 43.093V43.0951Z" fill="#1F43F6"/></g><defs><clipPath id="clip0_3327_104"><rect width="44" height="44" fill="white" transform="translate(9 9)"/></clipPath></defs></svg>