<svg width="62" height="62" viewBox="0 0 62 62" fill="none" xmlns="http://www.w3.org/2000/svg"><path d="M12.5545 27.0292L17.3327 29.7875C17.5042 29.8866 17.6953 29.9349 17.8872 29.9349C18.0783 29.9349 18.2703 29.884 18.4418 29.7875L23.22 27.0292C23.22 27.0292 23.2334 27.0185 23.2396 27.014C23.3119 26.9703 23.3807 26.9176 23.4423 26.8577C23.4512 26.8488 23.4602 26.8381 23.4691 26.8292C23.5218 26.772 23.57 26.7104 23.6102 26.6443C23.6164 26.6336 23.6254 26.6247 23.6298 26.6131C23.6718 26.5407 23.7022 26.4639 23.7263 26.3818C23.7307 26.3639 23.7352 26.347 23.7397 26.3291C23.7593 26.2452 23.7745 26.1595 23.7745 26.0693V23.3109C23.7745 22.2465 24.3487 21.2545 25.2702 20.7214C26.1917 20.1883 27.3383 20.1892 28.2616 20.7214L30.6502 22.101C30.727 22.1447 30.8083 22.176 30.8922 22.2001C30.9101 22.2046 30.9279 22.2108 30.9449 22.2153C31.0262 22.2349 31.1101 22.2465 31.1932 22.2483C31.1976 22.2483 31.2021 22.2483 31.2039 22.2483C31.2128 22.2483 31.2217 22.2438 31.2298 22.2438C31.3066 22.2438 31.3842 22.2331 31.4584 22.2126C31.4718 22.2099 31.4851 22.2081 31.4977 22.2037C31.5789 22.1813 31.6584 22.1483 31.7334 22.1072C31.7396 22.1028 31.7486 22.1028 31.7557 22.0983L36.5339 19.34C36.8768 19.1417 37.0884 18.7765 37.0884 18.3809V12.8643C37.0884 12.4687 36.8777 12.1035 36.5339 11.9052L31.7513 9.14868C31.4084 8.95044 30.9878 8.95044 30.6449 9.14868L25.8667 11.907C25.8667 11.907 25.8533 11.9177 25.847 11.9222C25.7747 11.9659 25.706 12.0186 25.6443 12.0785C25.6354 12.0874 25.6265 12.0981 25.6175 12.107C25.5649 12.1642 25.5166 12.2258 25.4765 12.2919C25.4702 12.3026 25.4613 12.3115 25.4568 12.3222C25.4148 12.3946 25.3845 12.4723 25.3604 12.5535C25.3559 12.5714 25.3514 12.5883 25.347 12.6062C25.3273 12.6901 25.3122 12.7759 25.3122 12.866V15.6244C25.3122 16.6888 24.738 17.6809 23.8165 18.2157C22.8949 18.7479 21.7484 18.7479 20.8251 18.2157L18.4373 16.837C18.3596 16.7933 18.2784 16.762 18.1953 16.7379C18.1775 16.7334 18.1605 16.7272 18.1426 16.7227C18.0605 16.7031 17.9774 16.6924 17.8935 16.6897C17.8801 16.6897 17.8694 16.6897 17.856 16.6897C17.7765 16.6897 17.6997 16.7004 17.6247 16.72C17.6113 16.7218 17.6006 16.7245 17.5872 16.729C17.5068 16.7513 17.4274 16.7843 17.3524 16.8263C17.3461 16.8308 17.3372 16.8308 17.33 16.8352L12.5545 19.5962C12.2116 19.7945 12 20.1597 12 20.5553V26.0719C12 26.4684 12.2107 26.8327 12.5545 27.031V27.0292Z" fill="#2A6DCE"/><path d="M38.5816 28.4081C39.5031 27.8759 40.6496 27.8759 41.573 28.4081L43.9616 29.7877C44.0384 29.8315 44.1197 29.8627 44.2036 29.8869C44.2215 29.8913 44.2384 29.8976 44.2563 29.902C44.3375 29.9217 44.4215 29.9324 44.5045 29.9351C44.509 29.9351 44.5135 29.9351 44.5152 29.9351C44.5242 29.9351 44.5331 29.9324 44.5411 29.9306C44.6179 29.9306 44.6956 29.9199 44.7697 29.9002C44.7831 29.8976 44.7965 29.8958 44.809 29.8913C44.8903 29.869 44.9671 29.836 45.0448 29.7949C45.051 29.7904 45.0599 29.7904 45.0689 29.786L49.8471 27.0276C50.19 26.8294 50.4016 26.4642 50.4016 26.0686V20.551C50.4016 20.1554 50.19 19.7902 49.8471 19.592L45.0716 16.8328C44.7287 16.6345 44.3081 16.6345 43.9652 16.8328L39.187 19.5911C39.187 19.5911 39.1736 19.6018 39.1673 19.6063C39.095 19.65 39.0263 19.7027 38.9646 19.7625C38.9557 19.7715 38.9468 19.7822 38.9387 19.7911C38.8861 19.8483 38.8378 19.9099 38.7977 19.976C38.7914 19.9867 38.7825 19.9956 38.778 20.0072C38.736 20.0795 38.7057 20.1572 38.6816 20.2385C38.6771 20.2563 38.6726 20.2733 38.6682 20.2912C38.6485 20.3751 38.6334 20.4608 38.6334 20.551V23.3094C38.6334 24.3738 38.0592 25.3658 37.1377 25.9007C36.2161 26.4329 35.0696 26.4329 34.1463 25.9007L31.7576 24.5211C31.6808 24.4773 31.5996 24.4461 31.5156 24.422C31.4978 24.4175 31.4808 24.4113 31.4629 24.4068C31.3817 24.3872 31.2977 24.3755 31.2147 24.3738C31.2013 24.3738 31.1906 24.3738 31.1772 24.3738C31.0977 24.3738 31.0209 24.3845 30.9459 24.405C30.9325 24.4077 30.9218 24.4095 30.9084 24.4139C30.8272 24.4363 30.7477 24.4693 30.6727 24.5104C30.6664 24.5148 30.6575 24.5148 30.6503 24.5193L25.8722 27.2776C25.5293 27.4759 25.3176 27.8411 25.3176 28.2367V33.7542C25.3176 34.1498 25.5284 34.515 25.8722 34.7133L30.6503 37.4716C30.6503 37.4716 30.6655 37.4761 30.6727 37.4805C30.7477 37.5225 30.8272 37.5555 30.9084 37.577C30.9218 37.5814 30.9352 37.5814 30.9477 37.5859C31.0227 37.6038 31.0995 37.6145 31.1763 37.6172C31.1852 37.6172 31.1942 37.6216 31.2031 37.6216C31.2076 37.6216 31.212 37.6216 31.2138 37.6216C31.2977 37.6216 31.379 37.6082 31.462 37.5886C31.4799 37.5841 31.4969 37.5797 31.5147 37.5734C31.5987 37.5493 31.6799 37.518 31.7567 37.4743L34.1454 36.0947C35.0669 35.5625 36.2135 35.5625 37.1368 36.0947C38.0583 36.6269 38.6325 37.6189 38.6325 38.6842V41.4426C38.6325 41.5328 38.6459 41.6185 38.6673 41.7024C38.6718 41.7203 38.6762 41.7372 38.6807 41.7551C38.7048 41.8364 38.7352 41.9132 38.7771 41.9864C38.7834 41.9971 38.7905 42.006 38.7968 42.0167C38.8361 42.0828 38.8852 42.1444 38.9379 42.2016C38.9468 42.2105 38.9557 42.2212 38.9638 42.2302C39.0236 42.2891 39.0914 42.34 39.1665 42.3864C39.1727 42.3909 39.1772 42.3971 39.1861 42.4016L43.9643 45.1599C44.1357 45.2591 44.3277 45.3073 44.5188 45.3073C44.7099 45.3073 44.9019 45.2564 45.0733 45.1599L49.8515 42.4016C50.1944 42.2034 50.4061 41.8382 50.4061 41.4426V35.925C50.4061 35.5294 50.1953 35.1642 49.8515 34.966L45.0733 32.2076C45.0733 32.2076 45.0582 32.2032 45.051 32.1987C44.976 32.1567 44.8965 32.1237 44.8153 32.1023C44.8019 32.0978 44.7912 32.0978 44.7778 32.0933C44.701 32.0755 44.6242 32.0648 44.5447 32.0621C44.534 32.0621 44.5206 32.0621 44.5099 32.0621C44.426 32.0621 44.3429 32.0755 44.2616 32.0951C44.2438 32.0996 44.2286 32.1041 44.2107 32.1103C44.1268 32.1344 44.0455 32.1657 43.9688 32.2094L41.5801 33.589C40.6586 34.1212 39.512 34.1212 38.5905 33.589C37.669 33.0568 37.0948 32.0648 37.0948 30.9977C37.0948 29.9306 37.669 28.9412 38.5905 28.4081H38.5816Z" fill="#1DC19C"/><path d="M36.5312 42.657L31.753 39.8986C31.753 39.8986 31.7379 39.8942 31.7307 39.8897C31.6557 39.8477 31.5771 39.8147 31.495 39.7932C31.4816 39.7888 31.4682 39.7888 31.4557 39.7843C31.3789 39.7665 31.3021 39.7557 31.2244 39.7531C31.211 39.7531 31.2003 39.7531 31.1869 39.7531C31.103 39.7531 31.0199 39.7665 30.9387 39.7861C30.9208 39.7906 30.9056 39.795 30.8878 39.8013C30.8038 39.8254 30.7226 39.8566 30.6458 39.9004L28.2571 41.28C27.3356 41.8122 26.189 41.8122 25.2675 41.28C24.346 40.7478 23.7718 39.7557 23.7718 38.6887V35.9294C23.7718 35.8392 23.7584 35.7535 23.737 35.6696C23.7325 35.6517 23.7281 35.6348 23.7236 35.6169C23.6995 35.5356 23.6682 35.4588 23.6272 35.3856C23.6209 35.3749 23.6138 35.366 23.6075 35.3544C23.5682 35.2883 23.5191 35.2267 23.4664 35.1695C23.4575 35.1606 23.4486 35.1499 23.4396 35.141C23.3807 35.082 23.3119 35.0311 23.2369 34.9847C23.2307 34.9802 23.2262 34.974 23.2173 34.9695L18.4391 32.2112C18.0962 32.0129 17.6756 32.0129 17.3327 32.2112L12.5545 34.9695C12.2116 35.1677 12 35.533 12 35.9285V41.4461C12 41.8417 12.2107 42.2069 12.5545 42.4051L17.3327 45.1635C17.3327 45.1635 17.3479 45.1697 17.355 45.1724C17.4301 45.2144 17.5068 45.2474 17.5881 45.2688C17.6015 45.2733 17.6149 45.2751 17.6274 45.2778C17.7024 45.2956 17.7792 45.3063 17.856 45.309C17.8649 45.309 17.8739 45.3135 17.8846 45.3135C17.889 45.3135 17.8935 45.3135 17.898 45.3135C17.9819 45.3135 18.0632 45.3001 18.1444 45.2805C18.1623 45.276 18.1792 45.2715 18.1971 45.2653C18.281 45.2412 18.3623 45.2099 18.4391 45.1662L20.8277 43.7865C21.7493 43.2543 22.8958 43.2543 23.8191 43.7865C24.7407 44.3187 25.3148 45.3108 25.3148 46.3761V49.1344C25.3148 49.2246 25.3282 49.3104 25.3497 49.3943C25.3541 49.4121 25.3586 49.4291 25.3631 49.447C25.3872 49.5282 25.4184 49.605 25.4595 49.6783C25.4657 49.689 25.4729 49.6979 25.4791 49.7095C25.5184 49.7756 25.5675 49.8372 25.6202 49.8943C25.6292 49.9033 25.6381 49.914 25.647 49.9229C25.7068 49.9827 25.7747 50.0328 25.8497 50.0792C25.856 50.0837 25.8604 50.0899 25.8694 50.0944L30.6476 52.8527C30.819 52.9518 31.0101 53 31.2021 53C31.3941 53 31.5852 52.9491 31.7566 52.8527L36.5348 50.0944C36.8777 49.8961 37.0893 49.5309 37.0893 49.1353V43.6178C37.0893 43.2222 36.8786 42.857 36.5348 42.6587L36.5312 42.657Z" fill="#1796E2"/></svg>