<svg width="62" height="62" viewBox="0 0 62 62" fill="none" xmlns="http://www.w3.org/2000/svg"><rect width="62" height="62" rx="31" fill="white"/><path fill-rule="evenodd" clip-rule="evenodd" d="M14.1922 31.0725C14.1922 23.8527 20.1212 18 27.4221 18H34.5585C41.8652 18 47.7885 23.8512 47.7885 31.0725C47.7885 38.2922 41.8595 44.1449 34.5585 44.1449H27.4221C20.1154 44.1449 14.1922 38.2938 14.1922 31.0725ZM19.0789 25.932C19.0789 23.4254 21.1306 21.3934 23.6722 21.3934H38.3084C40.8452 21.3934 42.9017 23.4285 42.9017 25.932V36.2129C42.9017 38.7195 40.85 40.7515 38.3084 40.7515H23.6722C21.1354 40.7515 19.0789 38.7164 19.0789 36.2129V25.932ZM39.5558 27.1797L39.5603 27.1782C39.2084 26.1026 38.2051 25.3268 37.0224 25.3268C35.8345 25.3268 34.8279 26.1093 34.48 27.1917L34.4835 27.1928C34.4466 27.2833 34.4263 27.3823 34.4263 27.4862C34.4263 27.9122 34.7682 28.2574 35.1898 28.2574C35.5495 28.2574 35.851 28.0063 35.932 27.6682L35.9328 27.6685C36.0819 27.2046 36.5133 26.8692 37.0224 26.8692C37.5264 26.8692 37.9544 27.198 38.1075 27.655L38.1095 27.6543C38.1855 27.9995 38.4904 28.2574 38.8549 28.2574C39.2767 28.2574 39.6185 27.9122 39.6185 27.4862C39.6185 27.3773 39.5961 27.2736 39.5558 27.1797ZM27.7971 27.1797L27.8016 27.1782C27.4497 26.1026 26.4464 25.3268 25.2637 25.3268C24.0758 25.3268 23.0692 26.1093 22.7213 27.1917L22.7248 27.1928C22.6879 27.2833 22.6676 27.3823 22.6676 27.4862C22.6676 27.9122 23.0094 28.2574 23.4311 28.2574C23.7908 28.2574 24.0923 28.0063 24.1733 27.6682L24.1741 27.6685C24.3232 27.2046 24.7546 26.8692 25.2637 26.8692C25.7677 26.8692 26.1957 27.198 26.3488 27.655L26.3508 27.6543C26.4268 27.9995 26.7317 28.2574 27.0962 28.2574C27.518 28.2574 27.8597 27.9122 27.8597 27.4862C27.8597 27.3773 27.8374 27.2736 27.7971 27.1797ZM31.2194 37.7437C28.0373 37.7437 25.3866 36.3887 24.8055 33.3476H37.6332C37.0521 36.3887 34.4013 37.7437 31.2194 37.7437ZM46.9186 38.6732C47.0191 38.6496 47.1242 38.6102 47.2325 38.554L51.6413 36.266C52.3917 35.8766 53 34.8701 53 34.0191V27.9376C53 27.0861 52.3891 26.0855 51.636 25.7029L47.2387 23.4689C47.0761 23.3863 46.9204 23.341 46.777 23.33C48.2483 25.557 49.1059 28.2328 49.1059 31.111C49.1059 33.8955 48.3031 36.4906 46.9186 38.6732ZM15.0766 38.6721C14.9776 38.6483 14.874 38.6093 14.7675 38.554L10.3587 36.266C9.60833 35.8766 9 34.8701 9 34.0191V27.9376C9 27.0861 9.61093 26.0855 10.364 25.7029L14.7613 23.4689C14.9256 23.3854 15.0828 23.3401 15.2275 23.3296C13.7535 25.558 12.8941 28.2364 12.8941 31.1175C12.8941 33.8987 13.695 36.4911 15.0766 38.6721Z" fill="#00305C"/></svg>