<svg xmlns="http://www.w3.org/2000/svg" width="62" height="62" fill="#0080ff"><path d="M31.003 53v-8.532c9.031 0 16.041-8.956 12.573-18.461-1.272-3.493-4.091-6.311-7.609-7.584-9.505-3.443-18.461 3.542-18.461 12.573H9c0-14.394 13.92-25.62 29.013-20.905 6.586 2.071 11.85 7.309 13.895 13.895C56.624 39.08 45.398 53 31.003 53z"/><g fill-rule="evenodd"><path d="M31.028 44.518h-8.507v-8.507h8.507v8.507z"/><path d="M22.521 51.029H16.01v-6.511h6.511v6.511z"/><path d="M16.01 44.518h-5.463v-5.463h5.463v5.463z"/></g></svg>