<svg xmlns="http://www.w3.org/2000/svg" width="62" height="62" fill="none"><path d="M31.089 11.067a19.8 19.8 0 0 0-17.001 9.675 19.82 19.82 0 0 0-.401 19.565l-3.582 11.528 12.862-2.907a19.79 19.79 0 0 0 21.837-3.768c5.829-5.597 7.673-14.175 4.66-21.675S39.186 11.071 31.108 11.067h-.019z" fill="#fff9ae"/><path d="M46.567 43.122c-5.623 7.096-15.341 9.472-23.6 5.768l-12.862 2.945 13.094-1.548c8.681 5.088 19.795 2.849 25.832-5.203a19.81 19.81 0 0 0-2.236-26.268 19.81 19.81 0 0 1-.227 24.306z" fill="#00aeef"/><path d="M45.46 39.352c-4.851 7.645-14.268 11.023-22.869 8.202l-12.487 4.273 12.862-2.913c9.161 4.14 19.968.751 25.128-7.88a19.81 19.81 0 0 0-4.945-25.878 19.81 19.81 0 0 1 2.31 24.196z" fill="#00a94f"/><path d="M14.87 40.741c-3.585-8.646-.631-18.622 7.083-23.918a19.79 19.79 0 0 1 24.854 1.99 19.79 19.79 0 0 0-26.515-4.613c-8.684 5.635-11.563 17.013-6.605 26.103L10.104 51.83l4.765-11.09z" fill="#f15d22"/><path d="M13.685 40.304c-4.448-8.221-2.546-18.434 4.564-24.499a19.79 19.79 0 0 1 24.9-.638 19.79 19.79 0 0 0-26.801-1.761c-8.026 6.495-9.716 18.069-3.883 26.59L10.11 51.838l3.576-11.535z" fill="#d0232b"/></svg>