<svg xmlns="http://www.w3.org/2000/svg" width="62" height="62" fill="none"><mask id="A" maskUnits="userSpaceOnUse" x="9" y="14" width="44" height="34"><path d="M53 14H9v33.348h44V14z" fill="#fff"/></mask><g mask="url(#A)"><path d="M46.272 16.792A36.43 36.43 0 0 0 37.194 14a25.18 25.18 0 0 0-1.162 2.363 33.88 33.88 0 0 0-10.074 0A24.67 24.67 0 0 0 24.794 14a36.6 36.6 0 0 0-9.083 2.8c-5.746 8.498-7.304 16.787-6.525 24.958a36.61 36.61 0 0 0 11.134 5.59 27.18 27.18 0 0 0 2.385-3.846c-1.303-.487-2.56-1.086-3.757-1.792.316-.229.623-.465.922-.692 3.482 1.636 7.282 2.486 11.13 2.486s7.648-.85 11.13-2.486c.301.245.608.48.92.692a23.88 23.88 0 0 1-3.761 1.796c.684 1.344 1.482 2.629 2.385 3.841 4.006-1.21 7.776-3.099 11.141-5.586.913-9.477-1.562-17.689-6.542-24.971zM23.69 36.734c-2.168 0-3.962-1.969-3.962-4.391s1.731-4.41 3.956-4.41 4.004 1.987 3.967 4.41-1.749 4.391-3.96 4.391zm14.618 0c-2.173 0-3.958-1.969-3.958-4.391s1.729-4.41 3.958-4.41 3.995 1.987 3.956 4.41-1.744 4.391-3.956 4.391z" fill="#5865f2"/></g></svg>