<svg xmlns="http://www.w3.org/2000/svg" width="62" height="62" fill="none"><path fill-rule="evenodd" d="M36.778 31.746l-4.448 2.54a.82.82 0 0 1-1.109-.293l-5.143-8.806a.8.8 0 0 1-.08-.61.8.8 0 0 1 .377-.486l4.456-2.533c1.365-.782 2.984-.995 4.505-.593s2.823 1.387 3.624 2.741a5.76 5.76 0 0 1 .795 2.935c0 1.038-.275 2.058-.798 2.956s-1.275 1.639-2.179 2.151zm12.493-13.924C44.338 9.381 33.42 6.496 24.876 11.369l-14.064 8.016c-.776.443-1.043 1.424-.595 2.191l12.191 20.86c.26.444.397.949.397 1.464v8.681c0 .323.353.524.636.363l3.828-2.188 2.621-1.491 12.841-7.326c2.709-1.534 4.962-3.758 6.531-6.447a17.61 17.61 0 0 0 2.402-8.857c-.001-3.097-.828-6.139-2.395-8.811l.001-.001z" fill="#2a2069"/></svg>