<svg version="1.0" xmlns="http://www.w3.org/2000/svg" width="62" height="62" viewBox="0 0 62 62">
    <g transform="scale(0.041) translate(0, 1500) scale(1, -1)" fill="#8A1EA8">
        <path d="M640 1489 c-165 -29 -301 -99 -415 -213 -363 -363 -266 -973 190 -1197 153 -75 311 -95 476 -61 326 68 559 321 601 657 10 77 9 108 -4 186 -9 52 -26 120 -38 152 l-22 58 -44 -45 c-25 -24 -65 -52 -89 -62 -39 -14 -44 -20 -39 -38 31 -97 33 -236 3 -332 -54 -178 -207 -323 -379 -363 -123 -29 -285 -6 -396 56 -117 65 -230 220 -254 352 -59 316 143 594 465 642 69 11 127 5 234 -23 8 -2 20 14 30 41 9 24 36 64 59 88 l44 43 -36 15 c-102 43 -279 63 -386 44z"/>
        <path d="M1141 1323 c-95 -47 -93 -198 4 -239 45 -18 69 -18 112 3 97 46 96 191 -1 237 -43 20 -72 20 -115 -1z"/>
    </g>
</svg>