<svg width="62" height="62" viewBox="0 0 62 62" fill="none" xmlns="http://www.w3.org/2000/svg"><path d="M37.9347 30.9748C37.9347 33.2181 37.068 35.3085 35.4874 36.8891C33.9069 38.4696 31.791 39.3363 29.5732 39.3363H29.5477V33.8045H23.9648V28.1961H29.5477V22.6133H29.5732C34.1873 22.6133 37.9347 26.3607 37.9347 30.9748Z" fill="#303AB2"/><path d="M46.5504 15.4496C42.5736 11.4728 37.0672 9 31 9C18.8656 9 9 18.8401 9 31C9 37.0672 11.4728 42.5736 15.4496 46.5504C19.4264 50.5272 24.9328 53 31 53C37.0672 53 42.5736 50.5527 46.5504 46.5504C50.5272 42.5736 53 37.0672 53 31C53 24.9073 50.5272 19.4264 46.5504 15.4496ZM39.54 40.9676C36.8633 43.6443 33.3198 45.0973 29.5469 45.0973V39.3615H23.9641V33.8042H18.3812V28.1958H23.9641V22.613H29.5469V16.8772H29.5724C37.3476 16.8772 43.6953 23.1993 43.6953 31C43.6953 34.7729 42.2167 38.3163 39.54 40.9676Z" fill="#303AB2"/></svg>