<svg width="62" height="62" viewBox="0 0 62 62" fill="none" xmlns="http://www.w3.org/2000/svg"><path d="M46.8849 42.6152H15.1082V46.8913H46.8849V42.6152Z" fill="black"/><path d="M9.78572 9H52.2143C52.6482 9 53 9.35178 53 9.78571V52.2143C53 52.6482 52.6482 53 52.2143 53H9.78572C9.35178 53 9 52.6482 9 52.2143V9.78571C9 9.35178 9.35178 9 9.78572 9Z" fill="#99CCEE"/><path fill-rule="evenodd" clip-rule="evenodd" d="M12.9274 26.1611H15.9848C16.6447 26.1611 17.2677 26.289 17.8531 26.5445C18.4388 26.8002 18.9522 27.1489 19.3938 27.5903C19.8354 28.032 20.1837 28.5455 20.4397 29.1307C20.5963 29.4897 20.7044 29.8626 20.765 30.2495C20.9129 29.2369 21.3688 28.3479 22.1335 27.5834C23.0629 26.635 24.2013 26.1611 25.5492 26.1611C26.8879 26.1611 28.0263 26.635 28.9654 27.5834C29.6575 28.269 30.0981 29.0544 30.2898 29.9394V26.1611L35.1276 30.999L39.9799 26.1611V29.9342C40.1704 29.0515 40.6066 28.2673 41.2906 27.5834C42.2201 26.635 43.3589 26.1611 44.7068 26.1611C46.0454 26.1611 47.1834 26.635 48.1225 27.5833C48.5222 27.9788 48.8371 28.4087 49.0702 28.8709V12.9277H12.9274V26.1611ZM44.7068 35.837C43.3682 35.837 42.2295 35.3632 41.2905 34.4147C40.6065 33.7375 40.1703 32.9554 39.9798 32.0695V35.8369H38.3481V30.0508L35.1276 33.2854L31.8935 30.0508V35.837H30.2898V32.0699C30.0981 32.9607 29.6575 33.7428 28.9654 34.4147C28.0263 35.3631 26.8879 35.837 25.5492 35.837C24.2111 35.837 23.0723 35.3632 22.1336 34.4147C21.3681 33.6572 20.9122 32.7689 20.7646 31.7509C20.7038 32.137 20.5959 32.5092 20.4397 32.8673C20.1837 33.4529 19.8376 33.9667 19.4009 34.4079C18.964 34.8494 18.4505 35.1979 17.8602 35.4534C17.2699 35.7095 16.6448 35.837 15.9848 35.837H12.9274V49.0704H49.0702V33.1405C48.8371 33.6017 48.5221 34.0269 48.1225 34.4148C47.1835 35.3632 46.0454 35.837 44.7068 35.837ZM18.2643 33.2702C18.5573 32.9725 18.7874 32.6289 18.9545 32.2383C19.1221 31.8477 19.2056 31.4345 19.2056 30.9973C19.2056 30.5607 19.1221 30.1468 18.9545 29.7566C18.7874 29.3661 18.555 29.0224 18.2577 28.7247C17.9599 28.4273 17.616 28.195 17.2257 28.0278C16.8354 27.8602 16.4215 27.7766 15.9847 27.7766H14.3674V34.2182H15.9847C16.4309 34.2182 16.8494 34.1346 17.2397 33.967C17.6299 33.7999 17.9716 33.5675 18.2643 33.2702ZM46.9794 33.2867C47.6114 32.6454 47.9276 31.8836 47.9276 31.0002C47.9276 30.1174 47.6114 29.3599 46.9794 28.7276C46.3474 28.0956 45.5901 27.7795 44.7072 27.7795C43.8241 27.7795 43.0616 28.0956 42.4203 28.7276C41.7976 29.3599 41.4866 30.1174 41.4866 31.0002C41.4866 31.8836 41.7976 32.6454 42.4203 33.2867C43.0616 33.9098 43.8241 34.2211 44.7072 34.2211C45.5902 34.2211 46.3474 33.9098 46.9794 33.2867ZM27.8222 33.2867C28.4542 32.6454 28.7702 31.8836 28.7702 31.0002C28.7702 30.1174 28.4542 29.3599 27.8222 28.7276C27.1899 28.0956 26.4324 27.7795 25.5492 27.7795C24.6662 27.7795 23.904 28.0956 23.2627 28.7276C22.64 29.3599 22.3287 30.1174 22.3287 31.0002C22.3287 31.8836 22.64 32.6454 23.2627 33.2867C23.904 33.9098 24.6662 34.2211 25.5492 34.2211C26.4324 34.2211 27.1899 33.9098 27.8222 33.2867Z" fill="#25333D"/></svg>