<svg width="62" height="62" viewBox="0 0 62 62" fill="none" xmlns="http://www.w3.org/2000/svg"><path d="M20.0164 47.654L33.7021 47.6614C44.9049 47.6676 52.9945 41.2627 53 31.3483C53.0056 21.4345 44.9216 15.0136 33.72 15.0074L20.0343 15V15.0722C20.1078 15 28.7048 22.9291 28.7048 22.9291L33.3274 22.9315C39.5668 22.9352 44.4437 25.3614 44.4407 31.3458C44.4376 37.3303 39.5575 39.7508 33.3181 39.7478L28.69 39.7453L20.0139 47.6577L20.0158 47.6546L20.0164 47.654Z" fill="#002536"/><path d="M20.0102 23.5869C22.2431 26.9329 25.2532 29.2547 28.9807 30.6184L31.0123 31.3221L28.9801 32.0234C25.2514 33.3816 22.4104 35.7015 20.0022 39.045C17.7693 35.699 14.7591 33.3772 11.0317 32.0135L9 31.3104L11.0323 30.6091C14.761 29.251 17.7742 26.931 20.0102 23.5869Z" fill="#002536"/></svg>