<svg width="62" height="62" viewBox="0 0 62 62" fill="none" xmlns="http://www.w3.org/2000/svg"><path d="M20.526 34.7963C20.526 39.0042 22.447 41.5655 25.9231 41.5655C29.3992 41.5655 28.21 41.2911 28.6674 41.1081V28.3015C28.21 28.1185 26.9293 27.8441 25.9231 27.8441C22.3555 27.8441 20.526 30.7713 20.526 34.7963ZM53 16.0437V45.9563C53 49.7983 49.8898 53 45.9563 53H16.0437C12.2017 53 9 49.8898 9 45.9563V16.0437C9 12.2017 12.1102 9 16.0437 9H45.9563C49.7983 9 53 12.1102 53 16.0437ZM32.6008 16.2266H28.6674V25.2827C28.027 25.0998 26.7464 24.8254 25.5572 24.8254C19.7027 24.8254 16.5925 28.9418 16.5925 34.7963C16.5925 40.6507 19.9771 44.6757 26.0146 44.6757C32.052 44.6757 31.3202 44.0353 32.6008 43.3035V16.2266ZM47.0541 24.7339C46.5052 24.6424 45.7734 24.5509 44.8586 24.5509C42.0229 24.5509 39.2786 25.0998 37.3576 25.9231V44.2183H41.2911V28.21C42.0229 27.8441 43.2121 27.7526 44.3098 27.7526C45.4075 27.7526 45.6819 27.7526 46.3222 27.9356L47.0541 24.6424V24.7339Z" fill="#4B4B4B"/></svg>