<svg xmlns="http://www.w3.org/2000/svg" width="62" height="62" fill="none" xmlns:v="https://vecta.io/nano"><path d="M37.629 18.275c-3.092-3.012-6.025-5.945-6.897-9.275-.872 3.329-3.805 6.263-6.897 9.275-4.598 4.598-9.83 9.83-9.83 17.678-.238 9.196 7.135 16.886 16.331 17.044s16.886-7.135 17.044-16.33v-.714c.079-7.848-5.153-13.08-9.751-17.678h0zM22.567 37.459c-.476.634-.951 1.348-1.269 2.061-.079.079-.159.238-.317.238h-.079c-.396 0-.793-.714-.793-.714-.079-.159-.238-.396-.317-.555l-.079-.158c-1.031-2.22-.159-5.311-.159-5.311.396-1.506 1.11-3.013 1.982-4.281.555-.793 1.189-1.585 1.823-2.378l.793.793 3.726 3.805c.159.159.159.396 0 .555l-3.885 4.36-1.427 1.585h0zm8.324 10.94c-3.171 0-5.787-2.616-5.708-5.787 0-1.427.555-2.774 1.427-3.805 1.189-1.427 2.696-2.854 4.36-4.756 1.902 2.061 3.171 3.409 4.36 4.995.079.079.159.238.238.396.634.951 1.03 2.061 1.03 3.251.079 3.171-2.537 5.708-5.708 5.708v-.001zm10.861-9.196c-.08.238-.317.396-.555.476l-.08.001c-.238-.079-.396-.238-.555-.396-1.03-1.506-2.14-2.933-3.409-4.202l-1.506-1.585-5.074-5.232c-1.03-.951-2.061-2.061-3.012-3.092 0-.079-.079-.079-.079-.079-.159-.238-.317-.476-.396-.793v-.159c-.159-.872.159-1.744.793-2.378l2.933-3.012c1.03 1.11 2.14 2.22 3.25 3.329 2.22 2.061 4.202 4.36 6.025 6.818 1.506 2.14 2.299 4.598 2.299 7.214-.159.951-.318 2.061-.635 3.091h0z" fill="#009cde"/></svg>