<svg width="62" height="62" viewBox="0 0 62 62" fill="none" xmlns="http://www.w3.org/2000/svg"><path fill-rule="evenodd" clip-rule="evenodd" d="M13.3286 18.3381C11.8877 19.1492 11 20.6481 11 22.2703V39.7297C11 41.3521 11.8877 42.851 13.3286 43.662L28.838 52.3916C30.279 53.2028 32.0544 53.2028 33.4953 52.3916L46.7302 44.9422L38.7889 38.852C38.407 39.1071 37.9977 39.3302 37.5652 39.5174C36.1043 40.1503 34.4428 40.3489 32.7909 40.0887C31.139 39.8285 29.5707 39.1204 28.2847 38.0549C26.9987 36.9892 26.0526 35.6135 25.5661 34.1015L23.0976 26.4637L31.1215 24.7206C32.7076 24.3755 34.4029 24.4865 35.9925 25.0394C37.5821 25.5923 38.995 26.5624 40.0522 27.827C41.1094 29.0915 41.7637 30.5937 41.932 32.1437C41.9818 32.6026 41.9885 33.0594 41.9527 33.5095L51.3334 37.1691V22.2703C51.3334 20.6481 50.4458 19.1492 49.0048 18.3381L33.4953 9.6083C32.0544 8.79723 30.279 8.79723 28.838 9.6083L13.3286 18.3381Z" fill="url(#paint0_linear_3328_80)"/><path fill-rule="evenodd" clip-rule="evenodd" d="M46.7304 44.9387L33.4955 52.3881C32.0546 53.1994 30.2792 53.1994 28.8382 52.3881L13.3288 43.6586C13.3049 43.6448 13.2815 43.6314 13.2578 43.6177C13.5453 43.7727 13.8459 43.8954 14.1648 43.9755C17.0297 44.6943 31.0981 47.6609 38.7931 38.8516L46.7304 44.9387Z" fill="url(#paint1_linear_3328_80)"/><path fill-rule="evenodd" clip-rule="evenodd" d="M51.3319 37.1714L41.9558 33.5129C45.9333 22.6112 36.264 12.2167 34.1932 10.1572C33.9627 9.92796 33.7031 9.73567 33.4219 9.57031C33.446 9.58337 33.4699 9.59712 33.4938 9.6106L49.0033 18.3404C50.4443 19.1514 51.3319 20.6504 51.3319 22.2726V37.1714Z" fill="url(#paint2_linear_3328_80)"/><defs><linearGradient id="paint0_linear_3328_80" x1="11" y1="19.6488" x2="40.3633" y2="37.0379" gradientUnits="userSpaceOnUse"><stop stop-color="#0091FF"/><stop offset="0.708141" stop-color="#0081F1"/><stop offset="1" stop-color="#006ADC"/></linearGradient><linearGradient id="paint1_linear_3328_80" x1="30.7291" y1="22.6522" x2="49.7052" y2="36.3066" gradientUnits="userSpaceOnUse"><stop stop-color="#5EB0EF"/><stop offset="1" stop-color="#0091FF"/></linearGradient><linearGradient id="paint2_linear_3328_80" x1="41.2727" y1="23.5835" x2="52.8268" y2="23.3585" gradientUnits="userSpaceOnUse"><stop stop-color="#5EB0EF"/><stop offset="1" stop-color="#0091FF"/></linearGradient></defs></svg>