<svg width="62" height="62" viewBox="0 0 62 62" fill="none" xmlns="http://www.w3.org/2000/svg"><rect width="62" height="62" rx="31" fill="white"/><path d="M9.00781 26.0591C9.03145 28.287 9.11309 31.804 9.36875 35.7421C9.80273 42.4301 10.6621 48.3749 10.6621 48.3749L21.7953 37.7788C21.7953 37.7788 21.3893 32.4786 22.0467 24.5594C22.0488 24.5616 9.71895 23.0878 9.00781 26.0591Z" fill="black"/><path d="M34.6588 52.8844C37.5441 52.068 36.6998 39.9572 36.6998 39.9572C28.7592 40.2215 23.4848 39.5576 23.4848 39.5576L12.3516 50.1537C12.3516 50.1537 18.249 51.3053 24.907 52.068C28.6668 52.4998 33.7607 52.8522 34.474 52.9016C34.5342 52.9059 34.6266 52.893 34.6588 52.8844Z" fill="black"/><path d="M9.00254 25.3737C9.00469 25.5864 9.00684 25.8141 9.00899 26.0591C9.14004 25.5155 9.34414 25.1374 9.79531 24.5659C10.7127 23.4036 12.1908 23.1007 12.7838 23.0212C15.798 22.6258 20.2496 22.1403 24.7441 22.0007C32.6848 21.7557 37.9355 22.4153 37.9355 22.4153L49.0688 11.8171C49.0688 11.8171 43.225 10.7042 36.5691 9.91999C32.2207 9.40866 28.3772 9.13796 26.2352 9.01335C26.0912 9.00475 24.5486 8.81569 23.1027 10.1907C21.5129 11.6967 13.5443 19.2614 10.341 22.3036C8.89297 23.6829 9.00039 25.2319 9.00254 25.3737Z" fill="black"/><path d="M35.24 52.9467C35.0295 52.9338 34.7996 52.9209 34.5547 52.9059C35.1047 52.8027 35.4914 52.618 36.0844 52.1969C37.2896 51.3375 37.6678 49.8766 37.773 49.2857C38.3166 46.2951 39.0213 41.8736 39.3822 37.3898C40.0182 29.4707 39.6186 24.192 39.6186 24.192L50.7518 13.5938C50.7518 13.5938 51.5768 19.4848 52.0301 26.1729C52.3244 30.5428 52.4061 34.3949 52.4254 36.5391C52.4254 36.683 52.5393 38.232 51.0934 39.6092C49.51 41.1238 41.5607 48.7078 38.366 51.7586C36.9266 53.1379 35.384 52.9553 35.24 52.9467Z" fill="black"/></svg>