<svg width="62" height="62" viewBox="0 0 62 62" fill="none" xmlns="http://www.w3.org/2000/svg"><path d="M29.6223 34.9815C29.9131 35.1476 30.1649 35.1901 30.4982 35.1901C30.7926 35.1901 31.1259 35.1088 31.3777 34.9815L50 24.2652V21.427C50 20.3844 49.4574 19.4265 48.5779 18.9246L31.9203 9.37465C31.5054 9.12724 31.0018 9 30.4982 9C29.9982 9 29.5371 9.12724 29.0761 9.37465L12.4221 18.9246C11.5426 19.4265 11 20.3844 11 21.427V40.5694C11 41.5732 11.5426 42.531 12.4221 43.0329L29.0761 52.6254C29.5371 52.8728 29.9982 53 30.4982 53C31.0018 53 31.5054 52.8728 31.9203 52.6254L48.5779 43.0329C49.4574 42.531 50 41.5732 50 40.5694V37.7348L31.3777 48.4547C31.1685 48.5784 30.8351 48.6633 30.4982 48.6633C30.2074 48.6633 29.9131 48.6209 29.6223 48.4547L20.7491 43.3228V38.8623L29.6223 43.9483C29.9131 44.1145 30.2074 44.1993 30.4982 44.1993C30.8351 44.1993 31.1259 44.1145 31.3777 43.9483L50 33.232V28.7256L31.3777 39.4879C31.1259 39.6116 30.7926 39.6964 30.4982 39.6964C30.1649 39.6964 29.9131 39.654 29.6223 39.4879L20.7491 34.3559V29.8531L29.6223 34.9815Z" fill="#164DFF"/></svg>