<svg xmlns="http://www.w3.org/2000/svg" width="62" height="62" fill="none" fill-rule="evenodd"><path d="M32.237 21.793h-3.105c-.209 0-.38-.172-.38-.383V9.383c0-.21.171-.383.38-.383h3.105c.209 0 .38.173.38.383v12.028c0 .21-.172.383-.38.383zm6.532 16.816l1.55-2.709c.104-.18.335-.248.521-.142l10.337 6.01a.39.39 0 0 1 .142.525l-1.55 2.709c-.104.18-.335.248-.521.143l-10.337-6.01c-.186-.113-.246-.345-.142-.525zM21.051 35.9l1.549 2.709c.104.18.045.42-.142.525l-10.337 6.01a.38.38 0 0 1-.521-.143l-1.549-2.709c-.105-.18-.045-.42.142-.525l10.337-6.01a.38.38 0 0 1 .521.143z" fill="#32bdb5"/><path d="M50.253 24.45l-3.21-5.597a.69.69 0 0 0-.946-.255l-15.417 8.967-15.417-8.966c-.327-.195-.752-.075-.945.255l-3.21 5.598c-.194.33-.075.758.253.953l15.417 8.967v17.933c0 .383.305.698.692.698h6.413c.38 0 .693-.308.693-.698V34.369l15.417-8.967c.335-.195.446-.623.261-.953z" fill="#4b4f54"/></svg>