<svg xmlns="http://www.w3.org/2000/svg" width="62" height="62" fill="none"><path d="M24.956 10.157c-1.985.773-3.71 1.862-5.173 3.266s-2.627 3.069-3.49 4.989S15 22.421 15 24.678c0 2.296.431 4.405 1.293 6.325s2.025 3.583 3.49 4.988 3.188 2.505 5.173 3.296 4.12 1.188 6.407 1.188 4.422-.396 6.407-1.188 3.72-1.891 5.204-3.296 2.656-3.068 3.519-4.988 1.294-4.029 1.294-6.325c0-2.257-.432-4.345-1.294-6.266s-2.035-3.583-3.519-4.989-3.219-2.493-5.204-3.266S33.65 9 31.363 9s-4.422.386-6.407 1.157zm2.346 24.528c-1.264-.535-2.367-1.278-3.309-2.228s-1.695-2.088-2.256-3.415-.842-2.781-.842-4.365c0-1.544.279-2.97.842-4.276s1.313-2.435 2.256-3.385 2.045-1.693 3.309-2.227 2.617-.802 4.061-.802 2.797.267 4.061.802a10.55 10.55 0 0 1 3.339 2.227 10.19 10.19 0 0 1 2.256 3.385c.54 1.306.811 2.732.811 4.276 0 1.584-.271 3.039-.811 4.365s-1.295 2.464-2.256 3.415a10.59 10.59 0 0 1-3.339 2.228c-1.264.534-2.618.801-4.061.801s-2.797-.267-4.061-.801z" fill="#222237"/><path d="M16.769 48.136v.784c0 2.602 7.04 4.082 15.44 4.082s15.441-1.48 15.441-4.082v-.784c0-1.24-.777-2.047-1.703-2.047-.083 0-.168.006-.254.02-1.034.162-6.303 1.504-13.484 1.504s-12.45-1.342-13.483-1.504c-.085-.013-.17-.02-.254-.02-.926 0-1.703.808-1.703 2.048z" fill="#69d59a"/></svg>