<svg width="62" height="62" viewBox="0 0 62 62" fill="none" xmlns="http://www.w3.org/2000/svg"><rect width="62" height="62" rx="31" fill="white"/><path d="M43.5975 36.7839C43.9338 36.7881 44.2629 36.8815 44.5514 37.0546C44.8399 37.2277 45.0775 37.4743 45.2399 37.7693C45.3982 38.0472 45.479 38.3626 45.4738 38.6825C45.4686 39.0023 45.3776 39.3149 45.2104 39.5875V39.617C42.8481 43.3627 39.129 46.0453 34.8343 47.1015C34.2661 47.2437 33.7624 47.5741 33.4053 48.0394C33.0482 48.5044 32.8587 49.0767 32.8672 49.6634C32.8646 50.3461 33.1324 51.0019 33.6118 51.4869C34.0913 51.972 34.7431 52.2466 35.4244 52.2504C35.625 52.25 35.8248 52.2254 36.0194 52.1764C40.8075 51.0197 45.0765 48.3019 48.156 44.4506C51.3016 40.5442 53.0117 35.6736 52.9999 30.6545C53.0121 25.6353 51.3016 20.7645 48.156 16.8583C45.0755 13.007 40.8072 10.2882 36.0194 9.12757C35.8242 9.08278 35.6246 9.05964 35.4244 9.05859C34.7431 9.0625 34.0913 9.33708 33.6118 9.82206C33.1324 10.307 32.8646 10.9628 32.8672 11.6454C32.8587 12.2321 33.0482 12.8046 33.4053 13.2697C33.7624 13.7348 34.2661 14.0653 34.8343 14.2075C39.1244 15.2621 42.8408 17.9388 45.2055 21.6771L45.2301 21.7264C45.3919 22.001 45.4773 22.3141 45.4773 22.633C45.4773 22.9519 45.3919 23.265 45.2301 23.5396C45.068 23.835 44.8305 24.0818 44.5419 24.255C44.2533 24.4281 43.9241 24.5214 43.5877 24.525C43.3123 24.5256 43.0402 24.465 42.791 24.3476C41.8684 23.9113 40.8606 23.6858 39.8404 23.6874C38.057 23.6895 36.3417 24.3742 35.0454 25.6015C33.7492 26.8288 32.97 28.5059 32.8672 30.2898V30.3293C32.8672 30.4327 32.8672 30.5214 32.8672 30.6101V30.7826C32.8672 30.8647 32.8672 30.9583 32.8672 31.0634V31.1028C32.9895 32.8748 33.7793 34.534 35.0768 35.7444C36.3743 36.9547 38.0824 37.6258 39.8552 37.6215C40.8753 37.6232 41.8832 37.3977 42.8057 36.9613C43.0546 36.8423 43.3267 36.7801 43.6024 36.779" fill="#12090D"/><path d="M26.5757 9C26.3751 9.00022 26.1753 9.02504 25.9807 9.0739C21.1916 10.2319 16.9214 12.9491 13.8391 16.7998C10.6951 20.7066 8.98671 25.5773 9.00008 30.5959C8.98631 35.6145 10.6948 40.4854 13.8391 44.392C16.9214 48.2428 21.1916 50.9599 25.9807 52.1178C26.1753 52.1667 26.3751 52.1913 26.5757 52.1917C27.2569 52.1879 27.9088 51.9133 28.3882 51.4283C28.8676 50.9432 29.1354 50.2874 29.1328 49.6051C29.1414 49.018 28.9518 48.4457 28.5947 47.9808C28.2376 47.5154 27.734 47.1851 27.1658 47.0428C22.8778 45.9955 19.1611 43.3256 16.7946 39.5929V39.5584C16.6259 39.2855 16.5341 38.9719 16.5289 38.651C16.5237 38.33 16.6053 38.0136 16.7651 37.7354C16.9275 37.4404 17.1651 37.1938 17.4536 37.0207C17.7421 36.8476 18.0712 36.7542 18.4075 36.7499C18.6831 36.7517 18.9551 36.8139 19.2042 36.9322C20.1267 37.3686 21.1346 37.5942 22.1547 37.5925C23.9382 37.5904 25.6534 36.9057 26.9497 35.6784C28.2459 34.4511 29.0251 32.774 29.1279 30.99V30.9506C29.1279 30.8472 29.1279 30.7585 29.1279 30.6698V30.4973C29.1279 30.4087 29.1279 30.3199 29.1279 30.2165V30.2313C29.0262 28.4469 28.2473 26.7691 26.9509 25.5416C25.6544 24.314 23.9385 23.6297 22.1547 23.6288C21.1346 23.6271 20.1267 23.8527 19.2042 24.2891C18.9551 24.4074 18.6831 24.4696 18.4075 24.4714C18.0712 24.4671 17.7421 24.3738 17.4536 24.2007C17.1651 24.0275 16.9275 23.7809 16.7651 23.4859C16.6023 23.2107 16.5164 22.8967 16.5164 22.5769C16.5164 22.257 16.6023 21.943 16.7651 21.6678V21.6432C19.1269 17.9012 22.8442 15.222 27.1363 14.1686C27.7045 14.0264 28.2081 13.6959 28.5652 13.2308C28.9223 12.7657 29.1119 12.1932 29.1033 11.6065C29.1059 10.9239 28.8382 10.2681 28.3588 9.78316C27.8794 9.29819 27.2274 9.02362 26.5462 9.01971" fill="#12090D"/></svg>