<svg xmlns="http://www.w3.org/2000/svg" width="62" height="62" fill="none"><path d="M12.249 28.716C10.261 28.716 9 30.344 9 32.192c0 2.075 1.467 3.454 3.476 3.454 1.041 0 2.097-.403 2.728-1.173l-.99-1.041c-.315.337-.924.77-1.694.77-.946 0-1.694-.653-1.782-1.577h4.583a3.15 3.15 0 0 0 .044-.499c0-1.855-1.291-3.41-3.117-3.41zm-1.423 2.618c.066-.609.675-1.151 1.423-1.151a1.3 1.3 0 0 1 1.305 1.151h-2.728zm9.093-2.64c-.748 0-1.379.271-1.87.675v-.521h-1.716v6.659h1.782v-4.312c.249-.337.836-.814 1.599-.814.403 0 .77.132.99.359.249.249.381.587.381 1.239v3.52h1.782v-3.388c0-1.151-.249-1.826-.675-2.347-.513-.645-1.349-1.071-2.273-1.071zm18.619.719c-.521-.455-1.173-.675-1.943-.675-1.826 0-3.271 1.511-3.271 3.476 0 .924.315 1.738.836 2.347.587.675 1.511 1.129 2.508 1.129.653 0 1.283-.205 1.848-.675v.521h1.716.022v-6.659h-1.716v.535zm-.117 3.791c-.337.477-.924.814-1.599.814-.99 0-1.76-.77-1.76-1.826 0-.946.653-1.826 1.716-1.826a1.98 1.98 0 0 1 1.65.814v2.024h-.007zm12.863-4.327v.543c-.521-.455-1.173-.675-1.943-.675-1.826 0-3.271 1.511-3.271 3.476 0 .924.315 1.738.836 2.347.587.675 1.511 1.129 2.508 1.129.653 0 1.283-.205 1.848-.675v.521h1.716H53v-6.659h-1.716v-.007zm-.088 4.327c-.337.477-.924.814-1.599.814-.99 0-1.76-.77-1.76-1.826 0-.946.653-1.826 1.716-1.826a1.98 1.98 0 0 1 1.65.814v2.024h-.007zm-18.011-4.422c-.183-.022-.337-.044-.609-.044-.792 0-1.533.315-1.921.814v-.675h-1.716v6.637h1.782v-4.195c.205-.381.814-.946 1.599-.946.271 0 .521.022.653.066l.205.044v-1.716l-.044.044.051-.029zM25.786 27h-1.782v6.791h1.782v-3.454h2.185v-1.489h-2.185V27zm0 6.791h1.716v1.716h-1.716v-1.716zm17.534-4.943V27h-1.782v6.813h1.76v-3.454h2.185V28.87H43.32v-.022zm0 4.943h1.716v1.716H43.32v-1.716z" fill="#e42127"/></svg>