<svg xmlns="http://www.w3.org/2000/svg" width="62" height="62" fill="none"><path d="M25.436 21.805h9.954a1.54 1.54 0 1 0 0-3.084h-9.954a1.54 1.54 0 0 0-1.542 1.542c-.023.841.678 1.542 1.542 1.542zM45.181 9H15.949A3.96 3.96 0 0 0 12 12.949v36.102A3.96 3.96 0 0 0 15.949 53h29.232a3.96 3.96 0 0 0 3.949-3.949V12.949A3.96 3.96 0 0 0 45.181 9zm.841 39.14a1.75 1.75 0 0 1-1.753 1.753H16.86a1.75 1.75 0 0 1-1.752-1.753V13.837a1.75 1.75 0 0 1 1.752-1.753H44.27a1.75 1.75 0 0 1 1.753 1.753V48.14zm-10.328-7.945h-8.716v-3.996h4.93a1.54 1.54 0 0 0 0-3.084h-4.93v-3.715h8.319a1.54 1.54 0 0 0 1.542-1.542c0-.841-.701-1.542-1.542-1.542h-9.884a1.54 1.54 0 0 0-1.542 1.542v13.927a1.54 1.54 0 0 0 1.542 1.542h10.258a1.54 1.54 0 0 0 1.542-1.542c.023-.888-.678-1.589-1.519-1.589z" fill="#fa4338"/></svg>