<svg width="62" height="62" viewBox="0 0 62 62" fill="none" xmlns="http://www.w3.org/2000/svg">
<g clip-path="url(#clip0_496_997)">
<mask id="mask0_496_997" style="mask-type:luminance" maskUnits="userSpaceOnUse" x="-5" y="0" width="72" height="62">
<path d="M-4.29114 0.0982115H66.0173V61.8828H-4.29114V0.0982115Z" fill="white"/>
</mask>
<g mask="url(#mask0_496_997)">
<path fill-rule="evenodd" clip-rule="evenodd" d="M46.4743 8.99997H15.4434C12.9282 8.99997 12 9.9282 12 12.4445V42.8081C12 43.0928 12.0115 43.3574 12.0367 43.6024C12.0939 44.1517 12.1047 44.6839 12.6155 45.2899C12.6654 45.3493 13.187 45.7374 13.187 45.7374C13.4675 45.8749 13.6591 45.9763 13.9754 46.1036L29.2555 52.5054C30.0487 52.8691 30.3804 53.0108 30.9566 52.9994V52.9994C30.9573 52.9994 30.9581 52.9994 30.9588 52.9994C30.9596 52.9994 30.9603 52.9994 30.9611 52.9994V52.9994C31.5372 53.0108 31.8689 52.8691 32.6622 52.5054L47.9422 46.1036C48.2587 45.9763 48.4502 45.8749 48.7308 45.7374C48.7308 45.7374 49.2523 45.3493 49.3021 45.2899C49.813 44.6839 49.8237 44.1517 49.881 43.6024C49.9062 43.3574 49.9177 43.0928 49.9177 42.8081V12.4445C49.9177 9.9282 48.9894 8.99997 46.4743 8.99997Z" fill="#2F2D2E"/>
<path d="M44.3959 39.5261L44.3889 39.5961L44.3819 39.6731L44.3679 39.7432L44.3469 39.8132L44.3333 39.8762L44.3122 39.9463L44.2843 40.0093L44.2562 40.0654L44.2287 40.1284L44.1937 40.1844L44.1587 40.2405L44.117 40.2965L44.0819 40.3525L44.0404 40.4015L43.9913 40.4505L43.9497 40.4926L43.8937 40.5416L43.8451 40.5837L43.7891 40.6257L43.7334 40.6602L43.6778 40.7022L43.6148 40.7372L43.5521 40.7653L43.4896 40.8003L43.4195 40.8283L43.3499 40.8564L43.2803 40.8773L43.2107 40.8984L43.1476 40.9193L43.078 40.9334L43.0154 40.9474L42.9528 40.9614L42.8827 40.9754L42.813 40.9824L42.7505 40.9894L42.6804 40.9964L42.6038 41.0035L42.5341 41.0104H42.4645H42.3879H42.3109H42.2413L42.1716 41.0035H42.095L42.0253 40.9964L41.9553 40.9894L41.8787 40.9824L41.8091 40.9684L41.7395 40.9614L41.6694 40.9474L41.5997 40.9334L41.5301 40.9193L41.4605 40.9054L41.3905 40.8844L41.3279 40.8704L41.2583 40.8493L41.1886 40.8283L41.1256 40.8003L41.056 40.7793L40.9934 40.7583L40.9237 40.7303L40.8607 40.7022L40.7981 40.6742L40.7354 40.6397L40.6725 40.6116L40.6098 40.5765L40.5542 40.5416L40.4911 40.5066L40.4355 40.4716L40.3795 40.4366L40.3239 40.3945L40.2683 40.3525L40.2122 40.3105L40.1565 40.2684L40.1076 40.2264L40.0519 40.1774L40.094 40.1214L40.1426 40.0724L40.1846 40.0163L40.2333 39.9603L40.2753 39.9113L40.3168 39.8553L40.3659 39.7992L40.4075 39.7502L40.4565 39.6942L40.4982 39.6451L40.5471 39.5891L40.5888 39.533L40.6308 39.484L40.6794 39.428L40.7214 39.3719L40.77 39.323L40.8121 39.2669L40.8677 39.309L40.9303 39.351L40.9863 39.393L41.049 39.4351L41.105 39.4701L41.1677 39.512L41.2232 39.5471L41.2863 39.575L41.3419 39.6101L41.4045 39.6382L41.4676 39.6661L41.5301 39.6942L41.5929 39.7152L41.6558 39.7432L41.7254 39.7642L41.7951 39.7852L41.8577 39.8062L41.9278 39.8203L41.9974 39.8342L42.067 39.8482L42.1436 39.8553L42.2136 39.8692H42.2833L42.3599 39.8762H42.4295H42.5131L42.5898 39.8692L42.6598 39.8553L42.7224 39.8412L42.7851 39.8272L42.8411 39.8062L42.8897 39.7782L42.9458 39.7362L42.9873 39.6871L43.0154 39.6311L43.0365 39.5681L43.0433 39.498V39.484L43.0365 39.4L43.0084 39.3299L42.9733 39.2809L42.9247 39.2389L42.8687 39.1969L42.813 39.1689L42.7505 39.1409L42.6804 39.1128L42.5968 39.0779L42.5481 39.0638L42.4926 39.0498L42.4295 39.0287L42.3669 39.0148L42.2973 38.9938L42.2272 38.9798L42.1506 38.9588L42.081 38.9448L42.0043 38.9238L41.9347 38.9098L41.8646 38.8888L41.7951 38.8747L41.7254 38.8537L41.6624 38.8327L41.5929 38.8187L41.5301 38.7977L41.4676 38.7767L41.4045 38.7556L41.3279 38.7276L41.2583 38.6995L41.1886 38.6716L41.1186 38.6435L41.056 38.6085L40.9863 38.5735L40.9303 38.5385L40.8677 38.5035L40.8121 38.4615L40.756 38.4265L40.7074 38.3844L40.6585 38.3354L40.6098 38.2864L40.5678 38.2373L40.5262 38.1883L40.4911 38.1393L40.4565 38.0833L40.4215 38.0203L40.3935 37.9717L40.3725 37.9156L40.3519 37.8526L40.3309 37.7966L40.3168 37.7265L40.3029 37.6634L40.2958 37.5934L40.2889 37.5234L40.2818 37.4464V37.3693V37.3553V37.2853L40.2889 37.2153L40.2958 37.1522L40.3029 37.0821L40.3168 37.0192L40.3309 36.9561L40.3519 36.893L40.3659 36.83L40.3935 36.767L40.4215 36.704L40.4495 36.641L40.4842 36.5779L40.5191 36.5149L40.5607 36.4588L40.6028 36.4028L40.6514 36.3468L40.7004 36.2978L40.7491 36.2417L40.8051 36.1927L40.8537 36.1577L40.9097 36.1156L40.9654 36.0736L41.0209 36.0386L41.084 36.0036L41.1466 35.9756L41.2092 35.9406L41.2723 35.9126L41.3419 35.8915L41.4115 35.8635L41.4745 35.8425L41.5301 35.8285L41.5929 35.8145L41.6558 35.8005L41.7254 35.7865L41.7881 35.7725L41.8577 35.7655L41.9278 35.7585L41.9974 35.7514L42.067 35.7445H42.1366H42.2136H42.2903H42.3669L42.4435 35.7514L42.5202 35.7585H42.5898L42.6668 35.7655L42.7364 35.7795L42.813 35.7865L42.8827 35.8005L42.9458 35.8145L43.0154 35.8285L43.085 35.8425L43.1476 35.8565L43.2176 35.8775L43.2803 35.8985L43.3429 35.9126L43.4129 35.9406L43.4756 35.9616L43.5381 35.9896L43.6008 36.0176L43.6708 36.0456L43.7334 36.0806L43.7891 36.1087L43.8521 36.1437L43.9148 36.1787L43.9704 36.2138L44.0333 36.2558L44.089 36.2907L44.1451 36.3328L44.2007 36.3748L44.2562 36.4168L44.2147 36.4729L44.1797 36.5289L44.138 36.5849L44.096 36.641L44.0544 36.704L44.0194 36.76L43.9773 36.8161L43.9357 36.8721L43.9008 36.9281L43.8591 36.9842L43.8171 37.0402L43.782 37.0962L43.7405 37.1592L43.6984 37.2153L43.6568 37.2713L43.6218 37.3273L43.5802 37.3833L43.5242 37.3413L43.4616 37.3063L43.4059 37.2713L43.3499 37.2292L43.2873 37.2013L43.2312 37.1662L43.1686 37.1382L43.113 37.1102L43.05 37.0821L42.9943 37.0542L42.9318 37.0332L42.8758 37.0051L42.799 36.9842L42.7294 36.9631L42.6598 36.9422L42.5898 36.9281L42.5202 36.9141L42.4505 36.9L42.3809 36.893L42.3109 36.8861L42.2483 36.879H42.1786H42.095L42.0184 36.893L41.9483 36.9071L41.8857 36.9211L41.8301 36.9491L41.7811 36.9771L41.7184 37.0332L41.6764 37.0962L41.6489 37.1592L41.6418 37.2292V37.2433L41.6489 37.3343L41.6834 37.4113L41.7115 37.4534L41.76 37.5024L41.8231 37.5374L41.8787 37.5724L41.9483 37.6005L42.0253 37.6285L42.109 37.6565L42.1646 37.6705L42.2203 37.6915L42.2833 37.7055L42.3459 37.7265L42.4155 37.7405L42.4926 37.7616L42.5692 37.7825L42.6459 37.8036L42.7224 37.8176L42.792 37.8386L42.8687 37.8596L42.9387 37.8736L43.0084 37.8946L43.078 37.9156L43.1406 37.9366L43.2107 37.9576L43.2733 37.9787L43.3359 37.9997L43.4129 38.0272L43.4825 38.0623L43.5521 38.0903L43.6218 38.1253L43.6849 38.1604L43.7475 38.1954L43.8031 38.2304L43.8591 38.2724L43.9148 38.3074L43.9704 38.3564L44.0264 38.4054L44.075 38.4615L44.124 38.5105L44.1656 38.5666L44.2076 38.6296L44.2422 38.6856L44.2773 38.7487L44.3053 38.8047L44.3263 38.8677L44.3469 38.9307L44.3609 38.9938L44.3749 39.0638L44.3889 39.1339L44.3959 39.2039L44.4029 39.2809V39.3579V39.3719V39.449L44.3959 39.5261ZM39.506 40.9265H39.436H39.3664H39.2968H39.2272H39.1571H39.0875H39.0179H38.9483H38.8712H38.8016H38.732H38.6624H38.5923H38.5227H38.453H38.3834H38.3134H38.2438H38.1742H38.1046H38.0349H37.9649H37.8953H37.8257H37.756H37.6859H37.6163H37.5467H37.4701H37.4001H37.3304H37.2608H37.1912H37.1212H37.0515H36.9819H36.9122H36.8422H36.7726H36.703H36.6333H36.5632H36.4937H36.424H36.3544H36.2844H36.2147H36.1381H36.0685H35.9989H35.9288H35.8592H35.7895H35.72H35.65H35.5803H35.5107V40.8564V40.7863V40.7163V40.6466V40.5765V40.5066V40.4366V40.3666V40.2965V40.2264V40.1564V40.0863V40.0163V39.9463V39.8762V39.8062V39.7362V39.6661V39.6031V39.533V39.463V39.393V39.323V39.2529V39.1829V39.1128V39.0427V38.9727V38.9027V38.8327V38.7627V38.6926V38.6226V38.5525V38.4825V38.4125V38.3424V38.2724V38.2024V38.1323V38.0623V37.9926V37.9226V37.8526V37.7825V37.7125V37.6425V37.5724V37.5024V37.4324V37.3623V37.2923V37.2222V37.1522V37.0892V37.0192V36.9491V36.879V36.809V36.739V36.669V36.5989V36.5289V36.4588V36.3888V36.3188V36.2487V36.1787V36.1087V36.0386V35.9686V35.8985V35.8285H35.5803H35.65H35.72H35.7895H35.8592H35.9288H35.9989H36.0685H36.1381H36.2078H36.2778H36.3475H36.417H36.4867H36.5496H36.6193H36.6889H36.7586H36.8286H36.8982H36.9678H37.0375H37.1075H37.1771H37.2467H37.3164H37.3865H37.4561H37.5257H37.5953H37.6654H37.735H37.8046H37.8742H37.9439H38.0139H38.0835H38.1531H38.2227H38.2928H38.3624H38.432H38.5016H38.5648H38.6344H38.704H38.7737H38.8437H38.9133H38.9829H39.0525H39.1225H39.1921H39.2618H39.3314H39.4014H39.4711H39.5407V35.8985V35.9616V36.0316V36.1017V36.1716V36.2347V36.3048V36.3748V36.4378V36.5079V36.5779V36.641V36.711V36.781V36.8511V36.9141V36.9842H39.4711H39.4014H39.3314H39.2618H39.1921H39.1225H39.0595H38.9899H38.9203H38.8506H38.7806H38.711H38.6413H38.5717H38.5016H38.432H38.3624H38.2928H38.2227H38.1602H38.0905H38.0209H37.9508H37.8813H37.8116H37.742H37.6719H37.6023H37.5327H37.4631H37.393H37.3233H37.2608H37.1912H37.1212H37.0515H36.9819H36.9122H36.8422V37.0542V37.1242V37.1942V37.2642V37.3343V37.3974V37.4674V37.5374V37.6074V37.6775V37.7475V37.8176H36.9122H36.9819H37.0515H37.1212H37.1912H37.2608H37.3304H37.4001H37.4631H37.5327H37.6023H37.6719H37.742H37.8116H37.8813H37.9508H38.0209H38.0905H38.1602H38.2298H38.2998H38.3694H38.4391H38.5087H38.5787H38.6483H38.711H38.7806H38.8506H38.9203H38.9899H39.0595H39.1295H39.1992H39.2688V37.8876V37.9506V38.0203V38.0903V38.1533V38.2233V38.2934V38.3564V38.4265V38.4965V38.5666V38.6296V38.6995V38.7696V38.8327V38.9027H39.1992H39.1295H39.0595H38.9899H38.9203H38.8506H38.7806H38.711H38.6483H38.5787H38.5087H38.4391H38.3694H38.2998H38.2298H38.1602H38.0905H38.0209H37.9508H37.8813H37.8116H37.742H37.6719H37.6023H37.5327H37.4631H37.4001H37.3304H37.2608H37.1912H37.1212H37.0515H36.9819H36.9122H36.8422V38.9727V39.0498V39.1198V39.1899V39.2669V39.337V39.407V39.484V39.554V39.6241V39.7011V39.7711H36.9122H36.9819H37.0515H37.1212H37.1912H37.2608H37.3304H37.4001H37.4701H37.5467H37.6163H37.6859H37.756H37.8257H37.8953H37.9649H38.0349H38.1046H38.1742H38.2438H38.3134H38.3834H38.453H38.5227H38.5923H38.6624H38.732H38.8016H38.8712H38.9483H39.0179H39.0875H39.1571H39.2272H39.2968H39.3664H39.436H39.506H39.5757V39.8412V39.9042V39.9743V40.0443V40.1144V40.1774V40.2474V40.3174V40.3805V40.4505V40.5205V40.5837V40.6533V40.7233V40.7933V40.8564V40.9265H39.506ZM34.4115 40.9265H34.3419H34.2722H34.1952H34.1256H34.056H33.9864H33.9163H33.8467H33.77H33.7004H33.6308H33.5608H33.4911H33.4215H33.3449H33.2748H33.2052H33.1355V40.8564V40.7863V40.7163V40.6462V40.5758V40.5058V40.4357V40.3656V40.2956V40.2256V40.1556V40.0852V40.0151V39.945V39.875V39.805V39.7345V39.6644V39.5944V39.5244V39.4543V39.3844V39.3139V39.2439V39.1738V39.1037V39.0337V38.9637V38.8932V38.8231V38.7531V38.6831V38.6131V38.5431V38.4726V38.4026V38.3325V38.2625V38.1925V38.122V38.052V37.9819V37.9119L33.1006 37.9679L33.059 38.0314L33.0239 38.0874L32.9824 38.1435L32.9474 38.2065L32.9052 38.2625L32.8707 38.3186L32.8356 38.382L32.7941 38.438L32.759 38.494L32.7171 38.5501L32.6824 38.6135L32.6404 38.6696L32.6058 38.7256L32.5707 38.7886L32.5287 38.845L32.4941 38.9011L32.4521 38.9641L32.4175 39.0202L32.3755 39.0762L32.3409 39.1396L32.3058 39.1957L32.2639 39.2517L32.2293 39.3147L32.1872 39.3712L32.1526 39.4272L32.1106 39.4833L32.0755 39.5462L32.0409 39.6026L31.999 39.6587L31.9644 39.7218L31.9223 39.7778L31.8873 39.8338L31.8457 39.8973L31.8107 39.9533H31.783L31.7411 39.8903L31.706 39.8338L31.6644 39.7707L31.6294 39.7147L31.5877 39.6518L31.5527 39.5953L31.5112 39.5322L31.4761 39.4761L31.4341 39.4132L31.3995 39.3572L31.3574 39.2937L31.3229 39.2376L31.2809 39.1746L31.2458 39.1186L31.2043 39.0552L31.1692 38.9991L31.1276 38.9361L31.0856 38.8801L31.0506 38.8167L31.0089 38.7606L30.974 38.6976L30.9323 38.6416L30.8973 38.5781L30.8557 38.5221L30.8207 38.459L30.7787 38.403L30.744 38.34L30.702 38.2835L30.6674 38.2205L30.6254 38.1644L30.5904 38.1014L30.5488 38.0454L30.5137 37.9819L30.4721 37.9259V37.9959V38.066V38.1361V38.2065V38.2765V38.3465V38.4166V38.4867V38.5571V38.6271V38.6902V38.7602V38.8302V38.9002V38.9707V39.0408V39.1108V39.1808V39.2508V39.3209V39.3913V39.4614V39.5315V39.6014V39.6715V39.7415V39.812V39.882V39.9521V40.0221V40.0921V40.1625V40.2256V40.2956V40.3656V40.4357V40.5058V40.5758V40.6462V40.7163V40.7863V40.8564V40.9265H30.4025H30.3325H30.2628H30.1932H30.1236H30.0536H29.9839H29.9143H29.8446H29.7746H29.705H29.6354H29.5658H29.4958H29.4262H29.3565H29.2868H29.2168H29.1472V40.8564V40.7863V40.7163V40.6466V40.5765V40.5066V40.4366V40.3666V40.2965V40.2264V40.1564V40.0863V40.0163V39.9463V39.8762V39.8062V39.7362V39.6661V39.6031V39.533V39.463V39.393V39.323V39.2529V39.1829V39.1128V39.0427V38.9727V38.9027V38.8327V38.7627V38.6926V38.6226V38.5525V38.4825V38.4125V38.3424V38.2724V38.2024V38.1323V38.0623V37.9926V37.9226V37.8526V37.7825V37.7125V37.6425V37.5724V37.5024V37.4324V37.3623V37.2923V37.2222V37.1522V37.0892V37.0192V36.9491V36.879V36.809V36.739V36.669V36.5989V36.5289V36.4588V36.3888V36.3188V36.2487V36.1787V36.1087V36.0386V35.9686V35.8985V35.8285H29.2168H29.2868H29.3495H29.419H29.4887H29.5587H29.6214H29.691H29.7611H29.8307H29.8933H29.9629H30.033H30.1026H30.1652H30.2348H30.3048H30.3745H30.4371H30.5067H30.5768L30.6114 35.8846L30.6464 35.9475L30.688 36.0031L30.723 36.0662L30.758 36.1222L30.7926 36.1853L30.8276 36.2409L30.8693 36.304L30.9043 36.36L30.9393 36.416L30.974 36.4786L31.0089 36.5347L31.0506 36.5976L31.0856 36.6537L31.1206 36.7163L31.1552 36.7723L31.1972 36.8283L31.2323 36.8911L31.2668 36.947L31.3018 37.01L31.3365 37.0661L31.3785 37.1287L31.4135 37.1848L31.4481 37.2478L31.4831 37.3034L31.5177 37.3594L31.5598 37.4224L31.5948 37.4785L31.6294 37.5416L31.6644 37.5972L31.699 37.6602L31.7411 37.7162L31.7761 37.7788L31.8107 37.8349L31.8457 37.7788L31.8807 37.7162L31.9223 37.6602L31.9573 37.5972L31.9919 37.5416L32.0269 37.4785L32.0686 37.4224L32.1036 37.3594L32.1387 37.3034L32.1732 37.2478L32.2152 37.1848L32.2498 37.1287L32.2849 37.0661L32.3198 37.01L32.3614 36.947L32.3964 36.8911L32.4315 36.8283L32.4661 36.7723L32.5012 36.7163L32.5428 36.6537L32.5778 36.5976L32.6128 36.5347L32.6474 36.4786L32.6894 36.416L32.7241 36.36L32.759 36.304L32.7941 36.2409L32.8356 36.1853L32.8707 36.1222L32.9052 36.0662L32.9403 36.0031L32.9824 35.9475L33.017 35.8846L33.052 35.8285H33.1216H33.1912H33.2542H33.3239H33.3935H33.4631H33.5261H33.5958H33.6654H33.735H33.7981H33.8677H33.9373H34.007H34.0699H34.1396H34.2092H34.2788H34.3419H34.4115H34.4811V35.8985V35.9686V36.0386V36.1087V36.1787V36.2487V36.3188V36.3888V36.4588V36.5289V36.5989V36.669V36.739V36.809V36.879V36.9491V37.0192V37.0892V37.1522V37.2222V37.2923V37.3623V37.4324V37.5024V37.5724V37.6425V37.7125V37.7825V37.8526V37.9226V37.9926V38.0623V38.1323V38.2024V38.2724V38.3424V38.4125V38.4825V38.5525V38.6226V38.6926V38.7627V38.8327V38.9027V38.9727V39.0427V39.1128V39.1829V39.2529V39.323V39.393V39.463V39.533V39.6031V39.6661V39.7362V39.8062V39.8762V39.9463V40.0163V40.0863V40.1564V40.2264V40.2965V40.3666V40.4366V40.5066V40.5765V40.6466V40.7163V40.7863V40.8564V40.9265H34.4115ZM26.3214 38.8257L26.3004 38.7623L26.2728 38.6922L26.2448 38.6292L26.2238 38.5657L26.1962 38.5027L26.1682 38.4326L26.1471 38.3692L26.1191 38.3061L26.0916 38.2432L26.0705 38.1797L26.0424 38.1097L26.0219 38.0466L25.9939 37.9832L25.9658 37.9201L25.9449 37.8571L25.9172 37.7867L25.8892 37.7236L25.8682 37.6606L25.8402 37.5972L25.8126 37.5271L25.7916 37.4637L25.7636 37.4006L25.736 37.4637L25.715 37.5271L25.687 37.5972L25.6589 37.6606L25.6383 37.7236L25.6104 37.7867L25.5823 37.8571L25.5547 37.9201L25.5336 37.9832L25.5057 38.0466L25.4776 38.1097L25.457 38.1797L25.429 38.2432L25.401 38.3061L25.3801 38.3692L25.3524 38.4326L25.3244 38.5027L25.2964 38.5657L25.2758 38.6292L25.2478 38.6922L25.2198 38.7623L25.1987 38.8257L25.1712 38.8888H25.2408H25.3104H25.3801H25.4501H25.5197H25.5893H25.6589H25.729H25.7916H25.8612H25.9313H26.0009H26.0705H26.1402H26.2098H26.2798H26.3494L26.3214 38.8257ZM28.5111 40.9265H28.4411H28.3784H28.3089H28.2388H28.1692H28.0995H28.0369H27.9669H27.8973H27.8277H27.758H27.688H27.6253H27.5557H27.486H27.416H27.3464H27.2838H27.2142H27.1442L27.1165 40.8633L27.0955 40.8003L27.0675 40.7372L27.0395 40.6672L27.0189 40.6046L26.9909 40.5416L26.9629 40.4786L26.9422 40.4155L26.9143 40.3525L26.8862 40.2895L26.8653 40.2264L26.8376 40.1564L26.8096 40.0934L26.7886 40.0303L26.7605 39.9673H26.6909H26.6213H26.5517H26.4821H26.4191H26.3494H26.2798H26.2098H26.1402H26.0705H26.0009H25.9313H25.8612H25.7916H25.729H25.6589H25.5893H25.5197H25.4501H25.3801H25.3104H25.2408H25.1712H25.1016H25.0384H24.9689H24.8992H24.8292H24.7595L24.732 40.0303L24.711 40.0934L24.6829 40.1564L24.6549 40.2264L24.6343 40.2895L24.6064 40.3525L24.5783 40.4155L24.5573 40.4786L24.5297 40.5416L24.5017 40.6046L24.4807 40.6672L24.453 40.7372L24.425 40.8003L24.404 40.8633L24.376 40.9265H24.3064H24.2368H24.1672H24.0971H24.0275H23.9508H23.8812H23.8116H23.7416H23.672H23.6023H23.5327H23.4626H23.3931H23.3235H23.2468H23.1767H23.1071H23.0375H22.9679L22.9954 40.8633L23.0235 40.8003L23.0514 40.7372L23.0791 40.6672L23.1001 40.6046L23.1282 40.5416L23.1561 40.4786L23.1837 40.4155L23.2117 40.3525L23.2398 40.2824L23.2674 40.2194L23.2954 40.1564L23.3163 40.0934L23.3444 40.0303L23.372 39.9673L23.4 39.8973L23.428 39.8342L23.4556 39.7711L23.4837 39.7082L23.5117 39.6451L23.5327 39.5821L23.5602 39.512L23.5883 39.449L23.6163 39.386L23.6439 39.323L23.672 39.2599L23.7 39.1969L23.7276 39.1268L23.7486 39.0638L23.7766 39.0008L23.8046 38.9377L23.8323 38.8747L23.8602 38.8117L23.8882 38.7417L23.9158 38.6786L23.9438 38.6156L23.9648 38.5525L23.9929 38.4896L24.0204 38.4265L24.0485 38.3564L24.0765 38.2934L24.1041 38.2304L24.1321 38.1673L24.1601 38.1043L24.1811 38.0412L24.2088 37.9787L24.2368 37.9086L24.2647 37.8456L24.2924 37.7825L24.3204 37.7195L24.3484 37.6565L24.376 37.5934L24.397 37.5234L24.425 37.4604L24.453 37.3974L24.4807 37.3343L24.5087 37.2713L24.5367 37.2082L24.5643 37.1382L24.5923 37.0752L24.6133 37.0121L24.6413 36.9491L24.6689 36.8861L24.6969 36.823L24.7249 36.753L24.7525 36.69L24.7806 36.6269L24.8086 36.5639L24.8292 36.5009L24.8572 36.4378L24.8852 36.3678L24.9133 36.3048L24.9409 36.2417L24.9689 36.1787L24.9969 36.1156L25.0245 36.0527L25.0455 35.9826L25.0735 35.9196L25.1016 35.8565L25.1291 35.7935H25.1987H25.2618H25.3314H25.401H25.4711H25.5336H25.6032H25.6729H25.743H25.8057H25.8752H25.9449H26.0149H26.0775H26.1471H26.2167H26.2868H26.3494H26.4191L26.447 35.8565L26.4751 35.9196L26.5027 35.9826L26.5307 36.0527L26.5517 36.1156L26.5793 36.1787L26.6073 36.2417L26.6353 36.3048L26.6633 36.3678L26.6909 36.4378L26.719 36.5009L26.747 36.5639L26.7676 36.6269L26.7956 36.69L26.8236 36.753L26.8517 36.823L26.8793 36.8861L26.9072 36.9491L26.9353 37.0121L26.9629 37.0752L26.9839 37.1382L27.0118 37.2082L27.0395 37.2713L27.0675 37.3343L27.0955 37.3974L27.1236 37.4604L27.1511 37.5234L27.1791 37.5934L27.2002 37.6565L27.2278 37.7195L27.2557 37.7825L27.2838 37.8456L27.3118 37.9086L27.3394 37.9787L27.3674 38.0412L27.3954 38.1043L27.416 38.1673L27.444 38.2304L27.472 38.2934L27.4997 38.3564L27.5277 38.4265L27.5557 38.4896L27.5838 38.5525L27.6113 38.6156L27.6323 38.6786L27.6603 38.7417L27.688 38.8117L27.7159 38.8747L27.744 38.9377L27.772 39.0008L27.7996 39.0638L27.8277 39.1268L27.8486 39.1969L27.8762 39.2599L27.9042 39.323L27.9323 39.386L27.9598 39.449L27.9879 39.512L28.0159 39.5821L28.044 39.6451L28.0645 39.7082L28.0926 39.7711L28.1206 39.8342L28.1482 39.8973L28.1761 39.9673L28.2042 40.0303L28.2322 40.0934L28.2597 40.1564L28.2808 40.2194L28.3089 40.2824L28.3364 40.3525L28.3644 40.4155L28.3924 40.4786L28.42 40.5416L28.448 40.6046L28.4761 40.6672L28.4971 40.7372L28.5246 40.8003L28.5527 40.8633L28.5807 40.9265H28.5111ZM22.4027 40.2754L22.3466 40.3174L22.298 40.3525L22.242 40.3945L22.1863 40.4295L22.1307 40.4716L22.0747 40.5066L22.0191 40.5416L21.956 40.5765L21.8934 40.6116L21.8307 40.6466L21.7678 40.6742L21.7051 40.7093L21.6355 40.7372L21.5729 40.7653L21.5029 40.7933L21.4403 40.8213L21.3776 40.8423L21.3146 40.8633L21.2519 40.8844L21.1823 40.9054L21.1198 40.9265L21.0497 40.9404L20.987 40.9544L20.9174 40.9684L20.8474 40.9824L20.7777 40.9894L20.7011 40.9964L20.6315 41.0035L20.5549 41.0104L20.4848 41.0175L20.4082 41.0244H20.3316H20.2549H20.1783H20.1083L20.0387 41.0175L19.962 41.0104L19.8924 41.0035L19.8228 40.9964L19.7527 40.9894L19.6831 40.9754L19.6134 40.9614L19.5509 40.9474L19.4809 40.9334L19.4182 40.9124L19.3486 40.8984L19.2856 40.8773L19.2229 40.8493L19.1603 40.8283L19.0907 40.8003L19.0277 40.7723L18.965 40.7444L18.9025 40.7163L18.8393 40.6813L18.7838 40.6466L18.7211 40.6116L18.6651 40.5765L18.6095 40.5416L18.5535 40.4995L18.4979 40.4576L18.4422 40.4155L18.3932 40.3735L18.3446 40.3315L18.2955 40.2824L18.247 40.2405L18.1979 40.1914L18.1493 40.1424L18.1073 40.0934L18.0656 40.0374L18.0236 39.9883L17.9886 39.9323L17.947 39.8762L17.9121 39.8203L17.8774 39.7642L17.8424 39.7011L17.8074 39.6451L17.7798 39.5821L17.7518 39.519L17.7238 39.456L17.6961 39.393L17.6751 39.337L17.6471 39.2739L17.6331 39.2108L17.6125 39.1479L17.5985 39.0779L17.5775 39.0148L17.5635 38.9448L17.5565 38.8817L17.5424 38.8117L17.5355 38.7487L17.5284 38.6786L17.5218 38.6085L17.5149 38.5385V38.4615V38.3914V38.3775V38.3074L17.5218 38.2304V38.1604L17.5284 38.0903L17.5355 38.0133L17.5495 37.9437L17.5565 37.8736L17.5704 37.8105L17.5914 37.7405L17.6055 37.6705L17.6261 37.6074L17.6471 37.5374L17.6681 37.4744L17.6961 37.4043L17.7238 37.3413L17.7518 37.2783L17.7798 37.2153L17.8074 37.1522L17.8424 37.0892L17.8774 37.0332L17.9121 36.9771L17.947 36.9211L17.9821 36.865L18.0236 36.809L18.0656 36.753L18.1073 36.697L18.1493 36.6479L18.1979 36.5989L18.2399 36.5498L18.2886 36.5009L18.3376 36.4518L18.3862 36.4098L18.4422 36.3608L18.4908 36.3188L18.5465 36.2767L18.6025 36.2417L18.6581 36.1997L18.7142 36.1647L18.7697 36.1297L18.8324 36.0946L18.8954 36.0596L18.958 36.0246L19.0207 35.9966L19.0836 35.9686L19.1533 35.9335L19.2089 35.9126L19.2785 35.8915L19.3417 35.8635L19.4042 35.8495L19.4668 35.8285L19.5368 35.8145L19.5995 35.7935L19.6691 35.7795L19.7387 35.7725L19.8087 35.7585L19.8784 35.7514L19.948 35.7445L20.0176 35.7375L20.0877 35.7304H20.1643H20.234H20.3105H20.3871L20.4643 35.7375L20.5409 35.7445H20.6105L20.6801 35.7514L20.7567 35.7655L20.8198 35.7725L20.8894 35.7865L20.9591 35.8005L21.022 35.8145L21.0846 35.8285L21.1473 35.8425L21.2104 35.8635L21.273 35.8775L21.3286 35.8985L21.3916 35.9196L21.4543 35.9475L21.5168 35.9756L21.5799 36.0036L21.6425 36.0386L21.7051 36.0667L21.7612 36.1017L21.8238 36.1367L21.8794 36.1716L21.9424 36.2067L21.9981 36.2487L22.0537 36.2838L22.1097 36.3258L22.1653 36.3678L22.2213 36.4168L22.277 36.4588L22.2349 36.5149L22.1863 36.5639L22.1443 36.6199L22.0957 36.6759L22.0537 36.732L22.0121 36.781L21.963 36.837L21.9214 36.893L21.8794 36.9422L21.8307 36.9982L21.7888 37.0542L21.7401 37.1102L21.6981 37.1592L21.6565 37.2153L21.6075 37.2713L21.5658 37.3273L21.5168 37.3763L21.4752 37.4324L21.4192 37.3903L21.3636 37.3413L21.3076 37.3063L21.2519 37.2642L21.1963 37.2292L21.1403 37.1942L21.0846 37.1592L21.022 37.1242L20.966 37.0962L20.9104 37.0682L20.8544 37.0471L20.7917 37.0261L20.7292 37.0051L20.6661 36.9911L20.5965 36.9771L20.5269 36.9631L20.4572 36.9561L20.3806 36.9491L20.3036 36.9422H20.2269H20.1573L20.0877 36.9491L20.0247 36.9561L19.9551 36.9701L19.8924 36.9842L19.8294 37.0051L19.7668 37.0261L19.7041 37.0542L19.6415 37.0821L19.5855 37.1171L19.5299 37.1522L19.4738 37.1873L19.4252 37.2292L19.3762 37.2713L19.3276 37.3133L19.2856 37.3623L19.237 37.4113L19.1949 37.4674L19.1603 37.5164L19.1253 37.5724L19.0907 37.6355L19.0557 37.6915L19.0277 37.7545L19.0067 37.8176L18.979 37.8806L18.958 37.9506L18.944 38.0203L18.93 38.0833L18.916 38.1604L18.909 38.2304L18.9025 38.3004V38.3775V38.3914V38.4615L18.909 38.5315L18.916 38.5946L18.923 38.6646L18.937 38.7276L18.9511 38.7907L18.965 38.8537L18.9861 38.9167L19.0067 38.9727L19.0347 39.0427L19.0627 39.1059L19.0973 39.1689L19.1323 39.2249L19.1673 39.2809L19.2089 39.337L19.251 39.386L19.2996 39.4351L19.3417 39.484L19.3902 39.5261L19.4463 39.5681L19.5019 39.6101L19.5574 39.6451L19.6134 39.6801L19.6762 39.7082L19.7387 39.7362L19.8017 39.7642L19.8714 39.7852L19.941 39.8062L20.0111 39.8203L20.0807 39.8342L20.1503 39.8412L20.2269 39.8482H20.3036H20.3871L20.4643 39.8412L20.5409 39.8342L20.6105 39.8272L20.6801 39.8132L20.7502 39.7992L20.8198 39.7782L20.8824 39.7642L20.9451 39.7362L21.0011 39.7082L21.0637 39.6801L21.1127 39.6522L21.1684 39.6171V39.5471V39.4771V39.407V39.337V39.2599V39.1899V39.1198V39.0498V38.9798H21.0987H21.0357H20.966H20.8964H20.8268H20.7638H20.6941H20.6245H20.5549H20.4919H20.4222H20.3526H20.2829H20.22H20.1503V38.9098V38.8467V38.7767V38.7067V38.6366V38.5735V38.5035V38.4335V38.3635V38.3004V38.2304V38.1604V38.0903V38.0272V37.9576H20.22H20.29H20.3596H20.4292H20.4989H20.5685H20.6385H20.7081H20.7777H20.8474H20.9174H20.987H21.0566H21.1262H21.1963H21.266H21.3356H21.4052H21.4752H21.5449H21.6145H21.6841H21.7541H21.8238H21.8934H21.963H22.0331H22.1027H22.1724H22.242H22.312H22.3816H22.4512V38.0272V38.0972V38.1673V38.2304V38.3004V38.3704V38.4404V38.5105V38.5806V38.6435V38.7136V38.7837V38.8537V38.9238V38.9938V39.0638V39.1268V39.1969V39.2669V39.337V39.407V39.4771V39.5471V39.6101V39.6801V39.7502V39.8203V39.8903V39.9603V40.0234V40.0934V40.1634V40.2334L22.4027 40.2754Z" fill="white"/>
<path d="M20.1601 24.2947H23.1821V21.9572H20.1601V17.1851H23.3024V14.8476H17.594V31.7178H23.3502V29.3802H20.1601V24.2947Z" fill="white"/>
<path d="M41.8054 24.801V28.6089C41.8054 29.2838 41.4935 29.5969 40.8462 29.5969H40.3663C39.6948 29.5969 39.3829 29.2838 39.3829 28.6089V17.9562C39.3829 17.2814 39.6948 16.9683 40.3663 16.9683H40.798C41.4456 16.9683 41.7576 17.2814 41.7576 17.9562V21.2583H44.2756V17.8116C44.2756 15.7151 43.2683 14.7028 41.1821 14.7028H39.9346C37.8483 14.7028 36.8166 15.739 36.8166 17.8359V28.7292C36.8166 30.8262 37.8483 31.8623 39.9346 31.8623H41.2059C43.2926 31.8623 44.3238 30.8262 44.3238 28.7292V24.801H41.8054Z" fill="white"/>
<path d="M32.8938 31.7178H35.4604V14.8475H32.8938V31.7178Z" fill="white"/>
<path d="M29.1699 22.3427C29.1699 23.0176 28.8584 23.3311 28.2108 23.3311H27.1553V17.113H28.2108C28.8584 17.113 29.1699 17.4262 29.1699 18.1009V22.3427ZM28.6183 14.8475H24.5891V31.7178H27.1553V25.5961H28.6183C30.7049 25.5961 31.7361 24.56 31.7361 22.4635V17.9806C31.7361 15.8837 30.7049 14.8475 28.6183 14.8475Z" fill="white"/>
<path fill-rule="evenodd" clip-rule="evenodd" d="M23.6481 46.9715H38.3389L30.8405 49.4443L23.6481 46.9715Z" fill="white"/>
</g>
</g>
<defs>
<clipPath id="clip0_496_997">
<rect width="37.9177" height="44" fill="white" transform="translate(12 9)"/>
</clipPath>
</defs>
</svg>
