<svg xmlns="http://www.w3.org/2000/svg" width="62" height="62" fill="none"><rect width="62" height="62" rx="31" fill="#fff"/><g clip-path="url(#B)"><mask id="A" maskUnits="userSpaceOnUse" x="-5" y="0" width="72" height="62"><path d="M-4.291.098h70.308v61.785H-4.291V.098z" fill="#fff"/></mask><g mask="url(#A)"><path fill-rule="evenodd" d="M46.474 9H15.443C12.928 9 12 9.928 12 12.445v30.364l.037.794c.057.549.068 1.081.579 1.688a10.91 10.91 0 0 0 .571.447l.788.366 15.28 6.402c.793.364 1.125.505 1.701.494h0 .004c.576.011.908-.13 1.701-.494l15.28-6.402c.316-.127.508-.229.789-.366l.571-.447c.511-.606.522-1.138.579-1.687a7.8 7.8 0 0 0 .037-.794V12.445c0-2.516-.928-3.445-3.443-3.445z" fill="#2f2d2e"/><path d="M44.396 39.527l-.007.07-.007.077-.014.07-.021.07-.014.063-.021.07-.028.063-.028.056-.027.063-.035.056-.035.056-.042.056-.035.056-.041.049-.049.049-.042.042-.056.049-.049.042-.056.042-.056.035-.056.042-.063.035-.063.028-.062.035-.07.028-.07.028-.07.021-.07.021-.063.021-.07.014-.063.014-.063.014-.07.014-.07.007-.062.007-.07.007-.077.007-.07.007h-.07-.077-.077-.07l-.07-.007h-.077l-.07-.007-.07-.007-.077-.007-.07-.014-.07-.007-.07-.014-.07-.014-.07-.014-.07-.014-.07-.021-.063-.014-.07-.021-.07-.021-.063-.028-.07-.021-.063-.021-.07-.028-.063-.028-.063-.028-.063-.035-.063-.028-.063-.035-.056-.035-.063-.035-.056-.035-.056-.035-.056-.042-.056-.042-.056-.042-.056-.042-.049-.042-.056-.049.042-.056.049-.049.042-.056.049-.056.042-.049.041-.056.049-.056.042-.049.049-.056.042-.049.049-.056.042-.056.042-.049.049-.056.042-.056.049-.049.042-.056.056.042.063.042.056.042.063.042.056.035.063.042.055.035.063.028.056.035.063.028.063.028.063.028.063.021.063.028.07.021.07.021.063.021.07.014.07.014.07.014.077.007.07.014h.07l.077.007h.07.084l.077-.007.07-.014.063-.014.063-.014.056-.021.049-.028.056-.042.041-.049.028-.056.021-.063.007-.07v-.014l-.007-.084-.028-.07-.035-.049-.049-.042-.056-.042-.056-.028-.062-.028-.07-.028-.084-.035-.049-.014-.055-.014-.063-.021-.063-.014-.07-.021-.07-.014-.077-.021-.07-.014-.077-.021-.07-.014-.07-.021-.07-.014-.07-.021-.063-.021-.069-.014-.063-.021-.062-.021-.063-.021-.077-.028-.07-.028-.07-.028-.07-.028-.063-.035-.07-.035-.056-.035-.063-.035-.056-.042-.056-.035-.049-.042-.049-.049-.049-.049-.042-.049-.042-.049-.035-.049-.035-.056-.035-.063-.028-.049-.021-.056-.021-.063-.021-.056-.014-.07-.014-.063-.007-.07-.007-.07-.007-.077v-.077-.014-.07l.007-.07.007-.063.007-.07.014-.063.014-.063.021-.063.014-.063.028-.063.028-.063.028-.063.035-.063.035-.063.042-.056.042-.056.049-.056.049-.049.049-.056.056-.049.049-.035.056-.042.056-.042.055-.035.063-.035.063-.028.063-.035.063-.028.07-.021.07-.028.063-.021.056-.014.063-.014.063-.014.07-.014.063-.014.07-.007.07-.007.07-.007.07-.007h.07.077.077.077l.077.007.077.007h.07l.077.007.07.014.077.007.07.014.063.014.07.014.07.014.063.014.07.021.063.021.063.014.07.028.063.021.063.028.063.028.07.028.063.035.056.028.063.035.063.035.056.035.063.042.056.035.056.042.056.042.056.042-.041.056-.035.056-.042.056-.042.056-.042.063-.035.056-.042.056-.042.056-.035.056-.042.056-.042.056-.035.056-.041.063-.042.056-.042.056-.035.056-.042.056-.056-.042-.063-.035-.056-.035-.056-.042-.063-.028-.056-.035-.063-.028-.056-.028-.063-.028-.056-.028-.062-.021-.056-.028-.077-.021-.07-.021-.07-.021-.07-.014-.07-.014-.07-.014-.07-.007-.07-.007-.063-.007h-.07-.084l-.077.014-.07.014-.063.014-.056.028-.049.028-.063.056-.042.063-.028.063-.007.07v.014l.007.091.035.077.028.042.048.049.063.035.056.035.07.028.077.028.084.028.056.014.056.021.063.014.063.021.07.014.077.021.077.021.077.021.077.014.07.021.077.021.07.014.07.021.07.021.063.021.07.021.063.021.063.021.077.028.07.035.07.028.07.035.063.035.063.035.056.035.056.042.056.035.056.049.056.049.049.056.049.049.042.056.042.063.035.056.035.063.028.056.021.063.021.063.014.063.014.07.014.07.007.07.007.077v.077.014.077l-.007.077zm-4.89 1.4h-.07-.07-.07-.07-.07-.07-.07-.07-.077-.07-.07-.07-.07-.07-.07-.07-.07-.07-.07-.07-.07-.07-.07-.07-.07-.07-.07-.07-.077-.07-.07-.07-.07-.07-.07-.07-.07-.07-.07-.07-.07-.07-.07-.07-.07-.07-.07-.077-.07-.07-.07-.07-.07-.069-.07-.07-.07v-.07-.07-.07-.07-.07-.07-.07-.07-.07-.07-.07-.07-.07-.07-.07-.07-.07-.07-.063-.07-.07-.07-.07-.07-.07-.07-.07-.07-.07-.07-.07-.07-.07-.07-.07-.07-.07-.07-.07-.07-.07-.07-.07-.07-.07-.07-.07-.07-.07-.07-.07-.07-.07-.07-.063-.07-.07-.07-.07-.07-.07-.07-.07-.07-.07-.07-.07-.07-.07-.07-.07-.07-.07h.07.07.07.069.07.07.07.07.07.07.07.07.07.07.063.07.07.07.07.07.07.07.07.07.07.07.07.07.07.07.07.07.07.07.07.07.07.07.07.07.07.07.07.063.07.07.07.07.07.07.07.07.07.07.07.07.07.07v.07.063.07.07.07.063.07.07.063.07.07.063.07.07.07.063.07h-.07-.07-.07-.07-.07-.07-.063-.07-.07-.07-.07-.07-.07-.07-.07-.07-.07-.07-.07-.062-.07-.07-.07-.069-.07-.07-.07-.07-.07-.07-.07-.07-.062-.07-.07-.07-.07-.07-.07v.07.07.07.07.07.063.07.07.07.07.07.07h.07.07.07.07.07.07.07.07.063.07.07.07.07.07.07.069.07.07.07.07.07.07.07.07.07.07.063.07.07.07.07.07.07.07.07v.07.063.07.07.063.07.07.063.07.07.07.063.07.07.063.07h-.07-.07-.07-.07-.07-.07-.07-.07-.063-.07-.07-.07-.07-.07-.07-.07-.07-.07-.07-.069-.07-.07-.07-.07-.07-.07-.063-.07-.07-.07-.07-.07-.07-.07-.07v.07.077.07.07.077.07.07.077.07.07.077.07h.07.07.07.07.07.07.07.07.07.077.07.07.07.07.07.07.07.07.07.07.07.07.07.07.07.07.07.07.07.077.07.07.07.07.07.07.07.07.07v.07.063.07.07.07.063.07.07.063.07.07.063.07.07.07.063.07h-.07zm-5.095 0h-.07-.07-.077-.07-.07-.07-.07-.07-.077-.07-.07-.07-.07-.07-.077-.07-.07-.07v-.07-.07-.07-.07-.07-.07-.07-.07-.07-.07-.07-.07-.07-.07-.07-.07-.07-.07-.07-.07-.07-.07-.07-.07-.07-.07-.07-.07-.07-.07-.07-.07-.07-.07-.07-.07-.07-.07-.07-.07-.07-.07-.07l-.035.056-.042.063-.035.056-.041.056-.035.063-.042.056-.035.056-.035.063-.041.056-.035.056-.042.056-.035.063-.042.056-.035.056-.035.063-.042.056-.035.056-.042.063-.035.056-.042.056-.035.063-.035.056-.042.056-.035.063-.042.056-.035.056-.042.056-.035.063-.035.056-.042.056-.035.063-.042.056-.035.056-.042.063-.035.056h-.028l-.042-.063-.035-.056-.042-.063-.035-.056-.042-.063-.035-.056-.042-.063-.035-.056-.042-.063-.035-.056-.042-.064-.034-.056-.042-.063-.035-.056-.041-.064L31.16 39l-.042-.063-.042-.056-.035-.063-.042-.056-.035-.063-.042-.056-.035-.063-.042-.056-.035-.063-.042-.056-.035-.063-.042-.056-.035-.063-.042-.056-.035-.063-.042-.056-.035-.064-.042-.056v.07.07.07.07.07.07.07.07.07.07.063.07.07.07.071.07.07.07.07.07.07.07.07.07.07.07.071.07.07.07.07.07.063.07.07.07.07.07.07.07.07.07.07h-.07-.07-.07-.07-.07-.07-.07-.07-.07-.07-.07-.07-.07-.07-.07-.07-.07-.07-.07v-.07-.07-.07-.07-.07-.07-.07-.07-.07-.07-.07-.07-.07-.07-.07-.07-.07-.07-.063-.07-.07-.07-.07-.07-.07-.07-.07-.07-.07-.07-.07-.07-.07-.07-.07-.07-.07-.07-.07-.07-.07-.07-.07-.07-.07-.07-.07-.07-.07-.07-.07-.07-.07-.07-.063-.07-.07-.07-.07-.07-.07-.07-.07-.07-.07-.07-.07-.07-.07-.07-.07-.07-.07h.07.07.063.07.07.07.063.07.07.07.063.07.07.07.063.07.07.07.063.07.07l.035.056.035.063.042.056.035.063.035.056.035.063.035.056.042.063.035.056.035.056.035.063.035.056.042.063.035.056.035.063.035.056.042.056.035.063.035.056.035.063.035.056.042.063.035.056.035.063.035.056.035.056.042.063.035.056.035.063.035.056.035.063.042.056.035.063.035.056.035-.056.035-.063.042-.056.035-.063.035-.056.035-.063.042-.056.035-.063.035-.056.035-.056.042-.063.035-.056.035-.063.035-.056.042-.063.035-.056.035-.063.035-.056.035-.056.042-.063.035-.056.035-.063.035-.056.042-.063.035-.056.035-.056.035-.063.041-.056.035-.063.035-.056.035-.063.042-.056.035-.063.035-.056h.07.07.063.07.07.07.063.07.07.07.063.07.07.07.063.07.07.07.063.07.07v.07.07.07.07.07.07.07.07.07.07.07.07.07.07.07.07.07.07.063.07.07.07.07.07.07.07.07.07.07.07.07.07.07.07.07.07.07.07.07.07.07.07.07.07.07.07.07.07.07.07.07.07.07.07.063.07.07.07.07.07.07.07.07.07.07.07.07.07.07.07.07.07.07h-.07zm-8.09-2.101l-.021-.063-.028-.07-.028-.063-.021-.063-.028-.063-.028-.07-.021-.063-.028-.063-.027-.063-.021-.063-.028-.07-.021-.063-.028-.063-.028-.063-.021-.063-.028-.07-.028-.063-.021-.063-.028-.063-.028-.07-.021-.063-.028-.063-.028.063-.021.063-.028.07-.028.063-.021.063-.028.063-.028.07-.028.063-.021.063-.028.063-.028.063-.021.07-.028.063-.028.063-.021.063-.028.063-.028.07-.028.063-.021.063-.028.063-.028.07-.021.063-.027.063h.07.07.07.07.07.07.07.07.063.07.07.07.07.07.07.07.07l-.028-.063zm2.19 2.101h-.07-.063-.069-.07-.07-.07-.063-.07-.07-.07-.07-.07-.063-.07-.07-.07-.07-.063-.07-.07l-.028-.063-.021-.063-.028-.063-.028-.07-.021-.063-.028-.063-.028-.063-.021-.063-.028-.063-.028-.063-.021-.063-.028-.07-.028-.063-.021-.063-.028-.063h-.07-.07-.07-.07-.063-.07-.07-.07-.07-.07-.07-.07-.07-.07-.063-.07-.07-.07-.07-.07-.07-.07-.07-.07-.063-.069-.07-.07-.07l-.027.063-.021.063-.028.063-.028.07-.021.063-.028.063-.028.063-.021.063-.028.063-.028.063-.021.063-.028.07-.028.063-.021.063-.028.063h-.07-.07-.07-.07-.07-.077-.07-.07-.07-.07-.07-.07-.07-.069-.07-.077-.07-.07-.07-.07l.027-.063.028-.063.028-.063.028-.07.021-.063.028-.063.028-.063.028-.063.028-.063.028-.07.028-.063.028-.063.021-.063.028-.063.028-.063.028-.07.028-.063.028-.063.028-.063.028-.063.021-.063.027-.07.028-.063.028-.063.028-.063.028-.063.028-.063.028-.07.021-.063.028-.063.028-.063.028-.063.028-.063.028-.07.028-.063.028-.063.021-.063.028-.063.027-.063.028-.07.028-.063.028-.063.028-.063.028-.063.021-.063.028-.063.028-.07.028-.063.028-.063.028-.063.028-.063.028-.063.021-.07.028-.063.028-.063.028-.063.028-.063.028-.063.028-.07.028-.063.021-.063.028-.063.028-.063.028-.063.028-.07.028-.063.028-.063.028-.063.021-.063.028-.063.028-.07.028-.063.028-.063.028-.063.028-.063.028-.063.021-.07.028-.063.028-.063.027-.063h.07.063.07.07.07.063.07.07.07.063.069.07.07.063.07.07.07.063.07l.028.063.028.063.028.063.028.07.021.063.028.063.028.063.028.063.028.063.028.07.028.063.028.063.021.063.028.063.028.063.028.07.028.063.028.063.028.063.028.063.021.063.028.07.028.063.028.063.028.063.028.063.027.063.028.07.021.063.028.063.028.063.028.063.028.063.028.07.028.063.028.063.021.063.028.063.028.063.028.063.028.07.028.063.028.063.027.063.021.063.028.063.028.07.028.063.028.063.028.063.028.063.028.063.021.07.028.063.028.063.028.063.027.063.028.063.028.07.028.063.02.063.028.063.028.063.028.063.028.07.028.063.028.063.027.063.021.063.028.063.027.07.028.063.028.063.028.063.028.063.028.063.021.07.027.063.028.063.028.063h-.07zm-6.108-.651l-.056.042-.049.035-.056.042-.056.035-.056.042-.056.035-.056.035-.063.035-.063.035-.063.035-.063.028-.063.035-.07.028-.063.028-.07.028-.063.028-.063.021-.063.021-.063.021-.07.021-.062.021-.07.014-.063.014-.07.014-.07.014-.07.007-.077.007-.07.007-.077.007-.07.007-.077.007h-.077-.077-.077-.07l-.07-.007-.077-.007-.07-.007-.07-.007-.07-.007-.07-.014-.07-.014-.062-.014-.07-.014-.063-.021-.07-.014-.063-.021-.063-.028-.063-.021-.07-.028-.063-.028-.063-.028-.062-.028-.063-.035-.056-.035-.063-.035-.056-.035-.056-.035-.056-.042-.056-.042-.056-.042-.049-.042-.049-.042-.049-.049-.049-.042-.049-.049-.049-.049-.042-.049-.042-.056-.042-.049-.035-.056-.042-.056-.035-.056-.035-.056-.035-.063-.035-.056-.028-.063-.028-.063-.028-.063-.028-.063-.021-.056-.028-.063-.014-.063-.021-.063-.014-.07-.021-.063-.014-.07-.007-.063-.014-.07-.007-.063-.007-.07-.007-.07-.007-.07v-.077-.07-.014-.07l.007-.077v-.07l.007-.07.007-.077.014-.07.007-.07.014-.063.021-.07.014-.07.021-.063.021-.07.021-.063.028-.07.028-.063.028-.063.028-.063.028-.063.035-.063.035-.056.035-.056.035-.056.035-.056.041-.056.042-.056.042-.056.042-.049.049-.049.042-.049.049-.049.049-.049.049-.042.056-.049.049-.042.056-.042.056-.035.056-.042.056-.035.055-.035.063-.035.063-.035.063-.035.063-.028.063-.028.07-.035.056-.021.07-.021.063-.028.063-.014.063-.021.07-.014.063-.021.07-.014.07-.007.07-.014.07-.007.07-.007.07-.007.07-.007h.077.07.076.077l.077.007.077.007h.07l.07.007.077.014.063.007.07.014.07.014.063.014.063.014.063.014.063.021.063.014.056.021.063.021.063.028.063.028.063.028.063.035.063.028.056.035.063.035.056.035.063.035.056.042.056.035.056.042.056.042.056.049.056.042-.042.056-.049.049-.042.056-.049.056-.042.056-.042.049-.049.056-.042.056-.042.049-.049.056-.042.056-.049.056-.042.049-.042.056-.049.056-.042.056-.049.049-.042.056-.056-.042-.056-.049-.056-.035-.056-.042-.056-.035-.056-.035-.056-.035-.063-.035-.056-.028-.056-.028-.056-.021-.063-.021-.062-.021-.063-.014-.07-.014-.07-.014-.07-.007-.077-.007-.077-.007h-.077-.07l-.07.007-.063.007-.07.014-.063.014-.063.021-.063.021-.063.028-.063.028-.056.035-.056.035-.056.035-.049.042-.049.042-.049.042-.042.049-.049.049-.042.056-.035.049-.035.056-.035.063-.035.056-.028.063-.021.063-.028.063-.021.07-.014.07-.014.063-.014.077-.007.07-.006.07v.077.014.07l.006.07.007.063.007.07.014.063.014.063.014.063.021.063.021.056.028.07.028.063.035.063.035.056.035.056.042.056.042.049.049.049.042.049.049.042.056.042.056.042.056.035.056.035.063.028.063.028.063.028.07.021.07.021.07.014.07.014.07.007.077.007h.077.084l.077-.007.077-.007.07-.007.07-.014.07-.014.07-.021.063-.014.063-.028.056-.028.063-.028.049-.028.056-.035v-.07-.07-.07-.07-.077-.07-.07-.07-.07h-.07-.063-.07-.07-.07-.063-.07-.07-.07-.063-.07-.07-.07-.063-.07v-.07-.063-.07-.07-.07-.063-.07-.07-.07-.063-.07-.07-.07-.063-.07h.07.07.07.07.07.07.07.07.07.07.07.07.07.07.07.07.07.07.07.07.07.07.07.07.07.07.07.07.07.07.07.07.07v.07.07.07.063.07.07.07.07.07.063.07.07.07.07.07.07.063.07.07.07.07.07.07.063.07.07.07.07.07.063.07.07.07l-.049.042zM20.16 24.294h3.022v-2.337H20.16v-4.772h3.142v-2.338h-5.708v16.87h5.756V29.38h-3.19v-5.085zm21.645.507v3.808c0 .675-.312.988-.959.988h-.48c-.672 0-.983-.313-.983-.988V17.956c0-.675.312-.988.983-.988h.432c.648 0 .959.313.959.988v3.302h2.518v-3.447c0-2.096-1.007-3.109-3.094-3.109h-1.247c-2.086 0-3.118 1.036-3.118 3.133v10.893c0 2.097 1.032 3.133 3.118 3.133h1.271c2.087 0 3.118-1.036 3.118-3.133V24.8h-2.518zm-8.911 6.916h2.567v-16.87h-2.567v16.87zm-3.724-9.375c0 .675-.311.988-.959.988h-1.055v-6.218h1.055c.648 0 .959.313.959.988v4.242zm-.552-7.495h-4.029v16.87h2.566v-6.122h1.463c2.087 0 3.118-1.036 3.118-3.133V17.98c0-2.097-1.031-3.133-3.118-3.133z" fill="#fff"/><path fill-rule="evenodd" d="M23.648 46.972h14.691l-7.498 2.473-7.192-2.473z" fill="#fff"/></g></g><defs><clipPath id="B"><path fill="#fff" transform="translate(12 9)" d="M0 0h37.918v44H0z"/></clipPath></defs></svg>