<svg width="62" height="62" viewBox="0 0 62 62" fill="none" xmlns="http://www.w3.org/2000/svg"><rect width="62" height="62" rx="31" fill="white"/><mask id="mask0_3328_63" style="mask-type:luminance" maskUnits="userSpaceOnUse" x="9" y="25" width="44" height="12"><path d="M9 25H52.6862V36.6576H9V25Z" fill="white"/></mask><g mask="url(#mask0_3328_63)"><path d="M12.8473 30.9207C12.5425 30.8427 12.2262 31.0509 12.1527 31.3764C12.08 31.7019 12.0312 32.0274 12.0312 32.3664V35.3476C12.0312 35.6862 12.3232 35.96 12.64 35.96C12.9567 35.96 13.2491 35.6863 13.2491 35.348V32.3791C13.2491 32.1316 13.2491 31.8841 13.2978 31.6497C13.3709 31.3242 13.1516 30.9987 12.8469 30.9207H12.8473ZM14.4247 29.8224C14.6782 29.6274 14.7385 29.249 14.5574 28.9753C14.5153 28.9105 14.4609 28.8552 14.3975 28.8128C14.3341 28.7703 14.263 28.7415 14.1886 28.7281C14.1141 28.7147 14.0377 28.717 13.9641 28.7349C13.8905 28.7527 13.8212 28.7858 13.7603 28.832C13.4945 29.0405 13.2407 29.2752 13.0352 29.549C12.8302 29.8096 12.8542 30.1876 13.096 30.4089C13.2047 30.5135 13.3374 30.5525 13.4705 30.5525C13.6273 30.5525 13.7963 30.4741 13.9051 30.344C14.0529 30.1453 14.2278 29.9698 14.4243 29.8228L14.4247 29.8224ZM19.3582 28.0156H16.1647C15.9705 28.0156 15.7643 28.0419 15.5698 28.0674C15.418 28.0929 15.282 28.1789 15.1912 28.3068C15.1004 28.4348 15.062 28.5945 15.0843 28.7514C15.1207 29.0484 15.3753 29.2677 15.6549 29.2677C15.6793 29.2677 15.7156 29.2936 15.74 29.2936C15.8854 29.2674 16.0313 29.2936 16.1771 29.2936H19.3705C19.6862 29.2936 19.9414 28.9839 19.9414 28.6483C19.9291 28.3258 19.6742 28.0156 19.3582 28.0156ZM18.06 29.888C17.768 29.8618 17.512 30.0961 17.4876 30.3954C17.3414 32.255 15.9654 33.7505 14.2116 33.9714C14.1414 33.9808 14.0737 34.0045 14.0123 34.0411C13.951 34.0776 13.8973 34.1263 13.8543 34.1843C13.8113 34.2423 13.7798 34.3086 13.7617 34.3792C13.7436 34.4498 13.7391 34.5234 13.7487 34.5958C13.7851 34.8819 14.0047 35.09 14.2723 35.09H14.3334C16.5742 34.8039 18.3403 32.879 18.5353 30.4993C18.5716 30.1873 18.352 29.9143 18.06 29.888Z" fill="#294A52"/><path d="M10.0564 30.0692C10.0564 27.8987 11.7196 26.131 13.7836 26.131C14.7789 26.131 15.7138 26.5469 16.4178 27.2879C16.4665 27.3403 16.5249 27.3819 16.5896 27.4104C16.6542 27.4389 16.7239 27.4536 16.7942 27.4536C16.8645 27.4536 16.9341 27.4389 16.9988 27.4104C17.0635 27.3819 17.1219 27.3403 17.1705 27.2879C17.2699 27.1813 17.3254 27.0392 17.3254 26.8913C17.3254 26.7435 17.2699 26.6013 17.1705 26.4948C16.26 25.5329 15.0582 25 13.7833 25C11.1491 25 9 27.2747 9 30.0692C9 31.447 9.50982 32.734 10.4447 33.6959C10.5418 33.7997 10.6753 33.8519 10.8091 33.8519C10.9425 33.8519 11.0884 33.7998 11.1855 33.6831C11.3916 33.4619 11.3796 33.1109 11.1731 32.89C10.4567 32.149 10.0564 31.1481 10.0564 30.0692ZM31.7571 34.0765H25.7571V25H31.5742V25.8299H26.6545V33.2462H31.7575V34.0761L31.7571 34.0765ZM31.0407 29.875H26.5571V29.0575H31.0407V29.875ZM34.5425 34.0761H33.6829V27.268H34.5069V29.1231L34.4215 28.798C34.5993 28.2794 34.8985 27.8845 35.32 27.613C35.7404 27.3407 36.2611 27.2042 36.8825 27.2042V28.1001C36.8502 28.1001 36.8178 28.0971 36.7855 28.0919C36.7534 28.0879 36.7211 28.0859 36.6887 28.0859C36.0175 28.0859 35.4924 28.3041 35.1131 28.7402C34.7327 29.1779 34.5425 29.7981 34.5425 30.6014V34.0765V34.0761ZM41.2585 36.6573C40.6903 36.6598 40.1255 36.5676 39.5858 36.3842C39.0513 36.2031 38.6189 35.944 38.2884 35.6061L38.7247 34.906C39.0229 35.1918 39.3927 35.4186 39.8338 35.5862C40.2738 35.755 40.74 35.8394 41.2324 35.8394C42.0404 35.8394 42.6345 35.6387 43.0149 35.2371C43.3953 34.834 43.5855 34.2089 43.5855 33.3621V31.6645L43.7047 30.4975L43.6211 29.3305V27.268H44.4447V33.2462C44.4447 34.4219 44.1764 35.2844 43.6393 35.8337C43.1022 36.3827 42.3087 36.6573 41.2585 36.6573ZM41.1 33.8166C40.4945 33.8166 39.9487 33.6764 39.4629 33.3959C38.9844 33.1203 38.5885 32.7145 38.3182 32.2229C38.0396 31.7204 37.9004 31.1451 37.9004 30.4975C37.9004 29.8484 38.0396 29.2757 38.3182 28.78C38.5882 28.2912 38.9845 27.8893 39.4629 27.619C39.9491 27.3423 40.4945 27.2039 41.1 27.2039C41.6655 27.2039 42.1745 27.3295 42.6273 27.5807C43.0796 27.8309 43.4385 28.2021 43.7047 28.6941C43.972 29.1876 44.1055 29.7884 44.1055 30.4975C44.1055 31.2062 43.972 31.8066 43.7047 32.2986C43.4385 32.7921 43.0793 33.1686 42.6273 33.4278C42.1745 33.6873 41.6655 33.8166 41.1 33.8166ZM41.1858 32.9991C41.6531 32.9991 42.0687 32.893 42.4331 32.6815C42.793 32.4745 43.0909 32.1697 43.2945 31.8003C43.5047 31.4238 43.6095 30.9895 43.6095 30.4975C43.6095 30.0051 43.5047 29.5731 43.2945 29.2007C43.0888 28.8343 42.7911 28.5318 42.4327 28.3251C42.0691 28.1136 41.6531 28.0079 41.1855 28.0079C40.7247 28.0079 40.3102 28.1136 39.9422 28.3251C39.5826 28.5293 39.285 28.8325 39.0825 29.2007C38.8764 29.5731 38.7735 30.0055 38.7735 30.4975C38.7735 30.9895 38.8764 31.4237 39.0825 31.7999C39.2829 32.1713 39.5809 32.4769 39.9422 32.6815C40.3102 32.893 40.7247 32.9991 41.1858 32.9991ZM49.4378 34.1418C48.824 34.1418 48.2727 33.9921 47.784 33.6929C47.2973 33.3981 46.8973 32.9728 46.6265 32.4621C46.3429 31.9383 46.2015 31.3398 46.2015 30.667C46.2015 29.9834 46.3429 29.3822 46.6265 28.8633C46.8964 28.3575 47.2938 27.9364 47.7767 27.6445C48.2615 27.3509 48.8153 27.2039 49.4378 27.2039C50.0684 27.2039 50.6276 27.3509 51.116 27.6449C51.6009 27.9349 51.9994 28.3564 52.2684 28.8636C52.5469 29.3823 52.6858 29.9834 52.6858 30.667C52.6858 31.3398 52.5469 31.9383 52.2684 32.4621C51.9989 32.9741 51.5982 33.3999 51.1102 33.6932C50.6167 33.9921 50.0596 34.1418 49.4378 34.1418ZM49.4378 33.3242C49.8993 33.3242 50.3069 33.2136 50.6611 32.9927C51.0164 32.7734 51.2975 32.4621 51.5036 32.059C51.7102 31.6577 51.8135 31.1935 51.8135 30.667C51.8135 30.1296 51.7102 29.662 51.5036 29.2645C51.2975 28.867 51.0164 28.5584 50.6611 28.339C50.3069 28.1181 49.9029 28.0079 49.4491 28.0079C48.9967 28.0079 48.5927 28.1181 48.2375 28.339C47.8818 28.5584 47.5989 28.867 47.3887 29.2645C47.1789 29.662 47.0738 30.1296 47.0738 30.667C47.0738 31.1935 47.1789 31.6578 47.3887 32.0594C47.5989 32.4621 47.8818 32.7734 48.2375 32.9931C48.5927 33.2136 48.9931 33.3242 49.4378 33.3242Z" fill="#294A52"/></g></svg>