<svg width="62" height="62" viewBox="0 0 62 62" fill="none" xmlns="http://www.w3.org/2000/svg"><path d="M50.6596 9H11.3404C10.048 9 9 10.0476 9 11.3404V50.6596C9 51.9524 10.048 53 11.3404 53H50.6596C51.9524 53 53 51.9524 53 50.6596V11.3404C53 10.0476 51.9524 9 50.6596 9ZM46.7094 41.1411C46.4178 43.5606 46.114 45.9792 45.8416 48.4025C45.7414 49.3031 45.776 49.2979 44.8525 49.2857C37.7989 49.1982 30.7449 49.0835 23.6913 49.0437C21.1632 49.0306 18.6355 49.1959 16.1069 49.2764C15.7723 49.2871 15.4376 49.2778 15.0402 49.2778C15.0402 48.5761 15.0402 47.896 15.0402 47.1054C15.9422 46.9266 16.898 46.7511 17.8473 46.5456C18.2386 46.4618 18.6248 46.3406 18.995 46.1917C19.553 45.9675 19.9026 45.5523 19.9831 44.9391C20.0215 44.6517 20.0777 44.3634 20.0805 44.075C20.1283 38.8119 20.1952 33.5478 20.2027 28.2856C20.2074 25.0169 20.124 21.7478 20.0711 18.4806C20.0412 16.6298 19.5502 16.0526 17.7462 15.7086C16.979 15.563 16.2043 15.4474 15.4451 15.2705C15.2616 15.2269 15.0018 15.0037 14.9877 14.8445C14.9325 14.2486 14.9653 13.6448 14.9653 12.9937C25.0825 13.1631 35.1444 13.5886 45.2995 12.7119C45.088 16.1467 44.874 19.5881 44.6573 23.0898C44.0432 23.0898 43.4792 23.1385 42.9338 23.0636C42.7396 23.036 42.4957 22.7378 42.4306 22.5164C42.1208 21.4923 41.8919 20.4405 41.5811 19.4168C41.3999 18.8209 41.1542 18.2367 40.8724 17.6816C40.2381 16.4215 39.2842 15.7446 37.7751 15.7694C34.1474 15.8336 30.5169 15.7891 26.8874 15.7914C25.9639 15.7914 25.9367 15.8228 25.9358 16.7267C25.9311 20.8032 25.9278 24.8817 25.925 28.9577C25.9231 29.1815 25.925 29.4038 25.925 29.6847C27.5287 29.6847 29.0467 29.7086 30.5619 29.6744C31.5449 29.6529 32.526 29.5555 33.5057 29.4759C34.8467 29.3645 35.3242 28.9727 35.6612 27.6785C35.9144 26.7077 36.1391 25.7275 36.3577 24.7478C36.4452 24.3616 36.6208 24.1833 37.0444 24.2137C37.578 24.2526 38.1154 24.2231 38.7286 24.2231C38.7286 24.5797 38.7304 24.8999 38.7281 25.2201C38.6958 29.0467 38.6546 32.8719 38.6415 36.6989C38.6396 37.2063 38.5226 37.41 37.9759 37.4128C36.3671 37.424 36.3694 37.4469 35.9893 35.8756C35.8536 35.3115 35.716 34.747 35.568 34.1881C35.2268 32.8943 34.2635 32.4192 33.0502 32.3794C30.7692 32.3046 28.485 32.2811 26.2026 32.2371C26.1403 32.2371 26.0771 32.2694 25.955 32.3046C25.9433 32.5564 25.9217 32.819 25.9217 33.0802C25.9161 36.4846 25.9138 39.8913 25.9119 43.2947C25.911 45.4109 26.7072 46.4379 28.83 46.4983C32.0949 46.5914 35.3672 46.5245 38.6335 46.4248C40.6084 46.3644 41.9611 45.2073 42.8079 43.489C43.4983 42.0857 44.1289 40.6514 44.713 39.2013C44.9719 38.5586 45.3075 38.26 46.0026 38.3667C46.3054 38.4154 46.6205 38.3756 47.046 38.3756C46.9257 39.3506 46.8166 40.2466 46.7094 41.1411Z" fill="#E56F25"/></svg>