<svg width="62" height="62" viewBox="0 0 62 62" fill="none" xmlns="http://www.w3.org/2000/svg"><path fill-rule="evenodd" clip-rule="evenodd" d="M45.1941 22.5714H24.0859L28.964 11.9671C29.5184 10.7615 30.652 10 31.892 10H53.0002L48.1221 20.6043C47.5677 21.81 46.4342 22.5714 45.1941 22.5714Z" fill="#5900CF"/><path fill-rule="evenodd" clip-rule="evenodd" d="M37.9143 24.457L33.0382 35.0591C32.4823 36.267 31.3481 37.0285 30.111 37.0285H9L13.8761 26.426C14.432 25.2181 15.5664 24.457 16.8071 24.457H37.9143Z" fill="#FFCD00"/><mask id="mask0_3145_69" style="mask-type:luminance" maskUnits="userSpaceOnUse" x="11" y="39" width="30" height="13"><path d="M11.7266 39.1387H40.3891V51.4875H11.7266V39.1387Z" fill="white"/></mask><g mask="url(#mask0_3145_69)"><path fill-rule="evenodd" clip-rule="evenodd" d="M32.651 51.4876H11.7266L16.5621 41.071C17.1118 39.8864 18.2355 39.1387 19.4647 39.1387H40.3891L35.5535 49.555C35.0038 50.7396 33.8802 51.4876 32.651 51.4876Z" fill="#5900CF"/></g></svg>
