<svg xmlns="http://www.w3.org/2000/svg" width="62" height="62" fill="none"><path d="M13.186 9.76c-.165.33-.22 10.187-.165 21.862l.165 21.201 18.337.165c12.831.055 18.282-.055 18.282-.496 0-.33-3.524-5.011-7.819-10.463-4.35-5.452-7.875-10.408-7.875-10.958s3.524-5.507 7.875-10.958c4.295-5.452 7.819-10.132 7.819-10.463 0-.936-36.289-.826-36.619.11zm30.011 2.864c0 .496-11.729 15.143-12.115 15.143-.441 0-12.115-14.593-12.115-15.088 0-.165 5.452-.33 12.115-.33s12.115.11 12.115.275zM23.373 24.187l3.469 4.515c.385.551-.606.716-4.791.716h-5.286v-5.947c0-3.304.165-6.112.33-6.333.385-.33 1.927 1.377 6.278 7.049zm2.368 10.628c-4.075 5.562-8.205 10.463-8.535 10.187-.275-.11-.441-2.919-.441-6.278v-6.002h5.286 5.286l-1.597 2.093zm11.564 6.993c3.249 4.075 5.892 7.544 5.892 7.709s-5.452.275-12.115.275-12.115-.165-12.115-.33c0-.496 11.674-15.088 12.115-15.088.22 0 3.029 3.359 6.223 7.434z" fill="#1f40ed"/></svg>