<svg xmlns="http://www.w3.org/2000/svg" width="62" height="62" fill="none"><path d="M31 53c12.15 0 22-9.85 22-22S43.15 9 31 9 9 18.85 9 31s9.85 22 22 22z" fill="#e1141d"/><path d="M19.413 30.281h-4.251v1.271H20v-1.271h-.587zm-.051 2.195h-4.199v1.271H20v-1.272h-.638zm17.095 1.113h-1.906c-.318 0-.507-.169-.507-.477s.189-.477.507-.477h1.906v.953zm-.883-4.411H33.03v1.271h2.464c.754 0 .957.29.963.953h-1.967c-1.16 0-1.798.596-1.798 1.708 0 1.102.636 1.708 1.798 1.708h3.337v-3.465c0-1.47-.556-2.175-2.255-2.175v-.001zm7.146 4.368h-1.599c-.865 0-1.183-.415-1.183-1.547s.318-1.549 1.182-1.549h1.828v-1.272h-1.966c-1.758 0-2.433.874-2.433 2.821s.675 2.821 2.433 2.821h1.986v-1.274h-.248 0zm-17.402 0h-1.504c-.718 0-1.052-.254-1.144-.894h3.001v-1.267h-3.006c.086-.662.418-.934 1.149-.934h2.265v-1.274h-2.405c-1.758 0-2.433.874-2.433 2.821s.675 2.821 2.433 2.821h2.423v-1.274h-.779zm21.272 0h-1.103c-.268 0-.427-.189-.427-.526V30.45h1.659v-1.271h-1.659v-1.074h-1.37v5.017c0 1.162.546 1.699 1.679 1.699h1.47v-1.274h-.248zm-14.236 1.015l-2.006-2.648 1.877-2.478.195-.258h-1.61l-.135.179-1.132 1.494-1.133-1.494-.135-.179h-1.669l2.102 2.775-2.172 2.867h1.61l.135-.179 1.232-1.626 1.231 1.625.135.179h1.669l-.194-.258z" fill="#fff"/></svg>