<svg xmlns="http://www.w3.org/2000/svg" width="62" height="62" fill="none"><g clip-path="url(#A)"><path d="M31 9c12.152 0 22 9.848 22 22s-9.848 22-22 22S9 43.152 9 31 18.848 9 31 9z" fill="#03d47c"/><g fill="#002e22"><path d="M37.067 25.93v-3.584H24.933v17.299h12.134V36.07h-7.674v-3.317h6.179v-3.669h-6.179V25.93h7.674zm-6.041-9.29c3.068 0 5.887.954 8.233 2.578.593.412 1.409.378 1.916-.129.576-.576.541-1.521-.12-2.002a17.1 17.1 0 0 0-10.029-3.24c-9.479 0-17.187 7.709-17.187 17.188 0 3.738 1.203 7.21 3.24 10.029.473.662 1.427.696 2.002.12.516-.516.541-1.323.129-1.916a14.36 14.36 0 0 1-2.578-8.233A14.4 14.4 0 0 1 31.027 16.64zm14.18 4.683c-.473-.687-1.444-.73-2.028-.137-.507.507-.55 1.306-.155 1.908 1.504 2.269 2.389 5.01 2.389 7.941a14.54 14.54 0 0 1-2.484 8.087c-.404.593-.37 1.401.146 1.916.584.584 1.538.541 2.011-.129 1.968-2.793 3.128-6.196 3.128-9.866a16.92 16.92 0 0 0-3.008-9.719zM31.026 45.42a14.43 14.43 0 0 1-7.941-2.389c-.602-.395-1.401-.352-1.908.155-.584.584-.541 1.555.138 2.028a17.1 17.1 0 0 0 9.711 3.008c3.618 0 7.064-1.16 9.866-3.128.67-.473.713-1.435.129-2.011-.507-.507-1.315-.541-1.916-.137a14.36 14.36 0 0 1-8.078 2.475z"/></g></g><defs><clipPath id="A"><path fill="#fff" transform="translate(9 9)" d="M0 0h44v44H0z"/></clipPath></defs></svg>