<svg xmlns="http://www.w3.org/2000/svg" width="62" height="62" fill="none"><g clip-path="url(#A)"><path d="M49.885 52.226a2.34 2.34 0 0 0 2.34-2.34V12.099a2.34 2.34 0 0 0-2.34-2.34H12.098a2.35 2.35 0 0 0-2.34 2.34v37.787a2.34 2.34 0 0 0 2.34 2.34h37.787z" fill="#157dc3"/><path d="M39.058 52.226V35.779h5.521l.824-6.411h-6.345v-4.087c0-1.862.511-3.115 3.181-3.115h3.395v-5.751c-.593-.082-2.604-.247-4.944-.247-4.894 0-8.24 2.983-8.24 8.47v4.73h-5.537v6.411h5.537v16.447h6.608z" fill="#fff"/></g><defs><clipPath id="A"><path fill="#fff" transform="translate(9 9)" d="M0 0h44v43.984H0z"/></clipPath></defs></svg>