<svg width="62" height="62" viewBox="0 0 62 62" fill="none" xmlns="http://www.w3.org/2000/svg">
<g clip-path="url(#clip0_496_1021)">
<path d="M49.8854 52.2262C51.1872 52.2262 52.2254 51.1715 52.2254 49.8861V12.0989C52.2254 10.797 51.1708 9.75879 49.8854 9.75879H12.0981C10.8127 9.75879 9.75803 10.8135 9.75803 12.0989V49.8861C9.75803 51.188 10.8127 52.2262 12.0981 52.2262H49.8854Z" fill="#157DC3"/>
<path d="M39.0584 52.2259V35.7794H44.579L45.4029 29.3689H39.0584V25.2821C39.0584 23.4199 39.5692 22.1674 42.2389 22.1674H45.6337V16.4161C45.0404 16.3337 43.0299 16.1689 40.6898 16.1689C35.7955 16.1689 32.4501 19.1517 32.4501 24.6394V29.3689H26.9131V35.7794H32.4501V52.2259H39.0584Z" fill="white"/>
</g>
<defs>
<clipPath id="clip0_496_1021">
<rect width="44" height="43.9835" fill="white" transform="translate(9 9)"/>
</clipPath>
</defs>
</svg>
