<svg xmlns="http://www.w3.org/2000/svg" width="62" height="62" fill="none"><g clip-path="url(#A)" fill="#ff355e"><path d="M44.829 48.076C40.952 51.219 36.029 53 31 53s-9.952-1.676-13.829-4.924c3.876-3.143 8.8-4.924 13.829-4.924 5.238 0 10.057 1.886 13.828 4.924z"/><path fill-rule="evenodd" d="M17.067 42.733c-2.829-3.248-4.4-7.438-4.295-11.733 0-10.057 8.172-18.229 18.229-18.229S49.229 20.943 49.229 31c0 4.505-1.572 8.59-4.295 11.733.943.629 1.781 1.257 2.619 1.886l.314.314C51.219 41.057 53 36.133 53 31c0-12.152-9.848-22-22-22S9 18.848 9 31c0 5.133 1.781 10.057 5.029 13.933l.314-.314c.838-.629 1.781-1.257 2.724-1.886z"/><path d="M39.172 30.372c0 4.505-3.667 8.172-8.172 8.172s-8.171-3.667-8.171-8.172S26.495 22.2 31 22.2s8.172 3.667 8.172 8.171z"/></g><defs><clipPath id="A"><path fill="#fff" transform="translate(9 9)" d="M0 0h44v44H0z"/></clipPath></defs></svg>