<svg xmlns="http://www.w3.org/2000/svg" id="Layer_1" viewBox="0 0 50 50">
    <defs>
        <style>
            .cls-1{fill:#ff355e}
        </style>
    </defs>
    <path class="cls-1" d="M39.17 42.48C35.3 45.62 30.37 47.5 25 47.5s-10.3-1.88-14.17-5.02c3.87-3.14 8.8-5.02 14.17-5.02s10.3 1.88 14.17 5.02Z"/>
    <path d="M10.71 37.05C7.96 33.8 6.31 29.59 6.31 25 6.31 14.68 14.68 6.31 25 6.31S43.69 14.68 43.69 25c0 4.59-1.66 8.8-4.4 12.05.95.59 1.85 1.24 2.71 1.94l.38.31c3.2-3.89 5.12-8.86 5.12-14.29 0-12.43-10.07-22.5-22.5-22.5S2.5 12.57 2.5 25c0 5.43 1.92 10.41 5.12 14.29l.38-.31c.86-.7 1.77-1.35 2.71-1.94Z" style="fill-rule:evenodd;fill:#ff355e"/>
    <path class="cls-1" d="M33.31 24.31c0 4.59-3.72 8.31-8.31 8.31s-8.31-3.72-8.31-8.31S20.41 16 25 16s8.31 3.72 8.31 8.31Z"/>
</svg>
