<svg width="62" height="62" viewBox="0 0 62 62" fill="none" xmlns="http://www.w3.org/2000/svg"><rect width="62" height="62" rx="31" fill="white"/><path d="M43.7019 20.2887L19.7646 24.6676C17.802 25.0215 16 23.5529 16 21.5999V17.3255C16.0005 16.3976 16.331 15.4994 16.9337 14.7877C17.5364 14.076 18.3731 13.5961 19.2975 13.4318L43.2348 9.05301C45.1974 8.69849 47 10.167 47 12.1207V16.395C47 18.2958 45.6115 19.9342 43.7019 20.2887ZM43.7019 37.2542L31.4988 39.4828V31.446C31.4992 30.518 31.8296 29.6196 32.4323 28.9078C33.0351 28.196 33.8718 27.716 34.7963 27.5517L43.2336 26.0048C45.1962 25.6509 46.9988 27.1194 46.9988 29.0725V33.3469C46.9988 35.2613 45.6109 36.9003 43.7019 37.2542ZM28.2019 51.4002L19.7646 52.9471C17.802 53.3011 16 51.8331 16 49.8795V45.6051C16.0005 44.6772 16.331 43.7789 16.9337 43.0673C17.5364 42.3556 18.3731 41.8757 19.2975 41.7114L31.4988 39.4828L31.4994 47.5196C31.4994 49.4204 30.1109 51.0594 28.2019 51.4002Z" fill="black"/></svg>