<svg xmlns="http://www.w3.org/2000/svg" width="62" height="62" fill="none"><rect width="62" height="62" rx="31" fill="#fff"/><path fill-rule="evenodd" d="M37.372 9c.762 0 1.373.62 1.446 1.378.65 6.767 6.036 12.153 12.804 12.803.759.073 1.379.684 1.379 1.446V37.37c0 .762-.62 1.373-1.379 1.446-6.768.65-12.154 6.035-12.804 12.803-.073.759-.684 1.379-1.446 1.379H24.628c-.762 0-1.373-.62-1.446-1.379-.65-6.767-6.036-12.153-12.804-12.803C9.62 38.743 9 38.132 9 37.37V24.627c0-.762.62-1.373 1.379-1.446 6.768-.65 12.154-6.035 12.804-12.803C23.255 9.62 23.866 9 24.628 9h12.744zM17.835 30.961a13.25 13.25 0 0 0 13.241 13.255 13.25 13.25 0 1 0 0-26.509 13.25 13.25 0 0 0-13.241 13.255z" fill="#000"/></svg>