<svg width="62" height="62" viewBox="0 0 62 62" fill="none" xmlns="http://www.w3.org/2000/svg"><path d="M42.3715 34.5004L13.7411 18.8635C11.0976 17.322 10.2161 14.2389 11.7601 11.5954C13.3016 9.17353 16.605 8.29195 19.2473 9.61432L47.8776 25.25C50.5211 26.7928 51.4015 29.8758 49.86 32.5181C48.5376 35.1616 45.015 36.0419 42.3715 34.5004ZM29.1577 43.97L13.9615 35.6012C11.318 34.0596 10.4377 30.9766 11.9792 28.3331C13.522 25.9112 16.8242 25.0308 19.4677 26.352L34.6638 34.7208C37.3061 36.2623 38.1864 39.3454 36.6449 41.9889C35.1034 44.4108 31.7999 45.2924 29.1577 43.97Z" fill="#00BEFF"/><path opacity="0.5" d="M11.0989 47.4947V31.1966C11.0989 28.1135 13.522 25.6904 16.6051 25.6904C19.6881 25.6904 22.1112 28.1135 22.1112 31.1966V47.4935C22.1112 50.5765 19.6881 52.9996 16.6051 52.9996C13.522 52.9996 11.0989 50.5778 11.0989 47.4935V47.4947Z" fill="#00BEFF"/></svg>