<svg width="62" height="62" viewBox="0 0 62 62" fill="none" xmlns="http://www.w3.org/2000/svg"><rect width="62" height="62" rx="31" fill="white"/><path fill-rule="evenodd" clip-rule="evenodd" d="M40.5972 30.9504C40.5972 29.7109 40.356 28.5278 39.918 27.4455C41.2956 26.5745 42.8188 25.5678 44.3443 24.4671C44.8958 24.0696 45.4411 23.6636 45.98 23.2493C47.186 25.5515 47.8682 28.1713 47.8682 30.9504C47.8682 40.129 40.4275 47.5697 31.2488 47.5697C30.1095 47.5697 28.997 47.4551 27.9221 47.2367C28.4813 46.4394 28.9911 45.6087 29.4487 44.749C30.2036 43.3304 30.814 41.8395 31.2706 40.2987C36.4235 40.287 40.5972 36.1061 40.5972 30.9504ZM22.6268 34.5693C22.159 33.4562 21.9005 32.2335 21.9005 30.9504C21.9005 25.7874 26.0859 21.602 31.2488 21.602C31.2692 21.602 31.2895 21.6021 31.3098 21.6022C32.1595 18.8325 33.428 16.5646 34.8092 14.7133C33.6622 14.463 32.4709 14.3311 31.2488 14.3311C22.0702 14.3311 14.6295 21.7718 14.6295 30.9504C14.6295 33.806 15.3498 36.4935 16.6185 38.841C17.1639 38.4104 17.716 37.9884 18.2747 37.5752C19.7749 36.4645 21.2706 35.4487 22.6268 34.5693Z" fill="#151D21"/><path d="M31.2489 33.0123C32.3876 33.0123 33.3107 32.0892 33.3107 30.9505C33.3107 29.8118 32.3876 28.8887 31.2489 28.8887C30.1102 28.8887 29.1871 29.8118 29.1871 30.9505C29.1871 32.0892 30.1102 33.0123 31.2489 33.0123Z" fill="#151D21"/><path d="M29.7646 33.923C29.6081 33.7133 29.3819 33.5691 29.1283 33.5174C28.8744 33.4658 28.6105 33.5104 28.3877 33.6426C25.1244 35.5773 14.1299 42.0542 10.7496 48.3629C7.89256 53.7253 13.8821 53.2696 17.3174 52.6178C18.8244 52.3323 20.2415 51.6807 21.4481 50.7181C23.9356 48.8461 25.9888 46.4406 27.4628 43.6717C28.9367 40.9027 29.7953 37.838 29.978 34.694C30 34.4193 29.9242 34.1456 29.7646 33.923ZM32.7451 28.0139C32.9005 28.2248 33.1264 28.3704 33.38 28.4233C33.6339 28.4762 33.8984 28.4327 34.122 28.3013C37.3852 26.3597 48.6414 19.9879 52.0217 13.6371C54.8788 8.27472 48.8961 8.73034 45.4608 9.38225C43.9545 9.6742 42.5384 10.3278 41.3301 11.2888C38.1563 13.8123 33.1719 18.4878 32.5454 27.2358C32.5201 27.5105 32.5906 27.7854 32.7451 28.0139Z" fill="#151D21"/></svg>