<svg width="62" height="62" viewBox="0 0 62 62" fill="none" xmlns="http://www.w3.org/2000/svg"><path d="M48.5625 30.039C45.7051 27.6469 41.4007 26.6879 37.5856 29.4805C37.41 29.6069 37.1919 29.3909 37.3249 29.2223C38.2295 28.0683 39.2777 26.8249 40.1237 25.5761C40.9856 24.2958 42.2733 23.379 43.7578 22.9311C51.6591 20.5601 49.2861 9 49.2861 9C49.2861 9 37.0802 9.77981 38.586 20.2071C38.836 21.9512 38.3678 23.7268 37.2664 25.1125C35.9149 26.8038 34.3453 28.4214 33.2066 29.5911C32.9672 29.8335 32.5629 29.6017 32.6586 29.2749C33.76 25.6025 34.5635 19.9225 30.7484 16.2606L25.3797 11.8452L24.3475 13.1941C21.2774 17.2038 22.1767 22.8574 26.2311 25.8923C28.5563 27.6311 29.6097 29.5226 29.4448 31.5986C29.3438 32.8421 28.7744 34.0065 27.9231 34.9286C26.3216 36.6674 24.8264 38.5326 23.6718 40.6928C23.5122 40.9932 23.0493 40.8772 23.0652 40.5348C23.2301 36.9676 22.8843 28.9272 16.8186 26.0556L10.0293 23.458L9.5025 25.0124C7.79452 30.0284 10.5879 35.3869 15.648 37.0889C20.0483 38.5694 21.618 41.3777 20.5591 45.5877C20.5112 45.7405 19.745 50.0768 19.8515 52H24.7306C24.8956 49.0178 28.0561 47.0577 30.7963 48.2749C31.5678 48.6173 32.3607 49.1074 33.1747 49.7396C37.5378 53.1434 43.9652 52.3372 47.3972 48.0114L48.3762 46.7785L42.2041 42.3894C37.9687 39.091 32.3181 40.5822 28.1359 43.4064C27.7847 43.6434 27.3378 43.2641 27.5347 42.8847C32.5895 33.0633 39.1606 33.0844 41.7358 35.2657C44.8592 37.9108 49.5893 37.4366 52.2391 34.3332L53 33.4427L48.5571 30.039H48.5625Z" fill="#51C233"/></svg>