<svg width="62" height="62" viewBox="0 0 62 62" fill="none" xmlns="http://www.w3.org/2000/svg"><path d="M53 30.9999C53 43.1502 43.1503 53 31 53C18.8497 53 9 43.1502 9 30.9999C9 18.8497 18.8497 9 31 9C43.1503 9 53 18.8497 53 30.9999Z" fill="#1E1E1E"/><path d="M25.9053 35.9134L20.7872 43.7304L26.4233 43.1419C29.0297 42.8697 31.0158 41.8818 31.8379 40.4489L35.0975 34.7676L25.9053 35.9134Z" fill="url(#paint0_linear_2309_14)"/><path d="M29.0815 24.3003C29.9595 23.0807 31.4215 22.2169 32.9686 22.0036L45.2574 20.3086L43.0284 24.2887C42.2123 25.746 40.5683 26.8192 38.8028 27.047L25.9055 28.7114L29.0815 24.3003Z" fill="url(#paint1_linear_2309_14)"/><path d="M19.9356 32.361C20.823 31.2176 22.2443 30.4211 23.745 30.2262L45.2608 27.4307L42.2713 31.9497C41.4109 33.2501 39.8681 34.1777 38.223 34.3832L16.233 37.1319L19.9356 32.361Z" fill="url(#paint2_linear_2309_14)"/><defs><linearGradient id="paint0_linear_2309_14" x1="32.2798" y1="37.6928" x2="31.4661" y2="43.937" gradientUnits="userSpaceOnUse"><stop offset="0.0001" stop-color="#333333"/><stop offset="0.854167" stop-color="#858585"/></linearGradient><linearGradient id="paint1_linear_2309_14" x1="40.2347" y1="17.7712" x2="31.7721" y2="34.3227" gradientUnits="userSpaceOnUse"><stop offset="0.338542" stop-color="#B4B4B4"/><stop offset="1"/></linearGradient><linearGradient id="paint2_linear_2309_14" x1="39.5062" y1="19.5626" x2="18.5916" y2="43.0673" gradientUnits="userSpaceOnUse"><stop offset="0.333333" stop-color="#B4B4B4"/><stop offset="1" stop-color="#262626"/></linearGradient></defs></svg>