<svg xmlns="http://www.w3.org/2000/svg" width="62" height="62" fill="none"><g clip-path="url(#A)"><path d="M30.667 31c0-1.945.773-3.81 2.148-5.185s3.24-2.148 5.185-2.148 3.81.773 5.185 2.148 2.148 3.241 2.148 5.185-.773 3.81-2.148 5.185-3.241 2.148-5.185 2.148-3.81-.773-5.185-2.148-2.148-3.24-2.148-5.185z" fill="#1abcfe"/><path d="M16 45.667c0-1.945.773-3.81 2.148-5.185s3.241-2.148 5.185-2.148h7.333v7.333c0 1.945-.773 3.81-2.148 5.185S25.278 53 23.333 53s-3.81-.773-5.185-2.148S16 47.612 16 45.667z" fill="#0acf83"/><path d="M30.667 9v14.667H38c1.945 0 3.81-.773 5.185-2.148s2.148-3.24 2.148-5.185-.773-3.81-2.148-5.185S39.945 9 38 9h-7.333z" fill="#ff7262"/><path d="M16 16.333c0 1.945.773 3.81 2.148 5.185s3.241 2.148 5.185 2.148h7.333V9h-7.333c-1.945 0-3.81.773-5.185 2.148S16 14.388 16 16.333z" fill="#f24e1e"/><path d="M16 31c0 1.945.773 3.81 2.148 5.185s3.241 2.148 5.185 2.148h7.333V23.667h-7.333c-1.945 0-3.81.773-5.185 2.148S16 29.055 16 31z" fill="#a259ff"/></g><defs><clipPath id="A"><path fill="#fff" transform="translate(16 9)" d="M0 0h29.333v44H0z"/></clipPath></defs></svg>