<svg xmlns="http://www.w3.org/2000/svg" width="62" height="62" fill="none" xmlns:v="https://vecta.io/nano"><mask id="A" maskUnits="userSpaceOnUse" x="9" y="9" width="44" height="44"><path d="M48.875 9h-35.75C10.847 9 9 10.847 9 13.125v35.75C9 51.153 10.847 53 13.125 53h35.75C51.153 53 53 51.153 53 48.875v-35.75C53 10.847 51.153 9 48.875 9z" fill="#fff"/></mask><g mask="url(#A)"><path d="M48.875 9.002h-35.75C10.846 9.002 9 10.849 9 13.127v35.75c0 2.278 1.847 4.125 4.125 4.125h35.75c2.278 0 4.125-1.847 4.125-4.125v-35.75c0-2.278-1.847-4.125-4.125-4.125z" fill="#ffc738"/><path d="M69.924 68.367C54.248 84.043 37.88 83.526 20.994 66.64 12.987 58.633 7.766 48.535 7.246 40.177s3.488-17.066 11.413-24.991C26.323 7.522 34.073 3.95 41.822 4.383c8.619.433 18.717 5.654 27.334 14.27 16.712 16.711 16.968 33.515.769 49.714z" fill="#ffeec2" fill-opacity=".4"/><path d="M68.383 66.59C57 77.973 45.11 77.592 32.84 65.321c-5.819-5.819-9.614-13.156-9.994-19.227s2.529-12.396 8.283-18.15c5.565-5.565 11.194-8.157 16.822-7.841 6.261.317 13.598 4.112 19.86 10.374 12.144 12.144 12.335 24.35.573 36.113z" fill="#ffeec2" fill-opacity=".4"/><path d="M66.788 64.755c-7.125 7.126-14.573 6.882-22.265-.809-3.648-3.647-6.028-8.245-6.269-12.048s1.579-7.764 5.181-11.366c3.483-3.484 7.008-5.105 10.534-4.904 3.922.201 8.52 2.582 12.445 6.507 7.612 7.612 7.737 15.258.374 22.622z" fill="#ffeec2" fill-opacity=".4"/><path d="M65.397 63.16c-3.409 3.409-6.975 3.291-10.66-.394-1.748-1.747-2.888-3.949-3.005-5.77s.754-3.716 2.477-5.44c1.667-1.667 3.354-2.442 5.042-2.345 1.878.098 4.08 1.239 5.96 3.119 3.647 3.647 3.709 7.308.186 10.831z" fill="#ffeec2" fill-opacity=".4"/></g><g fill="#071003"><path d="M32.569 28.541c2.023 0 3.046 1.09 3.046 3.271 0 1.034-.315 2.023-.821 2.596s-1.326.877-2.349.877c-.989 0-1.72-.27-2.192-.798-.528-.584-.843-1.574-.843-2.686 0-2.158 1.068-3.259 3.158-3.259zm-.023 1.989c-.798 0-1.214.517-1.214 1.495 0 1.056.427 1.652 1.18 1.652s1.191-.629 1.191-1.708c0-.955-.382-1.439-1.158-1.439zm9.785-1.764v6.294h-2.023v-.663c0-.214.011-.27.067-.674h-.067c-.191.551-.326.787-.584 1.034-.348.348-.832.528-1.371.528-.663 0-1.248-.27-1.574-.731-.18-.258-.326-.697-.371-1.18l-.023-1.54v-3.068h2.113v3.012c0 1.012.011 1.101.135 1.315.135.213.371.337.663.337a.85.85 0 0 0 .832-.584c.079-.247.09-.36.09-1.068v-3.012h2.113zM26.51 35.072v-8.364h2.091v8.364H26.51zm-3.186 0v-8.364h2.141v8.364h-2.141zm-9.21-7.466h5.078v1.876h-3.094v1.235h3.094v1.741h-3.094v2.615h-1.984v-7.468zm6.052 7.454v-6.226a2.5 2.5 0 0 0 1.023.191 3.18 3.18 0 0 0 1.09-.191v6.226h-2.113zm1.033-6.594c-.812 0-1.223-.284-1.223-.853 0-.27.126-.527.329-.677s.533-.229.943-.229c.397 0 .69.07.88.208a.85.85 0 0 1 .339.7c0 .563-.429.85-1.268.85z"/><path fill-rule="evenodd" d="M44.544 27.588c0 1.596-.561 1.884-1.606 1.884v1.238h1.045l-.056 1.708c0 1.135.101 1.708.371 2.135.303.472.899.731 1.686.731.809 0 1.337-.214 1.888-.764v-1.461c-.337.427-.697.618-1.135.618-.27 0-.506-.112-.618-.292-.124-.191-.169-.483-.169-1l-.034-1.675h1.956V28.76h-1.956v-1.172h-1.372z"/></g></svg>