<svg xmlns="http://www.w3.org/2000/svg" width="62" height="62" fill="none"><path d="M35.99 10.623c1.136 2.122 1.768 3.797 2.048 5.324.168.949.149 1.359-.093 2.29-.54 2.159-1.843 3.667-3.946 4.672-.987.447-5.212 1.619-8.432 2.29l-.838.186 1.303.223c3.351.596 12.099 3.053 12.602 3.537.075.075-.949.149-2.271.168-4.076.056-7.427.856-11.448 2.736-3.965 1.861-8.283 5.398-10.201 8.414-1.694 2.625-2.178 5.51-1.247 7.446.67 1.396 2.513 3.127 4.132 3.89 3.686 1.731 9.456 1.582 15.338-.372 7.743-2.569 12.527-7.613 14.538-15.319.633-2.457.8-6.627.354-9.065-.931-4.97-3.313-9.382-7.278-13.477-1.694-1.75-4.281-3.983-5.249-4.56-.112-.056.186.67.689 1.619zM19.107 42.807c.614.316.856.726.875 1.415 0 1.34-1.582 2.01-2.513 1.061-.763-.745-.577-1.936.372-2.476.484-.279.763-.279 1.266 0z" fill="#e41a38"/></svg>