<svg xmlns="http://www.w3.org/2000/svg" version="1.0" width="256.000000pt" height="256.000000pt" viewBox="0 0 256.000000 256.000000" preserveAspectRatio="xMidYMid meet">

<g transform="translate(0.000000,256.000000) scale(0.100000,-0.100000)" fill="#e41a38" stroke="none">
<path d="M1570 2367 c61 -114 95 -204 110 -286 9 -51 8 -73 -5 -123 -29 -116 -99 -197 -212 -251 -53 -24 -280 -87 -453 -123 l-45 -10 70 -12 c180 -32 650 -164 677 -190 4 -4 -51 -8 -122 -9 -219 -3 -399 -46 -615 -147 -213 -100 -445 -290 -548 -452 -91 -141 -117 -296 -67 -400 36 -75 135 -168 222 -209 198 -93 508 -85 824 20 416 138 673 409 781 823 34 132 43 356 19 487 -50 267 -178 504 -391 724 -91 94 -230 214 -282 245 -6 3 10 -36 37 -87z m-907 -1729 c33 -17 46 -39 47 -76 0 -72 -85 -108 -135 -57 -41 40 -31 104 20 133 26 15 41 15 68 0z" fill="#e41a38"/>
</g>
</svg>