<svg xmlns="http://www.w3.org/2000/svg" xmlns:xlink="http://www.w3.org/1999/xlink" width="62" height="62" fill="none" xmlns:v="https://vecta.io/nano"><g clip-path="url(#I)"><path d="M25.349 14H14.5v10.769h10.849V14z" fill="url(#A)"/><path d="M38.199 27.001H27.351V37.77h10.849V27.001z" fill="url(#B)"/><path d="M38.199 14H27.351v10.769H47.5V23.23c0-2.448-.98-4.796-2.724-6.527S40.666 14 38.199 14z" fill="url(#C)"/><path d="M14.5 27.001V37.77c0 2.448.98 4.796 2.724 6.527S21.333 47 23.799 47h1.549V27.001H14.5z" fill="url(#D)"/><path opacity=".18" d="M14.5 14l10.849 10.769H14.5V14z" fill="url(#E)"/><path opacity=".18" d="M27.351 27.001L38.199 37.77H27.351V27.001z" fill="url(#F)"/><path opacity=".18" d="M14.5 37.77c0 2.448.98 4.796 2.724 6.527S21.333 47 23.799 47h1.549V27.001L14.5 37.77z" fill="url(#G)"/><path opacity=".18" d="M38.2 14c2.466 0 4.831.973 6.575 2.703S47.5 20.782 47.5 23.23v1.539H27.351L38.2 14z" fill="url(#H)"/></g><defs><linearGradient id="A" x1="41.036" y1="41.246" x2="-4.566" y2="-6.668" xlink:href="#J"><stop stop-color="#e82a73"/><stop offset=".113" stop-color="#de2d7a"/><stop offset=".3" stop-color="#c5388f"/><stop offset=".54" stop-color="#9b4ab0"/><stop offset=".818" stop-color="#6262de"/><stop offset=".994" stop-color="#3b73ff"/></linearGradient><linearGradient id="B" x1="41.194" y1="41.097" x2="-4.409" y2="-6.816" xlink:href="#J"><stop stop-color="#ff3c82"/><stop offset=".103" stop-color="#f53e88"/><stop offset=".274" stop-color="#dc4598"/><stop offset=".492" stop-color="#b251b2"/><stop offset=".745" stop-color="#7961d7"/><stop offset=".994" stop-color="#3b73ff"/></linearGradient><linearGradient id="C" x1="48.769" y1="33.89" x2="33.317" y2="-22.106" xlink:href="#J"><stop stop-color="#e82a73"/><stop offset=".113" stop-color="#de2d7a"/><stop offset=".3" stop-color="#c5388f"/><stop offset=".54" stop-color="#9b4ab0"/><stop offset=".818" stop-color="#6262de"/><stop offset=".994" stop-color="#3b73ff"/></linearGradient><linearGradient id="D" x1="33.561" y1="48.36" x2="-21.755" y2="31.508" xlink:href="#J"><stop stop-color="#e82a73"/><stop offset=".113" stop-color="#de2d7a"/><stop offset=".3" stop-color="#c5388f"/><stop offset=".54" stop-color="#9b4ab0"/><stop offset=".818" stop-color="#6262de"/><stop offset=".994" stop-color="#3b73ff"/></linearGradient><linearGradient id="E" x1="9.195" y1=".549" x2="24.689" y2="36.053" xlink:href="#J"><stop stop-color="#e82a73"/><stop offset=".114" stop-color="#de286e"/><stop offset=".303" stop-color="#c52361"/><stop offset=".544" stop-color="#9b1a4d"/><stop offset=".825" stop-color="#620f30"/><stop offset=".994" stop-color="#3d081e"/></linearGradient><linearGradient id="F" x1="22.046" y1="13.55" x2="37.54" y2="49.053" xlink:href="#J"><stop stop-color="#e82a73"/><stop offset=".114" stop-color="#de286e"/><stop offset=".303" stop-color="#c52361"/><stop offset=".544" stop-color="#9b1a4d"/><stop offset=".825" stop-color="#620f30"/><stop offset=".994" stop-color="#3d081e"/></linearGradient><linearGradient id="G" x1="10.898" y1="12.982" x2="45.989" y2="36.294" xlink:href="#J"><stop stop-color="#e82a73"/><stop offset=".114" stop-color="#de286e"/><stop offset=".303" stop-color="#c52361"/><stop offset=".544" stop-color="#9b1a4d"/><stop offset=".825" stop-color="#620f30"/><stop offset=".994" stop-color="#3d081e"/></linearGradient><linearGradient id="H" x1="-753.666" y1="771.633" x2="-747.653" y2="819.108" xlink:href="#J"><stop stop-color="#e82a73"/><stop offset=".114" stop-color="#de286e"/><stop offset=".303" stop-color="#c52361"/><stop offset=".544" stop-color="#9b1a4d"/><stop offset=".825" stop-color="#620f30"/><stop offset=".994" stop-color="#3d081e"/></linearGradient><clipPath id="I"><path fill="#fff" transform="translate(9 14)" d="M0 0h44v33H0z"/></clipPath><linearGradient id="J" gradientUnits="userSpaceOnUse"/></defs></svg>