<svg width="62" height="62" viewBox="0 0 62 62" fill="none" xmlns="http://www.w3.org/2000/svg"><rect width="62" height="62" rx="31" fill="white"/><path fill-rule="evenodd" clip-rule="evenodd" d="M9 31C9 31.0558 9.00021 31.1119 9.00063 31.1678H9V53H30.8017V52.9992C30.8575 52.9995 30.9133 52.9997 30.9692 52.9997C43.1025 52.9997 52.9384 43.1501 52.9384 31C52.9384 18.8496 43.1025 9 30.9692 9C18.8359 9 9 18.8496 9 31ZM30.9692 47.7226C40.1919 47.7226 47.6686 40.2357 47.6686 31C47.6686 21.7641 40.1919 14.2772 30.9692 14.2772C21.7464 14.2772 14.2698 21.7641 14.2698 31C14.2698 31.0558 14.2701 31.1119 14.2707 31.1678H30.8017V47.7218C30.8575 47.7223 30.9133 47.7226 30.9692 47.7226Z" fill="black"/></svg>