<svg xmlns="http://www.w3.org/2000/svg" xmlns:xlink="http://www.w3.org/1999/xlink" width="62" height="62" fill="none"><rect width="62" height="62" rx="31" fill="#fff"/><g clip-path="url(#A)"><g fill="#142529"><use xlink:href="#B"/><path d="M43.373 30.856c0 1.749-1.417 3.166-3.166 3.166s-3.166-1.417-3.166-3.166 1.417-3.166 3.166-3.166 3.166 1.417 3.166 3.166zm9.348 0c0 1.749-1.418 3.166-3.166 3.166s-3.166-1.417-3.166-3.166 1.418-3.166 3.166-3.166 3.166 1.417 3.166 3.166zm-28.043 0c0 1.749-1.418 3.166-3.166 3.166s-3.166-1.417-3.166-3.166 1.418-3.166 3.166-3.166 3.166 1.417 3.166 3.166z"/></g><g fill="#2ebec0"><use xlink:href="#C"/><path d="M34.026 12.167c0 1.749-1.418 3.166-3.166 3.166s-3.166-1.418-3.166-3.166S29.111 9 30.86 9s3.166 1.417 3.166 3.166z"/><use xlink:href="#D"/></g><path d="M43.373 40.583c0 1.749-1.417 3.166-3.166 3.166s-3.166-1.418-3.166-3.166 1.417-3.166 3.166-3.166 3.166 1.417 3.166 3.166z" fill="#142529"/><g fill="#2ebec0"><path d="M24.678 40.583c0 1.749-1.418 3.166-3.166 3.166a3.17 3.17 0 0 1-3.166-3.166 3.17 3.17 0 0 1 3.166-3.166c1.748 0 3.166 1.417 3.166 3.166zm9.348-19.582c0 1.749-1.418 3.166-3.166 3.166s-3.166-1.417-3.166-3.166 1.418-3.166 3.166-3.166a3.17 3.17 0 0 1 3.166 3.166z"/></g><path d="M43.373 21.001c0 1.749-1.417 3.166-3.166 3.166s-3.166-1.417-3.166-3.166 1.417-3.166 3.166-3.166 3.166 1.418 3.166 3.166z" fill="#142529"/><path d="M24.678 21.001c0 1.749-1.418 3.166-3.166 3.166s-3.166-1.417-3.166-3.166 1.418-3.166 3.166-3.166 3.166 1.418 3.166 3.166z" fill="#2ebec0"/><path d="M15.342 32.079c0 1.749-1.418 3.166-3.166 3.166S9.01 33.827 9.01 32.079s1.417-3.166 3.166-3.166 3.166 1.418 3.166 3.166z" fill="#142529"/></g><defs><clipPath id="A"><path fill="#fff" transform="translate(9 9)" d="M0 0h44v44H0z"/></clipPath><path id="B" d="M34.026 30.856c0 1.749-1.418 3.166-3.166 3.166s-3.166-1.417-3.166-3.166 1.418-3.166 3.166-3.166 3.166 1.417 3.166 3.166z"/><path id="C" d="M34.026 49.558c0 1.749-1.418 3.166-3.166 3.166s-3.166-1.417-3.166-3.166 1.418-3.166 3.166-3.166 3.166 1.418 3.166 3.166z"/><path id="D" d="M34.026 40.583c0 1.749-1.418 3.166-3.166 3.166s-3.166-1.418-3.166-3.166 1.418-3.166 3.166-3.166 3.166 1.417 3.166 3.166z"/></defs></svg>