<svg width="62" height="62" viewBox="0 0 62 62" fill="none" xmlns="http://www.w3.org/2000/svg"><path d="M18.5836 22.8262L31.3704 34.7294C33.0379 36.2817 35.6536 36.1935 37.2127 34.5324C38.7718 32.8713 38.6839 30.2663 37.0164 28.714L24.2297 16.8108C22.5622 15.2585 19.9465 15.3468 18.3874 17.0079C16.8282 18.669 16.9161 21.2739 18.5836 22.8262Z" fill="#6AD2FF" fill-opacity="0.5"/><path fill-rule="evenodd" clip-rule="evenodd" d="M21.375 15.6826C19.0968 15.6826 17.25 17.5294 17.25 19.8076C17.25 22.0858 19.0968 23.9326 21.375 23.9326H48.875C51.1531 23.9326 53 22.0858 53 19.8076C53 17.5294 51.1531 15.6826 48.875 15.6826H21.375ZM13.0333 31.7243C13.0333 29.4461 14.8802 27.5993 17.1583 27.5993H34.2083C36.4864 27.5993 38.3333 29.4461 38.3333 31.7243C38.3333 34.0025 36.4864 35.8493 34.2083 35.8493H17.1583C14.8802 35.8493 13.0333 34.0025 13.0333 31.7243ZM9 43.6409C9 41.3628 10.8468 39.5159 13.125 39.5159H19.5417C21.8198 39.5159 23.6667 41.3628 23.6667 43.6409C23.6667 45.919 21.8198 47.7659 19.5417 47.7659H13.125C10.8468 47.7659 9 45.919 9 43.6409Z" fill="#6AD2FF"/></svg>