<svg xmlns="http://www.w3.org/2000/svg" width="62" height="62" fill="none" xmlns:v="https://vecta.io/nano"><rect width="62" height="62" rx="31" fill="#fff"/><g clip-path="url(#A)" fill="#000"><path d="M31.043 53C18.864 53 9 43.109 9 31S18.864 9 31.043 9s22.043 9.892 22.043 22-9.949 22-22.043 22zm0-42.636c-11.407 0-20.671 9.295-20.671 20.636s9.263 20.636 20.671 20.636S51.714 42.341 51.714 31c-.086-11.341-9.349-20.636-20.671-20.636zM30.7 44.899h.772c7.291 0 13.209-5.628 13.466-13.046 0-.426-.343-.767-.686-.767H18.006c-.429 0-.686.341-.686.767.171 7.419 6.09 13.046 13.38 13.046z"/></g><defs><clipPath id="A"><path fill="#fff" transform="translate(9 9)" d="M0 0h44v44H0z"/></clipPath></defs></svg>