<svg xmlns="http://www.w3.org/2000/svg" width="62" height="62" fill="none"><path d="M38.651 9h8.581c1.444-.011 2.731.376 3.823 1.335 1.2 1.05 1.896 2.37 1.901 3.964l-.017 17.385c-.098 5.216-1.966 9.82-5.409 13.748-3.598 4.108-8.127 6.555-13.538 7.319a21.24 21.24 0 0 1-12.082-1.762c-5.37-2.471-9.164-6.488-11.372-11.956-1.328-3.291-1.789-6.732-1.413-10.276a21.73 21.73 0 0 1 5.348-12.259c2.974-3.392 6.655-5.649 11.014-6.797a21.99 21.99 0 0 1 5.692-.698L38.651 9zm-4.253 19.571c-1.677 0-3.354-.005-5.031.005-.291 0-.383-.05-.276-.363l1.201-3.653 1.23-3.762c.106-.325 0-.589-.283-.748s-.568-.101-.782.165c-.119.149-.226.307-.34.461l-5.862 8.167-2.341 3.242c-.097.119-.158.263-.174.416s.011.307.08.444c.145.313.413.432.74.444.139.005.28.004.419.004h9.453c.571 0 .581 0 .399.561l-2.314 7.052c-.14.425-.074.688.232.858s.572.097.85-.255c.04-.049.076-.101.114-.153l8.321-11.516c.208-.288.312-.588.136-.921s-.475-.455-.855-.453l-4.916.004z" fill="#09c6fa"/><path d="M34.398 28.571l4.917-.004c.38 0 .675.113.855.453s.072.633-.136.921l-8.321 11.516-.114.153c-.28.35-.541.425-.85.255s-.372-.432-.232-.858l2.314-7.052c.182-.558.17-.561-.399-.561h-9.453c-.139 0-.279 0-.419-.004-.327-.013-.595-.132-.74-.444-.069-.137-.097-.291-.081-.444s.077-.297.174-.416l2.343-3.241 5.862-8.167.34-.461c.213-.266.493-.328.782-.165s.389.425.283.749l-1.23 3.762-1.201 3.653c-.107.313-.015.364.276.363l5.029-.006z" fill="#fbfefe"/></svg>