<svg width="62" height="62" viewBox="0 0 62 62" fill="none" xmlns="http://www.w3.org/2000/svg"><path d="M9.27344 34.2614C9.91644 38.9462 12.121 43.1717 15.4279 46.5704L22.8684 39.1299C22.8684 31.2301 27.002 24.0652 33.7995 20.0234L9.27344 34.2614Z" fill="#9B65C3"/><path d="M22.9603 39.0374C19.1022 39.0374 15.3361 38.0269 12.0292 36.0979C11.1106 35.5468 10.192 34.9037 9.27344 34.2607C9.91644 38.9455 12.121 43.171 15.4279 46.5697L22.9603 39.0374Z" fill="#9B65C3"/><path d="M22.962 39.0376L15.4297 46.5699C18.8284 49.9687 23.0539 52.0814 27.6468 52.7244L41.8848 28.1064C38.0268 34.8121 30.77 39.0376 22.962 39.0376Z" fill="#BE63C5"/><path d="M25.9015 50.061C23.9725 46.6622 22.962 42.9879 22.962 39.1299L15.4297 46.5704C18.8284 49.9691 23.0539 52.0819 27.6468 52.7249C27.0957 51.8063 26.4527 50.9796 25.9015 50.061Z" fill="#BF63C6"/><path d="M50.9791 10.1943L33.8935 19.9313C27.096 23.7893 18.8288 23.7893 11.9395 19.9313C10.0104 23.33 9 27.1881 9 31.0461C9 32.0565 9.09186 33.2507 9.27557 34.2611C10.1942 34.9041 11.1127 35.5472 12.0313 36.0983C15.4301 38.0273 19.1044 39.0378 22.9624 39.0378L51.3466 10.6536C51.1628 10.5618 51.071 10.3781 50.9791 10.1943Z" fill="#3278B1"/><path d="M11.9373 36.0977C15.3361 38.0267 19.0104 39.0371 22.8684 39.0371C22.8684 31.1373 27.002 23.9724 33.7995 19.9307L9.27344 34.1687C10.192 34.9035 11.0187 35.5465 11.9373 36.0977Z" fill="#3278B2"/><path d="M11.9395 19.9307C10.0104 23.3294 9 27.1874 9 31.0455C9 32.0559 9.09186 33.2501 9.27557 34.2605L33.8935 19.9307C27.1879 23.9724 18.8288 23.9724 11.9395 19.9307Z" fill="#45A4EC"/><path d="M51.3446 10.6534C50.9772 10.286 50.7016 10.0104 50.3342 9.73486C49.5074 9.27557 48.497 9 47.5784 9H30.9521C23.0523 9 15.7955 13.2255 11.9375 19.9311C18.735 23.7891 27.0022 23.7891 33.8916 19.9311C27.0941 23.7891 22.9605 31.1378 22.9605 39.0376C30.8603 39.0376 38.0252 34.904 42.0669 28.1065L51.8039 11.0209C51.6202 10.929 51.4365 10.8372 51.3446 10.6534Z" fill="#19BB7D"/><path d="M33.8916 19.9307L50.9772 10.1937C50.7016 10.1019 50.6097 9.82629 50.3342 9.64258L11.9375 19.9307C18.8269 23.9724 27.1859 23.9724 33.8916 19.9307Z" fill="#08C7FB"/><path d="M47.4866 9H30.9521C23.0523 9 15.7955 13.2255 11.9375 19.9311L50.3342 9.64301C49.4156 9.27557 48.497 9 47.4866 9Z" fill="#59F2F6"/><path d="M42.0693 28.1065L51.8063 11.0209C51.7144 10.929 51.5307 10.7453 51.4388 10.4697L23.0547 38.9457C23.0547 42.8038 24.0651 46.5699 25.9941 49.8768C26.5453 50.7954 27.1883 51.714 27.8313 52.6326C28.8417 52.7244 29.8522 52.9081 30.9545 52.9081C34.8125 52.9081 38.5787 51.8977 41.8856 49.9687C38.0275 43.1712 38.0275 34.8121 42.0693 28.1065Z" fill="#DA3757"/><path d="M22.9609 39.0376C22.9609 42.8956 23.9714 46.6618 25.9004 49.9687C26.4515 50.8872 27.0945 51.8058 27.7376 52.7244L41.9756 28.1064C38.0257 34.8121 30.7689 39.0376 22.9609 39.0376Z" fill="#D33C4E"/><path d="M42.0661 28.1064L27.8281 52.7244C28.8386 52.8163 29.849 53 31.0432 53C34.9012 53 38.6674 51.9895 41.9743 50.0605C38.0244 43.1712 38.0244 34.8121 42.0661 28.1064Z" fill="#EE5A24"/><path d="M52.2636 11.7559C51.8962 11.1129 51.5288 10.5618 50.9776 10.1943L33.892 19.9313C27.0945 23.7893 22.9609 31.138 22.9609 39.0378C30.8607 39.0378 38.0257 34.9041 42.0674 28.1067C38.2094 34.9041 38.2094 43.1714 42.0674 50.0607C48.773 46.2027 52.9985 38.9459 52.9985 31.2298V14.5117C52.9985 13.5012 52.7229 12.5826 52.2636 11.7559Z" fill="#8BDF55"/><path d="M50.9776 10.1943L33.892 19.9313C27.0945 23.7893 22.9609 31.138 22.9609 39.0378L51.3451 10.6536C51.1614 10.5618 51.0695 10.2862 50.9776 10.1943Z" fill="#25C16F"/><path d="M22.9609 39.0376C30.8607 39.0376 38.0257 34.904 42.0674 28.1065L51.8044 11.0209C51.7125 10.929 51.5288 10.7453 51.4369 10.4697L22.9609 39.0376Z" fill="#8BDF55"/><path d="M51.8024 11.0205L42.0654 28.1061C38.2074 34.9036 38.2074 43.1708 42.0654 50.0602L52.3535 11.7554C52.0779 11.4798 51.9861 11.2961 51.8024 11.0205Z" fill="#FFBB00"/><path d="M42.0703 50.0607C48.8678 46.2027 53.0014 38.9459 53.0014 31.0461V14.5117C53.0014 13.5012 52.7258 12.5826 52.2666 11.6641L42.0703 50.0607Z" fill="#FFA800"/></svg>
