<svg xmlns="http://www.w3.org/2000/svg" width="62" height="62" fill="none"><path d="M30.931 9h16.525a5.5 5.5 0 0 1 3.935 1.613A5.5 5.5 0 0 1 53 14.55v16.519C53 43.184 43.184 53 31.069 53h-.125c-2.881.002-5.734-.563-8.396-1.663s-5.081-2.715-7.119-4.751-3.655-4.454-4.758-7.115S9 33.956 9 31.075C9 18.926 18.8 9.125 30.931 9z" fill="#25c16f"/><path d="M30.931 18.801c-5.564 0-10.075 4.51-10.075 10.075v6.85c.04 1.833 1.517 3.31 3.35 3.35h2.85v-7.869h-3.85v-2.2c.234-4.143 3.662-7.384 7.813-7.384s7.571 3.235 7.804 7.384v2.2h-3.905v7.875h2.575v.125A3.14 3.14 0 0 1 34.4 42.3h-3.075c-.25 0-.525.125-.525.375a.55.55 0 0 0 .525.525h3.094c2.203-.014 3.986-1.797 4-4v-.25a3.3 3.3 0 0 0 2.575-3.25v-6.694c.125-5.675-4.375-10.2-10.075-10.2l.013-.006z" fill="#fff"/></svg>