<svg xmlns="http://www.w3.org/2000/svg" width="62" height="62" fill="none"><path d="M31 52.028c-12.155 0-22-9.643-22-21.514S18.845 9 31 9h16.49C50.529 9 53 11.431 53 14.389v16.166c0 11.831-9.845 21.473-22 21.473z" fill="#ff5969"/><path d="M31 41.291c4.092 0 7.658-2.188 9.521-5.389-1.904-3.201-5.47-5.348-9.521-5.348-4.092 0-7.657 2.188-9.521 5.389 1.904 3.201 5.47 5.348 9.521 5.348zm4.295-17.3c0 2.35-1.945 4.254-4.335 4.254s-4.335-1.904-4.335-4.254 1.945-4.254 4.335-4.254 4.335 1.904 4.335 4.254z" fill="#fff"/></svg>