<svg xmlns="http://www.w3.org/2000/svg" width="62" height="62" fill="none"><path d="M46.176 12.942a.52.52 0 0 0-.374-.158H34.059a.48.48 0 0 0-.331.129l-2.645 1.883c-.187.172-.474.172-.661 0l-2.659-1.883a.48.48 0 0 0-.331-.129H15.688a.52.52 0 0 0-.374.158 21.12 21.12 0 0 0-5.707 14.374c-.043 11.542 9.3 21.058 20.842 21.23a21.15 21.15 0 0 0 21.446-21.144c0-5.591-2.171-10.68-5.721-14.46zm-4.959 5.505c2.142 2.458 3.407 5.663 3.407 9.171 0 7.949-6.684 14.446-14.733 14.015-7.173-.374-12.692-6.325-12.937-13.512-.129-3.694 1.078-7.115 3.32-9.674a.49.49 0 0 0-.029-.676l-4.14-4.068 14.058 10.062c.374.302.891.302 1.25 0l14.043-10.062-4.226 4.068c-.172.187-.187.474-.014.676z" fill="#df696a"/></svg>