<svg width="62" height="62" viewBox="0 0 62 62" fill="none" xmlns="http://www.w3.org/2000/svg"><rect width="62" height="62" rx="31" fill="white"/><path d="M31.4817 16.0012C31.3789 15.505 30.6709 15.5029 30.5652 15.9986L29.9156 19.0412C29.7705 19.721 29.4288 20.3432 28.933 20.8303C28.4371 21.3174 27.809 21.648 27.1267 21.7809L24.3506 22.3219C23.8482 22.4197 23.8445 23.1374 24.3459 23.2403L27.1581 23.818C27.8326 23.9566 28.4521 24.2886 28.9411 24.7735C29.43 25.2583 29.7672 25.8751 29.9114 26.5484L30.554 29.55C30.6597 30.0441 31.3652 30.0435 31.4701 29.549L32.106 26.5519C32.2491 25.8777 32.5856 25.2598 33.0743 24.7739C33.5631 24.2879 34.1829 23.9549 34.8579 23.8157L37.6821 23.2332C38.1838 23.1298 38.1792 22.4117 37.6764 22.3147L34.9072 21.7804C34.2201 21.6478 33.5877 21.3149 33.0895 20.8235C32.5913 20.3322 32.2496 19.7044 32.1076 19.0192L31.4817 16.0012Z" fill="black"/><path fill-rule="evenodd" clip-rule="evenodd" d="M9.11108 33.2243L9.11095 33.2241C9.27352 34.8485 9.61735 36.4496 10.136 37.9975H10.1363C10.8305 40.0664 11.8296 42.02 13.1006 43.794C13.826 44.807 14.6357 45.7569 15.521 46.6336C19.496 50.5694 24.9642 53 31 53C43.1503 53 53 43.1503 53 31C53 18.8497 43.1503 9 31 9C18.8497 9 9 18.8497 9 31C9 31.7508 9.03764 32.4929 9.11108 33.2243ZM12.7483 35.3949C12.4037 33.9554 12.2301 32.4802 12.2311 31C12.2311 20.6341 20.6342 12.2311 31 12.2311C41.3658 12.2311 49.7689 20.6341 49.7689 31C49.7689 32.5095 49.5908 33.9773 49.2543 35.3837C49.112 35.4014 48.9687 35.4104 48.8253 35.4106C47.3999 35.4148 46.4902 34.861 45.2134 34.0445L45.1504 34.0042C43.8869 33.1959 42.2619 32.1562 39.8203 32.1709C37.4132 32.1853 35.8077 33.2173 34.5629 34.0173L34.4974 34.0594C33.2361 34.8696 32.3482 35.4106 30.9666 35.4106C29.4757 35.4106 28.568 34.8538 27.3419 34.056L27.2502 33.9963C26.0232 33.197 24.4481 32.1709 22.0346 32.1709C19.6098 32.1709 17.9997 33.2025 16.7464 34.0056L16.6847 34.0452C15.4199 34.8552 14.517 35.4064 13.0978 35.4106C12.9811 35.4111 12.8645 35.4058 12.7483 35.3949ZM18.3857 44.8981C21.7182 47.9246 26.1437 49.7689 31 49.7689C35.8338 49.7689 40.2408 47.9416 43.5679 44.9402L43.4165 44.8223L43.3237 44.75C42.0194 43.7355 41.1599 43.1193 39.8401 43.1273C38.5357 43.1352 37.6814 43.7524 36.3938 44.7603L36.2999 44.8337C35.0876 45.784 33.4437 47.0725 30.9666 47.0725C28.3658 47.0725 26.71 45.7603 25.4799 44.7852L25.4299 44.7454C24.15 43.7314 23.3374 43.1273 22.0346 43.1273C20.7218 43.1273 19.8691 43.7409 18.577 44.7487L18.4855 44.8203L18.3857 44.8981ZM45.8125 42.5281C46.7406 41.3377 47.5217 40.0397 48.1389 38.6622C46.0843 38.4942 44.6539 37.5789 43.5178 36.8519L43.4471 36.8067C42.1723 35.9915 41.2639 35.4408 39.8401 35.4493C38.4315 35.4578 37.5281 36.0093 36.2694 36.818L36.2 36.8626C34.9583 37.6607 33.3583 38.6892 30.9666 38.6892C28.451 38.6892 26.8383 37.6399 25.5784 36.8199L25.5538 36.8041C24.3044 35.9911 23.4429 35.4494 22.0346 35.4494C20.6173 35.4494 19.7154 35.9975 18.4529 36.8062L18.3833 36.8506C17.267 37.566 15.8658 38.464 13.8572 38.6532C14.4667 40.0157 15.2366 41.3005 16.1506 42.4805C16.2877 42.3757 16.4244 42.2701 16.5604 42.1638L16.6463 42.0968C17.8707 41.1405 19.5246 39.8488 22.0346 39.8488C24.5351 39.8488 26.1545 41.1347 27.3534 42.0866L27.3574 42.0897L27.4658 42.1757C28.7203 43.1696 29.5799 43.794 30.9666 43.794C32.243 43.794 33.0813 43.1894 34.373 42.1785L34.4603 42.11C35.6772 41.1565 37.3267 39.8639 39.8203 39.8488C42.3468 39.8336 44.0155 41.1332 45.2497 42.0946L45.3368 42.1624C45.5018 42.2908 45.6598 42.4128 45.8125 42.5281Z" fill="black"/></svg>