<svg xmlns="http://www.w3.org/2000/svg" width="62" height="62" fill="none"><path d="M21.066 42.227c-1.721 0-3.323-.28-4.807-.839-1.462-.581-2.742-1.387-3.839-2.419-1.075-1.054-1.914-2.291-2.516-3.71S9 32.291 9 30.614s.301-3.226.903-4.645a10.76 10.76 0 0 1 2.549-3.678c1.097-1.054 2.376-1.86 3.839-2.419 1.462-.581 3.065-.871 4.807-.871 1.85 0 3.538.323 5.065.968 1.527.624 2.817 1.559 3.871 2.807l-2.71 2.549c-.817-.882-1.731-1.538-2.742-1.968-1.011-.452-2.108-.677-3.291-.677s-2.269.194-3.258.581a7.76 7.76 0 0 0-2.549 1.645c-.709.71-1.269 1.549-1.678 2.516-.387.968-.58 2.032-.58 3.194s.194 2.226.58 3.194c.409.968.968 1.806 1.678 2.516a7.76 7.76 0 0 0 2.549 1.645c.989.387 2.076.581 3.258.581s2.28-.215 3.291-.645c1.011-.452 1.925-1.129 2.742-2.032l2.71 2.581c-1.054 1.226-2.344 2.161-3.871 2.807s-3.226.968-5.097.968zm22.966 0c-1.721 0-3.323-.28-4.807-.839-1.462-.581-2.742-1.387-3.839-2.419-1.075-1.054-1.914-2.291-2.516-3.71s-.903-2.968-.903-4.645.301-3.226.903-4.645 1.452-2.645 2.549-3.678c1.097-1.054 2.377-1.86 3.839-2.419C40.72 19.29 42.322 19 44.064 19c1.85 0 3.538.323 5.065.968 1.527.624 2.817 1.559 3.871 2.807l-2.71 2.549c-.817-.882-1.731-1.538-2.742-1.968-1.011-.452-2.108-.677-3.291-.677s-2.269.194-3.258.581a7.76 7.76 0 0 0-2.549 1.645c-.709.71-1.269 1.549-1.677 2.516-.387.968-.581 2.032-.581 3.194s.193 2.226.581 3.194c.408.968.968 1.806 1.677 2.516a7.76 7.76 0 0 0 2.549 1.645c.989.387 2.076.581 3.258.581s2.28-.215 3.291-.645c1.011-.452 1.925-1.129 2.742-2.032L53 38.453c-1.054 1.226-2.344 2.161-3.871 2.807s-3.226.968-5.097.968z" fill="#da3d6e"/></svg>