<svg width="62" height="62" viewBox="0 0 62 62" fill="none" xmlns="http://www.w3.org/2000/svg"><rect width="62" height="62" rx="31" fill="white"/><path d="M41.1299 49.2814C40.426 48.7103 39.5362 48.4049 38.6729 48.1525C36.5745 47.5682 34.3965 47.3424 32.2317 47.3291C30.0669 47.3291 27.8888 47.5682 25.7904 48.1525C24.9271 48.4049 24.0506 48.7103 23.3334 49.2814C22.0452 50.4368 23.6389 51.4462 24.6881 51.8181C27.0919 52.6946 29.6817 53.0001 32.2184 53.0001C34.7683 53.0001 37.3581 52.6946 39.7487 51.8181C40.7979 51.4462 42.3916 50.4368 41.1033 49.2814H41.1299Z" fill="black"/><path d="M21.8064 14.0335C19.6814 15.7467 18.0877 17.885 17.0784 20.3818C16.0557 22.8919 15.7636 25.5348 16.1885 28.2441C16.6135 30.9401 17.7158 33.3705 19.4557 35.4424C21.1955 37.5142 23.3603 39.0548 25.9102 40.0243C28.4601 40.9938 31.1827 41.2594 33.985 40.8079L45.327 39.015L42.4317 20.7271L29.2703 22.8122L30.2796 29.1605L36.4818 28.1777L37.3053 33.344L33.135 34.008C31.6609 34.2471 30.2132 34.0877 28.8586 33.5432C27.5039 32.9987 26.3352 32.1487 25.4188 31.0198C24.5024 29.8909 23.9048 28.5628 23.679 27.0754C23.4399 25.5879 23.5993 24.1536 24.1173 22.7856C24.6485 21.431 25.4852 20.2622 26.6141 19.3193C27.743 18.3764 29.0578 17.792 30.532 17.5529L41.6614 15.7866L40.5856 9L29.2437 10.7929C26.4414 11.2312 23.9313 12.3335 21.8064 14.0335Z" fill="black"/></svg>