<?xml version="1.0" encoding="UTF-8"?>
<svg version="1.1" xmlns="http://www.w3.org/2000/svg" width="225" height="225">
<path d="M0 0 C74.25 0 148.5 0 225 0 C225 74.25 225 148.5 225 225 C150.75 225 76.5 225 0 225 C0 150.75 0 76.5 0 0 Z " fill="#FF6500" transform="translate(0,0)"/>
<path d="M0 0 C1.22074219 -0.020625 2.44148438 -0.04125 3.69921875 -0.0625 C17.71949442 -0.12247979 31.00807331 3.37862238 41.546875 13.08203125 C45.46607352 17.72979872 49.375 24.06201463 49.375 30.25 C44.755 30.25 40.135 30.25 35.375 30.25 C34.859375 29.033125 34.34375 27.81625 33.8125 26.5625 C30.36618888 19.69414755 24.43128314 16.81592114 17.375 14.25 C-3.5340391 9.6358139 -24.59450948 14.28345608 -42.625 25.25 C-46.93099534 28.28389041 -50.90143334 31.52643334 -54.625 35.25 C-46.375 35.58 -38.125 35.91 -29.625 36.25 C-29.955 40.21 -30.285 44.17 -30.625 48.25 C-29.93277344 47.38375 -29.24054688 46.5175 -28.52734375 45.625 C-20.35429326 36.09260639 -20.35429326 36.09260639 -14.48828125 35.453125 C-10.82990797 35.37036223 -7.24506115 35.71589262 -3.625 36.25 C-3.625 40.21 -3.625 44.17 -3.625 48.25 C-3.08254639 47.39245117 -2.54009277 46.53490234 -1.98120117 45.65136719 C1.13549582 41.2768748 4.34687164 37.10287732 9.69720459 35.59594727 C16.13781975 34.73775948 22.59619165 35.15536143 29.0625 35.5 C31.03564412 35.56028826 33.00896611 35.61502442 34.98242188 35.6640625 C39.78439155 35.79537008 44.57770912 36.00181489 49.375 36.25 C49.22517222 37.69442779 49.07233109 39.13854322 48.91821289 40.58251953 C48.83342178 41.38674347 48.74863068 42.19096741 48.66127014 43.01956177 C47.15504631 54.75511759 38.22995898 65.8653607 29.375 73.25 C8.50002026 89.15875472 -16.38597871 98.38875144 -42.85351562 94.96142578 C-54.82293645 92.91806682 -66.55854534 88.19484911 -74.22265625 78.39453125 C-79.69883598 70.02009484 -80.40974249 62.14290122 -79.625 52.25 C-79.295 51.26 -78.965 50.27 -78.625 49.25 C-85.225 48.92 -91.825 48.59 -98.625 48.25 C-95.625 39.25 -95.625 39.25 -93.625 36.25 C-91.48950195 35.96044922 -91.48950195 35.96044922 -88.86328125 36.0546875 C-78.44175264 36.67902186 -78.44175264 36.67902186 -68.9296875 33.47265625 C-67.28256653 31.1452027 -65.97783272 28.75730287 -64.625 26.25 C-48.26265607 8.46051451 -23.53371834 0.09754909 0 0 Z " fill="#FFFBF9" transform="translate(133.625,66.75)"/>
<path d="M0 0 C6.93 0 13.86 0 21 0 C20.67 5.28 20.34 10.56 20 16 C30.07689064 16.66899749 30.07689064 16.66899749 38.66796875 12.26171875 C41.66938092 9.35808382 44.37305689 6.24332083 47 3 C48.36421031 5.72842061 47.87807211 7.60953318 47.5625 10.625 C47.46066406 11.62789062 47.35882813 12.63078125 47.25390625 13.6640625 C47.17011719 14.43492187 47.08632812 15.20578125 47 16 C52.10462348 16.56479728 57.15935038 16.91589765 62 15 C64.57214233 12.76160321 66.55710634 10.13818154 68.625 7.4375 C73.99898804 0.53149583 73.99898804 0.53149583 78.65820312 -0.70605469 C84.80343609 -1.314761 90.8968672 -0.85178278 97 0 C93.11591095 11.38928196 81.12605605 20.58680285 70.7109375 25.8425293 C62.73312319 29.6559984 54.61963916 32.06837002 46 34 C45.18015625 34.19335938 44.3603125 34.38671875 43.515625 34.5859375 C33.88968003 36.17033217 24.12465851 35.39419664 15 32 C14.27167969 31.73316406 13.54335937 31.46632812 12.79296875 31.19140625 C6.3533215 28.42100351 2.08353898 23.5329574 -1.4375 17.5625 C-2.85983409 11.08297805 -2.10531965 6.31595896 0 0 Z " fill="#FF6602" transform="translate(69,115)"/>
</svg>
