<svg width="62" height="62" viewBox="0 0 62 62" fill="none" xmlns="http://www.w3.org/2000/svg">
<path d="M30.9741 51.481L39.071 26.5752H22.8889L30.9741 51.481Z" fill="#E24329"/>
<path d="M11.5478 26.5752L9.08215 34.1419C8.85902 34.829 9.09998 35.5874 9.6889 36.0157L30.9741 51.4809L11.5478 26.5752Z" fill="#FCA326"/>
<path d="M11.5479 26.5751H22.8889L18.008 11.5755C17.7582 10.8082 16.6696 10.8082 16.4108 11.5755L11.5479 26.5751Z" fill="#E24329"/>
<path d="M50.4121 26.5752L52.8689 34.1419C53.0921 34.829 52.8511 35.5874 52.2622 36.0157L30.9741 51.481L50.4121 26.5752Z" fill="#FCA326"/>
<path d="M50.412 26.5751H39.071L43.9429 11.5755C44.1927 10.8082 45.2814 10.8082 45.5402 11.5755L50.412 26.5751Z" fill="#E24329"/>
<path d="M30.9741 51.481L39.071 26.5752H50.4121L30.9741 51.481Z" fill="#FC6D26"/>
<path d="M30.9741 51.481L11.5479 26.5752H22.8889L30.9741 51.481Z" fill="#FC6D26"/>
</svg>
