<svg xmlns="http://www.w3.org/2000/svg" width="62" height="62" fill="none"><path d="M30.999 51.526l8.106-24.933h-16.2l8.094 24.934z" fill="#e24329"/><path d="M11.551 26.593l-2.468 7.575a1.68 1.68 0 0 0 .607 1.876l21.309 15.482-19.448-24.933z" fill="#fca326"/><path d="M11.551 26.593h11.354l-4.886-15.016c-.25-.768-1.34-.768-1.599 0l-4.868 15.016z" fill="#e24329"/><path d="M50.458 26.593l2.46 7.575a1.68 1.68 0 0 1-.607 1.876L30.999 51.526l19.46-24.933z" fill="#fca326"/><path d="M50.458 26.593H39.105l4.877-15.016c.25-.768 1.34-.768 1.599 0l4.877 15.016z" fill="#e24329"/><g fill="#fc6d26"><path d="M30.999 51.526l8.106-24.933h11.354l-19.46 24.934z"/><path d="M30.999 51.526L11.551 26.593h11.354l8.094 24.934z"/></g></svg>