<svg width="62" height="62" viewBox="0 0 62 62" fill="none" xmlns="http://www.w3.org/2000/svg"><path d="M48.5485 42.1691C48.1206 42.7753 47.6651 43.365 47.1844 43.9296C46.7036 44.4973 46.2003 45.0403 45.6724 45.5636C45.1471 46.0868 44.5968 46.585 44.0243 47.0611C43.4547 47.5372 42.863 47.9859 42.2516 48.4098C41.643 48.8361 41.0145 49.2344 40.3698 49.6057C39.7279 49.9738 39.0666 50.3144 38.3914 50.6271C37.7189 50.9402 37.0325 51.2227 36.3294 51.4745C35.6347 51.7291 34.9233 51.9507 34.2008 52.1388C33.4866 52.3297 32.7611 52.4909 32.0248 52.6182C31.2967 52.7455 30.5601 52.8425 29.8126 52.9034C29.0789 52.967 28.3368 53 27.5865 53C26.8361 53 26.094 52.967 25.3604 52.9034C24.6128 52.8425 23.8735 52.7455 23.1481 52.6182C22.4118 52.4909 21.6839 52.3297 20.9726 52.1388L22.6094 46.0534C23.1457 46.2004 23.6932 46.3194 24.2462 46.4133C24.7937 46.5103 25.3494 46.5822 25.9108 46.6294C26.4638 46.6765 27.0223 46.7012 27.5865 46.7012C28.1506 46.7012 28.7092 46.6765 29.2622 46.6294C29.8235 46.5822 30.3793 46.5103 30.9267 46.4133C31.4797 46.3194 32.0272 46.2004 32.5635 46.0534C33.1082 45.9124 33.642 45.7458 34.1673 45.5549C34.6952 45.3667 35.2121 45.1538 35.7178 44.9185C36.2263 44.6832 36.724 44.4286 37.2075 44.1489C37.6938 43.8719 38.1689 43.5697 38.6275 43.2515C39.0888 42.9331 39.5336 42.5956 39.9616 42.2384C40.3924 41.8812 40.8062 41.5044 41.2036 41.1112C41.601 40.7154 41.982 40.3085 42.3433 39.8822C42.7046 39.4558 43.0492 39.0129 43.3716 38.5561L48.5485 42.1691ZM42.8834 12.9027L38.7808 18.1337C40.8982 20.6562 42.1733 23.9044 42.1734 27.4498C42.1734 35.4758 35.6429 41.9821 27.5869 41.9822C19.5309 41.9822 13 35.4758 13 27.4498C13.0001 19.4239 19.5309 12.9179 27.5869 12.9179C29.7841 12.9179 31.8675 13.4026 33.7363 14.2695L37.8692 9L42.8834 12.9027ZM27.5869 19.1589C22.9908 19.1589 19.2648 22.871 19.2647 27.4498C19.2647 32.0288 22.9908 35.7412 27.5869 35.7412C32.183 35.7411 35.9087 32.0287 35.9087 27.4498C35.9086 22.871 32.1829 19.159 27.5869 19.1589Z" fill="#343CED"/></svg>