<svg width="62" height="62" viewBox="0 0 62 62" fill="none" xmlns="http://www.w3.org/2000/svg"><path d="M52.0992 27.3377H30.9889C28.1119 27.3377 26.6714 30.7359 28.7063 32.7245L34.1112 38.0064C32.9711 38.4584 31.705 38.6726 30.3782 38.5754C26.29 38.2819 22.9931 35.0363 22.7273 31.0393C22.4129 26.3186 26.2373 22.3929 31.001 22.3929C32.3502 22.3929 33.6243 22.7081 34.7504 23.2672C35.8765 23.8264 37.1606 24.1753 38.453 24.1753H38.7899C40.8715 24.1753 42.8679 23.3664 44.3408 21.9289L48.208 18.15C48.4798 17.8843 48.5021 17.462 48.2647 17.1666C47.2015 15.8541 45.9843 14.6645 44.6411 13.6256C44.3388 13.3916 43.9067 13.4154 43.6348 13.6811L38.0331 19.1552C37.4002 19.7738 36.4506 19.9562 35.6249 19.6211C35.6167 19.6172 35.6066 19.6132 35.5984 19.6092C34.7727 19.2761 34.235 18.489 34.235 17.6166V9.87832C34.235 9.5036 33.9469 9.18835 33.5635 9.14473C32.7235 9.04957 31.8674 9 31.001 9C30.1347 9 29.2785 9.04957 28.4387 9.14473C28.0571 9.18835 27.767 9.5036 27.767 9.87832V17.6206C27.767 18.493 27.2293 19.2801 26.4036 19.6132C26.3955 19.6172 26.3853 19.6211 26.3773 19.6251C25.5515 19.9602 24.602 19.7778 23.969 19.1592L18.3673 13.685C18.0954 13.4194 17.6633 13.3975 17.361 13.6295C16.0179 14.6684 14.8005 15.858 13.7374 17.1706C13.498 17.466 13.5224 17.8883 13.7942 18.154L19.3959 23.6281C20.0289 24.2467 20.2156 25.1746 19.8727 25.9815C19.8686 25.9895 19.8646 25.9993 19.8605 26.0073C19.5197 26.8143 18.7142 27.3397 17.8215 27.3397H9.89879C9.51533 27.3397 9.19274 27.6211 9.14811 27.9959C9.05072 28.8167 9 29.6534 9 30.5C9 31.3466 9.05072 32.1833 9.14811 33.0041C9.19274 33.3769 9.51533 33.6603 9.89879 33.6603H17.8215C18.7142 33.6603 19.5197 34.1857 19.8605 34.9927C19.8646 35.0007 19.8686 35.0105 19.8727 35.0185C20.2156 35.8254 20.0289 36.7533 19.3959 37.3719L13.7942 42.8461C13.5224 43.1117 13.5 43.5341 13.7374 43.8294C14.8005 45.142 16.0179 46.3315 17.361 47.3704C17.6633 47.6045 18.0954 47.5807 18.3673 47.315L23.969 41.8408C24.602 41.2222 25.5515 41.0398 26.3773 41.3749C26.3853 41.3788 26.3955 41.3828 26.4036 41.3868C27.2293 41.7199 27.767 42.507 27.767 43.3794V51.1217C27.767 51.4964 28.0551 51.8116 28.4387 51.8553C29.2785 51.9504 30.1347 52 31.001 52C31.8674 52 32.7235 51.9504 33.5635 51.8553C33.9449 51.8116 34.235 51.4964 34.235 51.1217V43.3794C34.235 42.507 34.7727 41.7199 35.5984 41.3868C35.6066 41.3828 35.6167 41.3788 35.6249 41.3768C36.4506 41.0418 37.4002 41.2242 38.0331 41.8428L43.6348 47.317C43.9067 47.5827 44.3388 47.6045 44.6411 47.3724C45.9863 46.3335 47.2037 45.144 48.2667 43.8294C48.5041 43.5361 48.4838 43.1157 48.212 42.8501C46.6233 41.2936 41.5025 36.2775 41.5045 36.2735L38.8081 33.6623H52.1012C52.4848 33.6623 52.8074 33.3808 52.8519 33.0061C52.9494 32.1853 53 31.3486 53 30.502C53 29.6554 52.9494 28.8187 52.8519 27.9979C52.8074 27.6251 52.4848 27.3417 52.1012 27.3417L52.0992 27.3377Z" fill="#FFC267"/></svg>