<svg width="62" height="62" viewBox="0 0 62 62" fill="none" xmlns="http://www.w3.org/2000/svg">
<g clip-path="url(#clip0_911_1249)">
<path d="M50.6308 27.811H38.7132C38.1498 27.811 37.6887 28.2891 37.7059 28.8525C37.7059 28.955 37.7229 29.0575 37.7571 29.1598L40.6255 36.587C40.7279 36.8431 40.5913 37.1334 40.3352 37.2187C40.2669 37.2358 40.1986 37.2529 40.1304 37.2529L36.4595 37.0309C36.2887 37.0138 36.135 37.0992 36.0326 37.2358L33.1813 41.2823C33.0276 41.5213 32.7202 41.5896 32.4983 41.436C32.4983 41.436 32.4983 41.436 32.4812 41.436L28.264 38.5675C28.0932 38.448 27.8713 38.448 27.7176 38.5675L21.8784 42.5287C21.6564 42.6824 21.3491 42.6311 21.1954 42.4092C21.11 42.2897 21.093 42.136 21.1272 41.9994L22.7491 36.1772C22.8174 35.9382 22.6979 35.682 22.4589 35.5967L19.3685 34.3333C19.1124 34.2308 18.9929 33.9576 19.0953 33.7015C19.1124 33.6503 19.1465 33.6162 19.1807 33.5649L21.9125 30.1843C22.0491 30.0136 22.0491 29.7745 21.9296 29.6038L19.6417 26.2744C19.488 26.0524 19.5393 25.7451 19.7612 25.5914C19.8295 25.5402 19.9149 25.5061 20.0173 25.5061L23.5858 25.2329C23.859 25.2158 24.0468 24.9938 24.0468 24.7206L23.7736 19.718C23.7565 19.4448 23.9785 19.2058 24.2516 19.1887C24.3199 19.1887 24.3883 19.2058 24.4565 19.2228L28.8787 21.0498C29.0665 21.1352 29.2884 21.0839 29.425 20.9132L32.4642 17.4984C32.652 17.2935 32.9593 17.2765 33.1642 17.4643C33.2154 17.5155 33.2495 17.5667 33.2837 17.635L35.1106 22.3474C35.3155 22.8426 35.896 23.0816 36.3911 22.8767C36.4595 22.8426 36.5448 22.8084 36.5961 22.7572L43.7671 17.4301C44.1939 17.1057 44.2964 16.5081 43.9719 16.0642C43.7671 15.774 43.4085 15.6203 43.05 15.6715L38.3205 16.3032C38.0985 16.3374 37.8937 16.2008 37.8083 15.9959L35.3155 9.61029C35.1106 9.11515 34.5472 8.87612 34.052 9.06393C33.9155 9.11515 33.796 9.20052 33.6935 9.32004L28.2982 15.1764C28.1615 15.33 27.9396 15.3642 27.7517 15.2959L20.649 12.2909C20.1539 12.086 19.5734 12.308 19.3515 12.8202C19.3002 12.9226 19.2831 13.0421 19.2831 13.1617L19.027 20.4864C19.01 20.7424 18.8222 20.9302 18.566 20.9644L12.078 21.3913C11.5316 21.4254 11.1389 21.8864 11.1731 22.4328C11.1901 22.6035 11.2414 22.7742 11.3438 22.9109L15.6635 29.2794C15.783 29.4672 15.783 29.7063 15.6293 29.8769L11.2414 34.9137C10.8828 35.3235 10.934 35.9382 11.3267 36.2797C11.4121 36.348 11.4975 36.3992 11.5828 36.4504L16.6538 38.6358C16.8757 38.7212 16.9952 38.9773 16.927 39.1993L13.7171 51.7486C13.5805 52.2779 13.9049 52.8072 14.4171 52.9437C14.7074 53.012 14.9976 52.9608 15.2366 52.79L27.3079 44.1336C27.4786 44.0141 27.7006 44.0141 27.8713 44.1336L33.3691 47.9923C33.813 48.2997 34.4276 48.1972 34.735 47.7533L34.7521 47.7362L38.1839 42.4604C38.2863 42.3067 38.4742 42.2214 38.662 42.2555L46.8745 43.2458C47.5404 43.3482 48.2063 42.7848 47.9672 42.1701L44.5524 33.3088C44.45 33.0527 44.5866 32.7624 44.8427 32.66L51.0918 29.7063C52.0137 29.2453 51.6893 27.811 50.6308 27.811Z" fill="#8039E9"/>
</g>
<defs>
<clipPath id="clip0_911_1249">
<rect width="40.6505" height="44" fill="white" transform="translate(11 9)"/>
</clipPath>
</defs>
</svg>
