<svg xmlns="http://www.w3.org/2000/svg" width="62" height="62" fill="none"><g clip-path="url(#A)"><path d="M50.476 27.845h-11.83a1.01 1.01 0 0 0-.955 1.328l2.843 7.368c.124.332-.124.685-.477.664l-3.632-.228a.42.42 0 0 0-.415.208l-2.823 4.006c-.145.228-.457.311-.685.145l-4.192-2.843c-.166-.104-.394-.104-.54 0l-5.811 3.923c-.374.249-.872-.104-.747-.54l1.619-5.77c.062-.249-.042-.477-.291-.581l-3.072-1.245a.47.47 0 0 1-.187-.747l2.698-3.362c.125-.166.145-.394.021-.581l-2.283-3.3c-.207-.311-.021-.726.374-.747l3.549-.27a.52.52 0 0 0 .457-.519l-.291-4.96c-.021-.353.332-.602.685-.477l4.4 1.826c.187.083.415.041.54-.125l3.03-3.383a.51.51 0 0 1 .83.125l1.826 4.69c.249.581.976.789 1.474.394l7.119-5.292c.809-.602.291-1.889-.706-1.743l-4.691.623c-.228.041-.436-.104-.519-.311l-2.47-6.33c-.27-.664-1.121-.83-1.619-.291l-5.355 5.811c-.145.145-.353.187-.54.104l-7.057-2.968c-.623-.249-1.328.187-1.349.872l-.249 7.285c-.021.249-.207.457-.457.457l-6.434.415c-.747.041-1.162.892-.747 1.515l4.275 6.31c.125.187.104.415-.041.602l-4.338 4.981c-.436.498-.249 1.266.353 1.536l4.981 2.158c.228.104.332.332.27.56l-3.196 12.453c-.228.892.768 1.557 1.515 1.038l11.975-8.593c.166-.104.394-.124.56 0l5.458 3.84c.457.332 1.059.187 1.37-.249l3.404-5.23c.104-.166.291-.249.457-.207l8.157.975c.664.104 1.328-.457 1.079-1.059l-3.404-8.779c-.104-.249 0-.498.291-.643l6.206-2.926c.955-.498.623-1.91-.415-1.91z" fill="#8039e9"/></g><defs><clipPath id="A"><path fill="#fff" transform="translate(11 9)" d="M0 0h40.472v44H0z"/></clipPath></defs></svg>