<svg width="62" height="62" viewBox="0 0 62 62" fill="none" xmlns="http://www.w3.org/2000/svg"><path d="M43.2589 14.8662L39.7793 16.7808L38.063 20.0621L39.7793 24.0842L43.0345 27.6107L46.5611 25.6492L48.7234 21.9219L46.5611 17.3024L43.2589 14.8662Z" fill="#0066DA"/><path d="M29.8096 28.316L38.0625 20.0631C40.4935 21.9098 42.2802 24.5573 43.0341 27.6117L31.7111 38.9347C30.6912 39.9546 29.0401 39.9546 28.0229 38.9347L20.3882 31.3C19.5743 30.4862 19.5743 29.1637 20.3882 28.3499L23.6408 25.0973C24.4546 24.2835 25.7771 24.2835 26.5909 25.0973L29.8096 28.316ZM52.3877 15.3054L49.0777 11.9954C48.2638 11.1816 46.9414 11.1816 46.1276 11.9954L43.2584 14.8646C45.5511 16.7844 47.4239 19.1893 48.7229 21.9203L52.3877 18.2555C53.2041 17.4417 53.2041 16.1219 52.3877 15.3054ZM43.4305 30.867C43.4305 38.3582 37.3582 44.4305 29.867 44.4305C22.3757 44.4305 16.3034 38.3582 16.3034 30.867C16.3034 23.3757 22.3757 17.3034 29.867 17.3034C32.9475 17.3034 35.7854 18.3311 38.0625 20.0631L43.2584 14.8672C39.6353 11.8311 34.9664 10 29.867 10C18.3432 10 9 19.3432 9 30.867C9 42.3908 18.3432 51.734 29.867 51.734C41.3908 51.734 50.734 42.3908 50.734 30.867C50.734 27.6665 50.0115 24.633 48.7229 21.9229L43.0341 27.6117C43.2923 28.6551 43.4305 29.7454 43.4305 30.867Z" fill="#2684FC"/></svg>