<svg xmlns="http://www.w3.org/2000/svg" width="62" height="62" fill="none"><mask id="A" maskUnits="userSpaceOnUse" x="15" y="9" width="32" height="44"><path d="M46.815 9H15v44h31.815V9z" fill="#fff"/></mask><g mask="url(#A)"><mask id="B" maskUnits="userSpaceOnUse" x="15" y="9" width="32" height="44" mask-type="alpha"><path d="M34.885 9H17.983C16.342 9 15 10.35 15 12v38c0 1.65 1.342 3 2.983 3h25.85c1.64 0 2.983-1.35 2.983-3V21L34.885 9z" fill="#fff"/></mask><g mask="url(#B)"><path d="M34.885 9H17.983C16.342 9 15 10.35 15 12v38c0 1.65 1.342 3 2.983 3h25.85c1.64 0 2.983-1.35 2.983-3V21l-6.96-5-4.971-7z" fill="#4285f4"/></g><mask id="C" maskUnits="userSpaceOnUse" x="15" y="9" width="32" height="44" mask-type="alpha"><path d="M34.885 9H17.983C16.342 9 15 10.35 15 12v38c0 1.65 1.342 3 2.983 3h25.85c1.64 0 2.983-1.35 2.983-3V21L34.885 9z" fill="#fff"/></mask><g mask="url(#C)"><path d="M35.757 20.123l11.058 11.12V21l-11.058-.878z" fill="url(#I)"/></g><mask id="D" maskUnits="userSpaceOnUse" x="15" y="9" width="32" height="44" mask-type="alpha"><path d="M34.885 9H17.983C16.342 9 15 10.35 15 12v38c0 1.65 1.342 3 2.983 3h25.85c1.64 0 2.983-1.35 2.983-3V21L34.885 9z" fill="#fff"/></mask><g mask="url(#D)"><path d="M22.954 41h15.908v-2H22.954v2zm0 4h11.931v-2H22.954v2zm0-14v2h15.908v-2H22.954zm0 6h15.908v-2H22.954v2z" fill="#f1f1f1"/></g><mask id="E" maskUnits="userSpaceOnUse" x="15" y="9" width="32" height="44" mask-type="alpha"><path d="M34.885 9H17.983C16.342 9 15 10.35 15 12v38c0 1.65 1.342 3 2.983 3h25.85c1.64 0 2.983-1.35 2.983-3V21L34.885 9z" fill="#fff"/></mask><g mask="url(#E)"><path d="M34.885 9v9c0 1.657 1.335 3 2.983 3h8.948L34.885 9z" fill="#a1c2fa"/></g><mask id="F" maskUnits="userSpaceOnUse" x="15" y="9" width="32" height="44" mask-type="alpha"><path d="M34.885 9H17.983C16.342 9 15 10.35 15 12v38c0 1.65 1.342 3 2.983 3h25.85c1.64 0 2.983-1.35 2.983-3V21L34.885 9z" fill="#fff"/></mask><g mask="url(#F)"><path d="M17.983 9C16.342 9 15 10.35 15 12v.25c0-1.65 1.342-3 2.983-3h16.902V9H17.983z" fill="#fff" fill-opacity=".2"/></g><mask id="G" maskUnits="userSpaceOnUse" x="15" y="9" width="32" height="44" mask-type="alpha"><path d="M34.885 9H17.983C16.342 9 15 10.35 15 12v38c0 1.65 1.342 3 2.983 3h25.85c1.64 0 2.983-1.35 2.983-3V21L34.885 9z" fill="#fff"/></mask><g mask="url(#G)"><path d="M43.833 52.75h-25.85c-1.641 0-2.983-1.35-2.983-3V50c0 1.65 1.342 3 2.983 3h25.85c1.64 0 2.983-1.35 2.983-3v-.25c0 1.65-1.342 3-2.983 3z" fill="#1a237e" fill-opacity=".2"/></g><mask id="H" maskUnits="userSpaceOnUse" x="15" y="9" width="32" height="44" mask-type="alpha"><path d="M34.885 9H17.983C16.342 9 15 10.35 15 12v38c0 1.65 1.342 3 2.983 3h25.85c1.64 0 2.983-1.35 2.983-3V21L34.885 9z" fill="#fff"/></mask><g mask="url(#H)"><path d="M37.867 21c-1.648 0-2.983-1.343-2.983-3v.25c0 1.657 1.335 3 2.983 3h8.948V21h-8.948z" fill="#1a237e" fill-opacity=".1"/></g></g><defs><linearGradient id="I" x1="41.287" y1="21.077" x2="41.287" y2="31.244" gradientUnits="userSpaceOnUse"><stop stop-color="#1a237e" stop-opacity=".2"/><stop offset="1" stop-color="#1a237e" stop-opacity=".02"/></linearGradient></defs></svg>