<?xml version="1.0" encoding="utf-8"?>
<!-- Generator: Adobe Illustrator 22.0.1, SVG Export Plug-In . SVG Version: 6.00 Build 0)  -->
<svg version="1.1" id="Layer_1" xmlns="http://www.w3.org/2000/svg" xmlns:xlink="http://www.w3.org/1999/xlink" x="0px" y="0px"
	 viewBox="0 0 60.1 52.7" style="enable-background:new 0 0 60.1 52.7;" xml:space="preserve">
<style type="text/css">
	.st0{clip-path:url(#SVGID_1_);fill:url(#SVGID_2_);}
	.st1{clip-path:url(#SVGID_3_);fill:url(#SVGID_4_);}
	.st2{clip-path:url(#SVGID_5_);fill:url(#SVGID_6_);}
</style>
<g>
	<g>
		<defs>
			<path id="SVGID_10_" d="M55.6,5.1c7.1,7,5.3,18.2-1.1,25.2c-6.1,6.8-13,13.8-19.6,20.4c-2.7,2.6-6.9,2.6-9.6,0
				c-0.7-0.7-0.9-1.7-0.5-2.6c2.9-6.4,6.5-13.5,11-20.7c1.1-1.8,2.9-4.5,4.3-6.4c0.1-0.2-0.1-0.4-0.3-0.3c-1.6,1.7-3.8,4.1-5.1,5.8
				C30,32.3,26,38.2,22.6,43.9c-0.8,1.3-2.6,1.5-3.7,0.5c-4.6-4.6-9.1-9.4-13.3-14c-6.3-7.2-8.1-18.4-1-25.3C8,1.7,13.4-0.1,17.3,0
				c2.9,0,5.6,0.6,8.1,1.7c1.3,0.6,1.5,2.2,0.7,3.3c-3.4,4.6-6.3,9.3-8.9,13.9c-0.1,0.2,0.2,0.4,0.3,0.2c2.6-3.4,5.4-6.9,8.5-10.3
				c2.7-2.9,5.2-5.6,8.9-7.2c2.5-1,5.2-1.6,8-1.6C46.8-0.1,52.2,1.7,55.6,5.1z"/>
		</defs>
		<clipPath id="SVGID_1_">
			<use xlink:href="#SVGID_10_"  style="overflow:visible;"/>
		</clipPath>

			<radialGradient id="SVGID_2_" cx="-537.6438" cy="56.8911" r="4.1795" gradientTransform="matrix(12.0736 -6.0486 12.7833 25.5166 5771.1367 -4671.4658)" gradientUnits="userSpaceOnUse">
			<stop  offset="0.37" style="stop-color:#3186FF"/>
			<stop  offset="0.55" style="stop-color:#3C90FF"/>
			<stop  offset="0.7" style="stop-color:#00A9BB"/>
			<stop  offset="0.85" style="stop-color:#0EBC5F"/>
		</radialGradient>
		<path class="st0" d="M30.1,53.2c17.5,0,31.6-14.2,31.6-31.6C61.7,4.1,47.5-10,30.1-10C12.6-10.1-1.5,4.1-1.5,21.5
			C-1.5,39,12.6,53.2,30.1,53.2z"/>
	</g>
	<g>
		<defs>
			<path id="SVGID_13_" d="M55.6,5.1c7.1,7,5.3,18.2-1.1,25.2c-6.1,6.8-13,13.8-19.6,20.4c-2.7,2.6-6.9,2.6-9.6,0
				c-0.7-0.7-0.9-1.7-0.5-2.6c2.9-6.4,6.5-13.5,11-20.7c1.1-1.8,2.9-4.5,4.3-6.4c0.1-0.2-0.1-0.4-0.3-0.3c-1.6,1.7-3.8,4.1-5.1,5.8
				C30,32.3,26,38.2,22.6,43.9c-0.8,1.3-2.6,1.5-3.7,0.5c-4.6-4.6-9.1-9.4-13.3-14c-6.3-7.2-8.1-18.4-1-25.3C8,1.7,13.4-0.1,17.3,0
				c2.9,0,5.6,0.6,8.1,1.7c1.3,0.6,1.5,2.2,0.7,3.3c-3.4,4.6-6.3,9.3-8.9,13.9c-0.1,0.2,0.2,0.4,0.3,0.2c2.6-3.4,5.4-6.9,8.5-10.3
				c2.7-2.9,5.2-5.6,8.9-7.2c2.5-1,5.2-1.6,8-1.6C46.8-0.1,52.2,1.7,55.6,5.1z"/>
		</defs>
		<clipPath id="SVGID_3_">
			<use xlink:href="#SVGID_13_"  style="overflow:visible;"/>
		</clipPath>

			<linearGradient id="SVGID_4_" gradientUnits="userSpaceOnUse" x1="28.4356" y1="852.9035" x2="68.0439" y2="813.7842" gradientTransform="matrix(1 0 0 1 0 -793.1823)">
			<stop  offset="5.000000e-02" style="stop-color:#FF63A0"/>
			<stop  offset="0.25" style="stop-color:#FC413D"/>
			<stop  offset="0.5" style="stop-color:#FC413D"/>
			<stop  offset="0.65" style="stop-color:#FF6B2B"/>
			<stop  offset="0.9" style="stop-color:#FEC700"/>
			<stop  offset="1" style="stop-color:#FFDB0F"/>
		</linearGradient>
		<path class="st1" d="M62.9,53.6H18.4C32.3,26,46.7,10.3,56.6,10.3c4.1,0,6.3,2.3,6.3,6.2C62.9,16.5,62.9,53.6,62.9,53.6z"/>
	</g>
	<g>
		<defs>
			<path id="SVGID_16_" d="M55.6,5.1c7.1,7,5.3,18.2-1.1,25.2c-6.1,6.8-13,13.8-19.6,20.4c-2.7,2.6-6.9,2.6-9.6,0
				c-0.7-0.7-0.9-1.7-0.5-2.6c2.9-6.4,6.5-13.5,11-20.7c1.1-1.8,2.9-4.5,4.3-6.4c0.1-0.2-0.1-0.4-0.3-0.3c-1.6,1.7-3.8,4.1-5.1,5.8
				C30,32.3,26,38.2,22.6,43.9c-0.8,1.3-2.6,1.5-3.7,0.5c-4.6-4.6-9.1-9.4-13.3-14c-6.3-7.2-8.1-18.4-1-25.3C8,1.7,13.4-0.1,17.3,0
				c2.9,0,5.6,0.6,8.1,1.7c1.3,0.6,1.5,2.2,0.7,3.3c-3.4,4.6-6.3,9.3-8.9,13.9c-0.1,0.2,0.2,0.4,0.3,0.2c2.6-3.4,5.4-6.9,8.5-10.3
				c2.7-2.9,5.2-5.6,8.9-7.2c2.5-1,5.2-1.6,8-1.6C46.8-0.1,52.2,1.7,55.6,5.1z"/>
		</defs>
		<clipPath id="SVGID_5_">
			<use xlink:href="#SVGID_16_"  style="overflow:visible;"/>
		</clipPath>

			<radialGradient id="SVGID_6_" cx="-549.9622" cy="-82.5476" r="4.1795" gradientTransform="matrix(-7.3041 5.1582 -5.1582 -7.3041 -4416.2134 2234.6675)" gradientUnits="userSpaceOnUse">
			<stop  offset="5.000000e-02" style="stop-color:#A9A8FF"/>
			<stop  offset="0.6" style="stop-color:#3186FF"/>
		</radialGradient>
		<path class="st2" d="M-1.4,37.8H9c4.7-13.7,9-21.2,24.1-39.5H-1.4V37.8z"/>
	</g>
</g>
</svg>
