<svg xmlns="http://www.w3.org/2000/svg" width="62" height="62" fill="none"><g clip-path="url(#A)"><path d="M31 27v8.52h11.84c-.52 2.74-2.08 5.06-4.42 6.62l7.14 5.54c4.16-3.84 6.56-9.48 6.56-16.18a25.28 25.28 0 0 0-.4-4.5H31z" fill="#4285f4"/><path d="M18.67 35.188l-1.61 1.233-5.7 4.44C14.98 48.04 22.399 53 30.999 53c5.94 0 10.92-1.96 14.56-5.32l-7.14-5.54c-1.96 1.32-4.46 2.12-7.42 2.12-5.72 0-10.58-3.86-12.32-9.06l-.009-.013z" fill="#34a853"/><path d="M11.36 21.14a21.73 21.73 0 0 0 0 19.72c0 .02 7.32-5.68 7.32-5.68-.44-1.32-.7-2.72-.7-4.18s.26-2.86.7-4.18l-7.32-5.68z" fill="#fbbc05"/><path d="M31 17.76c3.24 0 6.12 1.12 8.42 3.28l6.3-6.3C41.9 11.18 36.94 9 31 9c-8.6 0-16.02 4.94-19.64 12.14l7.32 5.68c1.74-5.2 6.6-9.06 12.32-9.06z" fill="#ea4335"/></g><defs><clipPath id="A"><path fill="#fff" transform="translate(9 9)" d="M0 0h44v44H0z"/></clipPath></defs></svg>