<svg width="62" height="62" viewBox="0 0 62 62" fill="none" xmlns="http://www.w3.org/2000/svg"><path d="M34.952 9H17.1432C15.466 9 14 10.466 14 12.1432V49.8568C14 51.5322 15.466 53 17.1432 53H44.3799C46.0554 53 47.5231 51.534 47.5231 49.8568V21.5712L40.1895 16.3336L34.952 9Z" fill="#673AB7"/><path d="M26.5712 41.4744H39.1423V39.38H26.5712V41.4744ZM26.5712 27.856V29.9503H39.1423V27.856H26.5712ZM24.6845 28.9049C24.6845 29.7427 24.0562 30.5804 23.0091 30.5804C21.9619 30.5804 21.3336 29.9521 21.3336 28.9049C21.3336 27.8578 21.9619 27.2295 23.0091 27.2295C24.0562 27.2295 24.6845 28.0655 24.6845 28.9049ZM24.6845 34.7708C24.6845 35.6085 24.0562 36.4462 23.0091 36.4462C21.9619 36.4462 21.3336 35.8179 21.3336 34.7708C21.3336 33.7236 21.9619 33.0953 23.0091 33.0953C24.0562 33.0953 24.6845 33.9331 24.6845 34.7708ZM24.6845 40.4272C24.6845 41.2649 24.0562 42.1027 23.0091 42.1027C21.9619 42.1027 21.3336 41.4744 21.3336 40.4272C21.3336 39.38 21.9619 38.7518 23.0091 38.7518C24.0562 38.7518 24.6845 39.5895 24.6845 40.4272ZM26.5712 36.2368H39.1423V34.1407H26.5712V36.2368Z" fill="#F1F1F1"/><path d="M35.7897 20.7334L47.5231 32.2574V21.5711L35.7897 20.7334Z" fill="url(#paint0_linear_2376_2)"/><path d="M34.9519 9V18.4279C34.9519 20.1034 36.4179 21.5712 38.0951 21.5712H47.5231L34.9519 9Z" fill="#B39DDB"/><path d="M17.1432 9C15.466 9 14 10.466 14 12.1432V12.3527C14 10.6755 15.466 9.20943 17.1432 9.20943H34.952V9H17.1432Z" fill="white" fill-opacity="0.2"/><path d="M44.3799 52.7887H17.1432C15.466 52.7887 14 51.3227 14 49.6455V49.8549C14 51.5304 15.466 52.9982 17.1432 52.9982H44.3799C46.0554 52.9982 47.5231 51.5322 47.5231 49.8549V49.6455C47.5231 51.3227 46.0554 52.7887 44.3799 52.7887Z" fill="#311B92" fill-opacity="0.2"/><path d="M38.0934 21.571C36.418 21.571 34.9502 20.1049 34.9502 18.4277V18.6372C34.9502 20.3126 36.4162 21.7804 38.0934 21.7804H47.5214V21.571H38.0934Z" fill="#311B92" fill-opacity="0.1"/><path d="M34.952 9H17.1432C15.466 9 14 10.466 14 12.1432V49.8568C14 51.5322 15.466 53 17.1432 53H44.3799C46.0554 53 47.5231 51.534 47.5231 49.8568V21.5712L34.952 9Z" fill="url(#paint1_radial_2376_2)"/><defs><linearGradient id="paint0_linear_2376_2" x1="41.6556" y1="21.6506" x2="41.6556" y2="32.3015" gradientUnits="userSpaceOnUse"><stop stop-color="#311B92" stop-opacity="0.2"/><stop offset="1" stop-color="#311B92" stop-opacity="0.02"/></linearGradient><radialGradient id="paint1_radial_2376_2" cx="0" cy="0" r="1" gradientUnits="userSpaceOnUse" gradientTransform="translate(15.0606 10.1742) scale(432.407 432.404)"><stop stop-color="white" stop-opacity="0.1"/><stop offset="1" stop-color="white" stop-opacity="0"/></radialGradient></defs></svg>