<svg width="62" height="62" viewBox="0 0 62 62" fill="none" xmlns="http://www.w3.org/2000/svg"><path d="M9 22.2322V36.5578L14.1163 37.5811L19.2326 36.5578V22.2322L14.1163 21.209L9 22.2322Z" fill="#1E88E5"/><path d="M43.7907 29.3953V43.7209C43.7907 45.4164 42.4165 46.7907 40.721 46.7907H19.2326L18.2094 41.6744L19.2326 36.5581H33.5582V29.3953L38.6745 28.3721L43.7907 29.3953Z" fill="#4CAF50"/><path d="M43.7907 15.0698V29.3953H33.5582V22.2326H19.2326L18.2094 17.1163L19.2326 12H40.721C42.4165 12 43.7907 13.3742 43.7907 15.0698Z" fill="#FBC02D"/><path d="M19.2326 36.5586V46.7912H12.0698C10.3742 46.7912 9 45.4169 9 43.7214V36.5586H19.2326Z" fill="#1565C0"/><path d="M19.2326 12V22.2326H9L19.2326 12Z" fill="#E53935"/><path d="M44.8139 29.3926L43.7907 38.0391L33.5581 29.3926L43.7907 20.7461L44.8139 29.3926Z" fill="#2E7D32"/><path d="M53 15.1857V43.6118C53 44.4713 51.9972 44.9522 51.332 44.4099L43.7906 38.0453V20.7522L51.332 14.3876C51.9972 13.8453 53 14.3262 53 15.1857Z" fill="#4CAF50"/></svg>