<svg width="62" height="62" viewBox="0 0 62 62" fill="none" xmlns="http://www.w3.org/2000/svg"><mask id="mask0_1487_11" style="mask-type:luminance" maskUnits="userSpaceOnUse" x="10" y="9" width="43" height="44"><path d="M10 9H52.7625V53H10V9Z" fill="white"/></mask><g mask="url(#mask0_1487_11)"><path d="M20.5009 9.07031L20.5022 19.5849" stroke="#7E916F" stroke-width="3.2"/><path d="M20.5022 19.5848L10 19.582" stroke="#1375EB" stroke-width="3.2"/><path d="M42.3235 9.14941C42.3088 9.15491 42.2964 9.16083 42.2864 9.16729C42.2791 9.17071 42.2731 9.17618 42.2689 9.18303C42.2647 9.18987 42.2627 9.19779 42.263 9.20579L42.2603 19.5884" stroke="#F3801D" stroke-width="3.2"/><path d="M42.2603 19.5889H42.2534" stroke="#7EB426" stroke-width="3.2"/><path d="M20.5063 19.5891L20.5022 19.585" stroke="#91A080" stroke-width="3.2"/><path d="M52.6979 19.5557L42.2603 19.5887" stroke="#75783E" stroke-width="3.2"/><path d="M20.5091 34.1199L10 34.1172" stroke="#138495" stroke-width="3.2"/><path d="M20.5105 44.6307L20.5092 39.3672" stroke="#00983A" stroke-width="3.2"/><path d="M20.5009 9.07031L20.5022 19.5849L10 19.5822V11.8561C10.078 11.3098 10.2397 10.8509 10.4854 10.4797C11.0913 9.56119 11.9722 9.09878 13.1281 9.09231C15.5719 9.07953 18.0296 9.0721 20.5009 9.07031Z" fill="#0066DA"/><path d="M20.5009 9.07031L42.1461 9.07306C42.1918 9.07306 42.2359 9.08695 42.2726 9.11294L42.3235 9.15006C42.3088 9.15556 42.2964 9.16148 42.2864 9.16794C42.2791 9.17136 42.273 9.17683 42.2689 9.18367C42.2647 9.19052 42.2627 9.19844 42.263 9.20644L42.2602 19.5891H20.5064L20.5022 19.5849L20.5009 9.07031Z" fill="#FBBC04"/><path d="M42.3235 9.14941L52.6979 19.5554L42.2603 19.5884L42.263 9.20579C42.263 9.18833 42.2708 9.17554 42.2864 9.16729C42.2964 9.16083 42.3088 9.15491 42.3235 9.14941Z" fill="#EA4335"/><path d="M10 19.582L20.5022 19.5848L20.5064 19.5889L20.5091 34.1199L10 34.1172V19.582Z" fill="#2684FC"/><path d="M52.6979 19.5557L52.7625 19.6024V41.8637C52.5187 43.1956 51.8285 44.0558 50.6918 44.4445C50.2866 44.5838 49.6894 44.6526 48.9002 44.6508C43.7769 44.6425 38.6014 44.6347 33.3737 44.6274C32.6147 44.6265 31.8447 44.632 31.0637 44.6439C31.0206 44.6449 30.9839 44.6604 30.9537 44.6907C28.3806 47.2518 25.8139 49.8194 23.2537 52.3934C22.859 52.7908 22.4122 53.0122 21.8457 52.9283C21.3177 52.8503 20.9285 52.5781 20.6783 52.1115C20.5728 51.9135 20.5192 51.5523 20.5174 51.028C20.5109 48.9023 20.5087 46.7697 20.5105 44.6302L20.5092 39.3667L25.7039 34.1719C25.7496 34.1261 25.812 34.1004 25.8772 34.1004L42.1434 34.1059C42.206 34.1059 42.2575 34.0544 42.2575 33.9918L42.2534 19.5887H42.2603L52.6979 19.5557Z" fill="#00AC47"/><path d="M20.5091 34.1199V39.3669L20.5105 44.6304C18.3132 44.6432 16.1348 44.6474 13.9751 44.6428C13.0749 44.641 12.4265 44.5703 12.0295 44.4311C10.9167 44.0423 10.2402 43.1808 10 41.8461V34.1172L20.5091 34.1199Z" fill="#00832D"/></g></svg>