<svg width="62" height="62" viewBox="0 0 62 62" fill="none" xmlns="http://www.w3.org/2000/svg"><path fill-rule="evenodd" clip-rule="evenodd" d="M21.3379 14.2703L24.6082 11V17.2432H21.3379V14.2703ZM40.6622 14.2703L37.3919 11V17.2432H40.6622V14.2703Z" fill="#7B7B7B"/><path d="M24.6082 11H37.3919V14.1216H24.6082V11Z" fill="#5A5A5A"/><path fill-rule="evenodd" clip-rule="evenodd" d="M49.4324 50.2441H12.5676C11.6214 50.2441 10.714 49.8683 10.0449 49.1992C9.37587 48.5302 9 47.6228 9 46.6766V23.3741L15.13 17.2441H46.87L53 23.3741V46.6766C53 47.6228 52.6241 48.5302 51.9551 49.1992C51.286 49.8683 50.3786 50.2441 49.4324 50.2441Z" fill="#E6E7E8"/><path fill-rule="evenodd" clip-rule="evenodd" d="M9 29.8793V23.3741L15.13 17.2441H46.87L53 23.3741V29.8793H9Z" fill="#D0D1D2"/><path fill-rule="evenodd" clip-rule="evenodd" d="M14.0541 50.2441V24.9738C14.0541 24.5796 14.2107 24.2015 14.4895 23.9227C14.7682 23.6439 15.1463 23.4873 15.5406 23.4873H46.4595C46.8537 23.4873 47.2318 23.6439 47.5106 23.9227C47.7894 24.2015 47.946 24.5796 47.946 24.9738V50.2441H14.0541Z" fill="#458CF5"/><path d="M14.0541 29.8789H47.946V50.2438H14.0541V29.8789Z" fill="white"/><path fill-rule="evenodd" clip-rule="evenodd" d="M37.8378 50.2431V44.1485L34.8648 41.1755L32.9324 35.8242L34.2702 32.4053L41.8513 39.9864L43.1891 34.3377L47.9459 39.0945V50.2431H37.8378Z" fill="#D2D3D4"/><path d="M16.2838 32.2568H27.5811V44.892H16.2838V32.2568ZM16.2838 47.7163H30.8514V50.2433H16.2838V47.7163Z" fill="#D2D3D4"/><path fill-rule="evenodd" clip-rule="evenodd" d="M40.6621 45.5016V50.2435H34.4189V45.569C33.1461 44.9897 32.0647 44.0597 31.3013 42.888C30.5379 41.7163 30.1242 40.3513 30.1086 38.953C30.093 37.5546 30.4762 36.1808 31.2132 34.9923C31.9503 33.8039 33.0107 32.85 34.2703 32.2425V39.2435L37.3919 41.176L40.6621 39.2435V32.2422C41.9093 32.8438 42.9616 33.7851 43.6979 34.9578C44.4342 36.1305 44.8248 37.4872 44.8248 38.8719C44.8248 40.2567 44.4342 41.6133 43.6979 42.786C42.9616 43.9588 41.9093 44.9 40.6621 45.5016Z" fill="#505050"/><path fill-rule="evenodd" clip-rule="evenodd" d="M17.5473 25.1221C17.7972 25.1221 18.0415 25.1962 18.2493 25.335C18.4571 25.4738 18.619 25.6712 18.7147 25.9021C18.8103 26.1329 18.8353 26.387 18.7866 26.6321C18.7378 26.8772 18.6175 27.1023 18.4408 27.279C18.2641 27.4557 18.0389 27.5761 17.7938 27.6248C17.5487 27.6736 17.2947 27.6486 17.0638 27.5529C16.8329 27.4573 16.6356 27.2953 16.4968 27.0876C16.3579 26.8798 16.2838 26.6355 16.2838 26.3856C16.2838 26.0505 16.4169 25.7291 16.6539 25.4921C16.8908 25.2552 17.2122 25.1221 17.5473 25.1221ZM21.2635 25.1221C21.5134 25.1221 21.7577 25.1962 21.9655 25.335C22.1733 25.4738 22.3352 25.6712 22.4309 25.9021C22.5265 26.1329 22.5515 26.387 22.5028 26.6321C22.454 26.8772 22.3337 27.1023 22.157 27.279C21.9803 27.4557 21.7551 27.5761 21.51 27.6248C21.2649 27.6736 21.0109 27.6486 20.78 27.5529C20.5491 27.4573 20.3518 27.2953 20.213 27.0876C20.0741 26.8798 20 26.6355 20 26.3856C20 26.0505 20.1331 25.7291 20.3701 25.4921C20.6071 25.2552 20.9284 25.1221 21.2635 25.1221Z" fill="#E6E7E8"/></svg>