<svg width="62" height="62" viewBox="0 0 62 62" fill="none" xmlns="http://www.w3.org/2000/svg"><path d="M18.553 48.1881L9.52957 32.5585C9.18264 31.9577 9 31.276 9 30.5822C9 29.8883 9.18264 29.2067 9.52957 28.6058L18.553 12.9766C18.9 12.3756 19.399 11.8765 20 11.5296C20.601 11.1826 21.2828 11 21.9767 11H40.0235C40.7174 11 41.3991 11.1827 42 11.5296C42.601 11.8766 43.1 12.3756 43.4469 12.9766L52.4703 28.6058C52.8173 29.2067 53 29.8884 53 30.5823C53 31.2763 52.8173 31.958 52.4703 32.5589L43.4469 48.1881C43.0999 48.789 42.6009 49.2879 42 49.6348C41.399 49.9817 40.7174 50.1643 40.0235 50.1643H21.9767C21.2827 50.1644 20.601 49.9818 20 49.6348C19.399 49.2879 18.8999 48.7891 18.553 48.1881Z" fill="url(#paint0_linear_2376_18)"/><path opacity="0.07" d="M49.985 38.3099L36.7149 25.0391L31.0001 23.5098L25.8669 25.4176L23.8845 30.5824L25.4785 36.333L39.5509 50.4054L42.537 50.2727L49.985 38.3099Z" fill="black"/><path d="M30.9996 22.6074C26.5962 22.6074 23.0264 26.1773 23.0264 30.581C23.0264 34.9844 26.5962 38.5543 30.9996 38.5543C35.403 38.5543 38.9725 34.9844 38.9725 30.581C38.9725 26.1773 35.4027 22.6074 30.9996 22.6074ZM30.9996 36.6307C27.6584 36.6307 24.9496 33.9219 24.9496 30.5807C24.9496 27.2394 27.6584 24.531 30.9996 24.531C34.3409 24.531 37.0496 27.2398 37.0496 30.581C37.0496 33.9223 34.3409 36.6307 30.9996 36.6307Z" fill="white"/><path d="M27.215 30.2729V32.7513C27.5817 33.3809 28.099 33.9095 28.7206 34.2896V30.2729H27.215ZM30.2004 28.1836V34.8561C30.4565 34.9032 30.7185 34.9317 30.9876 34.9317C31.233 34.9317 31.4723 34.9059 31.7071 34.8668V28.1836H30.2004ZM33.3254 31.3028V34.2459C33.9569 33.8444 34.4754 33.2883 34.8318 32.6303V31.3031L33.3254 31.3028ZM36.7372 35.492L35.9111 36.3188C35.8412 36.3889 35.8019 36.4839 35.8019 36.5829C35.8019 36.682 35.8412 36.777 35.9111 36.8471L39.0444 39.9793C39.1145 40.0493 39.2095 40.0886 39.3086 40.0886C39.4076 40.0886 39.5026 40.0493 39.5727 39.9793L40.3988 39.1537C40.4683 39.0834 40.5073 38.9885 40.5073 38.8896C40.5073 38.7908 40.4683 38.6959 40.3988 38.6257L37.2651 35.492C37.195 35.4223 37.1001 35.3832 37.0011 35.3832C36.9022 35.3832 36.8073 35.4223 36.7372 35.492Z" fill="white"/><defs><linearGradient id="paint0_linear_2376_18" x1="31.0001" y1="11.0003" x2="31.0001" y2="50.1035" gradientUnits="userSpaceOnUse"><stop stop-color="#4387FD"/><stop offset="1" stop-color="#4683EA"/></linearGradient></defs></svg>