<svg width="62" height="62" viewBox="0 0 62 62" fill="none" xmlns="http://www.w3.org/2000/svg"><path d="M35.9885 9.71206C34.5296 9.25183 32.9666 9 31.3514 9C26.6362 9 22.4159 11.1275 19.5938 14.4794L26.8446 20.5753L35.9885 9.71206Z" fill="#1A73E8"/><path d="M19.595 14.4794C17.2704 17.2404 15.997 20.7346 16 24.344C16 27.227 16.5731 29.5715 17.5196 31.6643L26.8459 20.5753L19.595 14.4794Z" fill="#EA4335"/><path d="M31.3575 18.4825C32.4769 18.4835 33.5726 18.8044 34.5158 19.4073C35.4589 20.0102 36.2101 20.8701 36.6809 21.8856C37.1517 22.9012 37.3225 24.0301 37.1733 25.1395C37.024 26.2488 36.5608 27.2924 35.8383 28.1474L44.9735 17.2842C43.0984 13.6715 39.8657 10.9511 35.9859 9.7207L26.8594 20.5839C27.4093 19.9254 28.0973 19.3958 28.8746 19.0326C29.6519 18.6695 30.4995 18.4817 31.3575 18.4825Z" fill="#4285F4"/><path d="M31.3565 30.2228C28.1175 30.2228 25.4863 27.5917 25.4863 24.3527C25.4825 22.9735 25.9688 21.6379 26.8584 20.584L17.5234 31.673C19.1212 35.2072 21.7697 38.0468 24.4964 41.6245L35.8372 28.1474C35.2863 28.7984 34.5999 29.3214 33.826 29.6799C33.0521 30.0383 32.2093 30.2236 31.3565 30.2228Z" fill="#FBBC04"/><path d="M35.6064 45.2976C40.7297 37.2913 46.6954 33.6529 46.6954 24.344C46.6954 21.791 46.0702 19.3857 44.9673 17.2668L24.5 41.6245C25.3684 42.762 26.2454 43.969 27.0964 45.3063C30.2052 50.1171 29.3455 53 31.3514 53C33.3573 53 32.4976 50.1084 35.6064 45.2976Z" fill="#34A853"/></svg>