<svg width="62" height="62" viewBox="0 0 62 62" fill="none" xmlns="http://www.w3.org/2000/svg">
<mask id="mask0_496_1998" style="mask-type:alpha" maskUnits="userSpaceOnUse" x="15" y="9" width="32" height="44">
<path d="M34.9751 9.62891H18.4614C16.8586 9.62891 15.5472 10.9403 15.5472 12.5431V49.456C15.5472 51.0588 16.8586 52.3702 18.4614 52.3702H43.7177C45.3204 52.3702 46.6318 51.0588 46.6318 49.456V21.2856L34.9751 9.62891Z" fill="white"/>
</mask>
<g mask="url(#mask0_496_1998)">
<path d="M34.9751 9.62891H18.4614C16.8586 9.62891 15.5472 10.9403 15.5472 12.5431V49.456C15.5472 51.0588 16.8586 52.3702 18.4614 52.3702H43.7177C45.3204 52.3702 46.6318 51.0588 46.6318 49.456V21.2856L39.8321 16.4286L34.9751 9.62891Z" fill="#0F9D58"/>
</g>
<mask id="mask1_496_1998" style="mask-type:alpha" maskUnits="userSpaceOnUse" x="15" y="9" width="32" height="44">
<path d="M34.9751 9.62891H18.4614C16.8586 9.62891 15.5472 10.9403 15.5472 12.5431V49.456C15.5472 51.0588 16.8586 52.3702 18.4614 52.3702H43.7177C45.3204 52.3702 46.6318 51.0588 46.6318 49.456V21.2856L34.9751 9.62891Z" fill="white"/>
</mask>
<g mask="url(#mask1_496_1998)">
<path d="M23.3184 30.5137V44.5989H38.8607V30.5137H23.3184ZM30.1181 42.6561H25.2612V40.2276H30.1181V42.6561ZM30.1181 38.7705H25.2612V36.342H30.1181V38.7705ZM30.1181 34.8849H25.2612V32.4564H30.1181V34.8849ZM36.9179 42.6561H32.0609V40.2276H36.9179V42.6561ZM36.9179 38.7705H32.0609V36.342H36.9179V38.7705ZM36.9179 34.8849H32.0609V32.4564H36.9179V34.8849Z" fill="#F1F1F1"/>
</g>
<mask id="mask2_496_1998" style="mask-type:alpha" maskUnits="userSpaceOnUse" x="15" y="9" width="32" height="44">
<path d="M34.9751 9.62891H18.4614C16.8586 9.62891 15.5472 10.9403 15.5472 12.5431V49.456C15.5472 51.0588 16.8586 52.3702 18.4614 52.3702H43.7177C45.3204 52.3702 46.6318 51.0588 46.6318 49.456V21.2856L34.9751 9.62891Z" fill="white"/>
</mask>
<g mask="url(#mask2_496_1998)">
<path d="M35.8275 20.4336L46.6318 31.2355V21.286L35.8275 20.4336Z" fill="url(#paint0_linear_496_1998)"/>
</g>
<mask id="mask3_496_1998" style="mask-type:alpha" maskUnits="userSpaceOnUse" x="15" y="9" width="32" height="44">
<path d="M34.9751 9.62891H18.4614C16.8586 9.62891 15.5472 10.9403 15.5472 12.5431V49.456C15.5472 51.0588 16.8586 52.3702 18.4614 52.3702H43.7177C45.3204 52.3702 46.6318 51.0588 46.6318 49.456V21.2856L34.9751 9.62891Z" fill="white"/>
</mask>
<g mask="url(#mask3_496_1998)">
<path d="M34.9751 9.62891V18.3715C34.9751 19.9815 36.2792 21.2856 37.8893 21.2856H46.6318L34.9751 9.62891Z" fill="#87CEAC"/>
</g>
<mask id="mask4_496_1998" style="mask-type:alpha" maskUnits="userSpaceOnUse" x="15" y="9" width="32" height="44">
<path d="M34.9751 9.62891H18.4614C16.8586 9.62891 15.5472 10.9403 15.5472 12.5431V49.456C15.5472 51.0588 16.8586 52.3702 18.4614 52.3702H43.7177C45.3204 52.3702 46.6318 51.0588 46.6318 49.456V21.2856L34.9751 9.62891Z" fill="white"/>
</mask>
<g mask="url(#mask4_496_1998)">
<path d="M18.4614 9.62891C16.8586 9.62891 15.5472 10.9403 15.5472 12.5431V12.7859C15.5472 11.1831 16.8586 9.87176 18.4614 9.87176H34.9751V9.62891H18.4614Z" fill="white" fill-opacity="0.2"/>
</g>
<mask id="mask5_496_1998" style="mask-type:alpha" maskUnits="userSpaceOnUse" x="15" y="9" width="32" height="44">
<path d="M34.9751 9.62891H18.4614C16.8586 9.62891 15.5472 10.9403 15.5472 12.5431V49.456C15.5472 51.0588 16.8586 52.3702 18.4614 52.3702H43.7177C45.3204 52.3702 46.6318 51.0588 46.6318 49.456V21.2856L34.9751 9.62891Z" fill="white"/>
</mask>
<g mask="url(#mask5_496_1998)">
<path d="M43.7177 52.1271H18.4614C16.8586 52.1271 15.5472 50.8157 15.5472 49.2129V49.4557C15.5472 51.0586 16.8586 52.3699 18.4614 52.3699H43.7177C45.3204 52.3699 46.6318 51.0586 46.6318 49.4557V49.2129C46.6318 50.8157 45.3204 52.1271 43.7177 52.1271Z" fill="#263238" fill-opacity="0.2"/>
</g>
<mask id="mask6_496_1998" style="mask-type:alpha" maskUnits="userSpaceOnUse" x="15" y="9" width="32" height="44">
<path d="M34.9751 9.62891H18.4614C16.8586 9.62891 15.5472 10.9403 15.5472 12.5431V49.456C15.5472 51.0588 16.8586 52.3702 18.4614 52.3702H43.7177C45.3204 52.3702 46.6318 51.0588 46.6318 49.456V21.2856L34.9751 9.62891Z" fill="white"/>
</mask>
<g mask="url(#mask6_496_1998)">
<path d="M37.8893 21.2853C36.2792 21.2853 34.9751 19.9811 34.9751 18.3711V18.6139C34.9751 20.224 36.2792 21.5281 37.8893 21.5281H46.6318V21.2853H37.8893Z" fill="#263238" fill-opacity="0.1"/>
</g>
<path d="M34.9751 9.62891H18.4614C16.8586 9.62891 15.5472 10.9403 15.5472 12.5431V49.456C15.5472 51.0588 16.8586 52.3702 18.4614 52.3702H43.7177C45.3204 52.3702 46.6318 51.0588 46.6318 49.456V21.2856L34.9751 9.62891Z" fill="url(#paint1_radial_496_1998)"/>
<defs>
<linearGradient id="paint0_linear_496_1998" x1="41.2303" y1="21.3611" x2="41.2303" y2="31.237" gradientUnits="userSpaceOnUse">
<stop stop-color="#263238" stop-opacity="0.2"/>
<stop offset="1" stop-color="#263238" stop-opacity="0.02"/>
</linearGradient>
<radialGradient id="paint1_radial_496_1998" cx="0" cy="0" r="1" gradientUnits="userSpaceOnUse" gradientTransform="translate(16.532 10.4785) scale(50.1235 50.1235)">
<stop stop-color="white" stop-opacity="0.1"/>
<stop offset="1" stop-color="white" stop-opacity="0"/>
</radialGradient>
</defs>
</svg>
