<svg width="62" height="62" viewBox="0 0 62 62" fill="none" xmlns="http://www.w3.org/2000/svg"><path d="M25.3984 11.0224C25.8445 11.0228 26.2906 11.0228 26.7367 11.0224C27.6689 11.0228 28.601 11.0274 29.5331 11.0351C30.7259 11.0449 31.9185 11.046 33.1113 11.0441C34.0315 11.0434 34.9516 11.0464 35.8717 11.0506C36.3115 11.0523 36.7512 11.0531 37.191 11.0529C37.8059 11.0533 38.4206 11.0586 39.0354 11.0652C39.2158 11.0645 39.3961 11.0637 39.5818 11.063C40.906 11.0849 41.8976 11.393 42.912 12.2569C43.9929 13.5472 44.7782 14.9678 45.5774 16.4445C45.8798 16.994 46.1826 17.5433 46.4859 18.0923C46.7172 18.5116 46.7172 18.5116 46.9532 18.9395C47.7019 20.2821 48.4763 21.6094 49.2536 22.9356C49.3901 23.1684 49.5265 23.4013 49.667 23.6412C49.7993 23.8668 49.9316 24.0924 50.0679 24.3248C50.1973 24.5455 50.3267 24.7661 50.46 24.9935C50.7537 25.4932 51.0484 25.9923 51.3438 26.4911C51.4995 26.7552 51.6552 27.0194 51.8157 27.2915C51.9581 27.5322 52.1006 27.7729 52.2474 28.0209C52.9486 29.287 53.0228 30.4268 52.8376 31.8417C52.0291 33.8305 50.8698 35.6896 49.7766 37.5329C49.4742 38.0462 49.1721 38.5595 48.8701 39.073C48.7143 39.3377 48.5586 39.6024 48.3982 39.875C47.9009 40.7264 47.4105 41.5812 46.9223 42.4378C46.7576 42.7262 46.5929 43.0145 46.4281 43.3029C46.1149 43.852 45.8026 44.4016 45.4914 44.9519C42.9388 49.4156 42.9388 49.4156 41.0244 50.0537C40.386 50.0811 39.754 50.095 39.1154 50.0973C38.9212 50.0989 38.727 50.1005 38.5269 50.1022C37.8841 50.107 37.2412 50.1099 36.5983 50.1123C36.3785 50.1133 36.1586 50.1143 35.9322 50.1154C34.7685 50.1205 33.6048 50.124 32.4411 50.1263C31.2409 50.1291 30.0407 50.1375 28.8405 50.1473C27.9162 50.1537 26.9918 50.1558 26.0674 50.1567C25.6251 50.1579 25.1828 50.1607 24.7405 50.1653C24.1202 50.1713 23.5002 50.1711 22.8799 50.1694C22.6985 50.1725 22.5172 50.1757 22.3303 50.1789C20.9675 50.1653 20.2204 49.8148 19.1207 49.0693C18.6324 48.5353 18.6324 48.5353 18.2526 47.956C18.1102 47.7391 17.9678 47.5222 17.8211 47.2987C17.1069 46.1332 16.4381 44.9466 15.7829 43.7472C14.4426 41.3224 13.0694 38.9199 11.6653 36.5315C11.2776 35.8715 10.8918 35.2105 10.5069 34.5489C10.3872 34.345 10.2675 34.1411 10.1442 33.9311C10.0336 33.7387 9.92294 33.5463 9.80897 33.3481C9.71209 33.1811 9.61521 33.014 9.51539 32.8419C8.97928 31.7024 8.84367 30.5225 9.19249 29.3079C9.85261 27.6866 10.6684 26.2041 11.5683 24.7045C11.8755 24.1858 12.1824 23.667 12.4892 23.1481C12.6481 22.8802 12.807 22.6123 12.9706 22.3363C13.4682 21.4916 13.9589 20.6434 14.4466 19.7929C14.5278 19.6514 14.6089 19.51 14.6926 19.3642C15.0832 18.6831 15.4731 18.0016 15.8625 17.3198C16.2877 16.5792 16.7192 15.8426 17.1518 15.1063C17.2912 14.8603 17.4305 14.6143 17.574 14.3609C17.7843 14.0051 17.7843 14.0051 17.9988 13.6421C18.1202 13.4322 18.2415 13.2223 18.3666 13.006C20.267 10.7357 22.6551 10.995 25.3984 11.0224ZM26.21 22.6447C25.8175 23.229 25.5526 23.8126 25.2734 24.4584C24.9778 24.933 24.6753 25.4033 24.3669 25.8697C24.0584 26.3629 23.7504 26.8564 23.443 27.3502C23.2833 27.5999 23.1235 27.8495 22.959 28.1068C22.8094 28.3482 22.6598 28.5896 22.5057 28.8384C22.3013 29.1633 22.3013 29.1633 22.0928 29.4947C21.7631 30.2716 21.7974 30.5567 22.074 31.3494C22.3671 31.9202 22.6673 32.4644 22.996 33.0136C23.0873 33.1691 23.1787 33.3246 23.2728 33.4848C23.4654 33.8119 23.6588 34.1385 23.8531 34.4646C24.1505 34.964 24.4451 35.465 24.7394 35.9664C24.9272 36.2845 25.1151 36.6026 25.3032 36.9205C25.3914 37.0702 25.4796 37.22 25.5705 37.3742C25.9277 37.9724 26.2552 38.484 26.7501 38.9788C29.3568 39.5439 32.8392 40.0248 35.3639 38.9788C37.3569 37.5205 38.3583 34.7994 39.2445 32.5806C39.5477 31.8417 39.5477 31.8417 40.04 31.1033C39.9789 29.8832 39.5017 29.0025 38.8632 27.9924C38.7713 27.8427 38.6794 27.693 38.5847 27.5387C38.2926 27.0643 37.9974 26.5919 37.7019 26.1196C37.5033 25.7987 37.305 25.4776 37.1068 25.1563C36.8285 24.7051 36.5499 24.2541 36.2695 23.8042C35.9497 23.2908 35.6346 22.7848 35.3639 22.2434C34.1643 22.1885 32.9654 22.1484 31.7648 22.1217C31.357 22.1106 30.9492 22.0955 30.5417 22.0763C28.2606 21.8862 28.2606 21.8862 26.21 22.6447Z" fill="#4184F3"/><path d="M22.7843 11.101C23.0763 11.0991 23.0763 11.0991 23.3741 11.0972C24.0168 11.0938 24.6595 11.094 25.3023 11.0946C25.7498 11.0936 26.1973 11.0926 26.6448 11.0914C27.5828 11.0896 28.5208 11.0896 29.4588 11.0909C30.6594 11.0924 31.8598 11.0882 33.0603 11.0825C33.9847 11.0788 34.909 11.0786 35.8334 11.0794C36.2759 11.0793 36.7184 11.078 37.1609 11.0755C37.7806 11.0725 38.4001 11.0741 39.0198 11.077C39.2017 11.0751 39.3835 11.0732 39.5709 11.0713C40.9028 11.0848 41.8918 11.3881 42.912 12.2569C43.9929 13.5473 44.7782 14.9679 45.5774 16.4446C45.8798 16.9941 46.1826 17.5433 46.4859 18.0923C46.7172 18.5117 46.7172 18.5117 46.9532 18.9395C47.7019 20.2822 48.4762 21.6095 49.2536 22.9357C49.3901 23.1685 49.5265 23.4014 49.667 23.6413C49.7993 23.8669 49.9316 24.0924 50.0679 24.3249C50.1973 24.5455 50.3267 24.7662 50.46 24.9936C50.7537 25.4933 51.0484 25.9924 51.3438 26.4912C51.4995 26.7553 51.6552 27.0195 51.8157 27.2916C51.9581 27.5323 52.1006 27.773 52.2474 28.021C52.9489 29.2876 53.0217 30.4263 52.8376 31.8417C51.9846 33.9555 50.733 35.9281 49.5767 37.8868C49.4231 38.149 49.2696 38.4112 49.1114 38.6814C47.9997 40.5752 47.9997 40.5752 47.4232 41.44C47.2608 41.44 47.0983 41.44 46.931 41.44C46.6587 41.0741 46.6587 41.0741 46.358 40.5536C46.2439 40.3591 46.1298 40.1645 46.0123 39.9641C45.8275 39.6439 45.8275 39.6439 45.6389 39.3173C45.3748 38.869 45.1101 38.421 44.8448 37.9733C44.7049 37.737 44.5649 37.5008 44.4206 37.2573C43.6646 35.9951 42.8859 34.7475 42.1011 33.503C41.8783 33.1448 41.8783 33.1448 41.651 32.7794C41.5121 32.5601 41.3732 32.3408 41.2301 32.1148C41.1071 31.9193 40.9842 31.7238 40.8575 31.5223C40.6964 31.315 40.6964 31.315 40.5322 31.1034C40.3697 31.1034 40.2073 31.1034 40.04 31.1034C39.9374 30.8523 39.8348 30.6011 39.7291 30.3423C39.3427 29.4419 38.8759 28.6152 38.3681 27.7761C38.2818 27.6323 38.1954 27.4884 38.1065 27.3401C37.8342 26.8866 37.5606 26.4338 37.2866 25.9813C36.9229 25.3805 36.5607 24.7789 36.1993 24.1768C36.039 23.912 35.8788 23.6471 35.7136 23.3742C35.3639 22.7357 35.3639 22.7357 35.3639 22.2435C35.0657 22.2566 35.0657 22.2566 34.7615 22.27C27.574 22.5679 20.4035 22.4212 13.2141 22.2435C14.1974 20.2055 15.2657 18.2293 16.4169 16.2825C16.678 15.8396 16.9354 15.3947 17.1927 14.9497C17.3612 14.6634 17.5299 14.3772 17.6989 14.0912C17.848 13.8367 17.9971 13.5823 18.1508 13.3201C19.3904 11.5689 20.7185 11.0941 22.7843 11.101Z" fill="#4184F3"/><path d="M13.7481 22.2148C13.9837 22.2154 14.2192 22.2159 14.4619 22.2165C14.7279 22.2165 14.994 22.2165 15.2681 22.2166C15.7023 22.2185 15.7023 22.2185 16.1452 22.2204C16.4398 22.2208 16.7344 22.2211 17.038 22.2215C17.9834 22.2228 18.9289 22.2259 19.8743 22.2291C20.5134 22.2303 21.1526 22.2314 21.7917 22.2324C23.3624 22.2351 24.9331 22.2393 26.5039 22.2444C26.1763 23.3631 25.7273 24.2457 25.0935 25.2218C24.9144 25.5029 24.7355 25.7841 24.5566 26.0654C24.2761 26.5027 23.9945 26.9392 23.7107 27.3743C23.4352 27.7982 23.1643 28.2248 22.8939 28.6519C22.7308 28.9041 22.5677 29.1564 22.3996 29.4163C22.0286 30.082 22.0286 30.082 22.0881 30.7235C22.3892 31.5374 22.7963 32.2651 23.242 33.0059C23.379 33.2383 23.379 33.2383 23.5188 33.4754C23.8097 33.9679 24.1031 34.4588 24.3965 34.9498C24.593 35.2817 24.7893 35.6137 24.9854 35.9458C25.9615 37.604 25.9615 37.604 26.9961 39.2259C25.0602 39.2469 23.1248 39.2506 21.1888 39.2425C20.5302 39.2405 19.8724 39.2449 19.2137 39.2521C18.2665 39.2617 17.3202 39.2572 16.373 39.25C16.0792 39.256 15.7853 39.2621 15.4826 39.2683C13.4827 39.2338 13.4827 39.2338 12.7141 38.5073C12.3317 37.941 12.0312 37.3809 11.7373 36.7648C11.5158 36.3967 11.2916 36.0301 11.0634 35.666C10.8513 35.2996 10.6401 34.9327 10.4299 34.5653C10.3212 34.3846 10.2126 34.2039 10.1006 34.0178C9.23279 32.4934 8.74391 31.0113 9.18396 29.2625C9.77449 27.6799 10.653 26.2459 11.5374 24.8132C11.6717 24.5916 11.8061 24.37 11.9445 24.1417C13.0961 22.251 13.0961 22.251 13.7481 22.2148Z" fill="#4185F4"/><path d="M13.2141 38.9786C15.0796 38.9224 16.9449 38.8836 18.811 38.8569C19.4456 38.8458 20.0801 38.8307 20.7145 38.8115C21.6274 38.7846 22.5395 38.772 23.4526 38.7623C23.7357 38.7508 24.0188 38.7394 24.3104 38.7276C26.2314 38.7264 26.2314 38.7264 26.9806 39.4195C27.3698 39.9933 27.6781 40.5701 27.9806 41.1936C28.1739 41.515 28.3701 41.8348 28.5697 42.1523C28.7572 42.4672 28.9441 42.7824 29.1304 43.098C29.2812 43.352 29.2812 43.352 29.4351 43.6112C29.6446 43.9644 29.8539 44.3178 30.0628 44.6713C30.3823 45.2117 30.7027 45.7515 31.0233 46.2912C31.2282 46.6368 31.4329 46.9824 31.6377 47.328C31.7803 47.5684 31.7803 47.5684 31.9259 47.8136C32.3602 48.5493 32.7723 49.2869 33.1489 50.0535C31.428 50.0785 29.7071 50.0957 27.9861 50.1075C27.401 50.1125 26.8159 50.1192 26.2309 50.1277C25.3884 50.1397 24.5461 50.1453 23.7035 50.1496C23.4433 50.1547 23.183 50.1598 22.9148 50.165C21.3434 50.1655 20.388 50.0239 19.1207 49.069C18.6384 48.5449 18.6384 48.5449 18.2632 47.9731C18.1212 47.7569 17.9792 47.5407 17.833 47.3179C17.0585 46.0539 16.3286 44.7685 15.6137 43.4701C15.4633 43.2001 15.3129 42.9301 15.158 42.6519C14.4844 41.4387 13.8287 40.223 13.2141 38.9786Z" fill="#1966D2"/><path d="M22.0848 11.1134C22.4543 11.1134 22.4543 11.1134 22.8312 11.1135C23.0953 11.116 23.3593 11.1185 23.6314 11.1212C23.9032 11.1219 24.1749 11.1226 24.4549 11.1233C25.3225 11.126 26.1901 11.1322 27.0577 11.1385C27.6461 11.1409 28.2344 11.1432 28.8228 11.1452C30.2648 11.1506 31.7069 11.1589 33.1489 11.1692C32.0176 13.2859 30.8163 15.3558 29.5901 17.4184C29.269 17.9588 28.9492 18.5001 28.6295 19.0413C28.4249 19.3864 28.2201 19.7313 28.0152 20.0762C27.9201 20.2375 27.825 20.3987 27.727 20.5648C27.3562 21.1866 27.0181 21.73 26.504 22.2441C25.9403 22.3033 25.9403 22.3033 25.2281 22.3C24.9621 22.3 24.6961 22.2999 24.422 22.2999C24.1338 22.2973 23.8456 22.2948 23.5488 22.2922C23.2545 22.2915 22.9602 22.2908 22.657 22.2901C21.7141 22.2873 20.7712 22.2811 19.8283 22.2749C19.1903 22.2724 18.5522 22.2702 17.9142 22.2682C16.3475 22.2627 14.7808 22.2545 13.2141 22.2441C14.2167 20.2124 15.264 18.2328 16.4169 16.2831C16.678 15.8402 16.9354 15.3953 17.1927 14.9503C17.3612 14.664 17.5299 14.3778 17.6989 14.0918C17.848 13.8373 17.9971 13.5829 18.1508 13.3208C19.1505 11.9085 20.3533 11.1046 22.0848 11.1134Z" fill="#1967D2"/><path d="M47.1772 19.7832C47.913 20.4292 48.333 21.1853 48.8144 22.0318C48.9404 22.2527 48.9404 22.2527 49.069 22.478C49.2464 22.7894 49.4232 23.1012 49.5995 23.4132C49.8661 23.8849 50.1344 24.3556 50.403 24.826C53.1931 29.7251 53.1931 29.7251 52.8377 31.8425C51.9625 33.9519 50.7355 35.9247 49.5767 37.8876C49.3464 38.2809 49.3464 38.2809 49.1114 38.6821C47.9998 40.576 47.9998 40.576 47.4233 41.4408C47.2609 41.4408 47.0984 41.4408 46.9311 41.4408C46.6588 41.0748 46.6588 41.0748 46.3581 40.5544C46.244 40.3599 46.1298 40.1655 46.0122 39.9651C45.889 39.7516 45.7659 39.5381 45.639 39.3181C44.7916 37.8676 43.9317 36.4327 43.0078 35.0294C42.8491 34.7874 42.6904 34.5454 42.5268 34.296C42.2161 33.8249 41.9026 33.3556 41.5861 32.8884C41.4449 32.673 41.3036 32.4576 41.1581 32.2357C41.0313 32.0467 40.9044 31.8576 40.7737 31.6628C40.4592 30.9353 40.527 30.6207 40.7784 29.8737C41.1326 29.2012 41.1326 29.2012 41.5859 28.4749C41.8345 28.0737 41.8345 28.0737 42.0882 27.6644C42.2668 27.3804 42.4454 27.0965 42.6242 26.8127C42.8044 26.5236 42.9845 26.2344 43.1645 25.9451C43.6789 25.1199 44.197 24.2971 44.7161 23.4748C44.8477 23.2663 44.9793 23.0578 45.1149 22.843C46.8369 20.1235 46.8369 20.1235 47.1772 19.7832Z" fill="#1967D2"/></svg>