<svg xmlns="http://www.w3.org/2000/svg" width="62" height="62" fill="none"><mask id="A" maskUnits="userSpaceOnUse" x="15" y="9" width="32" height="44" mask-type="alpha"><path d="M34.975 9.629H18.461c-1.603 0-2.914 1.311-2.914 2.914v36.913c0 1.603 1.311 2.914 2.914 2.914h25.256c1.603 0 2.914-1.311 2.914-2.914v-28.17L34.975 9.629z" fill="#fff"/></mask><g mask="url(#A)"><path d="M34.975 9.629H18.461c-1.603 0-2.914 1.311-2.914 2.914v36.913c0 1.603 1.311 2.914 2.914 2.914h25.256c1.603 0 2.914-1.311 2.914-2.914v-28.17l-6.8-4.857-4.857-6.8z" fill="#0f9d58"/></g><mask id="B" maskUnits="userSpaceOnUse" x="15" y="9" width="32" height="44" mask-type="alpha"><path d="M34.975 9.629H18.461c-1.603 0-2.914 1.311-2.914 2.914v36.913c0 1.603 1.311 2.914 2.914 2.914h25.256c1.603 0 2.914-1.311 2.914-2.914v-28.17L34.975 9.629z" fill="#fff"/></mask><g mask="url(#B)"><path d="M23.318 30.514v14.085h15.542V30.514H23.318zm6.8 12.142h-4.857v-2.428h4.857v2.428zm0-3.886h-4.857v-2.428h4.857v2.428zm0-3.886h-4.857v-2.428h4.857v2.428zm6.8 7.771h-4.857v-2.428h4.857v2.428zm0-3.886h-4.857v-2.428h4.857v2.428zm0-3.886h-4.857v-2.428h4.857v2.428z" fill="#f1f1f1"/></g><mask id="C" maskUnits="userSpaceOnUse" x="15" y="9" width="32" height="44" mask-type="alpha"><path d="M34.975 9.629H18.461c-1.603 0-2.914 1.311-2.914 2.914v36.913c0 1.603 1.311 2.914 2.914 2.914h25.256c1.603 0 2.914-1.311 2.914-2.914v-28.17L34.975 9.629z" fill="#fff"/></mask><g mask="url(#C)"><path d="M35.828 20.434l10.804 10.802v-9.949l-10.804-.852z" fill="url(#H)"/></g><mask id="D" maskUnits="userSpaceOnUse" x="15" y="9" width="32" height="44" mask-type="alpha"><path d="M34.975 9.629H18.461c-1.603 0-2.914 1.311-2.914 2.914v36.913c0 1.603 1.311 2.914 2.914 2.914h25.256c1.603 0 2.914-1.311 2.914-2.914v-28.17L34.975 9.629z" fill="#fff"/></mask><g mask="url(#D)"><path d="M34.975 9.629v8.743c0 1.61 1.304 2.914 2.914 2.914h8.743L34.975 9.629z" fill="#87ceac"/></g><mask id="E" maskUnits="userSpaceOnUse" x="15" y="9" width="32" height="44" mask-type="alpha"><path d="M34.975 9.629H18.461c-1.603 0-2.914 1.311-2.914 2.914v36.913c0 1.603 1.311 2.914 2.914 2.914h25.256c1.603 0 2.914-1.311 2.914-2.914v-28.17L34.975 9.629z" fill="#fff"/></mask><g mask="url(#E)"><path d="M18.461 9.629c-1.603 0-2.914 1.311-2.914 2.914v.243c0-1.603 1.311-2.914 2.914-2.914h16.514v-.243H18.461z" fill="#fff" fill-opacity=".2"/></g><mask id="F" maskUnits="userSpaceOnUse" x="15" y="9" width="32" height="44" mask-type="alpha"><path d="M34.975 9.629H18.461c-1.603 0-2.914 1.311-2.914 2.914v36.913c0 1.603 1.311 2.914 2.914 2.914h25.256c1.603 0 2.914-1.311 2.914-2.914v-28.17L34.975 9.629z" fill="#fff"/></mask><g mask="url(#F)"><path d="M43.718 52.128H18.461c-1.603 0-2.914-1.311-2.914-2.914v.243c0 1.603 1.311 2.914 2.914 2.914h25.256c1.603 0 2.914-1.311 2.914-2.914v-.243c0 1.603-1.311 2.914-2.914 2.914z" fill="#263238" fill-opacity=".2"/></g><mask id="G" maskUnits="userSpaceOnUse" x="15" y="9" width="32" height="44" mask-type="alpha"><path d="M34.975 9.629H18.461c-1.603 0-2.914 1.311-2.914 2.914v36.913c0 1.603 1.311 2.914 2.914 2.914h25.256c1.603 0 2.914-1.311 2.914-2.914v-28.17L34.975 9.629z" fill="#fff"/></mask><g mask="url(#G)"><path d="M37.889 21.286c-1.61 0-2.914-1.304-2.914-2.914v.243c0 1.61 1.304 2.914 2.914 2.914h8.743v-.243h-8.742z" fill="#263238" fill-opacity=".1"/></g><path d="M34.975 9.629H18.461c-1.603 0-2.914 1.311-2.914 2.914v36.913c0 1.603 1.311 2.914 2.914 2.914h25.256c1.603 0 2.914-1.311 2.914-2.914v-28.17L34.975 9.629z" fill="url(#I)"/><defs><linearGradient id="H" x1="41.23" y1="21.361" x2="41.23" y2="31.237" gradientUnits="userSpaceOnUse"><stop stop-color="#263238" stop-opacity=".2"/><stop offset="1" stop-color="#263238" stop-opacity=".02"/></linearGradient><radialGradient id="I" cx="0" cy="0" r="1" gradientUnits="userSpaceOnUse" gradientTransform="translate(16.532 10.479) scale(50.1235 50.1235)"><stop stop-color="#fff" stop-opacity=".1"/><stop offset="1" stop-color="#fff" stop-opacity="0"/></radialGradient></defs></svg>