<svg xmlns="http://www.w3.org/2000/svg" width="62" height="62" fill="none"><g clip-path="url(#A)"><path d="M42.579 19.425l-10.421-1.158-12.737 1.158-1.158 11.579 1.158 11.579L31 44.03l11.579-1.447 1.158-11.868-1.158-11.29z" fill="#fff"/><g fill="#1a73e8"><path d="M24.171 37.388c-.865-.585-1.465-1.439-1.792-2.568l2.009-.828c.182.695.501 1.233.955 1.615s1.002.57 1.644.57c.657 0 1.222-.2 1.693-.599s.709-.909.709-1.526a1.89 1.89 0 0 0-.747-1.546c-.498-.399-1.123-.599-1.87-.599h-1.161V29.92h1.042c.643 0 1.184-.174 1.624-.521s.66-.822.66-1.427c0-.538-.197-.967-.59-1.288s-.892-.483-1.497-.483c-.591 0-1.059.156-1.407.472a2.76 2.76 0 0 0-.758 1.161l-1.989-.828c.263-.747.747-1.407 1.456-1.977s1.615-.857 2.715-.857c.813 0 1.546.156 2.194.472s1.158.753 1.525 1.308.55 1.184.55 1.879c0 .709-.171 1.308-.512 1.8a3.53 3.53 0 0 1-1.259 1.132v.119a3.82 3.82 0 0 1 1.615 1.259c.42.565.631 1.239.631 2.026s-.2 1.491-.599 2.107a4.15 4.15 0 0 1-1.653 1.456c-.703.353-1.494.533-2.371.533-1.016.003-1.954-.29-2.819-.874zm12.329-9.97l-2.194 1.595-1.103-1.673 3.957-2.854h1.517v13.463H36.5V27.418z"/></g><path d="M42.579 53.004L53 42.583l-5.211-2.316-5.21 2.316-2.316 5.211 2.316 5.21z" fill="#ea4335"/><path d="M17.105 47.79l2.316 5.21h23.158V42.58H19.421l-2.316 5.211z" fill="#34a853"/><path d="M12.474 9.002C10.555 9.002 9 10.557 9 12.476v30.105l5.211 2.316 5.211-2.316V19.423h23.158l2.316-5.21-2.315-5.21H12.474z" fill="#4285f4"/><path d="M9 42.58v6.947c0 1.919 1.555 3.474 3.474 3.474h6.947V42.58H9z" fill="#188038"/><path d="M42.579 19.423v23.158H53V19.423l-5.211-2.316-5.211 2.316z" fill="#fbbc04"/><path d="M53 19.423v-6.947c0-1.919-1.555-3.474-3.474-3.474h-6.947v10.421H53z" fill="#1967d2"/></g><defs><clipPath id="A"><path fill="#fff" transform="translate(9 9)" d="M0 0h44v44H0z"/></clipPath></defs></svg>