<svg width="62" height="62" viewBox="0 0 62 62" fill="none" xmlns="http://www.w3.org/2000/svg"><path d="M18.5529 48.1878L9.52957 32.5584C9.18264 31.9575 9 31.2759 9 30.582C9 29.8882 9.18264 29.2065 9.52957 28.6056L18.5529 12.9765C18.8999 12.3756 19.3989 11.8765 19.9999 11.5296C20.6009 11.1826 21.2827 11 21.9766 11H40.0233C40.7172 11 41.3988 11.1827 41.9998 11.5296C42.6007 11.8766 43.0997 12.3756 43.4467 12.9765L52.47 28.6056C52.817 29.2066 52.9997 29.8883 52.9997 30.5822C52.9997 31.2761 52.817 31.9578 52.47 32.5587L43.4467 48.1875C43.0997 48.7884 42.6007 49.2874 41.9998 49.6344C41.3988 49.9813 40.7172 50.164 40.0233 50.164H21.9766C21.2827 50.1641 20.6009 49.9815 19.9999 49.6345C19.3989 49.2876 18.8999 48.7888 18.5529 48.1878Z" fill="url(#paint0_linear_1465_2)"/><mask id="mask0_1465_2" style="mask-type:luminance" maskUnits="userSpaceOnUse" x="9" y="11" width="44" height="40"><path d="M18.5533 48.1878L9.52993 32.5584C9.18301 31.9575 9.00037 31.2759 9.00037 30.582C9.00037 29.8882 9.18301 29.2065 9.52993 28.6056L18.5533 12.9765C18.9002 12.3756 19.3992 11.8765 20.0001 11.5296C20.6011 11.1826 21.2827 11 21.9766 11H40.0233C40.7173 11 41.399 11.1826 42 11.5296C42.601 11.8765 43.1 12.3756 43.447 12.9765L52.4704 28.6056C52.8173 29.2066 53 29.8883 53 30.5822C53 31.2761 52.8173 31.9578 52.4704 32.5587L43.447 48.1875C43.1001 48.7885 42.601 49.2876 42 49.6345C41.399 49.9815 40.7173 50.1641 40.0233 50.164H21.9766C21.2827 50.164 20.6011 49.9814 20.0001 49.6344C19.3992 49.2875 18.9002 48.7884 18.5533 48.1875V48.1878Z" fill="white"/></mask><g mask="url(#mask0_1465_2)"><path opacity="0.07" d="M25.9514 27.1019L23.5417 29.5047L25.5894 31.5528L23.562 35.1539L38.9051 50.4973L42.6231 50.498L49.884 37.4573L38.3868 25.959L25.9514 27.1019Z" fill="black"/></g><path d="M38.1155 25.8626H23.8721C23.6428 25.8626 23.4554 26.0503 23.4554 26.28V29.2245C23.4554 29.4534 23.6431 29.6411 23.8721 29.6411H38.1155C38.3448 29.6411 38.5325 29.4534 38.5325 29.2245V26.2793C38.5325 26.0503 38.3451 25.8623 38.1159 25.8623M35.9104 28.604C35.6846 28.6034 35.4682 28.5133 35.3087 28.3536C35.1491 28.1938 35.0593 27.9773 35.0589 27.7515C35.0588 27.6397 35.0808 27.5289 35.1236 27.4256C35.1663 27.3222 35.229 27.2283 35.3081 27.1493C35.3872 27.0702 35.4811 27.0075 35.5845 26.9647C35.6878 26.9219 35.7986 26.9 35.9104 26.9001C36.3813 26.9001 36.7629 27.2792 36.7629 27.7515C36.7629 27.8635 36.7408 27.9743 36.698 28.0778C36.6552 28.1812 36.5924 28.2752 36.5132 28.3543C36.434 28.4335 36.3401 28.4963 36.2366 28.5391C36.1332 28.582 36.0223 28.604 35.9104 28.604ZM38.1155 31.5228L23.8721 31.5235C23.6428 31.5235 23.4554 31.7111 23.4554 31.9408V34.885C23.4554 35.1139 23.6431 35.3019 23.8721 35.3019H38.1155C38.3448 35.3019 38.5325 35.1139 38.5325 34.885V31.9401C38.5325 31.7111 38.3448 31.5228 38.1155 31.5228ZM35.9104 34.2645C35.6846 34.2639 35.4682 34.1739 35.3086 34.0141C35.149 33.8544 35.0592 33.6378 35.0589 33.412C35.0588 33.3002 35.0808 33.1894 35.1236 33.0861C35.1663 32.9827 35.229 32.8888 35.3081 32.8097C35.3872 32.7306 35.4811 32.6679 35.5845 32.6252C35.6878 32.5824 35.7986 32.5605 35.9104 32.5605C36.0251 32.5559 36.1396 32.5745 36.247 32.6153C36.3544 32.656 36.4524 32.718 36.5352 32.7976C36.618 32.8771 36.6839 32.9726 36.7289 33.0782C36.7739 33.1839 36.7971 33.2975 36.7971 33.4123C36.7971 33.5272 36.7739 33.6408 36.7289 33.7465C36.6839 33.8521 36.618 33.9476 36.5352 34.0271C36.4524 34.1067 36.3544 34.1687 36.247 34.2094C36.1396 34.2501 36.0251 34.2691 35.9104 34.2645Z" fill="white"/><defs><linearGradient id="paint0_linear_1465_2" x1="30.9999" y1="11.0003" x2="30.9999" y2="50.1032" gradientUnits="userSpaceOnUse"><stop stop-color="#4387FD"/><stop offset="1" stop-color="#4683EA"/></linearGradient></defs></svg>