<svg xmlns="http://www.w3.org/2000/svg" width="62" height="62" fill="none"><path d="M10.012 39.835L24.62 14.827l12.724 7.255-14.608 25.01c-1.598 2.111-14.748-4.054-12.724-7.259v.002z" fill="#fbbc04"/><path d="M51.983 39.835L37.375 14.828c-2.042-3.399-6.441-4.634-10.053-2.626s-4.713 6.331-2.67 9.882l14.608 25.01c2.042 3.397 6.441 4.632 10.053 2.625 3.455-2.007 4.712-6.485 2.67-9.88v-.003z" fill="#4285f4"/><path d="M16.333 50.685c4.05 0 7.333-3.202 7.333-7.151s-3.283-7.151-7.333-7.151S9 39.585 9 43.534s3.283 7.151 7.333 7.151z" fill="#34a853"/></svg>