<svg width="62" height="62" viewBox="0 0 62 62" fill="none" xmlns="http://www.w3.org/2000/svg">
<g clip-path="url(#clip0_496_1078)">
<path d="M30.9996 27V35.52H42.8396C42.3197 38.26 40.7595 40.5801 38.4195 42.1401L45.5595 47.6801C49.7195 43.8402 52.1195 38.2002 52.1195 31.5002C52.1195 29.9402 51.9795 28.4401 51.7195 27.0002L30.9996 27Z" fill="#4285F4"/>
<path d="M18.6702 35.1875L17.0599 36.4202L11.3598 40.8601C14.9798 48.04 22.3992 53.0001 30.9992 53.0001C36.939 53.0001 41.919 51.0401 45.559 47.6802L38.4191 42.1402C36.4591 43.4601 33.9591 44.2602 30.9992 44.2602C25.2792 44.2602 20.4193 40.4003 18.6792 35.2002L18.6702 35.1875Z" fill="#34A853"/>
<path d="M11.3598 21.1396C9.85991 24.0995 9 27.4396 9 30.9995C9 34.5594 9.85991 37.8995 11.3598 40.8594C11.3598 40.8793 18.68 35.1794 18.68 35.1794C18.24 33.8594 17.9799 32.4595 17.9799 30.9993C17.9799 29.5391 18.24 28.1392 18.68 26.8192L11.3598 21.1396Z" fill="#FBBC05"/>
<path d="M30.9996 17.76C34.2397 17.76 37.1196 18.88 39.4196 21.04L45.7196 14.7401C41.8995 11.1801 36.9397 9 30.9996 9C22.3997 9 14.9798 13.94 11.3598 21.14L18.6797 26.82C20.4196 21.62 25.2797 17.76 30.9996 17.76Z" fill="#EA4335"/>
</g>
<defs>
<clipPath id="clip0_496_1078">
<rect width="44" height="44" fill="white" transform="translate(9 9)"/>
</clipPath>
</defs>
</svg>
