<svg width="62" height="62" viewBox="0 0 62 62" fill="none" xmlns="http://www.w3.org/2000/svg"><path d="M30.9974 49.3333C41.1226 49.3333 49.3307 41.1252 49.3307 31C49.3307 20.8748 41.1226 12.6667 30.9974 12.6667C20.8722 12.6667 12.6641 20.8748 12.6641 31C12.6641 41.1252 20.8722 49.3333 30.9974 49.3333Z" fill="#2979FF"/><path d="M31.0026 30.0833C33.0276 30.0833 34.6693 28.4417 34.6693 26.4167C34.6693 24.3916 33.0276 22.75 31.0026 22.75C28.9776 22.75 27.3359 24.3916 27.3359 26.4167C27.3359 28.4417 28.9776 30.0833 31.0026 30.0833Z" fill="#2962FF"/><path d="M31 32.8333C31 32.8333 22.75 32.8333 22.75 38.0831C22.75 41.0833 24.2497 41.0833 31 41.0833C37.7503 41.0833 39.25 41.0833 39.25 38.0831C39.25 32.8333 31 32.8333 31 32.8333Z" fill="#2962FF"/><path d="M31.0026 29.1667C33.0276 29.1667 34.6693 27.525 34.6693 25.5C34.6693 23.475 33.0276 21.8333 31.0026 21.8333C28.9776 21.8333 27.3359 23.475 27.3359 25.5C27.3359 27.525 28.9776 29.1667 31.0026 29.1667Z" fill="white"/><path d="M31 31.9167C31 31.9167 22.75 31.9167 22.75 37.1664C22.75 40.1667 24.2497 40.1667 31 40.1667C37.7503 40.1667 39.25 40.1667 39.25 37.1664C39.25 31.9167 31 31.9167 31 31.9167Z" fill="white"/></svg>