<svg xmlns="http://www.w3.org/2000/svg" width="62" height="62"><rect width="62" height="62" rx="31" fill="#fff"/><path d="M47.63 19.04h-6.548v-6.556A3.48 3.48 0 0 0 37.604 9H14.479A3.48 3.48 0 0 0 11 12.483v33.196a3.48 3.48 0 0 0 3.479 3.483h29.945l3.24 3.245A2 2 0 0 0 49.09 53a2.02 2.02 0 0 0 2.019-2.021V22.523a3.48 3.48 0 0 0-3.479-3.483m.138 26.774H14.341V12.345h23.397v6.694H24.505a3.48 3.48 0 0 0-3.479 3.483V35.64a3.48 3.48 0 0 0 3.479 3.483h13.099a3.48 3.48 0 0 0 3.479-3.483V22.389h6.685v23.428zM37.742 22.385v13.389H24.371V22.385z"/></svg>