<svg width="62" height="62" viewBox="0 0 62 62" fill="none" xmlns="http://www.w3.org/2000/svg"><path d="M51.6394 28.46C51.5613 27.7567 51.4831 26.897 51.1705 25.9591C50.936 25.0213 50.5453 24.0053 49.9982 22.9112C49.4511 21.8171 48.7479 20.7229 47.8881 19.6288C47.5755 19.238 47.1847 18.7691 46.7158 18.3783C47.341 15.8774 45.9344 13.7673 45.9344 13.7673C43.5898 13.611 42.0266 14.4707 41.4795 14.9396C41.4014 14.9396 41.3232 14.8615 41.1669 14.7833C40.7763 14.627 40.3854 14.4707 39.9166 14.3144C39.4477 14.1581 39.0568 14.0799 38.588 13.9236C38.1191 13.8455 37.65 13.7673 37.2594 13.6892C37.1811 13.6892 37.1031 13.6892 37.0248 13.6892C36.0088 10.4067 33.039 9 33.039 9C29.7567 11.1101 29.1314 14.0018 29.1314 14.0018C29.1314 14.0018 29.1314 14.0799 29.1314 14.1581C28.9751 14.2362 28.7407 14.2362 28.5844 14.3144C28.3499 14.3925 28.1154 14.4707 27.8028 14.5488C27.5684 14.627 27.3339 14.7051 27.0213 14.8615C26.5524 15.0959 26.0053 15.3304 25.5364 15.5648C25.0675 15.7993 24.5986 16.1119 24.1297 16.4245C24.0515 16.4245 24.0515 16.3463 24.0515 16.3463C19.4405 14.627 15.3765 16.7371 15.3765 16.7371C14.9858 21.5826 17.1741 24.7087 17.643 25.2558C17.5648 25.5684 17.4085 25.881 17.3304 26.1936C17.0178 27.2877 16.7051 28.46 16.5488 29.6324C16.5488 29.7887 16.4707 29.945 16.4707 30.1013C12.2504 32.2113 11 36.5097 11 36.5097C14.5169 40.5737 18.659 40.8081 18.659 40.8081C19.206 41.746 19.7531 42.6056 20.4565 43.4653C20.7691 43.7779 21.0817 44.1687 21.3162 44.4813C20.0657 48.1545 21.4725 51.2025 21.4725 51.2025C25.3801 51.3588 27.9591 49.4831 28.5062 49.0142C28.897 49.1705 29.2877 49.2485 29.6785 49.405C30.8508 49.7176 32.1013 49.8739 33.3516 49.952C33.6642 49.952 33.977 49.952 34.2896 49.952H34.4459H34.5239H34.6802H34.8365C36.7122 52.6092 39.9166 53 39.9166 53C42.2612 50.5771 42.3392 48.1545 42.3392 47.6074V47.5293V47.4511C42.8081 47.1385 43.277 46.7478 43.746 46.357C44.6838 45.4973 45.4653 44.5595 46.1687 43.5435C46.2469 43.4653 46.325 43.3872 46.325 43.2309C48.9822 43.3872 50.7797 41.5898 50.7797 41.5898C50.3108 38.8543 48.7477 37.5257 48.4351 37.2914H48.357C48.357 37.1349 48.357 36.9786 48.357 36.8223C48.357 36.5097 48.357 36.1971 48.357 35.9628V35.5719V35.4937V35.4156V35.3374V35.1811V34.9468C48.357 34.8685 48.357 34.7905 48.357 34.7122C48.357 34.6342 48.357 34.5559 48.357 34.4777V34.2433V34.0088C48.2788 33.6962 48.2788 33.3836 48.2007 33.1491C47.8881 31.977 47.4973 30.8827 46.8721 29.8667C46.247 28.8508 45.5435 27.9911 44.6838 27.2096C43.8241 26.4281 42.8863 25.881 41.8703 25.4121C40.8543 24.9431 39.8383 24.7087 38.7442 24.5524C38.1971 24.4742 37.7282 24.4742 37.1811 24.4742H37.0248H36.9468H36.8685H36.7905H36.6342C36.5559 24.4742 36.4777 24.4742 36.3996 24.4742C36.1651 24.4742 35.8525 24.5524 35.6182 24.5524C34.6022 24.7087 33.5862 25.0995 32.7264 25.6465C31.8667 26.1936 31.0853 26.8188 30.46 27.5222C29.8348 28.2256 29.3659 29.0853 29.0533 29.945C28.7407 30.8047 28.5844 31.6642 28.5062 32.5239C28.5062 32.7585 28.5062 32.9147 28.5062 33.1491C28.5062 33.2273 28.5062 33.2273 28.5062 33.3056V33.4619C28.5062 33.5399 28.5062 33.6962 28.5062 33.7745C28.5844 34.1651 28.6625 34.6342 28.7407 35.0248C28.9751 35.8063 29.3659 36.5097 29.7567 37.1349C30.2256 37.7603 30.7726 38.2291 31.3198 38.6198C31.8667 39.0106 32.4921 39.3232 33.1173 39.4795C33.7424 39.6358 34.2896 39.714 34.9147 39.714C34.9928 39.714 35.071 39.714 35.1491 39.714H35.2273H35.3056C35.3836 39.714 35.4619 39.714 35.4619 39.714C35.4619 39.714 35.4619 39.714 35.5399 39.714H35.6182H35.6962C35.7745 39.714 35.8525 39.714 35.9308 39.714C36.0088 39.714 36.0871 39.714 36.1651 39.6358C36.3214 39.6358 36.3996 39.5577 36.5559 39.5577C36.7905 39.4795 37.0248 39.4014 37.2594 39.2451C37.4937 39.1669 37.65 39.0106 37.8845 38.8543C37.9626 38.8543 37.9628 38.7763 38.0408 38.698C38.2754 38.5417 38.2754 38.2291 38.1191 38.0728C37.9628 37.9166 37.7282 37.8383 37.5719 37.9946C37.4937 37.9946 37.4937 38.0728 37.4157 38.0728C37.2594 38.1509 37.1031 38.2291 36.8685 38.3072C36.7122 38.3854 36.4777 38.3854 36.3214 38.4635C36.2433 38.4635 36.0871 38.4635 36.0088 38.4635C35.9308 38.4635 35.9308 38.4635 35.8525 38.4635C35.7745 38.4635 35.7745 38.4635 35.6962 38.4635C35.6182 38.4635 35.6182 38.4635 35.5399 38.4635C35.4619 38.4635 35.3836 38.4635 35.3836 38.4635H35.3056H35.2273C35.1491 38.4635 35.1493 38.4635 35.071 38.4635C34.6022 38.3854 34.2113 38.3072 33.7424 38.0728C33.2736 37.9166 32.8827 37.604 32.4919 37.2914C32.1013 36.9786 31.7887 36.5097 31.5541 36.1191C31.3198 35.7282 31.0853 35.1811 31.007 34.6342C30.9289 34.3996 30.9289 34.0871 30.9289 33.8525C30.9289 33.7745 30.9289 33.6962 30.9289 33.6182V33.5399V33.4619C30.9289 33.3056 30.9289 33.1491 31.007 32.9928C31.2415 31.8205 31.7887 30.7264 32.7264 29.7887C32.961 29.5541 33.1953 29.3978 33.4299 29.1633C33.6642 29.007 33.977 28.8508 34.2113 28.6945C34.5239 28.5382 34.8365 28.46 35.071 28.3819C35.3836 28.3037 35.6962 28.2256 36.0088 28.2256C36.1651 28.2256 36.3214 28.2256 36.4777 28.2256H36.5559H36.7122H36.7905H36.9468C37.2594 28.2256 37.65 28.3037 37.9626 28.3819C38.666 28.5382 39.2912 28.7726 39.9166 29.1633C41.1669 29.8667 42.1829 30.961 42.8863 32.2113C43.1989 32.8365 43.4335 33.5399 43.5898 34.2433C43.5898 34.3996 43.6678 34.6342 43.6678 34.7905V34.9468V35.1031C43.6678 35.1811 43.6678 35.1811 43.6678 35.2594C43.6678 35.3374 43.6678 35.3374 43.6678 35.4156V35.5719V35.7282C43.6678 35.8063 43.6678 35.9626 43.6678 36.0408C43.6678 36.2754 43.6678 36.4317 43.5898 36.666C43.5898 36.8223 43.5115 37.0568 43.5115 37.2131C43.5115 37.3694 43.4333 37.604 43.3552 37.7603C43.277 38.1509 43.1207 38.5417 42.9644 38.8543C42.6518 39.5577 42.2612 40.2612 41.7921 40.9644C40.8543 42.2149 39.604 43.309 38.1191 43.9342C37.4156 44.2469 36.6342 44.4813 35.8525 44.6376C35.4619 44.7158 35.071 44.7158 34.6802 44.7939H34.6022H34.5239H34.3676H34.2113H34.1333C33.8987 44.7939 33.7424 44.7939 33.5079 44.7939C32.6484 44.7158 31.7887 44.5595 31.007 44.325C30.2256 44.0907 29.3659 43.7779 28.6625 43.3872C27.1776 42.6056 25.849 41.5115 24.7549 40.1829C24.2078 39.5577 23.7389 38.8543 23.4263 38.0728C23.0355 37.2914 22.7229 36.5097 22.4885 35.7282C22.254 34.9468 22.0977 34.0871 22.0977 33.3056V33.1491V33.071V32.9147V32.4459V32.3676V32.2113V32.1333C22.0977 32.055 22.0977 31.8987 22.0977 31.8205C22.0977 31.4299 22.1758 30.961 22.1758 30.5701C22.254 30.1793 22.3321 29.7104 22.4103 29.3198C22.4885 28.9289 22.5666 28.46 22.7229 28.0693C22.9574 27.2877 23.27 26.5062 23.5826 25.7247C24.286 24.2398 25.1456 22.9112 26.2398 21.8952C26.4742 21.6607 26.7869 21.3481 27.0995 21.1137C27.4121 20.8792 27.7247 20.6447 28.0373 20.4885C28.3499 20.254 28.6625 20.0977 28.9751 19.9414C29.1314 19.8632 29.2877 19.7851 29.444 19.7069C29.5222 19.7069 29.6003 19.6288 29.6785 19.6288C29.7566 19.6288 29.8348 19.5506 29.913 19.5506C30.2256 19.3943 30.6163 19.3161 30.9289 19.1599C31.007 19.1599 31.0853 19.0817 31.1635 19.0817C31.2415 19.0817 31.3198 19.0035 31.3978 19.0035C31.5541 18.9254 31.7887 18.9254 31.945 18.8472C32.023 18.8472 32.1013 18.7691 32.2576 18.7691C32.3356 18.7691 32.4138 18.7691 32.5701 18.6909C32.6484 18.6909 32.7264 18.6909 32.8827 18.6128H33.039H33.1953C33.2736 18.6128 33.3516 18.6128 33.5079 18.5346C33.5862 18.5346 33.7424 18.5346 33.8207 18.4565C33.8987 18.4565 34.055 18.4565 34.1333 18.4565C34.2113 18.4565 34.2896 18.4565 34.3676 18.4565H34.5239H34.6022H34.6802C34.7585 18.4565 34.9148 18.4565 34.9928 18.4565H35.1491H35.2273C35.3056 18.4565 35.3836 18.4565 35.4619 18.4565C35.8525 18.4565 36.1651 18.4565 36.5559 18.4565C37.2594 18.4565 37.9626 18.5346 38.666 18.6909C39.9946 18.9254 41.2451 19.3943 42.4175 19.9414C43.5898 20.4885 44.6056 21.1918 45.4653 21.9733C45.5435 22.0515 45.5435 22.0515 45.6216 22.1297C45.6998 22.2078 45.6998 22.2078 45.7779 22.286C45.8561 22.3641 46.0124 22.4423 46.0905 22.5986C46.1687 22.7549 46.325 22.7549 46.4032 22.9112C46.4813 23.0675 46.6376 23.1456 46.7158 23.2238C47.1065 23.6145 47.4191 24.0053 47.7318 24.4742C48.357 25.2558 48.9041 26.1154 49.2948 26.897C49.2948 26.9751 49.373 26.9751 49.373 27.0533C49.373 27.1314 49.4511 27.1314 49.4511 27.2096C49.5293 27.2877 49.5293 27.3659 49.6074 27.5222C49.6856 27.6003 49.6856 27.6785 49.7637 27.8348C49.8419 27.9129 49.8419 27.9911 49.92 28.1474C50.0764 28.5382 50.2327 28.8508 50.3108 29.1633C50.4671 29.7104 50.6234 30.1793 50.7016 30.5701C50.7797 30.7264 50.936 30.8827 51.0923 30.8047C51.2486 30.8047 51.405 30.6484 51.405 30.4919C51.7176 29.5541 51.7176 29.007 51.6394 28.46Z" fill="url(#paint0_linear_1271_2)"/><defs><linearGradient id="paint0_linear_1271_2" x1="31.4685" y1="64.8905" x2="31.4685" y2="13.9902" gradientUnits="userSpaceOnUse"><stop stop-color="#FFF100"/><stop offset="1" stop-color="#F05A28"/></linearGradient></defs></svg>