<svg xmlns="http://www.w3.org/2000/svg" width="62" height="62" fill="#00b96c"><path d="M27.855 9.519a7.64 7.64 0 0 1 5.536 0c2.001.778 3.974 1.682 5.913 2.715.402.215.34.811-.091.961-10.601 3.71-18.203 13.801-18.203 25.669a27.1 27.1 0 0 0 2.074 10.434c.189.453-.286.916-.722.688a54.62 54.62 0 0 1-8.957-5.849c-1.489-1.196-2.477-2.906-2.768-4.794A54.68 54.68 0 0 1 10 31c0-2.838.217-5.624.637-8.343.292-1.888 1.279-3.598 2.769-4.794a54.69 54.69 0 0 1 6.905-4.723 54.78 54.78 0 0 1 7.544-3.621zm19.986 8.347l-.751-.593a2.39 2.39 0 0 0-1.891-.472C33.683 18.904 24.952 28.99 24.952 41.114a24.61 24.61 0 0 0 2.351 10.536c.233.494.665.864 1.181 1.046 1.614.47 3.339.395 4.906-.214 2.566-.996 5.087-2.2 7.544-3.62a54.68 54.68 0 0 0 6.906-4.723c1.489-1.196 2.476-2.906 2.768-4.793a54.77 54.77 0 0 0 .637-8.343 54.71 54.71 0 0 0-.637-8.343c-.291-1.888-1.279-3.598-2.768-4.794z"/></svg>