<svg xmlns="http://www.w3.org/2000/svg" width="62" height="62" fill="none"><path d="M31 53c12.15 0 22-9.85 22-22S43.15 9 31 9 9 18.85 9 31s9.85 22 22 22z" fill="#ff90e8"/><path d="M29.087 42.06c-6.457 0-10.223-5.141-10.223-11.598 0-6.696 4.185-12.076 12.136-12.076 8.19 0 11 5.56 11.12 8.669h-5.919c-.12-1.794-1.614-4.424-5.321-4.424-3.886 0-6.457 3.408-6.457 7.533 0 4.185 2.511 7.533 6.457 7.533 3.527 0 5.082-2.75 5.679-5.56h-5.739v-2.272h11.957v11.598h-5.261v-7.293c-.359 2.75-1.973 7.891-8.429 7.891z" fill="#000"/></svg>