<svg xmlns="http://www.w3.org/2000/svg" width="62" height="62" fill="none"><rect width="62" height="62" rx="31" fill="#fff"/><g clip-path="url(#A)"><path d="M52.992 35.103c.154 5.479-2.22 9.575-6.891 12.199-6.468 3.652-13.432 5.839-20.955 5.614-4.24-.136-7.631-2.169-9.854-5.717-4.256-6.802-6.547-14.246-6.27-22.302.146-4.24 2.334-7.558 5.904-9.743 6.726-4.115 14.05-6.398 21.996-6.132 4.302.144 7.623 2.372 9.884 5.977 3.847 6.137 5.644 12.939 6.186 20.104z" fill="#000"/><g fill="#fff"><path d="M34.032 39.245a8.6 8.6 0 0 1-5.118.293c-3.988-1.084-6.883-4.739-6.883-8.718a8.82 8.82 0 0 1 2.624-6.433c1.637-1.624 3.837-2.553 6.143-2.594h.084c4.207.046 6.875 3.223 6.896 3.253a1.05 1.05 0 0 0 .705.382 1.04 1.04 0 0 0 .768-.229c.215-.176.353-.429.382-.705a1.04 1.04 0 0 0-.229-.768c-.133-.163-3.288-3.969-8.498-4.026a11 11 0 0 0-10.167 6.878c-.544 1.346-.816 2.786-.801 4.237 0 4.909 3.546 9.428 8.433 10.74a9.89 9.89 0 0 0 2.575.331c1.295-.004 2.58-.234 3.795-.68 3.22-1.176 6.362-4.272 6.249-7.861-.734.529-1.501 1.01-2.296 1.442-.621 1.984-2.586 3.703-4.663 4.459zm7.905-10.903a16.61 16.61 0 0 1-2.264 1.955c-1.399-1.356-3.627-2.012-5.24-2.012-1.317 0-2.329.347-3.001 1.027a2.77 2.77 0 0 0-.603.934c-.136.349-.199.722-.186 1.096.022 1.423 1.044 2.963 3.839 3.025 1.559.038 3.082-.466 4.416-1.149a14.63 14.63 0 0 0 1.898-1.158c.964-.677 1.86-1.446 2.676-2.296.189-.204.289-.474.278-.752s-.131-.54-.335-.728a1.05 1.05 0 0 0-1.48.057h.003zm-7.409 3.933c-.813-.019-1.778-.201-1.792-.965a.69.69 0 0 1 .187-.542c.149-.152.542-.404 1.51-.404 1.195.035 2.355.411 3.342 1.084a7.06 7.06 0 0 1-3.248.827z"/></g></g><defs><clipPath id="A"><path fill="#fff" transform="translate(9 9)" d="M0 0h44v43.919H0z"/></clipPath></defs></svg>