<?xml version="1.0" encoding="UTF-8"?><svg xmlns="http://www.w3.org/2000/svg" viewBox="0 0 162.31 162.01"><defs><style>.d{fill:#fff;}</style></defs><g id="a"/><g id="b"><g id="c"><g><path class="d" d="M88.25,80.35c-.17,.18-.71,.72-.69,1.95,.05,2.82,3.61,3.49,6.6,3.56,4.18,.09,8.23-1.2,11.99-3.05-3.5-2.5-8.54-3.95-12.33-3.95-3.57,0-5.02,.93-5.57,1.49Z"/><path class="d" d="M139.44,22.13C131.1,8.83,118.85,.61,102.98,.08,73.69-.9,46.67,7.52,21.86,22.7,8.69,30.76,.62,43.03,.08,58.64c-1.02,29.72,7.43,57.18,23.13,82.22,8.2,13.07,20.71,20.59,36.35,21.09,27.75,.89,53.39-7.19,77.3-20.64,17.23-9.7,25.99-24.81,25.42-45.02-2-26.43-8.63-51.52-22.84-74.16Zm-44.45,96.69c-4.57,1.67-9.35,2.51-14.04,2.51-3.25,0-6.45-.41-9.5-1.22-18.03-4.84-31.11-21.51-31.11-39.62,0-11.21,4.25-21.58,11.97-29.22,7.7-7.62,18.11-11.86,28.49-11.8,19.22,.21,30.86,14.26,31.35,14.85,1.34,1.65,1.09,4.09-.56,5.43s-4.09,1.1-5.43-.56c-.09-.11-9.92-11.83-25.44-12-.1,0-.2,0-.31,0-8.14,0-16.59,3.57-22.67,9.58-4.41,4.37-9.68,12.03-9.68,23.73,0,14.68,10.68,28.21,25.39,32.16,5.92,1.59,12.62,1.2,18.88-1.08,7.61-2.78,14.91-9.13,17.23-16.38,3-1.65,5.86-3.41,8.47-5.33,.42,13.2-11.17,24.62-23.05,28.96Zm32.18-42.22c-.32,.34-4.12,4.41-9.88,8.48-1.11,.79-3.58,2.53-7.01,4.27-4.91,2.52-10.54,4.38-16.29,4.24-10.31-.23-14.08-5.91-14.16-11.16-.04-2.93,.96-5.52,2.91-7.49,2.48-2.52,6.2-3.79,11.07-3.79,5.94,0,14.16,2.39,19.32,7.42,4.96-3.57,8.29-7.13,8.36-7.2,1.45-1.57,3.89-1.66,5.46-.21,1.57,1.45,1.66,3.89,.22,5.46Z"/></g></g></g></svg>