<svg xmlns="http://www.w3.org/2000/svg" width="62" height="62" fill="none"><path d="M48.071 24.446c-2.718 0-4.931 2.222-4.931 4.953s2.212 4.953 4.931 4.953S53 32.13 53 29.399s-2.212-4.953-4.929-4.953zm0 7.559c-1.43 0-2.594-1.17-2.594-2.606s1.164-2.606 2.594-2.606 2.593 1.17 2.593 2.606-1.164 2.606-2.593 2.606zm-14.519-3.609l-.862-.432c-.374-.186-.609-.33-.703-.437a.52.52 0 0 1-.143-.35c0-.167.075-.308.223-.418.147-.115.355-.167.62-.167.484 0 1.02.292 1.611.881l1.455-1.462c-.358-.487-.825-.882-1.365-1.154-.532-.268-1.121-.406-1.717-.403-.888 0-1.622.262-2.193.79s-.858 1.163-.858 1.907c0 1.154.756 2.116 2.272 2.879l.794.399c.684.346 1.025.699 1.025 1.064 0 .198-.095.369-.284.52s-.439.224-.749.224c-.287 0-.616-.099-.987-.3a3.32 3.32 0 0 1-.968-.783l-1.448 1.584c.816 1.071 1.905 1.611 3.273 1.611 1.029 0 1.849-.281 2.458-.84s.918-1.257.918-2.093c0-.627-.17-1.177-.506-1.645s-.964-.923-1.867-1.375v-.001zm-14.639 4.877v-8.63h-2.34v.578a4.88 4.88 0 0 0-2.644-.775C11.212 24.446 9 26.668 9 29.399s2.211 4.953 4.93 4.953a4.88 4.88 0 0 0 2.616-.756l-.004.19c0 1.435-1.164 2.606-2.594 2.606a2.58 2.58 0 0 1-1.372-.399l-1.157 2.036c.763.466 1.64.713 2.534.714 2.718 0 4.961-2.222 4.961-4.954v-.517zm-4.983-1.269c-1.428 0-2.593-1.17-2.593-2.605s1.164-2.606 2.593-2.606 2.593 1.17 2.593 2.606-1.164 2.606-2.593 2.606v-.001zm14.306-7.364h-2.352v4.709c.004.669.004 1.824-.487 2.317-.235.235-.492.448-1.032.448s-.802-.213-1.036-.448c-.492-.494-.488-1.652-.485-2.317V24.64h-2.351v4.695c-.008.968-.019 2.765 1.161 3.957.692.699 1.516 1.056 2.707 1.056s2.015-.353 2.707-1.056c1.18-1.192 1.168-2.993 1.161-3.957l.008-4.695zm13.327 6.943c-.189.144-.647.464-1.165.391-.423-.057-.767-.369-.82-1.409v-3.905h2.764v-2.028h-2.764V22h-2.344v.517h-.004v7.741c0 1.231.31 4.09 3.164 4.09 1.444-.022 2.321-.809 2.688-1.116l.049-.038-1.407-1.74-.163.129z" fill="#f45d48"/></svg>