<svg xmlns="http://www.w3.org/2000/svg" width="62" height="62" fill="none"><path d="M49.972 20C48.727 17.856 33.441 9 30.951 9s-17.781 8.834-19.02 11-1.245 19.834 0 22.001S28.464 53 30.951 53s17.776-8.845 19.021-11 1.245-19.856.001-22zM36.105 44.597c-.34 0-3.516-3.074-3.266-3.325.075-.075.538-.127 1.508-.157l.081-7.418c.004-.173-.038-.295-.038-.503h-6.869c0 .61-.039 3.111.118 6.263.02.39-.136.512-.493.51l-2.613-.007c-.352.001-.505-.131-.493-.525.079-2.874.254-7.221-.013-18.276v-.273c-.831-.03-1.408-.082-1.483-.158-.251-.251 2.968-3.325 3.308-3.325s3.538 3.075 3.289 3.325c-.075.075-.679.128-1.441.158v.272c-.208 2.213-.174 6.84-.226 9.057h6.897c0-.391.034-2.985-.103-7.188-.009-.291.082-.444.362-.447l2.856-.005c.297.002.393.148.387.462-.314 16.439-.057 15.292-.057 18.076.762.03 1.446.083 1.52.158.248.25-2.889 3.325-3.23 3.325z" fill="#2ec866"/></svg>