<svg xmlns="http://www.w3.org/2000/svg" viewBox="0 0 512 512" width="62" height="62" role="img" aria-label="Hail"><rect width="512" height="512" fill="#ededed"/><rect x="7" y="7" width="498" height="498" fill="none" stroke="#000" stroke-width="14"/><path d="M100 380V142H142.84V232.1H148.96Q151.68 226.66 157.46 221.22Q163.24 215.78 172.93 212.21Q182.62 208.64 197.58 208.64Q217.3 208.64 232.09 217.65Q246.88 226.66 255.04 242.47Q263.2 258.28 263.2 279.36V380H220.36V282.76Q220.36 263.72 211.01 254.2Q201.66 244.68 184.32 244.68Q164.6 244.68 153.72 257.77Q142.84 270.86 142.84 294.32V380Z" fill="#000"/><path d="M315.98 383.06Q308.84 383.06 304.42 378.47Q300 373.88 300 367.08Q300 358.24 306.12 352.8Q312.24 347.36 319.04 347.36Q325.84 347.36 330.43 351.95Q335.02 356.54 335.02 363.34Q335.02 372.18 328.9 377.62Q322.78 383.06 315.98 383.06Z" fill="#000"/></svg>
