<svg xmlns="http://www.w3.org/2000/svg" viewBox="0 0 512 512" width="62" height="62" role="img" aria-label="Hail"><rect width="512" height="512" fill="#ededed"/><rect x="7" y="7" width="498" height="498" fill="none" stroke="#000" stroke-width="14"/><path d="M100.0 380.0V141.99999999999997H142.84V232.1H148.96Q151.68 226.66 157.46 221.22Q163.24 215.78 172.93 212.20999999999998Q182.62 208.64 197.58 208.64Q217.3 208.64 232.09 217.64999999999998Q246.88 226.66 255.04 242.46999999999997Q263.2 258.28 263.2 279.36V380.0H220.36V282.76Q220.36 263.71999999999997 211.01000000000002 254.2Q201.66000000000003 244.67999999999998 184.32 244.67999999999998Q164.60000000000002 244.67999999999998 153.72000000000003 257.77Q142.84 270.86 142.84 294.32V380.0Z" fill="#000"/><path d="M315.97999999999996 383.06Q308.84 383.06 304.41999999999996 378.47Q300.0 373.88 300.0 367.08Q300.0 358.24 306.12 352.8Q312.23999999999995 347.36 319.03999999999996 347.36Q325.84 347.36 330.42999999999995 351.95000000000005Q335.02 356.54 335.02 363.34Q335.02 372.18 328.9 377.62Q322.78 383.06 315.97999999999996 383.06Z" fill="#000"/></svg>
