<svg xmlns="http://www.w3.org/2000/svg" width="62" height="62" fill="#fff"><path d="M35.344 44.257c-.291-.467-.957-.704-1.479-.533l-2.183.649c-1.446.39-2.826 2.595-3.629 2.694-1.067.127-4.547-.253-4.547-.253a1.84 1.84 0 0 0-1.562.715s-.792 1.149-1.859 2.073c-1.067.918-1.276 1.397-1.276 1.397-.226.506-.412 1.028-.423 1.166s.412.819.962.819h.632a.98.98 0 0 0 .979-1.001l.022-.891.033-.247c.121-.335.489-.973.819-1.413l.649-.858c.297-.462.577-.841.621-.836l1.078.11 3.288.22a5.2 5.2 0 0 0 .698-.038l.121-.017c.137-.038.099.363-.082.88l-1.122 2.815c-.066.137-.077.27-.077.27-.038.55.385 1.001.935 1.001h8.853c.55 0 .984-.06.962-.137v-.072c-.093-1.38.115-3.294.115-3.294.06-.55-.193-1.331-.561-1.738l-1.968-3.492v.011zm17.645-34.256v41.988a1 1 0 0 1-1.001 1.001H47.93c-.544 0-.847-.247-.665-.544l-.055-.396c-.374-2.656-1.908-6.51-2.381-7.088l-.066-.088c-.055-.127-.418.907-.511 1.331l-.176 1.122a34.17 34.17 0 0 1 .242 1.034l.303 3.629c.027.555-.148 1.001-.385 1.001s-.462-.451-.489-1.001c0 0-.165-3.767-.44-4.317l-.104-.22c.017-.357.192-1.072.374-1.595 0 0 .935-2.612 1.43-5.851.242-1.589.374-3.327.242-4.993-.06-.742 1.567-1.061 1.716-1.133.281-.138.764-.781 1.237-1.562.489-.814.957-1.782 1.166-2.48.038-.137-.396-.061-.357-.198.038-.143.022-.704.011-.869.006-.484-.28-.72-.511-.885-.148-.099-.275-.181-.302-.28-.066-.264-.61-1.193-.913-1.336-.286-.137-.286-.902-.192-1.105.093-.209.83-.693.852-1.155v-.022c.005-.192-.039-.314-.116-.413-.247-.302-.847-.434-1.545-2.04-.308-.709-.665-1.996-.869-2.122-.632-.379-1.776-.638-3.92-.973-1.705-.264-2.408 1.716-3.915 3.481-.308.368-1.617 2.551-1.617 2.551a5.02 5.02 0 0 1-1.369 1.375l-5.548 3.657c-1.919 1.463-3.277 4.349-5.862 5.064-1.215.33-3.662 1.265-4.443 2.023-1.529 1.479-2.101 2.183-2.496 3.453l-1.023 3.101-.401 1.133c-.198.511-.561 1.331-.814 1.82l-1.842 3.629c-.297.654-.231 2.271-.231 2.271A.96.96 0 0 1 10.974 53h-.973A1.01 1.01 0 0 1 9 51.999V28.751C9 17.847 17.847 9 28.757 9h23.237a1 1 0 0 1 1.001 1.001h-.006z"/></svg>