<?xml version="1.0" encoding="UTF-8"?>
<svg xmlns="http://www.w3.org/2000/svg" xmlns:xlink="http://www.w3.org/1999/xlink" width="500px" height="500px" viewBox="0 0 500 500" version="1.1">
<g id="surface1">
<path style=" stroke:none;fill-rule:nonzero;fill:rgb(7.058824%,57.254902%,93.333333%);fill-opacity:1;" d="M 73.277344 291.886719 L 219.21875 145.941406 C 238.136719 127.324219 249.851562 101.199219 249.851562 72.671875 C 249.851562 44.445312 238.4375 18.617188 220.121094 0 L 74.179688 145.941406 C 55.261719 164.5625 43.546875 190.6875 43.546875 219.214844 C 43.546875 247.742188 54.960938 273.265625 73.277344 291.886719 Z M 426.722656 206.601562 L 280.78125 352.542969 C 261.863281 371.164062 250.148438 397.289062 250.148438 425.816406 C 250.148438 454.042969 261.5625 479.867188 279.878906 498.488281 L 425.820312 352.542969 C 444.738281 333.925781 456.453125 307.800781 456.453125 279.273438 C 456.453125 250.746094 445.039062 225.21875 426.722656 206.601562 Z M 425.820312 146.242188 C 444.738281 127.625 456.453125 101.5 456.453125 72.972656 C 456.453125 44.742188 445.039062 18.917969 426.722656 0.300781 L 74.179688 352.542969 C 55.261719 371.460938 43.546875 397.289062 43.546875 426.117188 C 43.546875 454.34375 54.960938 480.167969 73.277344 498.785156 Z M 425.820312 146.242188 "/>
</g>
</svg>