<svg width="62" height="62" viewBox="0 0 62 62" fill="none" xmlns="http://www.w3.org/2000/svg"><rect width="62" height="62" rx="31" fill="white"/><g clip-path="url(#clip0_2567_50)"><path fill-rule="evenodd" clip-rule="evenodd" d="M16.6154 23V28.9273H14.9231V23H9V27.8053V27.8223V33.4777V40H14.9231V31.5H16.6154V40H22.5385V23H16.6154ZM24.2308 40H37.7692V33.2H31.8462V37.45H30.1538V31.5H37.7692V23H24.2308V40ZM30.1538 28.95V25.55H31.8462V28.95H30.1538ZM47.0769 28.95V23H53V27.25L50.4615 30.225L53 33.2V40H47.0769V31.4773H45.3846V40H39.4615V33.2L42 30.225L39.4615 27.25V23H45.3846V28.95H47.0769Z" fill="black"/></g><defs><clipPath id="clip0_2567_50"><rect width="44" height="17" fill="white" transform="translate(9 23)"/></clipPath></defs></svg>