<svg xmlns="http://www.w3.org/2000/svg" width="62" height="62" fill="none" xmlns:v="https://vecta.io/nano"><path d="M27.77 50.89L11.994 38.823c-1.161-.88-2.425-2.94-2.161-4.561.196-1.205.891-1.824 1.834-2.153l14.76-5.048c1.381-.444 3.572-.038 5.209 1.3 1.296 1.06 2.321 2.613 2.334 4.615l.269 16.499c0 .778-.327 2.097-1.86 2.56-1.492.45-3.348-.18-4.61-1.145z" fill="url(#B)"/><use href="#h" fill="url(#C)"/><use href="#h" fill="#ab81e9"/><path d="M27.77 50.89L11.994 38.823c-1.161-.88-2.425-2.94-2.161-4.561.196-1.205.891-1.824 1.834-2.153l14.76-5.048c1.381-.444 3.572-.038 5.209 1.3 1.296 1.06 2.452 2.628 2.474 4.631l.053 8.082.06 8.401c-.002.778-.311 2.097-1.845 2.56-1.492.45-3.348-.18-4.61-1.145z" fill="url(#D)"/><use href="#i" fill="url(#E)"/><use href="#i" fill="url(#F)"/><path d="M27.839 26.728c.639 0 1.342.142 2.034.411a7.06 7.06 0 0 1 2 1.193 6.19 6.19 0 0 1 1.522 1.908c.402.791.609 1.652.615 2.559l.058 7.765.063 8.914a2.8 2.8 0 0 1-.341 1.345c-.305.54-.79.914-1.441 1.11a3.55 3.55 0 0 1-1.024.144c-.578 0-1.214-.124-1.839-.36a6.54 6.54 0 0 1-1.648-.911L12.061 38.738c-.584-.442-1.177-1.177-1.584-1.966a5.39 5.39 0 0 1-.474-1.26 3.23 3.23 0 0 1-.062-1.231c.091-.557.291-.998.61-1.349.285-.312.662-.547 1.153-.718l15.001-5.305c.332-.12.714-.181 1.135-.181zm0-.109a3.46 3.46 0 0 0-1.172.187l-15 5.305c-.943.329-1.638.947-1.835 2.152-.263 1.621 1 3.681 2.162 4.561L27.77 50.892c.976.747 2.309 1.293 3.553 1.293.363 0 .719-.047 1.056-.148 1.533-.462 1.861-1.782 1.861-2.559l-.121-16.679c-.026-3.892-3.681-6.179-6.279-6.179z" fill="url(#G)"/><path d="M36.548 32.473c0-1.24.473-3.277 1.585-4.856.625-.888 1.413-1.7 2.23-2.071.635-.289.939-.337 1.693-.181l9.686 2.071c.557.113 1.164.491 1.245 1.652s-.225 2.995-1.524 4.887L41.26 48.727c-.993 1.433-2.485 2.348-3.332 2.125-1.075-.283-1.304-1.274-1.296-1.958.016-1.261-.083-16.421-.083-16.421h.001z" fill="url(#H)"/><use href="#j" fill="url(#I)"/><use href="#j" fill="#00ba97"/><path d="M36.893 32.473c0-1.241.428-3.036 1.54-4.615.626-.888 1.187-1.56 1.956-2.002.605-.348 1.191-.43 1.945-.274l9.408 1.854c.557.113 1.164.491 1.245 1.652s-.225 2.995-1.525 4.887L41.26 48.727c-.994 1.433-2.487 2.355-3.332 2.125-.997-.271-.942-1.244-.951-1.958l-.083-16.422z" fill="url(#J)"/><use href="#j" fill="url(#K)"/><use href="#j" fill="url(#L)"/><path d="M41.366 25.4c.177 0 .382.026.665.085l9.688 2.071c.305.062.552.195.735.396.239.262.378.647.412 1.145.032.455.016 1.198-.24 2.152a8.82 8.82 0 0 1-1.262 2.703L41.159 48.703c-.417.602-.953 1.146-1.507 1.532-.533.37-1.048.574-1.45.574-.088 0-.17-.01-.243-.029-.446-.117-.775-.375-.977-.767-.195-.377-.232-.79-.229-1.071.015-1.246-.082-16.239-.083-16.423 0-.665.128-1.495.352-2.276.271-.949.677-1.823 1.173-2.527.69-.98 1.499-1.73 2.22-2.058.367-.167.628-.257.952-.257zm0-.122c-.333 0-.601.087-1.002.269-.817.372-1.644 1.21-2.27 2.099-1.112 1.579-1.547 3.634-1.547 4.874l.083 16.422c-.008.684.222 1.674 1.296 1.957.086.023.178.033.275.033.868 0 2.165-.87 3.058-2.159L51.464 34.02c1.299-1.892 1.605-3.772 1.524-4.933s-.688-1.539-1.245-1.652l-9.686-2.071c-.279-.058-.495-.087-.691-.087z" fill="url(#M)"/><path d="M9 29.061c0-.832.553-2.08 1.28-2.95l11.677-14.022c.739-.889 2.22-2.035 3.351-2.511s1.873-.363 2.212.372l3.541 7.759c.323.707.265 1.328-.403 2.656-.846 1.683-3.095 3.656-4.615 4.211L10.99 30.049C9.723 30.508 9 29.778 9 29.061z" fill="url(#N)"/><use href="#k" fill="url(#O)"/><use href="#k" fill="#128414"/><path d="M9.081 28.904c0-.832.472-1.92 1.199-2.79l11.677-14.022c.739-.889 2.22-2.035 3.351-2.511s1.706-.344 2.045.391l3.428 7.462c.267.607.271 1.24-.346 2.454-.814 1.601-3.114 3.763-4.634 4.318l-15.13 5.551c-1.267.459-1.587-.135-1.587-.852h-.001z" fill="url(#P)"/><use href="#k" fill="url(#Q)"/><use href="#k" fill="#128414"/><use href="#k" fill="url(#R)"/><path d="M26.476 9.443c.432 0 .691.214.868.597l3.14 6.771.438.959a1.71 1.71 0 0 1 .158 1.011c-.055.387-.227.854-.558 1.514-.199.397-.483.822-.845 1.262-.344.418-.739.829-1.175 1.222-.873.786-1.788 1.389-2.51 1.652l-15.052 5.474a2.05 2.05 0 0 1-.694.134c-.331 0-.613-.107-.814-.31-.176-.178-.277-.421-.277-.669 0-.379.126-.876.355-1.4a6.19 6.19 0 0 1 .89-1.453l11.676-14.023c.354-.426.901-.931 1.503-1.386.63-.477 1.265-.861 1.789-1.082.432-.182.806-.275 1.11-.275zm0-.152c-.327 0-.717.096-1.169.287-1.131.476-2.611 1.622-3.351 2.511L10.28 26.112c-.726.87-1.28 2.118-1.28 2.95 0 .561.444 1.131 1.245 1.131a2.19 2.19 0 0 0 .745-.143l15.052-5.474c1.52-.555 3.769-2.528 4.615-4.211.668-1.328.726-1.949.403-2.656l-3.541-7.759a1.06 1.06 0 0 0-1.044-.658z" fill="url(#S)"/><path d="M30.417 10.057c-.216-.463-.247-.585-.126-.758s.169-.377.77-.259 1.894.629 4.108 2.272L48.673 21.35c1.539 1.141 2.657 2.375 2.876 2.903.178.413.095.501-.027.647-.102.122-.169.25-.524.214l-2.766-.624-7.125-1.646c-1.835-.427-3.893-1.965-4.62-2.544-.482-.385-1.225-.985-1.989-1.902-.308-.37-.517-.736-.79-1.333l-3.291-7.007z" fill="url(#T)"/><use href="#l" fill="url(#U)"/><use href="#l" fill="#0079ff"/><g filter="url(#A)"><use href="#m" fill="url(#V)"/><use href="#m" fill="url(#W)" fill-opacity=".2"/></g><use href="#n" fill="url(#X)"/><g fill="#00e1ff"><path d="M51.329 24.058c.063.179.099.506.008.594-.084.08-.237.049-.517-.016l-2.565-.647-7.127-1.695c-1.834-.427-3.65-1.887-4.376-2.466-.483-.384-1.033-.937-1.797-1.855-.307-.37-.754-1.143-1.039-1.735l-3.183-6.432c-.216-.463-.238-.597-.134-.686.052-.044.167-.055.448-.007.585.1 1.74.527 3.825 2.047-2.089-1.525-3.32-2.017-3.903-2.122-.526-.095-.563.12-.692.299-.098.138-.077.255.138.718l3.235 6.885c.273.597.538 1.086.846 1.456.764.917 1.443 1.456 1.925 1.841.727.579 2.76 2.148 4.594 2.575l7.125 1.646 2.765.639c.355.036.486-.126.589-.248.122-.146.055-.389-.166-.79z"/><use href="#n"/></g><use href="#n" fill="url(#Y)"/><path d="M51.329 24.058c.063.179.099.506.008.594-.084.08-.237.049-.516-.016l-2.566-.647-7.127-1.695c-1.834-.427-3.65-1.887-4.376-2.466-.483-.384-1.033-.937-1.797-1.855-.307-.37-.754-1.143-1.039-1.735l-3.183-6.432c-.216-.463-.238-.597-.134-.686.052-.044.167-.055.448-.007.585.1 1.74.527 3.825 2.047-2.089-1.525-3.32-2.017-3.903-2.122-.526-.095-.563.12-.692.299-.098.138-.077.255.138.718l3.235 6.885c.273.597.538 1.086.846 1.456.764.917 1.443 1.456 1.925 1.841.727.579 2.76 2.148 4.594 2.575l7.125 1.646 2.765.639c.356.036.422-.076.525-.199.24-.251.076-.426-.101-.839z" fill="url(#Z)" fill-opacity=".7"/><use href="#n" fill="url(#a)"/><use href="#n" fill="url(#b)"/><use href="#n" fill="url(#c)"/><use href="#n" fill="url(#b)"/><path d="M51.381 24.08c.063.179.099.506.007.593-.084.08-.237.05-.516-.015l-2.566-.647-7.127-1.695c-1.834-.427-3.65-1.887-4.376-2.466-.483-.384-1.033-.937-1.797-1.855-.307-.37-.754-1.144-1.039-1.735l-3.183-6.432c-.216-.463-.237-.597-.134-.686.052-.044.167-.055.448-.007.585.1 1.74.527 3.825 2.047-2.089-1.525-3.32-2.017-3.903-2.122-.526-.095-.563.12-.691.299-.098.138-.078.255.138.718l3.235 6.885c.273.597.538 1.086.846 1.456.763.917 1.442 1.456 1.924 1.841.727.579 2.76 2.148 4.594 2.575l7.125 1.646 2.766.639c.355.036.422-.076.524-.199.122-.146.076-.426-.101-.839z" fill="url(#d)"/><use href="#o" fill="url(#e)"/><use href="#o" fill="url(#f)"/><path d="M30.75 9.121a1.52 1.52 0 0 1 .285.033c.256.05.71.187 1.427.557.776.4 1.671.975 2.661 1.71l6.733 5.004 6.867 5.104a15.74 15.74 0 0 1 1.932 1.68c.473.489.819.935.925 1.193v.001c.072.167.036.239.026.313-.026.054-.036.091-.094.161l-.006.007-.027.034c-.073.09-.117.145-.293.145-.029 0-.061-.002-.096-.005l-2.711-.581-3.047-.704-4.225-.887c-.784-.183-1.695-.589-2.709-1.209a19.27 19.27 0 0 1-1.896-1.329c-.583-.464-1.264-1.032-1.986-1.898-.289-.348-.493-.692-.778-1.316l-3.218-7.124c-.225-.482-.213-.535-.137-.642l.041-.063c.073-.114.118-.182.326-.182zm0-.121c-.319 0-.369.158-.466.296-.122.174-.09.296.127.763l3.225 7.155c.275.601.486.97.796 1.343.769.924 1.517 1.528 2.003 1.915.732.583 2.805 2.131 4.652 2.562l7.264 1.558 2.72.583.114.006c.259 0 .322-.113.413-.222.124-.147.178-.27.064-.604-.22-.532-1.347-1.774-2.897-2.923l-13.57-10.108c-2.23-1.655-3.532-2.169-4.137-2.288A1.63 1.63 0 0 0 30.75 9z" fill="url(#g)"/><defs><filter id="A" x="30.419" y="9.047" width="21.141" height="15.791" filterUnits="userSpaceOnUse" color-interpolation-filters="sRGB"><feFlood flood-opacity="0"/><feBlend in="SourceGraphic" result="B"/><feColorMatrix in="SourceAlpha" values="0 0 0 0 0 0 0 0 0 0 0 0 0 0 0 0 0 0 127 0" result="C"/><feOffset/><feGaussianBlur stdDeviation=".651"/><feComposite in2="C" operator="arithmetic" k2="-1" k3="1"/><feColorMatrix values="0 0 0 0 0.958383 0 0 0 0 0.998042 0 0 0 0 1 0 0 0 1 0"/><feBlend in2="B"/></filter><linearGradient id="B" x1="16.057" y1="29.636" x2="36.206" y2="44.378" href="#p"><stop stop-color="#fda1ff"/><stop offset="1" stop-color="#97c5ff"/></linearGradient><linearGradient id="C" x1="33.283" y1="23.624" x2="29.176" y2="30.451" href="#p"><stop offset=".49" stop-color="#b78efa"/><stop offset="1" stop-color="#8f6ccd"/></linearGradient><linearGradient id="D" x1="19.982" y1="30.274" x2="32.35" y2="51.962" href="#p"><stop offset=".2" stop-color="#fda1ff"/><stop offset=".3" stop-color="#f3a4ff"/><stop offset=".48" stop-color="#d9adff"/><stop offset=".71" stop-color="#afbcff"/><stop offset=".83" stop-color="#97c5ff"/></linearGradient><radialGradient id="E" cx="0" cy="0" r="1" gradientTransform="matrix(1.55423 2.07021 -0.124202 0.0932613 32.9146 29.4368)" href="#p"><stop stop-color="#fff"/><stop offset="1" stop-color="#fff" stop-opacity="0"/></radialGradient><radialGradient id="F" cx="0" cy="0" r="1" gradientTransform="matrix(1.55423,2.07021,-0.57961,0.43522,32.8108,29.5091)" href="#p"><stop stop-color="#fff"/><stop offset="1" stop-color="#fff" stop-opacity="0"/></radialGradient><linearGradient id="G" x1="20.589" y1="28.647" x2="28.03" y2="55.637" href="#p"><stop stop-color="#eebeff"/><stop offset="1" stop-color="#79edff"/></linearGradient><linearGradient id="H" x1="45.322" y1="28.523" x2="41.012" y2="47.544" href="#p"><stop stop-color="#00b99a"/><stop offset="1" stop-color="#009cbd"/></linearGradient><linearGradient id="I" x1="44.996" y1="26.756" x2="37.575" y2="49.64" href="#p"><stop offset=".01" stop-color="#00cc9e"/><stop offset=".22" stop-color="#00884a"/><stop offset=".31" stop-color="#008d64"/><stop offset=".55" stop-color="#009a9d"/><stop offset=".75" stop-color="#00a3c7"/><stop offset=".91" stop-color="#00a8e1"/><stop offset="1" stop-color="#00abeb"/></linearGradient><linearGradient id="J" x1="39.909" y1="27.559" x2="46.03" y2="41.675" href="#p"><stop stop-color="#3ce6ac"/><stop offset="1" stop-color="#00e3ff"/></linearGradient><radialGradient id="K" cx="0" cy="0" r="1" gradientTransform="matrix(4.2468,0,0,4.24715,41.4015,25.4148)" href="#p"><stop offset=".01" stop-color="#fff"/><stop offset="1" stop-color="#fff" stop-opacity="0"/></radialGradient><radialGradient id="L" cx="0" cy="0" r="1" gradientTransform="matrix(1.06284,0,0,1.06293,40.8255,25.7766)" href="#p"><stop stop-color="#fff"/><stop offset="1" stop-color="#fff" stop-opacity="0"/></radialGradient><linearGradient id="M" x1="36.548" y1="38.105" x2="53" y2="38.105" href="#p"><stop stop-color="#00e4ff"/><stop offset="1" stop-color="#00e3f7"/></linearGradient><linearGradient id="N" x1="16.401" y1="12.917" x2="20.824" y2="25.762" href="#p"><stop stop-color="#00cdc2"/><stop offset="1" stop-color="#288822"/></linearGradient><linearGradient id="O" x1="16.419" y1="12.97" x2="20.826" y2="25.765" href="#p"><stop stop-color="#00cdc2"/><stop offset="1" stop-color="#288822"/></linearGradient><linearGradient id="P" x1="16.356" y1="12.926" x2="20.665" y2="25.437" href="#p"><stop stop-color="#00cdc3"/><stop offset="1" stop-color="#4fdb5e"/></linearGradient><radialGradient id="Q" cx="0" cy="0" r="1" gradientTransform="matrix(11.0835,0,0,11.0845,29.7569,21.0974)" href="#p"><stop stop-color="#fff"/><stop offset="1" stop-color="#fff" stop-opacity="0"/></radialGradient><radialGradient id="R" cx="0" cy="0" r="1" gradientTransform="matrix(-0.512738,4.56398,-0.444081,-0.049898,30.8219,20.1898)" href="#p"><stop stop-color="#fff"/><stop offset="1" stop-color="#fff" stop-opacity="0"/></radialGradient><linearGradient id="S" x1="17.301" y1="16.905" x2="21.304" y2="26.903" href="#p"><stop stop-color="#00cdc3"/><stop offset="1" stop-color="#4fdb5e"/></linearGradient><radialGradient id="T" cx="0" cy="0" r="1" gradientTransform="translate(42.3344 17.0628) scale(7.15286 7.15346)" href="#p"><stop stop-color="#88d2ff"/><stop offset="1" stop-color="#0079ff"/></radialGradient><radialGradient id="U" cx="0" cy="0" r="1" gradientTransform="translate(39.4263 17.0628) scale(10.1359 10.1367)" href="#p"><stop stop-color="#88d2ff"/><stop offset="1" stop-color="#0079ff"/></radialGradient><linearGradient id="V" x1="36.337" y1="18.976" x2="45.154" y2="15.132" href="#p"><stop offset=".04" stop-color="#62c7ff"/><stop offset=".79" stop-color="#d9b5ff"/></linearGradient><linearGradient id="W" x1="39.268" y1="17.231" x2="46.6" y2="20.048" href="#p"><stop stop-color="#c07dff" stop-opacity="0"/><stop offset="1" stop-color="#a855f5"/></linearGradient><radialGradient id="X" cx="0" cy="0" r="1" gradientTransform="matrix(2.0107 3.75642 -0.469927 0.25158 33.0813 14.6373)" href="#p"><stop stop-color="#0079ff"/></radialGradient><radialGradient id="Y" cx="0" cy="0" r="1" gradientTransform="matrix(2.0397,4.23915,-0.253878,0.122175,32.1307,13.3533)" href="#p"><stop stop-color="#0079ff"/><stop offset="1" stop-color="#0079ff" stop-opacity="0"/></radialGradient><linearGradient id="Z" x1="41.073" y1="22.133" x2="51.221" y2="24.854" href="#p"><stop stop-color="#0079ff"/><stop offset="1" stop-color="#0079ff" stop-opacity=".5"/></linearGradient><radialGradient id="a" cx="0" cy="0" r="1" gradientTransform="matrix(5.66539,1.377,-0.0275376,0.113317,45.56,23.2923)" href="#p"><stop stop-color="#cda2fd"/><stop offset="1" stop-color="#0079ff" stop-opacity="0"/></radialGradient><radialGradient id="b" cx="0" cy="0" r="1" gradientTransform="matrix(1.90781,0.702932,-0.119489,0.324354,40.0024,21.8507)" href="#p"><stop offset=".115" stop-color="#fff"/><stop offset="1" stop-color="#fff" stop-opacity="0"/></radialGradient><radialGradient id="c" cx="0" cy="0" r="1" gradientTransform="matrix(2.4214,1.58794,-0.452246,0.689731,35.5344,17.6843)" href="#p"><stop stop-color="#fff"/><stop offset="1" stop-color="#fff" stop-opacity="0"/></radialGradient><radialGradient id="d" cx="0" cy="0" r="1" gradientTransform="matrix(5.9512 1.47165 -0.0615535 0.248957 45.351 23.659)" href="#p"><stop stop-color="#0079ff"/><stop offset="1" stop-color="#0079ff" stop-opacity="0"/></radialGradient><linearGradient id="e" x1="30.221" y1="17.063" x2="51.652" y2="17.063" href="#p"><stop stop-color="#88d2ff"/><stop offset="1" stop-color="#f6b6ff"/></linearGradient><linearGradient id="f" x1="36.635" y1="20.223" x2="40.903" y2="16.431" href="#p"><stop stop-color="#0079ff"/><stop offset="1" stop-color="#0079ff" stop-opacity="0"/></linearGradient><linearGradient id="g" x1="30.213" y1="17.114" x2="51.795" y2="17.114" href="#p"><stop stop-color="#88d2ff"/><stop offset="1" stop-color="#f6b6ff"/></linearGradient><path id="h" d="M31.535 28.453c1.296 1.06 2.278 2.534 2.291 4.537.03 4.531.414 15.123.414 16.488l-.121-16.679c-.029-4.531-4.977-6.886-7.451-5.991l-14.999 5.305c2.936-1.025 12.301-4.124 14.806-4.929 1.38-.444 3.424-.067 5.061 1.271z"/><path id="i" d="M31.626 28.354c1.297 1.058 2.323 2.61 2.339 4.613l.285 16.499-.137-16.679c-.034-4.531-4.984-6.881-7.457-5.984l-14.994 5.32 14.755-5.063c1.38-.445 3.571-.041 5.21 1.295z"/><path id="j" d="M37.927 50.642c-.996-.271-.941-1.033-.951-1.747l-.083-16.421c0-1.24.428-3.036 1.54-4.615.625-.888 1.187-1.56 1.956-2.002.605-.348 1.192-.43 1.946-.274l9.408 1.854-9.686-2.071c-.754-.156-1.058-.108-1.693.181-.817.372-1.605 1.183-2.231 2.071-1.112 1.579-1.585 3.616-1.585 4.856l.083 16.422c-.008.684.222 1.674 1.296 1.957.847.223 2.339-.692 3.332-2.125-.994 1.433-2.487 2.144-3.332 1.915z"/><path id="k" d="M31.059 17.708l-3.54-7.759c-.235-.511-.667-.721-1.286-.642.548-.059.887.163 1.118.662l3.428 7.462c.267.607.271 1.24-.347 2.454-.814 1.601-3.114 3.763-4.634 4.317l-15.131 5.551c-1.267.459-1.587-.135-1.587-.852 0-.491.165-1.072.45-1.645-.325.637-.531 1.298-.531 1.805 0 .716.723 1.447 1.989.988l15.052-5.474c1.52-.555 3.769-2.528 4.615-4.211.668-1.328.726-1.949.403-2.656h-.001z"/><path id="l" d="M51.422 24.06c.063.179.099.506.007.593-.084.08-.237.05-.516-.015l-2.566-.647-7.127-1.695c-1.835-.427-3.65-1.887-4.377-2.466-.482-.384-1.062-.848-1.826-1.765-.308-.37-.77-1.233-1.054-1.825l-3.198-6.432c-.215-.463-.177-.597-.073-.686.052-.044.166-.055.448-.007.585.1 1.74.527 3.824 2.047-2.089-1.525-3.321-2.008-3.903-2.122-.601-.118-.648.086-.77.259s-.09.294.126.758l3.291 7.007c.273.597.482.963.79 1.333.764.917 1.507 1.517 1.989 1.902.726.579 2.786 2.117 4.62 2.544l7.125 1.646 2.766.624c.355.036.422-.091.525-.214.122-.146.076-.426-.101-.839z"/><path id="m" d="M30.592 9.854c-.216-.463-.206-.668-.102-.757.051-.044.374-.079.653-.016.607.136 1.811.588 4.024 2.232l13.441 10.066c1.539 1.141 2.616 2.313 2.835 2.841.063.179.172.46.08.548-.084.08-.187.092-.466.027l-2.777-.683-7.069-1.671c-1.834-.427-3.68-1.901-4.406-2.48-.483-.384-1.139-.883-1.902-1.8-.308-.37-.676-.733-.95-1.331l-3.362-6.977h.001z"/><path id="n" d="M51.329 24.058c.063.179.099.506.008.594-.084.08-.237.049-.516-.016l-2.566-.647-7.127-1.695c-1.834-.427-3.65-1.887-4.376-2.466-.483-.384-1.033-.937-1.797-1.855-.307-.37-.754-1.143-1.039-1.735l-3.183-6.432c-.216-.463-.238-.597-.134-.686.052-.044.167-.055.448-.007.585.1 1.74.527 3.825 2.047-2.089-1.525-3.32-2.017-3.903-2.122-.526-.095-.563.12-.692.299-.098.138-.077.255.138.718l3.235 6.885c.273.597.538 1.086.846 1.456.764.917 1.443 1.456 1.925 1.841.727.579 2.76 2.148 4.594 2.575l7.125 1.646 2.765.639c.356.036.422-.076.525-.199.122-.146.076-.426-.101-.839z"/><path id="o" d="M30.754 9.126a1.51 1.51 0 0 1 .283.033c.253.05.705.186 1.417.553.77.397 1.66.968 2.642 1.698l6.686 4.969 6.819 5.068c.894.663 1.537 1.273 1.918 1.668.469.486.813.929.919 1.184v.001c.071.166.101.282.09.356-.007.055-.027.096-.086.165l-.005.007-.028.034c-.073.089-.149.083-.325.083-.029 0-.06-.002-.094-.005l-2.733-.568-2.907-.744-4.217-.902c-.778-.181-1.683-.585-2.69-1.2-.841-.514-1.541-1.048-1.883-1.32-.579-.461-1.205-1.023-1.921-1.884-.291-.354-.51-.711-.794-1.331l-3.322-6.985c-.223-.479-.211-.531-.136-.637l.041-.062c.072-.113.116-.181.323-.181zm0-.12c-.317 0-.366.157-.463.294-.122.173-.09.294.126.758l3.291 7.007c.273.597.447 1.007.755 1.377.764.917 1.514 1.521 1.997 1.906.726.579 2.801 2.147 4.636 2.574l7.136 1.568 2.766.624.114.006c.258 0 .321-.112.411-.22.122-.146.204-.233.027-.647-.219-.528-1.338-1.762-2.877-2.903L35.169 11.313c-2.214-1.643-3.507-2.154-4.108-2.272-.124-.024-.224-.035-.307-.035z"/><linearGradient id="p" gradientUnits="userSpaceOnUse"/></defs></svg>