<svg width="62" height="62" viewBox="0 0 62 62" fill="none" xmlns="http://www.w3.org/2000/svg"><path d="M17.6719 21.5968C17.6719 16.2966 22.01 12 27.3614 12H42.8646C48.2159 12 52.5538 16.2966 52.5538 21.5968V35.0322C52.5538 40.3326 48.2159 44.629 42.8646 44.629H24.9389H18.6408C18.1057 44.629 17.6719 44.1995 17.6719 43.6694V21.5968Z" fill="white"/><path d="M9 21.5968C9 16.2966 13.3381 12 18.6894 12H34.1925C39.5439 12 43.882 16.2966 43.882 21.5968V35.0322C43.882 40.3325 39.5439 44.6292 34.1925 44.6292H17.6266C16.7465 44.6292 15.8927 44.9256 15.2054 45.4704L10.5742 49.1399C10.25 49.3968 9.84601 49.3564 9.52847 49.1963C9.22467 49.0428 9 48.784 9 48.3904V21.5968Z" fill="url(#paint0_linear_2236_39)"/><defs><linearGradient id="paint0_linear_2236_39" x1="-10.9125" y1="31.2204" x2="30.4443" y2="31.2204" gradientUnits="userSpaceOnUse"><stop stop-color="#FFEFBE"/><stop offset="1" stop-color="#FFC926"/></linearGradient></defs></svg>