<svg xmlns="http://www.w3.org/2000/svg" width="62" height="62" fill="none" xmlns:v="https://vecta.io/nano"><rect width="62" height="62" rx="31" fill="#fff"/><g fill="#000"><path d="M32.434 29.912l.007-.004.002-.002-.009.006zm-20.109 7.4l-.002-.022-.002-.011.004.033zm30.746.907c-.035.011-.073.013-.108.024l-.033.011.141-.035z"/><path d="M52.985 27.816l-.007-.063-.012-.063c-.167-.857-1.001-1.549-2.073-1.722a3.64 3.64 0 0 0-.579-.046c-.416 0-.831.069-1.232.203-.967.324-1.85.994-2.695 2.041-.244.301-.482.627-.706.972-.867-1.667-2.39-5.177-2.748-9.803-.114-1.53-1.416-2.73-2.963-2.73a3.63 3.63 0 0 0-.114.002l-.016.001c-.583.028-1.128.22-1.588.547a3.14 3.14 0 0 0-.903-1.39l-.015-.013c-.565-.485-1.28-.753-2.014-.753-.114 0-.23.006-.333.018-1.626.169-2.84 1.57-2.772 3.191l.016.389c-.448-.248-.944-.38-1.452-.38-.208 0-.419.022-.615.063a3.05 3.05 0 0 0-2.408 3.465c.092.582.193 1.151.293 1.679a3.01 3.01 0 0 0-.948-.153c-.207 0-.416.022-.616.064-1.483.307-2.512 1.683-2.395 3.2l.004.04c.017.167.04.302.062.419l-6.749 1.226c-1.084.198-1.903 1.102-1.993 2.203a2.41 2.41 0 0 0 .043.692 2.42 2.42 0 0 0 .318.791l-3.508.637a2.44 2.44 0 0 0-1.986 2.694l.004.031c.16 1.207 1.197 2.116 2.416 2.116a2.49 2.49 0 0 0 .408-.034l.417-.076c-.03.153-.047.31-.047.471 0 .131.01.257.029.377a2.41 2.41 0 0 0 .343.909l-2.84.516a2.42 2.42 0 0 0-1.592 1.038c-.372.552-.501 1.213-.365 1.861l.012.053c.252 1.094 1.251 1.888 2.374 1.888.129 0 .261-.011.403-.033l.018-.003 8.233-1.499a2.49 2.49 0 0 0-.039.26c-.02.223-.009.447.034.667a2.44 2.44 0 0 0 2.395 1.987 2.49 2.49 0 0 0 .408-.034l9.204-1.676a13.29 13.29 0 0 0 .856.721l.017.017.009.006.042.039.066.039.333.253h.047c1.877 1.218 3.972 1.859 6.085 1.859a10.6 10.6 0 0 0 2.95-.421c2.169-.627 3.75-1.695 4.975-3.363 1.456-1.986 2.393-4.831 2.864-8.697.184-1.517.895-2.65 1.522-3.649.638-1.008 1.241-1.961 1.124-3.047h-.001z"/></g><path d="M39.137 29.014c-1.479-3.468-1.968-6.689-2.114-8.922v-.028l-.119-2.028a1.62 1.62 0 0 0-.549-1.146 1.58 1.58 0 0 0-1.214-.381c-.833.087-1.468.812-1.43 1.644.186 5.964 2.056 10.577 2.555 11.713a12.54 12.54 0 0 1 2.87-.851h.001zm12.358-1.038c-.028-.147-.294-.441-.842-.529a2.31 2.31 0 0 0-1.095.099c-.814.273-1.479.91-2.008 1.566a10.02 10.02 0 0 0-.706.989l-.264.441c-.108.196-.186.421-.333.587-.119.157-.304.216-.481.285l-.519.235c-.332.175-.646.382-.95.607a6.08 6.08 0 0 0-1.89 2.408c-.196.695-1.155.471-1-.225.138-.499.363-.969.618-1.419.617-1.088 1.537-1.999 2.615-2.654-.862-1.538-2.781-5.485-3.203-10.92-.058-.784-.734-1.371-1.527-1.341-.402.019-.764.186-1.03.479a1.46 1.46 0 0 0-.382 1.058c.108 2.175.559 5.503 2.136 9.078.02.039.03.078.039.117.313-.02.626-.028.941-.028.635-.011.695.91.067.989-1.194.078-2.389.303-3.516.715-1.077.402-2.114.929-2.976 1.674-.764.754-1.822-.421-.98-1.106a9.44 9.44 0 0 1 .754-.52c-.294-.635-1.097-2.516-1.752-5.239 0-.009-.011-.019-.011-.03-.333-1.283-.637-2.712-.901-4.278a1.56 1.56 0 0 0-.656-1.019 1.5 1.5 0 0 0-1.185-.244c-.823.166-1.352.939-1.224 1.762.343 2.175.814 4.153.902 4.515.009.009.009.02.009.028.011.019.011.03.011.03.41 1.499 1.028 3.505 1.879 5.455a.743.743 0 0 1-1.361.596c-1-2.281-1.695-4.652-2.105-6.228-.206-.784-.989-1.272-1.782-1.106-.752.156-1.263.86-1.205 1.617.027.265.071.418.111.608.94 4.525 3.171 12.763 8.229 16.607 2.492 1.752 5.39 2.301 8.161 1.497 1.861-.538 3.154-1.41 4.182-2.81 1.292-1.763 2.145-4.377 2.585-7.992.225-1.851 1.067-3.192 1.743-4.27.54-.853.961-1.527.901-2.086l-.001.001zm-5.689 9.636c-.069.597-.206 1.205-.421 1.792-1.136 3.31-5.014 4.554-8.08 3.173-.961-.428-1.826-1.059-2.474-1.882a21.04 21.04 0 0 0-.621.657c-.637.656-1.587-.323-.891-.94a25.12 25.12 0 0 1 2.752-1.91c.186-.108.421-.049.529.137.098.166.059.372-.088.499a25.2 25.2 0 0 0-.895.795c1.347 1.308 3.356 1.992 5.185 1.614 2.233-.411 3.369-2.096 3.976-4.152a.53.53 0 0 1 .666-.343.52.52 0 0 1 .362.558h0z" fill="#fff"/><path d="M26.398 30.023l-8.384 1.527a1.09 1.09 0 0 1-.171.015c-.442 0-.829-.315-.919-.749a.94.94 0 0 1 .752-1.117l8.272-1.503.449 1.827v.001z" fill="url(#A)"/><path d="M27.368 33.235l-14.499 2.641a1.07 1.07 0 0 1-.169.015.94.94 0 0 1-.931-.818l-.002-.011a.94.94 0 0 1 .764-1.039l14.26-2.591.576 1.803v.001z" fill="url(#B)"/><path d="M28.619 36.397l-12.534 2.279a1.07 1.07 0 0 1-.169.015c-.462 0-.86-.345-.929-.802a.85.85 0 0 1-.011-.141.94.94 0 0 1 .772-.923l12.126-2.204.745 1.776h0z" fill="url(#C)"/><path d="M30.261 39.484L11.61 42.878c-.057.009-.114.015-.171.015-.435 0-.817-.304-.914-.727l-.006-.025a.93.93 0 0 1 .141-.715c.144-.213.361-.355.613-.4l18.002-3.273.986 1.731-.001.001z" fill="url(#D)"/><path d="M32.577 42.452l-9.923 1.807a1.07 1.07 0 0 1-.169.015.94.94 0 0 1-.923-.77.89.89 0 0 1-.014-.25c.037-.421.352-.769.769-.845l8.847-1.608a15.88 15.88 0 0 0 1.413 1.651z" fill="url(#E)"/><defs><linearGradient id="A" x1="16.904" y1="29.88" x2="26.398" y2="29.88" href="#F"><stop stop-color="#ff2832"/><stop offset="1" stop-color="#fff"/></linearGradient><linearGradient id="B" x1="11.761" y1="33.661" x2="27.368" y2="33.661" href="#F"><stop stop-color="#ffbc00"/><stop offset="1" stop-color="#fff"/></linearGradient><linearGradient id="C" x1="14.976" y1="36.656" x2="28.619" y2="36.656" href="#F"><stop stop-color="#78ba3a"/><stop offset="1" stop-color="#fff"/></linearGradient><linearGradient id="D" x1="10.499" y1="40.323" x2="30.261" y2="40.323" href="#F"><stop stop-color="#37b2ff"/><stop offset="1" stop-color="#fff"/></linearGradient><linearGradient id="E" x1="21.544" y1="42.537" x2="32.577" y2="42.537" href="#F"><stop stop-color="#388eff"/><stop offset="1" stop-color="#fff"/></linearGradient><linearGradient id="F" gradientUnits="userSpaceOnUse"/></defs></svg>