<svg width="62" height="62" viewBox="0 0 62 62" fill="none" xmlns="http://www.w3.org/2000/svg"><path d="M19.5157 9.02395C19.6171 9.02364 19.7186 9.02334 19.8231 9.02302C20.1615 9.02214 20.5 9.02198 20.8384 9.02182C21.0818 9.02135 21.3251 9.02083 21.5684 9.02028C22.2976 9.01879 23.0267 9.01817 23.7559 9.01767C24.1004 9.01741 24.4449 9.01702 24.7894 9.01663C25.9366 9.01538 27.0838 9.01433 28.2309 9.01398C28.3043 9.01396 28.3776 9.01393 28.4531 9.01391C28.5266 9.01389 28.6001 9.01387 28.6758 9.01384C28.8247 9.0138 28.9736 9.01375 29.1225 9.01371C29.2333 9.01367 29.2333 9.01367 29.3463 9.01364C30.54 9.01323 31.7336 9.01144 32.9272 9.00905C34.1564 9.00661 35.3855 9.00534 36.6146 9.00522C37.3033 9.00512 37.9919 9.00452 38.6805 9.00267C39.3295 9.00097 39.9785 9.00077 40.6275 9.00166C40.8641 9.00174 41.1006 9.0013 41.3372 9.00028C44.6203 8.98692 47.4691 9.44859 49.9856 11.7065C50.053 11.7666 50.1203 11.8266 50.1897 11.8885C52.0561 13.6515 52.8804 16.2417 52.9713 18.7445C52.9753 19.0135 52.9763 19.2823 52.976 19.5514C52.9765 19.7039 52.9765 19.7039 52.977 19.8595C52.9779 20.197 52.978 20.5345 52.9782 20.872C52.9786 21.1154 52.9792 21.3587 52.9797 21.6021C52.9812 22.3298 52.9818 23.0575 52.9823 23.7851C52.9826 24.1292 52.983 24.4732 52.9834 24.8172C52.9846 25.9631 52.9857 27.109 52.986 28.2548C52.986 28.328 52.9861 28.4012 52.9861 28.4765C52.9861 28.5499 52.9861 28.6232 52.9862 28.6987C52.9862 28.8473 52.9862 28.9958 52.9863 29.1444C52.9863 29.218 52.9863 29.2917 52.9864 29.3676C52.9868 30.5593 52.9886 31.7509 52.9909 32.9425C52.9934 34.1703 52.9947 35.398 52.9948 36.6258C52.9949 37.3134 52.9955 38.0009 52.9973 38.6885C52.999 39.3363 52.9992 39.984 52.9983 40.6318C52.9983 40.8678 52.9987 41.1039 52.9997 41.34C53.013 44.5977 52.5641 47.6459 50.2207 50.0769C47.8862 52.4085 44.8773 52.9966 41.6872 53.002C41.462 53.0014 41.2367 53.0008 41.0115 53.0001C40.768 53.0005 40.5244 53.0011 40.2809 53.0017C39.6262 53.0031 38.9715 53.0026 38.3167 53.0016C37.9063 53.0012 37.4958 53.0012 37.0854 53.0015C37.0168 53.0015 36.9482 53.0016 36.8776 53.0016C36.7382 53.0017 36.5988 53.0018 36.4594 53.0019C35.1585 53.0028 33.8576 53.0018 32.5567 53.0001C31.4455 52.9987 30.3343 52.999 29.2232 53.0004C27.9263 53.0021 26.6294 53.0027 25.3325 53.0018C25.1936 53.0017 25.0548 53.0016 24.916 53.0015C24.8477 53.0014 24.7794 53.0014 24.7091 53.0013C24.2328 53.0011 23.7564 53.0015 23.2801 53.0022C22.6365 53.0031 21.993 53.0025 21.3495 53.0007C21.1151 53.0003 20.8806 53.0004 20.6462 53.0011C17.3558 53.0098 14.368 52.5325 11.9131 50.1895C11.8212 50.1019 11.7292 50.0143 11.6345 49.9241C9.26612 47.4937 8.98981 44.2234 9.00152 41.002C9.00127 40.7576 9.00089 40.5133 9.00039 40.2689C8.99943 39.6121 9.00038 38.9553 9.00176 38.2984C9.00281 37.6779 9.00254 37.0573 9.00235 36.4367C9.00202 35.2073 9.00321 33.978 9.00523 32.7487C9.00718 31.5601 9.00791 30.3716 9.00734 29.1831C9.00671 27.883 9.00674 26.5829 9.0079 25.2828C9.00802 25.1439 9.00815 25.0049 9.00827 24.8659C9.00833 24.7976 9.00839 24.7292 9.00846 24.6588C9.00885 24.1807 9.00881 23.7026 9.00862 23.2245C9.00843 22.5797 9.00927 21.9349 9.01088 21.2901C9.01132 21.0546 9.01141 20.8191 9.01112 20.5837C9.00785 17.4236 9.40955 14.3196 11.742 11.9739C11.8323 11.8857 11.9227 11.7974 12.0157 11.7065C12.1243 11.5948 12.1243 11.5948 12.235 11.4808C13.6934 10.0668 15.692 9.41025 17.6599 9.14098C17.7788 9.12369 17.8977 9.1064 18.0202 9.08858C18.5193 9.02679 19.0134 9.02347 19.5157 9.02395Z" fill="#EE164F"/><path d="M17.8651 25.458C23.5162 25.458 23.5162 25.458 24.5407 26.4586C25.1605 27.174 25.3388 27.8451 25.3048 28.788C25.2038 29.5103 24.9602 30.1798 24.4329 30.6917C24.4329 30.7594 24.4329 30.8272 24.4329 30.8969C24.5048 30.9477 24.5768 30.9985 24.6509 31.0509C25.2004 31.5287 25.6244 32.2334 25.696 32.965C25.7282 33.9111 25.6297 34.6221 25.0486 35.4123C24.4241 36.0368 23.7647 36.3959 22.8936 36.5411C21.2342 36.5411 19.5748 36.5411 17.8651 36.5411C17.8651 32.8837 17.8651 29.2263 17.8651 25.458Z" fill="#FEFDFD"/><path d="M36.0291 25.3555C36.7064 25.3555 37.3837 25.3555 38.0815 25.3555C38.0815 26.5407 38.0815 27.726 38.0815 28.9472C38.4879 28.7779 38.8943 28.6086 39.3129 28.4341C40.499 28.2527 41.5656 28.544 42.564 29.1809C43.311 29.7355 43.8566 30.5381 44.0961 31.4406C44.3003 32.8541 44.1313 34.013 43.2895 35.1943C42.6954 35.9056 41.8506 36.4528 40.9183 36.5722C40.6603 36.586 40.4051 36.5892 40.1467 36.5861C40.056 36.5852 39.9653 36.5844 39.8718 36.5835C38.7522 36.5545 37.974 36.1798 37.1579 35.4124C36.351 34.5318 36.0113 33.5628 36.0174 32.3805C36.0174 32.3043 36.0174 32.2282 36.0174 32.1497C36.0174 31.8993 36.0182 31.6489 36.019 31.3985C36.0192 31.2244 36.0194 31.0502 36.0195 30.8761C36.0199 30.4188 36.0209 29.9614 36.022 29.504C36.0231 29.037 36.0235 28.5699 36.0241 28.1028C36.0252 27.187 36.027 26.2712 36.0291 25.3555Z" fill="#FEFBFC"/><path d="M33.2391 29.1265C34.1442 29.7829 34.7919 30.7067 35.0029 31.8203C35.0932 33.1731 34.7421 34.3475 33.8789 35.4044C33.5153 35.7728 33.1056 36.0084 32.6426 36.233C32.5734 36.2679 32.5042 36.3029 32.433 36.3389C31.5719 36.6986 30.3511 36.6886 29.4613 36.4254C28.2984 35.9428 27.538 35.1333 26.9928 34.0158C26.6278 33.0913 26.6419 31.8884 26.992 30.9609C27.5302 29.8451 28.4686 28.9602 29.6409 28.5493C30.9104 28.2211 32.1307 28.4401 33.2391 29.1265Z" fill="#FEFBFC"/><path d="M31.8666 30.5951C32.2672 30.898 32.6217 31.2651 32.8479 31.7175C32.913 32.5308 32.9582 33.3056 32.4374 33.9752C31.9698 34.4308 31.5036 34.6202 30.8532 34.623C30.2888 34.6094 29.912 34.5278 29.5003 34.1171C28.9476 33.4994 28.7955 33.0697 28.8148 32.2346C28.8708 31.669 29.0426 31.3162 29.4422 30.915C30.1661 30.3428 31.0042 30.3285 31.8666 30.5951Z" fill="#EE1850"/><path d="M41.1088 30.6021C41.5394 30.925 41.8811 31.316 42.0837 31.8207C42.1727 32.6025 42.1628 33.3321 41.6733 33.9758C41.2136 34.4236 40.7417 34.6206 40.1019 34.6364C39.5122 34.6253 39.1405 34.4609 38.6972 34.0784C38.2711 33.6299 38.0738 33.2262 38.0494 32.6096C38.0681 32.0168 38.1694 31.5402 38.5854 31.1004C39.3442 30.4242 40.1113 30.2814 41.1088 30.6021Z" fill="#EE1850"/><path d="M19.8149 31.9226C20.2639 31.9143 20.7128 31.9082 21.1618 31.9034C21.2888 31.9008 21.4158 31.8982 21.5467 31.8956C21.6697 31.8946 21.7927 31.8936 21.9195 31.8926C22.0323 31.891 22.1452 31.8894 22.2615 31.8877C22.7749 31.943 23.1026 32.1241 23.4516 32.4999C23.6644 32.9596 23.6582 33.2887 23.5093 33.7698C23.2656 34.2097 22.9599 34.4411 22.4831 34.5908C22.1799 34.6141 22.1799 34.6141 21.8493 34.6108C21.6887 34.6101 21.6887 34.6101 21.5249 34.6093C21.323 34.6065 21.323 34.6065 21.1169 34.6036C20.6873 34.5994 20.2576 34.5952 19.8149 34.5908C19.8149 33.7103 19.8149 32.8298 19.8149 31.9226Z" fill="#EE1951"/><path d="M19.8149 27.4073C20.2448 27.3907 20.6741 27.3785 21.1041 27.3688C21.2254 27.3637 21.3466 27.3585 21.4715 27.3532C22.484 27.3362 22.484 27.3362 22.9212 27.6919C23.2094 27.9755 23.3096 28.2416 23.3249 28.6436C23.2764 29.1101 23.0761 29.3858 22.7396 29.6971C22.3584 29.9544 22.0779 29.9854 21.6289 29.9829C21.5338 29.9826 21.4387 29.9824 21.3408 29.9821C21.2203 29.9812 21.0999 29.9802 20.9758 29.9793C20.5927 29.9772 20.2096 29.975 19.8149 29.9729C19.8149 29.1262 19.8149 28.2796 19.8149 27.4073Z" fill="#EE1B52"/></svg>
