<svg xmlns="http://www.w3.org/2000/svg" width="62" height="62" fill="none"><rect width="62" height="62" rx="31" fill="#fff"/><path d="M31.966 40.746c-3.808 0-6.906-3.126-6.906-6.967s3.098-6.967 6.906-6.967 6.906 3.124 6.906 6.967-3.1 6.967-6.906 6.967zm.002-11.748c-2.614 0-4.741 2.145-4.741 4.78s2.125 4.783 4.739 4.783 4.739-2.145 4.739-4.783S34.579 29 31.966 29M12.13 27.66v-6.083c.001-.416-.163-.816-.456-1.111s-.691-.463-1.108-.465a1.57 1.57 0 0 0-1.11.463A1.57 1.57 0 0 0 9 21.577v12.159c.004 4.114 3.318 7.453 7.388 7.453s7.386-3.342 7.386-7.453-3.315-7.449-7.386-7.449a7.3 7.3 0 0 0-4.259 1.373zm4.259 10.373a4.28 4.28 0 0 1-4.259-4.295 4.28 4.28 0 0 1 4.259-4.294 4.28 4.28 0 0 1 4.259 4.294 4.28 4.28 0 0 1-4.259 4.295zM46.574 27.3c-1.024.002-2.033.25-2.942.724a6.4 6.4 0 0 0-2.279 1.997v-9.137c0-.16-.062-.313-.175-.427s-.265-.178-.425-.18-.313.065-.426.179-.176.268-.175.428v12.899c.004 3.573 2.882 6.477 6.424 6.477S53 37.353 53 33.778s-2.884-6.479-6.426-6.479m0 11.748c-2.878 0-5.219-2.363-5.219-5.267s2.343-5.265 5.219-5.265 5.221 2.361 5.221 5.265-2.341 5.267-5.221 5.267z" fill="#535353"/></svg>
