<svg width="62" height="62" viewBox="0 0 62 62" fill="none" xmlns="http://www.w3.org/2000/svg">
<rect width="62" height="62" rx="10" fill="white"/>
<path d="M27.7588 21.3539L18.4561 12L9 21.3539H15.3893V50.8978H21.3696V21.3539H27.7588Z" fill="#FFBB01"/>
<path d="M40.2306 35.4613L30.9279 26.1074L21.4718 35.4613H27.8611V51H33.8414V35.4613H40.2306Z" fill="#188BF6"/>
<path d="M52.8047 21.3539L43.502 12L34.0459 21.3539H40.4352V50.8978H46.4155V21.3539H52.8047Z" fill="#32CD32"/>
<path d="M21.3696 26.8227V21.3535H15.236L21.3696 26.8227Z" fill="#94751C"/>
<path d="M33.9436 40.9819V35.5127H27.8099L33.9436 40.9819Z" fill="#1E5F94"/>
<path d="M33.9436 40.9819V35.5127H27.8099L33.9436 40.9819Z" fill="#1E5F94"/>
<path d="M46.5177 26.8745V21.4053H40.384L46.5177 26.8745Z" fill="#307B37"/>
</svg>
