<svg xmlns="http://www.w3.org/2000/svg" width="62" height="62" fill="#fd454d"><path d="M41.155 37.347L21.471 14.179c-.254-.289-.372-.597-.372-.931 0-.371.136-.678.408-.904.263-.226.626-.344 1.089-.344h18.368c.799 0 1.443.289 1.942.868l9.683 11.077c.254.335.39.769.408 1.311s-.118.977-.408 1.311l-9.438 10.589c-.245.298-.581.47-.998.534s-.744-.054-.998-.343zm-11.18 12.578L9.41 26.197c-.29-.335-.427-.769-.408-1.302.027-.543.182-.977.472-1.311l6.625-7.722c.336-.371.69-.561 1.062-.561.454 0 .835.19 1.125.561L38.977 40.15c.245.289.372.597.372.904 0 .316-.118.615-.372.904l-6.997 7.967c-.254.334-.572.497-.971.497s-.744-.163-1.035-.497z"/></svg>