<svg width="62" height="62" viewBox="0 0 62 62" fill="none" xmlns="http://www.w3.org/2000/svg"><path d="M14.3001 47.1386L24.109 52.8174C24.6597 53.1272 25.3481 52.9895 25.7611 52.5077C27.0001 51.0277 28.8586 50.064 30.9581 50.064C33.0576 50.064 34.9161 51.0277 36.1551 52.5077C36.5682 52.9895 37.2565 53.1616 37.8072 52.8174L47.6506 47.1041C48.3045 46.7255 48.4766 45.8651 48.0636 45.2456C47.5817 44.5228 47.0655 43.8689 46.5148 43.215C45.0348 41.4941 43.2451 40.1174 41.2833 38.9816L39.9755 38.2244L39.9066 38.19C39.8378 38.1556 39.769 38.1212 39.6657 38.0868C39.2527 37.9147 38.7709 37.9835 38.4611 38.3277C36.6026 40.3583 33.918 41.6318 30.9581 41.6318C27.9982 41.6318 25.3137 40.3583 23.4551 38.3277C23.1454 37.9835 22.6635 37.9147 22.2849 38.0868L20.7361 38.9816C18.2581 40.3927 16.0898 42.2857 14.4033 44.5572C14.2312 44.7982 14.0591 45.0391 13.8871 45.28C13.4396 45.9339 13.6461 46.7944 14.3001 47.1386Z" fill="#294DFF"/><path d="M15.8835 14.8213C15.3328 15.131 15.0919 15.8194 15.3328 16.4045C16.0212 18.2286 15.9179 20.328 14.851 22.1522C13.784 23.9763 12.0287 25.1121 10.1014 25.4218C9.48184 25.5251 9 26.0413 9 26.6953V37.9842C9 38.707 9.61951 39.3265 10.3767 39.2576C13.2678 39.0856 16.09 38.2595 18.6369 36.9173L19.8415 36.2289C20.1513 36.0224 20.4954 35.8159 20.8052 35.6094C21.1838 35.3685 21.3214 34.8866 21.2182 34.4736C20.4266 31.8579 20.6675 28.9668 22.1475 26.4199C23.6274 23.873 26.071 22.221 28.7212 21.6015C29.1342 21.4982 29.4784 21.1541 29.5128 20.7066C29.5472 20.1904 29.5816 19.6741 29.616 19.1234V18.3318C29.5816 15.3719 28.8589 12.412 27.5854 9.76189C27.2757 9.10796 26.4152 8.86705 25.7957 9.21122L15.8835 14.8213Z" fill="#1F95FF"/><path d="M47.0353 22.1541C45.9684 20.33 45.8652 18.2306 46.5535 16.4064C46.76 15.8213 46.5535 15.133 46.0028 14.8232L36.125 9.17877C35.4711 8.80018 34.6451 9.0411 34.3353 9.72945C33.0275 12.414 32.3391 15.3395 32.3047 18.2994V19.091C32.3047 19.6073 32.3391 20.1235 32.4079 20.6742C32.4424 21.1216 32.7865 21.4658 33.1995 21.5691C35.8841 22.1541 38.2933 23.8062 39.7733 26.3875C41.2532 28.9344 41.4941 31.8599 40.7025 34.4412C40.5649 34.8542 40.737 35.336 41.1156 35.5769C41.4253 35.7834 41.7351 35.99 42.0792 36.1965L43.2839 36.8848C45.8307 38.2271 48.653 39.0531 51.544 39.2252C52.2668 39.2596 52.8863 38.6745 52.8863 37.9518V26.6628C52.8863 26.0433 52.4389 25.4926 51.785 25.3894C49.8576 25.0796 48.0679 23.9438 47.0353 22.1541Z" fill="#5FBBFF"/></svg>