<svg xmlns="http://www.w3.org/2000/svg" width="62" height="62" fill="none"><path d="M42.269 23.487v-5.24a4.03 4.03 0 0 0 1.692-1.481 4.02 4.02 0 0 0 .635-2.156v-.12c0-2.228-1.806-4.035-4.036-4.035h-.119c-1.071 0-2.097.425-2.853 1.182s-1.182 1.783-1.182 2.853v.12a4.04 4.04 0 0 0 .635 2.156 4.03 4.03 0 0 0 1.692 1.481v5.24a11.43 11.43 0 0 0-5.434 2.392L18.93 14.687a4.44 4.44 0 0 0 .161-1.132 4.54 4.54 0 0 0-.761-2.527 4.55 4.55 0 0 0-4.664-1.942 4.55 4.55 0 0 0-2.33 1.24 4.54 4.54 0 0 0-1.247 2.326 4.55 4.55 0 0 0 .254 2.627 4.56 4.56 0 0 0 1.673 2.043 4.54 4.54 0 0 0 2.523.77c.787-.004 1.559-.214 2.239-.609l14.15 11.011c-1.271 1.92-1.934 4.179-1.901 6.482s.754 4.543 2.078 6.428l-4.303 4.305c-.349-.111-.712-.17-1.078-.175-.738.001-1.459.22-2.071.631a3.74 3.74 0 0 0-1.375 1.675c-.282.682-.354 1.432-.212 2.157a3.74 3.74 0 0 0 2.932 2.932c.724.144 1.476.071 2.157-.211a3.73 3.73 0 0 0 1.676-1.374c.41-.614.631-1.335.631-2.073a3.67 3.67 0 0 0-.177-1.076l4.259-4.259a11.48 11.48 0 0 0 4.72 2.154c1.718.348 3.491.299 5.188-.144s3.265-1.268 4.592-2.413 2.376-2.577 3.063-4.188a11.45 11.45 0 0 0 .905-5.109c-.091-1.75-.582-3.455-1.436-4.986s-2.043-2.846-3.484-3.844a11.48 11.48 0 0 0-4.822-1.918zM40.504 40.72a5.9 5.9 0 0 1-2.304-.401c-.733-.286-1.401-.716-1.964-1.265a5.89 5.89 0 0 1-1.319-1.931 5.87 5.87 0 0 1 0-4.583c.307-.725.754-1.382 1.319-1.93s1.231-.979 1.964-1.265 1.517-.422 2.304-.401c1.524.053 2.97.697 4.031 1.794s1.652 2.564 1.655 4.09-.591 2.993-1.65 4.091-2.504 1.743-4.029 1.798" fill="#ff7a59"/></svg>