<svg width="120" height="120" viewBox="0 0 120 120" fill="none" xmlns="http://www.w3.org/2000/svg">
  <rect width="120" height="120" rx="24" fill="#121826"/>
  <path d="M33 39C33 34.5817 36.5817 31 41 31H79C83.4183 31 87 34.5817 87 39V81C87 85.4183 83.4183 89 79 89H41C36.5817 89 33 85.4183 33 81V39Z" fill="#00A6A6"/>
  <path d="M44 53C44 49.134 47.134 46 51 46H69C72.866 46 76 49.134 76 53V67C76 70.866 72.866 74 69 74H51C47.134 74 44 70.866 44 67V53Z" fill="white"/>
  <path d="M52 58C52 56.8954 52.8954 56 54 56C55.1046 56 56 56.8954 56 58V62C56 63.1046 55.1046 64 54 64C52.8954 64 52 63.1046 52 62V58Z" fill="#121826"/>
  <path d="M64 58C64 56.8954 64.8954 56 66 56C67.1046 56 68 56.8954 68 58V62C68 63.1046 67.1046 64 66 64C64.8954 64 64 63.1046 64 62V58Z" fill="#121826"/>
  <path d="M52 80H68" stroke="white" stroke-width="6" stroke-linecap="round"/>
  <path d="M60 31V21" stroke="#00A6A6" stroke-width="6" stroke-linecap="round"/>
</svg>
