<svg width="64" height="64" viewBox="0 0 64 64" fill="none" xmlns="http://www.w3.org/2000/svg">
  <path d="M16 20C16 15.5817 19.5817 12 24 12H40C44.4183 12 48 15.5817 48 20V44C48 48.4183 44.4183 52 40 52H24C19.5817 52 16 48.4183 16 44V20Z" fill="#00A6A6"/>
  <path d="M23 28C23 24.6863 25.6863 22 29 22H35C38.3137 22 41 24.6863 41 28V36C41 39.3137 38.3137 42 35 42H29C25.6863 42 23 39.3137 23 36V28Z" fill="white"/>
  <path d="M29 31C29 29.8954 29.8954 29 31 29C32.1046 29 33 29.8954 33 31V33C33 34.1046 32.1046 35 31 35C29.8954 35 29 34.1046 29 33V31Z" fill="#121826"/>
  <path d="M35 31C35 29.8954 35.8954 29 37 29C38.1046 29 39 29.8954 39 31V33C39 34.1046 38.1046 35 37 35C35.8954 35 35 34.1046 35 33V31Z" fill="#121826"/>
  <path d="M27 48H37" stroke="white" stroke-width="4" stroke-linecap="round"/>
  <path d="M32 12V8" stroke="#00A6A6" stroke-width="4" stroke-linecap="round"/>
</svg>
