<svg xmlns="http://www.w3.org/2000/svg" viewBox="0 0 63 62" style="background-color: white;">
  <path style="stroke:#000;stroke-width:0;stroke-dasharray:none;stroke-linecap:butt;stroke-dashoffset:0;stroke-linejoin:miter;stroke-miterlimit:4;fill:#f25533;fill-rule:nonzero;opacity:1" vector-effect="non-scaling-stroke" transform="matrix(1.3 0 0 1.3 11 5)" d="M12.6 44.9v-6.1h7.9V45c7.3-1.8 12.8-8.4 12.8-16.3 0-6.5-4.6-15.5-9.9-18.4.7 2.5-.4 5.8-1.8 5.5-.5-.1-.6-1-.7-2.3-.2-2.9-.5-8.1-5.8-13.5-.3 3.8-6.3 11.5-10.2 16.6-.5.7-1 1.3-1.5 1.9C1.2 21.4 0 25 0 28.7 0 36.3 5.2 43 12.6 44.9zM21.1 32c0 2.5-2 4.5-4.4 4.5-2.5 0-4.4-2-4.4-4.5 0-1 .4-2 .9-2.7l.4-.5c1-1.3 2.6-3.4 2.8-4.4 3.2 2.3 4.7 5.9 4.7 7.6z"/>
</svg>
