<svg xmlns="http://www.w3.org/2000/svg" viewBox="0 0 46.018 62" xml:space="preserve" width="46.018" height="62"><path d="M17.36 61.863v-8.404h10.884V62C38.302 59.52 45.88 50.427 45.88 39.542c0-8.956-6.338-21.356-13.64-25.351.964 3.444-.551 7.991-2.48 7.578-.689-.138-.827-1.378-.964-3.169-.276-3.996-.689-11.16-7.991-18.6-.413 5.236-8.68 15.845-14.053 22.871-.689.964-1.378 1.791-2.067 2.618C1.653 29.485 0 34.445 0 39.542c0 10.472 7.164 19.703 17.36 22.321m11.711-17.774c0 3.444-2.756 6.2-6.062 6.2-3.444 0-6.062-2.756-6.062-6.2 0-1.378.551-2.756 1.24-3.72l.551-.689c1.378-1.791 3.582-4.684 3.858-6.062 4.409 3.169 6.476 8.129 6.476 10.471" style="fill-rule:evenodd;clip-rule:evenodd;fill:#f25533"/></svg>