<svg width="62" height="62" viewBox="0 0 62 62" fill="none" xmlns="http://www.w3.org/2000/svg">
<path d="M27.6612 9.22725C26.1045 9.43207 22.7863 10.4767 21.373 11.1731C12.5858 15.5564 7.73139 24.9376 9.28809 34.5645C11.234 46.5265 22.5405 54.6582 34.482 52.7123C46.5259 50.7664 54.6576 39.5009 52.7117 27.4979C50.9707 16.7035 41.6305 8.85855 30.7336 9.00193C29.7504 9.02242 28.3781 9.12483 27.6612 9.22725ZM25.4081 18.4036C26.0021 18.9976 26.0226 19.1 25.9406 20.3494C25.8382 22.1314 25.1008 23.1965 23.4622 24.0159C21.9465 24.7737 21.0452 24.6303 20.2874 23.5243C19.8572 22.9098 19.8163 22.623 19.8777 21.3326C19.9392 19.9603 20.0006 19.7964 20.6561 19.1C21.5778 18.1373 22.3357 17.8096 23.6875 17.7891C24.6502 17.7891 24.8755 17.871 25.4081 18.4036ZM32.2289 25.5726C32.5156 25.9003 32.5771 26.187 32.4747 27.0473C32.3927 27.6413 32.2903 28.3582 32.2084 28.645C32.0855 29.0137 32.4132 28.7679 33.3349 27.7847C34.8097 26.187 35.9363 25.5726 37.3291 25.5726C38.7014 25.5726 39.5822 26.1461 40.0328 27.3341C40.3196 28.0919 40.3606 28.6655 40.2581 30.8571C40.1762 32.2909 40.0328 34.2368 39.9099 35.1995C39.6641 37.3297 39.828 39.3575 40.3196 39.9515C40.6678 40.3816 40.7088 40.3816 41.2003 40.0539C41.4871 39.8696 41.9787 39.3575 42.3064 38.8864C43.0233 37.8623 43.5968 37.8623 43.9246 38.8659C44.4366 40.4636 43.351 42.901 41.7739 43.7408C40.463 44.4372 38.3737 44.4168 37.0423 43.6794C34.7073 42.4094 34.1952 40.2587 34.8916 34.7079C35.2603 31.7789 35.0965 30.6933 34.2771 30.6933C32.8843 30.6933 31.6963 34.3597 31.3891 39.6443C31.2252 42.5119 30.9794 43.1059 29.7504 43.6999C29.2998 43.9252 28.3781 44.13 27.7022 44.171C26.5961 44.2529 26.4117 44.1915 26.1455 43.8228L25.8382 43.3926L25.0599 43.8023C23.9948 44.3348 21.9055 44.3553 20.738 43.8228C19.6524 43.3312 18.6692 42.1227 18.2391 40.7299C17.6861 38.8864 17.9114 31.7584 18.6487 28.9522C18.9355 27.8052 19.6934 26.9039 20.9223 26.187C22.1923 25.4701 23.2779 25.3882 23.8309 25.9822C24.2406 26.4328 24.1996 27.416 23.6261 31.3077C23.3803 32.9669 23.2983 34.4621 23.3598 36.326C23.4622 39.4394 23.708 40.1973 24.6502 40.2792C24.9984 40.2997 25.3876 40.2383 25.531 40.1563C25.9816 39.8491 26.1659 38.5177 26.1864 35.5067C26.2069 31.1439 26.4732 28.3787 26.9443 27.5799C27.948 25.8388 31.3071 24.5484 32.2289 25.5726Z" fill="#FF4A00"/>
</svg>
