<svg width="62" height="62" viewBox="0 0 62 62" fill="none" xmlns="http://www.w3.org/2000/svg"><mask id="mask0_479_2" style="mask-type:luminance" maskUnits="userSpaceOnUse" x="9" y="9" width="44" height="44"><path d="M53 9H9V53H53V9Z" fill="white"/></mask><g mask="url(#mask0_479_2)"><path d="M31.0049 53C43.1552 53 53.0049 43.1503 53.0049 31C53.0049 18.8497 43.1552 9 31.0049 9C18.8546 9 9.00488 18.8497 9.00488 31C9.00488 43.1503 18.8546 53 31.0049 53Z" fill="#0081FF"/><path d="M24.8468 34.1851H19.0054C18.8 34.1851 18.6709 33.963 18.773 33.7845L28.1302 17.4326H41.8231C42.0452 17.4326 42.1708 17.6874 42.0348 17.8635L35.3448 26.5407C35.2093 26.7169 35.3345 26.9717 35.5565 26.9717H42.701C42.9421 26.9717 43.0602 27.265 42.8864 27.4319L22.5332 47.0212C22.3398 47.2073 22.0237 47.0248 22.0879 46.7642L25.1068 34.5162C25.1481 34.348 25.0207 34.1851 24.8468 34.1851Z" fill="white"/></g></svg>