<svg xmlns="http://www.w3.org/2000/svg" xmlns:xlink="http://www.w3.org/1999/xlink" width="62" height="62" fill="none"><g clip-path="url(#C)"><use xlink:href="#D" fill="url(#A)"/><use xlink:href="#D" fill="url(#B)"/><path d="M31.001 15l-6.597.097c-1.703.078-2.866.348-3.883.743-1.052.409-1.945.955-2.834 1.845s-1.437 1.782-1.847 2.834c-.397 1.018-.667 2.181-.743 3.883L15 31l.097 6.595c.078 1.703.348 2.866.743 3.883.409 1.052.956 1.945 1.845 2.834s1.782 1.438 2.833 1.847c1.018.396 2.181.665 3.884.743l6.596.097 6.596-.097c1.703-.078 2.867-.348 3.885-.743 1.052-.409 1.943-.957 2.832-1.847a7.85 7.85 0 0 0 1.847-2.834c.393-1.018.663-2.181.743-3.883L46.999 31l-.097-6.597c-.08-1.703-.35-2.866-.743-3.883a7.85 7.85 0 0 0-1.847-2.834c-.89-.89-1.78-1.437-2.833-1.845-1.02-.396-2.183-.665-3.887-.743L30.996 15h.005zm-1.435 2.883h1.435l6.465.092c1.56.071 2.407.332 2.971.551.747.29 1.279.637 1.839 1.197s.907 1.093 1.197 1.84c.219.563.48 1.41.551 2.97l.093 6.463-.093 6.463c-.071 1.56-.332 2.407-.551 2.97-.29.747-.637 1.278-1.197 1.838s-1.092.907-1.839 1.197c-.563.22-1.411.48-2.971.551l-6.465.093c-4.272 0-4.778-.017-6.465-.093-1.56-.072-2.407-.333-2.971-.552-.747-.29-1.28-.637-1.84-1.197a4.96 4.96 0 0 1-1.197-1.839c-.219-.563-.48-1.41-.551-2.97l-.092-6.466.092-6.463c.071-1.56.332-2.407.551-2.971.29-.747.637-1.28 1.197-1.84s1.093-.907 1.84-1.197c.564-.22 1.411-.48 2.971-.552l5.03-.09v.004zm9.976 2.657a1.92 1.92 0 0 0-1.92 1.919 1.92 1.92 0 0 0 3.84 0 1.92 1.92 0 0 0-1.92-1.92v.001zm-8.54 2.243A8.22 8.22 0 0 0 22.784 31c0 4.537 3.679 8.215 8.216 8.215s8.215-3.677 8.215-8.215a8.22 8.22 0 0 0-8.215-8.216zm0 2.883c2.945 0 5.333 2.388 5.333 5.333s-2.388 5.333-5.333 5.333-5.333-2.388-5.333-5.333 2.387-5.333 5.333-5.333z" fill="#fff"/></g><defs><radialGradient id="A" cx="0" cy="0" r="1" gradientUnits="userSpaceOnUse" gradientTransform="translate(20.8458 55.999) rotate(-90) scale(42.9416 39.95)"><stop stop-color="#fd5"/><stop offset=".1" stop-color="#fd5"/><stop offset=".5" stop-color="#ff543e"/><stop offset="1" stop-color="#c837ab"/></radialGradient><radialGradient id="B" cx="0" cy="0" r="1" gradientUnits="userSpaceOnUse" gradientTransform="matrix(3.7686037327099853,18.821720643867934,-77.60330549405461,15.538223751653062,2.07379,12.4548)"><stop stop-color="#3771c8"/><stop offset=".128" stop-color="#3771c8"/><stop offset="1" stop-color="#60f" stop-opacity="0"/></radialGradient><clipPath id="C"><path fill="#fff" transform="translate(9 9)" d="M0 0h44v43.999H0z"/></clipPath><path id="D" d="M31.011 9.334l-12.207.052c-1.857.154-3.012.447-4.271 1.073a8.65 8.65 0 0 0-2.49 1.823c-1.375 1.427-2.208 3.183-2.51 5.271-.147 1.013-.189 1.22-.198 6.396v7.041l.053 12.196c.15 1.807.433 2.943 1.033 4.187a9.13 9.13 0 0 0 5.917 4.833c.893.23 1.88.357 3.147.417.537.023 6.006.04 11.48.04l11.47-.033c1.467-.069 2.318-.183 3.26-.427 2.597-.67 4.746-2.43 5.916-4.843.588-1.213.887-2.393 1.022-4.106.029-.373.042-6.325.042-12.27l-.043-12.26c-.137-1.74-.435-2.91-1.042-4.147-.498-1.012-1.052-1.768-1.855-2.541-1.434-1.369-3.187-2.203-5.276-2.504-1.012-.146-1.214-.19-6.394-.199h-7.053z"/></defs></svg>