<svg xmlns="http://www.w3.org/2000/svg" width="62" height="62" fill="none"><g clip-path="url(#A)"><path d="M47.133 33.191c-.004.386-.161.755-.435 1.027s-.645.424-1.032.424-.757-.152-1.032-.424-.431-.641-.435-1.027V20c.004-.386.16-.755.435-1.027s.645-.424 1.032-.424.757.152 1.032.424.431.641.435 1.027v13.191zm-.512 9.18c-.227.194-5.66 4.753-15.621 4.753s-15.394-4.559-15.621-4.753c-.295-.253-.478-.613-.508-1.001s.096-.772.349-1.067.612-.478.999-.508.77.094 1.066.346c.086.072 4.938 4.05 13.716 4.05 8.888 0 13.665-4.006 13.712-4.047.614-.527 1.541-.456 2.068.159.253.295.379.679.349 1.067s-.212.748-.508 1.001zM14.867 20c.004-.386.161-.755.435-1.027s.645-.424 1.032-.424.757.152 1.031.424.431.641.435 1.027v13.191c-.004.386-.16.755-.435 1.027s-.645.424-1.031.424-.757-.152-1.032-.424-.431-.641-.435-1.027V20zm7.334-2.933c.006-.385.163-.752.437-1.023s.644-.422 1.029-.422.755.152 1.029.422.431.637.437 1.023v19.594c-.006.385-.163.752-.437 1.023s-.644.422-1.029.422-.755-.151-1.029-.422-.431-.638-.437-1.023V17.067zm7.333-.742c0-.193.038-.383.112-.561s.182-.34.318-.476.298-.244.476-.318.369-.112.561-.112.383.038.561.112.34.182.476.318.244.298.318.476.112.369.112.561v21.267c-.004.386-.161.755-.435 1.027s-.645.424-1.031.424-.757-.152-1.032-.424-.431-.641-.435-1.027V16.325zm7.333.742c.006-.385.163-.752.437-1.023s.644-.422 1.029-.422.755.152 1.029.422.431.637.437 1.023v19.594c-.006.385-.163.752-.437 1.023s-.644.422-1.029.422-.755-.151-1.029-.422-.431-.638-.437-1.023V17.067zM47.5 9h-33A5.5 5.5 0 0 0 9 14.5v33a5.5 5.5 0 0 0 5.5 5.5h33a5.5 5.5 0 0 0 5.5-5.5v-33A5.5 5.5 0 0 0 47.5 9z" fill="#1f8ded"/></g><defs><clipPath id="A"><path fill="#fff" transform="translate(9 9)" d="M0 0h44v44H0z"/></clipPath></defs></svg>