<svg xmlns="http://www.w3.org/2000/svg" width="62" height="62" fill="none" xmlns:v="https://vecta.io/nano"><g clip-path="url(#A)"><path fill-rule="evenodd" d="M50.107 9a.23.23 0 0 1 .232.23v4.212a.23.23 0 0 1-.232.23H33.029v34.658h17.078c.107 0 .197.071.224.169l.008.061v4.212a.23.23 0 0 1-.17.222l-.062.008H11.232c-.107 0-.197-.071-.224-.169L11 52.77v-4.212a.23.23 0 0 1 .17-.222l.062-.008H28.31V13.671H11.232c-.107 0-.197-.071-.224-.169L11 13.441V9.23a.23.23 0 0 1 .232-.23h38.875zm-27.294 9.883c.106 0 .197.071.224.169l.008.061v23.773a.23.23 0 0 1-.171.222l-.061.008H11.232c-.107 0-.197-.071-.224-.169L11 42.887v-4.212a.23.23 0 0 1 .17-.222l.062-.008h7.094V23.554l-7.094.001c-.107 0-.197-.071-.224-.169L11 23.325v-4.212a.23.23 0 0 1 .17-.222l.062-.008h7.319.008 4.254zm19.967 0h.007 7.32c.107 0 .197.071.224.169l.008.061v4.212a.23.23 0 0 1-.17.222l-.062.008-7.096-.001v14.891h7.096c.107 0 .197.071.224.169l.008.061v4.212a.23.23 0 0 1-.17.222l-.062.008H38.526c-.107 0-.197-.072-.224-.169l-.008-.061V19.113a.23.23 0 0 1 .17-.222l.062-.008h4.254z" fill="#4bbf79"/></g><defs><clipPath id="A"><path fill="#fff" transform="translate(11 9)" d="M0 0h40v44H0z"/></clipPath></defs></svg>