<?xml version="1.0" encoding="UTF-8"?>
<svg xmlns="http://www.w3.org/2000/svg" xmlns:xlink="http://www.w3.org/1999/xlink" width="62px" height="62px" viewBox="0 0 62 62" version="1.1">
<g id="surface1">
<rect x="0" y="0" width="62" height="62" style="fill:rgb(100%,100%,100%);fill-opacity:1;stroke:none;"/>
<path style=" stroke:none;fill-rule:nonzero;fill:rgb(0%,0%,0%);fill-opacity:1;" d="M 54.171875 49.109375 L 32.746094 16.179688 L 23.8125 16.179688 L 44.296875 48.070312 L 13.234375 48.070312 L 13.234375 26.339844 L 6.890625 16.546875 L 6.890625 51.589844 C 6.890625 52.496094 7.222656 53.402344 7.828125 54.070312 C 8.433594 54.742188 9.238281 55.109375 10.078125 55.109375 L 51.953125 55.109375 C 53.230469 55.109375 54.371094 54.273438 54.875 52.964844 C 55.347656 51.625 55.078125 50.113281 54.171875 49.109375 Z M 54.171875 49.109375 "/>
<path style=" stroke:none;fill-rule:nonzero;fill:rgb(0%,0%,0%);fill-opacity:1;" d="M 7.828125 12.890625 L 29.21875 45.820312 L 38.1875 45.820312 L 17.703125 13.929688 L 48.765625 13.929688 L 48.765625 35.695312 L 55.109375 45.488281 L 55.109375 10.410156 C 55.109375 9.503906 54.777344 8.597656 54.171875 7.929688 C 53.566406 7.257812 52.761719 6.890625 51.921875 6.890625 L 10.046875 6.890625 C 8.769531 6.921875 7.628906 7.761719 7.125 9.070312 C 6.652344 10.375 6.921875 11.886719 7.828125 12.890625 Z M 7.828125 12.890625 "/>
</g>
</svg>
