<svg width="62" height="62" viewBox="0 0 62 62" fill="none" xmlns="http://www.w3.org/2000/svg">
<rect width="62" height="62" rx="31" fill="white"/>
<path d="M23.0124 27.8597V26.6571H21.8863V27.8597H21.0867V24.6475H21.8863V25.9281H23.0124V24.6475H23.8004V27.8597H23.0124Z" fill="black"/>
<path d="M25.9039 27.8587L25.3105 26.7516H24.7451V27.8587H23.9449V24.6465H25.6238C26.1613 24.6465 26.569 25.0394 26.5833 25.5653V25.5938C26.5833 25.9366 26.4256 26.2078 26.1276 26.3781L26.0395 26.4288L26.7431 27.8587H25.9034H25.9039ZM24.6866 26.1888H25.3116C25.5679 26.1724 25.7578 25.9467 25.7452 25.6745C25.7441 25.396 25.5511 25.1776 25.3047 25.1776H24.6866V26.1888Z" fill="black"/>
<path d="M26.5364 24.6586L26.5243 24.7177C26.5243 24.7177 26.5243 24.7298 26.5364 24.7298H26.5955V24.9556C26.5955 24.9556 26.5955 24.9677 26.6076 24.9677H26.6551C26.6551 24.9677 26.6672 24.9677 26.6672 24.9556V24.7182H26.7263C26.7263 24.7182 26.7384 24.7182 26.7384 24.7061V24.6586C26.7384 24.6586 26.7384 24.6465 26.7263 24.6465H26.5364V24.6586Z" fill="black"/>
<path d="M27.047 24.6586L27.0349 24.6465H27.0227L26.9278 24.8364L26.8213 24.6586H26.7975C26.7975 24.6586 26.7854 24.6586 26.7854 24.6707L26.7379 24.9556C26.7379 24.9556 26.7379 24.9677 26.7501 24.9677H26.7975C26.7975 24.9677 26.8097 24.9677 26.8097 24.9556L26.845 24.8132L26.9162 24.9556H26.9515L27.0106 24.8132L27.0344 24.9434C27.0344 24.9434 27.0344 24.9556 27.0465 24.9556H27.094C27.094 24.9556 27.1061 24.9556 27.1061 24.9434L27.047 24.6586Z" fill="black"/>
<path d="M14.3848 25.0728C14.1833 24.8412 13.9465 24.7199 13.7434 24.6566C13.6157 24.6097 13.4691 24.5859 13.3035 24.5859C12.6331 24.5859 12.0819 24.9984 11.8641 25.662C11.7148 26.2659 11.7723 26.4674 11.8646 26.8308C12.0682 27.498 12.6378 27.929 13.3151 27.929C13.3779 27.929 13.4375 27.9253 13.495 27.9184C14.1574 27.8678 14.399 27.4427 14.399 27.4427L14.4344 27.8461H15.2313V24.6339H14.4322L14.3848 25.0728ZM12.602 26.2575C12.602 25.8065 12.9828 25.4257 13.4338 25.4257C13.8848 25.4257 14.2656 25.8065 14.2656 26.2575C14.2656 26.7084 13.8848 27.0893 13.4338 27.0893C12.9828 27.0893 12.602 26.7084 12.602 26.2575Z" fill="black"/>
<path d="M15.358 25.4252H16.9314L15.358 27.0249V27.8457H18.0602V27.0888H16.3386L18.0723 25.4858V24.6445H15.358V25.4252Z" fill="black"/>
<path d="M20.9348 24.6445H18.2089V25.4252H19.7817L18.2089 27.0249V27.8457H20.9348V27.0888H19.2411L20.9348 25.4869V24.6445Z" fill="black"/>
<path d="M9 27.929V27.0572H9.6435C10.1261 27.0572 10.6251 26.6278 10.6251 25.9094V24H11.6278V26.21C11.5492 27.2534 10.7707 27.929 9.6435 27.929H9Z" fill="black"/>
<path d="M15.7952 32.7698H11.5482C11.6378 33.0003 11.7871 33.1775 11.9954 33.2999C12.2038 33.4222 12.4649 33.4839 12.7771 33.4839C13.0451 33.4839 13.2708 33.4507 13.4533 33.3832C13.6358 33.3157 13.8352 33.2012 14.0509 33.0372L15.3701 34.3659C14.7736 35.0209 13.8837 35.348 12.6991 35.348C11.9617 35.348 11.3134 35.2119 10.7543 34.9403C10.1952 34.6686 9.7627 34.291 9.45731 33.8073C9.15191 33.3241 9 32.7808 9 32.178C9 31.5751 9.15138 31.0228 9.45256 30.5428C9.75479 30.0629 10.1678 29.6884 10.6931 29.4209C11.218 29.153 11.8087 29.0195 12.4643 29.0195C13.083 29.0195 13.6474 29.1424 14.157 29.3877C14.667 29.6335 15.0737 29.9948 15.3754 30.4706C15.6766 30.9463 15.828 31.516 15.828 32.1785C15.828 32.2159 15.8169 32.4132 15.7947 32.7703H15.7958L15.7952 32.7698ZM11.8383 30.95C11.6668 31.0919 11.555 31.2924 11.5028 31.5529H13.4697C13.4175 31.3003 13.3056 31.1009 13.1342 30.9564C12.9628 30.8113 12.7465 30.7391 12.4865 30.7391C12.2265 30.7391 12.0097 30.8097 11.8388 30.9516V30.9506L11.8383 30.95Z" fill="#B477D2"/>
<path d="M26.087 29.7C26.5306 30.1542 26.7521 30.8383 26.7521 31.754V35.2373H24.2261V32.1902C24.2261 31.4908 23.9982 31.1405 23.5441 31.1405C23.3051 31.1405 23.1137 31.2302 22.9686 31.4085C22.8236 31.5868 22.7508 31.8705 22.7508 32.2566V35.2373H20.2248V32.1902C20.2248 31.4908 19.9969 31.1405 19.5428 31.1405C19.3039 31.1405 19.1124 31.2302 18.9673 31.4085C18.8223 31.5868 18.7495 31.8705 18.7495 32.2566V35.2373H16.2235V29.1304H18.6266V29.7C19.0813 29.2464 19.6583 29.0186 20.3588 29.0186C20.7686 29.0186 21.1378 29.0951 21.4654 29.2469C21.7929 29.3999 22.0619 29.6325 22.2703 29.9443C22.5161 29.6462 22.8146 29.4179 23.1638 29.258C23.5146 29.0982 23.8975 29.0186 24.3152 29.0186C25.0526 29.0186 25.6434 29.2459 26.0864 29.7H26.087Z" fill="#B477D2"/>
<path d="M32.8205 29.4041C33.271 29.661 33.6285 30.0313 33.8939 30.515C34.1581 30.9992 34.2911 31.5567 34.2911 32.1896C34.2911 32.8226 34.1593 33.378 33.8939 33.858C33.629 34.338 33.271 34.7062 32.8205 34.963C32.37 35.2199 31.8764 35.3486 31.3394 35.3486C30.6616 35.3486 30.1431 35.1735 29.7855 34.8243V37.4025H27.2595V29.1304H29.6626V29.6325C30.0271 29.2227 30.5867 29.0186 31.3394 29.0186C31.8753 29.0186 32.369 29.1473 32.8205 29.4041ZM31.4512 33.0716C31.6374 32.8632 31.7303 32.5694 31.7303 32.1902C31.7303 31.8109 31.6364 31.515 31.4512 31.3025C31.2651 31.0899 31.0261 30.9844 30.736 30.9844C30.4459 30.9844 30.207 31.0899 30.0208 31.3025C29.8346 31.515 29.7417 31.8109 29.7417 32.1902C29.7417 32.5694 29.8346 32.8632 30.0208 33.0716C30.207 33.2799 30.4448 33.3843 30.736 33.3843C31.0272 33.3843 31.2651 33.2804 31.4512 33.0716Z" fill="#B477D2"/>
<path d="M34.7267 26.9541H37.2528V35.2368H34.7267V26.9541Z" fill="#B477D2"/>
<path d="M39.3325 34.9412C38.7923 34.6696 38.3693 34.294 38.064 33.814C37.7586 33.334 37.6057 32.7886 37.6057 32.1789C37.6057 31.5692 37.7574 31.0238 38.064 30.5438C38.3693 30.0638 38.7923 29.6893 39.3325 29.4219C39.8726 29.154 40.4824 29.0205 41.1601 29.0205C41.838 29.0205 42.4583 29.1545 42.9989 29.4219C43.5391 29.6898 43.9598 30.0638 44.2616 30.5438C44.5628 31.0238 44.7142 31.5692 44.7142 32.1789C44.7142 32.7886 44.5628 33.334 44.2616 33.814C43.9605 34.294 43.5391 34.6696 42.9989 34.9412C42.4588 35.2128 41.8464 35.3489 41.1601 35.3489C40.474 35.3489 39.8726 35.2128 39.3325 34.9412ZM41.876 33.0661C42.0621 32.8535 42.1549 32.5576 42.1549 32.1784C42.1549 31.7992 42.0609 31.5053 41.876 31.297C41.6897 31.0887 41.4507 30.9842 41.1608 30.9842C40.8707 30.9842 40.6316 31.0887 40.4455 31.297C40.2592 31.5053 40.1664 31.7992 40.1664 32.1784C40.1664 32.5576 40.2592 32.8535 40.4455 33.0661C40.6316 33.2787 40.8695 33.3842 41.1608 33.3842C41.4518 33.3842 41.6897 33.2787 41.876 33.0661Z" fill="#B477D2"/>
<path d="M51.7273 29.1304L49.2124 35.3586C48.8918 36.1546 48.493 36.7131 48.0161 37.0333C47.5392 37.3535 46.9544 37.5133 46.2619 37.5133C45.919 37.5133 45.5746 37.4632 45.2279 37.3624C44.8814 37.2617 44.6071 37.1298 44.4068 36.9658L45.2448 35.2357C45.372 35.3323 45.515 35.4108 45.6752 35.4704C45.8356 35.53 45.9896 35.5601 46.1388 35.5601C46.4147 35.5601 46.6237 35.4783 46.7644 35.3143L44.1941 29.1299H46.7867L48.0494 32.4006L49.3348 29.1299H51.7268L51.7273 29.1304Z" fill="#B477D2"/>
<path d="M52.0485 29.1932V29.1357H52.4335V29.1932H52.2742V29.5999H52.2089V29.1932H52.0485Z" fill="#B477D2"/>
<path d="M52.936 29.5999V29.2618L52.7678 29.5435H52.7378L52.5696 29.2639V29.5999H52.5063V29.1357H52.5607L52.7541 29.4617L52.9457 29.1357H53V29.5999H52.936Z" fill="#B477D2"/>
<path d="M29.1753 26.7732C29.1242 26.6656 29.054 26.5828 28.9649 26.5248C28.8757 26.4673 28.776 26.4383 28.6663 26.4383C28.5397 26.4383 28.4348 26.4726 28.3514 26.5417C28.2934 26.5892 28.2496 26.6456 28.2174 26.7099V25.8555H27.8356V27.8609H28.1731L28.1879 27.5697C28.2043 27.6103 28.2248 27.6483 28.2501 27.6842C28.2955 27.7485 28.3535 27.7986 28.4232 27.835C28.4928 27.8714 28.5703 27.8894 28.6563 27.8894C28.7718 27.8894 28.8741 27.8603 28.9643 27.8028C29.0545 27.7453 29.1252 27.6625 29.1764 27.5544C29.2275 27.4468 29.2529 27.3176 29.2529 27.1667C29.2529 27.0159 29.2275 26.8814 29.1764 26.7732H29.1753ZM28.7818 27.4858C28.7233 27.5592 28.6426 27.5961 28.5408 27.5961C28.4775 27.5961 28.421 27.5792 28.372 27.546C28.3229 27.5127 28.2844 27.4637 28.2575 27.3993C28.2306 27.335 28.2169 27.2574 28.2169 27.1662C28.2169 27.075 28.2306 27 28.2575 26.9346C28.2844 26.8698 28.3219 26.8191 28.3704 26.7838C28.4189 26.7484 28.4764 26.7311 28.5434 26.7311C28.6457 26.7311 28.7254 26.768 28.7834 26.8413C28.8409 26.9146 28.8699 27.0222 28.8699 27.1636C28.8699 27.3049 28.8404 27.4125 28.7818 27.4858Z" fill="#B477D2"/>
<path d="M30.3383 26.4669L30.0846 27.2866L29.9981 27.5825L29.9258 27.3034L29.661 26.4669H29.237L29.6637 27.5181L29.8172 27.8805L29.7697 28.0002C29.7438 28.0672 29.7117 28.1115 29.6737 28.1342C29.6357 28.1563 29.5904 28.1674 29.5387 28.1674C29.487 28.1674 29.4437 28.1611 29.4047 28.1495C29.3657 28.1373 29.3282 28.1173 29.2929 28.0894L29.2122 28.3652C29.257 28.3932 29.3092 28.4158 29.3699 28.4338C29.4305 28.4512 29.497 28.4601 29.5692 28.4601C29.6679 28.4601 29.7528 28.4433 29.8245 28.41C29.8963 28.3768 29.9596 28.3225 30.0144 28.2481C30.0693 28.1737 30.1189 28.0735 30.1637 27.9469L30.727 26.4658H30.3393L30.3383 26.4669Z" fill="#B477D2"/>
</svg>
