<svg width="62" height="62" viewBox="0 0 27.6 27.4" fill="none" xmlns="http://www.w3.org/2000/svg">
  <rect width="27.6" height="27.4" rx="13.8" fill="white"/>
  <path d="M13.7888 0C21.4041 0 27.5777 6.11804 27.5777 13.6648C27.5777 21.2117 21.4041 27.3295 13.7888 27.3295C6.1736 27.3295 0 21.2117 0 13.6648C0 6.11804 6.1736 0 13.7888 0ZM11.0334 7.84966C10.3383 8.53924 10.0642 9.41287 10.2618 10.3102C10.5104 11.4383 11.4117 12.2124 12.6142 12.3297C14.049 12.4705 16.0195 11.6565 16.9521 9.53905L15.3002 8.82497C14.7591 10.0534 13.6042 10.6314 12.7913 10.5524C12.1462 10.4893 12.0533 10.068 12.0228 9.92907C11.9778 9.7252 11.9699 9.44807 12.3085 9.11227C13.163 8.26471 15.5191 7.72896 18.5605 8.17268C17.8841 9.6595 17.3143 11.1578 16.7997 12.5471L16.7195 12.7643C16.6764 12.8811 16.633 12.9987 16.5906 13.1139C16.3686 13.7091 16.1457 14.3056 15.9263 14.8807C15.8335 15.1372 15.7361 15.3857 15.6391 15.6269C15.5957 15.7387 15.552 15.8498 15.5091 15.9585C15.3468 16.3362 15.1905 16.6916 15.0342 17.013C13.9819 19.3891 11.5701 20.4922 9.83114 20.3217C9.20765 20.2609 8.12193 19.9786 7.85649 18.7736C7.71154 18.1153 7.87307 17.53 8.35055 16.9851C9.20686 16.007 11.2462 15.0606 14.5681 14.9026C14.7914 14.3238 15.0214 13.7133 15.251 13.0969C11.4769 13.154 8.47051 14.1228 6.98913 15.8143C6.13756 16.787 5.82844 17.9419 6.09546 19.1545C6.46166 20.8162 7.79204 21.9172 9.65435 22.0995C9.82745 22.1161 10.0042 22.1247 10.1842 22.1247C12.5111 22.1247 15.3318 20.707 16.649 17.7975C17.1878 16.6997 17.7021 15.3041 18.2467 13.8267C18.9288 11.9754 19.7017 9.87719 20.683 7.89607L21.1902 6.87201L20.0653 6.62955C16.1713 5.79137 12.6258 6.27003 11.0334 7.84966Z" fill="#1A1A2E"/>
</svg>
