<svg width="62" height="62" viewBox="0 0 62 62" fill="none" xmlns="http://www.w3.org/2000/svg">
<g clip-path="url(#clip0_496_1166)">
<path d="M52.3302 29.7701L33.4118 10.8517L31.5782 9.01953L10.8277 29.7701C10.1494 30.4503 10.1494 31.5514 10.8277 32.2302L23.8384 45.2405L31.5782 52.9821L52.3302 32.2302C53.009 31.5514 53.009 30.4503 52.3302 29.7701ZM31.5782 37.4988L25.0801 31.0011L31.5782 24.501L38.0778 31.0011L31.5782 37.4988Z" fill="#2684FF"/>
<path d="M31.5782 24.5C27.3238 20.2438 27.3021 13.3505 31.5329 9.06934L17.3097 23.287L25.0513 31.0287L31.5782 24.5Z" fill="url(#paint0_linear_496_1166)"/>
<path d="M38.0959 30.9814L31.5782 37.4977C33.6322 39.5497 34.7874 42.3352 34.7874 45.2393C34.7874 48.1435 33.6322 50.927 31.5782 52.981L45.8357 38.7231L38.0959 30.9814Z" fill="url(#paint1_linear_496_1166)"/>
</g>
<defs>
<linearGradient id="paint0_linear_496_1166" x1="28.7849" y1="19.5594" x2="21.3425" y2="26.9999" gradientUnits="userSpaceOnUse">
<stop stop-color="#0052CC"/>
<stop offset="1" stop-color="#2684FF"/>
</linearGradient>
<linearGradient id="paint1_linear_496_1166" x1="34.4519" y1="42.3677" x2="41.8794" y2="34.9402" gradientUnits="userSpaceOnUse">
<stop stop-color="#0052CC"/>
<stop offset="1" stop-color="#2684FF"/>
</linearGradient>
<clipPath id="clip0_496_1166">
<rect width="43" height="44" fill="white" transform="translate(10 9)"/>
</clipPath>
</defs>
</svg>
