<svg width="62" height="62" viewBox="0 0 164 164" fill="none" xmlns="http://www.w3.org/2000/svg">
<path d="M142.995 82.5336C142.995 79.0089 144.816 75.6471 149.353 75.6471C152.004 75.6471 152.93 77.1816 152.93 78.5195V80.0861H152.771C152.132 79.8245 151.398 79.5638 150.28 79.5638C148.363 79.5638 147.308 80.6414 147.308 83.3172V93.4353H146.126C144.209 93.4353 142.995 92.4569 142.995 90.6282V82.5336ZM24.2474 85.1492C24.2474 79.8776 27.2814 75.6471 32.9581 75.6471C38.2441 75.6471 41.2786 79.8776 41.2786 84.5308C41.2786 89.8024 38.2441 94 32.5673 94C27.2814 94 24.2474 89.8024 24.2474 85.1492ZM28.7825 84.5308C28.7825 88.0132 30.0547 90.096 32.9581 90.096C35.5034 90.096 36.7429 88.0132 36.7429 85.1492C36.7429 81.6348 35.4381 79.552 32.5673 79.552C30.0547 79.552 28.7825 81.6348 28.7825 84.5308ZM17.2899 70.9416H18.7892C20.7767 70.9416 21.7867 71.9784 21.7867 73.9553V87.1774C21.7867 90.808 19.7335 93.5299 15.1392 93.5299C12.6942 93.5299 11 92.3304 11 90.9699V88.9275H11.1627C11.8804 89.3496 13.1838 89.6414 14.5199 89.6414C16.54 89.6414 17.2899 88.7656 17.2899 86.9835V70.9416ZM43.6441 70H45.1452C46.8413 70 48.0165 70.9718 48.0165 73.0132V78.1002C48.897 76.8367 50.3976 75.4433 52.7802 75.4433C57.2501 75.4433 60.6763 79.072 60.6763 84.2245C60.6763 89.4734 57.2822 93.7176 51.9319 93.7176C47.4289 93.7176 43.6441 90.056 43.6441 84.808V70ZM48.0487 84.192C48.0487 88.2099 49.7779 89.8621 52.388 89.8621C54.5747 89.8621 56.1406 87.7878 56.1406 84.9689C56.1406 80.7247 54.6068 79.2988 51.9319 79.2988C49.7126 79.2988 48.0487 81.4701 48.0487 84.192ZM72.5313 70.9416H74.357C76.1505 70.9416 77.3565 71.9186 77.9762 72.9925C79.9973 76.6075 83.3563 86.2136 84.2363 93.2475H82.4106C80.5518 93.2475 79.5739 92.1727 79.4102 91.0979C79.2153 89.6325 79.0194 88.4927 78.7914 87.5482H69.8895C69.4334 89.4376 69.0421 91.3586 68.7157 93.2475H66.9875C65.5204 93.2475 64.9337 92.4654 64.9337 91.0979C64.9337 87.8744 69.1074 74.7515 72.5313 70.9416ZM74.3239 75.0442C73.0195 77.3562 71.6177 80.9054 70.8683 83.9991H77.7803C77.031 80.8734 75.4986 77.1285 74.3239 75.0442ZM98.6035 70H99.9504C102.052 70 102.972 71.1986 102.972 72.9482V85.2607C102.972 90.3478 100.541 93.7176 94.4657 93.7176C89.8028 93.7176 86.2233 89.7002 86.2233 84.9049C86.2233 79.1699 89.0468 75.4433 94.2032 75.4433C95.9764 75.4433 97.9137 76.6748 98.6035 78.1972V70ZM90.5574 84.0621C90.5574 87.6908 92.4626 90.056 94.9909 90.056C97.4539 90.056 98.5382 88.2419 98.5382 85.0668C98.5382 80.6922 96.5999 79.1049 94.2363 79.1049C92.0028 79.1049 90.5574 81.2433 90.5574 84.0621ZM118.001 70H119.347C121.449 70 122.368 71.1986 122.368 72.9482V85.2607C122.368 90.3478 119.938 93.7176 113.863 93.7176C109.2 93.7176 105.621 89.7002 105.621 84.9049C105.621 79.1699 108.445 75.4433 113.6 75.4433C115.374 75.4433 117.31 76.6748 118.001 78.1972V70ZM109.955 84.0621C109.955 87.6908 111.86 90.056 114.389 90.056C116.851 90.056 117.935 88.2419 117.935 85.0668C117.935 80.6922 115.998 79.1049 113.633 79.1049C111.4 79.1049 109.955 81.2433 109.955 84.0621ZM125.018 85.1821C125.018 79.3238 128.595 75.6471 133.605 75.6471C137.247 75.6471 140.63 78.2504 140.63 82.448C140.63 85.6696 138.191 86.7106 132.402 86.7106H129.539C129.865 88.9242 131.881 90.3228 134.451 90.3228C136.272 90.3228 138.418 89.9652 139.817 88.6635H139.98V90.0301C139.98 92.2758 138.452 94 133.637 94C129.279 94 125.018 90.5515 125.018 85.1821ZM129.539 83.0334L129.506 83.6198H131.458C135.589 83.6198 136.533 83.1642 136.533 81.9275C136.533 80.1704 135.232 79.2913 133.214 79.2913C131.1 79.2913 129.637 81.0165 129.539 83.0334Z" fill="#0069B2"/>
</svg>
