<svg width="62" height="62" viewBox="0 0 62 62" fill="none" xmlns="http://www.w3.org/2000/svg"><rect width="62" height="62" rx="31" fill="white"/><path fill-rule="evenodd" clip-rule="evenodd" d="M49.8944 36.8748C49.8944 44.0653 44.0653 49.8944 36.8748 49.8944H18.4178C18.3053 49.8944 18.1974 49.8498 18.1178 49.7703C18.0383 49.6907 17.9936 49.5829 17.9936 49.4704V25.1252C17.9936 23.2338 18.7449 21.4198 20.0824 20.0824C21.4198 18.7449 23.2338 17.9936 25.1252 17.9936H37.5084C37.8041 17.9936 38.0092 18.2884 37.9053 18.5656L37.1864 20.4998C37.1563 20.581 37.1019 20.651 37.0309 20.7004C36.9598 20.7497 36.8752 20.7762 36.7886 20.7762H25.7253C24.4127 20.7762 23.1539 21.2976 22.2257 22.2257C21.2976 23.1539 20.7762 24.4127 20.7762 25.7253V46.6869C20.7762 46.9219 20.9662 47.112 21.2003 47.112H36.8748C42.5288 47.112 47.112 42.5288 47.112 36.8748V15.3246C47.112 14.9462 47.5686 14.7578 47.8353 15.0254L49.7704 16.9596C49.8496 17.0388 49.8944 17.147 49.8944 17.2588V36.8748ZM23.8817 37.6941V25.7262C23.8817 24.7072 24.7072 23.8817 25.7253 23.8817H37.6941C37.9282 23.8817 38.1183 24.0718 38.1183 24.3059V36.2738C38.1183 36.5159 38.0708 36.7559 37.9782 36.9796C37.8855 37.2034 37.7498 37.4068 37.5786 37.578C37.4075 37.7493 37.2041 37.8851 36.9804 37.9778C36.7567 38.0706 36.5169 38.1183 36.2747 38.1183H24.3059C24.1934 38.1183 24.0854 38.0736 24.006 37.994C23.9264 37.9146 23.8817 37.8066 23.8817 37.6941ZM14.8881 25.1252V46.6755C14.8881 47.0539 14.4314 47.2422 14.1647 46.9747L12.2296 45.0411C12.1504 44.9618 12.1058 44.8541 12.1055 44.7419V25.1243C12.1055 17.9338 17.9346 12.1046 25.1252 12.1046H43.5821C43.8163 12.1046 44.0063 12.2947 44.0063 12.5288V36.874C44.0063 38.7654 43.255 40.5793 41.9176 41.9167C40.5801 43.2541 38.7662 44.0055 36.8748 44.0055H24.4916C24.4231 44.0054 24.3559 43.9887 24.2953 43.957C24.2348 43.9252 24.1828 43.8793 24.1437 43.823C24.1048 43.7669 24.0799 43.7022 24.0714 43.6342C24.0629 43.5665 24.0709 43.4976 24.0947 43.4335L24.8136 41.4992C24.8438 41.418 24.8981 41.3481 24.9692 41.2987C25.0402 41.2493 25.1248 41.2229 25.2114 41.2229H36.2747C36.9246 41.2229 37.5682 41.0949 38.1687 40.8462C38.7691 40.5974 39.3147 40.2329 39.7742 39.7734C40.2338 39.3138 40.5984 38.7682 40.847 38.1677C41.0957 37.5672 41.2238 36.9237 41.2238 36.2738V15.3131C41.2239 15.2574 41.213 15.2021 41.1917 15.1505C41.1705 15.099 41.1392 15.0521 41.0999 15.0126C41.0604 14.9731 41.0137 14.9418 40.9621 14.9204C40.9107 14.8991 40.8554 14.8881 40.7996 14.8881H25.1252C19.4711 14.8881 14.8881 19.472 14.8881 25.1252ZM46.576 9.37312C46.4578 9.25472 46.3173 9.16082 46.1626 9.0968C46.008 9.03277 45.8422 8.99988 45.6747 9H25.1252C16.2195 9 9 16.2195 9 25.1252V45.6747C9 46.0128 9.13376 46.3358 9.37312 46.5743L15.4258 52.6268C15.6634 52.8654 15.9872 53 16.3251 53H36.8748C45.7803 53 53 45.7803 53 36.8748V16.3251C53 15.9872 52.8662 15.6642 52.6278 15.4258L46.576 9.37312Z" fill="black"/></svg>
