<svg xmlns="http://www.w3.org/2000/svg" width="64" height="64" viewBox="0 0 64 64" xml:space="preserve"><rect style="stroke:none;stroke-width:1;stroke-dasharray:none;stroke-linecap:butt;stroke-dashoffset:0;stroke-linejoin:miter;stroke-miterlimit:4;fill:#fff;fill-rule:nonzero;opacity:1" vector-effect="non-scaling-stroke" x="-32" y="-32" rx="0" ry="0" width="64" height="64" transform="translate(32 32)"/><g transform="matrix(0 0)"/><path style="stroke:#000;stroke-width:0;stroke-dasharray:none;stroke-linecap:butt;stroke-dashoffset:0;stroke-linejoin:miter;stroke-miterlimit:4;fill:#000;fill-rule:nonzero;opacity:1" vector-effect="non-scaling-stroke" transform="matrix(.06 0 0 .06 62.085 62.11)" d="M8.735 24.6v9.089c0 2.916-1.178 4.947-4.218 4.947-2.872 0-4.155-1.997-4.155-4.663v-1.135H2.97v.964c0 1.6.421 2.406 1.536 2.406 1.073 0 1.462-.806 1.462-2.45V24.6zm11.14 6.457c0-4.096-1.6-6.706-4.86-6.706s-4.86 2.61-4.86 6.706v.873c0 4.096 1.599 6.706 4.86 6.706 3.26 0 4.86-2.61 4.86-6.706zm-2.798 1.475c0 2.45-.684 3.653-2.062 3.653s-2.062-1.203-2.062-3.653v-2.065c0-2.451.684-3.665 2.062-3.665s2.062 1.203 2.062 3.665zm8.488 5.866c2.998 0 4.376-1.407 4.376-3.813 0-1.951-1.072-3.018-2.577-3.313 1.357-.26 2.23-1.316 2.23-2.961 0-2.235-1.115-3.721-4.05-3.721h-4.176v13.808h4.197m-1.598-11.46h1.24c1.4 0 1.768.726 1.768 1.713 0 .92-.368 1.623-1.767 1.623h-1.241zm1.462 5.571c1.44 0 1.883.68 1.883 1.77 0 1.123-.442 1.759-1.862 1.759h-1.483v-3.529zm11.234 5.889 3.692-13.808h-2.577l-2.346 9.315h-.084l-2.324-9.315h-2.798l3.692 13.808zm7.49-13.797h-2.735v13.808h2.735zm7.153 13.797v-11.37h3.303v-2.427h-9.257v2.428h3.24v11.369zm12.181-2.428h-4.986v-3.393h3.766v-2.383H58.5V27.04h4.944v-2.428H55.83V38.42h7.658z"/><path style="stroke:#000;stroke-width:0;stroke-dasharray:none;stroke-linecap:butt;stroke-dashoffset:0;stroke-linejoin:miter;stroke-miterlimit:4;fill:#000;fill-rule:nonzero;opacity:1" vector-effect="non-scaling-stroke" transform="translate(.08 .51)" d="M8.735 24.6v9.089c0 2.916-1.178 4.947-4.218 4.947-2.872 0-4.155-1.997-4.155-4.663v-1.135H2.97v.964c0 1.6.421 2.406 1.536 2.406 1.073 0 1.462-.806 1.462-2.45V24.6zm11.14 6.457c0-4.096-1.6-6.706-4.86-6.706s-4.86 2.61-4.86 6.706v.873c0 4.096 1.599 6.706 4.86 6.706 3.26 0 4.86-2.61 4.86-6.706zm-2.798 1.475c0 2.45-.684 3.653-2.062 3.653s-2.062-1.203-2.062-3.653v-2.065c0-2.451.684-3.665 2.062-3.665s2.062 1.203 2.062 3.665zm8.488 5.866c2.998 0 4.376-1.407 4.376-3.813 0-1.951-1.072-3.018-2.577-3.313 1.357-.26 2.23-1.316 2.23-2.961 0-2.235-1.115-3.721-4.05-3.721h-4.176v13.808h4.197m-1.598-11.46h1.24c1.4 0 1.768.726 1.768 1.713 0 .92-.368 1.623-1.767 1.623h-1.241zm1.462 5.571c1.44 0 1.883.68 1.883 1.77 0 1.123-.442 1.759-1.862 1.759h-1.483v-3.529zm11.234 5.889 3.692-13.808h-2.577l-2.346 9.315h-.084l-2.324-9.315h-2.798l3.692 13.808zm7.49-13.797h-2.735v13.808h2.735zm7.153 13.797v-11.37h3.303v-2.427h-9.257v2.428h3.24v11.369zm12.181-2.428h-4.986v-3.393h3.766v-2.383H58.5V27.04h4.944v-2.428H55.83V38.42h7.658z"/></svg>