<svg xmlns="http://www.w3.org/2000/svg" width="62" height="62" fill="none"><path d="M33.467 51.371a5.54 5.54 0 0 1-1.636-3.93 5.54 5.54 0 0 1 1.636-3.93l7.887-7.833a5.62 5.62 0 0 1 7.913 0c.519.515.93 1.127 1.211 1.801a5.54 5.54 0 0 1 0 4.257 5.54 5.54 0 0 1-1.211 1.801l-7.887 7.833a5.62 5.62 0 0 1-7.913 0z" fill="#ffb629"/><path d="M12.636 31.681A5.54 5.54 0 0 1 11 27.751a5.54 5.54 0 0 1 .425-2.128c.281-.674.692-1.287 1.211-1.801L25.907 10.63a5.62 5.62 0 0 1 7.913 0 5.54 5.54 0 0 1 1.636 3.93c0 .731-.145 1.454-.425 2.128a5.54 5.54 0 0 1-1.211 1.802L20.543 31.681a5.62 5.62 0 0 1-7.907 0z" fill="#09f"/><path d="M23.485 41.089a5.54 5.54 0 0 1-1.636-3.93 5.54 5.54 0 0 1 1.636-3.93l17.928-17.815a5.62 5.62 0 0 1 7.913 0 5.54 5.54 0 0 1 1.636 3.93 5.54 5.54 0 0 1-.425 2.128c-.281.674-.692 1.287-1.211 1.802L31.399 41.089a5.62 5.62 0 0 1-7.913 0z" fill="#ff6100"/></svg>