<svg width="420" height="95" viewBox="0 0 420 95" fill="none" xmlns="http://www.w3.org/2000/svg">
<g clip-path="url(#clip0_2046_3688)">
<path d="M18.9635 78.7999V40.2318H7.17609V80.4632C7.17609 83.163 6.3083 84.9708 3.63263 84.9708C2.70188 84.9793 1.77283 84.8904 0.860565 84.7057L0.330246 94.8539C1.58988 95.0625 2.86248 95.1833 4.13885 95.2155C15.0826 95.1191 19.0599 88.7794 19.0599 78.7999H18.9635ZM54.0123 81.2104H65.5345V40.0389H53.8195V62.9388C53.9372 64.0655 53.8121 65.2043 53.4527 66.2787C53.0932 67.353 52.5079 68.3378 51.7359 69.1669C50.9639 69.996 50.0232 70.6501 48.9772 71.0851C47.9312 71.5202 46.8042 71.726 45.6719 71.6889C41.333 71.6889 39.4287 68.8445 39.4287 64.5779V40.0389H27.6413V67.8803C27.6413 76.8233 31.6428 82.3434 39.4287 82.3434C45.9371 82.3434 50.9751 78.1732 53.3132 70.2908H54.181L54.0123 81.2104ZM85.6623 58.3106C85.5663 57.1837 85.7102 56.0493 86.0846 54.9821C86.4589 53.9148 87.0552 52.9391 87.8342 52.1191C88.6131 51.2992 89.5571 50.6536 90.6037 50.225C91.6503 49.7965 92.7759 49.5946 93.9063 49.6328C98.1488 49.6328 100.149 52.5013 100.149 56.6715V81.2104H111.937V58.3106C111.83 57.1896 111.963 56.0587 112.328 54.9932C112.692 53.9277 113.279 52.952 114.05 52.131C114.821 51.3101 115.758 50.6626 116.798 50.2319C117.839 49.8011 118.959 49.5969 120.084 49.6328C124.423 49.6328 126.328 52.5013 126.328 56.6715V81.2104H138.211V53.3209C138.211 44.3779 134.138 38.8578 126.159 38.8578C119.385 38.8578 114.709 43.1003 112.467 51.1514H111.503C110.997 43.4377 107.429 38.8578 100.149 38.8578C93.6411 38.8578 88.6995 43.0039 86.3613 50.9103H85.4936V39.8943H73.9713V81.0176H85.7587L85.6623 58.3106ZM186.253 60.7211C186.253 46.5714 181.119 39.0265 172.103 39.0265C165.523 39.0265 161.015 43.3654 158.845 50.5487H158.074V40.1354H146.263V94.42H158.074V70.4837H158.749C160.846 77.7152 165.257 82.5362 172.103 82.5362C181.046 82.3675 186.398 74.8226 186.398 60.697L186.253 60.7211ZM166.39 71.9782C161.352 71.9782 158.074 68.1696 158.074 62.3361V59.1061C158.074 53.2244 161.28 49.464 166.487 49.464C172.103 49.464 174.634 53.0316 174.634 60.5765C174.634 68.1214 172.2 71.9541 166.487 71.9541L166.39 71.9782ZM219.638 56.8161L230.558 54.719C229.088 44.7635 223.881 38.9542 211.66 38.9542C198.571 38.9542 190.592 47.1741 190.592 61.155C190.592 75.136 198.739 82.3916 211.732 82.3916C223.447 82.3916 229.256 76.4135 230.654 66.8679L219.807 64.2646C218.939 68.507 216.939 72.0746 211.66 72.0746C205.585 72.0746 202.644 67.8321 202.644 60.5283C202.644 52.7423 206.019 49.2712 211.491 49.2712C216.963 49.2712 218.698 52.3567 219.735 56.792L219.638 56.8161ZM249.191 25.4795H237.5V81.1622H249.288L249.191 25.4795ZM276.96 82.3675C290.049 82.3675 298.028 74.1235 298.028 60.6729C298.028 47.2222 289.784 38.9783 276.96 38.9783C264.136 38.9783 255.7 46.9571 255.7 60.6729C255.7 74.3887 263.703 82.3675 277.057 82.3675H276.96ZM276.96 48.8132C283.469 48.8132 286.313 53.0557 286.313 60.5042C286.313 67.9526 283.541 72.3156 276.96 72.3156C270.38 72.3156 267.583 67.9767 267.583 60.5042C267.583 53.0316 270.452 48.8132 276.96 48.8132ZM330.811 81.1622H342.333V40.0389H330.474V62.9388C330.588 64.0668 330.459 65.2061 330.097 66.2804C329.735 67.3547 329.147 68.3391 328.373 69.1677C327.599 69.9963 326.657 70.65 325.61 71.0848C324.563 71.5196 323.435 71.7256 322.302 71.6889C317.987 71.6889 316.059 68.8445 316.059 64.5779V40.0389H304.271V67.8803C304.271 76.8233 308.273 82.3434 316.059 82.3434C322.567 82.3434 327.605 78.1732 329.943 70.2908H330.811V81.1622ZM376.852 81.1622H388.639V25.4795H376.828V50.4523H376.056C373.887 43.2208 369.452 38.9301 362.871 38.9301C353.856 38.9301 348.649 46.6437 348.649 60.938C348.649 74.8226 353.856 82.3675 362.702 82.3675C369.548 82.3675 374.056 77.5465 376.129 70.3149H376.828L376.852 81.1622ZM368.536 71.9541C362.726 71.9541 360.195 68.3142 360.195 60.938C360.195 53.5619 362.799 49.5846 368.439 49.5846C373.646 49.5846 376.852 53.3931 376.852 59.3953V62.6495C376.828 68.3142 373.477 71.9541 368.536 71.9541ZM19.542 28.5649C19.542 29.8235 19.1688 31.0539 18.4695 32.1004C17.7703 33.1469 16.7764 33.9626 15.6136 34.4442C14.4507 34.9259 13.1712 35.0519 11.9368 34.8064C10.7023 34.5609 9.56841 33.9547 8.67842 33.0648C7.78843 32.1748 7.18233 31.0409 6.93678 29.8064C6.69124 28.572 6.81728 27.2924 7.29893 26.1296C7.78059 24.9668 8.59625 23.9729 9.64276 23.2736C10.6893 22.5744 11.9196 22.2012 13.1783 22.2012C14.014 22.2012 14.8415 22.3658 15.6136 22.6856C16.3857 23.0054 17.0872 23.4741 17.6781 24.0651C18.269 24.656 18.7378 25.3575 19.0576 26.1296C19.3774 26.9017 19.542 27.7292 19.542 28.5649Z" fill="#002B49"/>
<path d="M407.007 70.459V72.1463H403.753V80.6072H401.752V72.1463H398.522V70.459H407.007ZM417.975 80.6072L417.614 74.6292C417.614 73.8578 417.614 72.8936 417.614 71.8089H417.493C417.228 72.7008 416.939 73.906 416.625 74.822L414.817 80.4626H412.72L410.888 74.6774L410.189 71.8089H410.069C410.069 72.7249 410.069 73.7132 410.069 74.6292L409.683 80.6072H407.755L408.502 70.459H411.515L413.275 75.4246C413.492 76.196 413.684 76.9432 413.95 78.0039C414.215 77.0638 414.432 76.196 414.673 75.4487L416.432 70.459H419.325L420.121 80.6072H417.975Z" fill="#002B49"/>
</g>
<defs>
<clipPath id="clip0_2046_3688">
<rect width="420" height="95" fill="white"/>
</clipPath>
</defs>
</svg>
