<svg xmlns="http://www.w3.org/2000/svg" width="62" height="62" viewBox="0 0 62 62" fill="none">
  <rect width="62" height="62" rx="31" fill="#ffffff"/>
  <path d="M53 35.38c0 1.59-.63 3.11-1.75 4.23-1.12 1.13-2.65 1.76-4.24 1.76h-1.65c-.17-2-.93-3.69-3.84-4.48.73-.72 1.23-1.65 1.44-2.66.21-1.01.11-2.06-.28-3.01-.39-.95-1.06-1.77-1.91-2.34-.86-.58-1.86-.88-2.89-.88s-2.04.3-2.9.88c-.85.57-1.52 1.39-1.91 2.34-.39.95-.49 2-.28 3.01.21 1.01.71 1.94 1.44 2.66-1.38.33-2.67.98-3.75 1.91-.68-.39-1.42-.69-2.18-.89.63-.62 1.06-1.41 1.24-2.28.18-.86.1-1.76-.23-2.58-.34-.82-.91-1.52-1.64-2.01-.73-.49-1.59-.76-2.48-.76s-1.75.27-2.48.76c-.73.49-1.3 1.19-1.64 2.01-.33.82-.41 1.72-.23 2.58.18.87.61 1.66 1.24 2.28-2.29.64-3.96 1.91-4.32 3.44h-1.65c-1.55-.05-3.02-.7-4.11-1.82C9.6 38.41 9 36.91 9 35.36s.6-3.05 1.69-4.17c1.08-1.12 2.55-1.77 4.11-1.82.76 0 1.51.15 2.22.43.48-1.04 1.25-1.92 2.22-2.54.97-.62 2.09-.94 3.24-.93h.43c.3-1.55 1.06-2.97 2.19-4.08 1.12-1.11 2.56-1.85 4.11-2.12 1.55-.28 3.16-.08 4.59.58 1.44.65 2.64 1.73 3.46 3.08.93-.28 1.91-.35 2.87-.19.96.16 1.87.54 2.66 1.1.79.56 1.44 1.3 1.9 2.16.46.86.72 1.81.76 2.78.89-.24 1.82-.28 2.72-.1.9.18 1.75.56 2.48 1.12.73.56 1.32 1.28 1.73 2.11.41.83.62 1.74.62 2.66v-.03z" fill="#002B49"/>
</svg>