<svg width="62" height="62" viewBox="0 0 62 62" fill="none" xmlns="http://www.w3.org/2000/svg"><rect width="62" height="62" rx="31" fill="white"/><path d="M32.4343 29.9108L32.4417 29.9071L32.4435 29.9053L32.4343 29.9108Z" fill="black"/><path d="M12.3246 37.3123L12.3228 37.2903L12.3209 37.2793L12.3246 37.3123Z" fill="black"/><path d="M43.0713 38.2178C43.0365 38.2288 42.998 38.2306 42.9632 38.2416C42.9522 38.2453 42.9393 38.2508 42.9302 38.2526L43.0713 38.2178Z" fill="black"/><path d="M28.6635 36.4981C28.6376 36.4463 28.5857 36.3684 28.5598 36.3166C28.6116 36.3944 28.6376 36.4463 28.6635 36.4981ZM28.4042 36.0053C28.3782 35.9535 28.3523 35.8757 28.3004 35.7979C28.3264 35.8757 28.3782 35.9275 28.4042 36.0053Z" fill="#152733"/><path d="M52.8519 17.3608C52.6561 16.6359 52.2004 16.0084 51.5717 15.598C50.943 15.1875 50.1853 15.0227 49.4429 15.135C49.3212 15.1534 49.2008 15.179 49.0821 15.2114C43.6858 16.6882 37.3753 24.7842 35.4339 27.4105V27.4319L35.177 27.7865C35.04 26.9184 34.639 26.1134 34.0285 25.4811C33.4181 24.8488 32.6278 24.4197 31.765 24.2522L33.7951 23.5367C34.2198 23.3943 34.5798 23.1051 34.8105 22.7211C35.0412 22.3371 35.1275 21.8834 35.0538 21.4415C34.9802 20.9997 34.7514 20.5985 34.4087 20.3101C34.0659 20.0217 33.6316 19.8649 33.1836 19.8679H28.6923C28.2417 19.8601 27.8034 20.0145 27.457 20.3028C27.1107 20.5911 26.8794 20.9942 26.8053 21.4388C26.7313 21.8833 26.8193 22.3396 27.0534 22.7247C27.2875 23.1097 27.6521 23.3979 28.0808 23.5367L30.0956 24.2522C29.2653 24.4173 28.5026 24.825 27.904 25.4236C27.3053 26.0223 26.8977 26.785 26.7325 27.6153L26.5888 27.4196L26.5735 27.4013C24.6321 24.7842 18.3216 16.6882 12.9222 15.2114C12.8037 15.1784 12.6832 15.1528 12.5615 15.135C11.8191 15.0227 11.0613 15.1875 10.4326 15.598C9.8039 16.0084 9.34823 16.6359 9.15245 17.3608C8.93744 18.2835 8.95003 19.2446 9.18914 20.1614C9.84343 23.0017 12.1701 26.3129 15.6464 28.1473H15.625L17.2026 28.9392C16.8837 29.0116 16.5693 29.1024 16.2609 29.2113C15.9097 29.334 15.5709 29.4896 15.2489 29.676C14.8713 29.8993 14.5824 30.246 14.4309 30.6576C14.2793 31.0693 14.2746 31.5206 14.4173 31.9354C14.4603 32.053 14.5135 32.1665 14.5763 32.2748C15.1725 33.2868 16.6553 34.1092 18.4317 34.363C21.327 34.7941 25.002 33.7729 26.8548 29.7769C27.0519 30.3765 27.3791 30.925 27.8131 31.3833C28.2471 31.8416 28.777 32.1982 29.3649 32.4277C27.5305 32.3971 25.4606 32.5805 24.7788 34.1581C24.5574 34.7234 24.4534 35.3278 24.4731 35.9345H37.3723C37.3723 34.8094 37.1277 33.6506 36.0515 33.0391C34.9753 32.4277 33.6055 32.4582 32.3367 32.4827C32.9884 32.256 33.5756 31.8752 34.0483 31.3727C34.521 30.8701 34.8653 30.2608 35.0517 29.5965C36.8861 33.7484 40.6192 34.8124 43.5635 34.3722C45.3368 34.1062 46.8227 33.296 47.4158 32.284C47.5434 32.0695 47.6273 31.8318 47.6626 31.5847C47.6978 31.3376 47.6838 31.086 47.6212 30.8443C47.5587 30.6027 47.4489 30.3759 47.2982 30.1769C47.1475 29.9779 46.9589 29.8108 46.7432 29.6852C46.4223 29.4988 46.0845 29.3432 45.7342 29.2204C45.4259 29.1116 45.1115 29.0208 44.7926 28.9483L46.3702 28.1565H46.3457C49.822 26.322 52.1548 23.0047 52.803 20.1644C53.048 19.2479 53.0647 18.2853 52.8519 17.3608Z" fill="#111111"/><path d="M24.593 37.7717C24.6953 38.7455 24.9003 39.7058 25.2044 40.6365H36.5994C36.9213 39.618 37.1425 38.5705 37.2598 37.5088H24.5593C24.5685 37.5975 24.593 37.6861 24.593 37.7717Z" fill="#111111"/><path d="M28.9771 45.6266C29.4449 45.9078 30.4355 46.5438 31.0317 46.4123C33.444 45.8436 35.0063 44.214 35.9786 42.1992H25.8372C26.5453 43.611 27.6325 44.7978 28.9771 45.6266Z" fill="#111111"/><path d="M33.2778 15.9142L31.8225 17.0026L30.9297 15L30.037 17.0026L28.5817 15.9142V18.7728H33.2778V15.9142Z" fill="#111111"/></svg>