<svg xmlns="http://www.w3.org/2000/svg" width="62" height="62" fill="none"><g clip-path="url(#A)"><path d="M19.267 35.212l-1.416 1.467c-.202.253-.506.202-.759 0l-5.007-5.108v4.754c0 .303-.202.506-.556.506H9.506c-.303 0-.506-.202-.506-.506V21.506c0-.303.202-.506.506-.506h2.023c.354 0 .556.202.556.506v4.855h6.828c.303 0 .506.202.506.506v2.073c0 .303-.202.506-.506.506H14.26l5.007 5.057c.202.202.202.455 0 .708zm11.228-3.641c0 .202-.051.455-.051.658-.051.303-.253.455-.556.455H23.11c.354.91 1.214 1.517 2.377 1.517.759 0 1.416-.303 1.871-.809.202-.253.405-.303.708-.152l1.568.961c.253.202.354.455.152.708-.961 1.315-2.529 2.124-4.349 2.124-3.136 0-5.411-2.327-5.411-5.412 0-3.136 2.175-5.513 5.209-5.513 3.136 0 5.26 2.326 5.26 5.462zm-3.034-1.113c-.303-.961-1.113-1.517-2.175-1.517-1.163 0-1.973.556-2.225 1.517h4.4zm13.25-.202v6.069c0 .303-.152.506-.506.506h-1.972c-.303 0-.506-.202-.506-.506v-.607c-.809.91-1.719 1.315-2.883 1.315-2.276 0-3.793-1.264-3.793-3.237 0-2.074 1.517-3.389 3.743-3.389h2.933v-.253c0-.708-.708-1.214-1.719-1.214-.657 0-1.315.253-1.618.607-.202.202-.303.354-.607.354H31.86c-.354 0-.556-.202-.506-.506.405-1.972 2.074-3.287 4.602-3.287 2.883 0 4.754 1.669 4.754 4.147zm-2.984 2.68v-.354h-2.478c-.809 0-1.163.455-1.163 1.011s.455 1.011 1.517 1.011c1.264 0 2.124-.708 2.124-1.669zm15.021-1.315c0 3.035-2.124 5.412-4.956 5.412-1.163 0-2.175-.405-2.782-1.163v4.855c0 .303-.202.506-.556.506H42.43c-.304 0-.506-.202-.506-.506V26.867c0-.304.202-.506.506-.506h1.972c.354 0 .506.202.506.506v.607c.657-.86 1.669-1.366 2.832-1.366 2.832 0 5.007 2.428 5.007 5.513zm-3.085 0c0-1.416-.961-2.478-2.327-2.478-1.467 0-2.478 1.062-2.478 2.478 0 1.365 1.011 2.428 2.478 2.428 1.366 0 2.327-1.062 2.327-2.428z" fill="#36a635"/></g><defs><clipPath id="A"><path fill="#fff" transform="translate(9 21)" d="M0 0h44v20.23H0z"/></clipPath></defs></svg>