<svg xmlns="http://www.w3.org/2000/svg" width="62" height="62" fill="none"><path d="M30.894 9C18.805 9 9 18.851 9 31s9.8 22 21.894 22 21.894-9.851 21.894-22S42.983 9 30.894 9zm2.488 3.275l3.381.87v4.759l3.783-3.126 2.807 2.081-7.205 5.952-2.766-.014V12.275zm-6.609-.463h3.381v13.773h6.978l8.399-6.734 2.109 2.655-9.324 7.478H26.769V11.812h.005zm-9.929 28.951l-3.381-2.895V24.946l3.381-3.117v18.934zm6.622 4.07l-3.381 2.955V14.503l3.381 2.955v27.374zm17.08 2.853l-3.783-3.126v4.759l-3.381.865V39.662l2.766-.014 7.205 5.952-2.807 2.086zm4.986-4.537l-8.399-6.734h-6.979v13.773h-3.381V33.021h11.548l9.324 7.478-2.113 2.65zm2.631-6.415L41.244 31l6.919-5.735 2.151 2.622L46.558 31l3.755 3.117-2.151 2.618z" fill="#ffc700"/></svg>