<svg xmlns="http://www.w3.org/2000/svg" width="62" height="62" fill="#ef3f24" xmlns:v="https://vecta.io/nano"><path d="M21.543 41.304l8.163-4.953c.199-.124.448-.05.547.125.05.075.05.124.05.199v9.905c0 .224-.174.398-.398.398a.47.47 0 0 1-.199-.05l-8.163-4.952c-.199-.125-.249-.373-.124-.548a.3.3 0 0 1 .124-.124zm-3.161-1.219l-9.133-5.55c-.149-.1-.249-.274-.249-.448V22.888c0-.224.174-.398.398-.373.075 0 .124.025.174.05l9.134 5.55c.149.1.249.274.249.448v11.199c0 .224-.199.398-.398.373-.075 0-.125-.025-.174-.05zm.996-13.189l-9.208-5.575a.4.4 0 0 1-.125-.523.3.3 0 0 1 .125-.124l9.208-5.599a.54.54 0 0 1 .547 0l9.208 5.575c.174.1.249.348.124.547a.3.3 0 0 1-.124.125l-9.208 5.575c-.149.1-.373.1-.547 0zm9.805 8.187L20.97 40.06a.38.38 0 0 1-.547-.149c-.025-.075-.05-.124-.05-.199v-9.93c0-.224.174-.398.398-.398a.47.47 0 0 1 .199.05l8.213 4.977c.174.125.249.373.125.547l-.125.125z"/><path d="M29.706 33.142l-8.163-4.928c-.199-.124-.249-.373-.124-.547a.3.3 0 0 1 .124-.124l8.163-4.953c.199-.124.448-.05.547.124.05.075.05.149.05.199v9.88c0 .224-.174.398-.398.398-.05 0-.124-.025-.199-.05zm10.726 8.162l-8.163-4.953c-.199-.124-.448-.05-.547.125-.05.075-.05.124-.05.199v9.905c0 .224.174.398.398.398a.47.47 0 0 0 .199-.05l8.163-4.952c.199-.125.249-.373.124-.548-.025-.05-.05-.099-.124-.124zm3.186-1.219l9.133-5.55c.149-.1.249-.274.249-.448V22.888a.38.38 0 0 0-.423-.373.46.46 0 0 0-.174.05L43.27 28.09c-.149.1-.249.274-.249.448v11.199c0 .224.199.398.398.373.075.025.124 0 .199-.025zm-1.021-13.189l9.208-5.575c.174-.125.249-.349.124-.548a.3.3 0 0 0-.124-.124l-9.183-5.575a.54.54 0 0 0-.547 0l-9.208 5.575c-.174.124-.249.348-.124.547a.3.3 0 0 0 .124.125l9.183 5.575a.54.54 0 0 0 .547 0zm-9.78 8.187l8.213 4.977a.38.38 0 0 0 .548-.149c.025-.075.05-.124.05-.199v-9.93c0-.224-.174-.398-.398-.398a.47.47 0 0 0-.199.05l-8.213 4.977c-.199.125-.249.373-.124.547a.3.3 0 0 0 .124.125z"/><path d="M32.269 33.142l8.163-4.928c.199-.124.249-.373.124-.547a.3.3 0 0 0-.124-.124l-8.163-4.977c-.199-.124-.448-.05-.547.125-.05.075-.05.149-.05.199v9.88c0 .224.174.398.398.398.075.025.149 0 .199-.025z"/></svg>