<svg xmlns="http://www.w3.org/2000/svg" width="62" height="62" fill="#000"><g clip-path="url(#a)" fill="#000"><rect width="62" height="62" rx="31" fill="#fff"/><path d="M33.985 26.603a.9.9 0 0 0 .627-.251.9.9 0 0 0 .271-.616.9.9 0 0 0-.266-.628.9.9 0 0 0-.632-.264.9.9 0 0 0-.62.269.88.88 0 0 0-.253.623.87.87 0 0 0 .258.611.9.9 0 0 0 .615.256m6.103.833h2.166v.171a1.2 1.2 0 0 0-.344.118c-.198.092-.594.538-.898 1.285l-1.624 4.591-.211.667-.212.617-.185.524a3 3 0 0 1-.201.485c-.106.197-.304.6-.462.721-.251.21-.621.446-1.083.407-.898 0-1.572-.667-1.585-1.455 0-.538.344-.892.859-.892.37 0 .699.2.699.616 0 .302-.303.617-.303.774 0 .407.238.6.7.6q.556 0 .898-.708c.304-.538.33-1.128.079-1.784l-1.901-4.997c-.436-1.154-.767-1.533-1.175-1.574v-.171h2.997v.171c-.356.039-.541.249-.541.629 0 .275.105.695.303 1.233l.356.97.912 2.545 1.083-3.161c.251-.682.37-1.167.37-1.456 0-.511-.277-.747-.7-.747zm-20.853 6.387c-.383-.067-.713-.407-.713-1.128V24l-2.179.472v.184c.37-.039.738.288.738.983v7.056c0 .682-.37 1.075-.738 1.128l-.105.013a1.15 1.15 0 0 1-.55-.097c-.293-.127-.537-.353-.744-.69l-1.007-1.6a1.85 1.85 0 0 0-.9-.741 1.87 1.87 0 0 0-1.168-.059l1.136-1.246c.858-.944 1.651-1.547 2.403-1.797v-.171H12.91v.171c.647.249.607.8-.134 1.667l-1.598 1.849V24L9 24.472v.184c.37 0 .738.367.738 1.009v7.03c0 .774-.356 1.075-.738 1.128v.171h2.895v-.171c-.475-.067-.713-.433-.713-1.128v-1.298l.62-.682 1.502 2.452c.356.591.687.827 1.215.827h5.028v-.133l-.311-.037zm5.999-.829v-2.933c-.029-1.918-.838-2.791-2.693-2.791a2.65 2.65 0 0 0-1.637.551c-.489.367-.726.787-.726 1.273 0 .472.264.826.699.826.463 0 .793-.262.793-.629 0-.275-.185-.656-.185-.918 0-.473.357-.879.977-.879.793 0 1.36.591 1.36 1.902v.787l-.66.157-.859.2-.859.288c-.687.263-1.056.512-1.373.984a1.37 1.37 0 0 0-.238.774c0 1.088.766 1.587 1.836 1.587.845 0 1.745-.446 2.152-1.285a1.8 1.8 0 0 0 .187.763c.448.9 1.931.368 1.931.368v-.171c-.649.101-.703-.666-.706-.851zm-1.41-.908c0 .433-.159.787-.475 1.036-.303.249-.62.381-.951.381-.647 0-1.07-.42-1.07-1.194 0-.367.201-.708.37-.905q.202-.205.463-.328l.489-.249.604-.223.567-.223zM53 27.436h-5.136V24H53l-1.078 1.718zm-10.44 5.723a3.43 3.43 0 0 1-.979-2.443 3.4 3.4 0 0 1 .244-1.313c.169-.418.418-.798.735-1.118.648-.683 1.441-1.025 2.368-1.025a3.14 3.14 0 0 1 2.354 1.025 3.4 3.4 0 0 1 .746 1.115c.171.418.254.865.247 1.316a3.4 3.4 0 0 1-.248 1.321 3.4 3.4 0 0 1-.744 1.122c-.648.667-1.442 1.011-2.354 1.011a3.18 3.18 0 0 1-2.368-1.011zm3.558-4.765c-.261-.507-.604-.805-1.007-.885-.817-.163-1.539.671-1.808 1.997a6.3 6.3 0 0 0-.083 1.806 5 5 0 0 0 .498 1.733c.262.508.604.805 1.007.885.817.163 1.56-.706 1.831-2.045.225-1.119.111-2.483-.442-3.491zm-11.367 4.301v-5.259h-4.649v.158c.621.092.916.557.634 1.312l-1.453 4.06-.647-1.975-.66-1.823c-.357-1.089-.238-1.495.344-1.561v-.171h-3.011v.171c.449.092.845.603 1.175 1.521l.462 1.193 1.304 3.673h1.001l1.788-5.037q.28-.646.634-.984c.114-.122.253-.218.407-.282a1.2 1.2 0 0 1 .488-.09s.726 0 .726.695v4.398c0 .733-.356 1.075-.726 1.128v.171h2.879v-.171c-.381-.053-.697-.393-.697-1.128z"/></g><defs><clipPath id="a"><path fill="#000" d="M9 24h44v13.026H9z"/></clipPath></defs></svg>