<svg width="62" height="62" viewBox="0 0 1024 1024" xmlns="http://www.w3.org/2000/svg">
<path d="M0 0 C270.6 0 541.2 0 820 0 C820 269.94 820 539.88 820 818 C549.4 818 278.8 818 0 818 C0 548.06 0 278.12 0 0 Z " fill="#FEFEFE" transform="translate(102,103)"/>
<path d="M0 0 C1.15443604 0.40089844 2.30887207 0.80179688 3.49829102 1.21484375 C4.15141769 1.43726746 4.80454437 1.65969116 5.47746277 1.88885498 C6.90208076 2.37537012 8.32484644 2.86733607 9.74591064 3.36413574 C12.89897832 4.46562399 16.06158592 5.53850308 19.22369385 6.6137085 C20.94480724 7.19917647 22.66545906 7.78600285 24.38568115 8.37408447 C34.95429904 11.98316916 45.57160487 15.4421468 56.18969727 18.90234375 C57.2280069 19.24130676 58.26631653 19.58026978 59.33609009 19.92950439 C73.45047873 24.53706216 87.5836897 29.08219496 101.7315979 33.58563232 C125.03662822 41.00479261 148.27466194 48.61975985 171.50219727 56.27734375 C172.79209501 56.70258142 172.79209501 56.70258142 174.1080513 57.13640976 C178.39041305 58.54821669 182.67272694 59.96016877 186.95503235 61.37214661 C187.7846026 61.6456727 188.61417286 61.9191988 189.46888161 62.20101357 C191.12712215 62.74778113 192.78535457 63.29457334 194.44357872 63.84139061 C208.16347772 68.36540726 221.88931776 72.87066449 235.62719727 77.33984375 C236.48240967 77.61812012 237.33762207 77.89639648 238.21875 78.18310547 C246.29020837 80.80795722 254.36549136 83.41886963 262.45922852 85.97436523 C265.78048796 87.02310009 269.09854607 88.08158592 272.4152832 89.14453125 C274.8993161 89.93942178 277.38452941 90.73030146 279.87036133 91.51953125 C283.96733398 92.82255669 288.05810052 94.14393658 292.14627075 95.4743042 C293.7842401 96.00449087 295.42393368 96.5293835 297.06539917 97.04864502 C299.37346024 97.77984104 301.67444809 98.53027287 303.97485352 99.28515625 C304.66656647 99.49958374 305.35827942 99.71401123 306.07095337 99.93493652 C310.66388 101.47162617 313.50993897 103.39369908 316.56469727 107.15234375 C317.31999478 111.76805077 316.74986571 114.7684496 314.04882812 118.60620117 C310.88643985 121.90072411 306.62241774 123.61828629 302.56469727 125.58984375 C300.47390865 126.64265693 298.38410714 127.69743211 296.29516602 128.75390625 C295.19479004 129.30594727 294.09441406 129.85798828 292.96069336 130.42675781 C287.21605996 133.34574191 281.54939724 136.40813389 275.87719727 139.46484375 C274.12078794 140.40849287 272.36437741 141.35213981 270.60777283 142.29542542 C269.42069858 142.93294014 268.23373808 143.57066674 267.04689026 144.20860291 C262.61370642 146.59111847 258.1759367 148.96496148 253.73657227 151.3359375 C251.81925026 152.3605611 249.90197596 153.3852739 247.98471069 154.41000366 C246.75887089 155.06488451 245.5328213 155.71937283 244.30654907 156.3734436 C242.60161331 157.2829563 240.89759 158.19417882 239.19360352 159.10546875 C238.22495361 159.62270508 237.25630371 160.13994141 236.25830078 160.67285156 C234.42372963 161.68051051 232.61686952 162.73993076 230.83789062 163.84277344 C228.56469727 165.15234375 228.56469727 165.15234375 226.56469727 165.15234375 C230.73789206 170.45342902 235.30318935 174.50089842 240.57250977 178.69921875 C243.68036475 181.24717297 246.62768085 183.9123978 249.56469727 186.65234375 C253.29749592 190.12700419 257.08846043 193.45307273 261.06469727 196.65234375 C265.58327903 200.28798425 269.84453056 204.12070777 274.08642578 208.06860352 C277.29768777 211.03950003 280.59097542 213.85195452 284.00219727 216.58984375 C288.77638477 220.42980175 293.24911233 224.51291507 297.71533203 228.69970703 C301.18447413 231.93261042 304.74180933 234.9913366 308.43969727 237.96484375 C317.39847589 245.18924456 325.09914385 252.48563083 327.56469727 264.15234375 C328.76177054 276.13925313 326.14514142 285.15242715 318.80688477 294.66796875 C315.47472717 298.3600458 311.95121353 300.85352774 307.56469727 303.15234375 C306.9755957 303.49007813 306.38649414 303.8278125 305.77954102 304.17578125 C298.19831038 307.80810713 286.72092546 307.36747758 278.75219727 305.15234375 C269.68624899 301.4537121 262.36475431 294.21645491 255.30688477 287.6484375 C252.67264572 285.25060452 249.96873039 283.00459784 247.18969727 280.77734375 C242.39409236 276.91080191 237.89591059 272.80382392 233.40332031 268.59643555 C229.19058604 264.67341651 224.80065273 261.03330656 220.31079102 257.4296875 C217.30150674 254.93407906 214.42531072 252.31469232 211.56469727 249.65234375 C206.98591913 245.39132178 202.24956374 241.40911592 197.37329102 237.48828125 C193.66996031 234.40818144 190.13863804 231.16078375 186.62329102 227.86914062 C182.22590857 223.17007425 182.22590857 223.17007425 176.56469727 221.15234375 C174.16134673 226.96424698 171.75873864 232.77645651 169.35668945 238.58889771 C168.49684406 240.6692743 167.63681864 242.74957649 166.77661133 244.82980347 C162.10999481 256.11547038 157.45337443 267.40486471 152.84594727 278.71484375 C152.11484378 280.50708673 151.38372438 282.29932322 150.65258789 284.09155273 C149.28225367 287.45125691 147.91724995 290.81306427 146.55493164 294.17602539 C145.93338372 295.70076386 145.31164969 297.22542648 144.68969727 298.75 C144.27838562 299.77196472 144.27838562 299.77196472 143.85876465 300.8145752 C140.12121371 309.94171985 140.12121371 309.94171985 136.87719727 312.46484375 C133.45191716 313.48317027 130.05378479 313.91903337 126.56469727 313.15234375 C122.27259328 310.25268473 120.30386677 307.36252652 118.03344727 302.74609375 C117.56480759 301.80435051 117.56480759 301.80435051 117.08670044 300.84358215 C116.06705955 298.78564552 115.06561386 296.71944379 114.06469727 294.65234375 C113.34973911 293.19781682 112.63407145 291.74363844 111.91772461 290.28979492 C107.00996887 280.29125084 102.28418522 270.21184207 97.64086914 260.08789062 C93.09525451 250.20298263 88.34651741 240.4246403 83.56469727 230.65234375 C77.75192718 218.76985638 72.06031087 206.84867924 66.53735352 194.828125 C62.01800307 185.03432066 57.30386258 175.34122196 52.56469727 165.65234375 C46.72955138 153.72265156 41.01370804 141.75467635 35.46704102 129.6875 C31.12646532 120.27930218 26.61192364 110.96199627 22.06469727 101.65234375 C16.3775988 90.00846528 10.8139492 78.32220477 5.39697266 66.54956055 C0.59670838 56.14635003 -4.38819162 45.83646962 -9.41235352 35.54003906 C-11.09821749 32.082991 -12.77140063 28.62002764 -14.43530273 25.15234375 C-15.0788269 23.81248413 -15.0788269 23.81248413 -15.73535156 22.44555664 C-18.31486958 16.89492007 -19.67641978 12.3057812 -18.43530273 6.15234375 C-14.20670114 -1.55588204 -7.87596593 -1.94338382 0 0 Z " fill="#172B3E" transform="translate(577.435302734375,572.84765625)"/>
<path d="M0 0 C0.73613525 0.0101413 1.47227051 0.02028259 2.23071289 0.0307312 C10.27791621 0.22074768 18.17612325 1.23930507 26.125 2.4453125 C26.87857788 2.55635315 27.63215576 2.6673938 28.40856934 2.78179932 C42.19277674 4.82300459 55.69288292 7.58173304 69.125 11.3203125 C70.10355957 11.59101563 71.08211914 11.86171875 72.09033203 12.140625 C85.80878424 15.99394578 99.02548966 20.72530434 112.125 26.3203125 C112.87023926 26.63581055 113.61547852 26.95130859 114.38330078 27.27636719 C146.3841354 40.89524499 176.23874076 58.18342241 203.125 80.3203125 C203.67349609 80.77116211 204.22199219 81.22201172 204.78710938 81.68652344 C215.81651747 90.79580597 226.29975242 100.41918078 236.4375 110.5078125 C237.42423706 111.48754028 237.42423706 111.48754028 238.4309082 112.48706055 C291.91990878 166.15176725 333.83878744 248.6328628 334.375 325.4453125 C334.395625 326.19167969 334.41625 326.93804687 334.4375 327.70703125 C334.49218497 335.56799596 332.25504607 341.88480965 326.9453125 347.71484375 C323.70975485 350.56852228 319.98829809 352.45047623 316.125 354.3203125 C315.465 354.6503125 314.805 354.9803125 314.125 355.3203125 C304.64371413 356.0956513 296.01918362 356.36475199 288.125 350.3203125 C281.77015201 344.43664145 278.05278054 338.29589185 277.09765625 329.5859375 C276.94731934 328.29743896 276.79698242 327.00894043 276.64208984 325.68139648 C276.56802917 325.00922089 276.49396851 324.33704529 276.41766357 323.64450073 C274.82035918 309.24991206 272.83452719 295.07427259 268.125 281.3203125 C267.53967521 279.45284768 266.95459335 277.58529885 266.37573242 275.71582031 C265.50362256 272.89975272 264.62102829 270.08700914 263.73779297 267.27441406 C263.21940557 265.62135718 262.70496549 263.96706323 262.19140625 262.3125 C250.33897119 225.33290262 230.78859004 191.40571455 205.125 162.3203125 C204.44824219 161.53269531 203.77148438 160.74507812 203.07421875 159.93359375 C192.15843078 147.44932363 180.32643954 135.37949323 167.125 125.3203125 C166.16078125 124.55074219 165.1965625 123.78117187 164.203125 122.98828125 C155.22921963 115.86098668 145.75632642 109.51978698 136.125 103.3203125 C135.18599854 102.71123047 135.18599854 102.71123047 134.22802734 102.08984375 C115.83573314 90.25576809 95.55739517 81.91711689 75.125 74.3203125 C74.21733887 73.97419922 73.30967773 73.62808594 72.37451172 73.27148438 C66.24147949 70.96903241 60.12620901 69.18407405 53.75 67.6953125 C44.70129547 65.55824925 44.70129547 65.55824925 41.63671875 64.29296875 C37.65176379 62.74980579 33.50965347 62.12897312 29.3125 61.3828125 C28.35633789 61.20878906 27.40017578 61.03476563 26.41503906 60.85546875 C18.12484465 59.39359978 9.80130078 58.34396197 1.42260742 57.53540039 C-8.3715579 56.47200505 -16.44769443 53.93090265 -23.1796875 46.50390625 C-28.47662228 39.68135661 -29.60896859 33.36076008 -29.3125 24.75390625 C-28.20202267 16.03864224 -23.83009251 10.65392943 -17.3515625 5.01171875 C-11.68508106 1.14170855 -6.81815719 -0.17033391 0 0 Z " fill="#E88901" transform="translate(512.875,137.6796875)"/>
<path d="M0 0 C8.48107105 6.2547899 12.81177456 12.8037798 14.54663086 23.31054688 C14.68464111 24.43525391 14.82265137 25.55996094 14.96484375 26.71875 C15.12355957 27.97429688 15.28227539 29.22984375 15.44580078 30.5234375 C15.52606506 31.1740918 15.60632935 31.82474609 15.68902588 32.49511719 C18.01916905 52.02462058 18.01916905 52.02462058 23 71 C23.73197917 73.37413469 24.46087839 75.74922012 25.1875 78.125 C26.11438474 81.08675376 27.05511372 84.04394516 28 87 C28.2381543 87.75087891 28.47630859 88.50175781 28.72167969 89.27539062 C39.89075907 124.06626142 57.92397468 155.79055405 81 184 C81.44359863 184.5480127 81.88719727 185.09602539 82.34423828 185.66064453 C94.3423065 200.40709227 107.82773405 214.50648895 123 226 C124.30570752 227.02083209 125.61030243 228.04308814 126.9140625 229.06640625 C168.94371846 261.87953848 221.70966874 287.0428808 275.2265625 292.9609375 C275.95522522 293.04276779 276.68388794 293.12459808 277.43463135 293.20890808 C281.1006718 293.61687374 284.7667485 293.99920699 288.43945312 294.34204102 C300.23220412 295.53052718 307.7124404 298.46554048 315.3359375 307.68359375 C320.11755203 314.33969097 320.81817925 320.92492652 320 329 C318.59709851 337.22130442 312.44116822 343.60381254 306.0078125 348.5234375 C283.90079897 360.65218812 239.0984163 344.9696972 215.95007324 338.41998291 C170.00678979 325.00832452 127.37221187 302.84760545 90 273 C89.07058594 272.26394531 88.14117187 271.52789063 87.18359375 270.76953125 C80.70591716 265.56343271 74.57252167 260.02850524 68.49072266 254.37304688 C66.08356737 252.15590942 63.6297587 249.99082103 61.1875 247.8125 C57.37291923 244.35365488 53.91246863 240.79012856 50.6015625 236.8515625 C49.02217356 235.0256348 47.3629303 233.36194426 45.625 231.6875 C41.01212386 227.12565125 37.00952681 222.09008768 33 217 C32.51225098 216.38334473 32.02450195 215.76668945 31.52197266 215.13134766 C18.52270259 198.62775018 7.22957918 181.34079285 -3 163 C-3.3928418 162.30616211 -3.78568359 161.61232422 -4.19042969 160.89746094 C-22.39051575 128.64001941 -35.18694767 90.58475186 -41 54 C-41.13680176 53.14470703 -41.27360352 52.28941406 -41.41455078 51.40820312 C-46.47873775 19.04764873 -46.47873775 19.04764873 -40.6796875 9.21875 C-30.89038464 -3.7122361 -14.53669326 -9.38828106 0 0 Z " fill="#E88901" transform="translate(163,498)"/>
<path d="M0 0 C0.94311035 0.29632324 1.8862207 0.59264648 2.85791016 0.89794922 C27.39040672 8.82002595 50.21148208 20.84503277 71 36 C71.58120605 36.4228125 72.16241211 36.845625 72.76123047 37.28125 C80.01372173 42.60265373 86.74492259 48.33175891 93.296875 54.484375 C95.50616012 56.54041491 97.74998383 58.50100272 100.0625 60.4375 C140.14259089 95.4869622 166.80289519 153.18774928 172.25390625 205.43359375 C172.66050928 213.00165662 169.94473251 219.82770828 165.375 225.8125 C159.79438552 231.62736249 153.71399234 234.18090839 145.73461914 234.64233398 C135.62422515 234.84668479 129.55558742 232.25848389 122.125 225.3125 C117.39910318 217.94566085 115.70348195 210.08758932 114.20996094 201.54638672 C111.85861528 188.27276127 108.7843927 175.21952958 103 163 C102.2700665 161.38967029 101.54097905 159.77895695 100.8125 158.16796875 C90.69197482 136.06623031 77.70878365 117.57985768 61 100 C60.13181641 99.05253906 60.13181641 99.05253906 59.24609375 98.0859375 C42.73982799 80.62818274 20.70938036 68.81480508 -0.88476562 58.96484375 C-2.64130126 58.16361697 -4.39177643 57.34911948 -6.140625 56.53125 C-20.55408901 50.10696318 -36.03707389 46.5172597 -51.65332031 44.64428711 C-60.55149052 43.41687467 -67.83222902 40.07726877 -73.5 32.9375 C-77.01591916 27.93958003 -78.27883917 23.6836143 -78.25 17.5625 C-78.25515625 16.47066406 -78.2603125 15.37882812 -78.265625 14.25390625 C-77.64421134 6.64158894 -74.28689798 0.89715511 -68.6875 -4.1875 C-50.83321897 -18.44846661 -19.43113388 -6.14063902 0 0 Z " fill="#E88901" transform="translate(563,259)"/>
<path d="M0 0 C8.20399913 6.31076856 10.75819993 14.70612718 12.078125 24.59375 C14.88396773 42.65454721 20.55669112 59.19068328 28.140625 75.78125 C28.43050293 76.41756348 28.72038086 77.05387695 29.01904297 77.70947266 C42.11306892 106.0454646 62.84412304 130.55485003 88.140625 148.78125 C88.72247559 149.20212891 89.30432617 149.62300781 89.90380859 150.05664062 C114.61766927 167.71230405 144.20630702 181.12661171 174.53637695 184.71704102 C184.42767931 185.93979638 192.54017505 187.31182617 199.25 195.2890625 C205.28674745 203.57148 206.02780609 210.73340834 205.140625 220.78125 C202.69635759 228.79936085 196.35245516 234.32579346 189.29296875 238.44140625 C168.99425791 247.06898719 133.13653081 232.98464959 113.73828125 225.2734375 C87.57089011 214.59596058 63.82099066 201.06887043 42.140625 182.78125 C41.4707959 182.22308594 40.8009668 181.66492188 40.11083984 181.08984375 C30.03619424 172.6718688 20.55651196 163.89017673 12.140625 153.78125 C11.70878906 153.26320801 11.27695312 152.74516602 10.83203125 152.21142578 C-7.20268451 130.4561335 -22.90577994 105.3196928 -31.97265625 78.40625 C-32.61149507 76.51506194 -33.303137 74.64141985 -34.02734375 72.78125 C-40.35304104 56.276046 -50.3915326 27.95090189 -42.96484375 10.7265625 C-39.08783812 3.90412856 -33.61534528 -1.34207698 -26.07421875 -3.80078125 C-17.01791462 -5.50981924 -7.77386948 -5.09547748 0 0 Z " fill="#E88901" transform="translate(276.859375,498.21875)"/>
<path d="M0 0 C6.70757503 4.43473256 12.79128501 9.47829426 18.69824219 14.92089844 C20.11556641 16.21447266 20.11556641 16.21447266 21.56152344 17.53417969 C40.1252118 35.25764453 57.80810064 62.63747792 59.13574219 88.85839844 C58.99160986 95.92989068 56.81782197 101.55971111 51.98339844 106.76855469 C44.6812151 113.27181205 38.56484051 115.28888218 28.87402344 115.20605469 C22.08166569 114.59616279 15.48331373 111.84268631 10.69824219 106.92089844 C6.67753726 102.09868043 4.79612239 96.59446975 2.82324219 90.73339844 C-4.84384412 68.08914899 -19.02713735 51.70003947 -40.30175781 40.92089844 C-46.24835679 38.1399019 -52.1927864 35.94719097 -58.48925781 34.10839844 C-66.03571516 31.65555254 -71.70172879 26.9798752 -75.80175781 20.17089844 C-78.69902042 13.89349611 -79.499477 7.30051015 -77.65332031 0.54980469 C-74.37581995 -7.53189493 -69.17859805 -13.76232891 -61.19628906 -17.38769531 C-41.6315545 -24.52781494 -16.22611891 -10.33150527 0 0 Z " fill="#E88901" transform="translate(562.3017578125,378.0791015625)"/>
<path d="M0 0 C8.03988162 6.1620546 10.86428083 13.37490975 13.8125 22.75 C20.683106 43.70801133 35.67391688 59.78632702 55 70 C60.88085702 72.72122314 66.95284999 75.00977183 73.11328125 77.01171875 C80.99334657 79.5948107 87.02490507 83.32737398 91.5 90.5 C94.67023082 97.76039468 94.32904657 107.59403998 91.5625 114.9375 C88.27287436 121.08665887 82.59106105 126.12502741 76.25 129 C59.30558474 134.01687589 40.84989819 124.84416245 26.04052734 117.12255859 C-4.66875635 100.2284109 -26.97864212 73.72085577 -39 41 C-39.41507812 39.9584375 -39.83015625 38.916875 -40.2578125 37.84375 C-43.65105277 28.82674788 -45.04359655 19.67169058 -41 10.625 C-37.19622631 4.03536388 -31.61326565 -1.25490686 -24.2578125 -3.5625 C-15.68299984 -5.22405539 -7.55988629 -4.51811386 0 0 Z " fill="#E88901" transform="translate(389,498)"/>
</svg>
