<svg xmlns="http://www.w3.org/2000/svg" width="62" height="62" fill="none"><path d="M18.581 23.904a.56.56 0 0 1 .568-.568h3.335a.56.56 0 0 1 .568.568v7.239c0 .355.142.355.284.071l4.4-7.381c.213-.284.568-.497.923-.497h3.335c.355 0 .426.213.284.497l-4.471 6.387c-.213.284-.213.71-.071 1.065l5.11 11.639c.071.142.071.426-.142.497-.071.071-.142.071-.213.071h-3.478c-.355 0-.71-.213-.852-.497l-3.193-8.161c-.142-.284-.355-.355-.568-.071l-1.064 1.49c-.213.355-.355.71-.355 1.065v5.677a.56.56 0 0 1-.568.568h-3.265a.56.56 0 0 1-.568-.568v-19.09z" fill="#fff"/><path d="M42.284 27.878a.69.69 0 0 0 .512.177.69.69 0 0 0 .481-.248c.071-.071.142-.213.142-.355v-8.019c0-.497-.355-.852-.852-.852h-8.019c-.355.071-.639.426-.568.852a.54.54 0 0 0 .142.284l8.161 8.161z" fill="#ed1c24"/></svg>