<svg width="62" height="62" viewBox="0 0 62 62" fill="none" xmlns="http://www.w3.org/2000/svg"><rect width="62" height="62" rx="31" fill="white"/><g clip-path="url(#clip0_2547_50)"><path fill-rule="evenodd" clip-rule="evenodd" d="M30.5 31C31.9587 31 33.3576 30.4205 34.3891 29.3891C35.4205 28.3576 36 26.9587 36 25.5C36 24.4122 36.3226 23.3488 36.9269 22.4444C37.5313 21.5399 38.3902 20.8349 39.3952 20.4187C40.4002 20.0024 41.5061 19.8935 42.573 20.1057C43.6399 20.3179 44.6199 20.8417 45.3891 21.6109C46.1583 22.3801 46.6821 23.3601 46.8943 24.427C47.1065 25.4939 46.9976 26.5998 46.5813 27.6048C46.1651 28.6098 45.4601 29.4687 44.5556 30.0731C43.6512 30.6774 42.5878 31 41.5 31C40.0413 31 38.6424 31.5795 37.6109 32.6109C36.5795 33.6424 36 35.0413 36 36.5C36 37.9587 36.5795 39.3576 37.6109 40.3891C38.6424 41.4205 40.0413 42 41.5 42H47V53H36V47.5C36 46.0413 35.4205 44.6424 34.3891 43.6109C33.3576 42.5795 31.9587 42 30.5 42C29.0413 42 27.6424 41.4205 26.6109 40.3891C25.5795 39.3576 25 37.9587 25 36.5C25 35.0413 25.5795 33.6424 26.6109 32.6109C27.6424 31.5795 29.0413 31 30.5 31ZM25 9V31H14V9H25ZM25 47.5V53H14V47.5C14 46.0413 14.5795 44.6424 15.6109 43.6109C16.6424 42.5795 18.0413 42 19.5 42C20.9587 42 22.3576 42.5795 23.3891 43.6109C24.4205 44.6424 25 46.0413 25 47.5Z" fill="black"/></g><defs><clipPath id="clip0_2547_50"><rect width="33" height="44" fill="white" transform="translate(14 9)"/></clipPath></defs></svg>