<svg width="62" height="62" viewBox="0 0 62 62" fill="none" xmlns="http://www.w3.org/2000/svg"><path d="M30.9176 53C18.8876 53 9 43.1124 9 30.9176C9 18.8876 18.8876 9 30.9176 9C43.1124 9 52.8352 18.8876 52.8352 30.9176C53 43.1124 43.1124 53 30.9176 53ZM43.6067 19.7116C40.6404 16.4157 36.6854 14.4382 32.236 14.2734C27.7865 13.9438 23.6667 15.427 20.3708 18.3933C17.4045 21.03 15.5918 24.4906 15.0974 28.2809L12.1311 28.1161L16.4157 35.6966L21.8539 28.4457L18.5581 28.2809C18.8876 25.4794 20.3708 22.8427 22.5131 20.8652C25.1498 18.5581 28.4457 17.4045 32.0712 17.5693C35.5318 17.7341 38.8277 19.382 41.1348 22.0187C43.4419 24.6554 44.5955 27.9513 44.4307 31.5768C44.2659 35.0375 42.618 38.3333 39.9813 40.6405L42.2884 43.1124C45.5843 40.1461 47.5618 36.191 47.7266 31.7416C48.0562 27.2921 46.573 23.0075 43.6067 19.7116Z" fill="#F16823"/></svg>