<svg xmlns="http://www.w3.org/2000/svg" width="62" height="62" fill="none" fill-rule="evenodd" ><path d="M39.428 52.574C46.89 52.592 52.96 46.582 53 39.135V22.439C52.96 14.992 46.89 8.981 39.428 9H22.567C15.106 8.981 9.037 14.993 9 22.439v16.697c.037 7.446 6.106 13.457 13.567 13.438h16.861z" fill="#fffffe"/><path d="M33.397 24.721v6.037c.001.329.133.643.367.875a1.24 1.24 0 0 0 .879.359h4.061a1.23 1.23 0 0 0 1.237-1.234V26.73a1.23 1.23 0 0 0-1.237-1.234h-2.833v-.789a2.82 2.82 0 0 1 2.833-2.789c.683 0 1.237-.553 1.237-1.234s-.554-1.234-1.237-1.234a5.28 5.28 0 0 0-3.749 1.528 5.26 5.26 0 0 0-1.558 3.73v.014zm-11.338 0v6.037a1.23 1.23 0 0 0 .364.874c.233.232.549.361.878.36h4.061a1.24 1.24 0 0 0 1.247-1.234V26.73c0-.329-.132-.644-.366-.876s-.551-.361-.881-.358h-2.814v-.789c.013-1.542 1.268-2.787 2.814-2.789.683 0 1.237-.553 1.237-1.234s-.554-1.234-1.237-1.234a5.28 5.28 0 0 0-3.746 1.53c-.995.986-1.555 2.328-1.557 3.728v.014zm1.491 12.917a.6.6 0 0 0-.503.895c.11.187 2.742 4.636 7.987 4.636s7.834-4.449 7.953-4.636c.105-.186.105-.412 0-.598a.59.59 0 0 0-.513-.297H23.55z" fill="#0a0b09"/><path d="M22.567 9C15.106 8.981 9.037 14.993 9 22.439v16.697c.037 7.446 6.106 13.457 13.567 13.438h11.439l-7.536-5.373h-3.902c-4.482.016-8.129-3.593-8.15-8.065V22.439c.037-4.466 3.675-8.067 8.15-8.066h16.861c4.475-.001 8.113 3.6 8.15 8.066v16.697c-.037 4.465-3.675 8.066-8.15 8.066h-3.203v5.373h3.203C46.89 52.592 52.96 46.582 53 39.135V22.439C52.96 14.992 46.89 8.981 39.428 9H22.567z" fill="#ff5551"/></svg>