<svg xmlns="http://www.w3.org/2000/svg" xmlns:xlink="http://www.w3.org/1999/xlink" width="62" zoomAndPan="magnify" viewBox="0 0 375 374.999991" height="62" preserveAspectRatio="xMidYMid meet" version="1.0"><path fill="#3fca77" d="M 108.59375 35.746094 L 108.609375 35.746094 C 109.847656 35.746094 111.082031 35.773438 112.316406 35.835938 C 113.550781 35.894531 114.78125 35.988281 116.011719 36.109375 C 117.242188 36.230469 118.46875 36.378906 119.691406 36.5625 C 120.914062 36.742188 122.132812 36.953125 123.34375 37.195312 C 124.558594 37.4375 125.761719 37.707031 126.960938 38.007812 C 128.160156 38.308594 129.351562 38.636719 130.535156 38.996094 C 131.71875 39.355469 132.890625 39.742188 134.054688 40.15625 C 135.21875 40.574219 136.371094 41.019531 137.511719 41.492188 C 138.65625 41.964844 139.785156 42.464844 140.902344 42.992188 C 142.019531 43.519531 143.121094 44.074219 144.210938 44.65625 C 145.300781 45.242188 146.378906 45.847656 147.4375 46.484375 C 148.496094 47.121094 149.542969 47.78125 150.570312 48.464844 C 151.597656 49.152344 152.609375 49.863281 153.601562 50.601562 C 154.59375 51.335938 155.566406 52.09375 156.523438 52.878906 C 157.476562 53.664062 158.414062 54.46875 159.328125 55.300781 C 160.246094 56.128906 161.140625 56.980469 162.015625 57.855469 C 162.886719 58.726562 163.742188 59.621094 164.570312 60.539062 C 165.402344 61.453125 166.207031 62.386719 166.992188 63.34375 C 167.777344 64.296875 168.535156 65.269531 169.273438 66.261719 C 170.007812 67.257812 170.71875 68.265625 171.40625 69.292969 C 172.09375 70.320312 172.753906 71.363281 173.390625 72.421875 C 174.027344 73.484375 174.632812 74.558594 175.21875 75.648438 C 175.800781 76.734375 176.355469 77.839844 176.882812 78.957031 C 177.414062 80.074219 177.914062 81.203125 178.386719 82.34375 C 178.859375 83.484375 179.304688 84.636719 179.71875 85.800781 C 180.136719 86.964844 180.523438 88.136719 180.882812 89.316406 C 181.242188 90.5 181.570312 91.691406 181.871094 92.886719 C 182.171875 94.085938 182.441406 95.292969 182.683594 96.503906 C 182.925781 97.714844 183.136719 98.933594 183.316406 100.152344 C 183.5 101.375 183.648438 102.601562 183.769531 103.832031 C 183.890625 105.0625 183.984375 106.292969 184.042969 107.527344 C 184.105469 108.761719 184.136719 109.996094 184.136719 111.230469 L 184.136719 111.246094 C 184.136719 112.480469 184.105469 113.714844 184.042969 114.949219 C 183.984375 116.183594 183.890625 117.414062 183.769531 118.644531 C 183.648438 119.875 183.5 121.097656 183.316406 122.320312 C 183.136719 123.542969 182.925781 124.757812 182.683594 125.972656 C 182.441406 127.183594 182.171875 128.386719 181.871094 129.585938 C 181.570312 130.785156 181.242188 131.976562 180.882812 133.15625 C 180.523438 134.339844 180.136719 135.511719 179.71875 136.675781 C 179.304688 137.839844 178.859375 138.992188 178.386719 140.132812 C 177.914062 141.273438 177.414062 142.402344 176.882812 143.519531 C 176.355469 144.636719 175.800781 145.738281 175.21875 146.828125 C 174.632812 147.917969 174.027344 148.992188 173.390625 150.050781 C 172.753906 151.113281 172.09375 152.15625 171.40625 153.183594 C 170.71875 154.210938 170.007812 155.21875 169.273438 156.210938 C 168.535156 157.203125 167.777344 158.175781 166.992188 159.132812 C 166.207031 160.085938 165.402344 161.023438 164.570312 161.9375 C 163.742188 162.851562 162.886719 163.746094 162.015625 164.621094 C 161.140625 165.496094 160.246094 166.347656 159.328125 167.175781 C 158.414062 168.003906 157.476562 168.8125 156.523438 169.59375 C 155.566406 170.378906 154.59375 171.140625 153.601562 171.875 C 152.609375 172.609375 151.597656 173.320312 150.570312 174.007812 C 149.542969 174.695312 148.496094 175.355469 147.4375 175.992188 C 146.378906 176.625 145.300781 177.234375 144.210938 177.816406 C 143.121094 178.398438 142.019531 178.953125 140.902344 179.484375 C 139.785156 180.011719 138.65625 180.511719 137.511719 180.984375 C 136.371094 181.457031 135.21875 181.902344 134.054688 182.316406 C 132.890625 182.734375 131.71875 183.121094 130.535156 183.480469 C 129.351562 183.839844 128.160156 184.167969 126.960938 184.46875 C 125.761719 184.769531 124.558594 185.039062 123.34375 185.28125 C 122.132812 185.519531 120.914062 185.730469 119.691406 185.914062 C 118.46875 186.09375 117.242188 186.246094 116.011719 186.367188 C 114.78125 186.488281 113.550781 186.578125 112.316406 186.640625 C 111.082031 186.699219 109.847656 186.730469 108.609375 186.730469 L 108.59375 186.730469 C 107.359375 186.730469 106.125 186.699219 104.890625 186.640625 C 103.65625 186.578125 102.421875 186.488281 101.191406 186.367188 C 99.960938 186.246094 98.738281 186.09375 97.515625 185.914062 C 96.292969 185.730469 95.074219 185.519531 93.863281 185.28125 C 92.648438 185.039062 91.445312 184.769531 90.246094 184.46875 C 89.046875 184.167969 87.855469 183.839844 86.671875 183.480469 C 85.488281 183.121094 84.316406 182.734375 83.152344 182.316406 C 81.988281 181.902344 80.835938 181.457031 79.695312 180.984375 C 78.550781 180.511719 77.421875 180.011719 76.304688 179.484375 C 75.1875 178.953125 74.082031 178.398438 72.992188 177.816406 C 71.902344 177.234375 70.828125 176.625 69.769531 175.992188 C 68.707031 175.355469 67.664062 174.695312 66.636719 174.007812 C 65.609375 173.320312 64.597656 172.609375 63.605469 171.875 C 62.613281 171.140625 61.640625 170.378906 60.683594 169.59375 C 59.726562 168.8125 58.792969 168.003906 57.875 167.175781 C 56.960938 166.347656 56.066406 165.496094 55.191406 164.621094 C 54.316406 163.746094 53.464844 162.851562 52.636719 161.9375 C 51.804688 161.023438 51 160.085938 50.214844 159.132812 C 49.429688 158.175781 48.671875 157.203125 47.933594 156.210938 C 47.199219 155.21875 46.484375 154.210938 45.800781 153.183594 C 45.113281 152.15625 44.453125 151.113281 43.816406 150.050781 C 43.179688 148.992188 42.570312 147.917969 41.988281 146.828125 C 41.40625 145.738281 40.851562 144.636719 40.320312 143.519531 C 39.792969 142.402344 39.292969 141.273438 38.820312 140.132812 C 38.347656 138.992188 37.902344 137.839844 37.484375 136.675781 C 37.070312 135.511719 36.683594 134.339844 36.324219 133.15625 C 35.964844 131.976562 35.632812 130.785156 35.335938 129.585938 C 35.035156 128.386719 34.761719 127.183594 34.523438 125.972656 C 34.28125 124.757812 34.070312 123.542969 33.886719 122.320312 C 33.707031 121.097656 33.554688 119.875 33.433594 118.644531 C 33.3125 117.414062 33.222656 116.183594 33.160156 114.949219 C 33.101562 113.714844 33.070312 112.480469 33.070312 111.246094 L 33.070312 111.230469 C 33.070312 109.996094 33.101562 108.761719 33.160156 107.527344 C 33.222656 106.292969 33.3125 105.0625 33.433594 103.832031 C 33.554688 102.601562 33.707031 101.375 33.886719 100.152344 C 34.070312 98.933594 34.28125 97.714844 34.523438 96.503906 C 34.761719 95.292969 35.035156 94.085938 35.335938 92.886719 C 35.632812 91.691406 35.964844 90.5 36.324219 89.316406 C 36.683594 88.136719 37.070312 86.964844 37.484375 85.800781 C 37.902344 84.636719 38.347656 83.484375 38.820312 82.34375 C 39.292969 81.203125 39.792969 80.074219 40.320312 78.957031 C 40.851562 77.839844 41.40625 76.734375 41.988281 75.648438 C 42.570312 74.558594 43.179688 73.484375 43.816406 72.421875 C 44.453125 71.363281 45.113281 70.320312 45.800781 69.292969 C 46.484375 68.265625 47.199219 67.253906 47.933594 66.261719 C 48.671875 65.269531 49.429688 64.296875 50.214844 63.34375 C 51 62.386719 51.804688 61.453125 52.636719 60.539062 C 53.464844 59.621094 54.316406 58.726562 55.191406 57.855469 C 56.066406 56.980469 56.960938 56.128906 57.875 55.300781 C 58.792969 54.46875 59.726562 53.664062 60.683594 52.878906 C 61.640625 52.09375 62.613281 51.335938 63.605469 50.601562 C 64.597656 49.863281 65.609375 49.152344 66.636719 48.464844 C 67.664062 47.78125 68.707031 47.121094 69.769531 46.484375 C 70.828125 45.847656 71.902344 45.242188 72.992188 44.65625 C 74.082031 44.074219 75.1875 43.519531 76.304688 42.992188 C 77.421875 42.464844 78.550781 41.964844 79.695312 41.492188 C 80.835938 41.019531 81.988281 40.574219 83.152344 40.15625 C 84.316406 39.742188 85.488281 39.355469 86.671875 38.996094 C 87.855469 38.636719 89.046875 38.308594 90.246094 38.007812 C 91.445312 37.707031 92.648438 37.4375 93.863281 37.195312 C 95.074219 36.953125 96.292969 36.742188 97.515625 36.5625 C 98.738281 36.378906 99.960938 36.230469 101.191406 36.109375 C 102.421875 35.988281 103.65625 35.894531 104.890625 35.835938 C 106.125 35.773438 107.359375 35.746094 108.59375 35.746094 Z M 108.59375 35.746094 " fill-opacity="1" fill-rule="nonzero"/><path fill="#287dff" d="M 328.886719 35.746094 L 203.570312 35.746094 C 196.460938 35.746094 190.699219 41.503906 190.699219 48.613281 L 190.699219 173.863281 C 190.699219 180.96875 196.460938 186.730469 203.570312 186.730469 L 250.074219 186.730469 C 257.1875 186.730469 262.949219 180.96875 262.949219 173.863281 L 262.949219 157.191406 C 262.949219 155.382812 264.414062 153.902344 266.238281 153.902344 C 268.058594 153.902344 269.527344 155.371094 269.527344 157.191406 L 269.527344 173.863281 C 269.527344 180.96875 275.289062 186.730469 282.398438 186.730469 L 328.902344 186.730469 C 336.015625 186.730469 341.777344 180.96875 341.777344 173.863281 L 341.777344 48.613281 C 341.777344 41.503906 336.015625 35.746094 328.902344 35.746094 Z M 328.886719 35.746094 " fill-opacity="1" fill-rule="nonzero"/><path fill="#ffb4b4" d="M 171.261719 193.289062 L 45.945312 193.289062 C 38.832031 193.289062 33.070312 199.050781 33.070312 206.15625 L 33.070312 331.40625 C 33.070312 338.515625 38.832031 344.273438 45.945312 344.273438 L 171.261719 344.273438 C 178.371094 344.273438 184.136719 338.515625 184.136719 331.40625 L 184.136719 284.929688 C 184.136719 277.820312 178.371094 272.0625 171.261719 272.0625 L 154.578125 272.0625 C 152.773438 272.0625 151.292969 270.597656 151.292969 268.773438 C 151.292969 266.96875 152.757812 265.488281 154.578125 265.488281 L 171.261719 265.488281 C 178.371094 265.488281 184.136719 259.726562 184.136719 252.621094 L 184.136719 206.140625 C 184.136719 199.035156 178.371094 193.273438 171.261719 193.273438 Z M 171.261719 193.289062 " fill-opacity="1" fill-rule="nonzero"/><path fill="#ff645a" d="M 328.886719 193.289062 L 282.386719 193.289062 C 275.273438 193.289062 269.511719 199.050781 269.511719 206.15625 L 269.511719 222.828125 C 269.511719 224.636719 268.042969 226.117188 266.222656 226.117188 C 264.398438 226.117188 262.933594 224.648438 262.933594 222.828125 L 262.933594 206.15625 C 262.933594 199.050781 257.171875 193.289062 250.058594 193.289062 L 203.558594 193.289062 C 196.445312 193.289062 190.683594 199.050781 190.683594 206.15625 L 190.683594 252.636719 C 190.683594 259.742188 196.445312 265.503906 203.558594 265.503906 L 220.238281 265.503906 C 222.046875 265.503906 223.527344 266.96875 223.527344 268.789062 C 223.527344 270.609375 222.058594 272.078125 220.238281 272.078125 L 203.558594 272.078125 C 196.445312 272.078125 190.683594 277.835938 190.683594 284.945312 L 190.683594 331.421875 C 190.683594 338.53125 196.445312 344.289062 203.558594 344.289062 L 328.875 344.289062 C 335.984375 344.289062 341.746094 338.53125 341.746094 331.421875 L 341.746094 206.171875 C 341.746094 199.0625 335.984375 193.304688 328.875 193.304688 Z M 328.886719 193.289062 " fill-opacity="1" fill-rule="nonzero"/></svg>