<svg xmlns="http://www.w3.org/2000/svg" width="62" height="62" fill="none"><g clip-path="url(#a)"><path fill="#D32D27" d="M46.4 9H15.6A6.6 6.6 0 0 0 9 15.6v30.8a6.6 6.6 0 0 0 6.6 6.6h30.8a6.6 6.6 0 0 0 6.6-6.6V15.6A6.6 6.6 0 0 0 46.4 9"/><path fill="#fff" d="M18.281 34.781a3.781 3.781 0 1 0 0-7.562 3.781 3.781 0 0 0 0 7.562M28.508 34.781a3.781 3.781 0 1 0 0-7.562 3.781 3.781 0 0 0 0 7.562M38.82 34.781a3.781 3.781 0 1 0 0-7.562 3.781 3.781 0 0 0 0 7.562M47.5 23.63a.87.87 0 0 0-.86-.88.87.87 0 0 0-.859.88v14.74c0 .486.385.88.86.88a.87.87 0 0 0 .859-.88z"/></g><defs><clipPath id="a"><path fill="#fff" d="M9 9h44v44H9z"/></clipPath></defs></svg>