<?xml version="1.0" encoding="UTF-8"?>
<svg version="1.1" xmlns="http://www.w3.org/2000/svg" width="327" height="207">
<path d="M0 0 C107.91 0 215.82 0 327 0 C327 68.31 327 136.62 327 207 C219.09 207 111.18 207 0 207 C0 138.69 0 70.38 0 0 Z " fill="#FBFBFB" transform="translate(0,0)"/>
<path d="M0 0 C3.98663096 3.0257939 6.3769173 6.42972713 7.58467102 11.31057739 C8.30184627 16.88357142 6.39208342 21.87771207 3.04702759 26.30670166 C0.66146158 28.89552334 -1.81078049 31.34852904 -4.3515625 33.78515625 C-5.2573555 34.68104462 -6.1631485 35.57693298 -7.09638977 36.49996948 C-9.48609954 38.85731504 -11.88974268 41.19828626 -14.30187988 43.53253174 C-16.76810499 45.92662889 -19.2141735 48.34113679 -21.66210938 50.75390625 C-26.45316836 55.46806822 -31.2636756 60.16164581 -36.08984375 64.83984375 C-34.39398249 68.47287459 -32.35183887 70.78533421 -29.46484375 73.58984375 C-28.64757812 74.3890625 -27.8303125 75.18828125 -26.98828125 76.01171875 C-26.36179688 76.615 -25.7353125 77.21828125 -25.08984375 77.83984375 C-19.70356632 73.35326288 -14.73627225 68.59135046 -9.8203125 63.59765625 C-8.25729128 62.02200662 -6.69413643 60.44648955 -5.13085938 58.87109375 C-2.68860941 56.40388504 -0.24799529 53.93509748 2.19018555 51.46386719 C4.55737749 49.06665094 6.93060339 46.67554412 9.3046875 44.28515625 C10.40463799 43.16501633 10.40463799 43.16501633 11.52680969 42.02224731 C12.20479111 41.34088715 12.88277252 40.65952698 13.58129883 39.95751953 C14.4756237 39.05200851 14.4756237 39.05200851 15.38801575 38.12820435 C16.91015625 36.83984375 16.91015625 36.83984375 18.91015625 36.83984375 C18.91015625 36.17984375 18.91015625 35.51984375 18.91015625 34.83984375 C23.86527698 33.18813684 28.96323471 33.5283363 34.03515625 34.33984375 C39.0059394 36.93329583 42.15387763 41.57100789 43.91015625 46.83984375 C44.44712681 53.1760963 43.4070145 57.44394039 39.91015625 62.83984375 C37.12186958 66.13788767 34.07861387 69.13865443 30.98828125 72.15234375 C30.12829529 73.00666992 29.26830933 73.86099609 28.38226318 74.74121094 C25.65085692 77.45034305 22.90583244 80.14518275 20.16015625 82.83984375 C18.29856035 84.6813633 16.43787305 86.52380183 14.578125 88.3671875 C10.03259944 92.86876446 5.4758304 97.35870847 0.91015625 101.83984375 C2.51550912 105.25043778 4.31534526 107.45776859 7.03515625 110.08984375 C8.12183594 111.14945313 8.12183594 111.14945313 9.23046875 112.23046875 C9.78476563 112.7615625 10.3390625 113.29265625 10.91015625 113.83984375 C14.1578309 112.41720825 16.28303502 110.69791037 18.75732422 108.17211914 C19.49844452 107.4211647 20.23956482 106.67021027 21.00314331 105.89649963 C21.79487946 105.08502975 22.5866156 104.27355988 23.40234375 103.4375 C25.09362885 101.72579175 26.78503899 100.01420703 28.4765625 98.30273438 C31.13425553 95.60155719 33.78944056 92.89797243 36.44189453 90.19165039 C39.00557286 87.57963222 41.57843651 84.9769333 44.15234375 82.375 C45.33387527 81.16083153 45.33387527 81.16083153 46.53927612 79.9221344 C50.92683599 75.49534975 54.8361097 71.61685263 61.18359375 70.40625 C66.87816527 70.39566529 71.2544756 71.45868201 75.91015625 74.83984375 C79.44161402 78.73350232 80.45239892 82.24206325 81.125 87.30078125 C80.54023829 94.21160147 77.39729253 99.09827907 72.57177734 103.84106445 C72.03959595 104.38361374 71.50741455 104.92616302 70.95910645 105.4851532 C69.21302275 107.25813017 67.44939922 109.01230547 65.68359375 110.765625 C64.45325078 112.00188403 63.22357607 113.23880845 61.99453735 114.47636414 C59.42203952 117.06071158 56.84051982 119.63560472 54.25244141 122.2043457 C50.94856895 125.48533956 47.67017076 128.79051651 44.39838219 132.10346699 C41.86616719 134.66134494 39.31992932 137.20489459 36.76942825 139.74452782 C35.55533219 140.95714427 34.34576398 142.17431281 33.14100266 143.39620399 C20.58655154 156.10003174 20.58655154 156.10003174 12.91015625 156.83984375 C0.94079854 156.32645921 -6.72073806 145.34579419 -14.58984375 137.40234375 C-15.50765625 136.48001953 -16.42546875 135.55769531 -17.37109375 134.60742188 C-19.6129943 132.35384476 -21.85250975 130.097953 -24.08984375 127.83984375 C-30.66045411 133.28181398 -36.55955184 139.27366002 -42.50585938 145.3828125 C-53.35087824 156.38394086 -53.35087824 156.38394086 -61.02734375 156.921875 C-69.81441759 156.57238911 -75.16566773 150.65397315 -81.08984375 144.83984375 C-81.90195313 144.04320312 -82.7140625 143.2465625 -83.55078125 142.42578125 C-85.74596104 140.24518737 -87.92133819 138.04691957 -90.08984375 135.83984375 C-91.06781704 134.85948516 -92.04674451 133.88007574 -93.02734375 132.90234375 C-94.38151042 131.54817708 -95.73567708 130.19401042 -97.08984375 128.83984375 C-100.71378039 128.93573078 -102.57751874 131.02873735 -104.99700928 133.53536987 C-105.4762384 134.04576813 -105.95546753 134.55616638 -106.44921875 135.08203125 C-107.49321684 136.1591186 -108.53749678 137.23593282 -109.58203125 138.3125 C-111.21019917 140.00871222 -112.83404648 141.70873221 -114.45214844 143.41455078 C-116.02331748 145.06490214 -117.61015985 146.69892387 -119.19921875 148.33203125 C-119.67035095 148.83838104 -120.14148315 149.34473083 -120.62689209 149.86642456 C-124.85477568 154.18539411 -129.65097524 156.70988651 -135.77734375 156.94140625 C-140.13435302 156.04350907 -143.36112922 154.96926119 -146.67651367 151.94482422 C-147.36627289 151.31590271 -148.0560321 150.6869812 -148.76669312 150.03900146 C-156.93641659 142.30531854 -164.9091295 134.37048494 -172.89086914 126.44384766 C-175.23278866 124.1198004 -177.58294957 121.80459205 -179.94067383 119.49658203 C-182.80978167 116.68785327 -185.66370999 113.86450202 -188.50761986 111.03026962 C-189.5857045 109.96069593 -190.66888153 108.89622783 -191.75737953 107.83725357 C-203.19866392 96.69015 -203.19866392 96.69015 -204.08984375 88.83984375 C-203.76171775 82.72156882 -201.80552343 78.77108067 -197.72265625 74.25 C-194.30698798 71.30010467 -191.56919867 70.57723262 -187.08984375 70.65234375 C-186.24421875 70.65878906 -185.39859375 70.66523437 -184.52734375 70.671875 C-182.25731898 70.82830299 -180.27022771 71.20894561 -178.08984375 71.83984375 C-178.08984375 72.49984375 -178.08984375 73.15984375 -178.08984375 73.83984375 C-177.51878906 74.09507813 -176.94773437 74.3503125 -176.359375 74.61328125 C-169.75093731 78.18479491 -164.6228655 84.23490113 -159.8359375 89.90625 C-158.03547066 91.90005556 -156.13929727 93.60508559 -154.08984375 95.33984375 C-150.6481155 98.25768659 -147.74582807 101.40236916 -144.83203125 104.83984375 C-142.07892115 108.00036476 -139.09302949 110.91881203 -136.08984375 113.83984375 C-132.63782736 112.36262953 -130.44022439 110.40190374 -127.83984375 107.71484375 C-126.78023437 106.62816406 -126.78023437 106.62816406 -125.69921875 105.51953125 C-125.168125 104.96523437 -124.63703125 104.4109375 -124.08984375 103.83984375 C-125.48318622 100.68925565 -127.10759907 98.58558096 -129.55810547 96.17626953 C-130.61963333 95.12465134 -130.61963333 95.12465134 -131.7026062 94.05178833 C-132.46719147 93.30379974 -133.23177673 92.55581116 -134.01953125 91.78515625 C-134.80627228 91.00598846 -135.59301331 90.22682068 -136.40359497 89.42404175 C-139.76731435 86.09298996 -143.14266279 82.77381193 -146.51708984 79.45361328 C-148.98035658 77.0265921 -151.43755302 74.59354076 -153.89453125 72.16015625 C-154.65506805 71.41621613 -155.41560486 70.672276 -156.19918823 69.90579224 C-161.89729189 64.26041233 -166.79024891 59.40866503 -167.33984375 51.02734375 C-167.25013068 44.90442664 -164.29732985 40.16754374 -160.08984375 35.83984375 C-154.19260069 33.08779699 -148.32186373 33.32905103 -142.08984375 34.83984375 C-142.08984375 35.49984375 -142.08984375 36.15984375 -142.08984375 36.83984375 C-141.49728287 36.93108521 -140.90472198 37.02232666 -140.29420471 37.11633301 C-137.54059152 38.02011817 -136.63099441 39.17525529 -134.82006836 41.41601562 C-131.22217537 45.71705515 -127.38488217 49.6733954 -123.40625 53.62109375 C-122.7058812 54.32004761 -122.00551239 55.01900146 -121.28392029 55.73913574 C-119.07575917 57.94175914 -116.86412338 60.14085456 -114.65234375 62.33984375 C-113.14234561 63.84481883 -111.63257785 65.3500251 -110.12304688 66.85546875 C-106.44796734 70.51960204 -102.76977019 74.18057855 -99.08984375 77.83984375 C-94.13538508 73.68562048 -89.4742472 69.36400171 -84.91699219 64.78051758 C-84.23803894 64.10171036 -83.55908569 63.42290314 -82.85955811 62.723526 C-80.63706363 60.50034022 -78.41812385 58.27364275 -76.19921875 56.046875 C-74.64721228 54.49300096 -73.09498303 52.93934941 -71.5425415 51.38591003 C-67.47104686 47.31061183 -63.4025637 43.2323202 -59.3347168 39.15338135 C-55.18980425 34.99822719 -51.04205094 30.84591089 -46.89453125 26.69335938 C-40.20366807 19.99371421 -33.51458598 13.29229681 -26.82763672 6.58874512 C-25.95313873 5.71207939 -25.95313873 5.71207939 -25.06097412 4.81770325 C-24.30445368 4.05923458 -24.30445368 4.05923458 -23.53264999 3.28544331 C-23.05652393 2.80839545 -22.58039787 2.3313476 -22.08984375 1.83984375 C-21.59672825 1.31049571 -21.10361275 0.78114767 -20.59555435 0.23575878 C-14.93938316 -5.00796758 -6.1838995 -3.43293113 0 0 Z " fill="#F1AE1D" transform="translate(224.08984375,24.16015625)"/>
<path d="M0 0 C2.50473421 2.5664489 5.02560145 5.11701281 7.54330826 7.67072487 C10.72659513 10.90186223 13.9050853 14.13736571 17.0682106 17.38825417 C19.64370494 20.0343593 22.2339191 22.66525374 24.83426666 25.28693008 C25.81484427 26.28100284 26.79001767 27.28043948 27.75933838 28.28549194 C35.58433565 36.39514191 35.58433565 36.39514191 46.01596451 39.93830299 C58.7221054 39.43871102 67.20351507 26.80930124 75.30112076 18.26252174 C76.10936295 17.43365456 76.91760513 16.60478737 77.75033951 15.75080299 C78.47447037 14.99412331 79.19860123 14.23744362 79.94467545 13.45783424 C82.01596451 11.93830299 82.01596451 11.93830299 84.14194107 12.07892799 C86.69010707 13.24744601 88.21322073 14.81364068 90.01596451 16.93830299 C90.01596451 17.59830299 90.01596451 18.25830299 90.01596451 18.93830299 C90.60981949 19.204011 91.20367447 19.46971901 91.81552505 19.74347878 C94.07378942 20.96970154 95.46481529 22.19753389 97.22299576 24.05549049 C97.81016373 24.66263893 98.3973317 25.26978737 99.00229263 25.89533424 C100.21026865 27.16403205 101.41603719 28.43483571 102.61948013 29.70783424 C108.23616147 35.50214236 113.60519112 39.63791823 122.01596451 39.93830299 C127.43983874 38.80963552 130.47630937 37.13460444 134.45346451 33.31330299 C134.94427505 32.84690407 135.4350856 32.38050514 135.9407692 31.89997292 C137.64967849 30.26283781 139.33446897 28.60358267 141.01596451 26.93830299 C141.71157486 26.25107155 142.40718521 25.5638401 143.12387466 24.85578346 C147.78147966 20.2431696 152.40949492 15.60195756 157.01596451 10.93830299 C161.18387299 14.35972041 165.0408601 17.91885563 168.79330826 21.79377174 C169.63699966 22.6632444 170.48069107 23.53271706 171.34994888 24.42853737 C173.08961424 26.23084633 174.82138166 28.04081136 176.54526138 29.85822487 C181.43235193 34.86460367 185.12264913 38.33911224 192.01596451 39.93830299 C198.87353742 40.01701258 203.86168308 37.19618765 209.01596451 32.93830299 C210.01596451 33.93830299 210.01596451 33.93830299 210.11362076 36.66095924 C210.08106867 39.75340716 210.04851659 42.84585508 210.01596451 45.93830299 C214.96596451 45.93830299 219.91596451 45.93830299 225.01596451 45.93830299 C225.01596451 50.88830299 225.01596451 55.83830299 225.01596451 60.93830299 C229.96596451 60.93830299 234.91596451 60.93830299 240.01596451 60.93830299 C240.01596451 55.98830299 240.01596451 51.03830299 240.01596451 45.93830299 C244.96596451 45.93830299 249.91596451 45.93830299 255.01596451 45.93830299 C255.01596451 50.88830299 255.01596451 55.83830299 255.01596451 60.93830299 C259.96596451 60.93830299 264.91596451 60.93830299 270.01596451 60.93830299 C270.01596451 55.98830299 270.01596451 51.03830299 270.01596451 45.93830299 C274.96596451 45.93830299 279.91596451 45.93830299 285.01596451 45.93830299 C285.01596451 52.86830299 285.01596451 59.79830299 285.01596451 66.93830299 C177.10596451 66.93830299 69.19596451 66.93830299 -41.98403549 66.93830299 C-41.98403549 55.05830299 -41.98403549 43.17830299 -41.98403549 30.93830299 C-38.02403549 30.93830299 -34.06403549 30.93830299 -29.98403549 30.93830299 C-29.98403549 35.88830299 -29.98403549 40.83830299 -29.98403549 45.93830299 C-25.03403549 45.93830299 -20.08403549 45.93830299 -14.98403549 45.93830299 C-14.98403549 50.88830299 -14.98403549 55.83830299 -14.98403549 60.93830299 C-10.03403549 60.93830299 -5.08403549 60.93830299 0.01596451 60.93830299 C0.01596451 55.98830299 0.01596451 51.03830299 0.01596451 45.93830299 C4.96596451 45.93830299 9.91596451 45.93830299 15.01596451 45.93830299 C15.01596451 40.98830299 15.01596451 36.03830299 15.01596451 30.93830299 C10.06596451 30.93830299 5.11596451 30.93830299 0.01596451 30.93830299 C0.01596451 25.98830299 0.01596451 21.03830299 0.01596451 15.93830299 C-4.93403549 15.93830299 -9.88403549 15.93830299 -14.98403549 15.93830299 C-14.98403549 10.98830299 -14.98403549 6.03830299 -14.98403549 0.93830299 C-19.93403549 0.93830299 -24.88403549 0.93830299 -29.98403549 0.93830299 C-29.98403549 -4.01169701 -29.98403549 -8.96169701 -29.98403549 -14.06169701 C-14.4199655 -16.13690634 -10.42921482 -10.70363216 0 0 Z " fill="#ECEDED" transform="translate(41.98403549194336,140.0616970062256)"/>
<path d="M0 0 C4.75597513 5.15694727 7.4187574 9.63519678 7.26715088 16.84375 C6.23502056 25.17436458 -0.24857943 30.77990776 -5.921875 36.3125 C-6.78186096 37.16682617 -7.64184692 38.02115234 -8.52789307 38.90136719 C-11.25929933 41.6104993 -14.00432381 44.305339 -16.75 47 C-18.6115959 48.84151955 -20.4722832 50.68395808 -22.33203125 52.52734375 C-26.87755681 57.02892071 -31.43432585 61.51886472 -36 66 C-34.39464713 69.41059403 -32.59481099 71.61792484 -29.875 74.25 C-28.78832031 75.30960938 -28.78832031 75.30960938 -27.6796875 76.390625 C-27.12539062 76.92171875 -26.57109375 77.4528125 -26 78 C-22.75232535 76.5773645 -20.62712123 74.85806662 -18.15283203 72.33227539 C-17.41171173 71.58132095 -16.67059143 70.83036652 -15.90701294 70.05665588 C-15.11527679 69.245186 -14.32354065 68.43371613 -13.5078125 67.59765625 C-11.8165274 65.885948 -10.12511726 64.17436328 -8.43359375 62.46289062 C-5.77590072 59.76171344 -3.12071569 57.05812868 -0.46826172 54.35180664 C2.09541661 51.73978847 4.66828026 49.13708955 7.2421875 46.53515625 C8.02987518 45.7257106 8.81756287 44.91626495 9.62911987 44.08229065 C14.01667974 39.655506 17.92595345 35.77700888 24.2734375 34.56640625 C29.96800902 34.55582154 34.34431935 35.61883826 39 39 C42.53145777 42.89365857 43.54224267 46.4022195 44.21484375 51.4609375 C43.63008204 58.37175772 40.48713628 63.25843532 35.66162109 68.0012207 C35.1294397 68.54376999 34.5972583 69.08631927 34.0489502 69.64530945 C32.3028665 71.41828642 30.53924297 73.17246172 28.7734375 74.92578125 C27.54309453 76.16204028 26.31341982 77.3989647 25.0843811 78.63652039 C22.51188327 81.22086783 19.93036357 83.79576097 17.34228516 86.36450195 C14.0384127 89.64549581 10.76001451 92.95067276 7.48822594 96.26362324 C4.95601094 98.82150119 2.40977307 101.36505084 -0.140728 103.90468407 C-1.35482406 105.11730052 -2.56439227 106.33446906 -3.76915359 107.55636024 C-16.32360471 120.26018799 -16.32360471 120.26018799 -24 121 C-36.72083997 120.45384194 -45.27825587 107.80843722 -53.578125 99.3828125 C-57.93332294 94.98753605 -62.33909633 90.76219912 -67.03466797 86.73388672 C-70.69794916 83.50200808 -74.11879726 80.02490158 -77.5625 76.5625 C-78.27857422 75.85029297 -78.99464844 75.13808594 -79.73242188 74.40429688 C-86.21882372 67.90609084 -92.12290816 61.05251021 -98 54 C-90.41 46.41 -82.82 38.82 -75 31 C-71.15718264 32.92140868 -69.19568073 34.5926816 -66.25 37.625 C-65.45078125 38.44226563 -64.6515625 39.25953125 -63.828125 40.1015625 C-63.22484375 40.72804687 -62.6215625 41.35453125 -62 42 C-56.61372257 37.51341913 -51.6464285 32.75150671 -46.73046875 27.7578125 C-45.16744753 26.18216287 -43.60429268 24.6066458 -42.04101562 23.03125 C-39.59876566 20.56404129 -37.15815154 18.09525373 -34.7199707 15.62402344 C-32.35277876 13.22680719 -29.97955286 10.83570037 -27.60546875 8.4453125 C-26.87216843 7.69855255 -26.1388681 6.9517926 -25.38334656 6.18240356 C-24.70536514 5.5010434 -24.02738373 4.81968323 -23.32885742 4.11767578 C-22.73264084 3.51400177 -22.13642426 2.91032776 -21.5221405 2.2883606 C-20 1 -20 1 -18 1 C-18 0.34 -18 -0.32 -18 -1 C-12.23191966 -2.92269345 -5.38241959 -2.80821892 0 0 Z " fill="#E6624F" transform="translate(261,60)"/>
<path d="M0 0 C4.95 0 9.9 0 15 0 C15 4.95 15 9.9 15 15 C19.95 15 24.9 15 30 15 C29.86464844 17.15660156 29.72929687 19.31320313 29.58984375 21.53515625 C29.74622408 29.79124129 33.70460058 34.1350035 39.38607788 39.72036743 C41.42252301 41.65164708 43.49049431 43.54449398 45.5625 45.4375 C46.95827028 46.76292255 48.350883 48.0916786 49.74023438 49.42382812 C53.12495164 52.65549319 56.5492699 55.83897969 60 59 C58.6238464 62.09179136 57.04841555 64.19638753 54.65185547 66.57519531 C53.97130096 67.25559875 53.29074646 67.9360022 52.58956909 68.63702393 C51.4894902 69.72161896 51.4894902 69.72161896 50.3671875 70.828125 C49.61535187 71.57713074 48.86351624 72.32613647 48.08889771 73.09783936 C45.68892099 75.4866302 43.28207991 77.86836897 40.875 80.25 C39.24563648 81.86933169 37.61672466 83.48911802 35.98828125 85.109375 C31.99741194 89.07820505 28.00088585 93.04126899 24 97 C18.79371155 92.64466634 13.92402577 88.07104713 9.1328125 83.265625 C8.41261932 82.54638855 7.69242615 81.8271521 6.95040894 81.08612061 C5.44162236 79.57801017 3.93408033 78.06865368 2.42773438 76.55810547 C0.11441657 74.23939189 -2.20424155 71.92611386 -4.5234375 69.61328125 C-5.99250859 68.14355004 -7.46126982 66.67350904 -8.9296875 65.203125 C-9.62440155 64.51043518 -10.3191156 63.81774536 -11.03488159 63.10406494 C-11.99190475 62.14231354 -11.99190475 62.14231354 -12.96826172 61.16113281 C-13.53116913 60.59742981 -14.09407654 60.03372681 -14.67404175 59.45294189 C-16 58 -16 58 -17 56 C-17.99 55.67 -18.98 55.34 -20 55 C-20 54.34 -20 53.68 -20 53 C-29.11331375 52.56354878 -29.11331375 52.56354878 -38 54 C-39.27489266 55.79927039 -39.27489266 55.79927039 -40 58 C-40.7734375 59.0209375 -40.7734375 59.0209375 -41.5625 60.0625 C-43.91281215 63.23031203 -44.09926904 65.81555066 -44 69.625 C-43.96225644 71.08284483 -43.95354285 72.54240683 -44 74 C-45 75 -45 75 -48.37890625 75.09765625 C-49.77347492 75.09191424 -51.16801597 75.07890228 -52.5625 75.0625 C-55.016875 75.041875 -57.47125 75.02125 -60 75 C-60 70.05 -60 65.1 -60 60 C-55.05 60 -50.1 60 -45 60 C-45 55.05 -45 50.1 -45 45 C-40.05 45 -35.1 45 -30 45 C-30 40.05 -30 35.1 -30 30 C-25.05 30 -20.1 30 -15 30 C-15 25.05 -15 20.1 -15 15 C-10.05 15 -5.1 15 0 15 C0 10.05 0 5.1 0 0 Z " fill="#E7E4E2" transform="translate(102,6)"/>
<path d="M0 0 C3.98668372 3.02583394 6.37538661 6.42951417 7.58563232 11.30947876 C8.29444204 16.83618154 6.40657554 21.85134415 3.09509277 26.25177002 C0.77514442 28.76551331 -1.63082552 31.14233207 -4.10546875 33.50390625 C-5.43925568 34.81927872 -5.43925568 34.81927872 -6.79998779 36.16122437 C-9.15245811 38.47583973 -11.5189061 40.77472428 -13.89385986 43.06622314 C-17.22598163 46.28920108 -20.52884598 49.54219803 -23.83685303 52.78988647 C-25.59376053 54.51134833 -27.35542234 56.22797628 -29.12261963 57.93887329 C-33.48799995 62.18217655 -37.6487002 66.50017583 -41.6100769 71.12335205 C-43.39772045 73.19697285 -45.27705312 75.1563735 -47.2109375 77.09375 C-47.91927734 77.80337891 -48.62761719 78.51300781 -49.35742188 79.24414062 C-50.4315332 80.31245117 -50.4315332 80.31245117 -51.52734375 81.40234375 C-52.23955078 82.11841797 -52.95175781 82.83449219 -53.68554688 83.57226562 C-57.7690512 87.64835214 -61.9436859 91.5412863 -66.34790039 95.26953125 C-68.90641997 97.57596403 -70.97295125 100.12757523 -73.08984375 102.83984375 C-78.89876121 98.02117128 -84.22049927 92.82727967 -89.52734375 87.46484375 C-90.35427734 86.63339844 -91.18121094 85.80195312 -92.03320312 84.9453125 C-94.05439906 82.91243335 -96.0732071 80.87724412 -98.08984375 78.83984375 C-93.93562048 73.88538508 -89.61400171 69.2242472 -85.03051758 64.66699219 C-84.35171036 63.98803894 -83.67290314 63.30908569 -82.973526 62.60955811 C-80.75034022 60.38706363 -78.52364275 58.16812385 -76.296875 55.94921875 C-74.74300096 54.39721228 -73.18934941 52.84498303 -71.63591003 51.2925415 C-67.56061183 47.22104686 -63.4823202 43.1525637 -59.40338135 39.0847168 C-55.24822719 34.93980425 -51.09591089 30.79205094 -46.94335938 26.64453125 C-40.24371421 19.95366807 -33.54229681 13.26458598 -26.83874512 6.57763672 C-26.2543013 5.99463806 -25.66985748 5.4116394 -25.06770325 4.81097412 C-24.30923458 4.05445368 -24.30923458 4.05445368 -23.53544331 3.28264999 C-22.53652512 2.285662 -21.5573995 1.26858785 -20.59513378 0.23617935 C-14.94066045 -5.00901743 -6.18302888 -3.43244781 0 0 Z " fill="#18AC94" transform="translate(224.08984375,24.16015625)"/>
<path d="M0 0 C0.845625 0.00644531 1.69125 0.01289062 2.5625 0.01953125 C4.83252477 0.17595924 6.81961604 0.55660186 9 1.1875 C9 1.8475 9 2.5075 9 3.1875 C9.57105469 3.44273438 10.14210938 3.69796875 10.73046875 3.9609375 C17.33890644 7.53245116 22.46697825 13.58255738 27.25390625 19.25390625 C29.05437309 21.24771181 30.95054648 22.95274184 33 24.6875 C36.44172825 27.60534284 39.34401568 30.75002541 42.2578125 34.1875 C45.0109226 37.34802101 47.99681426 40.26646828 51 43.1875 C54.68069887 41.65106148 56.98775204 39.40599055 59.75 36.5625 C60.54921875 35.74523437 61.3484375 34.92796875 62.171875 34.0859375 C62.77515625 33.45945313 63.3784375 32.83296875 64 32.1875 C69.80891746 37.00617247 75.13065552 42.20006408 80.4375 47.5625 C81.67790039 48.80966797 81.67790039 48.80966797 82.94335938 50.08203125 C84.96455531 52.1149104 86.98336335 54.15009963 89 56.1875 C88.27852783 56.90534668 87.55705566 57.62319336 86.8137207 58.36279297 C84.17545483 61.0113601 81.57451552 63.69102191 78.98046875 66.3828125 C77.54322962 67.85692078 76.10357984 69.32862788 74.6628418 70.79931641 C73.68009837 71.80726672 72.70188085 72.81964986 71.72827148 73.83642578 C60.10729679 85.95670099 60.10729679 85.95670099 51.3125 86.2890625 C46.95549073 85.39116532 43.72871453 84.31691744 40.41333008 81.29248047 C39.72357086 80.66355896 39.03381165 80.03463745 38.32315063 79.38665771 C30.15342716 71.65297479 22.18071425 63.71814119 14.19897461 55.79150391 C11.85705509 53.46745665 9.50689418 51.1522483 7.14916992 48.84423828 C4.28006208 46.03550952 1.42613376 43.21215827 -1.41777611 40.37792587 C-2.49586075 39.30835218 -3.57903778 38.24388408 -4.66753578 37.18490982 C-16.10882017 26.03780625 -16.10882017 26.03780625 -17 18.1875 C-16.671874 12.06922507 -14.71567968 8.11873692 -10.6328125 3.59765625 C-7.21714423 0.64776092 -4.47935492 -0.07511113 0 0 Z " fill="#18AB93" transform="translate(37,94.8125)"/>
<path d="M0 0 C2.55912935 1.15486697 4.07393197 2.72060927 5.87890625 4.84790039 C5.87890625 5.50790039 5.87890625 6.16790039 5.87890625 6.84790039 C6.47276123 7.1136084 7.06661621 7.37931641 7.6784668 7.65307617 C9.93673116 8.87929894 11.32775703 10.10713129 13.0859375 11.96508789 C13.67310547 12.57223633 14.26027344 13.17938477 14.86523438 13.80493164 C16.07321039 15.07362945 17.27897893 16.34443311 18.48242188 17.61743164 C24.09910321 23.41173976 29.46813287 27.54751563 37.87890625 27.84790039 C43.48392435 26.72820635 46.88410042 24.60684456 50.87890625 20.66040039 C51.39437012 20.17079834 51.90983398 19.68119629 52.44091797 19.17675781 C55.90481216 15.86892919 59.29098269 12.47984904 62.57421875 8.99243164 C63.87890625 7.84790039 63.87890625 7.84790039 65.87890625 7.84790039 C65.87890625 11.47790039 65.87890625 15.10790039 65.87890625 18.84790039 C70.82890625 18.84790039 75.77890625 18.84790039 80.87890625 18.84790039 C80.87890625 23.79790039 80.87890625 28.74790039 80.87890625 33.84790039 C75.92890625 33.84790039 70.97890625 33.84790039 65.87890625 33.84790039 C65.87890625 38.79790039 65.87890625 43.74790039 65.87890625 48.84790039 C60.92890625 48.84790039 55.97890625 48.84790039 50.87890625 48.84790039 C50.87890625 43.89790039 50.87890625 38.94790039 50.87890625 33.84790039 C45.92890625 33.84790039 40.97890625 33.84790039 35.87890625 33.84790039 C35.87890625 38.79790039 35.87890625 43.74790039 35.87890625 48.84790039 C30.92890625 48.84790039 25.97890625 48.84790039 20.87890625 48.84790039 C20.87890625 43.89790039 20.87890625 38.94790039 20.87890625 33.84790039 C15.92890625 33.84790039 10.97890625 33.84790039 5.87890625 33.84790039 C5.87890625 38.79790039 5.87890625 43.74790039 5.87890625 48.84790039 C0.92890625 48.84790039 -4.02109375 48.84790039 -9.12109375 48.84790039 C-9.12109375 43.89790039 -9.12109375 38.94790039 -9.12109375 33.84790039 C-14.07109375 33.84790039 -19.02109375 33.84790039 -24.12109375 33.84790039 C-24.5690124 25.56140531 -23.6895564 21.82872666 -18.16894531 15.67016602 C-15.85846042 13.20928258 -13.49935876 10.80576155 -11.12109375 8.41040039 C-10.31414062 7.57057617 -9.5071875 6.73075195 -8.67578125 5.86547852 C-7.89460938 5.0772168 -7.1134375 4.28895508 -6.30859375 3.47680664 C-5.60089844 2.75565674 -4.89320312 2.03450684 -4.1640625 1.29150391 C-2.12109375 -0.15209961 -2.12109375 -0.15209961 0 0 Z " fill="#F2F1F1" transform="translate(126.12109375,152.152099609375)"/>
<path d="M0 0 C4.75564749 5.15659201 7.42069927 9.6360092 7.26629639 16.84460449 C6.22495105 25.27322451 -0.40665075 30.93584285 -6.140625 36.53125 C-7.02280701 37.40777222 -7.90498901 38.28429443 -8.81390381 39.18737793 C-11.14122395 41.49619742 -13.4769203 43.7960663 -15.81713867 46.09179688 C-18.2109512 48.44441413 -20.59323404 50.80864576 -22.9765625 53.171875 C-27.64057849 57.79193474 -32.31584221 62.4003675 -37 67 C-40.93088136 63.68400925 -44.77715018 60.34860835 -48.40234375 56.6953125 C-49.51899414 55.57382813 -49.51899414 55.57382813 -50.65820312 54.4296875 C-51.41037109 53.66914062 -52.16253906 52.90859375 -52.9375 52.125 C-53.71673828 51.34125 -54.49597656 50.5575 -55.29882812 49.75 C-57.20154085 47.83561419 -59.10186171 45.91891966 -61 44 C-59.55662966 40.69805109 -57.76269557 38.50982507 -55.22460938 35.96582031 C-54.45040649 35.18531311 -53.67620361 34.40480591 -52.87854004 33.60064697 C-52.04205933 32.76821472 -51.20557861 31.93578247 -50.34375 31.078125 C-49.48567749 30.21813904 -48.62760498 29.35815308 -47.74353027 28.47210693 C-45.93027533 26.65749174 -44.11449519 24.84539684 -42.29638672 23.03564453 C-39.50385862 20.25384379 -36.72217542 17.46151855 -33.94140625 14.66796875 C-32.18032867 12.90821228 -30.41863106 11.14907605 -28.65625 9.390625 C-27.40152893 8.12983124 -27.40152893 8.12983124 -26.12145996 6.84356689 C-25.34725708 6.07566833 -24.5730542 5.30776978 -23.77539062 4.51660156 C-23.09303345 3.83583557 -22.41067627 3.15506958 -21.7076416 2.45367432 C-20 1 -20 1 -18 1 C-18 0.34 -18 -0.32 -18 -1 C-12.23191966 -2.92269345 -5.38241959 -2.80821892 0 0 Z " fill="#F1AE1D" transform="translate(261,60)"/>
<path d="M0 0 C9.97561511 7.22089585 18.465527 17.35369853 27.125 26.0625 C28.66903625 27.61156199 30.21330526 29.160392 31.7578125 30.70898438 C35.50789568 34.46998643 39.25509688 38.23384039 43 42 C41.26239853 45.71713736 39.14323122 48.08741012 36.2109375 50.984375 C35.74765045 51.44483215 35.2843634 51.90528931 34.80703735 52.37969971 C33.33434102 53.84125078 31.85482597 55.29567168 30.375 56.75 C29.37193678 57.74302611 28.36932743 58.73651089 27.3671875 59.73046875 C24.91669165 62.15897941 22.4600333 64.58114675 20 67 C14.58311962 62.47205272 9.51699228 57.69156656 4.51171875 52.71484375 C3.72730911 51.93613419 2.94289948 51.15742462 2.13471985 50.3551178 C0.48873525 48.71852658 -1.1558412 47.08051801 -2.79907227 45.44116211 C-5.31535448 42.93465661 -7.84210271 40.43901465 -10.36914062 37.94335938 C-11.97201099 36.34701341 -13.57424695 34.75003012 -15.17578125 33.15234375 C-15.93095535 32.40951645 -16.68612946 31.66668915 -17.46418762 30.90135193 C-18.16218979 30.20034866 -18.86019196 29.4993454 -19.5793457 28.77709961 C-20.19332718 28.16676376 -20.80730865 27.55642792 -21.43989563 26.92759705 C-25.01908389 22.50530784 -25.44771022 17.99919225 -25.30859375 12.5 C-24.79725842 8.35753655 -23.5892128 6.31950359 -21 3 C-14.12800307 -2.22973317 -7.97061905 -2.87500215 0 0 Z " fill="#E7624E" transform="translate(119,23)"/>
<path d="M0 0 C0.495 0.99 0.495 0.99 1 2 C5.62 2 10.24 2 15 2 C15.495 9.425 15.495 9.425 16 17 C14.55258423 17.71397949 14.55258423 17.71397949 13.07592773 18.44238281 C7.87707054 21.42405276 3.95457421 25.67343287 -0.21484375 29.921875 C-1.49845543 31.21185394 -1.49845543 31.21185394 -2.80799866 32.52789307 C-5.52498849 35.2616026 -8.23132861 38.00558478 -10.9375 40.75 C-12.78381076 42.61136617 -14.63080869 44.472051 -16.47851562 46.33203125 C-20.99366472 50.88016067 -25.50012806 55.43675768 -30 60 C-33.63303084 58.30413874 -35.94549046 56.26199512 -38.75 53.375 C-39.54921875 52.55773437 -40.3484375 51.74046875 -41.171875 50.8984375 C-41.77515625 50.27195313 -42.3784375 49.64546875 -43 49 C-41.59443664 45.8051115 -39.9334317 43.70562843 -37.43994141 41.27636719 C-36.34838242 40.20440094 -36.34838242 40.20440094 -35.23477173 39.11077881 C-34.44831268 38.34719055 -33.66185364 37.58360229 -32.8515625 36.796875 C-31.18982558 35.1604391 -29.52837628 33.52371109 -27.8671875 31.88671875 C-25.24867504 29.31775102 -22.62711717 26.75206322 -20 24.19189453 C-17.4624154 21.71497884 -14.93762699 19.22556239 -12.4140625 16.734375 C-11.24044662 15.601138 -11.24044662 15.601138 -10.04312134 14.44500732 C-5.48799882 9.93182055 -2.52183922 5.90907274 0 0 Z " fill="#E6E5E4" transform="translate(267,79)"/>
<path d="M0 0 C3.09375 0.061875 3.09375 0.061875 6.25 0.125 C6.25 5.075 6.25 10.025 6.25 15.125 C11.2 15.125 16.15 15.125 21.25 15.125 C21.25 20.075 21.25 25.025 21.25 30.125 C16.3 30.125 11.35 30.125 6.25 30.125 C6.25 35.075 6.25 40.025 6.25 45.125 C1.3 45.125 -3.65 45.125 -8.75 45.125 C-8.75 40.175 -8.75 35.225 -8.75 30.125 C-13.7 30.125 -18.65 30.125 -23.75 30.125 C-26.32960438 18.63403504 -26.32960438 18.63403504 -23.48779297 14.12011719 C-16.99802607 6.35547164 -10.48911549 -0.20978231 0 0 Z " fill="#FEFEFE" transform="translate(275.75,155.875)"/>
<path d="M0 0 C4.16790849 3.42141741 8.02489559 6.98055263 11.77734375 10.85546875 C12.62103516 11.72494141 13.46472656 12.59441406 14.33398438 13.49023438 C16.07364973 15.29254334 17.80541716 17.10250837 19.52929688 18.91992188 C24.41638743 23.92630068 28.10668462 27.40080925 35 29 C41.85757292 29.07870959 46.84571857 26.25788466 52 22 C53 23 53 23 53.09765625 25.72265625 C53.06510417 28.81510417 53.03255208 31.90755208 53 35 C48.05 35 43.1 35 38 35 C38 39.95 38 44.9 38 50 C33.05 50 28.1 50 23 50 C23 45.05 23 40.1 23 35 C18.05 35 13.1 35 8 35 C8 30.05 8 25.1 8 20 C3.05 20 -1.9 20 -7 20 C-8.92811839 9.39534884 -8.92811839 9.39534884 -6.28515625 5.421875 C-4.27514225 3.45778399 -2.2537202 1.67672838 0 0 Z " fill="#E7E5E3" transform="translate(199,151)"/>
<path d="M0 0 C4.95 0 9.9 0 15 0 C17.66655134 12.09756941 17.66655134 12.09756941 14.82403564 17.04803467 C10.80624058 22.22472714 5.90463938 26.55195288 1.0625 30.9375 C-0.39099177 32.31062927 -1.84090494 33.68755706 -3.28710938 35.06835938 C-6.81824817 38.42421077 -10.39411653 41.72466909 -14 45 C-15.11663572 44.04871758 -16.23244182 43.09646128 -17.34790039 42.14379883 C-17.9693544 41.61361649 -18.59080841 41.08343414 -19.23109436 40.53718567 C-21.38403666 38.6662707 -23.42478494 36.70806191 -25.4375 34.6875 C-26.11683594 34.01074219 -26.79617187 33.33398438 -27.49609375 32.63671875 C-29 31 -29 31 -29 30 C-24.38 30 -19.76 30 -15 30 C-15 25.05 -15 20.1 -15 15 C-10.05 15 -5.1 15 0 15 C0 10.05 0 5.1 0 0 Z " fill="#E6E6E6" transform="translate(177,21)"/>
<path d="M0 0 C1.98 0 3.96 0 6 0 C6 4.95 6 9.9 6 15 C10.95 15 15.9 15 21 15 C21 17.31 21 19.62 21 22 C18.03 22.33 15.06 22.66 12 23 C12 23.66 12 24.32 12 25 C10.671875 26.3046875 10.671875 26.3046875 8.75 27.875 C4.22345307 31.70265458 0.08940581 35.85166877 -4.04980469 40.08740234 C-5.3495155 41.4085647 -6.67263945 42.70661988 -8 44 C-8.33 44 -8.66 44 -9 44 C-9 39.38 -9 34.76 -9 30 C-11.3821875 30.2475 -11.3821875 30.2475 -13.8125 30.5 C-16.57507433 30.78702071 -19.22003893 31 -22 31 C-21.44014404 30.47680176 -20.88028809 29.95360352 -20.3034668 29.41455078 C-17.74603092 27.00377694 -15.2170237 24.56503152 -12.6875 22.125 C-11.80642578 21.30257812 -10.92535156 20.48015625 -10.01757812 19.6328125 C-4.4610307 14.22415797 -1.20800339 9.75625995 0 2 C0 1.34 0 0.68 0 0 Z " fill="#FEFEFE" transform="translate(231,36)"/>
<path d="M0 0 C4.95 0 9.9 0 15 0 C15 4.95 15 9.9 15 15 C19.95 15 24.9 15 30 15 C30 19.95 30 24.9 30 30 C17.01671512 31.85475498 17.01671512 31.85475498 10.6640625 27.1875 C5.41980279 22.67927674 0.03408433 17.80520731 -0.9375 10.6640625 C-1.16669134 6.92537881 -0.54997603 3.84983221 0 0 Z " fill="#FEFEFE" transform="translate(132,21)"/>
<path d="M0 0 C4.95 0 9.9 0 15 0 C15 4.95 15 9.9 15 15 C19.95 15 24.9 15 30 15 C30 19.62 30 24.24 30 29 C29.01 28.13375 28.02 27.2675 27 26.375 C25.66885557 25.24741085 24.33539959 24.12254653 23 23 C22.02740234 22.15888672 22.02740234 22.15888672 21.03515625 21.30078125 C16.59177361 17.66688614 12.8709478 15.46627747 7 16 C4.20444403 16.75786167 1.63843027 17.81826405 -1 19 C-1.99 19.33 -2.98 19.66 -4 20 C-6.09225501 24.0614362 -6.95094058 28.57896386 -8 33 C-8.495 31.515 -8.495 31.515 -9 30 C-10.98 30 -12.96 30 -15 30 C-15 25.05 -15 20.1 -15 15 C-10.05 15 -5.1 15 0 15 C0 10.05 0 5.1 0 0 Z " fill="#E7E5E4" transform="translate(102,6)"/>
<path d="M0 0 C4.95 0 9.9 0 15 0 C15 4.95 15 9.9 15 15 C19.95 15 24.9 15 30 15 C30 19.95 30 24.9 30 30 C28.02 30 26.04 30 24 30 C23.65388672 29.20335937 23.65388672 29.20335937 23.30078125 28.390625 C21.20027031 23.8409017 19.49715227 20.54186867 15 18 C9.10633735 16.16574785 4.02129656 15.69102249 -2 17 C-2.33 17.99 -2.66 18.98 -3 20 C-4.70703125 21.75390625 -4.70703125 21.75390625 -6.8125 23.5625 C-7.49957031 24.16191406 -8.18664062 24.76132812 -8.89453125 25.37890625 C-11 27 -11 27 -15 29 C-15 24.38 -15 19.76 -15 15 C-10.05 15 -5.1 15 0 15 C0 10.05 0 5.1 0 0 Z " fill="#F8FCFB" transform="translate(207,6)"/>
<path d="M0 0 C4.95 0 9.9 0 15 0 C15 1.98 15 3.96 15 6 C13 8 13 8 10 8.375 C9.01 8.58125 8.02 8.7875 7 9 C5.72510734 10.79927039 5.72510734 10.79927039 5 13 C4.2265625 14.0209375 4.2265625 14.0209375 3.4375 15.0625 C1.08718785 18.23031203 0.90073096 20.81555066 1 24.625 C1.03774356 26.08284483 1.04645715 27.54240683 1 29 C0 30 0 30 -3.37890625 30.09765625 C-4.77347492 30.09191424 -6.16801597 30.07890228 -7.5625 30.0625 C-10.016875 30.041875 -12.47125 30.02125 -15 30 C-15 25.05 -15 20.1 -15 15 C-10.05 15 -5.1 15 0 15 C0 10.05 0 5.1 0 0 Z " fill="#E6E5E4" transform="translate(57,51)"/>
<path d="M0 0 C4.95 0 9.9 0 15 0 C15.09765625 10.05859375 15.09765625 10.05859375 15 13 C13.47364408 14.52635592 11.93440638 14.18810013 9.8125 14.3125 C5.24970972 14.7905066 2.5417882 15.95241481 -1 19 C-3.38997483 22.1866331 -5.27625323 25.41991056 -7 29 C-7.33 29.33 -7.66 29.66 -8 30 C-10.31 30 -12.62 30 -15 30 C-15 25.05 -15 20.1 -15 15 C-10.05 15 -5.1 15 0 15 C0 10.05 0 5.1 0 0 Z " fill="#E2E6E5" transform="translate(27,81)"/>
<path d="M0 0 C4.95 0 9.9 0 15 0 C15 4.95 15 9.9 15 15 C19.95 15 24.9 15 30 15 C30 19.95 30 24.9 30 30 C28.02 30 26.04 30 24 30 C24 31.65 24 33.3 24 35 C23.67 35 23.34 35 23 35 C22.89042969 34.25234375 22.78085937 33.5046875 22.66796875 32.734375 C22.50941406 31.74953125 22.35085938 30.7646875 22.1875 29.75 C22.03667969 28.77546875 21.88585937 27.8009375 21.73046875 26.796875 C20.96331725 23.85954628 19.88241663 22.33110223 18 20 C18 19.34 18 18.68 18 18 C14.08709763 16.24619442 10.4257665 15.47435082 6.1875 14.875 C4.145625 14.58625 2.10375 14.2975 0 14 C0 9.38 0 4.76 0 0 Z " fill="#FDFCFB" transform="translate(282,81)"/>
<path d="M0 0 C4.95 0 9.9 0 15 0 C15 4.95 15 9.9 15 15 C19.95 15 24.9 15 30 15 C30 19.95 30 24.9 30 30 C25.38 30 20.76 30 16 30 C15.773125 27.97875 15.54625 25.9575 15.3125 23.875 C14.42752913 17.93858958 13.24362846 15.13195403 9 11 C9 10.34 9 9.68 9 9 C4.545 8.01 4.545 8.01 0 7 C0 4.69 0 2.38 0 0 Z " fill="#FEFCFB" transform="translate(252,51)"/>
<path d="M0 0 C4.88049925 3.9419417 9.0580583 8.11950075 13 13 C11.2790132 14.99170383 9.55061848 16.97585874 7.80859375 18.94921875 C6.46293768 20.47507067 5.13339624 22.0151644 3.8125 23.5625 C2 25 2 25 0.12109375 24.8046875 C-2.46627113 23.82310893 -3.82581636 22.54013318 -5.75 20.5625 C-6.36359375 19.94503906 -6.9771875 19.32757813 -7.609375 18.69140625 C-9 17 -9 17 -9 15 C-9.66 15 -10.32 15 -11 15 C-10.582687 10.07215495 -8.45014073 8.0222855 -4.9375 4.6875 C-4.01839844 3.80449219 -3.09929687 2.92148438 -2.15234375 2.01171875 C-1.44207031 1.34785156 -0.73179687 0.68398437 0 0 Z " fill="#FDF8F3" transform="translate(162,114)"/>
<path d="M0 0 C0.67160156 0.73734375 1.34320313 1.4746875 2.03515625 2.234375 C3.13547765 3.33848704 4.24150714 4.43692479 5.3515625 5.53125 C8.60518158 8.74077015 11.82531419 11.98109147 15.03515625 15.234375 C12.03515625 15.234375 12.03515625 15.234375 9.1171875 12.609375 C8.01964869 11.49188094 6.9300773 10.36651857 5.84765625 9.234375 C5.28884766 8.66203125 4.73003906 8.0896875 4.15429688 7.5 C2.77442532 6.08474712 1.40388891 4.66040345 0.03515625 3.234375 C-0.29484375 6.204375 -0.62484375 9.174375 -0.96484375 12.234375 C-2.03025391 12.30785156 -2.03025391 12.30785156 -3.1171875 12.3828125 C-4.03628906 12.45757812 -4.95539063 12.53234375 -5.90234375 12.609375 C-7.27712891 12.71378906 -7.27712891 12.71378906 -8.6796875 12.8203125 C-9.43378906 12.95695312 -10.18789062 13.09359375 -10.96484375 13.234375 C-11.29484375 13.894375 -11.62484375 14.554375 -11.96484375 15.234375 C-14.47445709 13.5817028 -15.58495719 12.8396832 -16.96484375 10.234375 C-17.11409929 5.83133654 -16.60837264 1.5861595 -15.96484375 -2.765625 C-4.82694307 -4.98112061 -4.82694307 -4.98112061 0 0 Z " fill="#E8E3DF" transform="translate(102.96484375,53.765625)"/>
<path d="M0 0 C0.97504245 3.90016981 0.94810969 6.30821204 0.5625 10.25 C0.46066406 11.32765625 0.35882813 12.4053125 0.25390625 13.515625 C0.17011719 14.33546875 0.08632813 15.1553125 0 16 C-1.72722728 16.22384382 -3.45696007 16.42839969 -5.1875 16.625 C-6.63189453 16.79902344 -6.63189453 16.79902344 -8.10546875 16.9765625 C-11 17 -11 17 -16 15 C-15.67 10.38 -15.34 5.76 -15 1 C-10.05 0.67 -5.1 0.34 0 0 Z " fill="#FEFEFE" transform="translate(57,80)"/>
<path d="M0 0 C0.33 0.66 0.66 1.32 1 2 C5.62 2 10.24 2 15 2 C15.33 6.95 15.66 11.9 16 17 C12.09983019 17.97504245 9.69178796 17.94810969 5.75 17.5625 C4.67234375 17.46066406 3.5946875 17.35882813 2.484375 17.25390625 C1.66453125 17.17011719 0.8446875 17.08632812 0 17 C-0.19493195 14.72979256 -0.38070418 12.45879711 -0.5625 10.1875 C-0.66691406 8.92292969 -0.77132813 7.65835938 -0.87890625 6.35546875 C-1 3 -1 3 0 0 Z " fill="#E6E5E4" transform="translate(267,79)"/>
<path d="M0 0 C0.66 0.66 1.32 1.32 2 2 C1.96619794 6.69848693 1.42579581 11.31624605 1 16 C-3.95 16 -8.9 16 -14 16 C-14 11.05 -14 6.1 -14 1 C-3.2578125 0.0234375 -3.2578125 0.0234375 0 0 Z " fill="#E5E5E5" transform="translate(26,125)"/>
<path d="M0 0 C4.95 0 9.9 0 15 0 C15 4.95 15 9.9 15 15 C10.05 15 5.1 15 0 15 C0 10.05 0 5.1 0 0 Z " fill="#E6E6E6" transform="translate(312,186)"/>
<path d="M0 0 C4.95 0 9.9 0 15 0 C15 4.95 15 9.9 15 15 C10.05 15 5.1 15 0 15 C0 10.05 0 5.1 0 0 Z " fill="#FFFFFF" transform="translate(297,186)"/>
<path d="M0 0 C4.95 0 9.9 0 15 0 C15 4.95 15 9.9 15 15 C10.05 15 5.1 15 0 15 C0 10.05 0 5.1 0 0 Z " fill="#E6E6E6" transform="translate(282,186)"/>
<path d="M0 0 C4.95 0 9.9 0 15 0 C15 4.95 15 9.9 15 15 C10.05 15 5.1 15 0 15 C0 10.05 0 5.1 0 0 Z " fill="#FFFFFF" transform="translate(267,186)"/>
<path d="M0 0 C4.95 0 9.9 0 15 0 C15 4.95 15 9.9 15 15 C10.05 15 5.1 15 0 15 C0 10.05 0 5.1 0 0 Z " fill="#E6E6E6" transform="translate(252,186)"/>
<path d="M0 0 C4.95 0 9.9 0 15 0 C15 4.95 15 9.9 15 15 C10.05 15 5.1 15 0 15 C0 10.05 0 5.1 0 0 Z " fill="#FFFFFF" transform="translate(237,186)"/>
<path d="M0 0 C4.95 0 9.9 0 15 0 C15 4.95 15 9.9 15 15 C10.05 15 5.1 15 0 15 C0 10.05 0 5.1 0 0 Z " fill="#E6E6E6" transform="translate(222,186)"/>
<path d="M0 0 C4.95 0 9.9 0 15 0 C15 4.95 15 9.9 15 15 C10.05 15 5.1 15 0 15 C0 10.05 0 5.1 0 0 Z " fill="#FFFFFF" transform="translate(207,186)"/>
<path d="M0 0 C4.95 0 9.9 0 15 0 C15 4.95 15 9.9 15 15 C10.05 15 5.1 15 0 15 C0 10.05 0 5.1 0 0 Z " fill="#E6E6E6" transform="translate(192,186)"/>
<path d="M0 0 C4.95 0 9.9 0 15 0 C15 4.95 15 9.9 15 15 C10.05 15 5.1 15 0 15 C0 10.05 0 5.1 0 0 Z " fill="#FFFFFF" transform="translate(177,186)"/>
<path d="M0 0 C4.95 0 9.9 0 15 0 C15 4.95 15 9.9 15 15 C10.05 15 5.1 15 0 15 C0 10.05 0 5.1 0 0 Z " fill="#E6E6E6" transform="translate(162,186)"/>
<path d="M0 0 C4.95 0 9.9 0 15 0 C15 4.95 15 9.9 15 15 C10.05 15 5.1 15 0 15 C0 10.05 0 5.1 0 0 Z " fill="#FFFFFF" transform="translate(147,186)"/>
<path d="M0 0 C4.95 0 9.9 0 15 0 C15 4.95 15 9.9 15 15 C10.05 15 5.1 15 0 15 C0 10.05 0 5.1 0 0 Z " fill="#E6E6E6" transform="translate(132,186)"/>
<path d="M0 0 C4.95 0 9.9 0 15 0 C15 4.95 15 9.9 15 15 C10.05 15 5.1 15 0 15 C0 10.05 0 5.1 0 0 Z " fill="#FFFFFF" transform="translate(117,186)"/>
<path d="M0 0 C4.95 0 9.9 0 15 0 C15 4.95 15 9.9 15 15 C10.05 15 5.1 15 0 15 C0 10.05 0 5.1 0 0 Z " fill="#E6E6E6" transform="translate(102,186)"/>
<path d="M0 0 C4.95 0 9.9 0 15 0 C15 4.95 15 9.9 15 15 C10.05 15 5.1 15 0 15 C0 10.05 0 5.1 0 0 Z " fill="#FFFFFF" transform="translate(87,186)"/>
<path d="M0 0 C4.95 0 9.9 0 15 0 C15 4.95 15 9.9 15 15 C10.05 15 5.1 15 0 15 C0 10.05 0 5.1 0 0 Z " fill="#E6E6E6" transform="translate(72,186)"/>
<path d="M0 0 C4.95 0 9.9 0 15 0 C15 4.95 15 9.9 15 15 C10.05 15 5.1 15 0 15 C0 10.05 0 5.1 0 0 Z " fill="#FFFFFF" transform="translate(57,186)"/>
<path d="M0 0 C4.95 0 9.9 0 15 0 C15 4.95 15 9.9 15 15 C10.05 15 5.1 15 0 15 C0 10.05 0 5.1 0 0 Z " fill="#E6E6E6" transform="translate(42,186)"/>
<path d="M0 0 C4.95 0 9.9 0 15 0 C15 4.95 15 9.9 15 15 C10.05 15 5.1 15 0 15 C0 10.05 0 5.1 0 0 Z " fill="#FFFFFF" transform="translate(27,186)"/>
<path d="M0 0 C4.95 0 9.9 0 15 0 C15 4.95 15 9.9 15 15 C10.05 15 5.1 15 0 15 C0 10.05 0 5.1 0 0 Z " fill="#E6E6E6" transform="translate(12,186)"/>
<path d="M0 0 C4.95 0 9.9 0 15 0 C15 4.95 15 9.9 15 15 C10.05 15 5.1 15 0 15 C0 10.05 0 5.1 0 0 Z " fill="#FFFFFF" transform="translate(312,171)"/>
<path d="M0 0 C4.95 0 9.9 0 15 0 C15 4.95 15 9.9 15 15 C10.05 15 5.1 15 0 15 C0 10.05 0 5.1 0 0 Z " fill="#E6E6E6" transform="translate(297,171)"/>
<path d="M0 0 C4.95 0 9.9 0 15 0 C15 4.95 15 9.9 15 15 C10.05 15 5.1 15 0 15 C0 10.05 0 5.1 0 0 Z " fill="#FFFFFF" transform="translate(282,171)"/>
<path d="M0 0 C4.95 0 9.9 0 15 0 C15 4.95 15 9.9 15 15 C10.05 15 5.1 15 0 15 C0 10.05 0 5.1 0 0 Z " fill="#E6E6E6" transform="translate(267,171)"/>
<path d="M0 0 C4.95 0 9.9 0 15 0 C15 4.95 15 9.9 15 15 C10.05 15 5.1 15 0 15 C0 10.05 0 5.1 0 0 Z " fill="#FFFFFF" transform="translate(192,171)"/>
<path d="M0 0 C4.95 0 9.9 0 15 0 C15 4.95 15 9.9 15 15 C10.05 15 5.1 15 0 15 C0 10.05 0 5.1 0 0 Z " fill="#E6E6E6" transform="translate(117,171)"/>
<path d="M0 0 C4.95 0 9.9 0 15 0 C15 4.95 15 9.9 15 15 C10.05 15 5.1 15 0 15 C0 10.05 0 5.1 0 0 Z " fill="#FFFFFF" transform="translate(42,171)"/>
<path d="M0 0 C4.95 0 9.9 0 15 0 C15 4.95 15 9.9 15 15 C10.05 15 5.1 15 0 15 C0 10.05 0 5.1 0 0 Z " fill="#E6E6E6" transform="translate(27,171)"/>
<path d="M0 0 C4.95 0 9.9 0 15 0 C15 4.95 15 9.9 15 15 C10.05 15 5.1 15 0 15 C0 10.05 0 5.1 0 0 Z " fill="#FFFFFF" transform="translate(12,171)"/>
<path d="M0 0 C4.95 0 9.9 0 15 0 C15 4.95 15 9.9 15 15 C10.05 15 5.1 15 0 15 C0 10.05 0 5.1 0 0 Z " fill="#E6E6E6" transform="translate(312,156)"/>
<path d="M0 0 C4.95 0 9.9 0 15 0 C15 4.95 15 9.9 15 15 C10.05 15 5.1 15 0 15 C0 10.05 0 5.1 0 0 Z " fill="#FFFFFF" transform="translate(297,156)"/>
<path d="M0 0 C4.95 0 9.9 0 15 0 C15 4.95 15 9.9 15 15 C10.05 15 5.1 15 0 15 C0 10.05 0 5.1 0 0 Z " fill="#E6E6E6" transform="translate(282,156)"/>
<path d="M0 0 C4.95 0 9.9 0 15 0 C15 4.95 15 9.9 15 15 C10.05 15 5.1 15 0 15 C0 10.05 0 5.1 0 0 Z " fill="#FFFFFF" transform="translate(27,156)"/>
<path d="M0 0 C4.95 0 9.9 0 15 0 C15 4.95 15 9.9 15 15 C10.05 15 5.1 15 0 15 C0 10.05 0 5.1 0 0 Z " fill="#E6E6E6" transform="translate(12,156)"/>
<path d="M0 0 C4.95 0 9.9 0 15 0 C15 4.95 15 9.9 15 15 C10.05 15 5.1 15 0 15 C0 10.05 0 5.1 0 0 Z " fill="#FFFFFF" transform="translate(312,141)"/>
<path d="M0 0 C4.95 0 9.9 0 15 0 C15 4.95 15 9.9 15 15 C10.05 15 5.1 15 0 15 C0 10.05 0 5.1 0 0 Z " fill="#E6E6E6" transform="translate(297,141)"/>
<path d="M0 0 C4.95 0 9.9 0 15 0 C15 4.95 15 9.9 15 15 C10.05 15 5.1 15 0 15 C0 10.05 0 5.1 0 0 Z " fill="#FFFFFF" transform="translate(12,141)"/>
<path d="M0 0 C4.95 0 9.9 0 15 0 C15 4.95 15 9.9 15 15 C10.05 15 5.1 15 0 15 C0 10.05 0 5.1 0 0 Z " fill="#E6E6E6" transform="translate(312,126)"/>
<path d="M0 0 C4.95 0 9.9 0 15 0 C15 4.95 15 9.9 15 15 C10.05 15 5.1 15 0 15 C0 10.05 0 5.1 0 0 Z " fill="#FFFFFF" transform="translate(312,111)"/>
<path d="M0 0 C4.95 0 9.9 0 15 0 C15 4.95 15 9.9 15 15 C10.05 15 5.1 15 0 15 C0 10.05 0 5.1 0 0 Z " fill="#E6E6E6" transform="translate(312,96)"/>
<path d="M0 0 C4.95 0 9.9 0 15 0 C15 4.95 15 9.9 15 15 C10.05 15 5.1 15 0 15 C0 10.05 0 5.1 0 0 Z " fill="#FFFFFF" transform="translate(312,81)"/>
<path d="M0 0 C4.95 0 9.9 0 15 0 C15 4.95 15 9.9 15 15 C10.05 15 5.1 15 0 15 C0 10.05 0 5.1 0 0 Z " fill="#E6E6E6" transform="translate(297,81)"/>
<path d="M0 0 C4.95 0 9.9 0 15 0 C15 4.95 15 9.9 15 15 C10.05 15 5.1 15 0 15 C0 10.05 0 5.1 0 0 Z " fill="#FFFFFF" transform="translate(12,81)"/>
<path d="M0 0 C4.95 0 9.9 0 15 0 C15 4.95 15 9.9 15 15 C10.05 15 5.1 15 0 15 C0 10.05 0 5.1 0 0 Z " fill="#E6E6E6" transform="translate(312,66)"/>
<path d="M0 0 C4.95 0 9.9 0 15 0 C15 4.95 15 9.9 15 15 C10.05 15 5.1 15 0 15 C0 10.05 0 5.1 0 0 Z " fill="#FFFFFF" transform="translate(297,66)"/>
<path d="M0 0 C4.95 0 9.9 0 15 0 C15 4.95 15 9.9 15 15 C10.05 15 5.1 15 0 15 C0 10.05 0 5.1 0 0 Z " fill="#E6E6E6" transform="translate(282,66)"/>
<path d="M0 0 C4.95 0 9.9 0 15 0 C15 4.95 15 9.9 15 15 C10.05 15 5.1 15 0 15 C0 10.05 0 5.1 0 0 Z " fill="#FFFFFF" transform="translate(27,66)"/>
<path d="M0 0 C4.95 0 9.9 0 15 0 C15 4.95 15 9.9 15 15 C10.05 15 5.1 15 0 15 C0 10.05 0 5.1 0 0 Z " fill="#E6E6E6" transform="translate(12,66)"/>
<path d="M0 0 C4.95 0 9.9 0 15 0 C15 4.95 15 9.9 15 15 C10.05 15 5.1 15 0 15 C0 10.05 0 5.1 0 0 Z " fill="#FFFFFF" transform="translate(312,51)"/>
<path d="M0 0 C4.95 0 9.9 0 15 0 C15 4.95 15 9.9 15 15 C10.05 15 5.1 15 0 15 C0 10.05 0 5.1 0 0 Z " fill="#E6E6E6" transform="translate(297,51)"/>
<path d="M0 0 C4.95 0 9.9 0 15 0 C15 4.95 15 9.9 15 15 C10.05 15 5.1 15 0 15 C0 10.05 0 5.1 0 0 Z " fill="#FFFFFF" transform="translate(282,51)"/>
<path d="M0 0 C4.95 0 9.9 0 15 0 C15 4.95 15 9.9 15 15 C10.05 15 5.1 15 0 15 C0 10.05 0 5.1 0 0 Z " fill="#E6E6E6" transform="translate(267,51)"/>
<path d="M0 0 C4.95 0 9.9 0 15 0 C15 4.95 15 9.9 15 15 C10.05 15 5.1 15 0 15 C0 10.05 0 5.1 0 0 Z " fill="#FFFFFF" transform="translate(42,51)"/>
<path d="M0 0 C4.95 0 9.9 0 15 0 C15 4.95 15 9.9 15 15 C10.05 15 5.1 15 0 15 C0 10.05 0 5.1 0 0 Z " fill="#E6E6E6" transform="translate(27,51)"/>
<path d="M0 0 C4.95 0 9.9 0 15 0 C15 4.95 15 9.9 15 15 C10.05 15 5.1 15 0 15 C0 10.05 0 5.1 0 0 Z " fill="#FFFFFF" transform="translate(12,51)"/>
<path d="M0 0 C4.95 0 9.9 0 15 0 C15 4.95 15 9.9 15 15 C10.05 15 5.1 15 0 15 C0 10.05 0 5.1 0 0 Z " fill="#E6E6E6" transform="translate(312,36)"/>
<path d="M0 0 C4.95 0 9.9 0 15 0 C15 4.95 15 9.9 15 15 C10.05 15 5.1 15 0 15 C0 10.05 0 5.1 0 0 Z " fill="#FFFFFF" transform="translate(297,36)"/>
<path d="M0 0 C4.95 0 9.9 0 15 0 C15 4.95 15 9.9 15 15 C10.05 15 5.1 15 0 15 C0 10.05 0 5.1 0 0 Z " fill="#E6E6E6" transform="translate(282,36)"/>
<path d="M0 0 C4.95 0 9.9 0 15 0 C15 4.95 15 9.9 15 15 C10.05 15 5.1 15 0 15 C0 10.05 0 5.1 0 0 Z " fill="#FFFFFF" transform="translate(267,36)"/>
<path d="M0 0 C4.95 0 9.9 0 15 0 C15 4.95 15 9.9 15 15 C10.05 15 5.1 15 0 15 C0 10.05 0 5.1 0 0 Z " fill="#E6E6E6" transform="translate(252,36)"/>
<path d="M0 0 C4.95 0 9.9 0 15 0 C15 4.95 15 9.9 15 15 C10.05 15 5.1 15 0 15 C0 10.05 0 5.1 0 0 Z " fill="#FFFFFF" transform="translate(237,36)"/>
<path d="M0 0 C4.95 0 9.9 0 15 0 C15 4.95 15 9.9 15 15 C10.05 15 5.1 15 0 15 C0 10.05 0 5.1 0 0 Z " fill="#FEFEFE" transform="translate(147,36)"/>
<path d="M0 0 C4.95 0 9.9 0 15 0 C15 4.95 15 9.9 15 15 C10.05 15 5.1 15 0 15 C0 10.05 0 5.1 0 0 Z " fill="#FFFFFF" transform="translate(57,36)"/>
<path d="M0 0 C4.95 0 9.9 0 15 0 C15 4.95 15 9.9 15 15 C10.05 15 5.1 15 0 15 C0 10.05 0 5.1 0 0 Z " fill="#E6E6E6" transform="translate(42,36)"/>
<path d="M0 0 C4.95 0 9.9 0 15 0 C15 4.95 15 9.9 15 15 C10.05 15 5.1 15 0 15 C0 10.05 0 5.1 0 0 Z " fill="#FFFFFF" transform="translate(27,36)"/>
<path d="M0 0 C4.95 0 9.9 0 15 0 C15 4.95 15 9.9 15 15 C10.05 15 5.1 15 0 15 C0 10.05 0 5.1 0 0 Z " fill="#E6E6E6" transform="translate(12,36)"/>
<path d="M0 0 C4.95 0 9.9 0 15 0 C15 4.95 15 9.9 15 15 C10.05 15 5.1 15 0 15 C0 10.05 0 5.1 0 0 Z " fill="#FFFFFF" transform="translate(312,21)"/>
<path d="M0 0 C4.95 0 9.9 0 15 0 C15 4.95 15 9.9 15 15 C10.05 15 5.1 15 0 15 C0 10.05 0 5.1 0 0 Z " fill="#E6E6E6" transform="translate(297,21)"/>
<path d="M0 0 C4.95 0 9.9 0 15 0 C15 4.95 15 9.9 15 15 C10.05 15 5.1 15 0 15 C0 10.05 0 5.1 0 0 Z " fill="#FFFFFF" transform="translate(282,21)"/>
<path d="M0 0 C4.95 0 9.9 0 15 0 C15 4.95 15 9.9 15 15 C10.05 15 5.1 15 0 15 C0 10.05 0 5.1 0 0 Z " fill="#E6E6E6" transform="translate(267,21)"/>
<path d="M0 0 C4.95 0 9.9 0 15 0 C15 4.95 15 9.9 15 15 C10.05 15 5.1 15 0 15 C0 10.05 0 5.1 0 0 Z " fill="#FFFFFF" transform="translate(252,21)"/>
<path d="M0 0 C4.95 0 9.9 0 15 0 C15 4.95 15 9.9 15 15 C10.05 15 5.1 15 0 15 C0 10.05 0 5.1 0 0 Z " fill="#E6E6E6" transform="translate(237,21)"/>
<path d="M0 0 C4.95 0 9.9 0 15 0 C15 4.95 15 9.9 15 15 C10.05 15 5.1 15 0 15 C0 10.05 0 5.1 0 0 Z " fill="#FFFFFF" transform="translate(162,21)"/>
<path d="M0 0 C4.95 0 9.9 0 15 0 C15 4.95 15 9.9 15 15 C10.05 15 5.1 15 0 15 C0 10.05 0 5.1 0 0 Z " fill="#E6E6E6" transform="translate(147,21)"/>
<path d="M0 0 C4.95 0 9.9 0 15 0 C15 4.95 15 9.9 15 15 C10.05 15 5.1 15 0 15 C0 10.05 0 5.1 0 0 Z " fill="#FFFFFF" transform="translate(72,21)"/>
<path d="M0 0 C4.95 0 9.9 0 15 0 C15 4.95 15 9.9 15 15 C10.05 15 5.1 15 0 15 C0 10.05 0 5.1 0 0 Z " fill="#E6E6E6" transform="translate(57,21)"/>
<path d="M0 0 C4.95 0 9.9 0 15 0 C15 4.95 15 9.9 15 15 C10.05 15 5.1 15 0 15 C0 10.05 0 5.1 0 0 Z " fill="#FFFFFF" transform="translate(42,21)"/>
<path d="M0 0 C4.95 0 9.9 0 15 0 C15 4.95 15 9.9 15 15 C10.05 15 5.1 15 0 15 C0 10.05 0 5.1 0 0 Z " fill="#E6E6E6" transform="translate(27,21)"/>
<path d="M0 0 C4.95 0 9.9 0 15 0 C15 4.95 15 9.9 15 15 C10.05 15 5.1 15 0 15 C0 10.05 0 5.1 0 0 Z " fill="#FFFFFF" transform="translate(12,21)"/>
<path d="M0 0 C4.95 0 9.9 0 15 0 C15 4.95 15 9.9 15 15 C10.05 15 5.1 15 0 15 C0 10.05 0 5.1 0 0 Z " fill="#E6E6E6" transform="translate(312,6)"/>
<path d="M0 0 C4.95 0 9.9 0 15 0 C15 4.95 15 9.9 15 15 C10.05 15 5.1 15 0 15 C0 10.05 0 5.1 0 0 Z " fill="#FFFFFF" transform="translate(297,6)"/>
<path d="M0 0 C4.95 0 9.9 0 15 0 C15 4.95 15 9.9 15 15 C10.05 15 5.1 15 0 15 C0 10.05 0 5.1 0 0 Z " fill="#E6E6E6" transform="translate(282,6)"/>
<path d="M0 0 C4.95 0 9.9 0 15 0 C15 4.95 15 9.9 15 15 C10.05 15 5.1 15 0 15 C0 10.05 0 5.1 0 0 Z " fill="#FFFFFF" transform="translate(267,6)"/>
<path d="M0 0 C4.95 0 9.9 0 15 0 C15 4.95 15 9.9 15 15 C10.05 15 5.1 15 0 15 C0 10.05 0 5.1 0 0 Z " fill="#E6E6E6" transform="translate(252,6)"/>
<path d="M0 0 C4.95 0 9.9 0 15 0 C15 4.95 15 9.9 15 15 C10.05 15 5.1 15 0 15 C0 10.05 0 5.1 0 0 Z " fill="#FFFFFF" transform="translate(237,6)"/>
<path d="M0 0 C4.95 0 9.9 0 15 0 C15 4.95 15 9.9 15 15 C10.05 15 5.1 15 0 15 C0 10.05 0 5.1 0 0 Z " fill="#E6E6E6" transform="translate(222,6)"/>
<path d="M0 0 C4.95 0 9.9 0 15 0 C15 4.95 15 9.9 15 15 C10.05 15 5.1 15 0 15 C0 10.05 0 5.1 0 0 Z " fill="#E6E6E6" transform="translate(192,6)"/>
<path d="M0 0 C4.95 0 9.9 0 15 0 C15 4.95 15 9.9 15 15 C10.05 15 5.1 15 0 15 C0 10.05 0 5.1 0 0 Z " fill="#FFFFFF" transform="translate(177,6)"/>
<path d="M0 0 C4.95 0 9.9 0 15 0 C15 4.95 15 9.9 15 15 C10.05 15 5.1 15 0 15 C0 10.05 0 5.1 0 0 Z " fill="#E6E6E6" transform="translate(162,6)"/>
<path d="M0 0 C4.95 0 9.9 0 15 0 C15 4.95 15 9.9 15 15 C10.05 15 5.1 15 0 15 C0 10.05 0 5.1 0 0 Z " fill="#FFFFFF" transform="translate(147,6)"/>
<path d="M0 0 C4.95 0 9.9 0 15 0 C15 4.95 15 9.9 15 15 C10.05 15 5.1 15 0 15 C0 10.05 0 5.1 0 0 Z " fill="#E6E6E6" transform="translate(132,6)"/>
<path d="M0 0 C4.95 0 9.9 0 15 0 C15 4.95 15 9.9 15 15 C10.05 15 5.1 15 0 15 C0 10.05 0 5.1 0 0 Z " fill="#FFFFFF" transform="translate(117,6)"/>
<path d="M0 0 C4.95 0 9.9 0 15 0 C15 4.95 15 9.9 15 15 C10.05 15 5.1 15 0 15 C0 10.05 0 5.1 0 0 Z " fill="#FFFFFF" transform="translate(87,6)"/>
<path d="M0 0 C4.95 0 9.9 0 15 0 C15 4.95 15 9.9 15 15 C10.05 15 5.1 15 0 15 C0 10.05 0 5.1 0 0 Z " fill="#E6E6E6" transform="translate(72,6)"/>
<path d="M0 0 C4.95 0 9.9 0 15 0 C15 4.95 15 9.9 15 15 C10.05 15 5.1 15 0 15 C0 10.05 0 5.1 0 0 Z " fill="#FFFFFF" transform="translate(57,6)"/>
<path d="M0 0 C4.95 0 9.9 0 15 0 C15 4.95 15 9.9 15 15 C10.05 15 5.1 15 0 15 C0 10.05 0 5.1 0 0 Z " fill="#E6E6E6" transform="translate(42,6)"/>
<path d="M0 0 C4.95 0 9.9 0 15 0 C15 4.95 15 9.9 15 15 C10.05 15 5.1 15 0 15 C0 10.05 0 5.1 0 0 Z " fill="#FFFFFF" transform="translate(27,6)"/>
<path d="M0 0 C4.95 0 9.9 0 15 0 C15 4.95 15 9.9 15 15 C10.05 15 5.1 15 0 15 C0 10.05 0 5.1 0 0 Z " fill="#E6E6E6" transform="translate(12,6)"/>
<path d="M0 0 C10.83984375 -0.09765625 10.83984375 -0.09765625 14 0 C15 1 15 1 15.09765625 4.16015625 C15.04882812 9.58007812 15.04882812 9.58007812 15 15 C10.05 15 5.1 15 0 15 C0 10.05 0 5.1 0 0 Z " fill="#FEFEFE" transform="translate(132,171)"/>
<path d="M0 0 C9.24 0 18.48 0 28 0 C25.96986589 4.06026821 23.57604446 6.65457376 20.375 9.75 C19.859375 10.25660156 19.34375 10.76320313 18.8125 11.28515625 C17.54616661 12.52803902 16.2736856 13.76465276 15 15 C9.72997792 10.60831493 4.64697949 6.0573621 0 1 C0 0.67 0 0.34 0 0 Z " fill="#FBFCFD" transform="translate(148,51)"/>
<path d="M0 0 C0 4.95 0 9.9 0 15 C-4.95 15 -9.9 15 -15 15 C-15.33 10.71 -15.66 6.42 -16 2 C-11.0754853 -1.2830098 -5.82305673 -0.11530805 0 0 Z " fill="#FEFEFE" transform="translate(267,171)"/>
<path d="M0 0 C0 4.95 0 9.9 0 15 C-4.95 15 -9.9 15 -15 15 C-15.6 6 -15.6 6 -13.125 1.875 C-8.57489097 -0.85506542 -5.25431584 -0.35028772 0 0 Z " fill="#FFFFFF" transform="translate(117,171)"/>
<path d="M0 0 C0 4.95 0 9.9 0 15 C-4.95 15 -9.9 15 -15 15 C-15.6 6 -15.6 6 -13.125 1.875 C-8.57489097 -0.85506542 -5.25431584 -0.35028772 0 0 Z " fill="#FEFEFE" transform="translate(222,66)"/>
<path d="M0 0 C3.96 0 7.92 0 12 0 C12 4.95 12 9.9 12 15 C8.04 15 4.08 15 0 15 C0 10.05 0 5.1 0 0 Z " fill="#E6E6E6" transform="translate(0,171)"/>
<path d="M0 0 C3.96 0 7.92 0 12 0 C12 4.95 12 9.9 12 15 C8.04 15 4.08 15 0 15 C0 10.05 0 5.1 0 0 Z " fill="#FFFFFF" transform="translate(0,156)"/>
<path d="M0 0 C3.96 0 7.92 0 12 0 C12 4.95 12 9.9 12 15 C8.04 15 4.08 15 0 15 C0 10.05 0 5.1 0 0 Z " fill="#E6E6E6" transform="translate(0,141)"/>
<path d="M0 0 C3.96 0 7.92 0 12 0 C12 4.95 12 9.9 12 15 C8.04 15 4.08 15 0 15 C0 10.05 0 5.1 0 0 Z " fill="#FFFFFF" transform="translate(0,126)"/>
<path d="M0 0 C3.96 0 7.92 0 12 0 C12 4.95 12 9.9 12 15 C8.04 15 4.08 15 0 15 C0 10.05 0 5.1 0 0 Z " fill="#FFFFFF" transform="translate(0,96)"/>
<path d="M0 0 C3.96 0 7.92 0 12 0 C12 4.95 12 9.9 12 15 C8.04 15 4.08 15 0 15 C0 10.05 0 5.1 0 0 Z " fill="#E6E6E6" transform="translate(0,81)"/>
<path d="M0 0 C3.96 0 7.92 0 12 0 C12 4.95 12 9.9 12 15 C8.04 15 4.08 15 0 15 C0 10.05 0 5.1 0 0 Z " fill="#FFFFFF" transform="translate(0,66)"/>
<path d="M0 0 C3.96 0 7.92 0 12 0 C12 4.95 12 9.9 12 15 C8.04 15 4.08 15 0 15 C0 10.05 0 5.1 0 0 Z " fill="#E6E6E6" transform="translate(0,51)"/>
<path d="M0 0 C3.96 0 7.92 0 12 0 C12 4.95 12 9.9 12 15 C8.04 15 4.08 15 0 15 C0 10.05 0 5.1 0 0 Z " fill="#FFFFFF" transform="translate(0,36)"/>
<path d="M0 0 C3.96 0 7.92 0 12 0 C12 4.95 12 9.9 12 15 C8.04 15 4.08 15 0 15 C0 10.05 0 5.1 0 0 Z " fill="#E6E6E6" transform="translate(0,21)"/>
<path d="M0 0 C3.96 0 7.92 0 12 0 C12 4.95 12 9.9 12 15 C8.04 15 4.08 15 0 15 C0 10.05 0 5.1 0 0 Z " fill="#FFFFFF" transform="translate(0,6)"/>
<path d="M0 0 C0.33 0 0.66 0 1 0 C1.18175781 0.81984375 1.36351562 1.6396875 1.55078125 2.484375 C1.92783203 4.10085937 1.92783203 4.10085937 2.3125 5.75 C2.67794922 7.35101563 2.67794922 7.35101563 3.05078125 8.984375 C3.98159307 11.94152203 5.0840935 13.61719192 7 16 C7 16.66 7 17.32 7 18 C2.38 18 -2.24 18 -7 18 C-7 13.05 -7 8.1 -7 3 C-4.69 3 -2.38 3 0 3 C0 2.01 0 1.02 0 0 Z " fill="#F9FCFC" transform="translate(19,108)"/>
<path d="M0 0 C1.98 0 3.96 0 6 0 C6 4.95 6 9.9 6 15 C-6.625 16 -6.625 16 -10 16 C-9.59007812 15.56429687 -9.18015625 15.12859375 -8.7578125 14.6796875 C-5.35327093 10.91677313 -3.3577187 7.9783019 -2 3 C-1.34 2.01 -0.68 1.02 0 0 Z " fill="#E7E4E2" transform="translate(306,111)"/>
<path d="M0 0 C4.95 0 9.9 0 15 0 C15 2.31 15 4.62 15 7 C10.545 7.495 10.545 7.495 6 8 C6 8.66 6 9.32 6 10 C4.03852126 11.38938077 2.03833424 12.7260411 0 14 C0 9.38 0 4.76 0 0 Z " fill="#E7E5E3" transform="translate(237,51)"/>
<path d="M0 0 C4.95 0 9.9 0 15 0 C15 3.63 15 7.26 15 11 C12.525 10.505 12.525 10.505 10 10 C10 9.34 10 8.68 10 8 C5.71 7.67 1.42 7.34 -3 7 C-2.01 6.67 -1.02 6.34 0 6 C0 4.02 0 2.04 0 0 Z " fill="#FDFCFB" transform="translate(72,51)"/>
<path d="M0 0 C0.66 0.33 1.32 0.66 2 1 C2 4.96 2 8.92 2 13 C-2.95 13 -7.9 13 -13 13 C-13 11.02 -13 9.04 -13 7 C-12.39671875 6.82984375 -11.7934375 6.6596875 -11.171875 6.484375 C-6.48936628 5.06451752 -3.14688851 3.96781594 0 0 Z " fill="#E7E4E0" transform="translate(250,173)"/>
<path d="M0 0 C1.010625 0.78375 2.02125 1.5675 3.0625 2.375 C6.62633284 4.94241427 9.73556373 6.04267757 14 7 C14.33 8.98 14.66 10.96 15 13 C10.05 13 5.1 13 0 13 C0 8.71 0 4.42 0 0 Z " fill="#E7E4E1" transform="translate(147,173)"/>
<path d="M0 0 C1.98 0 3.96 0 6 0 C7.66666667 5 9.33333333 10 11 15 C7.37 15 3.74 15 0 15 C0 10.05 0 5.1 0 0 Z " fill="#FEFBFA" transform="translate(87,36)"/>
<path d="M0 0 C4.62 0 9.24 0 14 0 C12.01412744 3.97174513 10.11805213 6.15007608 7 9.25 C6.113125 10.14203125 5.22625 11.0340625 4.3125 11.953125 C2 14 2 14 0 14 C0 9.38 0 4.76 0 0 Z " fill="#FBFDFD" transform="translate(177,36)"/>
<path d="M0 0 C4.62 0 9.24 0 14 0 C12.07859132 3.84281736 10.4073184 5.80431927 7.375 8.75 C6.14910156 9.94882813 6.14910156 9.94882813 4.8984375 11.171875 C4.27195312 11.77515625 3.64546875 12.3784375 3 13 C1.68 12.34 0.36 11.68 -1 11 C-0.67 7.37 -0.34 3.74 0 0 Z " fill="#F9FBFB" transform="translate(87,126)"/>
<path d="M0 0 C0 3.63 0 7.26 0 11 C-4.95 11 -9.9 11 -15 11 C-15 9.68 -15 8.36 -15 7 C-15.99 6.67 -16.98 6.34 -18 6 C-17.18015625 5.81824219 -16.3603125 5.63648438 -15.515625 5.44921875 C-14.43796875 5.19785156 -13.3603125 4.94648438 -12.25 4.6875 C-11.18265625 4.44386719 -10.1153125 4.20023438 -9.015625 3.94921875 C-5.74530372 2.91983006 -3.29193048 0 0 0 Z " fill="#FDFAF7" transform="translate(177,175)"/>
<path d="M0 0 C3.76257127 1.88128564 5.81423751 3.5161285 8.75 6.4375 C9.54921875 7.21996094 10.3484375 8.00242188 11.171875 8.80859375 C13 11 13 11 13 14 C8.71 14 4.42 14 0 14 C0 9.38 0 4.76 0 0 Z " fill="#F3FAF9" transform="translate(57,157)"/>
<path d="M0 0 C3.76257127 1.88128564 5.81423751 3.5161285 8.75 6.4375 C9.54921875 7.21996094 10.3484375 8.00242188 11.171875 8.80859375 C13 11 13 11 13 14 C8.71 14 4.42 14 0 14 C0 9.38 0 4.76 0 0 Z " fill="#F3FAF9" transform="translate(27,127)"/>
<path d="M0 0 C3.63061667 1.53218685 5.9863773 3.7183144 8.75 6.5 C9.94882812 7.69109375 9.94882812 7.69109375 11.171875 8.90625 C13 11 13 11 13 13 C8.38 13 3.76 13 -1 13 C-1.09765625 3.72265625 -1.09765625 3.72265625 -1 1 C-0.67 0.67 -0.34 0.34 0 0 Z " fill="#F3FAF9" transform="translate(43,143)"/>
<path d="M0 0 C1.98 0 3.96 0 6 0 C6 4.95 6 9.9 6 15 C-3.625 16 -3.625 16 -7 16 C-5.824375 14.824375 -5.824375 14.824375 -4.625 13.625 C-1.21240925 9.6033633 -0.67565661 5.10272004 0 0 Z " fill="#DDE5E4" transform="translate(231,36)"/>
<path d="M0 0 C0.79664063 0.27714844 1.59328125 0.55429688 2.4140625 0.83984375 C3.47367188 1.20207031 4.53328125 1.56429687 5.625 1.9375 C6.66914063 2.29714844 7.71328125 2.65679687 8.7890625 3.02734375 C11.85970286 3.95750123 14.827478 4.54746308 18 5 C17.01 5.33 16.02 5.66 15 6 C15 7.32 15 8.64 15 10 C10.05 10 5.1 10 0 10 C0 6.7 0 3.4 0 0 Z " fill="#FDFBF9" transform="translate(222,176)"/>
<path d="M0 0 C0.66 0.33 1.32 0.66 2 1 C2 4.96 2 8.92 2 13 C-0.10405391 13.16808419 -2.20824758 13.33441948 -4.3125 13.5 C-5.48425781 13.5928125 -6.65601563 13.685625 -7.86328125 13.78125 C-9.905194 13.92364989 -11.9531279 14 -14 14 C-9.38 9.38 -4.76 4.76 0 0 Z " fill="#E8E3DE" transform="translate(265,158)"/>
<path d="M0 0 C0.66 0.33 1.32 0.66 2 1 C2 4.96 2 8.92 2 13 C-0.10405391 13.16808419 -2.20824758 13.33441948 -4.3125 13.5 C-5.48425781 13.5928125 -6.65601563 13.685625 -7.86328125 13.78125 C-9.905194 13.92364989 -11.9531279 14 -14 14 C-9.38 9.38 -4.76 4.76 0 0 Z " fill="#E8E3DE" transform="translate(280,143)"/>
<path d="M0 0 C0.66 0.33 1.32 0.66 2 1 C2 4.96 2 8.92 2 13 C-0.10405391 13.16808419 -2.20824758 13.33441948 -4.3125 13.5 C-5.48425781 13.5928125 -6.65601563 13.685625 -7.86328125 13.78125 C-9.905194 13.92364989 -11.9531279 14 -14 14 C-9.38 9.38 -4.76 4.76 0 0 Z " fill="#E8E3DE" transform="translate(295,128)"/>
<path d="M0 0 C4.62 0 9.24 0 14 0 C9.90473413 4.89434213 5.73642915 9.70720334 1 14 C0.67 14 0.34 14 0 14 C0 9.38 0 4.76 0 0 Z " fill="#E8DFD9" transform="translate(207,81)"/>
<path d="M0 0 C4.62 0 9.24 0 14 0 C9.90473413 4.89434213 5.73642915 9.70720334 1 14 C0.67 14 0.34 14 0 14 C0 9.38 0 4.76 0 0 Z " fill="#E8DFD9" transform="translate(222,66)"/>
<path d="M0 0 C4.62 0 9.24 0 14 0 C14 4.62 14 9.24 14 14 C9.10565787 9.90473413 4.29279666 5.73642915 0 1 C0 0.67 0 0.34 0 0 Z " fill="#E6E4E3" transform="translate(148,51)"/>
<path d="M0 0 C4.62 0 9.24 0 14 0 C14 4.62 14 9.24 14 14 C9.10565787 9.90473413 4.29279666 5.73642915 0 1 C0 0.67 0 0.34 0 0 Z " fill="#E6E4E2" transform="translate(133,36)"/>
<path d="M0 0 C4.29 0 8.58 0 13 0 C13.33 3.96 13.66 7.92 14 12 C10 12 10 12 7.421875 9.8828125 C6.54015625 8.97273437 5.6584375 8.06265625 4.75 7.125 C3.85796875 6.22007812 2.9659375 5.31515625 2.046875 4.3828125 C0 2 0 2 0 0 Z " fill="#E6E3E1" transform="translate(224,126)"/>
<path d="M0 0 C0.66 0.66 1.32 1.32 2 2 C-5.29840547 10.44646925 -5.29840547 10.44646925 -9 14 C-9.99 13.67 -10.98 13.34 -12 13 C-11.67 9.04 -11.34 5.08 -11 1 C-2.6015625 0.0234375 -2.6015625 0.0234375 0 0 Z " fill="#E9E4DE" transform="translate(173,125)"/>
<path d="M0 0 C0 4.37123198 -0.54829181 8.65230869 -1 13 C-5.95 13 -10.9 13 -16 13 C-16 11.68 -16 10.36 -16 9 C-15.34773438 8.76925781 -14.69546875 8.53851563 -14.0234375 8.30078125 C-8.43708076 6.2161968 -4.33255205 4.10452299 0 0 Z " fill="#DBE4E3" transform="translate(103,173)"/>
<path d="M0 0 C9.61538462 9.23076923 9.61538462 9.23076923 12 14 C7.71 14 3.42 14 -1 14 C-1.125 2.25 -1.125 2.25 0 0 Z " fill="#E6E3E1" transform="translate(58,82)"/>
<path d="M0 0 C4.89599781 4.01471821 8.98528179 8.10400219 13 13 C8.71 13 4.42 13 0 13 C0 8.71 0 4.42 0 0 Z " fill="#E6E4E3" transform="translate(87,113)"/>
<path d="M0 0 C4.89599781 4.01471821 8.98528179 8.10400219 13 13 C8.71 13 4.42 13 0 13 C0 8.71 0 4.42 0 0 Z " fill="#E6E4E3" transform="translate(72,98)"/>
<path d="M0 0 C4.95 0 9.9 0 15 0 C15 1.98 15 3.96 15 6 C10.05 6 5.1 6 0 6 C0 4.02 0 2.04 0 0 Z " fill="#FFFFFF" transform="translate(312,201)"/>
<path d="M0 0 C4.95 0 9.9 0 15 0 C15 1.98 15 3.96 15 6 C10.05 6 5.1 6 0 6 C0 4.02 0 2.04 0 0 Z " fill="#E6E6E6" transform="translate(297,201)"/>
<path d="M0 0 C4.95 0 9.9 0 15 0 C15 1.98 15 3.96 15 6 C10.05 6 5.1 6 0 6 C0 4.02 0 2.04 0 0 Z " fill="#FFFFFF" transform="translate(282,201)"/>
<path d="M0 0 C4.95 0 9.9 0 15 0 C15 1.98 15 3.96 15 6 C10.05 6 5.1 6 0 6 C0 4.02 0 2.04 0 0 Z " fill="#E6E6E6" transform="translate(267,201)"/>
<path d="M0 0 C4.95 0 9.9 0 15 0 C15 1.98 15 3.96 15 6 C10.05 6 5.1 6 0 6 C0 4.02 0 2.04 0 0 Z " fill="#FFFFFF" transform="translate(252,201)"/>
<path d="M0 0 C4.95 0 9.9 0 15 0 C15 1.98 15 3.96 15 6 C10.05 6 5.1 6 0 6 C0 4.02 0 2.04 0 0 Z " fill="#E6E6E6" transform="translate(237,201)"/>
<path d="M0 0 C4.95 0 9.9 0 15 0 C15 1.98 15 3.96 15 6 C10.05 6 5.1 6 0 6 C0 4.02 0 2.04 0 0 Z " fill="#FFFFFF" transform="translate(222,201)"/>
<path d="M0 0 C4.95 0 9.9 0 15 0 C15 1.98 15 3.96 15 6 C10.05 6 5.1 6 0 6 C0 4.02 0 2.04 0 0 Z " fill="#E6E6E6" transform="translate(207,201)"/>
<path d="M0 0 C4.95 0 9.9 0 15 0 C15 1.98 15 3.96 15 6 C10.05 6 5.1 6 0 6 C0 4.02 0 2.04 0 0 Z " fill="#FFFFFF" transform="translate(192,201)"/>
<path d="M0 0 C4.95 0 9.9 0 15 0 C15 1.98 15 3.96 15 6 C10.05 6 5.1 6 0 6 C0 4.02 0 2.04 0 0 Z " fill="#E6E6E6" transform="translate(177,201)"/>
<path d="M0 0 C4.95 0 9.9 0 15 0 C15 1.98 15 3.96 15 6 C10.05 6 5.1 6 0 6 C0 4.02 0 2.04 0 0 Z " fill="#FFFFFF" transform="translate(162,201)"/>
<path d="M0 0 C4.95 0 9.9 0 15 0 C15 1.98 15 3.96 15 6 C10.05 6 5.1 6 0 6 C0 4.02 0 2.04 0 0 Z " fill="#E6E6E6" transform="translate(147,201)"/>
<path d="M0 0 C4.95 0 9.9 0 15 0 C15 1.98 15 3.96 15 6 C10.05 6 5.1 6 0 6 C0 4.02 0 2.04 0 0 Z " fill="#FFFFFF" transform="translate(132,201)"/>
<path d="M0 0 C4.95 0 9.9 0 15 0 C15 1.98 15 3.96 15 6 C10.05 6 5.1 6 0 6 C0 4.02 0 2.04 0 0 Z " fill="#E6E6E6" transform="translate(117,201)"/>
<path d="M0 0 C4.95 0 9.9 0 15 0 C15 1.98 15 3.96 15 6 C10.05 6 5.1 6 0 6 C0 4.02 0 2.04 0 0 Z " fill="#FFFFFF" transform="translate(102,201)"/>
<path d="M0 0 C4.95 0 9.9 0 15 0 C15 1.98 15 3.96 15 6 C10.05 6 5.1 6 0 6 C0 4.02 0 2.04 0 0 Z " fill="#E6E6E6" transform="translate(87,201)"/>
<path d="M0 0 C4.95 0 9.9 0 15 0 C15 1.98 15 3.96 15 6 C10.05 6 5.1 6 0 6 C0 4.02 0 2.04 0 0 Z " fill="#FFFFFF" transform="translate(72,201)"/>
<path d="M0 0 C4.95 0 9.9 0 15 0 C15 1.98 15 3.96 15 6 C10.05 6 5.1 6 0 6 C0 4.02 0 2.04 0 0 Z " fill="#E6E6E6" transform="translate(57,201)"/>
<path d="M0 0 C4.95 0 9.9 0 15 0 C15 1.98 15 3.96 15 6 C10.05 6 5.1 6 0 6 C0 4.02 0 2.04 0 0 Z " fill="#FFFFFF" transform="translate(42,201)"/>
<path d="M0 0 C4.95 0 9.9 0 15 0 C15 1.98 15 3.96 15 6 C10.05 6 5.1 6 0 6 C0 4.02 0 2.04 0 0 Z " fill="#E6E6E6" transform="translate(27,201)"/>
<path d="M0 0 C4.95 0 9.9 0 15 0 C15 1.98 15 3.96 15 6 C10.05 6 5.1 6 0 6 C0 4.02 0 2.04 0 0 Z " fill="#FFFFFF" transform="translate(12,201)"/>
<path d="M0 0 C3.81627222 1.90813611 5.8073828 3.56699263 8.75 6.5625 C9.54921875 7.36816406 10.3484375 8.17382812 11.171875 9.00390625 C13 11 13 11 13 12 C8.71 12 4.42 12 0 12 C0 8.04 0 4.08 0 0 Z " fill="#E6E4E3" transform="translate(132,159)"/>
<path d="M0 0 C4.95 0 9.9 0 15 0 C15 1.98 15 3.96 15 6 C10.05 6 5.1 6 0 6 C0 4.02 0 2.04 0 0 Z " fill="#FFFFFF" transform="translate(312,0)"/>
<path d="M0 0 C4.95 0 9.9 0 15 0 C15 1.98 15 3.96 15 6 C10.05 6 5.1 6 0 6 C0 4.02 0 2.04 0 0 Z " fill="#E6E6E6" transform="translate(297,0)"/>
<path d="M0 0 C4.95 0 9.9 0 15 0 C15 1.98 15 3.96 15 6 C10.05 6 5.1 6 0 6 C0 4.02 0 2.04 0 0 Z " fill="#FFFFFF" transform="translate(282,0)"/>
<path d="M0 0 C4.95 0 9.9 0 15 0 C15 1.98 15 3.96 15 6 C10.05 6 5.1 6 0 6 C0 4.02 0 2.04 0 0 Z " fill="#E6E6E6" transform="translate(267,0)"/>
<path d="M0 0 C4.95 0 9.9 0 15 0 C15 1.98 15 3.96 15 6 C10.05 6 5.1 6 0 6 C0 4.02 0 2.04 0 0 Z " fill="#FFFFFF" transform="translate(252,0)"/>
<path d="M0 0 C4.95 0 9.9 0 15 0 C15 1.98 15 3.96 15 6 C10.05 6 5.1 6 0 6 C0 4.02 0 2.04 0 0 Z " fill="#E6E6E6" transform="translate(237,0)"/>
<path d="M0 0 C4.95 0 9.9 0 15 0 C15 1.98 15 3.96 15 6 C10.05 6 5.1 6 0 6 C0 4.02 0 2.04 0 0 Z " fill="#FFFFFF" transform="translate(222,0)"/>
<path d="M0 0 C4.95 0 9.9 0 15 0 C15 1.98 15 3.96 15 6 C10.05 6 5.1 6 0 6 C0 4.02 0 2.04 0 0 Z " fill="#E6E6E6" transform="translate(207,0)"/>
<path d="M0 0 C4.95 0 9.9 0 15 0 C15 1.98 15 3.96 15 6 C10.05 6 5.1 6 0 6 C0 4.02 0 2.04 0 0 Z " fill="#FFFFFF" transform="translate(192,0)"/>
<path d="M0 0 C4.95 0 9.9 0 15 0 C15 1.98 15 3.96 15 6 C10.05 6 5.1 6 0 6 C0 4.02 0 2.04 0 0 Z " fill="#E6E6E6" transform="translate(177,0)"/>
<path d="M0 0 C4.95 0 9.9 0 15 0 C15 1.98 15 3.96 15 6 C10.05 6 5.1 6 0 6 C0 4.02 0 2.04 0 0 Z " fill="#FFFFFF" transform="translate(162,0)"/>
<path d="M0 0 C4.95 0 9.9 0 15 0 C15 1.98 15 3.96 15 6 C10.05 6 5.1 6 0 6 C0 4.02 0 2.04 0 0 Z " fill="#E6E6E6" transform="translate(147,0)"/>
<path d="M0 0 C4.95 0 9.9 0 15 0 C15 1.98 15 3.96 15 6 C10.05 6 5.1 6 0 6 C0 4.02 0 2.04 0 0 Z " fill="#FFFFFF" transform="translate(132,0)"/>
<path d="M0 0 C4.95 0 9.9 0 15 0 C15 1.98 15 3.96 15 6 C10.05 6 5.1 6 0 6 C0 4.02 0 2.04 0 0 Z " fill="#E6E6E6" transform="translate(117,0)"/>
<path d="M0 0 C4.95 0 9.9 0 15 0 C15 1.98 15 3.96 15 6 C10.05 6 5.1 6 0 6 C0 4.02 0 2.04 0 0 Z " fill="#FFFFFF" transform="translate(102,0)"/>
<path d="M0 0 C4.95 0 9.9 0 15 0 C15 1.98 15 3.96 15 6 C10.05 6 5.1 6 0 6 C0 4.02 0 2.04 0 0 Z " fill="#E6E6E6" transform="translate(87,0)"/>
<path d="M0 0 C4.95 0 9.9 0 15 0 C15 1.98 15 3.96 15 6 C10.05 6 5.1 6 0 6 C0 4.02 0 2.04 0 0 Z " fill="#FFFFFF" transform="translate(72,0)"/>
<path d="M0 0 C4.95 0 9.9 0 15 0 C15 1.98 15 3.96 15 6 C10.05 6 5.1 6 0 6 C0 4.02 0 2.04 0 0 Z " fill="#E6E6E6" transform="translate(57,0)"/>
<path d="M0 0 C4.95 0 9.9 0 15 0 C15 1.98 15 3.96 15 6 C10.05 6 5.1 6 0 6 C0 4.02 0 2.04 0 0 Z " fill="#FFFFFF" transform="translate(42,0)"/>
<path d="M0 0 C4.95 0 9.9 0 15 0 C15 1.98 15 3.96 15 6 C10.05 6 5.1 6 0 6 C0 4.02 0 2.04 0 0 Z " fill="#E6E6E6" transform="translate(27,0)"/>
<path d="M0 0 C3.3 0 6.6 0 10 0 C10 3.96 10 7.92 10 12 C6.07399037 10.03699519 3.90350441 8.22611601 1 5 C1 4.34 1 3.68 1 3 C0.34 3 -0.32 3 -1 3 C-0.67 2.01 -0.34 1.02 0 0 Z " fill="#FDF9F5" transform="translate(152,126)"/>
<path d="M0 0 C0.33 0 0.66 0 1 0 C1 4.29 1 8.58 1 13 C-2.96 13 -6.92 13 -11 13 C-10.113125 11.96875 -9.22625 10.9375 -8.3125 9.875 C-6.23870648 7.4621265 -4.19926452 5.02720565 -2.1875 2.5625 C-1.465625 1.716875 -0.74375 0.87125 0 0 Z " fill="#FEFAF6" transform="translate(266,83)"/>
<path d="M0 0 C3.63 0 7.26 0 11 0 C11 3.63 11 7.26 11 11 C6.18143349 9.0725734 4.2810619 7.82790555 1 4 C0.67 2.68 0.34 1.36 0 0 Z " fill="#FDF8F4" transform="translate(106,81)"/>
<path d="M0 0 C3.63 0 7.26 0 11 0 C11 3.63 11 7.26 11 11 C6.18143349 9.0725734 4.2810619 7.82790555 1 4 C0.67 2.68 0.34 1.36 0 0 Z " fill="#FDF8F4" transform="translate(91,66)"/>
<path d="M0 0 C3.96 0 7.92 0 12 0 C12 2 12 2 10.390625 3.65625 C9.68421875 4.2646875 8.9778125 4.873125 8.25 5.5 C7.55390625 6.1084375 6.8578125 6.716875 6.140625 7.34375 C4 9 4 9 0 11 C0 7.37 0 3.74 0 0 Z " fill="#FCF7F2" transform="translate(267,96)"/>
<path d="M0 0 C0 3.63 0 7.26 0 11 C-3.96 11 -7.92 11 -12 11 C-2.69230769 0 -2.69230769 0 0 0 Z " fill="#FEFBF8" transform="translate(192,160)"/>
<path d="M0 0 C0 3.63 0 7.26 0 11 C-3.96 11 -7.92 11 -12 11 C-2.69230769 0 -2.69230769 0 0 0 Z " fill="#FEFBF8" transform="translate(237,115)"/>
<path d="M0 0 C0 3.63 0 7.26 0 11 C-3.96 11 -7.92 11 -12 11 C-2.69230769 0 -2.69230769 0 0 0 Z " fill="#FEFBF8" transform="translate(252,100)"/>
<path d="M0 0 C3.63 0 7.26 0 11 0 C9.28771067 3.42457867 8.12304686 5.14918235 5.5 7.75 C4.58734375 8.67039063 4.58734375 8.67039063 3.65625 9.609375 C2 11 2 11 0 11 C0 7.37 0 3.74 0 0 Z " fill="#FDF7F2" transform="translate(237,126)"/>
<path d="M0 0 C3.63 0 7.26 0 11 0 C9.28771067 3.42457867 8.12304686 5.14918235 5.5 7.75 C4.58734375 8.67039062 4.58734375 8.67039062 3.65625 9.609375 C2 11 2 11 0 11 C0 7.37 0 3.74 0 0 Z " fill="#FDF7F2" transform="translate(252,111)"/>
<path d="M0 0 C0 2.77996107 -0.21297929 5.42492567 -0.5 8.1875 C-0.5928125 9.08855469 -0.685625 9.98960937 -0.78125 10.91796875 C-0.88953125 11.94857422 -0.88953125 11.94857422 -1 13 C-2.60397277 13.16852247 -4.2081869 13.33474886 -5.8125 13.5 C-6.70582031 13.5928125 -7.59914063 13.685625 -8.51953125 13.78125 C-11 14 -11 14 -14 14 C-9.38 9.38 -4.76 4.76 0 0 Z " fill="#BFE1DB" transform="translate(118,158)"/>
<path d="M0 0 C0 2.77996107 -0.21297929 5.42492567 -0.5 8.1875 C-0.5928125 9.08855469 -0.685625 9.98960938 -0.78125 10.91796875 C-0.88953125 11.94857422 -0.88953125 11.94857422 -1 13 C-2.60397277 13.16852247 -4.2081869 13.33474886 -5.8125 13.5 C-6.70582031 13.5928125 -7.59914062 13.685625 -8.51953125 13.78125 C-11 14 -11 14 -14 14 C-9.38 9.38 -4.76 4.76 0 0 Z " fill="#BFE1DB" transform="translate(208,68)"/>
<path d="M0 0 C0 2.77996107 -0.21297929 5.42492567 -0.5 8.1875 C-0.5928125 9.08855469 -0.685625 9.98960938 -0.78125 10.91796875 C-0.88953125 11.94857422 -0.88953125 11.94857422 -1 13 C-2.60397277 13.16852247 -4.2081869 13.33474886 -5.8125 13.5 C-6.70582031 13.5928125 -7.59914062 13.685625 -8.51953125 13.78125 C-11 14 -11 14 -14 14 C-9.38 9.38 -4.76 4.76 0 0 Z " fill="#BFE1DB" transform="translate(223,53)"/>
<path d="M0 0 C3.96 0 7.92 0 12 0 C12 1.98 12 3.96 12 6 C8.04 6 4.08 6 0 6 C0 4.02 0 2.04 0 0 Z " fill="#E6E6E6" transform="translate(0,201)"/>
<path d="M0 0 C3.96 0 7.92 0 12 0 C12 1.98 12 3.96 12 6 C8.04 6 4.08 6 0 6 C0 4.02 0 2.04 0 0 Z " fill="#E6E6E6" transform="translate(0,0)"/>
<path d="M0 0 C1.82675419 3.65350838 0.45509168 8.05587212 0 12 C-3.63 12.33 -7.26 12.66 -11 13 C-9.07859132 9.15718264 -7.4073184 7.19568073 -4.375 4.25 C-3.55773437 3.45078125 -2.74046875 2.6515625 -1.8984375 1.828125 C-0.95871094 0.92320313 -0.95871094 0.92320313 0 0 Z " fill="#DCE7E5" transform="translate(162,114)"/>
<path d="M0 0 C3.3 0 6.6 0 10 0 C10 2.97 10 5.94 10 9 C6.22089522 9 5.53893899 8.00296038 2.8125 5.5 C2.09707031 4.8503125 1.38164063 4.200625 0.64453125 3.53125 C0.10183594 3.0259375 -0.44085938 2.520625 -1 2 C-0.67 1.34 -0.34 0.68 0 0 Z " fill="#DAE4E3" transform="translate(47,96)"/>
<path d="M0 0 C2.97 0 5.94 0 9 0 C9 2.97 9 5.94 9 9 C6 9 6 9 4.17578125 7.46875 C3.56089844 6.8190625 2.94601563 6.169375 2.3125 5.5 C1.68988281 4.8503125 1.06726563 4.200625 0.42578125 3.53125 C-0.04472656 3.0259375 -0.51523438 2.520625 -1 2 C-0.67 1.34 -0.34 0.68 0 0 Z " fill="#DBE4E3" transform="translate(78,126)"/>
<path d="M0 0 C2.97 0 5.94 0 9 0 C9 2.97 9 5.94 9 9 C6 9 6 9 4.17578125 7.46875 C3.56089844 6.8190625 2.94601563 6.169375 2.3125 5.5 C1.68988281 4.8503125 1.06726563 4.200625 0.42578125 3.53125 C-0.04472656 3.0259375 -0.51523437 2.520625 -1 2 C-0.67 1.34 -0.34 0.68 0 0 Z " fill="#DBE4E3" transform="translate(63,111)"/>
<path d="M0 0 C3.93089159 3.2633817 6.91174115 5.88232154 10 10 C6.7 10 3.4 10 0 10 C0 6.7 0 3.4 0 0 Z " fill="#FFFFFF" transform="translate(207,161)"/>
<path d="M0 0 C3.93089159 3.2633817 6.91174115 5.88232154 10 10 C6.7 10 3.4 10 0 10 C0 6.7 0 3.4 0 0 Z " fill="#FFFFFF" transform="translate(117,71)"/>
<path d="M0 0 C3.93089159 3.2633817 6.91174115 5.88232154 10 10 C6.7 10 3.4 10 0 10 C0 6.7 0 3.4 0 0 Z " fill="#FFFFFF" transform="translate(102,56)"/>
<path d="M0 0 C4.29 0 8.58 0 13 0 C11.02 2.31 9.04 4.62 7 7 C1.53125 2.41015625 1.53125 2.41015625 0 1 C0 0.67 0 0.34 0 0 Z " fill="#E8DDD5" transform="translate(193,96)"/>
<path d="M0 0 C3.3 0 6.6 0 10 0 C8.11656068 3.76687864 7.30867531 4.79421646 4 7 C1.23609263 4.59660228 0.95934081 3.83736322 0 0 Z " fill="#FAF5F0" transform="translate(121,96)"/>
<path d="M0 0 C0.33 0 0.66 0 1 0 C1 2.64 1 5.28 1 8 C-1.64 8 -4.28 8 -7 8 C-6.02133662 6.85373678 -5.04205413 5.70800212 -4.0625 4.5625 C-3.51722656 3.92441406 -2.97195312 3.28632813 -2.41015625 2.62890625 C-1.63204305 1.73008851 -0.84063472 0.84063472 0 0 Z " fill="#E6E6E6" transform="translate(116,163)"/>
<path d="M0 0 C0.33 0 0.66 0 1 0 C1 2.64 1 5.28 1 8 C-1.64 8 -4.28 8 -7 8 C-6.02133662 6.85373678 -5.04205413 5.70800212 -4.0625 4.5625 C-3.51722656 3.92441406 -2.97195312 3.28632812 -2.41015625 2.62890625 C-1.63204305 1.73008851 -0.84063472 0.84063472 0 0 Z " fill="#E6E6E6" transform="translate(206,73)"/>
<path d="M0 0 C0.33 0 0.66 0 1 0 C1 2.64 1 5.28 1 8 C-1.64 8 -4.28 8 -7 8 C-6.02133662 6.85373678 -5.04205413 5.70800212 -4.0625 4.5625 C-3.51722656 3.92441406 -2.97195312 3.28632812 -2.41015625 2.62890625 C-1.63204305 1.73008851 -0.84063472 0.84063472 0 0 Z " fill="#E6E6E6" transform="translate(221,58)"/>
<path d="M0 0 C0 2.62834278 -0.19789762 5.08186701 -0.5 7.6875 C-0.5928125 8.49574219 -0.685625 9.30398437 -0.78125 10.13671875 C-0.8534375 10.75160156 -0.925625 11.36648437 -1 12 C-2.65 10.68 -4.3 9.36 -6 8 C-4.55746343 4.63408134 -2.66735273 2.48952921 0 0 Z " fill="#CEE1DD" transform="translate(193,83)"/>
<path d="M0 0 C1.65 1.32 3.3 2.64 5 4 C4.1875 5.9375 4.1875 5.9375 3 8 C2.01 8.33 1.02 8.66 0 9 C0 6.03 0 3.06 0 0 Z " fill="#FBFCFD" transform="translate(132,86)"/>
<path d="M0 0 C1.8125 1 1.8125 1 3.8125 4 C-3.8125 5 -3.8125 5 -7.1875 5 C-2.7972561 0 -2.7972561 0 0 0 Z " fill="#D2E0DB" transform="translate(126.1875,152)"/>
</svg>
