<svg width="62" height="62" viewBox="0 0 62 62" fill="none" xmlns="http://www.w3.org/2000/svg"><g clip-path="url(#clip0_1285_2)"><path d="M45.165 9.51172H16.835C12.5079 9.51172 9 12.938 9 17.1645V44.8356C9 49.0622 12.5079 52.4885 16.835 52.4885H45.165C49.4922 52.4885 53 49.0622 53 44.8356V17.1645C53 12.938 49.4922 9.51172 45.165 9.51172Z" fill="#316BFF"/><path d="M41.2141 38.2675V39.8487C41.2141 40.4713 40.6967 40.9767 40.0592 40.9767H25.3094C22.8813 40.8251 20.941 38.93 20.7858 36.5583V22.1515C20.7858 21.5288 21.3032 21.0234 21.9407 21.0234H23.5594C24.1969 21.0234 24.7143 21.5288 24.7143 22.1515V34.2065C24.7143 35.8273 26.0578 37.1395 27.7172 37.1395H40.0592C40.6967 37.1395 41.2141 37.6449 41.2141 38.2675Z" fill="white"/><path d="M40.059 21.0234H29.7977C29.1599 21.0234 28.6428 21.5285 28.6428 22.1515V23.7326C28.6428 24.3556 29.1599 24.8606 29.7977 24.8606H40.059C40.6969 24.8606 41.2139 24.3556 41.2139 23.7326V22.1515C41.2139 21.5285 40.6969 21.0234 40.059 21.0234Z" fill="white"/><path d="M38.2259 29.082H29.7977C29.1599 29.082 28.6428 29.587 28.6428 30.2101V31.7912C28.6428 32.4142 29.1599 32.9192 29.7977 32.9192H38.2259C38.8638 32.9192 39.3809 32.4142 39.3809 31.7912V30.2101C39.3809 29.587 38.8638 29.082 38.2259 29.082Z" fill="white"/></g><defs><clipPath id="clip0_1285_2"><rect width="44" height="44" fill="white" transform="translate(9 9)"/></clipPath></defs></svg>