<svg xmlns="http://www.w3.org/2000/svg" width="62" height="62" fill="none"><rect width="62" height="62" rx="31" fill="#fff"/><path d="M32.434 29.911l.007-.004.002-.002-.009.005zm-20.109 7.401l-.002-.022-.002-.011.004.033zm30.746.906c-.035.011-.073.013-.108.024l-.033.011.141-.035z" fill="#000"/><path d="M28.664 36.498c-.026-.052-.078-.13-.104-.181.052.078.078.13.104.181zm-.259-.493c-.026-.052-.052-.13-.104-.207.026.078.078.13.104.207zM13.309 46.146h-.181c-.648-.026-1.349-.389-1.427-.726-.13-.648.441-1.427 1.037-1.841.83-.545 1.79-.778 3.035-.778.311 0 .648.026 1.011.052-1.193 2.905-2.49 3.294-3.476 3.294zm12.657-28.063c.181-.285.389-.545.596-.778 1.193-1.375 1.842-1.608 2.127-1.608h.078c.493.078.571.311.597.415.052.182.078.389.052.597l-.026.259-.026.259a2.64 2.64 0 0 1-.622 1.427c-.934.986-2.412 1.634-3.968 1.712.337-.778.752-1.53 1.193-2.282zM52.317 43.76a.92.92 0 0 0-.259.052c-.96.363-1.971.674-2.957.934a29.58 29.58 0 0 1-3.683.674c-1.115.13-2.256.207-3.398.207-5.602 0-11.153-1.011-16.418-2.957-.674-.259-1.323-.493-1.919-.7-1.219-.415-2.308-.83-3.346-1.115.752-2.697 1.323-5.965 1.971-9.622l1.452-7.755a4.26 4.26 0 0 1 .078-.285 9.45 9.45 0 0 0 .856.052h.052a9.26 9.26 0 0 0 4.85-1.478c.415-.311.778-.674 1.141-1.037.83-.934 1.297-2.127 1.349-3.372v-.337h.026v-.233-.104-.156.104c0-.441-.052-.908-.182-1.323-.389-1.219-1.349-1.997-2.697-2.23a2.31 2.31 0 0 0-.571-.078c-1.997 0-3.631 1.919-4.15 2.542-.311.337-.571.726-.83 1.115-.726 1.167-1.323 2.412-1.815 3.709-.934-.052-1.867-.233-2.749-.545a15.79 15.79 0 0 1-3.164-1.608l-.026-.026h-.052c-.13-.052-.285.052-.337.182v.026c-.13.441.7 2.127.986 2.282.778.519 1.608.96 2.464 1.323a15.95 15.95 0 0 0 2.153.7c-.026.078-.026.13-.052.207-.571 2.723-1.037 5.317-1.478 7.833-.648 3.683-1.219 6.873-1.945 9.467-.622-.078-1.271-.13-1.893-.13-1.79 0-3.268.415-4.513 1.245-1.297.856-2.464 2.516-2.231 4.357 0 .104 0 .207.026.311.389 1.867 2.308 2.801 3.942 2.879h.285c4.098 0 5.68-4.098 6.199-5.447.96.285 2.075.674 3.294 1.115 4.331 1.53 10.245 3.631 17.274 3.631a35.45 35.45 0 0 0 12.501-2.282h.026c.363-.156.519-.571.363-.934-.104-.285-.337-1.193-.623-1.193z" fill="#152733"/></svg>