<svg xmlns="http://www.w3.org/2000/svg" width="62" height="62" fill="none"><path d="M51.063 49.486l-7.779-7.78c-.246-.241-.576-.376-.92-.376s-.674.135-.92.376l-7.779 7.78a1.26 1.26 0 0 0-.292 1.405 1.26 1.26 0 0 0 1.211.77h15.559a1.27 1.27 0 0 0 1.2-.774 1.27 1.27 0 0 0-.281-1.4z" fill="#c3c6cc"/><path d="M51.321 21.541l-2.437-7.234a2.55 2.55 0 0 0-.515-.886L10.425 51.365c.223.199.514.305.812.296h10.777a2.29 2.29 0 0 0 1.624-.665L50.805 23.83a2.18 2.18 0 0 0 .516-2.288z" fill="#e1e3e6"/><path d="M47.483 12.903l-7.234-2.436a2.18 2.18 0 0 0-2.288.517L10.793 38.15a2.3 2.3 0 0 0-.664 1.624v10.778c-.009.299.096.59.296.812L48.37 13.421a2.56 2.56 0 0 0-.887-.518z" fill="#c3c6cc"/></svg>