<svg width="62" height="62" viewBox="0 0 62 62" fill="none" xmlns="http://www.w3.org/2000/svg"><path d="M31.4994 9L33.4922 12.5251C33.8911 13.2546 33.8911 14.1459 33.4922 14.8751L21.6139 35.8232L27.2341 45.7096C28.111 47.2492 29.7453 48.2217 31.4994 48.2217C33.2532 48.2217 34.8875 47.2492 35.7644 45.7096L41.3849 35.8232L39.9099 33.1488L33.5322 44.3724C33.1337 45.1019 32.3366 45.5474 31.5392 45.5474C30.702 45.5474 29.9446 45.1019 29.5461 44.3724L24.6432 35.8232L35.6846 16.3745L37.6777 19.8995C38.0763 20.6287 38.0763 21.5201 37.6777 22.2496L29.9846 35.8232L31.4994 38.4973L39.8701 23.7486L45.3709 33.4325C46.208 34.9318 46.208 36.7552 45.3709 38.2543L39.7904 48.1004C38.9532 49.5994 36.2825 52.9625 31.4994 52.9625C26.716 52.9625 24.0851 49.5994 23.2082 48.1004L17.6277 38.2543C16.7908 36.7552 16.7908 34.9318 17.6277 33.4325L31.4994 9Z" fill="#E81C1C"/></svg>