<svg width="62" height="62" viewBox="0 0 62 62" fill="none" xmlns="http://www.w3.org/2000/svg">
<g clip-path="url(#clip0_101_1421)">
<path d="M9.49829 12.5225C9.49829 10.8213 10.9123 9.44144 12.6567 9.44144H49.0804C50.8247 9.44144 52.2388 10.8213 52.2388 12.5225V49.372C52.2388 51.0738 50.8247 52.4531 49.0804 52.4531H12.6567C10.9123 52.4531 9.49829 51.0738 9.49829 49.372V12.5225Z" fill="#006699"/>
<path fill-rule="evenodd" clip-rule="evenodd" d="M22.4543 45.4463V26.0241H15.9987V45.4463H22.4543ZM19.2264 23.3723C21.4776 23.3723 22.8788 21.8809 22.8788 20.0171C22.8369 18.1113 21.4776 16.6613 19.2691 16.6613C17.0609 16.6613 15.6171 18.1113 15.6171 20.0171C15.6171 21.8809 17.0179 23.3723 19.1844 23.3723H19.2264Z" fill="white"/>
<path fill-rule="evenodd" clip-rule="evenodd" d="M26.0264 45.4463H32.4819V34.6001C32.4819 34.0196 32.5238 33.4398 32.6943 33.0248C33.161 31.865 34.2232 30.6638 36.0065 30.6638C38.3425 30.6638 39.2769 32.4449 39.2769 35.0559V45.4463H45.732V34.3099C45.732 28.3443 42.5471 25.5683 38.2999 25.5683C34.8173 25.5683 33.2884 27.5149 32.4389 28.8408H32.4821V26.0241H26.0265C26.1113 27.8466 26.0264 45.4463 26.0264 45.4463Z" fill="white"/>
</g>
<defs>
<clipPath id="clip0_101_1421">
<rect width="43.4359" height="44" fill="white" transform="translate(9 9)"/>
</clipPath>
</defs>
</svg>
