<svg xmlns="http://www.w3.org/2000/svg" width="62" height="62" fill="none"><path d="M28.997 9.039c-9.99 1.087-17.771 8.196-19.704 17.979C9.104 28.019 9 29.364 9 31.021s.104 3.002.293 4.003c1.794 9.076 8.61 15.891 17.72 17.685 1.984.397 5.97.38 7.971 0 9.058-1.777 15.908-8.627 17.685-17.685.397-2.019.397-5.987 0-8.006-1.777-9.024-8.679-15.96-17.582-17.651-1.466-.276-4.866-.449-6.091-.328zm3.882 9.576c2.795.449 4.779 1.484 6.902 3.606 1.622 1.622 2.398 2.812 3.037 4.641 1.191 3.434.811 7.419-1.001 10.508-.742 1.26-3.226 3.744-4.486 4.486-3.813 2.243-8.886 2.243-12.699 0-1.259-.742-3.744-3.226-4.486-4.486-1.329-2.26-1.95-5.245-1.622-7.816.224-1.725.828-3.537 1.622-4.883.742-1.259 3.227-3.744 4.486-4.486 2.45-1.449 5.487-2.019 8.247-1.57z" fill="#0055d4"/></svg>
