<svg width="62" height="62" viewBox="0 0 62 62" fill="none" xmlns="http://www.w3.org/2000/svg"><rect width="62" height="62" rx="31" fill="white"/><g clip-path="url(#clip0_2464_126)"><path fill-rule="evenodd" clip-rule="evenodd" d="M9 9H53V53H9V9Z" fill="white"/><path d="M52.2496 25.3676C49.1549 23.2038 43.9023 22.1693 38.9313 21.699C45.5904 17.1836 48.4045 17.7483 48.4045 17.7483C45.0277 13.7032 42.4009 12.4805 42.4009 12.4805C38.5558 12.7626 33.5848 16.1492 29.8331 19.2531C31.4278 11.0691 34.0541 9.47044 34.0541 9.47044C31.3339 9.094 28.6143 9.18835 25.9879 9.75253C24.4871 11.3512 23.4555 13.9853 22.7989 16.8072L18.8599 12.9508C16.4214 14.4556 14.3578 16.5251 12.7635 18.7833L16.8902 22.8279C10.9815 24.2388 9.57448 26.12 9.57448 26.12C8.9179 28.7537 8.82404 31.3878 9.29337 34.0215C10.7943 31.8581 15.1082 30.5411 19.0477 29.8825C12.0131 38.3486 12.1069 42.2993 12.1069 42.2993C13.5139 44.557 15.2959 46.5326 17.4529 48.2256C17.4529 45.592 19.2349 42.1111 21.4863 38.9133C22.4239 48.3195 25.2375 51.9881 25.2375 51.9881C27.8638 52.6467 30.584 52.9288 33.3042 52.6467C30.0213 48.978 29.0831 40.0416 28.8015 34.8682L43.1519 48.978C45.4966 47.3794 47.5602 45.4038 49.1544 43.0517L35.0857 28.9424C49.3422 29.5066 52.8128 33.3629 52.8128 33.3629C53.1878 30.7293 53 28.0013 52.2496 25.3676Z" fill="#010101"/></g><defs><clipPath id="clip0_2464_126"><rect width="44" height="44" fill="white" transform="translate(9 9)"/></clipPath></defs></svg>