<svg width="341" height="341" viewBox="0 0 341 341" fill="none" xmlns="http://www.w3.org/2000/svg">
<path d="M155.333 0.79999C78.1333 9.19999 18 64.1333 3.06665 139.733C1.59999 147.467 0.799988 157.867 0.799988 170.667C0.799988 183.467 1.59999 193.867 3.06665 201.6C16.9333 271.733 69.6 324.4 140 338.267C155.333 341.333 186.133 341.2 201.6 338.267C271.6 324.533 324.533 271.6 338.267 201.6C341.333 186 341.333 155.333 338.267 139.733C324.533 70 271.2 16.4 202.4 3.33332C191.067 1.19999 164.8 -0.133343 155.333 0.79999ZM185.333 74.8C206.933 78.2667 222.267 86.2667 238.667 102.667C251.2 115.2 257.2 124.4 262.133 138.533C271.333 165.067 268.4 195.867 254.4 219.733C248.667 229.467 229.467 248.667 219.733 254.4C190.267 271.733 151.067 271.733 121.6 254.4C111.867 248.667 92.6666 229.467 86.9333 219.733C76.6666 202.267 71.8667 179.2 74.4 159.333C76.1333 146 80.8 132 86.9333 121.6C92.6666 111.867 111.867 92.6667 121.6 86.9333C140.533 75.7333 164 71.3333 185.333 74.8Z" fill="#0055D4"/>
</svg>
