<svg width="62" height="62" viewBox="0 0 62 62" fill="none" xmlns="http://www.w3.org/2000/svg"><path fill-rule="evenodd" clip-rule="evenodd" d="M53.0005 32.3518C53.0005 37.0333 49.4421 40 45.6862 40C43.6529 40 41.8736 39.129 40.8569 37.6592L40.187 39.7006H37.0163L37.0156 21L41.0276 21V26.8279C42.0562 25.5222 43.6898 24.7036 45.658 24.7036C49.4987 24.7036 53.0005 27.6703 53.0005 32.3518ZM40.6594 32.3246C40.6594 34.6108 42.495 36.4617 44.8955 36.4617C47.2394 36.4617 49.1033 34.6381 49.1033 32.3246C49.1033 30.011 47.2394 28.1875 44.8955 28.1875C42.495 28.1875 40.6594 30.0383 40.6594 32.3246Z" fill="#4131F1"/><path d="M9.00065 39.7006L17.7241 39.7005L18.9384 35.9717L13.0109 35.9718L13.0102 21H9L9.00065 39.7006Z" fill="#4131F1"/><path fill-rule="evenodd" clip-rule="evenodd" d="M27.3532 40C31.9564 40 35.43 36.5706 35.43 32.3518C35.43 28.1059 31.9 24.7036 27.3532 24.7036C22.7782 24.7036 19.3047 28.1059 19.3047 32.3518C19.3047 36.5706 22.7782 40 27.3532 40ZM27.3815 36.4345C25.0374 36.4345 23.2019 34.6109 23.2019 32.3246C23.2019 30.0383 25.0374 28.2147 27.3815 28.2147C29.6971 28.2147 31.5611 30.0383 31.5611 32.3246C31.5611 34.6109 29.6971 36.4345 27.3815 36.4345Z" fill="#4131F1"/></svg>