<svg width="62" height="62" viewBox="0 0 62 62" fill="none" xmlns="http://www.w3.org/2000/svg"><path d="M30.544 9C29.1238 9.00063 27.8196 9.78413 27.1521 11.0377C26.4846 12.2913 26.5625 13.8107 27.3547 14.9895L28.9968 13.3497C28.9426 13.1861 28.9152 13.0148 28.9158 12.8424C28.9158 11.947 29.6416 11.2212 30.537 11.2212C31.4325 11.2212 32.1583 11.947 32.1583 12.8424C32.1583 13.7378 31.4325 14.4637 30.537 14.4637C30.3655 14.4641 30.195 14.4367 30.0321 14.3826L28.3923 16.0224C29.7579 16.9486 31.5623 16.8995 32.8755 15.9005C34.1887 14.9015 34.7175 13.1757 34.1894 11.6125C33.6612 10.0493 32.194 8.99781 30.544 9Z" fill="#34A853"/><path d="M29.0153 20.1988C29.0178 18.9009 28.5975 17.6374 27.8179 16.5996L25.6871 18.7281C26.3534 19.9469 26.1136 21.4619 25.1034 22.4154L26.2614 25.2456C27.9773 24.1406 29.0145 22.2397 29.0153 20.1988Z" fill="#FBBC04"/><path d="M23.0606 23.2524H23.0051C21.6981 23.2525 20.5356 22.4218 20.1123 21.1852C19.689 19.9487 20.0986 18.5799 21.1315 17.779C22.1644 16.9782 23.5921 16.9225 24.6842 17.6405L26.7942 15.5305C24.7425 13.8672 21.8451 13.7388 19.6544 15.2143C17.4637 16.6898 16.4936 19.4229 17.2638 21.9494C18.0339 24.4758 20.3638 26.203 23.0051 26.2054C23.4126 26.2056 23.8191 26.1653 24.2187 26.085L23.0606 23.2524Z" fill="#EA4335"/><path d="M30.625 25.7015C29.2914 25.7002 27.9648 25.8945 26.6876 26.2782L28.3761 30.4032C29.1111 30.2211 29.8655 30.1293 30.6227 30.1299C35.0103 30.1312 38.786 33.2315 39.641 37.5349C40.496 41.8384 38.1921 46.1465 34.1383 47.8249C30.0845 49.5033 25.4095 48.0845 22.9723 44.4362C20.535 40.7879 21.0142 35.9259 24.1168 32.8236C24.7641 32.1782 25.5032 31.6319 26.3101 31.2023L24.6402 27.0889C18.4155 30.1374 15.4683 37.3707 17.79 43.9014C20.1117 50.4321 26.9634 54.1818 33.7156 52.617C40.4677 51.0522 44.9715 44.6708 44.1839 37.7846C43.3962 30.8984 37.5677 25.6989 30.6366 25.6992L30.625 25.7015Z" fill="#4285F4"/></svg>