<?xml version="1.0" encoding="UTF-8"?>
<svg xmlns="http://www.w3.org/2000/svg" xmlns:xlink="http://www.w3.org/1999/xlink" width="62px" height="62px" viewBox="0 0 62 62" version="1.1">
<g id="surface1">
<path style=" stroke:none;fill-rule:nonzero;fill:rgb(38.431373%,36.470589%,96.078432%);fill-opacity:1;" d="M 58.125 27.984375 L 42.261719 27.984375 L 56 20.054688 L 52.984375 14.820312 L 39.246094 22.757812 L 47.175781 9.015625 L 41.945312 6 L 34.023438 19.734375 L 34.023438 3.875 L 27.976562 3.875 L 27.976562 19.738281 L 20.050781 6 L 14.824219 9.015625 L 22.753906 22.753906 L 9.015625 14.824219 L 6 20.050781 L 19.738281 27.980469 L 3.875 27.980469 L 3.875 34.015625 L 19.734375 34.015625 L 6 41.945312 L 9.015625 47.179688 L 22.753906 39.246094 L 14.820312 52.984375 L 20.054688 56 L 27.980469 42.261719 L 27.980469 58.125 L 34.015625 58.125 L 34.015625 42.261719 L 41.945312 56 L 47.175781 52.984375 L 39.242188 39.242188 L 52.980469 47.175781 L 55.996094 41.945312 L 42.261719 34.019531 L 58.121094 34.019531 Z M 31 39.207031 C 26.449219 39.207031 22.761719 35.519531 22.761719 30.96875 C 22.761719 26.417969 26.449219 22.730469 31 22.730469 C 35.550781 22.730469 39.238281 26.417969 39.238281 30.96875 C 39.238281 35.519531 35.550781 39.207031 31 39.207031 Z M 31 39.207031 "/>
</g>
</svg>
