<svg width="62" height="62" viewBox="0 0 62 62" fill="none" xmlns="http://www.w3.org/2000/svg"><path d="M52.1873 21.2568C52.1878 22.8666 51.8685 24.4607 51.2479 25.9481C50.6271 27.4356 49.7172 28.7871 48.5699 29.9256C47.4223 31.064 46.0603 31.9671 44.561 32.5833C43.0619 33.1993 41.4551 33.5166 39.8321 33.5166C36.5552 33.5157 33.4125 32.2236 31.0955 29.9247C28.7786 27.6256 27.477 24.5077 27.477 21.2568C27.477 18.0061 28.7787 14.8885 31.0957 12.5899C33.4127 10.2913 36.5554 9 39.8321 9C43.109 9 46.2517 10.2913 48.5688 12.5899C50.8858 14.8885 52.1873 18.0061 52.1873 21.2568ZM18.7626 43.5552V18.3864H9V53H43.5382V43.5552H18.7626Z" fill="url(#paint0_linear_2025_20)"/><defs><linearGradient id="paint0_linear_2025_20" x1="8.90696" y1="52.9076" x2="48.7371" y2="12.7576" gradientUnits="userSpaceOnUse"><stop stop-color="#EE0979"/><stop offset="0.14" stop-color="#EF0E78"/><stop offset="0.3" stop-color="#F01B74"/><stop offset="0.47" stop-color="#F2326F"/><stop offset="0.65" stop-color="#F65267"/><stop offset="0.83" stop-color="#FA7A5C"/><stop offset="1" stop-color="#FFA751"/></linearGradient></defs></svg>