<svg xmlns="http://www.w3.org/2000/svg" width="62" height="62" fill="none"><rect width="62" height="62" rx="31" fill="#fff"/><g fill="#000"><path d="M15.951 36.617c.119.016.293-.07.402-.367l.031-.095c.048-.156.139-.446.286-.678a1.26 1.26 0 0 1 1.052-.572 1.25 1.25 0 0 1 .689.207c.484.321.669.915.464 1.485-.108.295-.28.858-.244 1.32.079.939.653 1.315 1.166 1.357.5.018.851-.266.939-.473.055-.119.009-.194-.018-.227l.002-.002c-.077-.097-.205-.068-.328-.039a1.22 1.22 0 0 1-.293.04.64.64 0 0 1-.534-.27l-.002-.002c-.143-.22-.134-.548.022-.924l.073-.169c.253-.565.673-1.513.202-2.415-.354-.678-.933-1.104-1.63-1.192a2 2 0 0 0-.264-.017 2.08 2.08 0 0 0-1.529.667l-.002.002c-.693.766-.801 1.811-.665 2.182.05.134.127.172.181.18zm25.214-5.053c-.007.431.24.785.552.79s.574-.339.581-.77-.242-.785-.554-.792-.574.339-.579.772zm-.132-1.773c.301-.038.605-.038.906 0 .163-.376.191-1.023.044-1.727-.22-1.047-.512-1.681-1.12-1.582s-.633.858-.413 1.905c.123.588.341 1.093.583 1.404zm-22.121 13.41c2.565 5.94 8.424 9.585 15.296 9.79 7.372.22 13.559-3.256 16.154-9.5.17-.44.889-2.414.889-4.156 0-1.753-.984-2.479-1.611-2.479-.018-.068-.141-.524-.312-1.074l-.346-.935c.686-1.032.697-1.954.607-2.475-.099-.647-.365-1.199-.906-1.767s-1.644-1.155-3.197-1.591l-.814-.227c-.004-.033-.042-1.93-.079-2.744-.024-.587-.075-1.507-.358-2.411-.337-1.226-.926-2.297-1.663-2.983 2.028-2.112 3.294-4.44 3.291-6.437-.005-3.841-4.699-5.005-10.483-2.596l-1.225.522-2.037-2.007-.211-.205C25.308 4.141 4.692 27.172 11.283 32.767l1.443 1.225c-.284.739-.447 1.593-.447 2.488a7.44 7.44 0 0 0 .046.812c.158 1.536.946 3.005 2.224 4.142 1.214 1.082 2.812 1.769 4.363 1.767zM40.54 22.524c.059-.009.204-.062.493-.048.312.013.594.11.836.27.972.651 1.109 2.226 1.161 3.381l.136 2.71c.062 1.045.335 1.192.889 1.375.31.104.601.181 1.027.301 1.289.365 2.051.733 2.534 1.208a1.6 1.6 0 0 1 .462.911c.154 1.115-.858 2.491-3.542 3.742-2.933 1.368-6.488 1.714-8.945 1.439l-.86-.097c-1.965-.266-3.085 2.286-1.909 4.035.761 1.127 2.833 1.861 4.902 1.861 4.752 0 8.402-2.037 9.761-3.799l.11-.156c.066-.101.011-.156-.073-.099-1.109.763-6.037 3.793-11.312 2.88 0 0-.64-.105-1.225-.334-.464-.181-1.435-.631-1.553-1.634 4.253 1.322 6.932.072 6.932.072l.002.002c.046-.022.077-.068.077-.121-.005-.073-.059-.121-.123-.121-.015 0-3.502.519-6.796-.695.357-1.172 1.313-.748 2.755-.631.356.022.772.035 1.192.035a20.05 20.05 0 0 0 5.495-.77c1.487-.434 3.426-1.278 4.941-2.475.511 1.133.695 2.38.695 2.38s.396-.072.73.134c.312.194.543.598.385 1.641-.319 1.949-1.144 3.531-2.53 4.987a10.48 10.48 0 0 1-2.979 2.253l-.061.028a12.35 12.35 0 0 1-1.892.818l-.092.026c-5.223 1.714-10.569-.171-12.292-4.217a5.82 5.82 0 0 1-.335-.911l-.011-.046c-.733-2.667-.11-5.867 1.841-7.881.119-.128.242-.281.242-.469 0-.16-.101-.326-.187-.445-.682-.994-3.045-2.688-2.568-5.966.339-2.356 2.391-4.013 4.299-3.914l.484.027c.829.05 1.549.156 2.233.185 1.14.049 2.165-.117 3.381-1.135.409-.343.737-.642 1.292-.735zM35.42 16.6c.073-.005.11.09.05.136-.282.218-.535.473-.752.757-.009.013-.015.027-.015.044 0 .04.031.072.072.073 1.201.009 2.895.431 3.999 1.054.073.042.022.187-.062.169-1.67-.385-4.404-.678-7.243.018-2.535.622-4.47 1.58-5.881 2.613-.072.053-.154-.04-.099-.108 1.635-1.899 3.648-3.549 5.449-4.475.062-.031.128.037.095.097-.145.26-.42.819-.506 1.241-.002.057.031.09.072.09.015 0 .029-.004.04-.013 1.122-.768 3.071-1.591 4.783-1.696zM11.894 31.205c-1.274-2.429 1.388-7.154 3.249-9.821 4.6-6.593 11.796-11.583 15.131-10.677.541.154 2.336 2.244 2.336 2.244s-3.331 1.857-6.422 4.448c-4.163 3.221-7.308 7.904-9.192 12.986-1.479.288-2.783 1.131-3.58 2.295-.475-.4-1.362-1.173-1.52-1.474zm5.489.759c.238-.05.513-.079.794-.079a5.11 5.11 0 0 1 .216.005h-.011c1.333.073 3.294 1.1 3.742 4.017.396 2.581-.235 5.212-2.642 5.625v-.002a3.36 3.36 0 0 1-.596.051c-.031 0-.062 0-.092-.002h.004c-2.226-.06-4.631-2.073-4.869-4.464-.264-2.64 1.078-4.671 3.454-5.152zm16.872-2.652c-.678 0-1.303.224-1.813.596-.291.215-.565.512-.528.691.015.059.057.103.16.117.242.027 1.08-.398 2.046-.458.684-.042 1.25.172 1.685.365s.704.317.809.207c.068-.07.048-.202-.055-.372-.216-.354-.658-.711-1.127-.911a3.02 3.02 0 0 0-1.175-.235zm5.012 3.656c.383.191.808.116.946-.165s-.062-.667-.447-.856-.809-.116-.946.165.062.667.447.856zm-4.336-1.841l-.004-.004c-.567.092-.88.279-1.08.453-.172.15-.279.317-.279.434l.044.105.093.037c.128 0 .416-.117.416-.117a3.52 3.52 0 0 1 1.276-.233 3.5 3.5 0 0 1 .574.046l-.02-.002c.284.033.42.051.48-.048.018-.027.042-.09-.015-.183-.132-.216-.706-.581-1.487-.488z"/><path d="M32.434 29.911l.007-.004.002-.002-.009.005zm-20.109 7.401l-.002-.022-.002-.011.004.033zm30.746.906c-.035.011-.073.013-.108.024l-.033.011.141-.035z"/></g></svg>