<svg xmlns="http://www.w3.org/2000/svg" width="62" height="62" fill="none"><path d="M51.939 45.783h-7.661c-.585 0-1.058-.473-1.058-1.058V16.444c.003-.582.476-1.051 1.058-1.054h7.661A1.06 1.06 0 0 1 53 16.444v28.281c0 .582-.469 1.058-1.054 1.058h-.006z" fill="url(#A)"/><path d="M16.427 45.887l-6.845-3.446a1.06 1.06 0 0 1-.469-1.421l12.696-25.256a1.06 1.06 0 0 1 1.421-.469l6.845 3.44a1.06 1.06 0 0 1 .469 1.421L17.845 45.418a1.06 1.06 0 0 1-1.421.469h.003z" fill="url(#B)"/><path d="M36.643 45.318l5.427-27.539c.113-.572-.257-1.125-.826-1.241l-7.51-1.517a1.06 1.06 0 0 0-1.247.833l-5.427 27.542c-.113.572.257 1.125.829 1.241l7.507 1.514a1.06 1.06 0 0 0 1.247-.823v-.01z" fill="url(#C)"/><defs><linearGradient id="A" x1="33.926" y1="35.817" x2="54.598" y2="28.195" gradientUnits="userSpaceOnUse"><stop offset=".02" stop-color="#b02de9"/><stop offset=".8" stop-color="#6d00cc"/></linearGradient><linearGradient id="B" x1="15.784" y1="32.339" x2="38.006" y2="22.73" gradientUnits="userSpaceOnUse"><stop stop-color="#f0f"/><stop offset=".18" stop-color="#e80df9"/><stop offset=".54" stop-color="#c024ed"/><stop offset=".73" stop-color="#b02de9"/></linearGradient><linearGradient id="C" x1="10.599" y1="39.409" x2="56.151" y2="22.637" gradientUnits="userSpaceOnUse"><stop offset=".02" stop-color="#f0f"/><stop offset=".09" stop-color="#e80df9"/><stop offset=".23" stop-color="#c024ed"/><stop offset=".3" stop-color="#b02de9"/><stop offset=".42" stop-color="#a42be3"/><stop offset=".63" stop-color="#8527d5"/><stop offset=".85" stop-color="#6021c3"/></linearGradient></defs></svg>