<svg width="62" height="62" viewBox="0 0 62 62" fill="none" xmlns="http://www.w3.org/2000/svg"><path d="M9.14062 11.0781H52.9428V49.8603H9.14062V11.0781Z" fill="#E6E6E1"/><path d="M52.9425 11.0783H9.14062L31.0428 43.088L52.9425 11.0783Z" fill="#D8D8D3"/><path d="M26.4142 49.8603H35.6828L31.0487 43.0879L26.4142 49.8603Z" fill="#B4B6B4"/><path d="M31.0544 31.4227L21.7109 17.709V29.481L27.0463 37.3177L31.0453 31.4344L31.0544 31.4227Z" fill="#1A1918"/><path d="M31.0547 31.4227L35.0786 37.3302L40.3799 29.5792V17.709L31.0547 31.4229" fill="#ED9D4A"/><path d="M31.0461 31.4353L27.0469 37.3186L31.0591 43.2093L35.0789 37.3312L31.055 31.4238L31.0459 31.4353" fill="#BB7731"/><path d="M15.0703 43.2255H21.7059V29.4823L15.0703 19.7422V43.2255Z" fill="#4CB2D4"/><path d="M15.0703 17.709V19.7411L21.7059 29.481V17.709H15.0703Z" fill="#1B82AD"/><path d="M40.375 29.5797V43.2245H47.0082V19.8828L40.375 29.5797Z" fill="#C02439"/><path d="M47.008 17.709H40.375V29.5792L47.0082 19.8823V17.709" fill="#8F202F"/></svg>
