<svg width="62" height="62" viewBox="0 0 62 62" fill="none" xmlns="http://www.w3.org/2000/svg"><rect width="62" height="62" rx="31" fill="white"/><path fill-rule="evenodd" clip-rule="evenodd" d="M43.9347 13.212L44.1757 17.8721C47.952 22.0501 49.4518 27.9689 47.5771 33.5396C44.7649 41.842 35.4984 46.2074 26.8478 43.2882C18.1972 40.369 13.5103 31.2631 16.3224 22.9607C18.224 17.3632 23.0179 13.5602 28.5886 12.5692L31.5882 9.00722C22.1877 8.76618 13.3496 14.5779 10.1626 23.9516C6.27918 35.4679 12.439 47.9483 23.9553 51.8317C35.4716 55.7151 47.952 49.5552 51.8354 38.0389C54.9957 28.7188 51.514 18.7023 43.9347 13.212Z" fill="#1B1D21"/><path fill-rule="evenodd" clip-rule="evenodd" d="M38.5525 26.9776L38.3918 20.4428L38.2579 16.6933L38.1775 13.4259C38.1775 13.4259 38.2043 11.8458 38.1508 11.4976C38.1508 11.4173 38.124 11.3637 38.0972 11.3101V11.2833V11.2566C38.0436 11.1494 37.9365 11.0691 37.8294 11.0155C37.6955 10.962 37.5615 10.9887 37.4544 11.0423C37.4544 11.0423 37.4276 11.0423 37.4276 11.0691C37.3741 11.0959 37.3205 11.1227 37.2669 11.1762C36.9991 11.444 36.0618 12.7028 36.0618 12.7028L34.0263 15.2471L31.6427 18.1663L27.5451 23.2549C27.5451 23.2549 25.6703 25.5849 26.0721 28.4774C26.4738 31.3699 28.6431 32.7625 30.3036 33.325C31.9641 33.8874 34.5352 34.0748 36.5974 32.0394C38.606 29.9772 38.5525 26.9776 38.5525 26.9776Z" fill="#1B1D21"/></svg>