<svg width="62" height="62" viewBox="0 0 62 62" fill="none" xmlns="http://www.w3.org/2000/svg"><rect width="62" height="62" rx="31" fill="white"/><path d="M21.9571 9L19.8875 11.0653L26.546 17.6204V23.1878L25.8262 23.8163L16.4683 14.4776L14.3988 16.5429L23.7566 25.8816L23.2168 26.5102H17.728L11.0695 19.8653L9 21.9306L16.4683 29.3837H29.4254V16.3633L21.9571 9Z" fill="black"/><path d="M40.0464 9L42.116 11.0653L35.4575 17.6204V23.1878L36.1773 23.8163L45.5352 14.4776L47.5147 16.4531L38.2468 25.8816L38.7867 26.5102H44.2755L50.934 19.8653L53.0035 21.9306L45.5352 29.3837H32.5781V16.3633L40.0464 9Z" fill="black"/><path d="M21.9571 52.9999L19.8875 50.9346L26.546 44.3795V38.8121L25.8262 38.1836L16.4683 47.5223L14.3988 45.457L23.7566 36.1183L23.2168 35.4897H17.728L11.0695 42.1346L9 40.0693L16.4683 32.6162H29.4254V45.6366L21.9571 52.9999Z" fill="black"/><path d="M40.0464 52.9999L42.116 50.9346L35.4575 44.3795V38.8121L36.1773 38.1836L45.5352 47.5223L47.5147 45.5468L38.2468 36.1183L38.7867 35.4897H44.2755L50.934 42.1346L53.0035 40.0693L45.5352 32.6162H32.5781V45.6366L40.0464 52.9999Z" fill="black"/></svg>