<svg xmlns="http://www.w3.org/2000/svg" width="62" height="62" fill="none" xmlns:v="https://vecta.io/nano"><rect width="62" height="62" rx="31" fill="#fff"/><path d="M32.655 9.165c-1.135.292-2.261.89-3.144 1.654-.362.307-14.93 14.567-17.341 16.97-.945.946-1.04 1.064-1.127 1.434a1.54 1.54 0 0 0 2.3 1.654c.15-.087 3.742-3.569 7.981-7.729l11.101-10.612A4.47 4.47 0 0 1 34.678 12c.867 0 1.395.126 2.159.504 1.064.536 1.851 1.442 2.253 2.592a3.47 3.47 0 0 1 .228 1.442 4.04 4.04 0 0 1-.536 2.198c-.355.678-.181.504-8.162 8.32l-6.326 6.35a1.88 1.88 0 0 0 .008 1.229c.142.347.607.741 1.008.843.394.11.89.047 1.206-.15.134-.079 3.341-3.191 7.138-6.917l7.367-7.059c.733-.441 1.371-.63 2.285-.67 1.355-.055 2.482.354 3.467 1.276 1.45 1.347 1.899 3.301 1.166 5.121-.37.922.425.102-11.518 11.818l-6.051 6.082c-.678 1.158-.662 2.632.047 3.735.142.221 1.103 1.229 2.143 2.245 1.702 1.662 1.938 1.867 2.293 1.97.938.276 1.867-.299 1.993-1.245.095-.685-.024-.867-2.017-2.852-2.064-2.064-2.04-2.025-1.473-2.592a985.76 985.76 0 0 1 4.664-4.585l11.826-11.707c1.04-1.339 1.552-2.876 1.552-4.633 0-2.726-1.387-5.129-3.805-6.602-1.253-.756-2.679-1.135-4.239-1.111l-.882.008-.024-1.127c-.032-1.623-.37-2.758-1.198-4.057-.378-.591-1.347-1.599-1.977-2.048a9.43 9.43 0 0 0-2.584-1.213c-.867-.221-3.199-.221-4.034 0zm1.394 5.996c-.26.102-.457.291-5.05 4.798l-9.202 9.139c-.512.63-1.135 1.875-1.363 2.718-.252.953-.291 2.458-.087 3.443.299 1.426.89 2.553 1.907 3.632a7.11 7.11 0 0 0 2.371 1.749c1.229.575 1.859.709 3.38.709 1.111 0 1.395-.032 1.97-.181a9.34 9.34 0 0 0 2.521-1.158c.701-.465 14.134-13.606 14.402-14.079a1.53 1.53 0 0 0 .173-.646c-.008-.599-.449-1.261-.969-1.458-.331-.126-1.008-.102-1.292.055-.134.071-3.262 3.088-6.941 6.697l-6.988 6.791c-.748.591-1.82.946-2.876.946-2.576 0-4.64-1.985-4.672-4.491a4.37 4.37 0 0 1 .764-2.624c.157-.236 3.214-3.293 7.059-7.059l6.894-6.854c.394-.764.039-1.788-.725-2.103a2.35 2.35 0 0 0-1.276-.024z" fill="#000"/></svg>