<?xml version="1.0" standalone="no"?>
<!DOCTYPE svg PUBLIC "-//W3C//DTD SVG 20010904//EN"
 "http://www.w3.org/TR/2001/REC-SVG-20010904/DTD/svg10.dtd">
<svg version="1.0" xmlns="http://www.w3.org/2000/svg"
 width="560.000000pt" height="560.000000pt" viewBox="0 0 560.000000 560.000000"
 preserveAspectRatio="xMidYMid meet">

<!-- White background -->
<rect width="100%" height="100%" fill="#ffffff"/>

<g transform="translate(0.000000,560.000000) scale(0.100000,-0.100000)"
fill="#000000" stroke="none">
<path d="M2984 5580 c-144 -37 -287 -113 -399 -210 -46 -39 -1895 -1849 -2201
-2154 -120 -120 -132 -135 -143 -182 -40 -168 145 -301 292 -210 19 11 475
453 1013 981 1394 1367 1327 1304 1409 1347 95 49 174 68 286 68 110 0 177
-16 274 -64 135 -68 235 -183 286 -329 24 -69 29 -98 29 -183 0 -116 -15 -176
-68 -279 -45 -86 -23 -64 -1036 -1056 -489 -480 -794 -786 -803 -806 -17 -41
-17 -115 1 -156 18 -44 77 -94 128 -107 50 -14 113 -6 153 19 17 10 424 405
906 878 616 605 894 870 935 896 93 56 174 80 290 85 172 7 315 -45 440 -162
184 -171 241 -419 148 -650 -47 -117 54 -13 -1462 -1500 -445 -437 -753 -746
-768 -772 -86 -147 -84 -334 6 -474 18 -28 140 -156 272 -285 216 -211 246
-237 291 -250 119 -35 237 38 253 158 12 87 -3 110 -256 362 -262 262 -259
257 -187 329 23 24 290 286 592 582 1216 1191 1459 1431 1501 1486 132 170
197 365 197 588 0 346 -176 651 -483 838 -159 96 -340 144 -538 141 l-112 -1
-3 143 c-4 206 -47 350 -152 515 -48 75 -171 203 -251 260 -83 59 -233 130
-328 154 -110 28 -406 28 -512 0z"/>
<path d="M3161 4819 c-33 -13 -58 -37 -641 -609 -993 -973 -1116 -1095 -1168
-1160 -65 -80 -144 -238 -173 -345 -32 -121 -37 -312 -11 -437 38 -181 113
-324 242 -461 101 -107 177 -163 301 -222 156 -73 236 -90 429 -90 141 0 177
4 250 23 103 28 227 85 320 147 89 59 1794 1727 1828 1787 13 24 22 58 22 82
-1 76 -57 160 -123 185 -42 16 -128 13 -164 -7 -17 -9 -414 -392 -881 -850
-468 -458 -867 -846 -887 -862 -95 -75 -231 -120 -365 -120 -327 0 -589 252
-593 570 -1 129 28 229 97 333 20 30 408 418 896 896 473 464 867 855 875 870
50 97 5 227 -92 267 -37 16 -126 17 -162 3z"/>
</g>
</svg>
