<svg xmlns="http://www.w3.org/2000/svg" width="62" height="62" fill="none" xmlns:v="https://vecta.io/nano"><rect width="62" height="62" rx="31" fill="#fff"/><g fill="#000"><use href="#B"/><use href="#B"/></g><defs ><path id="B" d="M41.928 30.903c0-1.644 1.112-2.756 2.804-2.756 1.547 0 2.611 1.112 2.611 2.756 0 1.596-1.064 2.659-2.611 2.659-1.692 0-2.804-1.064-2.804-2.659zm-4.158-8.607c.967-1.402 1.596-3.094 1.596-5.464 2.369 1.402 4.352 3.385 5.754 5.754-2.321 0-4.013.628-5.415 1.644a9.17 9.17 0 0 0-1.934-1.934zm-.097 17.31c.725-.532 1.354-1.209 1.934-1.886 1.402 1.064 3.143 1.692 5.512 1.692-1.402 2.417-3.385 4.4-5.754 5.754 0-2.418-.629-4.158-1.692-5.561zm-1.45-28.721C45.264 13.158 51.743 21.185 51.743 31c0 4.11-3.094 7.156-7.108 7.156-1.644 0-3.191-.532-4.352-1.402.629-1.015 1.064-2.127 1.354-3.336.774.87 1.886 1.402 3.094 1.402 2.079 0 3.868-1.789 3.868-3.916 0-6.721-3.868-12.62-9.525-15.569-.435-1.741-1.499-3.336-2.853-4.448zM33.95 36.754c2.079-1.064 3.53-3.239 3.53-5.754 0-4.738 4.207-7.833 8.365-7.059.532 1.16.919 2.466 1.209 3.771-.677-.532-1.45-.822-2.321-.822-2.224 0-4.062 1.837-4.062 4.013 0 3.288-1.499 6.092-3.771 7.833-.822-.87-1.837-1.547-2.949-1.983zm-5.657-19.341c0-1.644 1.112-2.756 2.804-2.756 1.547 0 2.611 1.112 2.611 2.756 0 1.596-1.064 2.659-2.611 2.659-1.692 0-2.804-1.064-2.804-2.659zm0 27.27c0-1.644 1.112-2.756 2.804-2.756 1.547 0 2.611 1.112 2.611 2.756 0 1.596-1.064 2.659-2.611 2.659-1.692 0-2.804-1.064-2.804-2.659zM25.778 31c0-2.998 2.224-5.222 5.27-5.222 2.998 0 5.174 2.224 5.174 5.222 0 3.046-2.176 5.222-5.174 5.222-3.046 0-5.27-2.176-5.27-5.222zm5.27-6.479c-4.642 0-7.736-3.868-7.059-8.317 1.209-.58 2.563-1.015 3.916-1.257-.532.677-.87 1.547-.87 2.466 0 2.128 1.837 3.916 4.061 3.916 3.24 0 6.044 1.354 7.736 3.626-.919.87-1.596 1.934-2.079 3.095-1.064-2.079-3.239-3.53-5.705-3.53zm-7.156 20.066c0-1.644.532-3.143 1.402-4.303.967.58 2.031 1.064 3.191 1.354-.87.725-1.451 1.837-1.451 3.046 0 2.127 1.837 3.916 4.061 3.916 6.769 0 12.571-3.82 15.473-9.429 1.789-.435 3.385-1.45 4.497-2.853C48.794 45.312 40.815 51.743 31 51.743c-4.013 0-7.108-3.094-7.108-7.156zm-.58-7.639c.822-.87 1.499-1.886 1.934-2.998a6.55 6.55 0 0 0 5.802 3.53c4.642 0 7.688 4.11 6.963 8.413-1.209.532-2.514.967-3.868 1.209.484-.677.822-1.499.822-2.418 0-2.176-1.789-4.013-3.868-4.013-3.239 0-6.044-1.45-7.785-3.723zm-6.382 2.466c2.321 0 4.061-.629 5.464-1.692.58.677 1.209 1.354 1.934 1.886-1.064 1.402-1.692 3.143-1.692 5.512-2.369-1.402-4.303-3.336-5.706-5.705zm-.048-16.826c1.402-2.321 3.385-4.303 5.754-5.706 0 2.418.628 4.158 1.741 5.561-.725.532-1.402 1.16-1.934 1.886-1.402-1.112-3.143-1.741-5.561-1.741zM14.899 33.95c.725.532 1.596.87 2.563.87 2.079 0 3.868-1.789 3.868-3.916 0-3.143 1.499-5.851 3.771-7.591.87.822 1.886 1.499 2.998 1.934-2.128 1.064-3.578 3.288-3.578 5.754 0 4.739-4.013 7.736-8.317 7.059-.58-1.306-1.015-2.659-1.306-4.11zm-.242-3.046c0-1.644 1.112-2.756 2.804-2.756 1.547 0 2.611 1.112 2.611 2.756 0 1.596-1.064 2.659-2.611 2.659-1.692 0-2.804-1.064-2.804-2.659zm-3.771-5.174c2.321-9.042 10.299-15.473 20.066-15.473 4.062 0 7.156 3.095 7.156 7.108 0 1.644-.483 3.095-1.306 4.255-.967-.58-2.031-1.015-3.191-1.257.822-.725 1.354-1.789 1.354-2.949 0-2.176-1.789-4.013-3.868-4.013-6.818 0-12.716 3.868-15.666 9.429-1.789.435-3.385 1.499-4.545 2.901zM10.257 31c0-4.061 3.095-7.156 7.156-7.156 1.644 0 3.143.532 4.303 1.451-.58.919-1.015 1.934-1.305 3.046-.725-.87-1.789-1.45-2.95-1.45-2.224 0-4.062 1.837-4.062 4.013 0 6.866 3.82 12.716 9.477 15.714.435 1.789 1.499 3.336 2.901 4.497C16.736 48.89 10.257 40.864 10.257 31zm20.694 22C42.701 53 53 43.62 53 31c0-12.185-9.815-22-22.048-22C18.815 9 9 18.815 9 31s9.815 22 21.952 22z"/></defs></svg>