<svg xmlns="http://www.w3.org/2000/svg" width="62" height="62" fill="none"><g fill="#509ee3"><path d="M16.636 22.928c1.456 0 2.636-1.199 2.636-2.678s-1.18-2.678-2.636-2.678S14 18.771 14 20.25s1.18 2.678 2.636 2.678zm0 7.5c1.456 0 2.636-1.199 2.636-2.678s-1.18-2.678-2.636-2.678S14 26.271 14 27.75s1.18 2.678 2.636 2.678z"/><use href="#B" opacity=".2"/><use href="#B" y="7.573"/><use href="#B" x="7.382" opacity=".2"/><path opacity=".2" d="M31.4 14.357c1.456 0 2.636-1.199 2.636-2.678S32.856 9 31.4 9s-2.636 1.199-2.636 2.678 1.18 2.678 2.636 2.678z"/><use href="#B" x="7.382" y="7.573" opacity=".2"/><use href="#B" x="14.764" opacity=".2"/><use href="#B" x="22.145"/><use href="#B" x="14.764" y="7.573"/><use href="#B" x="22.145" y="7.573"/><path d="M16.636 37.927c1.456 0 2.636-1.199 2.636-2.678s-1.18-2.678-2.636-2.678S14 33.77 14 35.249s1.18 2.678 2.636 2.678z"/><use href="#B" y="15.073" opacity=".2"/><use href="#B" x="7.382" y="15.073"/><use href="#B" x="14.764" y="15.073" opacity=".2"/><use href="#B" x="22.145" y="15.073"/><path d="M16.636 45.427c1.456 0 2.636-1.199 2.636-2.678s-1.18-2.678-2.636-2.678S14 41.27 14 42.749s1.18 2.678 2.636 2.678z"/><use href="#B" y="22.573" opacity=".2"/><use href="#B" x="7.382" y="22.573" opacity=".2"/><path opacity=".2" d="M31.4 53c1.456 0 2.636-1.199 2.636-2.678s-1.18-2.678-2.636-2.678-2.636 1.199-2.636 2.678S29.944 53 31.4 53z"/><use href="#B" x="14.764" y="22.573" opacity=".2"/><use href="#B" x="22.145" y="22.573"/></g><defs ><path id="B" d="M24.018 22.928c1.456 0 2.636-1.199 2.636-2.678s-1.18-2.678-2.636-2.678-2.636 1.199-2.636 2.678 1.18 2.678 2.636 2.678z"/></defs></svg>