<svg xmlns="http://www.w3.org/2000/svg" width="62" height="62" fill="none" xmlns:v="https://vecta.io/nano"><path d="M36.5 11H21.918A1.92 1.92 0 0 0 20 12.918v7.985h16.5V11z" fill="#169154"/><path d="M20 40.76v7.922a1.92 1.92 0 0 0 1.917 1.918H36.5V40.76H20z" fill="#18482a"/><path d="M20 20.9h16.5v9.902H20V20.9z" fill="#0c8045"/><path d="M20 30.809h16.5v9.955H20v-9.955z" fill="#17472a"/><path d="M51.082 11H36.5v9.903H53v-7.985A1.92 1.92 0 0 0 51.082 11z" fill="#29c27f"/><path d="M36.5 40.76V50.6h14.583A1.92 1.92 0 0 0 53 48.683v-7.922l-16.5-.001z" fill="#27663f"/><path d="M36.5 20.9H53v9.902H36.5V20.9z" fill="#19ac65"/><path d="M36.5 30.809H53v9.955H36.5v-9.955z" fill="#129652"/><path d="M29.151 41.801H10.849A1.85 1.85 0 0 1 9 39.952V21.65a1.85 1.85 0 0 1 1.849-1.849h18.302A1.85 1.85 0 0 1 31 21.65v18.302a1.85 1.85 0 0 1-1.849 1.849z" fill="#0c7238"/><path d="M15.388 25.301h2.625l2.13 4.129 2.251-4.129h2.452l-3.378 5.5 3.455 5.5h-2.586l-2.321-4.323-2.311 4.323h-2.625l3.512-5.52-3.203-5.48z" fill="#fff"/></svg>