<svg xmlns="http://www.w3.org/2000/svg" width="62" height="62" fill="none"><g clip-path="url(#D)"><path d="M23.668 10.001h13.02L23.172 50.047c-.285.844-1.076 1.412-1.967 1.412H11.073c-.668 0-1.294-.322-1.684-.864s-.494-1.239-.28-1.872l12.592-37.311c.285-.844 1.076-1.413 1.967-1.413v.001z" fill="url(#A)"/><path d="M42.588 36.861H21.942c-.393 0-.746.24-.89.605s-.05.782.237 1.05l13.267 12.383c.386.36.895.561 1.423.561H47.67l-5.082-14.598z" fill="#0078d4"/><path d="M23.668 10a2.06 2.06 0 0 0-1.972 1.44L9.124 48.69a2.07 2.07 0 0 0 1.954 2.769h10.394a2.22 2.22 0 0 0 1.705-1.45l2.507-7.389 8.956 8.353a2.12 2.12 0 0 0 1.333.486h11.647l-5.108-14.598-14.892.004L36.735 10H23.668z" fill="url(#B)"/><path d="M40.298 11.411c-.284-.843-1.075-1.41-1.964-1.41H23.823c.889 0 1.68.567 1.964 1.41l12.593 37.313c.214.633.109 1.33-.28 1.872s-1.016.864-1.684.864h14.511c.668 0 1.294-.322 1.684-.864s.493-1.239.28-1.872L40.298 11.411z" fill="url(#C)"/></g><defs><linearGradient id="A" x1="1641.83" y1="317.273" x2="366.682" y2="4084.39" gradientUnits="userSpaceOnUse"><stop stop-color="#114a8b"/><stop offset="1" stop-color="#0669bc"/></linearGradient><linearGradient id="B" x1="2315.26" y1="2178.82" x2="2039.62" y2="2272.02" gradientUnits="userSpaceOnUse"><stop stop-opacity=".3"/><stop offset=".071" stop-opacity=".2"/><stop offset=".321" stop-opacity=".1"/><stop offset=".623" stop-opacity=".05"/><stop offset="1" stop-opacity="0"/></linearGradient><linearGradient id="C" x1="1111.5" y1="200.716" x2="2503.24" y2="3908.59" gradientUnits="userSpaceOnUse"><stop stop-color="#3ccbf4"/><stop offset="1" stop-color="#2892df"/></linearGradient><clipPath id="D"><path fill="#fff" transform="translate(9 10)" d="M0 0h44v41.594H0z"/></clipPath></defs></svg>