<svg xmlns="http://www.w3.org/2000/svg" xmlns:xlink="http://www.w3.org/1999/xlink" width="62" height="62" fill="none"><g clip-path="url(#B)"><g fill="#5059c9"><path d="M39.69 26.35h11.365c1.074 0 1.944.87 1.944 1.944v10.352c0 3.946-3.199 7.145-7.145 7.145h-.034c-3.946.001-7.146-3.198-7.146-7.144V27.366c0-.561.455-1.016 1.016-1.016zm7.682-2.048c2.543 0 4.605-2.062 4.605-4.605s-2.061-4.605-4.605-4.605-4.605 2.061-4.605 4.605 2.062 4.605 4.605 4.605z"/></g><g fill="#7b83eb"><path d="M33.046 24.302c3.673 0 6.651-2.978 6.651-6.651a6.65 6.65 0 1 0-13.302 0c0 3.673 2.978 6.651 6.651 6.651zm8.869 2.048h-18.76c-1.061.026-1.9.907-1.876 1.968v11.807c-.148 6.367 4.889 11.651 11.256 11.806 6.367-.156 11.404-5.439 11.256-11.806V28.317c.025-1.061-.815-1.941-1.876-1.968z"/></g><g fill="#000"><path opacity=".1" d="M33.558 26.35v16.546c-.005.759-.465 1.44-1.167 1.729a1.81 1.81 0 0 1-.706.143h-9.506l-.358-1.023c-.358-1.174-.541-2.395-.542-3.622V28.314a1.92 1.92 0 0 1 1.872-1.965h10.407z"/><path opacity=".2" d="M32.535 26.35v17.569a1.81 1.81 0 0 1-.143.706c-.289.702-.971 1.161-1.729 1.166H22.66l-.481-1.023c-.143-.348-.256-.675-.358-1.023-.358-1.174-.541-2.395-.542-3.622V28.314a1.92 1.92 0 0 1 1.872-1.965h9.383z"/><path opacity=".2" d="M32.535 26.35v15.523c-.008 1.031-.842 1.865-1.873 1.873h-8.841c-.358-1.174-.541-2.395-.542-3.622V28.314a1.92 1.92 0 0 1 1.872-1.965h9.383z"/><path opacity=".2" d="M31.512 26.35v15.523c-.008 1.031-.842 1.865-1.873 1.873h-7.818c-.358-1.174-.541-2.395-.542-3.622V28.314a1.92 1.92 0 0 1 1.872-1.965h8.36z"/><path opacity=".1" d="M33.558 21.059v3.223l-.512.021c-.174 0-.338-.01-.512-.021-.345-.023-.688-.078-1.023-.164a6.65 6.65 0 0 1-4.605-3.909c-.141-.33-.251-.673-.327-1.023h5.106a1.88 1.88 0 0 1 1.873 1.873z"/><use xlink:href="#C" opacity=".2"/><use xlink:href="#C" opacity=".2"/><path opacity=".2" d="M31.512 22.084v2.036a6.65 6.65 0 0 1-4.605-3.909h2.732a1.88 1.88 0 0 1 1.873 1.873z"/></g><path d="M10.876 20.211h18.76c1.036 0 1.876.84 1.876 1.876v18.76c0 1.036-.84 1.876-1.876 1.876h-18.76C9.84 42.723 9 41.883 9 40.847v-18.76c0-1.036.84-1.876 1.876-1.876z" fill="url(#A)"/><path d="M25.192 27.347h-3.75v10.212h-2.389V27.347H15.32v-1.981h9.872v1.981z" fill="#fff"/></g><defs><linearGradient id="A" x1="12.911" y1="18.745" x2="27.601" y2="44.188" gradientUnits="userSpaceOnUse"><stop stop-color="#5a62c3"/><stop offset=".5" stop-color="#4d55bd"/><stop offset="1" stop-color="#3940ab"/></linearGradient><clipPath id="B"><path fill="#fff" transform="translate(9 11)" d="M0 0h44v40.93H0z"/></clipPath><path id="C" d="M32.535 22.084v2.2c-.345-.023-.688-.078-1.023-.164a6.65 6.65 0 0 1-4.605-3.909h3.755a1.88 1.88 0 0 1 1.873 1.873z"/></defs></svg>