<svg width="44" height="39" viewBox="0 0 44 39" fill="none" xmlns="http://www.w3.org/2000/svg"><path d="M42.1671 0H12.8329C12.3468 0 11.8806 0.193106 11.5368 0.536837C11.1931 0.880567 11 1.34677 11 1.83287V9.625L27.5 14.4375L44 9.625V1.83287C44 1.34677 43.8069 0.880567 43.4632 0.536837C43.1194 0.193106 42.6532 0 42.1671 0Z" fill="#41A5EE"/><path d="M44 9.625H11V19.25L27.5 24.0625L44 19.25V9.625Z" fill="#2B7CD3"/><path d="M44 19.25H11V28.875L27.5 33.6875L44 28.875V19.25Z" fill="#185ABD"/><path d="M44 28.875H11V36.6671C11 37.1532 11.1931 37.6194 11.5368 37.9632C11.8806 38.3069 12.3468 38.5 12.8329 38.5H42.1671C42.6532 38.5 43.1194 38.3069 43.4632 37.9632C43.8069 37.6194 44 37.1532 44 36.6671V28.875Z" fill="#103F91"/><path opacity="0.1" d="M22.9171 6.875H11V33H22.9171C23.4028 32.9985 23.8681 32.805 24.2116 32.4616C24.555 32.1181 24.7485 31.6528 24.75 31.1671V8.70788C24.7485 8.22221 24.555 7.75686 24.2116 7.41344C23.8681 7.07002 23.4028 6.87645 22.9171 6.875Z" fill="black"/><path opacity="0.2" d="M21.5421 8.25H11V34.375H21.5421C22.0278 34.3735 22.4931 34.18 22.8366 33.8366C23.18 33.4931 23.3735 33.0278 23.375 32.5421V10.0829C23.3735 9.59721 23.18 9.13186 22.8366 8.78844C22.4931 8.44502 22.0278 8.25145 21.5421 8.25Z" fill="black"/><path opacity="0.2" d="M21.5421 8.25H11V31.625H21.5421C22.0278 31.6235 22.4931 31.43 22.8366 31.0866C23.18 30.7431 23.3735 30.2778 23.375 29.7921V10.0829C23.3735 9.59721 23.18 9.13186 22.8366 8.78844C22.4931 8.44502 22.0278 8.25145 21.5421 8.25Z" fill="black"/><path opacity="0.2" d="M20.1671 8.25H11V31.625H20.1671C20.6528 31.6235 21.1181 31.43 21.4616 31.0866C21.805 30.7431 21.9985 30.2778 22 29.7921V10.0829C21.9985 9.59721 21.805 9.13186 21.4616 8.78844C21.1181 8.44502 20.6528 8.25145 20.1671 8.25Z" fill="black"/><path d="M1.83287 8.25H20.1671C20.6532 8.25 21.1194 8.44311 21.4632 8.78684C21.8069 9.13057 22 9.59677 22 10.0829V28.4171C22 28.9032 21.8069 29.3694 21.4632 29.7132C21.1194 30.0569 20.6532 30.25 20.1671 30.25H1.83287C1.34677 30.25 0.880567 30.0569 0.536837 29.7132C0.193106 29.3694 0 28.9032 0 28.4171L0 10.0829C0 9.59677 0.193106 9.13057 0.536837 8.78684C0.880567 8.44311 1.34677 8.25 1.83287 8.25Z" fill="#185ABD"/><path d="M16.4328 26.125H13.9578L11.0703 16.6375L8.04531 26.125H5.57031L2.82031 12.375H5.29531L7.22031 22L10.1078 12.65H12.1703L14.9203 22L16.8453 12.375H19.1828L16.4328 26.125Z" fill="white"/></svg>