<svg xmlns:xlink="http://www.w3.org/1999/xlink" xmlns="http://www.w3.org/2000/svg" viewBox="0 0 24 24" fill="none">
    <g clip-path="url(#clip0_3984_11038)">
    <path d="M8.25809 15.7412C7.22488 16.7744 5.54971 16.7744 4.5165 15.7412L0.774909 11.9996C-0.258303 10.9664 -0.258303 9.29129 0.774908 8.25809L4.5165 4.51655C5.54971 3.48335 7.22488 3.48335 8.25809 4.51655L11.9997 8.2581C13.0329 9.29129 13.0329 10.9664 11.9997 11.9996L8.25809 15.7412Z" fill="url(#paint0_linear_3984_11038)"/>
    <path d="M8.25809 15.7412C7.22488 16.7744 5.54971 16.7744 4.5165 15.7412L0.774909 11.9996C-0.258303 10.9664 -0.258303 9.29129 0.774908 8.25809L4.5165 4.51655C5.54971 3.48335 7.22488 3.48335 8.25809 4.51655L11.9997 8.2581C13.0329 9.29129 13.0329 10.9664 11.9997 11.9996L8.25809 15.7412Z" fill="url(#paint1_linear_3984_11038)"/>
    <path d="M0.774857 11.9999C1.80809 13.0331 3.48331 13.0331 4.51655 11.9999L15.7417 0.774926C16.7749 -0.258304 18.4501 -0.258309 19.4834 0.774914L23.225 4.51655C24.2583 5.54977 24.2583 7.22496 23.225 8.25819L11.9999 19.4832C10.9667 20.5164 9.29146 20.5164 8.25822 19.4832L0.774857 11.9999Z" fill="url(#paint2_linear_3984_11038)"/>
    <path d="M0.774857 11.9999C1.80809 13.0331 3.48331 13.0331 4.51655 11.9999L15.7417 0.774926C16.7749 -0.258304 18.4501 -0.258309 19.4834 0.774914L23.225 4.51655C24.2583 5.54977 24.2583 7.22496 23.225 8.25819L11.9999 19.4832C10.9667 20.5164 9.29146 20.5164 8.25822 19.4832L0.774857 11.9999Z" fill="url(#paint3_linear_3984_11038)"/>
    <path d="M4.51642 15.7413C5.54966 16.7746 7.22487 16.7746 8.25812 15.7413L15.7415 8.25803C16.7748 7.2248 18.45 7.2248 19.4832 8.25803L23.2249 11.9997C24.2582 13.0329 24.2582 14.7081 23.2249 15.7413L15.7415 23.2246C14.7083 24.2579 13.033 24.2579 11.9998 23.2246L4.51642 15.7413Z" fill="url(#paint4_linear_3984_11038)"/>
    <path d="M4.51642 15.7413C5.54966 16.7746 7.22487 16.7746 8.25812 15.7413L15.7415 8.25803C16.7748 7.2248 18.45 7.2248 19.4832 8.25803L23.2249 11.9997C24.2582 13.0329 24.2582 14.7081 23.2249 15.7413L15.7415 23.2246C14.7083 24.2579 13.033 24.2579 11.9998 23.2246L4.51642 15.7413Z" fill="url(#paint5_linear_3984_11038)"/>
    </g>
    <defs>
    <linearGradient id="paint0_linear_3984_11038" x1="6.38724" y1="3.74167" x2="2.15779" y2="12.777" gradientUnits="userSpaceOnUse">
    <stop stop-color="#8752E0"/>
    <stop offset="1" stop-color="#541278"/>
    </linearGradient>
    <linearGradient id="paint1_linear_3984_11038" x1="8.38032" y1="11.0696" x2="4.94062" y2="7.69244" gradientUnits="userSpaceOnUse">
    <stop offset="0.12172" stop-color="#3D0D59"/>
    <stop offset="1" stop-color="#7034B0" stop-opacity="0"/>
    </linearGradient>
    <linearGradient id="paint2_linear_3984_11038" x1="18.3701" y1="-3.33385e-05" x2="9.85717" y2="20.4192" gradientUnits="userSpaceOnUse">
    <stop stop-color="#DB45E0"/>
    <stop offset="1" stop-color="#6C0F71"/>
    </linearGradient>
    <linearGradient id="paint3_linear_3984_11038" x1="18.3701" y1="-3.33385e-05" x2="9.85717" y2="20.4192" gradientUnits="userSpaceOnUse">
    <stop stop-color="#DB45E0"/>
    <stop offset="0.677403" stop-color="#A829AE"/>
    <stop offset="1" stop-color="#8F28B3"/>
    </linearGradient>
    <linearGradient id="paint4_linear_3984_11038" x1="18.0002" y1="7.49958" x2="14.0004" y2="23.9988" gradientUnits="userSpaceOnUse">
    <stop stop-color="#3DCBFF"/>
    <stop offset="1" stop-color="#00479E"/>
    </linearGradient>
    <linearGradient id="paint5_linear_3984_11038" x1="18.2164" y1="7.92626" x2="10.5237" y2="22.9363" gradientUnits="userSpaceOnUse">
    <stop stop-color="#3DCBFF"/>
    <stop offset="1" stop-color="#4A40D4"/>
    </linearGradient>
    <clipPath id="clip0_3984_11038">
    <rect width="24" height="24" fill="white"/>
    </clipPath>
    </defs>
    </svg>