<svg xmlns="http://www.w3.org/2000/svg" width="62" height="62" fill="none"><path d="M47.986 10.84v40.292c0 1.001-.812 1.84-1.84 1.84H34.7c-1.001 0-1.84-.812-1.84-1.84V10.84c0-1.001.812-1.84 1.84-1.84h11.446c1.001.027 1.84.839 1.84 1.84z" fill="url(#A)"/><path d="M39.056 21.854V53H23.93V21.854c0-1.001.812-1.84 1.84-1.84h11.446c1.001 0 1.84.812 1.84 1.84z" fill="url(#B)"/><path d="M15 32.84v18.32c0 1.001.812 1.84 1.84 1.84h13.287V32.84c0-1.001-.812-1.84-1.84-1.84H16.84c-1.001 0-1.84.812-1.84 1.84z" fill="url(#C)"/><defs><linearGradient id="A" x1="30.365" y1="9.009" x2="49.311" y2="50.425" gradientUnits="userSpaceOnUse"><stop stop-color="#e6ad10"/><stop offset="1" stop-color="#c87e0e"/></linearGradient><linearGradient id="B" x1="23.108" y1="20.423" x2="39.069" y2="52.344" gradientUnits="userSpaceOnUse"><stop stop-color="#f6d751"/><stop offset="1" stop-color="#e6ad10"/></linearGradient><linearGradient id="C" x1="17.628" y1="29.927" x2="26.416" y2="51.407" gradientUnits="userSpaceOnUse"><stop stop-color="#f9e589"/><stop offset="1" stop-color="#f6d751"/></linearGradient></defs></svg>