<svg xmlns="http://www.w3.org/2000/svg" width="62" height="62" fill="none" xmlns:v="https://vecta.io/nano"><style><![CDATA[.B{fill-rule:evenodd}.C{fill:#000}.D{fill-opacity:.32}.E{fill-opacity:.24}.F{color-interpolation-filters:sRGB}]]></style><mask id="A" maskUnits="userSpaceOnUse" x="8" y="8" width="46" height="46"><path d="M54 8H8V54H54V8Z" fill="#fff"/></mask><g mask="url(#A)"><mask id="B" maskUnits="userSpaceOnUse" x="8" y="8" width="46" height="46" mask-type="alpha"><path d="M8 31c0 2.038 1.413 3.745 3.313 4.196 1.643 7.747 7.744 13.848 15.491 15.491C27.255 52.587 28.962 54 31 54s3.745-1.413 4.196-3.313c7.747-1.643 13.848-7.744 15.491-15.491C52.587 34.745 54 33.038 54 31s-1.413-3.745-3.313-4.196c-1.643-7.747-7.744-13.848-15.491-15.491C34.745 9.413 33.038 8 31 8s-3.745 1.413-4.196 3.313c-7.747 1.643-13.848 7.744-15.491 15.491C9.413 27.255 8 28.962 8 31z" fill="#8df7db" class="B"/></mask><g mask="url(#B)"><path d="M31 54c12.703 0 23-10.297 23-23S43.703 8 31 8 8 18.298 8 31s10.298 23 23 23z" fill="url(#E)"/><path d="M32.917 16.177c1.42-.706 2.396-2.171 2.396-3.864C35.313 9.931 33.382 8 31 8s-4.312 1.931-4.312 4.313c0 1.693.976 3.159 2.396 3.864v2.844h3.833v-2.844z" fill="#9df3f9" class="B"/><path d="M29.083 45.824c-1.42.706-2.396 2.171-2.396 3.864C26.688 52.07 28.618 54 31 54s4.313-1.931 4.313-4.312c0-1.693-.976-3.159-2.396-3.864V42.98h-3.833v2.844z" fill="#82ebf1" class="B"/><path d="M16.177 29.083c-.706-1.42-2.171-2.396-3.864-2.396C9.931 26.688 8 28.618 8 31s1.931 4.313 4.313 4.313c1.693 0 3.159-.976 3.864-2.396h2.844v-3.833h-2.844z" fill="#9df3f9" class="B"/><g filter="url(#C)" class="C D"><path d="M31 44.417a12.46 12.46 0 0 0 12.458-12.458A12.46 12.46 0 0 0 31 19.5a12.46 12.46 0 0 0-12.458 12.458A12.46 12.46 0 0 0 31 44.417z"/><use href="#I" class="B"/><path d="M49.688 36.271c-2.382 0-4.312-1.931-4.312-4.312s1.931-4.312 4.313-4.312S54 29.576 54 31.958s-1.931 4.313-4.312 4.313z"/></g><g filter="url(#D)" class="C E"><path d="M31 43.64a12.46 12.46 0 0 0 12.458-12.458A12.46 12.46 0 0 0 31 18.724a12.46 12.46 0 0 0-12.458 12.458A12.46 12.46 0 0 0 31 43.64z"/><use href="#I" y="-0.777" class="B"/><path d="M49.688 35.494c-2.382 0-4.312-1.931-4.312-4.313s1.931-4.312 4.313-4.312S54 28.8 54 31.182s-1.931 4.313-4.312 4.313z"/></g><path d="M31 43.459A12.46 12.46 0 0 0 43.458 31 12.46 12.46 0 0 0 31 18.542 12.46 12.46 0 0 0 18.542 31 12.46 12.46 0 0 0 31 43.459z" fill="url(#F)"/><path d="M36.423 32.917C35.633 35.15 33.504 36.75 31 36.75a5.75 5.75 0 1 1 0-11.5c2.504 0 4.633 1.6 5.423 3.833h9.91v3.833h-9.91z" fill="url(#G)" class="B"/><path d="M49.688 35.313c-2.382 0-4.312-1.931-4.312-4.312s1.931-4.312 4.313-4.312S54 28.618 54 31s-1.931 4.313-4.312 4.313z" fill="url(#H)"/></g></g><defs><filter id="C" x="10.542" y="11.5" width="51.458" height="40.917" filterUnits="userSpaceOnUse" class="F"><feFlood flood-opacity="0"/><feBlend in="SourceGraphic"/><feGaussianBlur stdDeviation="4"/></filter><filter id="D" x="17.782" y="17.964" width="36.978" height="26.437" filterUnits="userSpaceOnUse" class="F"><feFlood flood-opacity="0"/><feBlend in="SourceGraphic"/><feGaussianBlur stdDeviation=".38"/></filter><linearGradient id="E" x1="18.878" y1="13.439" x2="42.811" y2="48.561" href="#J"><stop stop-color="#009ca8"/><stop offset="1" stop-color="#007d85"/></linearGradient><linearGradient id="F" x1="23.23" y1="20.588" x2="39.703" y2="47.94" href="#J"><stop stop-color="#36e3ee"/><stop offset="1" stop-color="#00b1be"/></linearGradient><linearGradient id="G" x1="22.919" y1="19.5" x2="44.054" y2="38.459" href="#J"><stop stop-color="#d2f6f9"/><stop offset="1" stop-color="#82ebf1"/></linearGradient><linearGradient id="H" x1="54.466" y1="32.399" x2="42.655" y2="28.203" href="#J"><stop stop-color="#9aeef3"/><stop offset="1" stop-color="#82ebf1"/></linearGradient><path id="I" d="M36.423 33.875c-.789 2.233-2.919 3.833-5.423 3.833a5.75 5.75 0 1 1 0-11.5c2.504 0 4.633 1.6 5.423 3.833h9.91v3.833h-9.91z"/><linearGradient id="J" gradientUnits="userSpaceOnUse"/></defs></svg>