<svg xmlns="http://www.w3.org/2000/svg" width="62" height="62" fill="none"><path d="M18.294 43.301c.948.592 2.525 1.249 4.192 1.249 1.518 0 2.928-.44 4.097-1.19L31 40.6v9.956a3.81 3.81 0 0 1-2.014-.572l-10.692-6.683z" fill="#225086"/><path d="M28.196 12.684L9.863 33.364c-1.415 1.599-1.046 4.014.79 5.16l7.641 4.776c.948.592 2.525 1.249 4.192 1.249 1.518 0 2.928-.44 4.097-1.19L31 40.599l-10.668-6.668 10.67-12.036v-10.45c-1.036 0-2.073.413-2.806 1.239z" fill="#6df"/><path d="M20.332 33.931l.127.078L31 40.599h.002V21.897L31 21.895 20.332 33.931z" fill="#cbf8ff"/><path d="M51.348 38.524c1.836-1.146 2.205-3.562.79-5.16L40.108 19.794c-.97-.452-2.058-.711-3.21-.711-2.261 0-4.283.975-5.627 2.508l-.266.301 10.668 12.036-10.67 6.669v9.956c.702 0 1.401-.191 2.012-.572l18.333-11.46v.002z" fill="#074793"/><path d="M31.002 11.444v10.45l.266-.301c1.344-1.533 3.366-2.508 5.627-2.508a7.61 7.61 0 0 1 3.21.711l-6.304-7.111c-.731-.826-1.767-1.239-2.801-1.239l.002-.002z" fill="#0294e4"/><path d="M41.67 33.931L31.002 21.897v18.7l10.668-6.666z" fill="#96bcc2"/></svg>