<svg width="44" height="39" viewBox="0 0 44 39" fill="none" xmlns="http://www.w3.org/2000/svg"><path d="M24.75 0C19.6492 0.0148729 14.7615 2.04777 11.1546 5.65462C7.54777 9.26148 5.51487 14.1492 5.5 19.25L29.8884 24.3884L24.75 0Z" fill="#ED6C47"/><path d="M24.75 0C29.8508 0.0148729 34.7385 2.04777 38.3454 5.65462C41.9522 9.26148 43.9851 14.1492 44 19.25L34.375 25.7922L24.75 19.25V0Z" fill="#FF8F6B"/><path d="M24.75 38.5C29.8508 38.4851 34.7385 36.4522 38.3454 32.8454C41.9522 29.2385 43.9851 24.3508 44 19.25H5.5C5.51487 24.3508 7.54777 29.2385 11.1546 32.8454C14.7615 36.4522 19.6492 38.4851 24.75 38.5Z" fill="#D35230"/><path opacity="0.1" d="M22.9153 6.875H10.0453C6.90223 10.5784 5.28542 15.3386 5.5229 20.1902C5.76037 25.0417 7.83433 29.6213 11.3241 33H22.9153C23.4012 32.9989 23.867 32.8055 24.2107 32.462C24.5544 32.1186 24.7481 31.653 24.7496 31.1671V8.70788C24.7481 8.22198 24.5544 7.75641 24.2107 7.41296C23.867 7.0695 23.4012 6.87609 22.9153 6.875Z" fill="black"/><path opacity="0.2" d="M21.5399 8.25H8.99167C6.15735 12.2716 4.9823 17.2309 5.71088 22.0966C6.43946 26.9624 9.0156 31.36 12.9035 34.375H21.5413C22.027 34.3735 22.4923 34.18 22.8357 33.8366C23.1791 33.4931 23.3727 33.0278 23.3742 32.5421V10.0829C23.3727 9.59698 23.179 9.13141 22.8352 8.78796C22.4915 8.4445 22.0258 8.25109 21.5399 8.25Z" fill="black"/><path opacity="0.2" d="M21.5398 8.25H8.9915C6.55012 11.7114 5.3287 15.8862 5.51937 20.1177C5.71003 24.3491 7.30197 28.3972 10.0448 31.625H21.5411C22.0268 31.6235 22.4921 31.43 22.8356 31.0866C23.179 30.7431 23.3726 30.2778 23.374 29.7921V10.0829C23.3725 9.59698 23.1788 9.13141 22.8351 8.78796C22.4914 8.4445 22.0257 8.25109 21.5398 8.25Z" fill="black"/><path opacity="0.2" d="M20.1648 8.25H8.9915C6.55012 11.7114 5.3287 15.8862 5.51937 20.1177C5.71003 24.3491 7.30197 28.3972 10.0448 31.625H20.1661C20.6518 31.6235 21.1171 31.43 21.4606 31.0866C21.804 30.7431 21.9976 30.2778 21.999 29.7921V10.0829C21.9975 9.59698 21.8038 9.13141 21.4601 8.78796C21.1164 8.4445 20.6507 8.25109 20.1648 8.25Z" fill="black"/><path d="M1.83287 8.25H20.1671C20.6532 8.25 21.1194 8.44311 21.4632 8.78684C21.8069 9.13057 22 9.59677 22 10.0829V28.4171C22 28.9032 21.8069 29.3694 21.4632 29.7132C21.1194 30.0569 20.6532 30.25 20.1671 30.25H1.83287C1.34677 30.25 0.880567 30.0569 0.536837 29.7132C0.193106 29.3694 0 28.9032 0 28.4171L0 10.0829C0 9.59677 0.193106 9.13057 0.536837 8.78684C0.880567 8.44311 1.34677 8.25 1.83287 8.25Z" fill="#C43E1C"/><path d="M10.9959 12.375C12.3498 12.2839 13.6922 12.6761 14.784 13.4819C15.2318 13.8815 15.5829 14.3777 15.8106 14.933C16.0383 15.4883 16.1368 16.0881 16.0985 16.687C16.1135 17.4647 15.8862 18.2278 15.4481 18.8705C15.0022 19.5809 14.3604 20.1472 13.6001 20.5013C12.7309 20.9049 11.7808 21.1043 10.8226 21.0843H8.19637V26.125H5.5V12.375H10.9959ZM8.195 18.8141H10.5146C11.2501 18.8682 11.9799 18.651 12.5661 18.2036C12.7991 18.0538 12.9867 17.8432 13.1088 17.5946C13.2309 17.346 13.2829 17.0688 13.2591 16.7929C13.2591 15.2721 12.3732 14.5118 10.6012 14.5118H8.195V18.8141Z" fill="#F9F7F7"/></svg>