<svg width="64" height="64" viewBox="0 0 64 64" fill="none" xmlns="http://www.w3.org/2000/svg">
<path d="M0 32C0 49.6731 14.3269 64 32 64C49.6731 64 64 49.6731 64 32C64 14.3269 49.6731 0 32 0C14.3269 0 0 14.3269 0 32Z" fill="white"/>
<path d="M10 15C21.0923 15 32.183 15.0017 43.277 15C45.3693 14.9983 47.5281 15.2495 49.4128 16.2409C51.1127 17.1086 52.4407 18.6551 53.1266 20.4659C54.1501 23.0321 53.9878 25.8542 53.994 28.5674C53.9926 35.7123 53.994 42.8551 53.994 50H45.0509C45.057 42.262 45.0362 34.5226 45.0587 26.7863C45.0345 25.8181 45.1603 24.7967 44.7996 23.8798C44.4151 23.0486 43.4154 22.9727 42.633 22.9626C40.5758 22.9609 38.5186 22.9727 36.4614 22.9727C36.4518 31.9827 36.46 40.9897 36.4583 50H27.5261V22.9774C24.6609 22.9609 21.7991 22.9694 18.9339 22.9727C18.9274 31.9827 18.9339 40.9897 18.9322 50H10V15Z" fill="#010041"/>
</svg>
