<svg width="256" height="257" viewBox="0 0 256 257" fill="none" xmlns="http://www.w3.org/2000/svg">
<g clip-path="url(#clip0_1_2)">
<path d="M256 0.623901H0V257.376H256V0.623901Z" fill="#000066"/>
<path d="M193.441 121.858C195.117 121.023 197.019 120.998 198.84 121.022C201.842 121.028 204.845 121.019 207.848 121.027C207.855 123 207.853 124.977 207.851 126.953C204.686 126.955 201.523 126.957 198.36 126.948C197.844 126.97 197.24 126.965 196.865 127.394C196.363 127.981 196.382 128.844 196.498 129.574C196.602 130.237 197.07 130.839 197.732 130.944C199.723 131.375 201.753 131.593 203.742 132.037C205.31 132.403 206.86 133.209 207.805 134.607C208.887 136.181 209.081 138.208 208.96 140.088C208.844 141.945 208.295 143.891 206.948 145.197C205.66 146.47 203.849 146.931 202.125 147.072H189.907C189.908 145.099 189.902 143.126 189.91 141.152C193.476 141.152 197.04 141.152 200.607 141.154C201.275 141.179 202.1 140.979 202.32 140.222C202.592 139.269 202.552 137.928 201.652 137.346C200.723 136.925 199.679 136.923 198.699 136.711C196.631 136.301 194.396 136.216 192.584 134.974C191.141 134.032 190.253 132.365 190.024 130.635C189.787 128.838 189.885 126.964 190.481 125.249C190.991 123.774 192.061 122.512 193.441 121.858ZM171.063 137.165C170.671 137.651 170.737 138.334 170.714 138.924C170.736 139.521 170.668 140.209 171.062 140.702C171.441 141.158 172.074 141.132 172.605 141.157C174.543 141.148 176.485 141.157 178.425 141.15C178.428 139.673 178.428 138.197 178.425 136.719C176.486 136.712 174.547 136.72 172.61 136.712C172.076 136.734 171.445 136.71 171.063 137.165ZM165.46 121.027C169.016 121.019 172.571 121.028 176.127 121.022C177.46 121.016 178.814 121.003 180.114 121.359C181.517 121.713 182.849 122.525 183.68 123.774C184.697 125.274 184.99 127.16 184.996 128.959C184.993 134.996 184.995 141.035 184.995 147.072H170.821C169.035 146.878 167.143 146.349 165.897 144.916C164.473 143.318 164.113 141.028 164.156 138.923C164.187 136.919 164.663 134.773 166.093 133.333C167.51 131.895 169.565 131.433 171.484 131.389C173.797 131.358 176.112 131.396 178.425 131.373C178.402 130.293 178.497 129.206 178.379 128.13C178.34 127.706 178.11 127.288 177.723 127.12C177.319 126.949 176.872 126.963 176.447 126.946C172.784 126.963 169.12 126.954 165.459 126.95C165.459 124.977 165.457 123 165.46 121.027ZM142.687 122.968C144.16 121.479 146.301 121.039 148.291 121.028C152.233 121.018 156.176 121.027 160.117 121.023C160.124 123 160.121 124.977 160.12 126.953C156.498 126.953 152.877 126.963 149.257 126.946C148.723 126.973 148.099 126.925 147.678 127.332C147.258 127.749 147.303 128.407 147.273 128.96C147.29 132.395 147.282 135.831 147.276 139.266C147.303 139.807 147.291 140.461 147.744 140.832C148.174 141.171 148.752 141.13 149.265 141.16C152.881 141.143 156.501 141.154 160.117 141.152C160.126 143.126 160.12 145.099 160.121 147.072H147.452C145.657 146.899 143.764 146.366 142.506 144.943C141.059 143.344 140.691 141.045 140.703 138.926C140.709 135.545 140.697 132.165 140.709 128.787C140.729 126.708 141.195 124.465 142.687 122.968ZM121.074 127.956C120.902 129.053 121.034 130.175 120.996 131.282C123.815 131.289 126.634 131.284 129.453 131.283C129.447 130.398 129.474 129.512 129.457 128.625C129.434 128.174 129.407 127.659 129.064 127.333C128.597 126.884 127.909 126.973 127.326 126.948C125.673 126.978 124.019 126.921 122.368 126.97C121.788 126.96 121.17 127.321 121.074 127.956ZM116.777 122.63C118.121 121.498 119.889 121.099 121.582 121.039C123.124 121 124.668 121.036 126.213 121.023C127.943 121.036 129.711 120.913 131.392 121.429C132.707 121.807 133.939 122.603 134.72 123.781C135.734 125.283 136.022 127.165 136.033 128.961C136.035 131.514 136.036 134.067 136.03 136.619C131.019 136.629 126.009 136.614 120.997 136.626C121.042 137.835 120.869 139.066 121.106 140.257C121.292 141.064 122.195 141.167 122.858 141.158C127.248 141.146 131.636 141.154 136.026 141.152C136.043 143.123 136.028 145.099 136.033 147.072H121.197C119.438 146.905 117.585 146.402 116.318 145.042C114.883 143.529 114.444 141.319 114.431 139.264C114.421 136.329 114.433 133.392 114.427 130.458C114.422 129.061 114.387 127.647 114.703 126.279C115.008 124.882 115.684 123.534 116.777 122.63ZM77.2165 121.027C85.3942 121.022 93.5684 121.024 101.745 121.023C103.464 121.023 105.267 121.275 106.738 122.265C107.898 123.025 108.718 124.262 109.121 125.613C109.74 127.606 109.546 129.726 109.578 131.786V147.072H103C103.002 140.98 102.995 134.888 103.006 128.795C102.983 128.303 102.98 127.743 102.63 127.361C102.234 126.944 101.623 126.973 101.103 126.946C99.6284 126.954 98.1546 126.95 96.6795 126.96V147.072H90.1118C90.1092 140.366 90.1153 133.663 90.108 126.957C88.0046 126.953 85.8984 126.95 83.796 126.959C83.789 133.663 83.796 140.369 83.7925 147.072H77.214C77.2165 138.39 77.2082 129.708 77.2165 121.027ZM64.9972 121.027C67.1883 121.022 69.3785 121.024 71.5684 121.024C71.5805 129.708 71.5697 138.39 71.5732 147.072H64.9949C64.9972 138.391 64.9937 129.708 64.9972 121.027ZM27.8315 121.023C35.9892 121.023 44.1456 121.024 52.3045 121.023C53.8432 121.022 55.4309 121.209 56.817 121.947C58.0671 122.592 59.0437 123.743 59.5482 125.091C60.3009 127.001 60.1816 129.101 60.1861 131.121C60.1851 136.438 60.1861 141.755 60.1861 147.072H53.6091C53.6136 141.313 53.5983 135.553 53.6148 129.795C53.597 129.074 53.6895 128.314 53.4243 127.632C53.1414 127.013 52.4063 126.957 51.8309 126.949C50.3179 126.948 48.805 126.957 47.2921 126.957C47.285 133.663 47.2911 140.366 47.2898 147.072H40.7208V126.96C38.6136 126.948 36.509 126.954 34.4018 126.957C34.397 133.663 34.4018 140.366 34.4005 147.072H27.8315V121.023ZM213.186 113.038C215.376 113.034 217.567 113.033 219.76 113.038C219.765 115.698 219.754 118.359 219.765 121.019C222.487 121.029 225.213 121.019 227.937 121.024C227.94 123 227.939 124.977 227.939 126.953C225.213 126.96 222.487 126.948 219.762 126.959C219.754 131.06 219.766 135.164 219.754 139.267C219.774 139.807 219.768 140.454 220.214 140.827C220.637 141.167 221.21 141.131 221.719 141.16C223.951 141.148 226.183 141.152 228.415 141.152C228.423 143.126 228.417 145.099 228.418 147.072H219.919C218.201 146.9 216.398 146.415 215.142 145.112C213.731 143.683 213.242 141.568 213.193 139.583C213.17 130.735 213.186 121.885 213.186 113.038ZM64.9059 110.179H71.6645C71.6632 112.385 71.668 114.59 71.662 116.795C69.4129 116.795 67.1613 116.799 64.9107 116.794C64.9014 114.588 64.9097 112.385 64.9059 110.179Z" fill="white"/>
</g>
<defs>
<clipPath id="clip0_1_2">
<rect width="256" height="257" fill="white"/>
</clipPath>
</defs>
</svg>
