<?xml version="1.0" encoding="utf-8"?>
<!-- Generator: Adobe Illustrator 26.0.3, SVG Export Plug-In . SVG Version: 6.00 Build 0)  -->
<svg version="1.0" id="katman_1" xmlns="http://www.w3.org/2000/svg" xmlns:xlink="http://www.w3.org/1999/xlink" x="0px" y="0px"
	 viewBox="0 0 1424.9 1022.5" style="enable-background:new 0 0 1424.9 1022.5;" xml:space="preserve">
<style type="text/css">
	.st0{fill:#E85815;}
</style>
<path class="st0" d="M565.6,500.6V564h-23.7v-54.6c0-20.7-7.2-28.3-22-28.3c-15.2,0-23.3,10.8-23.3,30.2V564h-23.7v-54.6
	c0-20.7-7-28.3-21.6-28.3c-16.1,0-23.7,10.8-23.7,30.2V564H404V460.8h23.7V476h0.4c8.5-11.4,19.9-16.7,32.6-16.7
	c15.6,0,26.4,7,31.9,19.5c10.1-12.9,22.6-19.5,36.6-19.5C552.9,459.3,565.6,475,565.6,500.6z M584.8,564h23.7V460.8h-23.7V564z
	 M596.6,414.1c-8.9,0-15.9,7.2-15.9,15.6c0,8.7,7,15.9,15.9,15.9c8.9,0,16.1-7.2,16.1-15.9C612.7,421.2,605.5,414.1,596.6,414.1z
	 M688,459.3c-13.5,0-25.8,5.1-34.5,16.7h-0.4v-15.2h-23.7V564h23.7v-52.7c0-19.5,8.2-30.2,25.6-30.2c15.9,0,23.5,7.6,23.5,28.3V564
	h23.7v-63.5C725.9,475,712.8,459.3,688,459.3L688,459.3z M820.9,416.2h23.5V564h-22.6v-14.8h-0.4c-7.4,11-18.6,16.5-33.4,16.5
	c-28.5,0-50.1-20.9-50.1-52.9c0-31.1,21.6-53.5,49.9-53.5c13.5,0,25.2,4.4,32.8,14.2h0.4C820.9,473.5,820.9,416.2,820.9,416.2z
	 M821.8,512.4c0-20.1-11.2-31.7-30-31.7c-16.5,0-29.8,12.3-29.8,31.7c0,18.6,12.3,31.7,29.6,31.7
	C809.5,544.1,821.8,533.6,821.8,512.4L821.8,512.4z M970.7,512.8c0,31.9-21.6,52.9-50.1,52.9c-14.8,0-26-5.5-33.4-16.5h-0.4V564
	h-22.6V416.2h23.5v57.3h0.4c7.6-9.7,19.2-14.2,32.8-14.2C949.1,459.3,970.7,481.7,970.7,512.8L970.7,512.8z M946.5,512.4
	c0-19.5-13.3-31.7-29.8-31.7c-18.8,0-30,11.6-30,31.7c0,21.2,12.3,31.7,30.2,31.7C934.3,544.1,946.5,531,946.5,512.4z M1088.2,512.7
	c0,31.3-22.4,53-54.2,53c-32.6,0-54.2-22.8-54.2-53.1c0-30.4,21.4-53.1,53.8-53.3C1063.6,459.2,1088.2,482.7,1088.2,512.7
	L1088.2,512.7z M1064.1,512.6c0-19.7-13.1-33-30-33c-18,0-30,14.4-30,33c0,18.2,12.3,32.6,30,32.6
	C1050.8,545.2,1064.1,531.9,1064.1,512.6z M1180.6,416.2h23.5V564h-22.6v-14.8h-0.4c-7.4,11-18.6,16.5-33.4,16.5
	c-28.6,0-50.1-20.9-50.1-52.9c0-31.1,21.6-53.5,49.9-53.5c13.5,0,25.2,4.4,32.8,14.2h0.4C1180.6,473.5,1180.6,416.2,1180.6,416.2z
	 M1181.4,512.4c0-20.1-11.2-31.7-30-31.7c-16.5,0-29.8,12.3-29.8,31.7c0,18.6,12.3,31.7,29.6,31.7
	C1169.1,544.1,1181.4,533.6,1181.4,512.4z M1292.3,460.8v49.3c0,19.5-8,30.2-25,30.2c-15.4,0-22.8-7.6-22.8-28.3v-51.2h-23.7v60.5
	c0,25.6,12.9,41.2,37.2,41.2c13.3,0,26.2-5.5,33.8-16.3h0.4v8.5c0,18.2-10.4,29.2-30.7,29.2c-14.8,0-23.9-4.2-35.1-10.2l-5.7,20.7
	c11.6,7,26.7,10.8,42.1,10.8c38.5,0,53.1-23.5,53.1-55.8v-88.6H1292.3L1292.3,460.8z M293.6,417.6c0,0,4.9,3.2,11,8.9
	c1.6,1.5,4.6,4.3,6.9,7.1l1.6,2c0.1,0.4-0.1,0.2-0.5-0.1c-1.3-1.2-2.9-2.7-4.7-4.5c-1.2-1-1.5-0.5,0.1,1.2l4.5,4.7
	c8.6,10,15.8,21.2,21.3,33.2c0.8,1.9,1.5,3.6,2.1,5c0,0,2.1,5,3.6,8.9c1.8,3.5,1.8,1.3,0.8-4.5c0,0-0.7-3.3-1.6-6.5
	c0-0.1-1.2-3.7-1.8-4.9c-3-7.8-5.6-13.4-5.9-14.2c-0.4-0.7-0.6-0.3,0,1.5l0.1,0.3c0.8,2,1.6,4.1,2.4,6.2c0.5,1,0.2,1.1-0.1,0.5
	c-0.5-1.2-1.1-2.4-1.6-3.6c-9.7-20.8-26.3-35.1-39.7-43.4C289.3,413.7,290.2,415.2,293.6,417.6L293.6,417.6z M328.2,461.3
	c12.7,23.6,18,52.2,12.4,81.5c-1.9,9.4-5.4,19.9-9.9,28.6c-0.5,1-1,0.9-0.2-0.9c0.9-1.8,1.7-3.6,2.4-5.6c2.3-6.2,4.3-12.9,5.7-19.4
	c0.4-2.4,0-2.2-0.3-1.1c-0.4,1.6-0.8,3.1-1.3,4.7l0,0c-0.3,1.1-0.7,2.3-1.1,3.4l-0.7,2.2c-2.1,7.2-4.7,14.3-8,20.9
	c-0.9,1.8-2.1,2.7,0.6-3.5c1-2.4,3.2-6.9,5.5-14c2.4-7,2.7-8.4,3-9.9c0.3-2.2,0.2-3.3-0.2-1.8c-4.7,18.7-12,32.8-23.5,45.9
	c-0.1,0.1-0.2,0.2-0.1,0.2c-2.8,3.2-3.4,3.6-4.9,5c-0.5,0.5-0.9,0-0.1-0.9c1-1.1,1.2-1.3,3-3.5c0.7-0.9,1.1-1.5,2-2.6
	c11.7-15,19.6-31.7,23.8-51.9c1.2-7.7-0.2-6.6-0.9-3.1c-1.9,12.1-6.8,26.3-12.3,36.6c-3.6,7-7.3,12.4-9.3,15.1
	c-0.6,0.8-1.1,1.5-1.6,2c-0.2,0.3-0.6,0.7-0.6,0.7c-0.3,0.3-0.3,0.2-0.1-0.2l2.5-3.8c2-3.2,2.8-4.1,5.4-9.4
	c2.1-4.9,5.4-12.5,6.5-15.3c0.1-0.2,0.2-0.5,0.2-0.5c1.1-3,1.8-5.2,2-5.8c1.3-4.5,4.8-15.3,4.9-31.8c0,0-0.1-5.4-0.1-7.3v0.1
	c0-1.7-0.1-2.8-0.2-3.5c-0.1-2.2-0.4-4.4-0.8-6.6c-1-5.6-2.6-11.8-4.9-18c-0.2-0.4-0.3-0.1-0.2,0.2c2.9,8.8,4.5,18.1,5.1,27.5
	c0.3,5.6,0.1,9.2,0.1,9.2c0,0.6-0.1,2.3-0.1,2.4c-0.9,18.1-6.7,34.5-12.1,45.4l0,0c-11,22-37.2,44.1-65.4,51.3l-2.9,0.6
	c-1.4,0.3-1.2-0.4,0.6-1l1.9-0.5c24.6-7.5,47.9-25.7,59.6-46.7c0.8-1.4,1.5-2.8,2.2-4.2c0.2-0.4,0.2-0.8-0.1-0.3
	c0,0-11,18.6-26.3,29.8c-10,7.3-20.3,13.2-32,17.3c-1.7,0,1.5-1.2,2.4-1.6c6.8-3,13.3-6.6,19.4-10.9c2.2-1.5,4.4-3.1,6.6-4.7
	c3.8-2.8,7.4-5.9,10.5-9.3c5.5-5.9,9.9-12.6,14.1-19.4c0.3-0.5,0.6-1.1,1-1.6c6.4-10.5,11-22.2,13.4-34.2c0.3-1.4,0.6-3.1,0.8-4.7
	c0.4-2.6,0.7-5.6,1-7.8l0.1-0.9c0.2-2.6,0.3-5.3,0.3-7.9c-0.4-6.2-1.6-4.4-1.6-3.4c0.5,16.3-2.9,33-10,48c-2,4.3-3,5.9-3,5.9
	c-1.1,1.5-1.7,2.2,0.6-2.5c0,0,2.3-4.6,4.1-9.6c0,0,1.4-3.9,2.1-6.9c1-4.8,2.1-9.5,2.6-12.7c0.1-1.3-0.3-0.9-0.7,0.2
	c-0.8,3.2-3.4,13-3.4,13c-2.4,7.2-5.6,14.2-9.5,20.8c-1.4,2.6-4.8,7.1-6.8,10.1c-0.2,0.2-0.3,0.5-0.5,0.7l-1.5,1.8
	c-8.4,10.4-18.7,19-30.7,24.8c0,0-1,0.5-2.1,1c-1,0.4-1.6,0-0.9-0.8c1.3-1.4,4.6-3.2,6.7-4.5c2.6-1.6,5-3.2,7.4-5
	c4.8-3.6,9.3-7.7,13.4-12.1c0.5-0.5,1-1.1,1.5-1.6l2.8-3.4c5.2-6.5,9.6-13.5,12.7-20.6c0.9-2.5,0.9-3,0.2-1.8
	c-1.9,4.4-4.2,8.7-6.8,12.9c-0.7,1-1.4,1.7,0.3-1.1c9.4-16.9,15.7-36.2,16.1-54.1c0.2-5.2-0.1-10.3-0.8-15.2l-0.8-4.7
	c-2.5-12.8-7.6-24.3-13.7-33.9c-1-1.5-1.4-1.2-1.1-0.5c0.6,1.1,1.1,2.1,1.7,3.2c0.8,1.5,3.1,5.8,4.8,11c0.5,1.7,2.5,7.6,3.8,15
	c0.1,0.4,0.1,0.8,0.2,1.3c0.1,1,0.3,2.1,0.4,3.1c0,0.3-0.2,0.9-0.4,0l-0.7-4.4l-0.4-2.1c0-0.1,0-0.2,0-0.2c-0.6-2.7-1.6-6.3-3-10.1
	c-2.8-7.3-5.7-11.5-6.3-12.3c0,0-15-24.4-32.6-31.6c-0.9-0.4-0.3,0.1-0.1,0.3c0.2,0.2,6.4,4.3,6.4,4.3c9.9,6.9,17.5,16.3,17.5,16.3
	s5.1,6.5,9.6,14.3c1.4,2.5,2.5,4.7,3.4,6.7c1.5,4.3,0.5,3.7,0,2.4c-7.2-15.9-18.6-29-31.5-37c-8.4-5.4-20.8-11.6-34.1-14
	c-5.5-1-11.1-1.4-16.3-1.2l0.1,0c0,0-9.6,0.2-17.6,2.4c-3,1-2.6,1.1-1.7,1.2c0.6-0.1,4.9-1,10.8-1.7c0.5,0,1.3,0.3-1.3,0.9l-2.2,0.4
	c0,0-2.8,0.6-5.4,1.1c-2.9,0.7-5.6,1.3-9.4,2.5l-1.2,0.4c-14,5.9-25.8,12.4-36.1,23.9c-17.6,19.5-24.8,47.2-20.1,72.9
	c2.3,12.5,7.3,24.5,15,34.7c5.1,6.8,11.4,12.5,18.1,17.5c3.4,2.5,6.9,4.9,10.6,7.1c1.5,0.9,3.5,2.6,5.2,3c1.5,0.4,2.9,0.1,1.1-1.3
	l-7.4-5.5c-1.1-1.1-0.4-1.3,1.8-0.4c0.4,0.1,11.3,5.7,13.2,6.5c2.2,0.9,6.9,3.1,7.7,2.2c0.2-0.2,0.2-0.9-0.6-1.4
	c-0.8-0.6-1-1.4-0.2-1.2c1.7,0.5,3.2,1,3.8,1.2c0.6,0.2,3.8,1,3.8,1s-2.1-0.5,0,0c2.1,0.5,8.3,2.7,12.7,4.4c3.9,1.6,7.6,4,9.2,7.2
	c1.2,2.3,1.8,4.5,1.6,6.8c-0.3,3.8,0.3,3.3-0.6,6.6c0,0-0.2,1.9-0.3,2.5c-0.3,1.4-0.7,2.6-1.8,3.8c-3.2,3.2-4.3,3.4-4.3,3.4
	c-0.8,0.4-1.7,0.7-3,0.9c-2.4,0.3-10.1,0.5-12.5,0.6c-2.4,0.1-5.5-0.4-7.9-0.9c-2.7-0.5-6.2-1.5-8.8-2.4c-3.4-1.1-12.3-5.8-14.4-6.6
	c-1.1-0.5-9.5-4.2-9.5-4.2c-34.1-15.2-58.5-46.5-64.2-83.4c-1-6.2-1.4-12.5-1.2-18.8c-0.3-31,10.8-60.2,28.9-82.5
	c0.5-0.5,0.4,0.2-0.3,1.1c0,0-3.2,4.5-6.4,10.2c-2,3.8-3.7,7.6-5.2,11.4c-0.1,0.4,0.1,0.5,0.3,0c7.7-15.7,18.9-29.4,32.7-39.7
	c0.1-0.1,0.2-0.1,0.3-0.2c0.4-0.3,0.6-0.1-0.3,0.9l-0.2,0.2c-0.5,0.3-1.6,1.3-2.3,1.9c-5,4-10.9,10.2-12.1,11.5
	c-4.2,4.8-7.9,9.8-11.1,15.3c-0.9,1.5-1.6,2.9-2.4,4.4c-0.3,1-0.1,0.9,0.5,0c6.8-11.1,15.3-20.6,25.6-28.9l0.5-0.5
	c14.3-11.9,31.8-19.6,50.2-22.7c19.9-3.3,37.2-1.3,47.3,0.8c0,0,7.1,1.8,14.9,5c0.8,0.3,5.8,2.5,6.6,3.2c0.2,0.2,0,0.2-0.2,0.1
	c-9.9-4.8-19-7-29.7-8.6c-3.1-0.5-7.5-0.9-11-0.7c-1.6,0.1-2.2,0.4-1.5,0.5c0.5,0,1.8,0,1.8,0c5.8,0.2,11.4,1.5,16.9,2.9
	c2.9,0.6,8.5,2.5,8.5,2.5c0.6,0.2,1,0.6,0.1,0.4c-3-0.8-5.4-1.2-5.4-1.2c-10.1-2.1-19.5-2.9-25.9-2.1c-1.3,0.2-0.4,0.4-0.3,0.4
	c8.5,0,14.6,1,14.6,1c10.9,1.8,21.6,5.6,31.4,10.6c0.4,0.2,1.1,0.8-0.4,0.1c-7.2-3.6-15.9-6.3-20.5-7.5c-3.3-0.8-6.7-1.4-10.1-1.8
	l-4.5-0.5c-0.8-0.1-4.1-0.4-5-0.4c-0.6,0-1.1,0-1.7-0.1c-3.4-0.4-6.9-0.2-10.4-0.2c-0.4,0-0.8,0-1.1,0c-2.3,0.1-4.5,0.1-6.8,0.4
	c0,0-5.9,0.8-8.4,1.3c-1.1,0.2-1.5,0.4-1.5,0.4c-0.9,0.2,0.1,0.3,0.6,0.2l0.6-0.1c2-0.3,4.1-0.5,6.1-0.7c5-0.5,10-0.7,14.7-0.8
	c0,0,7.7,0.2,13.2,1.3c2,0.6,0.3,0.5-1,0.3c-1.6-0.2-3.4-0.4-5-0.4c-11.4-0.3-23,0.9-28.6,1.6c-0.9,0.1-1.8,0.2-2.6,0.4
	c-3.7,0.8-14.3,3-20.4,5.6l-1.5,0.6c-0.6,0.2-0.7,0.6-0.4,0.6l2.7-1c10.8-3.8,22.2-6,33.7-6.4c0,0,25.5-2,45.9,6.4
	c1.8,0.6,5.8,2.2,10.6,4.8c0.4,0.3,0.7,0.8-1.1-0.1l-0.9-0.4c-11.9-5.7-24.8-9-37.7-9.7c-0.9-0.1-1.8-0.1-2.8-0.1c0,0-5-0.2-8.2,0
	c-0.8,0-1.3,0.2-0.7,0.2c0.2,0,0.3,0,0.5,0c15.3-0.1,28.9,3,43,9.1c18.3,7.9,34.4,21.7,46.3,37.6l7.9,12.4c0.7,1.3,1.4,2.7,2,4
	l1.6,3c5.7,12.6,8.3,28,10.2,40.2c0.4,2.2,0.9,1.6,0.7-0.4l-0.4-3.1c-0.1-1.7-1.4-10.9-3.7-20.1c0-0.1-1.6-6.6-2.9-10.2
	c-2.1-5.6-4-10.5-5-12.6c-1.4-2.8-3.1-6.6-4.7-9.2c-0.2-0.3-0.7-1.2-1.1-1.9c-3.1-5.5-13.2-18.2-13.2-18.2c-0.9-0.9-2.9-4-1.4-2.6
	c9.7,8.7,17.9,19.2,23.5,31.3c0.6,1.4,1.2,2.8,1.8,4.1c0.2,0.4,0.2,0.3,0.2,0c-2.1-6.1-4.7-12.1-7.8-18c-1.1-1.6-2.9-5.9-0.8-3.2
	C321.5,449.7,328.2,461.3,328.2,461.3L328.2,461.3z M199.1,400.9c8.3-2.4,17.9-3.6,26.7-3.8h1.6c0.6,0,1.1-0.2,0.1-0.3
	c-22-0.9-44.2,5.4-61.8,17.4c-0.8,0.5-1.6,1.1-2.4,1.7c-2.3,1.8-4.7,3.6-6.9,5.5s-15,13.8-21.7,25.5c-4.7,8.4-7.4,16.2-8.5,20.1
	c0,0,0,0,0,0c-0.2,1,0.5,1,0.9-0.3v0l0,0l3.3-8.1c6.2-13.8,14.8-24.5,20.4-30.6C161,417.8,176.4,407.4,199.1,400.9z M310.8,569.4
	c0.1-0.2,0.2-0.3,0.1-0.4c0,0,0-0.1-0.4,0.1c-0.4,0.2-0.9,1-1.2,1.3c-0.5,0.5-8.5,13.6-15.4,20.4c-1.5,1.5-2.1,2.1-1.9,2.1
	s0.8-0.3,2-1.4C297.6,588.1,304,581.7,310.8,569.4L310.8,569.4z"/>
</svg>
