<svg xmlns="http://www.w3.org/2000/svg" width="62" height="62" fill="none"><path d="M43.475 13.491s.915.597 2.054 1.662l1.288 1.326.299.373c.019.075-.019.037-.093-.019l-.877-.84c-.224-.187-.28-.093.019.224l.84.878a26.38 26.38 0 0 1 3.977 6.199l.392.934.672 1.662c.336.653.336.243.149-.84l-.299-1.214c0-.019-.224-.691-.336-.915l-1.102-2.651c-.075-.131-.112-.056 0 .28l.019.056.448 1.158c.093.187.037.205-.019.093l-.299-.672c-1.811-3.884-4.91-6.553-7.412-8.103-.523-.317-.355-.037.28.411zm6.46 8.159a22.97 22.97 0 0 1 2.315 15.217c-.355 1.755-1.008 3.715-1.848 5.34-.093.187-.187.168-.037-.168.168-.336.317-.672.448-1.045.429-1.158.803-2.409 1.064-3.622.075-.448 0-.411-.056-.205-.075.299-.149.579-.243.877-.056.205-.131.429-.205.635l-.131.411c-.392 1.344-.877 2.67-1.494 3.902-.168.336-.392.504.112-.653.187-.448.597-1.288 1.027-2.614.448-1.307.504-1.568.56-1.848.056-.411.037-.616-.037-.336-.877 3.491-2.24 6.124-4.388 8.57-.019.019-.037.037-.019.037-.523.597-.635.672-.915.934-.093.093-.168 0-.019-.168.187-.205.224-.243.56-.654.131-.168.205-.28.373-.485 2.185-2.801 3.66-5.919 4.444-9.69.224-1.438-.037-1.232-.168-.579-.355 2.259-1.27 4.91-2.297 6.834-.672 1.307-1.363 2.315-1.736 2.819-.112.149-.205.28-.299.373-.037.056-.112.131-.112.131-.056.056-.056.037-.019-.037l.467-.709c.373-.597.523-.766 1.008-1.755l1.214-2.857c.019-.037.037-.093.037-.093.205-.56.336-.971.373-1.083.243-.84.896-2.857.915-5.937l-.019-1.363v.019c0-.317-.019-.523-.037-.654a9.25 9.25 0 0 0-.149-1.232c-.187-1.045-.485-2.203-.915-3.361-.037-.075-.056-.019-.037.037.541 1.643.84 3.379.952 5.134.056 1.046.019 1.718.019 1.718 0 .112-.019.429-.019.448-.168 3.379-1.251 6.441-2.259 8.477-2.054 4.108-6.945 8.234-12.211 9.578l-.541.112c-.261.056-.224-.075.112-.187l.355-.093c4.593-1.4 8.943-4.798 11.128-8.719.149-.261.28-.523.411-.784.037-.075.037-.149-.019-.056 0 0-2.054 3.473-4.91 5.564-1.867 1.363-3.79 2.465-5.975 3.23-.317 0 .28-.224.448-.299 1.27-.56 2.483-1.232 3.622-2.035.411-.28.821-.579 1.232-.878.709-.523 1.382-1.102 1.96-1.736 1.027-1.102 1.848-2.352 2.633-3.622.056-.093.112-.205.187-.299 1.195-1.96 2.054-4.145 2.502-6.385.056-.261.112-.579.149-.878.075-.485.131-1.045.187-1.456l.019-.168a19.49 19.49 0 0 0 .056-1.475c-.075-1.158-.299-.822-.299-.635a19.69 19.69 0 0 1-1.867 8.962c-.373.803-.56 1.102-.56 1.102-.205.28-.317.411.112-.467 0 0 .429-.859.766-1.792 0 0 .261-.728.392-1.288.187-.896.392-1.774.485-2.371.019-.243-.056-.168-.131.037l-.635 2.427a20.22 20.22 0 0 1-1.774 3.883c-.261.485-.896 1.326-1.27 1.886-.037.037-.056.093-.093.131l-.28.336c-1.568 1.942-3.491 3.547-5.732 4.63 0 0-.187.093-.392.187-.187.075-.299 0-.168-.149.243-.261.859-.598 1.251-.84.486-.299.934-.597 1.382-.934.896-.672 1.736-1.438 2.502-2.259.093-.093.187-.205.28-.299l.523-.635c.971-1.214 1.792-2.521 2.371-3.846.168-.467.168-.56.037-.336-.355.822-.784 1.624-1.27 2.408-.131.187-.261.317.056-.205 1.755-3.155 2.931-6.759 3.006-10.101a15.79 15.79 0 0 0-.149-2.838l-.149-.877c-.467-2.39-1.419-4.537-2.558-6.329-.187-.28-.261-.224-.205-.093l.317.598c.149.28.579 1.083.896 2.054.093.317.467 1.419.709 2.8.019.075.019.149.037.243.019.187.056.392.075.579 0 .056-.037.168-.075 0l-.131-.822-.075-.392v-.037c-.112-.504-.299-1.176-.56-1.886-.523-1.363-1.064-2.147-1.176-2.296 0 0-2.801-4.556-6.087-5.9-.168-.075-.056.019-.019.056s1.195.803 1.195.803c1.848 1.288 3.267 3.043 3.267 3.043s.952 1.213 1.792 2.67c.261.467.467.877.635 1.251.28.803.093.691 0 .448-1.344-2.969-3.473-5.414-5.881-6.908-1.568-1.008-3.884-2.166-6.367-2.614-1.027-.187-2.073-.261-3.043-.224h.019s-1.792.037-3.286.448c-.56.187-.485.205-.317.224.112-.019.915-.187 2.016-.317.093 0 .243.056-.243.168l-.411.075-1.008.205c-.541.131-1.046.243-1.755.467l-.224.075c-2.614 1.102-4.817 2.315-6.74 4.462-3.286 3.641-4.63 8.813-3.753 13.611.429 2.334 1.363 4.574 2.801 6.479.952 1.27 2.128 2.334 3.379 3.267.635.467 1.288.915 1.979 1.326.28.168.654.485.971.56.28.075.541.019.205-.243l-1.382-1.027c-.205-.205-.075-.243.336-.075.075.019 2.11 1.064 2.464 1.214.411.168 1.288.579 1.438.411.037-.037.037-.168-.112-.261-.149-.112-.187-.261-.037-.224.317.093.598.187.709.224s.709.187.709.187c.392.093 1.55.504 2.371.822.728.299 1.419.747 1.718 1.344.224.429.336.84.299 1.27-.056.709.056.616-.112 1.232l-.056.467c-.056.261-.131.485-.336.709-.598.597-.803.635-.803.635-.149.075-.317.131-.56.168-.448.056-1.886.093-2.334.112s-1.027-.075-1.475-.168c-.504-.093-1.158-.28-1.643-.448-.635-.205-2.297-1.083-2.689-1.232l-1.774-.784c-6.367-2.838-10.922-8.682-11.987-15.571-.187-1.157-.261-2.334-.224-3.51-.056-5.788 2.016-11.24 5.396-15.403.093-.093.075.037-.056.205 0 0-.597.84-1.195 1.904-.373.709-.691 1.419-.971 2.128-.019.075.019.093.056 0 1.438-2.931 3.529-5.489 6.105-7.412.019-.019.037-.019.056-.037.075-.056.112-.019-.056.168l-.037.037c-.093.056-.299.243-.429.355-.934.747-2.035 1.904-2.259 2.147-.784.896-1.475 1.83-2.072 2.857-.168.28-.299.541-.448.822-.056.187-.019.168.093 0 1.27-2.072 2.857-3.846 4.78-5.396l.093-.093c2.67-2.222 5.937-3.659 9.373-4.238a24.64 24.64 0 0 1 8.831.149s1.326.336 2.782.934c.149.056 1.083.467 1.232.598.037.037 0 .037-.037.019-1.848-.896-3.547-1.307-5.545-1.606-.579-.093-1.4-.168-2.054-.131-.299.019-.411.075-.28.093h.336c1.083.037 2.128.28 3.155.541.541.112 1.587.467 1.587.467.112.037.187.112.019.075-.56-.149-1.008-.224-1.008-.224-1.886-.392-3.641-.541-4.836-.392-.243.037-.075.075-.056.075 1.587 0 2.726.187 2.726.187 2.035.336 4.033 1.046 5.862 1.979.075.037.205.149-.075.019-1.344-.672-2.969-1.176-3.827-1.4a15.96 15.96 0 0 0-1.886-.336l-.84-.093c-.149-.019-.765-.075-.934-.075-.112 0-.205 0-.317-.019-.635-.075-1.288-.037-1.942-.037h-.205c-.429.019-.84.019-1.27.075 0 0-1.102.149-1.568.243-.205.037-.28.075-.28.075-.168.037.019.056.112.037l.112-.019c.373-.056.765-.093 1.139-.131.934-.093 1.867-.131 2.745-.149 0 0 1.438.037 2.465.243.373.112.056.093-.187.056a7.87 7.87 0 0 0-.934-.075c-2.128-.056-4.294.168-5.34.299-.168.019-.336.037-.485.075-.691.149-2.67.56-3.809 1.046l-.28.112c-.112.037-.131.112-.075.112l.504-.187c2.016-.71 4.145-1.12 6.292-1.195 0 0 4.761-.373 8.57 1.195.336.112 1.083.411 1.979.896.075.056.131.149-.205-.019l-.168-.075c-2.222-1.064-4.63-1.68-7.039-1.811-.168-.019-.336-.019-.523-.019 0 0-.934-.037-1.531 0-.149 0-.243.037-.131.037h.093c2.857-.019 5.396.56 8.028 1.699 3.417 1.475 6.423 4.052 8.645 7.02l1.475 2.315c.131.243.261.504.373.747l.299.56c1.064 2.352 1.55 5.228 1.904 7.506.075.411.168.299.131-.075l-.075-.579c-.019-.317-.261-2.035-.691-3.753 0-.019-.299-1.232-.541-1.904-.392-1.046-.747-1.96-.934-2.352-.261-.523-.579-1.232-.878-1.718-.037-.056-.131-.224-.205-.355-.579-1.027-2.465-3.398-2.465-3.398-.168-.168-.541-.747-.261-.485 1.811 1.624 3.342 3.585 4.388 5.844l.336.766c.037.075.037.056.037 0-.392-1.139-.877-2.259-1.456-3.361-.205-.299-.541-1.102-.149-.598.411.635 1.662 2.801 1.662 2.801zM25.832 10.373c1.55-.448 3.342-.672 4.985-.71h.299c.112 0 .205-.037.019-.056-4.108-.168-8.252 1.008-11.538 3.249a6.53 6.53 0 0 0-.448.317c-.429.336-.878.672-1.288 1.027s-2.801 2.577-4.052 4.761c-.878 1.568-1.382 3.025-1.587 3.753-.037.187.093.187.168-.056l.616-1.512c1.158-2.576 2.763-4.574 3.809-5.713 1.904-1.904 4.78-3.846 9.018-5.06zm20.855 31.46c.019-.037.037-.056.019-.075 0 0 0-.019-.075.019s-.168.187-.224.243c-.093.093-1.587 2.539-2.875 3.809-.28.28-.392.392-.355.392s.149-.056.373-.261c.672-.635 1.867-1.83 3.137-4.126z" fill="#e85815"/></svg>