<?xml version="1.0" encoding="UTF-8"?>
<svg xmlns="http://www.w3.org/2000/svg" xmlns:xlink="http://www.w3.org/1999/xlink" width="62px" height="62px" viewBox="0 0 62 62" version="1.1">
<defs>
<linearGradient id="linear0" gradientUnits="userSpaceOnUse" x1="0" y1="0.50057" x2="1.00182" y2="0.50057" gradientTransform="matrix(62,0,0,51.664063,0,5.167969)">
<stop offset="0" style="stop-color:rgb(88.627451%,8.627451%,49.411765%);stop-opacity:1;"/>
<stop offset="1" style="stop-color:rgb(99.607843%,37.647059%,23.529412%);stop-opacity:1;"/>
</linearGradient>
</defs>
<g id="surface1">
<path style=" stroke:none;fill-rule:nonzero;fill:url(#linear0);" d="M 42.050781 5.167969 C 45.039062 5.167969 47.457031 7.5625 47.457031 10.515625 L 47.457031 42.808594 C 47.5 43.835938 48.351562 44.644531 49.378906 44.640625 C 50.410156 44.644531 51.257812 43.835938 51.300781 42.808594 L 51.300781 23.503906 C 51.316406 20.566406 53.710938 18.195312 56.648438 18.210938 C 59.589844 18.195312 61.984375 20.566406 62 23.507812 L 62 40.457031 C 61.996094 41.382812 61.242188 42.128906 60.316406 42.125 C 59.390625 42.128906 58.632812 41.382812 58.628906 40.457031 L 58.628906 23.507812 C 58.625 22.421875 57.738281 21.542969 56.648438 21.550781 C 55.5625 21.542969 54.675781 22.421875 54.671875 23.507812 L 54.671875 42.8125 C 54.65625 45.71875 52.285156 48.0625 49.378906 48.042969 C 46.472656 48.0625 44.105469 45.71875 44.089844 42.8125 L 44.089844 10.519531 C 44.046875 9.429688 43.144531 8.570312 42.054688 8.574219 C 40.960938 8.566406 40.0625 9.425781 40.015625 10.515625 L 40.011719 51.601562 C 39.996094 54.507812 37.628906 56.847656 34.722656 56.832031 C 31.816406 56.847656 29.449219 54.503906 29.433594 51.597656 L 29.433594 46.601562 C 29.433594 45.683594 30.1875 44.9375 31.117188 44.9375 C 32.046875 44.9375 32.800781 45.683594 32.800781 46.601562 L 32.800781 51.597656 C 32.800781 52.277344 33.167969 52.90625 33.761719 53.246094 C 34.355469 53.585938 35.089844 53.585938 35.683594 53.246094 C 36.277344 52.910156 36.644531 52.28125 36.644531 51.597656 L 36.644531 10.515625 C 36.644531 7.5625 39.066406 5.167969 42.050781 5.167969 Z M 27.394531 5.167969 C 30.378906 5.167969 32.800781 7.5625 32.800781 10.515625 L 32.800781 40.28125 C 32.796875 40.726562 32.621094 41.152344 32.304688 41.464844 C 31.988281 41.777344 31.5625 41.949219 31.117188 41.949219 C 30.671875 41.949219 30.246094 41.777344 29.929688 41.464844 C 29.613281 41.152344 29.433594 40.726562 29.433594 40.28125 L 29.433594 10.515625 C 29.425781 9.394531 28.511719 8.492188 27.394531 8.5 C 26.273438 8.492188 25.363281 9.394531 25.355469 10.515625 L 25.355469 46.714844 C 25.339844 49.652344 22.945312 52.019531 20.007812 52.003906 C 17.070312 52.019531 14.675781 49.652344 14.65625 46.714844 L 14.65625 23.507812 C 14.652344 22.421875 13.765625 21.542969 12.679688 21.550781 C 11.59375 21.542969 10.707031 22.421875 10.699219 23.507812 L 10.699219 33.324219 C 10.683594 36.265625 8.289062 38.632812 5.351562 38.617188 C 2.410156 38.632812 0.015625 36.265625 0 33.324219 L 0 29.765625 C 0 28.84375 0.753906 28.097656 1.683594 28.097656 C 2.613281 28.097656 3.371094 28.84375 3.371094 29.765625 L 3.371094 33.324219 C 3.371094 34.40625 4.257812 35.28125 5.351562 35.28125 C 6.441406 35.28125 7.328125 34.40625 7.328125 33.324219 L 7.328125 23.503906 C 7.347656 20.570312 9.738281 18.199219 12.675781 18.214844 C 15.613281 18.199219 18.007812 20.566406 18.027344 23.503906 L 18.027344 46.714844 C 18.027344 47.796875 18.914062 48.671875 20.007812 48.671875 C 21.101562 48.671875 21.988281 47.796875 21.988281 46.714844 L 21.988281 10.515625 C 21.988281 7.5625 24.40625 5.167969 27.394531 5.167969 Z M 27.394531 5.167969 "/>
</g>
</svg>
