<svg width="62.00000000000001" height="62.00000000000001" xmlns="http://www.w3.org/2000/svg" xml:space="preserve" version="1.1">

 <g>
  <title>Layer 1</title>
  <g stroke="null" id="svg_17">
   <g stroke="null" id="svg_1">
    <path stroke="null" id="svg_2" fill="#808080" d="m58.64005,12.1139c0,-0.18245 0.0563,-0.36491 0.14074,-0.5213c0.08445,-0.15639 0.22519,-0.28671 0.39408,-0.36491c0.16889,-0.10426 0.36593,-0.13032 0.56297,-0.13032c0.19704,0 0.39408,0.05213 0.56297,0.13032c0.16889,0.07819 0.30963,0.20852 0.39408,0.36491c0.11259,0.15639 0.14074,0.33884 0.14074,0.5213c0,0.18245 -0.0563,0.33884 -0.14074,0.49523c-0.08445,0.15639 -0.22519,0.28671 -0.39408,0.36491c-0.16889,0.10426 -0.36593,0.13032 -0.56297,0.13032c-0.19704,0 -0.39408,-0.05213 -0.56297,-0.13032c-0.16889,-0.10426 -0.30963,-0.20852 -0.39408,-0.36491c-0.08445,-0.13032 -0.14074,-0.31278 -0.14074,-0.49523zm0.16889,0c0,0.15639 0.0563,0.31278 0.14074,0.4431c0.08445,0.13032 0.19704,0.23458 0.33778,0.31278c0.14074,0.07819 0.30963,0.13032 0.47853,0.13032c0.16889,0 0.33778,-0.05213 0.47853,-0.13032c0.14074,-0.07819 0.25334,-0.18245 0.33778,-0.31278c0.08445,-0.13032 0.14074,-0.28671 0.14074,-0.4431c0,-0.15639 -0.0563,-0.31278 -0.14074,-0.4431c-0.08445,-0.13032 -0.19704,-0.23458 -0.33778,-0.31278c-0.14074,-0.07819 -0.30963,-0.13032 -0.47853,-0.13032c-0.16889,0 -0.33778,0.05213 -0.47853,0.13032c-0.14074,0.07819 -0.25334,0.18245 -0.33778,0.31278c-0.11259,0.15639 -0.14074,0.28671 -0.14074,0.4431zm1.40743,-0.23458c0,0.07819 -0.02815,0.13032 -0.0563,0.18245c-0.02815,0.05213 -0.11259,0.10426 -0.16889,0.13032l0.33778,0.54736l-0.25334,0l-0.30963,-0.49523l-0.19704,0l0,0.49523l-0.22519,0l0,-1.22504l0.39408,0c0.16889,0 0.28149,0.02606 0.36593,0.07819c0.0563,0.07819 0.11259,0.15639 0.11259,0.28671zm-0.64742,0.20852l0.16889,0c0.08445,0 0.14074,-0.02606 0.19704,-0.05213c0.0563,-0.02606 0.08445,-0.07819 0.08445,-0.15639c0,-0.07819 -0.02815,-0.10426 -0.0563,-0.15639c-0.0563,-0.02606 -0.11259,-0.05213 -0.19704,-0.05213l-0.16889,0l0,0.41704l-0.02815,0z"/>
   </g>
   <g stroke="null" id="svg_16">
    <g stroke="null" id="svg_3">
     <path stroke="null" id="svg_4" fill="#000000" d="m9.09853,43.71871l0,0.90299c-0.64742,0.3354 -1.40743,0.4902 -2.25189,0.4902c-0.70371,0 -1.29484,-0.129 -1.77336,-0.387c-0.47853,-0.258 -0.87261,-0.6192 -1.15409,-1.05779s-0.42223,-0.92879 -0.42223,-1.47059c0,-0.82559 0.30963,-1.52219 0.95705,-2.08979c0.64742,-0.5676 1.43558,-0.85139 2.39263,-0.85139c0.64742,0 1.37928,0.1548 2.16744,0.4644l0,0.87719c-0.73186,-0.387 -1.43558,-0.5676 -2.13929,-0.5676c-0.70371,0 -1.29484,0.2064 -1.77336,0.6192c-0.47853,0.4128 -0.70371,0.92879 -0.70371,1.54799c0,0.6192 0.22519,1.13519 0.70371,1.54799s1.06965,0.5934 1.77336,0.5934c0.76001,0.0258 1.49188,-0.2064 2.22374,-0.6192z"/>
     <path stroke="null" id="svg_5" fill="#000000" d="m11.99783,39.33274l0.90075,0l0,4.95357l2.81486,0l0,0.7482l-3.71561,0l0,-5.70176z"/>
     <path stroke="null" id="svg_6" fill="#000000" d="m21.37131,39.25534c0.95705,0 1.77336,0.2838 2.39263,0.82559c0.64742,0.5676 0.95705,1.26419 0.95705,2.08979c0,0.85139 -0.30963,1.54799 -0.95705,2.08979s-1.46373,0.82559 -2.44893,0.82559c-0.9289,0 -1.71706,-0.2838 -2.33633,-0.82559c-0.61927,-0.5418 -0.9289,-1.23839 -0.9289,-2.06399c0,-0.85139 0.30963,-1.54799 0.95705,-2.11559s1.40743,-0.82559 2.36448,-0.82559zm0.02815,0.774c-0.70371,0 -1.29484,0.2064 -1.74521,0.6192c-0.45038,0.4128 -0.67557,0.92879 -0.67557,1.57379c0,0.6192 0.22519,1.13519 0.70371,1.54799c0.45038,0.4128 1.0415,0.6192 1.71706,0.6192c0.70371,0 1.26669,-0.2064 1.74521,-0.6192c0.45038,-0.4128 0.70371,-0.92879 0.70371,-1.54799c0,-0.5934 -0.22519,-1.10939 -0.70371,-1.52219s-1.06965,-0.6708 -1.74521,-0.6708z"/>
     <path stroke="null" id="svg_7" fill="#000000" d="m31.98333,39.33274l0.90075,0l0,3.25078c0,0.4386 -0.02815,0.774 -0.11259,0.98039s-0.16889,0.4128 -0.25334,0.5676c-0.11259,0.1548 -0.22519,0.2838 -0.36593,0.387c-0.50667,0.387 -1.12594,0.5934 -1.94225,0.5934c-0.81631,0 -1.46373,-0.1806 -1.94225,-0.5676c-0.14074,-0.129 -0.28149,-0.258 -0.36593,-0.4128c-0.11259,-0.1548 -0.19704,-0.3354 -0.25334,-0.5418c-0.0563,-0.2064 -0.11259,-0.5418 -0.11259,-1.00619l0,-3.22498l0.90075,0l0,3.25078c0,0.5418 0.0563,0.90299 0.19704,1.10939c0.14074,0.2064 0.33778,0.387 0.61927,0.516c0.28149,0.129 0.59112,0.1806 0.95705,0.1806c0.53482,0 0.95705,-0.129 1.29484,-0.387c0.16889,-0.129 0.30963,-0.3096 0.36593,-0.4902s0.11259,-0.4902 0.11259,-0.95459l0,-3.25078z"/>
     <path stroke="null" id="svg_8" fill="#000000" d="m35.95228,45.0345l0,-5.70176l2.11114,0c0.84446,0 1.52002,0.129 1.99855,0.3612c0.50667,0.2322 0.87261,0.5676 1.18224,1.03199c0.28149,0.4644 0.45038,0.95459 0.45038,1.47059c0,0.387 -0.08445,0.7482 -0.25334,1.08359c-0.16889,0.3612 -0.39408,0.645 -0.67557,0.92879c-0.30963,0.2838 -0.64742,0.4902 -1.06965,0.6192c-0.22519,0.0774 -0.45038,0.129 -0.64742,0.1806c-0.19704,0.0258 -0.56297,0.0516 -1.12594,0.0516l-1.9704,0l0,-0.0258zm1.99855,-4.97937l-1.12594,0l0,4.23117l1.15409,0c0.45038,0 0.78816,-0.0258 1.0415,-0.0774c0.25334,-0.0516 0.45038,-0.129 0.61927,-0.2064c0.16889,-0.0774 0.30963,-0.1806 0.45038,-0.3096c0.45038,-0.4128 0.64742,-0.92879 0.64742,-1.54799c0,-0.6192 -0.22519,-1.10939 -0.67557,-1.49639c-0.16889,-0.1548 -0.36593,-0.258 -0.56297,-0.3612c-0.22519,-0.1032 -0.42223,-0.1548 -0.61927,-0.1806c-0.19704,-0.0258 -0.50667,-0.0516 -0.9289,-0.0516z"/>
    </g>
    <g stroke="null" id="svg_9">
     <g stroke="null" id="svg_10">
      <path stroke="null" id="svg_11" fill="#00CCDB" d="m18.55645,36.93335l-4.19414,0l0.02815,-11.14553c0,-1.39319 -0.28149,-2.42518 -0.84446,-3.09598c-0.56297,-0.6708 -1.46373,-1.03199 -2.67412,-1.03199c-1.60447,0 -2.81486,0.4902 -3.54672,1.44479c-0.76001,0.95459 -1.12594,2.55418 -1.12594,4.79877l0,9.00414l-4.19414,0l0.02815,-18.05989l3.26524,0l0.59112,2.37358l0.22519,0c0.53482,-0.85139 1.35113,-1.52219 2.39263,-1.98659c1.0415,-0.4644 2.19559,-0.6966 3.43413,-0.6966c3.04005,0 5.0386,0.95459 6.0238,2.83798l0.28149,0c0.59112,-0.90299 1.40743,-1.59959 2.44893,-2.08979c1.06965,-0.4902 2.28004,-0.7482 3.63117,-0.7482c2.36448,0 4.0534,0.5418 5.15119,1.65119c1.06965,1.08359 1.60447,2.76058 1.60447,4.97937l-0.02815,11.76473l-4.19414,0l0.02815,-11.14553c0,-1.39319 -0.28149,-2.42518 -0.87261,-3.09598c-0.56297,-0.6708 -1.46373,-1.03199 -2.67412,-1.03199c-1.63262,0 -2.81486,0.4644 -3.57487,1.39319c-0.76001,0.92879 -1.12594,2.34779 -1.12594,4.28277l-0.08445,9.59754z"/>
     </g>
     <g stroke="null" id="svg_12">
      <path stroke="null" id="svg_13" fill="#00CCDB" d="m52.05328,37.26875c-2.50522,0 -4.41933,-0.82559 -5.79861,-2.47678l-0.25334,0c0.16889,1.52219 0.25334,2.45098 0.25334,2.78638l0,7.40455l-4.19414,0l0.02815,-26.10943l3.37783,0c0.08445,0.3354 0.28149,1.13519 0.59112,2.42518l0.22519,0c1.32298,-1.83179 3.26524,-2.73478 5.88306,-2.73478c2.44893,0 4.36303,0.82559 5.74231,2.45098c1.37928,1.62539 2.05485,3.92158 2.05485,6.88856c0,2.94118 -0.70371,5.26317 -2.11114,6.91436c-1.40743,1.62539 -3.34968,2.45098 -5.79861,2.45098zm-0.9852,-15.5831c-1.66077,0 -2.87116,0.4386 -3.65932,1.34159c-0.76001,0.90299 -1.15409,2.32199 -1.15409,4.28277l0,0.5676c0,2.19299 0.36593,3.79258 1.12594,4.77297c0.76001,0.98039 1.99855,1.47059 3.71561,1.47059c1.43558,0 2.56152,-0.5418 3.34968,-1.62539c0.78816,-1.08359 1.18224,-2.63158 1.18224,-4.64397c0,-2.03819 -0.39408,-3.56038 -1.15409,-4.59237c-0.76001,-1.05779 -1.9141,-1.57379 -3.40598,-1.57379z"/>
     </g>
     <rect stroke="null" id="svg_14" fill="#00CCDB" height="18.11148" width="3.9971" y="18.82187" x="34.43226"/>
     <polygon stroke="null" id="svg_15" fill="#00CCDB" points="34.4322612285614,10.694917678833008 34.4322612285614,16.370882034301758 38.42935824394226,16.370882034301758 38.42935824394226,14.126294136047363 "/>
    </g>
   </g>
  </g>
 </g>
</svg>