<?xml version="1.0" encoding="utf-8"?>
<!-- Generator: Adobe Illustrator 22.1.0, SVG Export Plug-In . SVG Version: 6.00 Build 0)  -->
<svg version="1.1" id="Layer_1" xmlns="http://www.w3.org/2000/svg" xmlns:xlink="http://www.w3.org/1999/xlink" x="0px" y="0px"
	 viewBox="0 0 260 160" style="enable-background:new 0 0 260 160;" xml:space="preserve">
<g>
	<path style="fill:#808080;" d="M234.1,50.6c0-0.7,0.2-1.4,0.5-2c0.3-0.6,0.8-1.1,1.4-1.4c0.6-0.4,1.3-0.5,2-0.5
		c0.7,0,1.4,0.2,2,0.5c0.6,0.3,1.1,0.8,1.4,1.4c0.4,0.6,0.5,1.3,0.5,2c0,0.7-0.2,1.3-0.5,1.9c-0.3,0.6-0.8,1.1-1.4,1.4
		c-0.6,0.4-1.3,0.5-2,0.5c-0.7,0-1.4-0.2-2-0.5c-0.6-0.4-1.1-0.8-1.4-1.4C234.3,52,234.1,51.3,234.1,50.6z M234.7,50.6
		c0,0.6,0.2,1.2,0.5,1.7c0.3,0.5,0.7,0.9,1.2,1.2c0.5,0.3,1.1,0.5,1.7,0.5c0.6,0,1.2-0.2,1.7-0.5c0.5-0.3,0.9-0.7,1.2-1.2
		c0.3-0.5,0.5-1.1,0.5-1.7c0-0.6-0.2-1.2-0.5-1.7c-0.3-0.5-0.7-0.9-1.2-1.2c-0.5-0.3-1.1-0.5-1.7-0.5c-0.6,0-1.2,0.2-1.7,0.5
		c-0.5,0.3-0.9,0.7-1.2,1.2C234.8,49.5,234.7,50,234.7,50.6z M239.7,49.7c0,0.3-0.1,0.5-0.2,0.7c-0.1,0.2-0.4,0.4-0.6,0.5l1.2,2.1
		h-0.9l-1.1-1.9h-0.7V53h-0.8v-4.7h1.4c0.6,0,1,0.1,1.3,0.3C239.5,48.9,239.7,49.2,239.7,49.7z M237.4,50.5h0.6
		c0.3,0,0.5-0.1,0.7-0.2c0.2-0.1,0.3-0.3,0.3-0.6c0-0.3-0.1-0.4-0.2-0.6c-0.2-0.1-0.4-0.2-0.7-0.2h-0.6V50.5z"/>
</g>
<g>
	<path style="fill:#FFFFFF;" d="M49.1,141.8v3.5c-2.3,1.3-5,1.9-8,1.9c-2.5,0-4.6-0.5-6.3-1.5c-1.7-1-3.1-2.4-4.1-4.1
		s-1.5-3.6-1.5-5.7c0-3.2,1.1-5.9,3.4-8.1c2.3-2.2,5.1-3.3,8.5-3.3c2.3,0,4.9,0.6,7.7,1.8v3.4c-2.6-1.5-5.1-2.2-7.6-2.2
		c-2.5,0-4.6,0.8-6.3,2.4c-1.7,1.6-2.5,3.6-2.5,6c0,2.4,0.8,4.4,2.5,6s3.8,2.3,6.3,2.3C43.9,144.3,46.5,143.4,49.1,141.8z"/>
	<path style="fill:#FFFFFF;" d="M59.4,124.8h3.2V144h10v2.9H59.4V124.8z"/>
	<path style="fill:#FFFFFF;" d="M92.7,124.5c3.4,0,6.3,1.1,8.5,3.2c2.3,2.2,3.4,4.9,3.4,8.1c0,3.3-1.1,6-3.4,8.1s-5.2,3.2-8.7,3.2
		c-3.3,0-6.1-1.1-8.3-3.2c-2.2-2.1-3.3-4.8-3.3-8c0-3.3,1.1-6,3.4-8.2S89.3,124.5,92.7,124.5z M92.8,127.5c-2.5,0-4.6,0.8-6.2,2.4
		c-1.6,1.6-2.4,3.6-2.4,6.1c0,2.4,0.8,4.4,2.5,6c1.6,1.6,3.7,2.4,6.1,2.4c2.5,0,4.5-0.8,6.2-2.4c1.6-1.6,2.5-3.6,2.5-6
		c0-2.3-0.8-4.3-2.5-5.9S95.2,127.5,92.8,127.5z"/>
	<path style="fill:#FFFFFF;" d="M130.4,124.8h3.2v12.6c0,1.7-0.1,3-0.4,3.8s-0.6,1.6-0.9,2.2c-0.4,0.6-0.8,1.1-1.3,1.5
		c-1.8,1.5-4,2.3-6.9,2.3c-2.9,0-5.2-0.7-6.9-2.2c-0.5-0.5-1-1-1.3-1.6c-0.4-0.6-0.7-1.3-0.9-2.1c-0.2-0.8-0.4-2.1-0.4-3.9v-12.5
		h3.2v12.6c0,2.1,0.2,3.5,0.7,4.3c0.5,0.8,1.2,1.5,2.2,2c1,0.5,2.1,0.7,3.4,0.7c1.9,0,3.4-0.5,4.6-1.5c0.6-0.5,1.1-1.2,1.3-1.9
		s0.4-1.9,0.4-3.7V124.8z"/>
	<path style="fill:#FFFFFF;" d="M144.5,146.9v-22.1h7.5c3,0,5.4,0.5,7.1,1.4c1.8,0.9,3.1,2.2,4.2,4c1,1.8,1.6,3.7,1.6,5.7
		c0,1.5-0.3,2.9-0.9,4.2c-0.6,1.4-1.4,2.5-2.4,3.6c-1.1,1.1-2.3,1.9-3.8,2.4c-0.8,0.3-1.6,0.5-2.3,0.7c-0.7,0.1-2,0.2-4,0.2H144.5z
		 M151.6,127.6h-4v16.4h4.1c1.6,0,2.8-0.1,3.7-0.3c0.9-0.2,1.6-0.5,2.2-0.8c0.6-0.3,1.1-0.7,1.6-1.2c1.6-1.6,2.3-3.6,2.3-6
		c0-2.4-0.8-4.3-2.4-5.8c-0.6-0.6-1.3-1-2-1.4c-0.8-0.4-1.5-0.6-2.2-0.7C154.2,127.7,153.1,127.6,151.6,127.6z"/>
</g>
<g>
	<g>
		<path style="fill:#00CCDB;" d="M88.7,116.5l-14.9,0l0.1-43.2c0-5.4-1-9.4-3-12c-2-2.6-5.2-4-9.5-4c-5.7,0-10,1.9-12.6,5.6
			c-2.7,3.7-4,9.9-4,18.6l0,34.9l-14.9,0l0.1-70l11.6,0l2.1,9.2l0.8,0c1.9-3.3,4.8-5.9,8.5-7.7c3.7-1.8,7.8-2.7,12.2-2.7
			c10.8,0,17.9,3.7,21.4,11l1,0c2.1-3.5,5-6.2,8.7-8.1c3.8-1.9,8.1-2.9,12.9-2.9c8.4,0,14.4,2.1,18.3,6.4c3.8,4.2,5.7,10.7,5.7,19.3
			l-0.1,45.6l-14.9,0l0.1-43.2c0-5.4-1-9.4-3.1-12c-2-2.6-5.2-4-9.5-4c-5.8,0-10,1.8-12.7,5.4c-2.7,3.6-4,9.1-4,16.6L88.7,116.5z"/>
	</g>
	<g>
		<path style="fill:#00CCDB;" d="M207.7,117.8c-8.9,0-15.7-3.2-20.6-9.6l-0.9,0c0.6,5.9,0.9,9.5,0.9,10.8l0,28.7l-14.9,0l0.1-101.2
			l12,0c0.3,1.3,1,4.4,2.1,9.4l0.8,0c4.7-7.1,11.6-10.6,20.9-10.6c8.7,0,15.5,3.2,20.4,9.5c4.9,6.3,7.3,15.2,7.3,26.7
			c0,11.4-2.5,20.4-7.5,26.8C223.3,114.6,216.4,117.8,207.7,117.8z M204.2,57.4c-5.9,0-10.2,1.7-13,5.2c-2.7,3.5-4.1,9-4.1,16.6
			l0,2.2c0,8.5,1.3,14.7,4,18.5c2.7,3.8,7.1,5.7,13.2,5.7c5.1,0,9.1-2.1,11.9-6.3c2.8-4.2,4.2-10.2,4.2-18c0-7.9-1.4-13.8-4.1-17.8
			C213.6,59.4,209.5,57.4,204.2,57.4z"/>
	</g>
	<rect x="145.1" y="46.3" style="fill:#00CCDB;" width="14.2" height="70.2"/>
	<polygon style="fill:#00CCDB;" points="145.1,14.8 145.1,36.8 159.3,36.8 159.3,28.1 	"/>
</g>
</svg>
