<svg version="1.0" xmlns="http://www.w3.org/2000/svg" width="62pt" height="62pt" viewBox="0 0 620 620">
  <g transform="translate(0, 620) scale(1, -1)" fill="#000000" stroke="none">
    <path d="M114.452 416.02c-2.48 -1.736 -2.852 -3.1 -2.852 -10.416 0 -11.656 1.116 -12.524 16.492 -12.524 6.572 0 13.392 -0.62 15.128 -1.488 1.736 -0.744 34.72 -36.332 73.16 -79.112 79.732 -88.536 75.888 -84.94 93.62 -84.94s13.764 -3.596 93.62 84.94c38.44 42.656 71.424 78.368 73.16 79.112 1.736 0.868 8.68 1.488 15.376 1.488 15.128 0 16.244 0.868 16.244 12.772 0 11.656 -1.736 12.648 -19.84 11.656 -18.6 -0.992 -25.048 -3.844 -38.068 -17.484 -5.332 -5.456 -37.572 -40.92 -71.548 -78.616 -36.332 -40.424 -62.992 -69.068 -64.976 -69.812 -7.44 -2.852 -8.06 -2.232 -69.936 66.464 -82.46 91.512 -81.84 90.768 -91.14 95.108 -6.696 3.224 -9.672 3.72 -21.7 4.34 -11.78 0.496 -14.508 0.248 -16.74 -1.488"/>
    <path d="M172.98 260.896c-14.88 -16.74 -26.66 -28.768 -29.388 -30.256 -3.72 -1.984 -7.068 -2.48 -16.368 -2.48 -14.756 0 -15.624 -0.744 -15.624 -12.276 0 -4.836 0.62 -8.928 1.488 -9.796q1.488 -1.488 15.996 -1.488c15.5 0 21.7 1.364 29.884 6.82 4.216 2.852 55.552 58.404 55.552 60.264 0 1.116 -14.88 17.236 -15.872 17.112 -0.496 0 -12.028 -12.524 -25.668 -27.9"/>
    <path d="M413.044 280.736c-4.216 -4.588 -7.564 -8.68 -7.564 -9.052 0 -1.86 51.336 -57.412 55.552 -60.264 8.184 -5.456 14.384 -6.82 29.884 -6.82q14.508 0 15.996 1.488c0.868 0.868 1.488 4.96 1.488 9.796 0 11.532 -0.868 12.276 -15.624 12.276 -9.3 0 -12.648 0.496 -16.368 2.48 -2.728 1.488 -14.508 13.516 -29.388 30.256 -13.64 15.376 -25.172 27.9 -25.668 27.9 -0.372 0.124 -4.216 -3.596 -8.308 -8.06"/>
  </g>
</svg>