<svg xmlns="http://www.w3.org/2000/svg" width="62" height="62" fill="#4d44d8"><path d="M9 11.336v2.016s2.352 0 3.361.672c2.352 1.568 2.016 10.754 4.705 13.107.768.672 2.352 1.008 2.352 1.008h7.393s-1.137-.672-1.68-1.68c-2.352-4.369-1.344-10.754-4.705-14.115-1.008-1.008-3.025-1.008-3.025-1.008H9zm42.68 0v2.016s-2.352 0-3.361.672c-2.352 1.568-2.016 10.754-4.705 13.107-.768.672-2.352 1.008-2.352 1.008h-7.394s1.138-.672 1.68-1.68c2.352-4.369 1.344-10.754 4.705-14.115 1.008-1.008 3.025-1.008 3.025-1.008h8.402zM9 52v-2.016s2.352 0 3.361-.672c2.352-1.568 2.016-10.754 4.705-13.107.768-.672 2.352-1.008 2.352-1.008h7.393s-1.137.672-1.68 1.68c-2.352 4.369-1.344 10.754-4.705 14.115C19.418 52 17.402 52 17.402 52H9zm43.352 0v-2.016s-2.352 0-3.361-.672c-2.352-1.568-2.016-10.754-4.705-13.107-.768-.672-2.352-1.008-2.352-1.008h-7.393s1.138.672 1.68 1.68c2.352 4.369 1.344 10.754 4.705 14.115C41.934 52 43.951 52 43.951 52h8.402z"/><path d="M27.148 28.476h6.721v6.721h-6.721z"/></svg>