<svg width="62" height="62" viewBox="0 0 62 62" fill="none" xmlns="http://www.w3.org/2000/svg"><rect width="62" height="62" rx="31" fill="white"/><path fill-rule="evenodd" clip-rule="evenodd" d="M53 31C53 43.1504 43.1502 53 31 53C18.8497 53 9 43.1504 9 31C9 18.8497 18.8497 9 31 9C43.1502 9 53 18.8497 53 31ZM27.425 18.625C27.425 17.5619 26.5631 16.7 25.5 16.7C24.4369 16.7 23.5751 17.5619 23.5751 18.625V43.375C23.5751 44.4382 24.4369 45.3 25.5 45.3C26.5631 45.3 27.425 44.4382 27.425 43.375V18.625ZM38.4249 18.625C38.4249 17.5619 37.563 16.7 36.4999 16.7C35.4368 16.7 34.575 17.5619 34.575 18.625V43.375C34.575 44.4382 35.4368 45.3 36.4999 45.3C37.563 45.3 38.4249 44.4382 38.4249 43.375V18.625ZM32.9249 22.75C32.9249 21.6869 32.0631 20.825 31 20.825C29.9369 20.825 29.075 21.6869 29.075 22.75V39.25C29.075 40.3132 29.9369 41.175 31 41.175C32.0631 41.175 32.9249 40.3132 32.9249 39.25V22.75ZM21.925 26.875C21.925 25.8119 21.0631 24.95 20 24.95C18.9368 24.95 18.075 25.8119 18.075 26.875V35.125C18.075 36.1882 18.9368 37.05 20 37.05C21.0631 37.05 21.925 36.1882 21.925 35.125V26.875ZM43.925 26.875C43.925 25.8119 43.063 24.95 41.9999 24.95C40.9368 24.95 40.0749 25.8119 40.0749 26.875V35.125C40.0749 36.1882 40.9368 37.05 41.9999 37.05C43.063 37.05 43.925 36.1882 43.925 35.125V26.875Z" fill="#171B26"/></svg>