<svg width="62" height="62" viewBox="0 0 62 62" fill="none" xmlns="http://www.w3.org/2000/svg"><path fill-rule="evenodd" clip-rule="evenodd" d="M31 9C18.8448 9 9 18.8455 9 30.9984C9 43.1512 18.8448 53 31 53C43.1552 53 53 43.1545 53 30.9984C53 18.8422 43.152 9 31 9ZM31 49.6139C24.0718 49.6139 18.0203 45.7976 14.8202 40.166H19.5943C20.4742 40.166 21.1552 39.638 21.3768 38.7907L23.6645 30.2097L27.7575 45.224C27.9791 46.0485 28.67 46.5895 29.5401 46.5895C30.4102 46.5895 31.1336 46.0518 31.3324 45.1914L36.5008 25.3016L40.0985 38.7776C40.3299 39.6348 41.011 40.1627 41.868 40.1627H47.1929C43.9927 45.8073 37.9412 49.6106 31.0033 49.6106L31 49.6139ZM43.2986 36.5354L38.2834 17.6918C38.0618 16.8673 37.3579 16.3393 36.5008 16.3393C35.6438 16.3393 34.9399 16.8673 34.7085 17.7146L29.5173 37.6794L25.447 22.7205C25.2254 21.8959 24.5346 21.3549 23.6645 21.3549C22.7944 21.3549 22.1133 21.9057 21.8722 22.7856L18.2191 36.5354H13.2364C12.6857 34.7853 12.3891 32.9277 12.3891 31.0016C12.3891 20.739 20.7381 12.3894 31 12.3894C41.2619 12.3894 49.6109 20.739 49.6109 31.0016C49.6109 32.9277 49.3143 34.7853 48.7636 36.5354H43.2954H43.2986Z" fill="#502D7F"/></svg>