<svg width="62" height="62" viewBox="0 0 62 62" fill="none" xmlns="http://www.w3.org/2000/svg"><rect width="62" height="62" rx="31" fill="white"/><path d="M42.1707 26.7299C42.924 26.7299 43.5365 26.1191 43.5365 25.3641C43.5365 24.609 42.924 24 42.1707 24C41.4174 24 40.8049 24.6108 40.8049 25.3658C40.8049 26.1209 41.4174 26.7299 42.1707 26.7299Z" fill="black"/><path d="M27.6103 28.2461C25.1938 28.2461 23.2332 30.2121 23.2332 32.6234C23.2332 35.0347 25.1991 37.0008 27.6103 37.0008C30.0215 37.0008 31.9874 35.0347 31.9874 32.6234C31.9874 30.2121 30.0268 28.2461 27.6103 28.2461ZM27.6103 34.9291C26.3413 34.9291 25.3082 33.896 25.3082 32.6269C25.3082 31.3579 26.3413 30.3248 27.6103 30.3248C28.8792 30.3248 29.9124 31.3579 29.9124 32.6269C29.9124 33.896 28.8792 34.9291 27.6103 34.9291Z" fill="black"/><path d="M18.673 28.2485C18.5586 28.2397 18.4494 28.2344 18.3368 28.2344C17.2808 28.2344 16.2794 28.6674 15.5613 29.4312C14.8432 28.6709 13.8453 28.2344 12.7998 28.2344C10.7054 28.2361 9 29.9364 9 32.0309V36.8218H11.0469V32.089C11.0469 31.2195 11.7614 30.4186 12.6027 30.3324C12.6626 30.3271 12.7206 30.3236 12.7752 30.3236C13.7221 30.3236 14.4947 31.0963 14.5 32.0432V36.8201H16.5926V32.0802C16.5926 31.216 17.3019 30.4151 18.1485 30.3289C18.2083 30.3236 18.2664 30.3201 18.321 30.3201C19.2678 30.3201 20.0458 31.0892 20.0493 32.0309V36.8218H22.1419V32.089C22.1419 31.1297 21.7864 30.2039 21.1458 29.4911C20.5069 28.773 19.6286 28.3312 18.673 28.2485Z" fill="black"/><path d="M35.2081 24.2051H33.1155V36.8319H35.2081V24.2051ZM39.2139 24.2051H37.1212V36.8319H39.2139V24.2051ZM43.2179 28.4557H41.1252V36.8284H43.2179V28.4557Z" fill="black"/><path d="M53 32.4271C53 31.3165 52.567 30.271 51.7856 29.4737C50.9989 28.6781 49.9605 28.2363 48.8552 28.2363H48.8006C47.6549 28.2504 46.5707 28.7045 45.7611 29.5194C44.9515 30.3344 44.4957 31.4115 44.4834 32.5626C44.4693 33.7366 44.9198 34.8472 45.7523 35.6885C46.5848 36.5299 47.6866 36.9945 48.8605 36.9945H48.8658C50.404 36.9945 51.8454 36.1708 52.6339 34.8472L52.7342 34.6782L51.0059 33.8281L50.9197 33.9689C50.4832 34.6835 49.7334 35.1059 48.901 35.1059C47.8362 35.1059 46.9174 34.3966 46.6341 33.3863H53V32.4271ZM48.7725 30.1372C49.7282 30.1372 50.5835 30.7656 50.8845 31.6562H46.6658C46.9614 30.7656 47.8168 30.1372 48.7725 30.1372Z" fill="black"/></svg>