<svg xmlns="http://www.w3.org/2000/svg" width="62" height="62" fill="none"><g clip-path="url(#A)"><path d="M14.379 44.591a5.4 5.4 0 0 1-4.706-2.73 5.22 5.22 0 0 1 .148-5.375l9.69-15.217c.496-.818 1.2-1.489 2.041-1.946s1.787-.682 2.743-.653a5.39 5.39 0 0 1 2.701.801c.814.501 1.479 1.21 1.929 2.053.903 1.708.79 3.763-.291 5.367l-9.684 15.217a5.4 5.4 0 0 1-4.57 2.484z" fill="#f62b54"/><path d="M31 44.59c-1.954 0-3.753-1.045-4.697-2.724-.464-.823-.696-1.756-.67-2.701s.309-1.864.817-2.66l9.672-15.182c.489-.829 1.19-1.513 2.032-1.979s1.793-.7 2.755-.675c1.971.043 3.757 1.146 4.66 2.87.897 1.724.766 3.792-.349 5.391l-9.67 15.182c-.49.762-1.163 1.389-1.959 1.822A5.39 5.39 0 0 1 31 44.59z" fill="#fc0"/><path d="M47.25 44.718c2.755 0 4.989-2.187 4.989-4.884s-2.234-4.884-4.989-4.884-4.989 2.187-4.989 4.884 2.233 4.884 4.989 4.884z" fill="#00ca72"/></g><defs><clipPath id="A"><path fill="#fff" transform="translate(9 18)" d="M0 0h44v26.829H0z"/></clipPath></defs></svg>