<svg width="62" height="62" viewBox="0 0 62 62" fill="none" xmlns="http://www.w3.org/2000/svg">
  <g transform="translate(9 16) scale(1.1)">
    <path fill="#0073e6" fill-rule="evenodd" d="M19.6231019,23.7057744 C11.657519,23.093883 9.07019181,18.727137 8.34791195,15.7060866 C8.34791195,15.7060866 9.90539106,16.1273985 11.9399619,16.4058484 C11.9457378,16.4067213 12.4901191,16.4823712 12.5010933,16.3374725 C12.5224643,16.0584407 7.91500611,14.7028524 5.68260975,10.8781671 C3.94058973,7.89348693 3.83402385,5.03159237 3.83402385,5.03159237 C8.50848276,5.93357216 11.3811408,7.06366553 26.0875211,6.69734536 C30.6415519,6.69734536 32.6732347,7.63889587 32.6732347,13.2172044 C32.6732347,17.1125932 30.9687582,23.6301245 19.6231019,23.7057744 M40,13.0088761 C40,12.2788544 39.2260256,11.8106978 38.2689542,11.5101349 L38.2880148,11.4906405 C38.2880148,11.4906405 38.2308331,11.4859851 38.140151,11.4711461 C37.9862225,11.4260471 37.8285397,11.3847306 37.6691241,11.3474876 C37.4536819,11.2680552 37.2229336,11.1464334 37.0499445,10.9596363 C36.8498086,10.743743 36.7290917,10.4690757 36.656315,10.2342699 C36.0492649,6.18787226 33.7539109,2.48597266 26.0875211,2.48597266 L12.7719844,2.48597266 C12.3211731,2.47084268 11.0975427,2.40043006 8.1983154,2.08328233 C5.38659342,1.77573632 2.87088777,0.890050372 2.84749526,0.881903457 L0.379441024,0 L0.0730280188,2.62039675 C0.0357732801,2.93870832 -0.764192814,10.3299962 3.9749565,14.0810682 L3.97091335,14.1244215 C3.78868281,16.108777 4.5482174,20.437698 8.66529922,23.9391253 C17.5896863,31.5294307 29.7191361,26.7649407 32.8219649,23.4261607 C34.763832,21.3361863 36.1566972,18.8679622 36.6381208,15.905686 C36.7085872,15.6592419 36.8327696,15.3551874 37.0499445,15.1206727 C37.1440922,15.0191272 37.2555676,14.9376581 37.3719525,14.870737 C37.6835639,14.7907227 37.9943088,14.697906 38.2874372,14.5896684 L38.2880148,14.5896684 L38.2880148,14.5896684 C39.2364223,14.240224 40,13.7339515 40,13.0088761 M28.3291589,9.22463451 C27.2961341,9.22463451 26.6007123,9.86533112 26.6007123,11.0466337 C26.6007123,12.1476309 27.2961341,12.7685422 28.3291589,12.7685422 C29.3431232,12.7685422 30.0783989,12.1077692 30.0783989,11.0265573 C30.0783989,9.8452548 29.4621073,9.22463451 28.3291589,9.22463451"/>
  </g>
</svg>
