<svg xmlns="http://www.w3.org/2000/svg" width="62" height="62" fill="none"><rect width="62" height="62" rx="31" fill="#fff"/><mask id="A" maskUnits="userSpaceOnUse" x="9" y="14" width="44" height="35"><path d="M53 14H9v34.435h44V14z" fill="#fff"/></mask><g mask="url(#A)"><path d="M53 24.08h-6.366v24.304H53V24.08z" fill="#000"/><path d="M19.08 20.366a3.72 3.72 0 0 1 3.714 3.714h6.366A10.1 10.1 0 0 0 19.08 14 10.1 10.1 0 0 0 9 24.08h6.366a3.72 3.72 0 0 1 3.714-3.714z" fill="#ff4b4b"/><path d="M22.794 48.385h6.366v-6.366V24.08h-6.366v24.304z" fill="#5887ff"/><path d="M39.207 48.368v-6.35H32.84h-3.68v6.366l10.047-.017z" fill="#fa0"/><path d="M39.206 24.08a3.72 3.72 0 0 1 3.714-3.714V14a10.1 10.1 0 0 0-10.08 10.08v17.938h6.366V24.08z" fill="#00843f"/><path d="M46.634 24.08H53A10.1 10.1 0 0 0 42.92 14v6.366a3.71 3.71 0 0 1 3.714 3.714z" fill="#fc83ff"/><path d="M15.366 24.08H9v24.304h6.366V24.08z" fill="#000"/></g></svg>