<svg width="62" height="62" viewBox="0 0 62 62" fill="none" xmlns="http://www.w3.org/2000/svg"><path fill-rule="evenodd" clip-rule="evenodd" d="M37.8217 10L32.7054 20.8075C32.5349 20.5502 32.4496 20.4644 32.2791 20.2071C31.5116 19.4351 30.5736 18.749 29.5504 18.3201C28.5271 17.8912 27.4186 17.6339 26.2248 17.6339C24.5194 17.6339 22.9845 18.0628 21.5349 19.0063C20.1705 19.9498 19.062 21.1506 18.3798 22.6946L9 43.8808L24.1783 51L29.2946 40.2782C29.4651 40.5356 29.4651 40.6213 29.7209 40.8787C30.4884 41.6506 31.4264 42.3368 32.5349 42.7657C33.5581 43.1946 34.6667 43.4519 35.8605 43.4519C37.5659 43.4519 39.1008 43.023 40.4651 42.0795C41.8295 41.136 42.8527 39.9351 43.6202 38.3912L53 17.0335L37.8217 10Z" fill="#276DF6"/></svg>