<svg xmlns="http://www.w3.org/2000/svg" width="62" height="62" fill="none"><rect width="62" height="62" rx="31" fill="#fff"/><path d="M30.999 52.952c7.859 0 15.121-4.188 19.051-10.988s3.93-15.176 0-21.976S38.858 9 30.999 9s-15.122 4.188-19.051 10.988-3.93 15.176 0 21.976 11.192 10.988 19.051 10.988v-2.108c-7.105 0-13.671-3.787-17.224-9.934a19.85 19.85 0 0 1 0-19.868c3.553-6.147 10.119-9.934 17.224-9.934s13.671 3.787 17.224 9.934a19.85 19.85 0 0 1 0 19.868c-3.553 6.147-10.119 9.934-17.224 9.934v2.108z" fill="#455a64" fill-opacity=".01"/><path d="M30.999 52.952c6.694 0 13.026-3.045 17.2-8.274l-1.65-1.314c-3.774 4.727-9.497 7.48-15.549 7.48v2.108z" fill="#ce001b"/><path d="M48.2 44.678a21.96 21.96 0 0 0 4.248-18.592l-2.058.469c1.347 5.895-.067 12.082-3.841 16.809l1.65 1.315z" fill="#780011"/><path d="M52.448 26.086a21.98 21.98 0 0 0-11.903-14.91l-.916 1.899A19.87 19.87 0 0 1 50.39 26.555l2.058-.469z" fill="#6d7096"/><path d="M40.542 11.176a22.02 22.02 0 0 0-19.089 0l.916 1.899c5.453-2.623 11.805-2.623 17.258 0l.916-1.899z" fill="#60bbd5"/><path d="M21.456 11.177c-6.031 2.902-10.413 8.39-11.903 14.91l2.058.469a19.87 19.87 0 0 1 10.761-13.479l-.916-1.899z" fill="#0f99be"/><path d="M9.552 26.086A21.96 21.96 0 0 0 13.8 44.678l1.65-1.315c-3.774-4.727-5.187-10.914-3.84-16.809l-2.058-.469z" fill="#8c9d26"/><path d="M13.8 44.678c4.174 5.229 10.505 8.274 17.2 8.274v-2.108c-6.053 0-11.776-2.753-15.549-7.48l-1.65 1.314z" fill="#fcd813"/><path d="M21.251 36.442v-1.932h3.822l1.245-7.157h-3.79v-1.976h4.129l1.013-6.191h2.342l-1.057 6.191h5.938l1.013-6.191h2.34l-1.013 6.191h3.529v1.976h-3.867l-1.245 7.157h3.834v1.932h-4.13l-1.057 6.323h-2.296l1.057-6.323h-5.94l-1.057 6.323h-2.294l1.013-6.323h-3.529zm13.306-9.089h-5.984l-1.162 7.157h5.984l1.162-7.157z" fill="#000"/></svg>