<?xml version="1.0" encoding="UTF-8"?>
<!DOCTYPE svg PUBLIC "-//W3C//DTD SVG 1.1//EN" "http://www.w3.org/Graphics/SVG/1.1/DTD/svg11.dtd">
<svg xmlns="http://www.w3.org/2000/svg" version="1.1" width="512px" height="512px" style="shape-rendering:geometricPrecision; text-rendering:geometricPrecision; image-rendering:optimizeQuality; fill-rule:evenodd; clip-rule:evenodd" xmlns:xlink="http://www.w3.org/1999/xlink">
<g><path style="opacity:0.999" fill="#0082c9" d="M 63.5,-0.5 C 191.5,-0.5 319.5,-0.5 447.5,-0.5C 482.5,7.16667 503.833,28.5 511.5,63.5C 511.5,191.5 511.5,319.5 511.5,447.5C 503.833,482.5 482.5,503.833 447.5,511.5C 319.5,511.5 191.5,511.5 63.5,511.5C 28.5,503.833 7.16667,482.5 -0.5,447.5C -0.5,319.5 -0.5,191.5 -0.5,63.5C 7.16667,28.5 28.5,7.16667 63.5,-0.5 Z"/></g>
<g><path style="opacity:1" fill="#fdfefe" d="M 240.5,168.5 C 281.301,164.347 312.134,179.681 333,214.5C 335.61,220.053 337.943,225.719 340,231.5C 360.331,198.949 387.831,191.116 422.5,208C 448.772,228.742 454.605,254.242 440,284.5C 422.668,309.235 399.502,317.069 370.5,308C 356.724,301.891 346.558,292.057 340,278.5C 328.567,314.27 304.4,335.436 267.5,342C 226.932,345.724 196.766,329.89 177,294.5C 174.994,289.157 172.994,283.823 171,278.5C 157.521,303.991 136.354,314.824 107.5,311C 75.0132,300.212 60.5132,277.712 64,243.5C 70.4913,221.009 84.9913,206.509 107.5,200C 135.88,196.274 157.047,206.774 171,231.5C 182.675,197.651 205.842,176.651 240.5,168.5 Z"/></g>
<g><path style="opacity:1" fill="#0382c9" d="M 243.5,201.5 C 276.798,198.013 298.631,212.013 309,243.5C 313.022,271.288 302.856,291.788 278.5,305C 246.832,316.115 222.665,307.282 206,278.5C 195.482,250.067 202.315,226.9 226.5,209C 232.06,205.99 237.727,203.49 243.5,201.5 Z"/></g>
<g><path style="opacity:1" fill="#0683c9" d="M 112.5,232.5 C 133.842,230.676 143.675,240.343 142,261.5C 136.905,275.137 127.072,280.637 112.5,278C 99.241,272.628 94.0743,262.794 97,248.5C 99.685,240.65 104.852,235.316 112.5,232.5 Z"/></g>
<g><path style="opacity:1" fill="#0683c9" d="M 384.5,232.5 C 405.842,230.676 415.675,240.343 414,261.5C 408.905,275.137 399.072,280.637 384.5,278C 371.241,272.628 366.074,262.794 369,248.5C 371.685,240.65 376.852,235.316 384.5,232.5 Z"/></g>
</svg>
