<svg width="62" height="62" viewBox="0 0 62 62" fill="none" xmlns="http://www.w3.org/2000/svg"><rect width="62" height="62" rx="31" fill="white"/><mask id="mask0_3159_196" style="mask-type:luminance" maskUnits="userSpaceOnUse" x="9" y="16" width="44" height="30"><path d="M53 16H9V45.8103H53V16Z" fill="white"/></mask><g mask="url(#mask0_3159_196)"><path d="M34.9982 42.7492C35.5307 43.278 36.1195 43.7467 36.7542 44.147L39.9346 40.9667C39.2619 40.6624 38.6474 40.2434 38.1183 39.7285C37.548 39.1712 37.0894 38.5101 36.7669 37.7808C36.4361 37.0419 36.2537 36.2451 36.2304 35.4358V26.5324C36.2245 25.7112 36.3939 24.8982 36.7272 24.1476C37.0474 23.422 37.4988 22.7617 38.0587 22.2C38.6233 21.6383 39.2925 21.1927 40.0284 20.8883C40.8028 20.5666 41.6342 20.4043 42.4728 20.4114C43.292 20.4056 44.1037 20.5679 44.8577 20.8883C45.585 21.1966 46.2462 21.6419 46.8053 22.2C47.365 22.7619 47.8164 23.4221 48.1368 24.1476C48.4699 24.8983 48.6392 25.7112 48.6336 26.5324V32.2698L53.0058 27.8976V26.5324C53.0146 25.1182 52.7304 23.7176 52.1711 22.4186C51.6368 21.1655 50.8687 20.0256 49.9078 19.06C48.4362 17.5799 46.5574 16.5713 44.5107 16.1626C42.464 15.7538 40.3419 15.9635 38.4147 16.7649C36.4876 17.5662 34.8425 18.923 33.689 20.6625C32.5356 22.4019 31.9259 24.4453 31.9377 26.5324V35.3563C31.93 36.7491 32.2073 38.1288 32.7525 39.4105C33.279 40.6576 34.0416 41.7913 34.9982 42.7492Z" fill="#262626"/><path d="M29.5294 22.8357C29.0027 21.5226 28.2114 20.332 27.2047 19.338C26.2183 18.2842 25.01 17.4629 23.6672 16.9333C21.0905 15.8998 18.2145 15.8998 15.6378 16.9333C14.2947 17.4623 13.0863 18.2838 12.1003 19.338C11.0925 20.3317 10.3002 21.5223 9.77286 22.8357C9.2638 24.0991 9.00145 25.4483 9 26.8104C9.00374 28.1852 9.26591 29.547 9.77286 30.8249C10.292 32.1537 11.0841 33.3588 12.0981 34.3624C12.4657 34.7262 12.8584 35.0638 13.2734 35.3726L16.4697 32.1763C16.0126 31.9398 15.5968 31.6311 15.2381 31.2621C14.6236 30.6831 14.1428 29.977 13.8293 29.193C13.2192 27.6884 13.2192 26.0053 13.8293 24.5007C14.1442 23.7194 14.6249 23.0158 15.2381 22.4382C15.7967 21.8188 16.4903 21.336 17.2652 21.0272C18.0107 20.7273 18.8066 20.5721 19.6103 20.5701C20.4202 20.5733 21.2224 20.7284 21.9752 21.0272C22.7661 21.3383 23.4786 21.8201 24.0619 22.4382C24.6765 23.0168 25.1579 23.722 25.4729 24.5051C26.0836 26.0096 26.0836 27.6929 25.4729 29.1975C25.1585 29.9808 24.677 30.6861 24.0619 31.2643L15.8365 39.4897L9.51726 45.8095H15.7553L23.9051 37.6216L27.2047 34.3646C28.2183 33.3609 29.0103 32.1558 29.5294 30.8271C30.0366 29.5493 30.2988 28.1874 30.3022 26.8126C30.301 25.4505 30.0387 24.1012 29.5294 22.8379" fill="#262626"/></g></svg>