<?xml version="1.0" encoding="utf-8"?>
<svg xmlns="http://www.w3.org/2000/svg" width="62px" height="62px" fill="none">
  <path d="M 57.153 0 L 4.847 0 C 2.17 0 0 2.17 0 4.847 L 0 57.153 C 0 59.83 2.17 62 4.847 62 L 57.153 62 C 59.83 62 62 59.83 62 57.153 L 62 4.847 C 62 2.17 59.83 0 57.153 0 Z" fill="#053856" style="transform-origin: 0px 0px;"/>
  <path d="M 41.94 19.275 C 39.84 17.15 37.08 16.084 33.666 16.084 C 31.788 16.084 30.062 16.411 28.491 17.065 C 26.922 17.719 25.607 18.647 24.548 19.857 L 24.548 15.521 L 16.915 19.105 L 16.915 44.863 L 24.907 44.863 L 24.907 30.964 C 24.907 28.413 25.502 26.49 26.699 25.195 C 27.896 23.906 29.499 23.259 31.513 23.259 C 33.325 23.259 34.706 23.815 35.66 24.933 C 36.615 26.052 37.093 27.739 37.093 30.009 L 37.093 44.863 L 45.086 44.863 L 45.086 29.309 C 45.086 25.129 44.032 21.395 41.94 19.269 L 41.94 19.275 Z" fill="#04FF88" style="transform-origin: 0px 0px;"/>
</svg>