<svg width="62" height="62" viewBox="0 0 62 62" fill="none" xmlns="http://www.w3.org/2000/svg"><rect width="62" height="62" rx="31" fill="white"/><path fill-rule="evenodd" clip-rule="evenodd" d="M52.9585 18H49.9303L42.1615 33.8448L39.3565 30.9601L45.7008 18.0185L45.6619 18H42.6337L37.3092 28.8588L34.9998 26.4848L39.1515 18.0185L39.11 18H36.0819L30.5083 29.3696L26.8314 25.5903H25.1345L23.4997 28.8985L20.2795 25.5903H18.5825L9 45H12.0826L19.8955 29.1817L22.1946 31.5451L15.5493 45H18.6319L24.2393 33.6464L27.0338 36.5206L22.8458 45H25.9285L31.2841 34.1545L34.6262 37.587H36.1078L38.0566 33.6146L41.9253 37.5897H43.407L53 18.0212L52.9585 18ZM27.819 33.844L25.5458 31.5072L26.698 29.1755L28.9658 31.5045L27.819 33.844ZM32.5901 31.5072L34.8631 33.844L36.01 31.5045L33.7421 29.1755L32.5901 31.5072Z" fill="black"/></svg>