<svg xmlns="http://www.w3.org/2000/svg" width="62" height="62" fill="none"><rect width="62" height="62" rx="31" fill="#fff"/><path fill-rule="evenodd" d="M17.245 16.832c1.361 1.106 1.872 1.022 4.429.851l24.103-1.447c.511 0 .086-.51-.084-.595l-4.003-2.894c-.767-.595-1.789-1.277-3.747-1.107l-23.339 1.702c-.851.084-1.021.51-.682.851l3.324 2.638zm1.447 5.617v25.36c0 1.363.681 1.873 2.214 1.789l26.489-1.533c1.534-.084 1.705-1.022 1.705-2.129v-25.19c0-1.105-.425-1.701-1.364-1.616l-27.681 1.616c-1.022.086-1.362.597-1.362 1.703zm26.15 1.36c.17.767 0 1.533-.768 1.619l-1.276.254v18.723c-1.108.596-2.13.936-2.981.936-1.363 0-1.705-.426-2.726-1.702l-8.348-13.106v12.68l2.642.596s0 1.531-2.131 1.531l-5.876.341c-.171-.341 0-1.191.596-1.361l1.533-.425V27.13l-2.129-.171c-.171-.767.255-1.872 1.448-1.958l6.303-.425 8.688 13.276V26.108l-2.215-.254c-.17-.937.51-1.618 1.362-1.702l5.879-.342zM12.644 11.045L36.92 9.257c2.981-.256 3.748-.084 5.622 1.277l7.749 5.447c1.279.937 1.705 1.192 1.705 2.212v29.872c0 1.872-.682 2.979-3.066 3.149l-28.192 1.702c-1.79.085-2.642-.17-3.579-1.362l-5.707-7.404c-1.022-1.363-1.448-2.383-1.448-3.576V14.022c0-1.531.682-2.808 2.64-2.977z" fill="#000"/></svg>