<svg xmlns="http://www.w3.org/2000/svg" width="62" height="62" fill="none" xmlns:v="https://vecta.io/nano"><path d="M31 53a22 22 0 0 1-20.325-13.581 22 22 0 0 1 4.769-23.975 22 22 0 0 1 23.975-4.769A22 22 0 0 1 53 31a22 22 0 0 1-22 22zm0-9.093c2.553 0 5.048-.757 7.171-2.175s3.777-3.434 4.754-5.792 1.233-4.953.735-7.457-1.727-4.803-3.532-6.608-4.105-3.034-6.608-3.532-5.099-.242-7.457.735a12.91 12.91 0 0 0-5.792 4.754c-1.418 2.122-2.175 4.618-2.175 7.171 0 3.423 1.36 6.706 3.78 9.126s5.703 3.78 9.126 3.78z" fill="#714b67"/></svg>