<svg xmlns="http://www.w3.org/2000/svg" width="62" height="62" fill="none"><rect width="62" height="62" rx="31" fill="#fff"/><path fill-rule="evenodd" d="M33.191 9.306l-.904 11.147c-.428-.049-.856-.073-1.296-.073-.55 0-1.088.037-1.613.122l-.513-5.402c-.012-.171.122-.318.293-.318h.917l-.44-5.463c-.012-.171.122-.318.281-.318h2.994a.28.28 0 0 1 .281.318v-.012zm-7.553.55c-.049-.159-.22-.257-.379-.196l-2.811 1.027c-.159.061-.232.244-.159.391l2.286 4.987-.868.318c-.159.061-.232.244-.159.391l2.335 4.901a10.48 10.48 0 0 1 2.726-1.039L25.65 9.856h-.012zm-6.893 3.104l6.466 9.118c-.819.538-1.564 1.173-2.2 1.907l-3.875-3.813c-.122-.122-.11-.318.012-.428l.709-.587-3.85-3.899c-.122-.122-.11-.318.024-.428l2.286-1.919c.134-.11.318-.085.416.049h.012zm-5.427 5.28c-.134-.098-.33-.049-.415.098l-1.491 2.591c-.086.147-.024.33.122.403l4.962 2.347-.464.794c-.086.147-.024.342.134.403l4.938 2.261c.354-.917.831-1.772 1.418-2.542l-9.203-6.356zm-3.654 7.04c.024-.171.196-.269.354-.232l10.817 2.823c-.281.917-.44 1.882-.464 2.885l-5.414-.44c-.171-.012-.293-.171-.257-.342l.159-.904-5.463-.513c-.171-.012-.281-.171-.257-.342l.513-2.945.012.012zm-.403 7.309c-.171.012-.281.171-.257.342l.526 2.946c.024.171.196.269.354.232l5.304-1.381.159.904c.024.171.196.269.354.232l5.231-1.442a10.59 10.59 0 0 1-.55-2.86L9.248 32.589h.012zm1.736 7.749a.29.29 0 0 1 .122-.403l10.096-4.791c.379.904.892 1.748 1.503 2.506l-4.424 3.153c-.134.098-.33.061-.416-.085l-.464-.807-4.51 3.117c-.135.098-.33.049-.416-.098l-1.503-2.591h.012zm12.235-2.102l-7.859 7.957c-.122.122-.11.318.024.428l2.298 1.919c.134.11.318.086.415-.049l3.178-4.473.709.599c.134.11.33.085.428-.061l3.08-4.473c-.831-.513-1.601-1.137-2.261-1.846h-.012zm-1.552 12.772c-.159-.061-.232-.245-.159-.391l4.657-10.169a10.19 10.19 0 0 0 2.75.953l-1.369 5.256c-.037.159-.22.257-.379.196l-.868-.318-1.454 5.292c-.049.159-.22.257-.379.195l-2.811-1.027.012.012zm8.018-9.472l-.904 11.147c-.012.171.122.318.281.318h2.994a.28.28 0 0 0 .281-.318l-.44-5.463h.917c.171 0 .306-.147.293-.318l-.513-5.402c-.526.086-1.063.122-1.613.122a9.11 9.11 0 0 1-1.296-.085zm10.78-30.177c.073-.159 0-.33-.159-.391l-2.811-1.027c-.159-.061-.33.037-.379.196l-1.454 5.292-.868-.318c-.159-.061-.33.037-.379.196l-1.369 5.256a10.93 10.93 0 0 1 2.75.953l4.669-10.157zm6.136 4.437l-7.859 7.957c-.66-.709-1.418-1.332-2.261-1.845l3.08-4.473c.098-.134.293-.171.428-.061l.709.599 3.178-4.473c.098-.134.293-.159.416-.049l2.298 1.919c.134.11.134.305.024.428h-.012zm4.253 6.258a.28.28 0 0 0 .122-.403l-1.503-2.591c-.086-.147-.281-.183-.416-.098l-4.51 3.117-.464-.794c-.086-.147-.281-.195-.416-.085l-4.424 3.153c.611.758 1.112 1.601 1.503 2.506l10.096-4.791.012-.012zm1.589 4.058l.513 2.946c.024.171-.086.318-.257.342l-11.134 1.039a10.5 10.5 0 0 0-.55-2.86l5.231-1.442c.159-.049.33.061.354.232l.159.904 5.304-1.381c.159-.037.33.061.355.232l.024-.012zm-.501 10.817c.159.037.33-.061.354-.232l.513-2.946c.024-.171-.086-.318-.257-.342l-5.463-.513.159-.904c.025-.171-.085-.318-.257-.342l-5.414-.44c-.024 1.002-.183 1.968-.464 2.884l10.817 2.823.012.012zm-2.885 6.722c-.085.147-.281.183-.416.098l-9.203-6.356c.587-.77 1.063-1.626 1.418-2.542l4.938 2.261c.159.073.22.257.134.403l-.464.794 4.962 2.347c.147.073.208.257.122.403l-1.491 2.591zM36.76 39.898l6.465 9.118c.098.134.293.159.416.049l2.285-1.919c.135-.11.135-.306.025-.428l-3.85-3.899.709-.587c.134-.11.134-.306.012-.428l-3.874-3.813a10.55 10.55 0 0 1-2.2 1.907h.012zm-.061 12.418c-.159.061-.33-.037-.379-.196l-2.958-10.78c.966-.22 1.882-.574 2.726-1.039l2.334 4.901c.073.159 0 .342-.159.391l-.868.318 2.286 4.987c.073.159 0 .33-.159.391l-2.811 1.027h-.012z" fill="#000"/></svg>