<?xml version="1.0" encoding="UTF-8"?>
<svg version="1.1" xmlns="http://www.w3.org/2000/svg" width="256" height="256">
<path d="M0 0 C84.48 0 168.96 0 256 0 C256 84.48 256 168.96 256 256 C171.52 256 87.04 256 0 256 C0 171.52 0 87.04 0 0 Z " fill="#635BFF" transform="translate(0,0)"/>
<path d="M0 0 C3.50351046 2.83923631 6.7792136 5.84550766 10 9 C10.83337891 9.77923828 10.83337891 9.77923828 11.68359375 10.57421875 C24.2701395 23.57008306 27.16735009 42.06966333 27.25 59.3125 C27.270625 60.37662109 27.29125 61.44074219 27.3125 62.53710938 C27.38630957 77.65884558 21.92829164 90.92729716 13 103 C12.55011719 103.61617188 12.10023438 104.23234375 11.63671875 104.8671875 C3.74948034 114.86509535 -8.75050704 121.19871174 -21 124 C-33.82256981 125.17029 -46.54785287 125.42755836 -58 119 C-58.94617188 118.49210938 -59.89234375 117.98421875 -60.8671875 117.4609375 C-75.53997447 108.88487642 -85.68872828 95.41157434 -90 79 C-90.27585937 78.17113281 -90.55171875 77.34226562 -90.8359375 76.48828125 C-96.3312716 58.41417782 -93.50688803 37.64290356 -85 21 C-76.28184509 6.06096218 -63.5996285 -4.21164563 -47 -9 C-30.66021465 -12.35810761 -13.77275394 -9.80864026 0 0 Z " fill="#FCFCFF" transform="translate(157,64)"/>
<path d="M0 0 C11.70421299 5.63043579 17.47163625 15.68387442 21.66772461 27.6418457 C25.32134786 39.13256486 26.32409246 50.2664522 26.25854492 62.24804688 C26.25002967 64.60896109 26.27894378 66.96744695 26.31054688 69.328125 C26.37815039 84.24273778 24.73161423 102.01109857 13.8125 113.2421875 C8.46861939 117.44907224 3.78734442 117.99011757 -2.96875 117.7421875 C-10.31668554 116.60076062 -14.62404257 112.3584167 -18.9375 106.5546875 C-32.82147545 84.8790122 -35.81033932 53.57296041 -31.00952148 28.57348633 C-28.44968759 17.17505011 -25.01664445 8.12063451 -15.1875 1.2421875 C-10.38477487 -1.58071603 -5.26767729 -1.82487392 0 0 Z " fill="#645CFF" transform="translate(127.1875,62.7578125)"/>
</svg>
