<svg xmlns="http://www.w3.org/2000/svg" width="62" height="62" fill="none"><g fill="#ca64ea"><path d="M21.833 11.75h29.334c.486 0 .952.193 1.296.537s.537.81.537 1.296v34.834c0 .486-.193.952-.537 1.296s-.81.537-1.296.537H21.833c-.486 0-.952-.193-1.296-.537S20 48.903 20 48.417V13.583c0-.486.193-.952.537-1.296s.81-.537 1.296-.537z"/><path d="M53 13.583c0-.486-.193-.952-.537-1.296s-.81-.537-1.296-.537H21.832c-.486 0-.952.194-1.295.537s-.536.81-.536 1.296v34.834c0 .486.193.952.537 1.296s.81.537 1.296.537h21.542L53 21.375v-7.792z"/></g><path d="M53 21.375h-9.625V31l4.813 4.393L53 31v-9.625z" fill="#ae4bd5"/><path d="M53 31h-9.625v9.625l4.813 4.668L53 40.625V31z" fill="#9332bf"/><path d="M43.375 40.625H53v7.792c0 .486-.193.952-.537 1.296s-.81.537-1.296.537h-7.792v-9.625z" fill="#7719aa"/><g fill="#000"><path opacity=".1" d="M31.917 18.625H20V44.75h11.917a1.84 1.84 0 0 0 1.833-1.833V20.458a1.84 1.84 0 0 0-1.833-1.833z"/><path opacity=".2" d="M30.542 20H20v26.125h10.542a1.84 1.84 0 0 0 1.833-1.833V21.833A1.84 1.84 0 0 0 30.542 20z"/><path opacity=".3" d="M30.542 20H20v23.375h10.542a1.84 1.84 0 0 0 1.833-1.833V21.833A1.84 1.84 0 0 0 30.542 20z"/><path opacity=".2" d="M29.167 20H20v23.375h9.167A1.84 1.84 0 0 0 31 41.542V21.833A1.84 1.84 0 0 0 29.167 20z"/></g><path d="M10.833 20h18.334c.486 0 .952.193 1.296.537s.537.81.537 1.296v18.334c0 .486-.193.952-.537 1.296s-.81.537-1.296.537H10.833c-.486 0-.952-.193-1.296-.537S9 40.653 9 40.167V21.833c0-.486.193-.952.537-1.296s.81-.537 1.296-.537z" fill="#7719aa"/><path d="M14.501 24.125h2.929l5.027 9.257.591.962h.036a13.05 13.05 0 0 1-.082-1.823v-8.396h2.497v13.75h-2.742l-5.243-9.116a7.06 7.06 0 0 1-.534-.943h-.047a18.74 18.74 0 0 1 .076 2.002v8.058H14.5l.001-13.75z" fill="#fff"/></svg>