<svg xmlns="http://www.w3.org/2000/svg" width="62" height="62" fill="none" xmlns:v="https://vecta.io/nano"><path d="M40.184 13.87l-26.58 16.987-2.286-3.636v-3.133c0-1.141.573-2.204 1.522-2.825l15.451-10.108a7.06 7.06 0 0 1 7.741-.001l4.153 2.716z" fill="url(#A)"/><use href="#N" fill="url(#B)"/><use href="#N" fill="url(#C)"/><use href="#O" fill="url(#D)"/><use href="#O" fill="url(#E)"/><path d="M36.031 11.155c-2.354-1.54-5.387-1.539-7.741.001L12.84 21.264c-.949.621-1.522 1.684-1.522 2.825v.153c.037 1.145.635 2.2 1.6 2.814L32.13 39.267l19.26-12.193c1.001-.633 1.607-1.74 1.607-2.931v2.97l.001-3.032c0-1.141-.573-2.204-1.522-2.825L36.031 11.155z" fill="url(#F)"/><use href="#P" fill="url(#G)"/><use href="#P" fill="url(#H)"/><use href="#P" fill="url(#I)"/><use href="#Q" fill="url(#J)"/><use href="#Q" fill="url(#K)"/><use href="#R" fill="url(#L)"/><use href="#R" fill="url(#M)"/><g fill="#fff"><path d="M18.216 44.523c-1.532 0-2.789-.483-3.773-1.45s-1.475-2.227-1.475-3.783c0-1.643.499-2.971 1.497-3.986s2.305-1.521 3.921-1.521c1.527 0 2.77.486 3.728 1.456.964.971 1.445 2.252 1.445 3.841 0 1.633-.499 2.95-1.497 3.95s-2.275 1.493-3.847 1.493zm.044-2.051c.835 0 1.507-.288 2.016-.862s.764-1.375.764-2.399c0-1.068-.247-1.899-.741-2.493s-1.154-.891-1.979-.891c-.85 0-1.534.307-2.053.92s-.778 1.416-.778 2.42c0 1.02.259 1.826.778 2.42s1.183.884 1.994.884z"/><path d="M18.211 44.665c-1.526 0-2.779-.496-3.759-1.489s-1.469-2.288-1.469-3.886c0-1.688.497-3.052 1.492-4.094s2.297-1.563 3.906-1.563c1.521 0 2.759.499 3.714 1.496.96.998 1.44 2.313 1.44 3.946 0 1.677-.497 3.03-1.491 4.057s-2.267 1.533-3.832 1.533zm.044-2.106c.832 0 1.502-.296 2.008-.886s.761-1.412.761-2.464c0-1.097-.246-1.95-.738-2.561s-1.149-.916-1.971-.916c-.847 0-1.529.315-2.046.945-.517.625-.775 1.454-.775 2.486 0 1.047.258 1.876.775 2.486a2.49 2.49 0 0 0 1.986.908z"/></g><defs><linearGradient id="A" x1="15.935" y1="29.072" x2="40.294" y2="14.087" href="#S"><stop stop-color="#20a7fa"/><stop offset=".4" stop-color="#3bd5ff"/><stop offset="1" stop-color="#c4b0ff"/></linearGradient><linearGradient id="B" x1="24.28" y1="34.243" x2="37.94" y2="12.55" href="#S"><stop stop-color="#165ad9"/><stop offset=".501" stop-color="#1880e5"/><stop offset="1" stop-color="#8587ff"/></linearGradient><linearGradient id="C" x1="34.126" y1="34.539" x2="19.041" y2="22.348" href="#S"><stop offset=".237" stop-color="#448aff" stop-opacity="0"/><stop offset=".792" stop-color="#0032b1" stop-opacity=".2"/></linearGradient><linearGradient id="D" x1="32.219" y1="39.281" x2="56.017" y2="24.175" href="#S"><stop stop-color="#1a43a6"/><stop offset=".492" stop-color="#2052cb"/><stop offset="1" stop-color="#5f20cb"/></linearGradient><linearGradient id="E" x1="38.905" y1="38.368" x2="24.412" y2="25.928" href="#S"><stop stop-color="#0045b9" stop-opacity="0"/><stop offset=".67" stop-color="#0d1f69" stop-opacity=".2"/></linearGradient><radialGradient id="F" cx="0" cy="0" r="1" gradientTransform="translate(32.1592 10.9226) rotate(-90) scale(31.5224 33.8397)" href="#S"><stop offset=".568" stop-color="#275ff0" stop-opacity="0"/><stop offset=".992" stop-color="#002177"/></radialGradient><linearGradient id="G" x1="52.996" y1="37.918" x2="31.985" y2="37.918" href="#S"><stop stop-color="#4dc4ff"/><stop offset=".196" stop-color="#0fafff"/></linearGradient><radialGradient id="H" cx="0" cy="0" r="1" gradientTransform="matrix(9.4743,-9.55225,9.4743,9.55225,36.896,47.2205)" href="#S"><stop offset=".259" stop-color="#0060d1" stop-opacity=".4"/><stop offset=".908" stop-color="#0383f1" stop-opacity="0"/></radialGradient><radialGradient id="I" cx="0" cy="0" r="1" gradientTransform="matrix(27.5883,-36.457,32.6974,25.1521,16.6783,57.2136)" href="#S"><stop offset=".732" stop-color="#f4a7f7" stop-opacity="0"/><stop offset="1" stop-color="#f4a7f7" stop-opacity=".502"/></radialGradient><radialGradient id="J" cx="0" cy="0" r="1" gradientTransform="matrix(-13.1888 20.2132 -52.0276 -34.5081 25.8709 35.1029)" href="#S"><stop stop-color="#49deff"/><stop offset=".724" stop-color="#29c3ff"/></radialGradient><linearGradient id="K" x1="8.372" y1="47.174" x2="28.601" y2="47.16" href="#S"><stop offset=".206" stop-color="#6ce0ff"/><stop offset=".535" stop-color="#50d5ff" stop-opacity="0"/></linearGradient><radialGradient id="L" cx="0" cy="0" r="1" gradientTransform="matrix(16.6551 17.9597 -17.8131 16.7922 8.9339 30.5309)" href="#S"><stop offset=".039" stop-color="#0091ff"/><stop offset=".919" stop-color="#183dad"/></radialGradient><radialGradient id="M" cx="0" cy="0" r="1" gradientTransform="matrix(8.005944752405949e-16,13.0747,-14.9581,9.159194643163012e-16,18.2628,41.1873)" href="#S"><stop offset=".558" stop-color="#0fa5f7" stop-opacity="0"/><stop offset="1" stop-color="#74c6ff" stop-opacity=".502"/></radialGradient><path id="N" d="M35.793 11.006l.238.149 12.058 7.886L18.19 38.149l-4.588-7.298 21.943-14.05c2.078-1.331 2.169-4.325.248-5.795z"/><path id="O" d="M30.119 41.798L18.191 38.15l25.362-16.209c2.136-1.365 2.131-4.509-.01-5.866l-.114-.072.329.206 7.719 5.048c.95.621 1.522 1.684 1.522 2.825v3.032L30.119 41.798z"/><path id="P" d="M28.743 51.997H45.76c3.997 0 7.237-3.267 7.237-7.296V24.143c0 1.191-.607 2.298-1.607 2.931L26.078 43.097c-1.365.865-2.194 2.376-2.194 4.001 0 2.705 2.175 4.899 4.859 4.899z"/><path id="Q" d="M35.662 51.995h-17.11c-3.997 0-7.237-3.266-7.237-7.296V24.127c0 1.189.605 2.294 1.602 2.928l25.286 16.072c1.384.88 2.224 2.415 2.224 4.065 0 2.653-2.134 4.804-4.765 4.804z"/><path id="R" d="M12.763 29.813h11c2.078 0 3.763 1.698 3.763 3.794v11.09c0 2.096-1.685 3.794-3.763 3.794h-11C10.685 48.491 9 46.792 9 44.697v-11.09c0-2.095 1.685-3.794 3.763-3.794z"/><linearGradient id="S" gradientUnits="userSpaceOnUse"/></defs></svg>