<svg width="62" height="62" viewBox="0 0 62 62" fill="none" xmlns="http://www.w3.org/2000/svg"><rect width="62" height="62" rx="31" fill="white"/><g clip-path="url(#clip0_1816_43)"><path d="M31 53C43.1503 53 53 43.1503 53 31C53 18.8497 43.1503 9 31 9C18.8497 9 9 18.8497 9 31C9 43.1503 18.8497 53 31 53Z" fill="#1F1F1F"/><path d="M28.5795 24.0605H25.7329C25.5179 24.0608 25.3117 24.1464 25.1596 24.2984C25.0076 24.4505 24.922 24.6567 24.9218 24.8717V28.5208C24.922 28.7358 25.0076 28.942 25.1596 29.094C25.3117 29.2461 25.5179 29.3317 25.7329 29.3319H28.5795V38.5257C28.5797 38.7407 28.6653 38.9469 28.8173 39.0989C28.9694 39.251 29.1756 39.3365 29.3906 39.3368H33.0397C33.2547 39.3365 33.4609 39.251 33.613 39.0989C33.765 38.9469 33.8506 38.7407 33.8508 38.5257V24.8717C33.8506 24.6567 33.765 24.4505 33.613 24.2984C33.4609 24.1464 33.2547 24.0608 33.0397 24.0605H28.5795Z" fill="white"/></g><defs><clipPath id="clip0_1816_43"><rect width="44" height="44" fill="white" transform="translate(9 9)"/></clipPath></defs></svg>