<svg xmlns="http://www.w3.org/2000/svg" width="62" height="62" fill="none"><rect width="62" height="62" rx="31" fill="#fff"/><path d="M49.546 26.999a10.96 10.96 0 0 0-.939-9c-2.399-4.172-7.227-6.318-11.935-5.319A11.01 11.01 0 0 0 28.403 9a11.13 11.13 0 0 0-10.579 7.673 11 11 0 0 0-7.331 5.319c-2.414 4.172-1.862 9.417 1.371 12.993a10.92 10.92 0 0 0 .939 8.985c2.399 4.187 7.227 6.332 11.95 5.334A10.97 10.97 0 0 0 33.007 53a11.13 11.13 0 0 0 10.579-7.673c3.099-.641 5.766-2.578 7.316-5.319a11.06 11.06 0 0 0-1.356-12.993v-.015zm-3.427-7.554a8.28 8.28 0 0 1 .983 5.513c-.06-.045-.179-.104-.253-.149l-8.761-5.066a1.47 1.47 0 0 0-1.445 0l-10.266 5.93v-4.351l8.478-4.902c3.949-2.28 8.985-.924 11.264 3.025zm-19.742 9.044l4.321-2.503 4.321 2.503v4.992l-4.321 2.503-4.321-2.503v-4.992zm2.011-16.614a8.26 8.26 0 0 1 5.29 1.907c-.06.03-.179.104-.268.149l-8.761 5.051c-.447.253-.715.73-.715 1.252v11.86l-3.77-2.175v-9.804c0-4.559 3.68-8.24 8.24-8.255l-.015.015zM12.997 23.438c.968-1.669 2.473-2.95 4.291-3.621v10.415c0 .521.268.983.715 1.252L28.254 37.4l-3.785 2.19-8.463-4.887a8.25 8.25 0 0 1-3.01-11.264h0zm2.31 19.117c-.969-1.654-1.311-3.621-.983-5.513.06.045.179.104.253.149l8.761 5.066a1.47 1.47 0 0 0 1.445 0l10.251-5.93v4.351l-8.478 4.887c-3.948 2.265-8.985.924-11.264-3.01h.015zm17.716 7.569a8.22 8.22 0 0 1-5.275-1.907c.091-.047.18-.097.268-.149l8.761-5.051c.447-.253.73-.73.715-1.251V29.92l3.77 2.175v9.789c0 4.559-3.695 8.255-8.24 8.255v-.015h0zm15.407-11.562c-.969 1.669-2.488 2.95-4.291 3.606V31.753c0-.521-.268-.998-.715-1.252l-10.266-5.93 3.77-2.175 8.478 4.887c3.948 2.28 5.289 7.316 3.01 11.265l.015.015h0z" fill="#000"/></svg>