<svg width="83" height="25" viewBox="0 0 83 25" fill="none" xmlns="http://www.w3.org/2000/svg"><path d="M61.5556 19.0439V4.99708H66.0117L66.0351 6.66959C66.924 5.38304 68.2339 4.78655 69.7544 4.78655C71.6725 4.78655 73.0292 5.67544 73.7661 7.06726C74.655 5.54679 76.3392 4.78655 78.0585 4.78655C81.1228 4.78655 82.807 7.09065 82.807 10.0029V19.0439H78.269V10.693C78.269 9.32456 77.4035 8.51755 76.3509 8.51755C75.2982 8.51755 74.4328 9.32456 74.4328 10.693V19.0556H69.8947V10.693C69.8947 9.32456 69.0292 8.51755 67.9766 8.51755C66.924 8.51755 66.0585 9.32456 66.0585 10.693V19.0556L61.5556 19.0439ZM60.0351 13.6988C60.0351 17.3129 57.1579 19.3597 53.4854 19.3597C49.8129 19.3597 46.9357 17.3129 46.9357 13.6988V4.99708H51.4971V13.5702C51.4971 14.7983 52.3041 15.5936 53.4854 15.5936C54.6667 15.5936 55.4737 14.8099 55.4737 13.5702V4.99708H60.0351V13.6988ZM45.6959 8.62281V4.99708H41.9532V1.40644H37.4152V14.0146C37.4152 17.5 39.4854 19.2544 42.8187 19.2544C43.7895 19.2544 44.807 19.1491 45.6959 18.7866V15.1959C45.0409 15.4064 44.4678 15.4883 43.9649 15.4883C42.7602 15.4883 41.9415 14.9386 41.9415 13.6521V8.62281H45.6959ZM31.6842 12.0263C31.6842 14.0497 30.2222 15.5351 28.4094 15.5351C26.5731 15.5351 25.1111 14.038 25.1111 12.0263C25.1111 10.038 26.5731 8.54094 28.4094 8.54094C30.2105 8.54094 31.6842 10.038 31.6842 12.0263ZM25.0994 24.4942V17.5819C26.2573 18.6579 27.7778 19.2895 29.4503 19.2895C33.2515 19.2895 36.2339 16.0614 36.2339 12.0263C36.2339 8.01462 33.2515 4.79825 29.4503 4.79825C27.6959 4.79825 26.152 5.47661 24.9708 6.63451L24.9474 5.00878H20.5497V24.5059H25.0994V24.4942ZM14.3626 9.87427C14.3626 12.7515 12.2456 14.9035 9.59064 14.9035C6.93567 14.9035 4.81871 12.7515 4.81871 9.87427C4.81871 6.99708 6.93567 4.84503 9.59064 4.84503C12.2456 4.84503 14.3626 6.99708 14.3626 9.87427ZM9.59064 0.494156C4.22222 0.494156 0 4.6579 0 9.87427C0 15.0906 4.22222 19.2544 9.59064 19.2544C14.9591 19.2544 19.1813 15.0906 19.1813 9.87427C19.1813 4.6579 14.9591 0.494156 9.59064 0.494156Z" fill="#FF612B"/></svg>