<svg width="62" height="62" viewBox="0 0 62 62" fill="none" xmlns="http://www.w3.org/2000/svg"><rect width="62" height="62" rx="31" fill="white"/><path d="M26.6446 9.00135C28.0536 9.02828 29.6977 9.43459 31.524 10.2063C35.3135 11.7966 39.49 14.7636 43.29 18.5562C45.9857 21.2467 48.2616 24.1292 49.9267 26.9229H49.9998C50.532 26.9165 50.8987 26.7931 51.1079 26.5814C51.3179 26.3684 51.4446 26.0047 51.4511 25.4749C51.4606 24.786 51.2671 23.9102 50.8851 22.9376C50.0127 20.7229 48.3028 18.2707 46.0635 16.0357C43.8244 13.8044 41.3687 12.0951 39.1499 11.2244C38.175 10.843 37.2932 10.6487 36.6057 10.6584C36.1211 10.6682 35.7808 10.7759 35.5622 10.9558L35.5027 11.0034L35.4364 10.9643C35.0365 10.7268 34.6399 10.5024 34.2467 10.2913L34.1312 10.2301L34.211 10.1265C34.2697 10.0508 34.3329 9.97724 34.403 9.90721L34.6087 9.72705C35.1108 9.33085 35.7761 9.12539 36.5836 9.11353C37.495 9.10012 38.5479 9.33134 39.7141 9.78824C42.1344 10.7391 44.776 12.5705 47.1565 14.9463C49.5365 17.322 51.3721 19.9579 52.3247 22.3733C52.7824 23.5374 53.013 24.5889 52.9994 25.4988C52.9859 26.4191 52.7238 27.1551 52.2041 27.6742C51.8301 28.0473 51.3418 28.2852 50.7527 28.3947C51.0898 29.0362 51.395 29.6681 51.6568 30.2932C52.4265 32.1223 52.8331 33.7629 52.86 35.1658C52.8835 36.5962 52.5087 37.7228 51.7316 38.502C50.954 39.2811 49.8233 39.6539 48.3902 39.6269C47.8147 39.617 47.197 39.5396 46.548 39.4026C45.6076 39.2056 44.5914 38.8831 43.5075 38.4272C39.7178 36.837 35.5419 33.8685 31.7415 30.0757C27.9414 26.2826 24.968 22.111 23.3748 18.3318C22.9113 17.234 22.5815 16.2042 22.3856 15.2523C20.7915 14.6389 19.3412 14.2952 18.1504 14.2563C16.9077 14.2139 16.003 14.4862 15.4464 15.0449C14.8894 15.6041 14.6136 16.5024 14.6562 17.7421C14.6889 18.7021 14.9216 19.8343 15.3343 21.0766L15.3921 21.2516L15.2102 21.2193C14.7134 21.1307 14.2369 21.0757 13.7775 21.0528L13.6993 21.0494L13.6772 20.9746C13.3367 19.8252 13.1449 18.7583 13.1113 17.7931C13.0542 16.1374 13.4675 14.8382 14.3553 13.9521C15.2431 13.0661 16.5445 12.6545 18.2031 12.7114C19.3894 12.7535 20.7218 13.0277 22.1783 13.5289L22.1749 13.4609C22.1516 12.0309 22.5247 10.9054 23.3017 10.1265C24.0792 9.34703 25.2114 8.9745 26.6446 9.00135ZM26.6225 10.5428C25.599 10.5267 24.8608 10.759 24.403 11.2158C23.9449 11.673 23.7087 12.4105 23.7283 13.432L23.747 13.8127C23.7559 13.9221 23.7683 14.0338 23.7827 14.1475C23.7876 14.1495 23.7928 14.1523 23.798 14.1544C23.8222 14.1639 23.8493 14.1759 23.8778 14.1883C28.284 16.0964 33.1702 19.5992 37.6304 24.0508C41.6988 28.1112 44.9699 32.5161 46.9643 36.5967L47.0663 36.8074L46.8402 36.7531C46.2806 36.6193 45.6814 36.4286 45.0472 36.1854L45.0099 36.1701L44.9894 36.1344C43.0442 32.5355 40.1106 28.7078 36.5359 25.1401C32.5165 21.1319 28.174 17.9342 24.194 16.0323C24.3581 16.5759 24.5617 17.1447 24.8092 17.7336C26.3222 21.3271 29.1763 25.3232 32.843 28.9827C36.5097 32.6425 40.5136 35.4912 44.1142 37.0013C44.7539 37.2711 45.3702 37.4879 45.9565 37.659C46.2198 37.7345 46.4767 37.8003 46.7264 37.8562C46.7558 37.8626 46.7882 37.8694 46.8166 37.8765C47.0691 37.932 47.3126 37.9781 47.5473 38.0107C47.855 38.0532 48.1498 38.0756 48.4243 38.0822L48.7948 38.0787C49.6282 38.0411 50.2431 37.8125 50.6439 37.4125L50.6575 37.4007C51.1098 36.943 51.3447 36.2095 51.3254 35.1947C51.3024 34.0146 50.93 32.5238 50.2428 30.8914C49.8989 30.0722 49.4794 29.2341 49.0003 28.3811C48.3524 28.2809 47.6495 28.0868 46.9015 27.7915C44.4814 26.8406 41.8412 25.0091 39.4609 22.6333C37.081 20.258 35.2455 17.6233 34.2927 15.2081L34.1345 14.79L34.0241 14.4875L34.2977 14.6591C34.6453 14.8782 34.9938 15.1072 35.343 15.3457L36.395 16.0918L36.4136 16.1054L36.4254 16.1275C37.3852 17.9216 38.8095 19.798 40.5554 21.5405C42.7943 23.7719 45.2505 25.4812 47.4692 26.3519C47.5982 26.4027 47.7266 26.449 47.8515 26.493C46.3448 24.1946 44.4276 21.8532 42.2091 19.6388C40.0288 17.4626 37.7277 15.5783 35.4636 14.0864V14.0949L35.2937 13.9827C34.7671 13.6389 34.2434 13.3123 33.725 13.0157C32.7763 12.4746 31.8418 12.0059 30.9344 11.6237C29.2992 10.9346 27.8051 10.5657 26.6225 10.5428Z" fill="black" stroke="black" stroke-width="0.1264"/><path d="M13.4708 22.1361C13.8319 22.1437 14.2091 22.1773 14.601 22.2347L14.997 22.301L15.0174 22.3027C15.2718 22.3495 15.5366 22.4075 15.8043 22.4743C16.6069 22.6746 17.455 22.9616 18.3519 23.3377C22.1417 24.9278 26.3192 27.8946 30.1195 31.6876C33.9195 35.4803 36.8913 39.6524 38.4846 43.4313C38.8363 44.2665 39.1095 45.0613 39.309 45.8124C41.0613 46.5256 42.6527 46.9261 43.9402 46.968C45.1829 47.0105 46.0823 46.7369 46.6424 46.1777C47.1993 45.6186 47.4753 44.7204 47.4326 43.4806C47.4065 42.6811 47.2402 41.7601 46.9466 40.7563L46.8991 40.5897L47.0689 40.6169C47.5099 40.6844 47.9342 40.7213 48.342 40.7291L48.347 40.7274H48.5578L48.5781 40.8106C48.8219 41.7474 48.9608 42.6202 48.9878 43.4278C49.0447 45.0834 48.6314 46.3829 47.7436 47.2689C46.8559 48.1547 45.5543 48.5665 43.896 48.5096C42.6401 48.4675 41.2143 48.1547 39.6489 47.5935C39.6743 47.8364 39.6927 48.0731 39.6981 48.3039V48.3056C39.7187 49.5569 39.4351 50.5771 38.8433 51.3324L38.5713 51.6401C37.7938 52.4194 36.663 52.7918 35.23 52.7652C34.0001 52.7417 32.5871 52.4283 31.0254 51.8355L30.3472 51.5653C30.1597 51.4885 29.969 51.401 29.7847 51.3188L29.6895 51.2764L29.7252 51.1796C29.8703 50.7868 29.9577 50.3505 29.9904 49.8759L30.0022 49.7162L30.1467 49.7842C30.4142 49.9095 30.6829 50.0273 30.9472 50.1394C32.5823 50.8284 34.0748 51.1975 35.2572 51.2203C36.281 51.2365 37.0189 51.0043 37.4768 50.5473C37.9346 50.0902 38.171 49.3538 38.1515 48.3328L38.1344 47.9894C38.1101 47.6546 38.0598 47.2983 37.9867 46.9238C33.6418 44.9978 28.8575 41.5455 24.4753 37.1719C20.6395 33.3435 17.5089 29.205 15.4916 25.3244L15.3726 25.0966L15.6191 25.1682C16.158 25.3251 16.7333 25.5319 17.3305 25.7816C17.364 25.7957 17.3987 25.811 17.4307 25.8258L17.5225 25.8683L17.5565 25.8819L17.5752 25.9142C19.511 29.2665 22.2635 32.7826 25.5664 36.0791C29.4227 39.9247 33.5756 43.0239 37.4225 44.9491C37.3151 44.6485 37.1978 44.3413 37.0673 44.0296C35.5542 40.4362 32.6999 36.4397 29.0336 32.7804C25.3669 29.121 21.3626 26.2719 17.7622 24.762C17.3238 24.5777 16.8981 24.4191 16.4858 24.2809C16.2107 24.1894 15.9418 24.1102 15.6785 24.0378C15.6653 24.0345 15.651 24.0328 15.6377 24.0295C15.6247 24.0262 15.6117 24.0225 15.5987 24.0192C15.3329 23.9472 15.0715 23.8866 14.8186 23.8373C14.3253 23.7421 13.8669 23.6875 13.447 23.6811C12.4228 23.6647 11.6837 23.8969 11.2257 24.354C10.7677 24.8112 10.5314 25.5486 10.551 26.5702C10.574 27.7501 10.9482 29.2397 11.6353 30.8717C11.9516 31.6222 12.3308 32.3923 12.7587 33.173C13.6021 33.2055 14.5588 33.4258 15.6089 33.8392C18.029 34.7901 20.6707 36.6214 23.0511 38.9973C25.4314 41.373 27.2666 44.0088 28.2194 46.4242C28.6239 47.4483 28.85 48.3881 28.8874 49.2183L28.8942 49.548V49.5514C28.8909 49.6546 28.8853 49.756 28.8754 49.8573C28.8719 49.9321 28.8613 50.0042 28.8517 50.0714L28.8533 50.0731L28.8432 50.1479C28.8301 50.2322 28.8131 50.3131 28.7972 50.3891V50.4029L28.7939 50.4147C28.6705 50.9413 28.4424 51.382 28.0971 51.7268C27.5773 52.2419 26.8406 52.5068 25.9182 52.5205C25.0067 52.5339 23.9524 52.3044 22.786 51.8474C20.366 50.8966 17.7257 49.0649 15.3454 46.6894C12.9652 44.3137 11.13 41.6778 10.1771 39.2624C9.71922 38.0981 9.48886 37.045 9.50241 36.1352C9.51611 35.2147 9.77773 34.4789 10.2978 33.9598C10.5312 33.7269 10.812 33.5471 11.1323 33.4177C10.7856 32.7623 10.4731 32.1108 10.2043 31.4734C9.4345 29.6472 9.02799 28.007 9.00105 26.6008C8.9775 25.1703 9.3506 24.0404 10.1278 23.2613C10.9053 22.4818 12.0376 22.1093 13.4708 22.1361ZM11.8988 34.791C11.738 34.8329 11.6035 34.8896 11.4977 34.9625L11.3889 35.0525C11.2314 35.2121 11.1209 35.4565 11.0728 35.792L11.0456 36.159C11.0359 36.8484 11.2312 37.725 11.6132 38.6982C12.4857 40.9124 14.1943 43.3636 16.4331 45.5982C18.6724 47.83 21.1296 49.5388 23.3485 50.4097C24.3232 50.7908 25.2005 50.9852 25.891 50.9756C26.4224 50.969 26.7863 50.846 26.9991 50.634L27.0009 50.6323C27.1472 50.489 27.2473 50.2656 27.3016 49.9626L27.3237 49.8096C27.3336 49.7176 27.3425 49.6278 27.3425 49.5327C27.3425 49.3648 27.3331 49.1894 27.3136 49.0042V49.0025L27.2149 48.4161C27.1203 47.9757 26.9739 47.4974 26.7765 46.9919C25.9041 44.7773 24.1941 42.3248 21.9549 40.0901C19.7159 37.8588 17.2598 36.1493 15.0412 35.2786L14.9715 35.2514V35.2481C14.5473 35.0842 14.1431 34.962 13.7649 34.8724C15.3054 37.297 17.3143 39.7775 19.6622 42.121C21.3486 43.8041 23.1049 45.3154 24.8611 46.6027L25.614 47.1398L25.6395 47.1567L25.6514 47.1856C25.6798 47.2486 25.7156 47.3223 25.7432 47.3913C26.0079 48.0568 26.1696 48.6772 26.2174 49.1808L26.2395 49.4052L26.0491 49.2846C23.5361 47.6866 20.9788 45.6168 18.5711 43.2138C15.8572 40.5051 13.5666 37.6031 11.8988 34.791Z" fill="black"/><path d="M15.0174 22.3027L14.997 22.301L14.601 22.2347C14.2091 22.1773 13.8319 22.1437 13.4708 22.1361C12.0376 22.1093 10.9053 22.4818 10.1278 23.2613C9.3506 24.0404 8.9775 25.1703 9.00105 26.6008C9.02799 28.007 9.4345 29.6472 10.2043 31.4734C10.4731 32.1108 10.7856 32.7623 11.1323 33.4177C10.812 33.5471 10.5312 33.7269 10.2978 33.9598C9.77773 34.4789 9.51611 35.2147 9.50241 36.1352C9.48886 37.045 9.71922 38.0981 10.1771 39.2624C11.13 41.6778 12.9652 44.3137 15.3454 46.6894C17.7257 49.0649 20.366 50.8966 22.786 51.8474C23.9524 52.3044 25.0067 52.5339 25.9182 52.5205C26.8406 52.5068 27.5773 52.2419 28.0971 51.7268C28.4424 51.382 28.6705 50.9413 28.7939 50.4147L28.7972 50.4029V50.3891C28.8131 50.3131 28.8301 50.2322 28.8432 50.1479L28.8533 50.0731L28.8517 50.0714C28.8613 50.0042 28.8719 49.9321 28.8754 49.8573C28.8853 49.756 28.8909 49.6546 28.8942 49.5514V49.548L28.8874 49.2183C28.85 48.3881 28.6239 47.4483 28.2194 46.4242C27.2666 44.0088 25.4314 41.373 23.0511 38.9973C20.6707 36.6214 18.029 34.7901 15.6089 33.8392C14.5588 33.4258 13.6021 33.2055 12.7587 33.173C12.3308 32.3923 11.9516 31.6222 11.6353 30.8717C10.9482 29.2397 10.574 27.7501 10.551 26.5702C10.5314 25.5486 10.7677 24.8112 11.2257 24.354C11.6837 23.8969 12.4228 23.6647 13.447 23.6811C13.8669 23.6875 14.3253 23.7421 14.8186 23.8373C15.0715 23.8866 15.3329 23.9472 15.5987 24.0192C15.6117 24.0225 15.6247 24.0262 15.6377 24.0295C15.651 24.0328 15.6653 24.0345 15.6785 24.0378C15.9418 24.1102 16.2107 24.1894 16.4858 24.2809C16.8981 24.4191 17.3238 24.5777 17.7622 24.762C21.3626 26.2719 25.3669 29.121 29.0336 32.7804C32.6999 36.4397 35.5542 40.4362 37.0673 44.0296C37.1978 44.3413 37.3151 44.6485 37.4225 44.9491C33.5756 43.0239 29.4227 39.9247 25.5664 36.0791C22.2635 32.7826 19.511 29.2665 17.5752 25.9142L17.5565 25.8819L17.5225 25.8683L17.4307 25.8258C17.3987 25.811 17.364 25.7957 17.3305 25.7816C16.7333 25.5319 16.158 25.3251 15.6191 25.1682L15.3726 25.0966L15.4916 25.3244C17.5089 29.205 20.6395 33.3435 24.4753 37.1719C28.8575 41.5455 33.6418 44.9978 37.9867 46.9238C38.0598 47.2983 38.1101 47.6546 38.1344 47.9894L38.1515 48.3328C38.171 49.3538 37.9346 50.0902 37.4768 50.5473C37.0189 51.0043 36.281 51.2365 35.2572 51.2203C34.0748 51.1975 32.5823 50.8284 30.9472 50.1394C30.6829 50.0273 30.4142 49.9095 30.1467 49.7842L30.0022 49.7162L29.9904 49.8759C29.9577 50.3505 29.8703 50.7868 29.7252 51.1796L29.6895 51.2764L29.7847 51.3188C29.969 51.401 30.1597 51.4885 30.3472 51.5653L31.0254 51.8355C32.5871 52.4283 34.0001 52.7417 35.23 52.7652C36.663 52.7918 37.7938 52.4194 38.5713 51.6401L38.8433 51.3324C39.4351 50.5771 39.7187 49.5569 39.6981 48.3056V48.3039C39.6927 48.0731 39.6743 47.8364 39.6489 47.5935C41.2143 48.1547 42.6401 48.4675 43.896 48.5096C45.5543 48.5665 46.8559 48.1547 47.7436 47.2689C48.6314 46.3829 49.0447 45.0834 48.9878 43.4278C48.9608 42.6202 48.8219 41.7474 48.5781 40.8106L48.5578 40.7274H48.347L48.342 40.7291C47.9342 40.7213 47.5099 40.6844 47.0689 40.6169L46.8991 40.5897L46.9466 40.7563C47.2402 41.7601 47.4065 42.6811 47.4326 43.4806C47.4753 44.7204 47.1993 45.6186 46.6424 46.1777C46.0823 46.7369 45.1829 47.0105 43.9402 46.968C42.6527 46.9261 41.0613 46.5256 39.309 45.8124C39.1095 45.0613 38.8363 44.2665 38.4846 43.4313C36.8913 39.6524 33.9195 35.4803 30.1195 31.6876C26.3192 27.8946 22.1417 24.9278 18.3519 23.3377C17.455 22.9616 16.6069 22.6746 15.8043 22.4743C15.5366 22.4075 15.2718 22.3495 15.0174 22.3027ZM15.0174 22.3027L15.0157 22.3044M11.8988 34.791C11.738 34.8329 11.6035 34.8896 11.4977 34.9625L11.3889 35.0525C11.2314 35.2121 11.1209 35.4565 11.0728 35.792L11.0456 36.159C11.0359 36.8484 11.2312 37.725 11.6132 38.6982C12.4857 40.9124 14.1943 43.3636 16.4331 45.5982C18.6724 47.83 21.1296 49.5388 23.3485 50.4097C24.3232 50.7908 25.2005 50.9852 25.891 50.9756C26.4224 50.969 26.7863 50.846 26.9991 50.634L27.0009 50.6323C27.1472 50.489 27.2473 50.2656 27.3016 49.9626L27.3237 49.8096C27.3336 49.7176 27.3425 49.6278 27.3425 49.5327C27.3425 49.3648 27.3331 49.1894 27.3136 49.0042V49.0025L27.2149 48.4161C27.1203 47.9757 26.9739 47.4974 26.7765 46.9919C25.9041 44.7773 24.1941 42.3248 21.9549 40.0901C19.7159 37.8588 17.2598 36.1493 15.0412 35.2786L14.9715 35.2514V35.2481C14.5473 35.0842 14.1431 34.962 13.7649 34.8724C15.3054 37.297 17.3143 39.7775 19.6622 42.121C21.3486 43.8041 23.1049 45.3154 24.8611 46.6027L25.614 47.1398L25.6395 47.1567L25.6514 47.1856C25.6798 47.2486 25.7156 47.3223 25.7432 47.3913C26.0079 48.0568 26.1696 48.6772 26.2174 49.1808L26.2395 49.4052L26.0491 49.2846C23.5361 47.6866 20.9788 45.6168 18.5711 43.2138C15.8572 40.5051 13.5666 37.6031 11.8988 34.791Z" stroke="black" stroke-width="0.1264"/></svg>