<svg xmlns="http://www.w3.org/2000/svg" width="62" height="62" fill="#fff"><path d="M20.015 35.605c-.689 0-1.291-.117-1.804-.337s-.939-.543-1.261-.939c-.337-.396-.587-.865-.763-1.408s-.249-1.115-.249-1.745a6.15 6.15 0 0 1 .249-1.76c.176-.543.425-1.027.763-1.423a3.73 3.73 0 0 1 1.261-.953c.499-.235 1.115-.352 1.804-.352s1.291.117 1.804.352a3.66 3.66 0 0 1 1.291.953c.337.396.587.88.763 1.423a6.16 6.16 0 0 1 .249 1.76 6.05 6.05 0 0 1-.249 1.745c-.161.542-.411 1.012-.763 1.408a3.38 3.38 0 0 1-1.291.939c-.499.235-1.115.337-1.804.337zm0-1.775c.616 0 1.056-.235 1.32-.689s.396-1.115.396-1.965-.132-1.511-.396-1.965-.704-.689-1.32-.689c-.601 0-1.041.235-1.305.689s-.396 1.115-.396 1.965.132 1.511.396 1.965c.264.469.704.689 1.305.689zm7.597-2.127c-.616-.176-1.1-.44-1.437-.777-.352-.352-.513-.865-.513-1.555 0-.836.293-1.481.895-1.965.601-.469 1.408-.704 2.449-.704a7.21 7.21 0 0 1 1.261.117c.411.073.836.191 1.261.352-.029.279-.073.587-.161.895a4.64 4.64 0 0 1-.308.807l-.865-.293a3.79 3.79 0 0 0-.997-.117c-.367 0-.66.059-.865.176s-.308.293-.308.557c0 .235.073.411.22.513s.352.191.631.279l.939.279c.308.088.587.191.836.323s.455.279.631.469.308.411.411.689.147.616.147.997a2.65 2.65 0 0 1-.249 1.129 2.58 2.58 0 0 1-.733.909c-.323.264-.719.455-1.173.616-.455.147-.983.22-1.569.22a10.51 10.51 0 0 1-.719-.029 4.42 4.42 0 0 1-.631-.088l-.601-.147-.645-.22a3.86 3.86 0 0 1 .161-.895 5.72 5.72 0 0 1 .323-.88 6.79 6.79 0 0 0 1.027.323c.323.073.66.103 1.012.103.147 0 .323-.015.499-.044s.352-.073.499-.147.279-.161.381-.279a.66.66 0 0 0 .161-.455c0-.264-.073-.455-.235-.572s-.381-.22-.66-.308l-1.071-.279zm5.764-4.796a7.92 7.92 0 0 1 1.173-.103c.381 0 .777.029 1.173.103v4.503c0 .455.029.821.103 1.115s.176.528.323.689a1.2 1.2 0 0 0 .557.367c.22.073.484.103.777.103.411 0 .748-.044 1.027-.117v-6.659c.396-.059.777-.103 1.159-.103a6.46 6.46 0 0 1 1.173.103v8.184c-.352.117-.821.235-1.393.352s-1.173.176-1.804.176a9.58 9.58 0 0 1-1.613-.132c-.513-.088-.968-.279-1.364-.557s-.704-.704-.924-1.247c-.235-.543-.352-1.276-.352-2.185v-4.591h-.015zm9.665 8.507a8.46 8.46 0 0 1-.103-1.203 6.93 6.93 0 0 1 .103-1.217 8.46 8.46 0 0 1 1.203-.103 6.93 6.93 0 0 1 1.217.103c.059.411.103.821.103 1.203a6.75 6.75 0 0 1-.103 1.217c-.411.059-.821.103-1.203.103l-1.217-.103zm-.059-11.836c.425-.059.851-.103 1.261-.103.425 0 .851.029 1.291.103l-.161 8.052c-.381.059-.748.103-1.1.103-.367 0-.748-.029-1.115-.103l-.176-8.052zM31 9C18.856 9 9 18.856 9 31s9.856 22 22 22 22-9.856 22-22S43.144 9 31 9zm0 41.8c-10.941 0-19.8-8.859-19.8-19.8S20.059 11.2 31 11.2 50.8 20.059 50.8 31 41.941 50.8 31 50.8z"/></svg>