<svg xmlns="http://www.w3.org/2000/svg" width="62" height="62" fill="none"><g clip-path="url(#C)"><path d="M53 32.024a.98.98 0 0 0-.468-.844h-.005l-.018-.01-15.247-9.025a2.15 2.15 0 0 0-.205-.122 2.05 2.05 0 0 0-1.877 0 2.04 2.04 0 0 0-.205.122l-15.247 9.024-.018.01c-.466.29-.608.902-.319 1.368.085.138.203.252.343.333l15.246 9.025.205.122a2.05 2.05 0 0 0 1.877 0c.07-.037.138-.077.204-.122l15.246-9.025a.98.98 0 0 0 .487-.857z" fill="#0a2767"/><path d="M21.506 25.998h10.006v9.171H21.506v-9.171zm29.447-9.323v-4.195a1.9 1.9 0 0 0-1.855-1.944H23.134a1.9 1.9 0 0 0-1.855 1.944v4.195l15.348 4.093 14.327-4.093z" fill="#0364b8"/><path d="M21.279 16.674h10.233v9.209H21.279v-9.209z" fill="#0078d4"/><path d="M41.744 16.674H31.511v9.209l10.232 9.209h9.209v-9.208l-9.209-9.21z" fill="#28a8ea"/><path d="M31.511 25.884h10.232v9.209H31.511v-9.209z" fill="#0078d4"/><path d="M31.511 35.093h10.232v9.209H31.511v-9.209z" fill="#0364b8"/><path d="M21.507 35.169h10.006v8.338H21.507v-8.338z" fill="#14447d"/><path d="M41.744 35.093h9.209v9.209h-9.209v-9.209z" fill="#0078d4"/><path d="M52.532 32.824l-.02.01-15.246 8.575-.205.114a2.12 2.12 0 0 1-.827.205l-.833-.487a2.11 2.11 0 0 1-.205-.118l-15.451-8.818h-.007l-.505-.283v17.359a2.1 2.1 0 0 0 2.111 2.083h29.578c.017 0 .033-.009.052-.009a2.58 2.58 0 0 0 .716-.15c.1-.042.196-.092.288-.15.069-.039.187-.124.187-.124.524-.388.834-1 .837-1.653V32.023c-.001.332-.18.638-.469.801z" fill="url(#A)"/><path opacity=".5" d="M52.181 31.955v1.064L36.239 43.996 19.734 32.313l-1.524-.921v-.767l.624-.01 1.32.757.031.01.113.071 15.554 8.871.594.348.164-.061c.031-.021 15.4-8.667 15.4-8.667l.173.01z" fill="#0a2767"/><path d="M52.532 32.824l-.02.011-15.246 8.575-.205.114c-.592.29-1.285.29-1.877 0a2.28 2.28 0 0 1-.205-.114l-15.246-8.575-.018-.011a.92.92 0 0 1-.482-.801v17.359c.008 1.157.952 2.091 2.11 2.083h29.548c1.157.008 2.103-.926 2.11-2.083V32.023c-.001.332-.18.638-.469.801z" fill="#1490df"/><g fill="#000"><path opacity=".1" d="M37.487 41.284l-.229.128c-.066.042-.134.081-.205.116-.252.124-.525.196-.804.213l5.801 6.86 10.119 2.438a2.09 2.09 0 0 0 .642-.801l-15.324-8.954z"/><path opacity=".05" d="M38.521 40.702l-1.262.709c-.066.042-.134.081-.204.116-.252.124-.525.196-.804.213l2.717 7.493 13.205 1.802A2.07 2.07 0 0 0 53 49.382v-.224l-14.479-8.455z"/></g><path d="M21.372 51.465h29.516c.455.003.897-.141 1.263-.409L35.4 41.244a2.11 2.11 0 0 1-.205-.118l-15.451-8.818h-.007l-.504-.284v17.299a2.14 2.14 0 0 0 2.139 2.142z" fill="#28a8ea"/><g fill="#000"><path opacity=".1" d="M33.558 20.597v21.826a1.88 1.88 0 0 1-1.177 1.739 1.76 1.76 0 0 1-.696.144H19.233V19.745h2.046v-1.024h10.406a1.88 1.88 0 0 1 1.873 1.875z"/><path opacity=".2" d="M32.535 21.62v21.826a1.66 1.66 0 0 1-.154.716c-.285.7-.963 1.16-1.719 1.164h-11.43V19.744h11.43c.297-.003.59.071.849.215a1.86 1.86 0 0 1 1.023 1.661z"/><path opacity=".2" d="M32.535 21.62V41.4a1.89 1.89 0 0 1-1.873 1.88h-11.43V19.744h11.43c.297-.003.59.071.849.215a1.86 1.86 0 0 1 1.023 1.661z"/><path opacity=".2" d="M31.511 21.62V41.4a1.88 1.88 0 0 1-1.873 1.88H19.233V19.744h10.406c1.035.001 1.874.84 1.873 1.874z"/></g><path d="M10.876 19.744h18.76c1.036 0 1.876.84 1.876 1.876v18.76c0 1.036-.84 1.876-1.876 1.876h-18.76C9.84 42.256 9 41.416 9 40.38V21.62c0-1.036.84-1.876 1.876-1.876z" fill="url(#B)"/><path d="M14.863 27.611a5.46 5.46 0 0 1 2.142-2.367 6.48 6.48 0 0 1 3.404-.853 6.03 6.03 0 0 1 3.151.809c.899.536 1.623 1.322 2.084 2.261a7.29 7.29 0 0 1 .73 3.326c.024 1.202-.233 2.394-.752 3.479-.472.974-1.219 1.787-2.148 2.34a6.27 6.27 0 0 1-3.268.831c-1.128.028-2.242-.256-3.22-.819a5.5 5.5 0 0 1-2.112-2.265c-.505-1.02-.759-2.148-.739-3.285-.021-1.192.229-2.374.729-3.456zm2.283 5.557c.247.623.664 1.163 1.206 1.557.551.385 1.211.583 1.883.567a3.3 3.3 0 0 0 2.01-.585 3.39 3.39 0 0 0 1.17-1.557c.257-.695.383-1.432.374-2.172.008-.748-.111-1.492-.352-2.2a3.48 3.48 0 0 0-1.133-1.622 3.11 3.11 0 0 0-1.992-.614c-.687-.018-1.361.182-1.927.572a3.57 3.57 0 0 0-1.228 1.571c-.559 1.443-.562 3.042-.009 4.487l-.002-.003z" fill="#fff"/><path d="M41.744 16.674h9.209v9.209h-9.209v-9.209z" fill="#50d9ff"/></g><defs><linearGradient id="A" x1="36.116" y1="32.023" x2="36.116" y2="51.465" gradientUnits="userSpaceOnUse"><stop stop-color="#35b8f1"/><stop offset="1" stop-color="#28a8ea"/></linearGradient><linearGradient id="B" x1="12.911" y1="18.279" x2="27.601" y2="43.722" gradientUnits="userSpaceOnUse"><stop stop-color="#1784d9"/><stop offset=".5" stop-color="#107ad5"/><stop offset="1" stop-color="#0a63c9"/></linearGradient><clipPath id="C"><path fill="#fff" transform="translate(9 9)" d="M0 0h44v44H0z"/></clipPath></defs></svg>