<svg xmlns="http://www.w3.org/2000/svg" width="62" height="62" fill="none"><path d="M28.543 10c6.747 0 16.903 2.09 21.67 6.82C51.423 18.03 53 20.377 53 23.86c0 6.16-4.95 15.583-10.377 21.083-2.823 2.823-7.297 6.527-13.347 6.527-5.903 0-10.413-4.033-11.697-5.317C12.593 41.13 9 33.54 9 26.427c0-4.473 1.283-8.397 4.51-11.66C16.517 11.723 21.687 10 28.543 10zm8.36 24.53c2.273-2.273 2.897-5.097 2.897-6.637 0-1.137-.293-2.787-1.687-4.18-2.163-2.163-4.51-2.75-7.113-2.75-3.263 0-5.463 1.027-6.93 2.493-1.137 1.137-2.127 2.933-2.127 5.463s1.32 4.95 2.787 6.417c1.357 1.357 3.447 2.347 5.61 2.347s4.29-.88 6.563-3.153z" fill="#5952ff"/></svg>