<svg xmlns="http://www.w3.org/2000/svg" width="62" height="62" fill="none"><path d="M13.609 49.712H9V26.577c0-2.375.975-3.812 1.79-4.609 1.808-1.774 4.262-1.826 4.663-1.826h7.25c2.589 0 4.077 1.045 4.893 1.925 1.613 1.755 1.631 4.024 1.595 4.627v8.722c0 2.518-1.028 4.007-1.879 4.804-1.755 1.649-4.077 1.684-4.627 1.666h-9.076v7.825zm9.254-12.445c.247 0 .94-.071 1.312-.426.284-.266.426-.745.426-1.444v-8.951c0-.247-.053-.904-.408-1.277-.344-.355-.993-.426-1.489-.426h-7.288c-1.808 0-1.808 1.365-1.808 1.826v10.691l9.255.008zm25.528-24.978H53v23.153c0 2.375-.975 3.811-1.79 4.609-1.808 1.774-4.263 1.826-4.663 1.826h-7.25c-2.588 0-4.077-1.045-4.893-1.925-1.613-1.755-1.631-4.024-1.595-4.627v-8.711c0-2.518 1.029-4.007 1.879-4.804 1.755-1.649 4.077-1.684 4.627-1.666h9.076v-7.855zm-9.254 12.455c-.248 0-.94.071-1.312.426-.284.266-.426.745-.426 1.444v8.951c0 .248.053.904.408 1.277.344.355.993.426 1.489.426h7.286c1.826-.018 1.826-1.375 1.826-1.844v-10.68h-9.271z" fill="#25c151"/></svg>