<svg width="62" height="62" viewBox="0 0 62 62" fill="none" xmlns="http://www.w3.org/2000/svg"><path d="M15.4095 21.6337C18.8881 21.6337 21.7274 18.8161 21.7274 15.3623C21.7274 11.9085 18.9796 9 15.4095 9C11.9309 9 9.09375 11.8176 9.09375 15.2714C9.09375 18.7252 11.9309 21.6337 15.4095 21.6337Z" fill="white"/><path d="M15.3168 37.3168C18.7954 37.3168 21.6337 34.4992 21.6337 31.0455C21.6337 27.5916 18.8869 24.6831 15.3168 24.6831C11.8382 24.6831 9 27.5006 9 30.9544C9 34.4083 11.8382 37.3168 15.3168 37.3168Z" fill="white"/><path d="M15.3168 52.9999C18.7954 52.9999 21.6337 50.1823 21.6337 46.7286C21.6337 43.2747 18.8869 40.3662 15.3168 40.3662C11.8382 40.3662 9 43.1837 9 46.6375C9 50.0914 11.8382 52.9999 15.3168 52.9999Z" fill="#51CBFF"/><path d="M31.0892 21.6337C34.5678 21.6337 37.4071 18.8161 37.4071 15.3623C37.4071 11.9085 34.6593 9 31.0892 9C27.6106 9 24.7734 11.8176 24.7734 15.2714C24.7734 18.7252 27.6106 21.6337 31.0892 21.6337Z" fill="white"/><path d="M30.9106 37.3168C34.3903 37.3168 37.2274 34.4992 37.2274 31.0455C37.2274 27.5916 34.4818 24.6831 30.9106 24.6831C27.4331 24.6831 24.5938 27.5006 24.5938 30.9544C24.5938 34.4083 27.4331 37.3168 30.9106 37.3168Z" fill="white"/><path d="M30.9965 52.9999C34.4751 52.9999 37.3134 50.1823 37.3134 46.7286C37.3134 43.2747 34.5666 40.3662 30.9965 40.3662C27.5179 40.3662 24.6797 43.1837 24.6797 46.6375C24.6797 50.0914 27.5179 52.9999 30.9965 52.9999Z" fill="white"/><path d="M46.684 21.6337C50.1626 21.6337 53.0009 18.8161 53.0009 15.3623C53.0009 11.9085 50.2541 9 46.684 9C43.2054 9 40.3672 11.8176 40.3672 15.2714C40.3672 18.7252 43.2054 21.6337 46.684 21.6337Z" fill="white"/><path d="M46.5903 37.3168C50.07 37.3168 52.9071 34.4992 52.9071 31.0455C52.9071 27.5916 50.1615 24.6831 46.5903 24.6831C43.1127 24.6831 40.2734 27.5006 40.2734 30.9544C40.2734 34.4083 43.1127 37.3168 46.5903 37.3168Z" fill="#51CBFF"/><path d="M46.684 52.9999C50.1626 52.9999 53.0009 50.1823 53.0009 46.7286C53.0009 43.2747 50.2541 40.3662 46.684 40.3662C43.2054 40.3662 40.3672 43.1837 40.3672 46.6375C40.3672 50.0914 43.2054 52.9999 46.684 52.9999Z" fill="#51CBFF"/></svg>