<svg xmlns="http://www.w3.org/2000/svg" width="62" height="62" fill="none"><path d="M9 9H53V53H9V9Z" fill="#f2be5a"/><path d="M9 9H53V31H9V9Z" fill="#3886f4"/><g fill="#fff"><path fill-rule="evenodd" d="M41.267 25.119l-.117.059c-.939-.777-2.156-1.276-3.711-1.276-1.995 0-3.828.719-5.045 2.171l1.892 2.009c.939-.895 1.936-1.393 3.212-1.393 2.391.059 3.931 1.892 3.931 4.356S39.815 35.4 37.38 35.4c-6.101 0-4.385-11.484-12.584-11.484-4.107 0-6.981 3.065-6.981 7.143v12.437h2.933v-6.644l.117-.059c.939.777 2.156 1.276 3.711 1.276 1.995 0 3.828-.719 5.045-2.171l-1.892-2.009c-.939.895-1.936 1.393-3.212 1.393-2.391-.059-3.931-1.892-3.931-4.356s1.613-4.356 4.048-4.356c6.101 0 4.385 11.484 12.584 11.484 4.107 0 6.981-3.065 6.981-7.143V18.533h-2.933v6.585z"/><path d="M47.089 12.432h1.012c.337 0 .601.073.807.205.205.147.308.367.308.66 0 .235-.059.411-.176.528-.103.117-.249.205-.425.264l.763 1.232h-.66l-.704-1.129h-.308v1.129h-.631v-2.904l.015.015zm.997 1.335c.337 0 .499-.147.499-.425 0-.161-.044-.264-.132-.337-.111-.065-.238-.096-.367-.088h-.367v.851h.367zm0 2.596c.337 0 .66-.059.953-.176.285-.118.543-.292.759-.511a2.32 2.32 0 0 0 .502-.765c.117-.308.191-.631.191-.997s-.059-.689-.191-.997c-.117-.308-.279-.557-.484-.763-.205-.22-.469-.396-.763-.499-.625-.255-1.325-.255-1.951 0a2.03 2.03 0 0 0-.748.499 2.52 2.52 0 0 0-.499.777 2.74 2.74 0 0 0-.176.997c0 .367.059.689.191.997.117.308.293.557.499.763.22.205.469.381.763.499s.616.176.953.176zm0 .484c-.411 0-.792-.073-1.144-.22s-.66-.352-.924-.616-.469-.572-.631-.924c-.147-.352-.22-.733-.22-1.159s.073-.792.22-1.144a2.75 2.75 0 0 1 .616-.939c.264-.264.572-.469.924-.631a2.82 2.82 0 0 1 1.159-.235c.411 0 .792.073 1.144.22.367.147.675.352.939.631.543.557.843 1.305.836 2.083a2.89 2.89 0 0 1-.235 1.173c-.147.352-.352.66-.616.924a3.26 3.26 0 0 1-.939.616c-.352.147-.733.22-1.129.22z"/></g></svg>