<?xml version="1.0" encoding="UTF-8"?>
<svg xmlns="http://www.w3.org/2000/svg" xmlns:xlink="http://www.w3.org/1999/xlink" width="128px" height="128px" viewBox="0 0 128 128" version="1.1">
<g id="surface1">
<path style=" stroke:none;fill-rule:nonzero;fill:rgb(4.705882%,2.352941%,15.686275%);fill-opacity:1;" d="M 59.664062 55.292969 L 55.59375 52.351562 L 59.148438 48.183594 L 53.804688 46.75 L 55.359375 41.972656 L 60.464844 44.066406 L 60.113281 38.511719 L 65.148438 38.511719 L 64.796875 44.066406 L 69.878906 41.972656 L 71.433594 46.75 L 66.113281 48.183594 L 69.644531 52.351562 L 65.570312 55.292969 L 62.628906 50.679688 Z M 59.664062 55.292969 "/>
<path style=" stroke:none;fill-rule:nonzero;fill:rgb(4.705882%,2.352941%,15.686275%);fill-opacity:1;" d="M 36.910156 55.292969 L 32.835938 52.351562 L 36.390625 48.183594 L 31.050781 46.75 L 32.601562 41.972656 L 37.710938 44.066406 L 37.355469 38.511719 L 42.394531 38.511719 L 42.039062 44.066406 L 47.125 41.972656 L 48.675781 46.75 L 43.359375 48.183594 L 46.886719 52.351562 L 42.816406 55.292969 L 39.875 50.679688 Z M 36.910156 55.292969 "/>
<path style=" stroke:none;fill-rule:nonzero;fill:rgb(4.705882%,2.352941%,15.686275%);fill-opacity:1;" d="M 82.421875 55.292969 L 78.347656 52.351562 L 81.902344 48.183594 L 76.558594 46.75 L 78.113281 41.972656 L 83.222656 44.066406 L 82.867188 38.511719 L 87.902344 38.511719 L 87.550781 44.066406 L 92.632812 41.972656 L 94.1875 46.75 L 88.867188 48.183594 L 92.398438 52.351562 L 88.328125 55.292969 L 85.386719 50.679688 Z M 82.421875 55.292969 "/>
<path style=" stroke:none;fill-rule:nonzero;fill:rgb(4.705882%,2.352941%,15.686275%);fill-opacity:1;" d="M 79.324219 96.710938 C 72.070312 103.609375 65.539062 106.257812 63.507812 106.960938 L 63.476562 106.972656 L 63.445312 106.960938 C 61.410156 106.289062 50.761719 102.367188 40.921875 90.960938 L 40.855469 90.882812 C 28.554688 76.566406 22.03125 56.535156 21.464844 31.34375 L 21.460938 31.246094 L 21.5625 31.246094 C 36.136719 31.140625 50.613281 27.25 63.429688 19.992188 L 63.476562 19.964844 L 63.523438 19.992188 C 75.4375 26.785156 88.941406 30.667969 102.570312 31.222656 L 102.667969 31.226562 L 102.664062 31.320312 C 102.453125 41.589844 101.269531 51.101562 99.171875 59.734375 L 105.019531 59.734375 C 107.035156 50.996094 108.144531 41.511719 108.351562 31.4375 L 108.46875 25.769531 L 102.804688 25.539062 C 90.066406 25.019531 77.484375 21.402344 66.339844 15.050781 L 63.484375 13.421875 L 60.625 15.042969 C 48.632812 21.832031 35.128906 25.457031 21.519531 25.558594 L 15.644531 25.601562 L 15.777344 31.472656 C 16.363281 57.582031 23.152344 79.054688 36.609375 94.671875 L 36.613281 94.675781 C 47.222656 106.972656 58.628906 111.363281 61.664062 112.363281 L 63.519531 112.976562 L 65.367188 112.335938 C 68.039062 111.414062 77.425781 107.621094 86.863281 97.113281 L 86.886719 97.089844 C 86.996094 96.964844 87.101562 96.835938 87.210938 96.710938 Z M 79.324219 96.710938 "/>
<path style=" stroke:none;fill-rule:nonzero;fill:rgb(75.294118%,27.45098%,100%);fill-opacity:1;" d="M 103.820312 66.84375 C 97.421875 66.84375 92.074219 71.300781 90.679688 77.273438 L 64.179688 77.273438 L 64.179688 88.652344 L 76.800781 88.652344 L 76.800781 82.960938 L 90.566406 82.960938 C 91.785156 89.175781 97.253906 93.867188 103.820312 93.867188 C 111.285156 93.867188 117.332031 87.816406 117.332031 80.355469 C 117.332031 72.894531 111.285156 66.84375 103.820312 66.84375 Z M 103.820312 88.179688 C 99.507812 88.179688 96 84.667969 96 80.355469 C 96 76.042969 99.507812 72.535156 103.820312 72.535156 C 108.136719 72.535156 111.644531 76.042969 111.644531 80.355469 C 111.644531 84.667969 108.136719 88.179688 103.820312 88.179688 Z M 103.820312 88.179688 "/>
</g>
</svg>
