<svg width="62" height="62" viewBox="0 0 256 256" fill="none" xmlns="http://www.w3.org/2000/svg"><g clip-path="url(#clip0_6429_7898)"><mask id="mask0_6429_7898" style="mask-type:luminance" maskUnits="userSpaceOnUse" x="13" y="13" width="230" height="230"><path d="M243 13H13V243H243V13Z" fill="white"/></mask><g mask="url(#mask0_6429_7898)"><path d="M140.809 133.5C129.721 133.5 120.718 143.358 120.718 155.5V195.738C120.718 207.88 129.721 217.738 140.809 217.738H210.944C222.032 217.738 231.035 207.88 231.035 195.738V155.5C231.035 143.358 222.032 133.5 210.944 133.5H140.809Z" fill="#235CF3"/><path d="M68.0405 133.52C44.3523 133.52 25.1192 152.385 25.1192 175.62C25.1192 198.855 44.3523 217.72 68.0405 217.72H68.2232C91.9115 217.72 111.145 198.855 111.145 175.62C111.145 152.385 91.9115 133.52 68.2232 133.52H68.0405Z" fill="#235CF3"/><path d="M188.342 37.5C212.031 37.5 231.264 56.8218 231.264 80.6195C231.264 104.417 212.031 123.739 188.342 123.739H188.16C164.471 123.739 145.238 104.417 145.238 80.6195C145.238 56.8218 164.471 37.5 188.16 37.5H188.342Z" fill="#235CF3"/><path d="M115.277 38.5C126.366 38.5 135.368 48.3582 135.368 60.5V100.738C135.368 112.88 126.366 122.738 115.277 122.738H44.9658C33.8777 122.738 24.875 112.88 24.875 100.738V60.5C24.875 48.3582 33.8777 38.5 44.9658 38.5H115.277Z" fill="#235CF3"/></g></g><defs><clipPath id="clip0_6429_7898"><rect width="230" height="230" fill="white" transform="translate(13 13)"/></clipPath></defs></svg> 