<?xml version="1.0" encoding="UTF-8"?>
<svg xmlns="http://www.w3.org/2000/svg" xmlns:xlink="http://www.w3.org/1999/xlink" width="62px" height="62px" viewBox="0 0 62 62" version="1.1">
<defs>
<clipPath id="clip1">
  <path d="M 12.441406 18.867188 L 49.558594 18.867188 L 49.558594 43.132812 L 12.441406 43.132812 Z M 12.441406 18.867188 "/>
</clipPath>
</defs>
<g id="surface1">
<path style=" stroke:none;fill-rule:nonzero;fill:rgb(0%,0%,0%);fill-opacity:1;" d="M 0.0859375 0 L 62.085938 0 L 62.085938 61.914062 L 0.0859375 61.914062 Z M 0.0859375 0 "/>
<g clip-path="url(#clip1)" clip-rule="nonzero">
<path style=" stroke:none;fill-rule:nonzero;fill:rgb(100%,100%,100%);fill-opacity:1;" d="M 46.136719 26.886719 L 46.082031 26.855469 L 46.0625 26.796875 C 45.171875 23.855469 42.464844 21.839844 39.394531 21.824219 C 38.34375 21.824219 37.308594 22.0625 36.363281 22.523438 L 36.253906 22.574219 L 36.179688 22.480469 C 34.210938 20.023438 31.171875 18.683594 28.03125 18.882812 C 24.890625 19.085938 22.046875 20.804688 20.410156 23.492188 L 20.371094 23.558594 L 20.292969 23.566406 C 15.675781 24.027344 12.226562 28.027344 12.457031 32.664062 C 12.6875 37.300781 16.511719 40.941406 21.152344 40.945312 C 21.691406 40.945312 22.226562 40.894531 22.753906 40.796875 L 22.816406 40.785156 L 22.871094 40.824219 C 27.171875 43.964844 33.027344 43.894531 37.25 40.652344 L 37.316406 40.601562 L 37.390625 40.625 C 39.695312 41.367188 42.222656 40.777344 43.960938 39.09375 L 43.996094 39.0625 L 44.042969 39.054688 C 46.804688 38.625 48.984375 36.476562 49.460938 33.722656 C 49.933594 30.96875 48.597656 28.214844 46.136719 26.886719 M 43.398438 36.957031 L 42.96875 36.988281 L 42.683594 37.308594 C 41.84375 38.242188 40.648438 38.777344 39.394531 38.78125 C 38.761719 38.78125 38.140625 38.644531 37.566406 38.382812 L 36.933594 38.09375 L 36.410156 38.550781 C 34.617188 40.113281 32.324219 40.972656 29.949219 40.972656 C 27.695312 40.980469 25.503906 40.207031 23.757812 38.777344 L 23.335938 38.433594 L 22.804688 38.570312 C 20.84375 39.082031 18.753906 38.652344 17.152344 37.410156 C 15.546875 36.171875 14.609375 34.257812 14.605469 32.230469 C 14.605469 28.679688 17.496094 25.746094 21.042969 25.6875 L 21.691406 25.675781 L 21.988281 25.101562 C 23.222656 22.695312 25.660156 21.144531 28.363281 21.039062 C 31.0625 20.933594 33.613281 22.292969 35.03125 24.597656 L 35.640625 25.589844 L 36.585938 24.902344 C 37.402344 24.308594 38.382812 23.988281 39.394531 23.988281 C 41.675781 23.992188 43.636719 25.597656 44.097656 27.828125 L 44.210938 28.386719 L 44.738281 28.609375 C 46.582031 29.386719 47.660156 31.328125 47.34375 33.308594 C 47.023438 35.285156 45.398438 36.792969 43.398438 36.957031 "/>
</g>
<path style=" stroke:none;fill-rule:nonzero;fill:rgb(100%,100%,100%);fill-opacity:1;" d="M 23.253906 29.324219 C 22.667969 29.324219 22.195312 29.597656 21.839844 30 L 21.808594 29.585938 C 21.8125 29.546875 21.796875 29.507812 21.765625 29.480469 C 21.738281 29.449219 21.699219 29.433594 21.660156 29.433594 L 20.558594 29.433594 C 20.515625 29.433594 20.476562 29.449219 20.449219 29.476562 C 20.417969 29.507812 20.402344 29.546875 20.40625 29.585938 L 20.40625 36.15625 C 20.402344 36.195312 20.417969 36.234375 20.449219 36.265625 C 20.476562 36.292969 20.515625 36.308594 20.558594 36.304688 L 21.769531 36.304688 C 21.8125 36.308594 21.851562 36.292969 21.878906 36.265625 C 21.910156 36.234375 21.925781 36.195312 21.921875 36.15625 L 21.921875 33.960938 C 22.273438 34.320312 22.753906 34.523438 23.253906 34.519531 C 24.632812 34.519531 25.640625 33.367188 25.640625 31.921875 C 25.640625 30.476562 24.628906 29.324219 23.253906 29.324219 M 23.0625 33.132812 C 22.425781 33.132812 21.953125 32.566406 21.953125 31.910156 C 21.953125 31.253906 22.425781 30.699219 23.0625 30.699219 C 23.699219 30.699219 24.183594 31.222656 24.183594 31.910156 C 24.183594 32.597656 23.707031 33.132812 23.0625 33.132812 M 31.097656 29.433594 L 29.996094 29.433594 C 29.957031 29.433594 29.917969 29.449219 29.886719 29.480469 C 29.859375 29.507812 29.84375 29.546875 29.84375 29.585938 L 29.816406 30 C 29.460938 29.597656 28.988281 29.324219 28.398438 29.324219 C 27.023438 29.324219 26.015625 30.476562 26.015625 31.921875 C 26.015625 33.367188 27.027344 34.519531 28.398438 34.519531 C 28.945312 34.519531 29.460938 34.285156 29.816406 33.871094 L 29.84375 34.234375 C 29.84375 34.277344 29.859375 34.316406 29.890625 34.34375 C 29.917969 34.371094 29.957031 34.386719 29.996094 34.386719 L 31.097656 34.386719 C 31.140625 34.390625 31.179688 34.375 31.207031 34.34375 C 31.238281 34.316406 31.253906 34.277344 31.25 34.234375 L 31.25 29.585938 C 31.253906 29.542969 31.238281 29.503906 31.207031 29.476562 C 31.179688 29.445312 31.140625 29.429688 31.097656 29.433594 M 28.589844 33.132812 C 27.941406 33.132812 27.46875 32.609375 27.46875 31.910156 C 27.46875 31.214844 27.945312 30.699219 28.589844 30.699219 C 29.234375 30.699219 29.707031 31.257812 29.707031 31.910156 C 29.707031 32.5625 29.234375 33.132812 28.597656 33.132812 M 35.070312 31.851562 L 36.617188 29.617188 C 36.6875 29.515625 36.636719 29.433594 36.515625 29.433594 L 35.136719 29.433594 C 35.066406 29.433594 34.996094 29.472656 34.960938 29.535156 L 34.203125 30.707031 L 33.433594 29.535156 C 33.394531 29.472656 33.324219 29.433594 33.25 29.433594 L 31.875 29.433594 C 31.753906 29.433594 31.703125 29.515625 31.777344 29.617188 L 33.324219 31.851562 L 31.699219 34.203125 C 31.625 34.304688 31.675781 34.386719 31.800781 34.386719 L 33.171875 34.386719 C 33.246094 34.390625 33.316406 34.351562 33.355469 34.285156 L 34.199219 32.980469 L 35.039062 34.285156 C 35.074219 34.347656 35.144531 34.386719 35.21875 34.386719 L 36.597656 34.386719 C 36.71875 34.386719 36.769531 34.304688 36.699219 34.203125 Z M 35.070312 31.851562 "/>
<path style=" stroke:none;fill-rule:nonzero;fill:rgb(100%,100%,100%);fill-opacity:1;" d="M 40.453125 30.367188 C 40.847656 30.0625 41.144531 29.589844 41.144531 29.0625 C 41.144531 28.070312 40.355469 27.234375 39.121094 27.234375 C 37.890625 27.234375 37.101562 28.070312 37.101562 29.0625 C 37.101562 29.585938 37.394531 30.0625 37.78125 30.367188 C 37.066406 30.703125 36.621094 31.425781 36.636719 32.214844 C 36.636719 33.648438 37.921875 34.519531 39.121094 34.519531 C 40.324219 34.519531 41.597656 33.648438 41.597656 32.214844 C 41.613281 31.425781 41.167969 30.703125 40.457031 30.367188 M 39.121094 28.445312 C 39.304688 28.441406 39.480469 28.511719 39.609375 28.640625 C 39.738281 28.765625 39.8125 28.941406 39.8125 29.121094 C 39.800781 29.496094 39.539062 29.820312 39.121094 29.820312 C 38.742188 29.820312 38.433594 29.511719 38.433594 29.128906 C 38.433594 28.75 38.742188 28.441406 39.121094 28.441406 M 39.121094 33.109375 C 38.605469 33.109375 38.1875 32.691406 38.1875 32.175781 C 38.1875 31.660156 38.605469 31.242188 39.121094 31.242188 C 39.367188 31.238281 39.605469 31.335938 39.777344 31.507812 C 39.949219 31.683594 40.046875 31.917969 40.042969 32.164062 C 40.050781 32.414062 39.957031 32.652344 39.78125 32.832031 C 39.609375 33.011719 39.371094 33.113281 39.121094 33.109375 "/>
</g>
</svg>
