<svg width="490" height="321" viewBox="0 0 490 321" fill="none" xmlns="http://www.w3.org/2000/svg">
<path d="M444.774 106.018L443.92 105.59L443.493 104.734C431.532 65.7938 396.077 39.2632 355.497 38.8353C341.827 38.8353 328.158 41.8307 315.343 48.2494L314.062 49.1052L313.207 47.8214C269.209 -7.37925 189.329 -15.9375 134.225 28.1375C122.691 37.5516 112.866 48.6773 105.177 61.0867L104.75 61.9426H103.896C40.6751 68.3612 -5.45881 124.846 0.521516 188.177C6.50184 251.508 63.315 297.722 126.536 291.304C129.953 290.876 132.943 290.448 136.36 290.02H137.215L138.069 290.448C194.882 331.955 272.199 331.099 327.731 288.308L328.585 287.88L329.44 288.308C359.768 298.15 393.087 290.448 416.154 268.196L416.581 267.768H417.009C463.997 260.494 496.034 216.419 488.773 169.349C484.928 141.962 468.696 118.855 444.774 106.018ZM408.892 239.098L402.912 239.526L399.068 243.805C387.961 256.215 372.156 263.061 355.497 263.489C347.381 263.489 338.837 261.778 331.575 258.354L323.032 254.503L316.197 260.494C292.703 281.034 262.374 292.587 230.764 292.587C200.862 292.587 172.242 282.317 149.175 263.489L143.622 258.782L136.788 260.494C90.6536 272.475 43.2381 244.661 31.2775 198.447C29.5688 191.172 28.2873 183.898 28.2873 176.623C28.2873 129.553 66.3051 91.0406 113.293 90.1848H121.837L125.681 82.4823C150.457 33.7003 210.26 14.4443 258.53 39.6911C274.762 47.8214 288.432 60.6588 297.829 76.0637L305.945 89.3289L318.333 80.3428C329.012 72.6404 342.255 68.3612 355.497 68.3612C385.398 68.3612 411.455 89.7569 417.436 119.283L419.144 126.557L425.979 129.553C455.026 141.962 469.123 175.767 456.735 204.865C448.619 224.121 430.251 237.387 408.892 239.098Z" fill="#BE1319"/>
<path d="M142.769 138.113C135.08 138.113 128.672 141.537 123.973 147.099L123.546 141.537C123.546 140.253 122.692 139.397 121.41 139.397H106.887C106.032 139.397 104.751 140.253 104.751 141.109C104.751 141.109 104.751 141.109 104.751 141.537V228.403C104.751 229.259 105.605 230.542 106.46 230.542C106.46 230.542 106.46 230.542 106.887 230.542H122.692C123.546 230.542 124.828 229.687 124.828 228.831C124.828 228.831 124.828 228.831 124.828 228.403V199.305C129.527 204.012 135.934 206.579 142.342 206.579C160.283 206.579 173.952 191.174 173.952 172.346C173.952 153.518 161.137 138.113 142.769 138.113ZM140.206 188.607C131.662 188.607 125.682 181.332 125.682 172.346C125.682 163.788 132.09 156.514 140.206 156.514C148.749 156.514 155.157 163.36 155.157 172.346C155.157 181.332 148.749 188.607 140.206 188.607Z" fill="#BE1319"/>
<path d="M246.57 139.825H232.047C230.765 139.825 229.911 140.681 229.911 141.537L229.484 147.099C224.785 141.965 218.377 138.113 210.688 138.113C192.747 138.113 179.078 153.518 179.078 172.346C179.078 191.174 192.32 206.579 210.688 206.579C217.95 206.579 224.785 203.584 229.484 198.021L229.911 202.728C229.911 204.012 230.765 204.868 231.62 204.868H246.143C246.998 204.868 248.279 204.012 248.279 203.156C248.279 203.156 248.279 203.156 248.279 202.728V141.537C248.279 140.681 247.852 139.825 246.57 139.825ZM213.251 188.607C204.708 188.607 198.301 181.76 198.301 172.346C198.301 163.36 204.708 156.514 213.251 156.514C221.795 156.514 227.775 163.788 227.775 172.346C227.775 180.905 221.795 188.607 213.251 188.607Z" fill="#BE1319"/>
<path d="M298.684 171.49L319.188 141.964C320.042 140.68 319.615 139.396 317.907 139.396H299.538C298.684 139.396 297.83 139.824 296.975 140.68L287.151 156.085L277.326 141.108C276.899 140.252 276.044 139.824 274.763 139.824H256.822C255.113 139.824 254.686 141.108 255.54 142.392L276.044 171.918L254.686 203.155C253.832 204.439 254.259 205.723 255.967 205.723H273.908C274.763 205.723 275.617 205.295 276.471 204.439L287.578 187.323L298.684 204.439C299.111 205.295 299.966 205.723 301.247 205.723H319.188C320.897 205.723 321.324 204.439 320.47 203.155L298.684 171.49Z" fill="#BE1319"/>
<path d="M370.021 151.806C375.147 147.955 378.991 141.536 378.991 134.69C378.991 121.425 368.739 110.299 352.507 110.299C336.275 110.299 325.596 121.425 325.596 134.69C325.596 141.536 329.44 147.955 334.566 151.806C325.168 156.085 319.188 165.927 319.615 176.197C319.615 195.025 336.702 206.579 352.507 206.579C368.312 206.579 385.399 195.025 385.399 176.197C384.972 165.927 379.418 156.513 370.021 151.806ZM352.08 126.56C357.206 126.56 361.05 130.411 361.05 135.546C361.05 140.681 357.633 144.96 352.08 144.96C346.954 144.96 343.109 140.681 343.109 135.974C343.109 130.839 347.381 126.56 352.08 126.56ZM352.08 188.179C345.245 188.179 340.119 182.188 340.119 175.342C340.119 168.923 345.672 163.36 352.08 163.36C358.915 163.36 364.04 169.351 364.04 176.197C364.04 183.044 358.915 188.179 352.08 188.179Z" fill="#BE1319"/>
</svg>
