<svg width="62" height="62" viewBox="0 0 62 62" fill="none" xmlns="http://www.w3.org/2000/svg"><path d="M27.4597 41.2906L30.3891 36.0245C30.6541 35.4763 30.816 34.8703 30.816 34.2211C30.816 32.7206 29.9917 31.4077 28.7551 30.6863L9.27971 20.0388C9.11782 19.9378 9 19.7646 9 19.5627C9 19.2453 9.26494 19 9.57411 19C9.64771 19 9.70658 19.0144 9.76549 19.0433L51.7929 31.7251C52.4995 31.9271 53 32.5619 53 33.3122C53 34.0624 52.5143 34.6684 51.8371 34.8848L28.0485 41.9832C27.5627 42.0986 27.283 41.5936 27.4449 41.2906L27.4597 41.2906Z" fill="#F47525"/></svg>