<svg width="62" height="62" viewBox="0 0 62 62" fill="none" xmlns="http://www.w3.org/2000/svg"><path d="M11.8087 9C10.2669 9 9 10.2604 9 11.8091V50.1909C9 51.7396 10.2669 53 11.8087 53H17.7343C19.2828 53 20.5497 51.7329 20.5497 50.1909V23.3605C20.5497 21.8118 21.8166 20.5447 23.3583 20.5447H38.6417C40.1901 20.5447 41.457 21.8118 41.457 23.3605V38.606C41.457 40.1547 40.1901 41.4151 38.6417 41.4151H29.847C28.2986 41.4151 27.0384 42.6822 27.0384 44.2308V50.1574C27.0384 51.7061 28.3053 52.9665 29.847 52.9665H50.1913C51.7398 52.9665 53 51.7061 53 50.1574V11.8158C53 10.2671 51.7331 9.0067 50.1913 9.0067H11.8087V9Z" fill="#008542"/></svg>