<svg xmlns="http://www.w3.org/2000/svg" width="62" height="62" fill="none"><g clip-path="url(#A)"><path fill-rule="evenodd" d="M30.433 52.811C18.596 52.811 9 43.227 9 31.405S18.596 10 30.433 10s21.433 9.584 21.433 21.405-9.596 21.405-21.433 21.405zm-.292-13.792v-4.257c-.004-.066.02-.13.067-.177a.23.23 0 0 1 .177-.066h4.993c3.52-.142 6.299-3.037 6.292-6.555s-2.796-6.403-6.316-6.532H23.127c-.269 0-.487.218-.487.486v17.173a3.75 3.75 0 1 0 7.502 0c.033-.049.033-.073 0-.073zm.244-10.095h4.725c.538 0 .974-.436.974-.973s-.436-.973-.974-.973h-6.406c-.269 0-.487.218-.487.486v11.603c0 1.008-.818 1.824-1.827 1.824s-1.827-.817-1.827-1.824v-15.47c-.004-.066.02-.13.067-.177a.23.23 0 0 1 .177-.067H35.11a4.63 4.63 0 0 1 4.05 2.237 4.62 4.62 0 0 1 .085 4.622 4.63 4.63 0 0 1-3.965 2.384h-4.895a.23.23 0 0 1-.244-.243v-3.162c0-.139.105-.255.244-.268z" fill="#0f6fde"/></g><defs><clipPath id="A"><path fill="#fff" transform="translate(9 10)" d="M0 0h44v42.811H0z"/></clipPath></defs></svg>