<?xml version="1.0" encoding="UTF-8"?>
<svg xmlns="http://www.w3.org/2000/svg" xmlns:xlink="http://www.w3.org/1999/xlink" width="62px" height="62px" viewBox="0 0 62 61" version="1.1">
<defs>
<linearGradient id="linear0" gradientUnits="userSpaceOnUse" x1="1480.199951" y1="1203.5" x2="42.400002" y2="1203.5" gradientTransform="matrix(0.0395913,0,0,0.0391528,0,0)">
<stop offset="0" style="stop-color:rgb(100%,56.078431%,10.980392%);stop-opacity:1;"/>
<stop offset="1" style="stop-color:rgb(92.941176%,12.54902%,14.117647%);stop-opacity:1;"/>
</linearGradient>
<linearGradient id="linear1" gradientUnits="userSpaceOnUse" x1="85.699997" y1="353.299988" x2="1523.599976" y2="353.299988" gradientTransform="matrix(0.0395913,0,0,0.0391528,0,0)">
<stop offset="0" style="stop-color:rgb(100%,56.078431%,10.980392%);stop-opacity:1;"/>
<stop offset="1" style="stop-color:rgb(92.941176%,12.54902%,14.117647%);stop-opacity:1;"/>
</linearGradient>
</defs>
<g id="surface1">
<path style=" stroke:none;fill-rule:evenodd;fill:url(#linear0);" d="M 0.0078125 33.742188 L 0.0078125 33.6875 C 0.00390625 33.640625 0.0078125 33.59375 0.0195312 33.550781 C 0.03125 33.507812 0.0546875 33.464844 0.0820312 33.429688 C 0.109375 33.394531 0.148438 33.363281 0.1875 33.339844 C 0.226562 33.320312 0.269531 33.304688 0.316406 33.296875 L 20.175781 33.296875 C 20.210938 33.296875 20.242188 33.304688 20.273438 33.320312 C 20.304688 33.335938 20.335938 33.351562 20.363281 33.375 C 20.386719 33.398438 20.410156 33.425781 20.425781 33.457031 C 20.445312 33.484375 20.457031 33.515625 20.460938 33.550781 C 24.265625 47.792969 27.871094 52.546875 31 52.546875 C 35.347656 52.546875 38.765625 43.328125 40.445312 37.652344 C 40.570312 37.242188 41.101562 37.402344 41.027344 37.835938 C 37.441406 60.96875 26.679688 60.96875 23.222656 60.96875 C 12.402344 60.953125 3.230469 49.539062 0.0078125 33.742188 Z M 61.992188 33.644531 C 58.832031 49.304688 49.660156 60.917969 38.800781 60.917969 C 38.390625 60.914062 37.984375 60.898438 37.574219 60.867188 C 37.167969 60.832031 36.765625 60.785156 36.359375 60.722656 C 35.960938 60.660156 35.558594 60.582031 35.160156 60.492188 C 34.765625 60.398438 34.375 60.289062 33.984375 60.167969 C 33.976562 60.160156 33.964844 60.15625 33.953125 60.148438 C 33.941406 60.140625 33.933594 60.136719 33.921875 60.128906 C 33.910156 60.121094 33.902344 60.113281 33.894531 60.105469 C 33.886719 60.097656 33.878906 60.089844 33.871094 60.078125 C 33.832031 60.042969 33.804688 60 33.785156 59.953125 C 33.761719 59.90625 33.753906 59.859375 33.753906 59.808594 C 33.753906 59.757812 33.761719 59.707031 33.785156 59.660156 C 33.804688 59.613281 33.832031 59.570312 33.871094 59.535156 C 39.277344 54.617188 42.421875 45.773438 43.652344 33.601562 C 43.65625 33.5625 43.664062 33.523438 43.675781 33.488281 C 43.691406 33.453125 43.714844 33.421875 43.742188 33.394531 C 43.769531 33.363281 43.800781 33.34375 43.835938 33.328125 C 43.871094 33.308594 43.910156 33.296875 43.949219 33.296875 L 61.660156 33.296875 C 61.703125 33.296875 61.746094 33.308594 61.785156 33.332031 C 61.824219 33.347656 61.859375 33.375 61.890625 33.40625 C 61.921875 33.4375 61.941406 33.476562 61.957031 33.519531 C 61.972656 33.558594 61.980469 33.597656 61.976562 33.644531 Z M 61.992188 33.644531 "/>
<path style=" stroke:none;fill-rule:evenodd;fill:url(#linear1);" d="M 61.976562 27.210938 C 61.976562 27.214844 61.976562 27.21875 61.976562 27.222656 C 61.976562 27.226562 61.976562 27.230469 61.976562 27.234375 C 61.976562 27.238281 61.976562 27.242188 61.976562 27.246094 C 61.976562 27.25 61.976562 27.253906 61.976562 27.257812 C 61.984375 27.304688 61.984375 27.347656 61.976562 27.394531 C 61.96875 27.4375 61.949219 27.480469 61.925781 27.515625 C 61.898438 27.554688 61.867188 27.585938 61.828125 27.609375 C 61.789062 27.636719 61.75 27.652344 61.703125 27.664062 L 41.824219 27.664062 C 41.789062 27.664062 41.757812 27.65625 41.726562 27.640625 C 41.695312 27.632812 41.664062 27.613281 41.636719 27.589844 C 41.613281 27.566406 41.589844 27.542969 41.570312 27.511719 C 41.554688 27.480469 41.542969 27.449219 41.539062 27.414062 C 37.734375 13.160156 34.128906 8.40625 31 8.40625 C 26.652344 8.40625 23.234375 17.625 21.554688 23.304688 C 21.429688 23.714844 20.898438 23.550781 20.972656 23.117188 C 24.566406 0 35.332031 0 38.746094 0 C 49.597656 0 58.769531 11.414062 61.976562 27.210938 Z M 23.207031 0.0351562 C 23.613281 0.0390625 24.019531 0.0546875 24.429688 0.0859375 C 24.835938 0.121094 25.238281 0.167969 25.644531 0.230469 C 26.042969 0.296875 26.441406 0.375 26.839844 0.46875 C 27.234375 0.5625 27.625 0.671875 28.015625 0.792969 C 28.023438 0.800781 28.035156 0.804688 28.046875 0.808594 C 28.058594 0.816406 28.066406 0.824219 28.078125 0.828125 C 28.085938 0.835938 28.09375 0.84375 28.105469 0.855469 C 28.113281 0.863281 28.121094 0.871094 28.128906 0.882812 C 28.164062 0.917969 28.195312 0.957031 28.214844 1.003906 C 28.238281 1.050781 28.246094 1.101562 28.246094 1.148438 C 28.246094 1.199219 28.238281 1.25 28.214844 1.296875 C 28.195312 1.34375 28.164062 1.382812 28.128906 1.417969 C 22.722656 6.300781 19.578125 15.179688 18.347656 27.351562 C 18.34375 27.390625 18.335938 27.429688 18.320312 27.464844 C 18.304688 27.503906 18.28125 27.535156 18.25 27.5625 C 18.226562 27.589844 18.195312 27.613281 18.15625 27.628906 C 18.121094 27.644531 18.085938 27.65625 18.046875 27.65625 L 0.316406 27.65625 C 0.273438 27.652344 0.230469 27.640625 0.191406 27.621094 C 0.152344 27.601562 0.121094 27.574219 0.0898438 27.542969 C 0.0625 27.511719 0.0390625 27.472656 0.0234375 27.429688 C 0.0117188 27.386719 0.00390625 27.34375 0.0078125 27.300781 C 3.164062 11.648438 12.339844 0.0351562 23.207031 0.0351562 Z M 23.207031 0.0351562 "/>
</g>
</svg>
