<svg xmlns="http://www.w3.org/2000/svg" width="62" height="62" fill="none"><rect width="62" height="62" rx="31" fill="#fff"/><path d="M26.98 17.801a1.27 1.27 0 0 0-1.253 1.07l-2.082 13.2L21.733 44.2l-.001.01.002-.01 1.913-12.129c.097-.617.628-1.07 1.252-1.07h6.099c6.138 0 11.347-4.478 12.298-10.546a10.05 10.05 0 0 0 .12-1.368v-.001h-.001c-1.56-.818-3.391-1.285-5.398-1.285H26.98z" fill="#001c64"/><path d="M43.416 19.086a10.07 10.07 0 0 1-.12 1.369C42.344 26.523 37.135 31 30.997 31h-6.099c-.624 0-1.155.454-1.252 1.07L21.734 44.2l-1.2 7.61a1.03 1.03 0 0 0 .235.829 1.03 1.03 0 0 0 .783.361h6.62a1.27 1.27 0 0 0 1.253-1.07l1.744-11.059A1.27 1.27 0 0 1 32.42 39.8h3.898c6.138 0 11.346-4.478 12.298-10.545.675-4.307-1.492-8.226-5.2-10.169z" fill="#0070e0"/><path d="M19.46 9a1.27 1.27 0 0 0-1.253 1.071l-5.194 32.938a1.03 1.03 0 0 0 .234.83 1.03 1.03 0 0 0 .783.361h7.703l1.913-12.129 2.082-13.2a1.27 1.27 0 0 1 1.253-1.07h11.036c2.007 0 3.839.468 5.399 1.285C43.522 13.561 38.963 9 32.696 9H19.46z" fill="#003087"/></svg>