<?xml version="1.0" encoding="UTF-8"?>
<svg xmlns="http://www.w3.org/2000/svg" xmlns:xlink="http://www.w3.org/1999/xlink" width="500px" height="500px" viewBox="0 0 500 500" version="1.1">
<defs>
<filter id="alpha" filterUnits="objectBoundingBox" x="0%" y="0%" width="100%" height="100%">
  <feColorMatrix type="matrix" in="SourceGraphic" values="0 0 0 0 1 0 0 0 0 1 0 0 0 0 1 0 0 0 1 0"/>
</filter>
<mask id="mask0">
  <g filter="url(#alpha)">
<rect x="0" y="0" width="500" height="500" style="fill:rgb(0%,0%,0%);fill-opacity:0.027451;stroke:none;"/>
  </g>
</mask>
<clipPath id="clip1">
  <rect x="0" y="0" width="500" height="500"/>
</clipPath>
<g id="surface5" clip-path="url(#clip1)">
<path style=" stroke:none;fill-rule:evenodd;fill:rgb(81.568627%,1.960784%,5.882353%);fill-opacity:1;" d="M 276.734375 248.855469 C 276.734375 241.140625 276.734375 233.425781 276.734375 225.707031 C 277.105469 225.035156 277.339844 224.265625 277.429688 223.394531 C 277.390625 231.949219 277.160156 240.4375 276.734375 248.855469 Z M 276.734375 248.855469 "/>
</g>
</defs>
<g id="surface1">
<path style=" stroke:none;fill-rule:evenodd;fill:rgb(92.156863%,12.54902%,34.509804%);fill-opacity:1;" d="M 447.519531 46.449219 C 450.085938 49.71875 453.699219 50.921875 458.367188 50.066406 C 457.175781 120.597656 458.378906 190.5 461.984375 259.777344 C 393.359375 330.8125 323.457031 400.714844 252.269531 469.492188 C 248.65625 399.628906 247.453125 329.722656 248.65625 259.777344 C 178.742188 260.382812 108.835938 259.777344 38.941406 257.96875 C 108.847656 188.066406 178.75 118.160156 248.65625 48.257812 C 314.929688 46.449219 381.222656 45.847656 447.519531 46.449219 Z M 447.519531 46.449219 "/>
<path style=" stroke:none;fill-rule:evenodd;fill:rgb(92.941176%,29.803922%,47.45098%);fill-opacity:1;" d="M 274.882812 222.929688 C 275.5 222.929688 276.117188 222.929688 276.734375 222.929688 C 276.734375 223.855469 276.734375 224.78125 276.734375 225.707031 C 276.734375 233.425781 276.734375 241.140625 276.734375 248.855469 C 277.351562 249.320312 277.351562 249.78125 276.734375 250.246094 C 276.273438 241.375 276.121094 232.425781 276.273438 223.394531 C 275.675781 223.503906 275.210938 223.347656 274.882812 222.929688 Z M 274.882812 222.929688 "/>
<use xlink:href="#surface5" mask="url(#mask0)"/>
</g>
</svg>
