<svg xmlns="http://www.w3.org/2000/svg" width="62" height="62" fill="none"><rect width="62" height="62" rx="31" fill="#fff"/><g clip-path="url(#A)"><path d="M30.974 38.316c-1.293.776-2.74 1.138-4.24 1.138s-2.947-.362-4.24-1.138c-1.293-.724-2.378-1.81-3.102-3.102s-1.137-2.74-1.137-4.24.414-2.947 1.137-4.24a8.13 8.13 0 0 1 3.102-3.102c1.293-.724 2.74-1.137 4.24-1.137s2.947.414 4.24 1.137c-1.293.724-2.327 1.81-3.102 3.102-.724 1.293-1.137 2.74-1.137 4.24s.414 2.947 1.137 4.24c.776 1.293 1.861 2.378 3.102 3.102z" fill="#00f872"/><path d="M43.745 30.974a8.69 8.69 0 0 1-.62 3.257c-.414 1.034-1.034 1.965-1.861 2.74-.776.775-1.706 1.396-2.74 1.861a8.69 8.69 0 0 1-3.257.62c-1.499 0-2.999-.414-4.291-1.189 1.293-.724 2.327-1.81 3.102-3.102.724-1.293 1.137-2.74 1.137-4.24s-.362-2.947-1.137-4.24a8.13 8.13 0 0 0-3.102-3.102c1.293-.724 2.74-1.137 4.24-1.137s2.947.362 4.24 1.137a8.13 8.13 0 0 1 3.102 3.102c.827 1.344 1.189 2.792 1.189 4.291z" fill="#066"/><path d="M30.974 52.948a21.87 21.87 0 0 1-12.202-3.723c-3.619-2.43-6.411-5.843-8.117-9.876C9 35.369 8.586 30.974 9.414 26.682c.879-4.24 2.947-8.169 6.049-11.272 3.051-3.05 6.98-5.119 11.22-5.998S35.369 9 39.402 10.654s7.445 4.498 9.875 8.118A21.87 21.87 0 0 1 53 30.974c0 5.843-2.327 11.426-6.463 15.563-4.136 4.085-9.72 6.411-15.563 6.411zm0-39.398c-3.464 0-6.825 1.034-9.669 2.947s-5.119 4.653-6.411 7.807c-1.344 3.206-1.655 6.67-.982 10.082.672 3.361 2.327 6.463 4.757 8.945a17.37 17.37 0 0 0 8.945 4.757c3.361.672 6.877.31 10.082-.982s5.894-3.568 7.807-6.411a17.44 17.44 0 0 0 2.947-9.669c0-4.602-1.861-9.048-5.119-12.306-3.257-3.309-7.704-5.17-12.357-5.17z" fill="#2d4663"/></g><defs><clipPath id="A"><path fill="#fff" transform="translate(9 9)" d="M0 0h44v43.948H0z"/></clipPath></defs></svg>