<svg xmlns="http://www.w3.org/2000/svg" width="62" height="62" fill="none" ><path d="M51.441 36.999l-1.257-10.573v-.008-.008-.025l-.008-.025c-.008-.017-.008-.017-.008-.025-.009-.025-.017-.025-.017-.033-.008-.017-.017-.017-.017-.025 0-.017-.008-.017-.017-.025l-.017-.017-.017-.017-8.556-9.187c-.017-.025-.034-.033-.051-.042l-.025-.008c-.025-.008-.025-.017-.034-.017s-.017-.008-.025-.008l-.025-.008h-.025L22.23 13.008h-.008C22.205 13 22.18 13 22.154 13h-.025c-.034 0-.042.008-.059.008-.008 0-.017.008-.025.008-.017 0-.025.008-.042.017h-.008c-.008 0-.017.008-.025.008-.025.017-.034.017-.042.025s-.017.008-.017.017l-.008.008-10.808 10.055-.017.017c-.008.025-.017.025-.017.033-.009.008-.017.017-.017.025-.017.025-.017.042-.025.05-.017.025-.017.042-.017.05v.033.025.025.025.025.025c0 .008 0 .017.008.025v.008l2.624 10.014v.017c0 .008.008.017.008.025.025.067.059.117.118.159l.017.017c.008.008.017.008.025.017.034.017.051.025.059.025s.017.008.025.008.017 0 .025.009h.008l4.295.843 4.21 5.182c.008.008.017.017.017.025.017.017.025.025.034.025l.076.05c.025.008.025.017.034.017.025.008.025.008.034.017.008 0 .017 0 .025.008h.034l6.075.734 3.729 5.85c.017.025.034.05.059.067.034.025.059.042.076.05.034.017.042.017.059.025.008 0 .017.008.025.008a.36.36 0 0 0 .084.008c.025 0 .059 0 .093-.008a.32.32 0 0 0 .093-.042l.008.017 1.983 2.846c.067.1.177.15.295.15.025 0 .051 0 .076-.008l3.459-.768a.35.35 0 0 0 .278-.334l.16-3.471 5.628-1.419h.008c.025 0 .025 0 .034-.008.025-.008.051-.017.067-.034.025-.008.025-.017.034-.017.017-.008.025-.025.042-.033l.008-.008c.017-.017.034-.042.042-.067.008-.017.017-.025.017-.033l1.198-2.871 4.987-3.254c.101-.083.16-.217.143-.35zM49.18 26.302l-3.409 1.085c-.312-.551-.903-.918-1.586-.918h-.101l-2.101-7.902 7.197 7.736zm-7.737 8.428c-.059-.008-.118-.008-.177-.008a1.59 1.59 0 0 0-1.291.668l-7.754-2.987a1.55 1.55 0 0 0 .025-.284c0-.042 0-.084-.009-.117l10.336-2.921a1.81 1.81 0 0 0 .667.709l-1.797 4.94zm.726 1.544c0 .225-.084.425-.219.584-.16.183-.388.3-.65.317h-.042c-.127 0-.236-.025-.346-.067-.228-.092-.413-.275-.498-.509-.034-.092-.051-.183-.059-.284v-.033a.92.92 0 0 1 .262-.634c.152-.15.363-.25.591-.267h.059a.94.94 0 0 1 .624.242c.169.158.279.392.279.651zm-5.518 3.939a1.99 1.99 0 0 0-1.148-.359c-.194 0-.388.025-.565.084l-3.341-6.467c.143-.108.262-.242.363-.392l7.754 2.987-.017.217c0 .292.084.559.219.793l-3.265 3.138zm.118 1.602c0 .192-.042.384-.127.551-.202.417-.641.709-1.147.709-.11 0-.211-.017-.321-.042a1.22 1.22 0 0 1-.616-.367c-.211-.225-.337-.526-.337-.851 0-.359.152-.684.396-.91.177-.167.397-.275.641-.326.076-.017.152-.025.236-.025.228 0 .439.058.624.159.211.117.388.292.498.509.068.133.118.275.135.434.017.05.017.1.017.159zm-5.206-9.688a1.03 1.03 0 0 1-.262.684l-.025.025c-.16.167-.363.284-.599.317l-.008.058-.025-.05c-.042.008-.084.008-.135.008-.194 0-.38-.05-.54-.142-.312-.183-.523-.517-.523-.901a1.04 1.04 0 0 1 .397-.818c.177-.142.413-.234.667-.234.11 0 .194.017.278.033.236.067.439.209.582.401l.025-.008-.017.017c.11.184.186.392.186.609zm-.371-1.577a1.7 1.7 0 0 0-.683-.142c-.067 0-.144.008-.211.017l-1.063-3.062a1.49 1.49 0 0 0 .692-1.252 1.61 1.61 0 0 0-.025-.284l6.16-2.804c.076.117.169.217.261.317l-5.13 7.21zm-4.084-3.713l-3.459 3.213 3.788-9.087.017-.042.008.042.43 3.755a1.48 1.48 0 0 0-.979 1.393c0 .267.076.509.194.726zm8.648-4.456l-6.159 2.804c-.236-.292-.582-.492-.979-.542l-.43-3.755a1.48 1.48 0 0 0 .802-.709l6.708 1.519v.125c-.017.192.009.376.059.559zm-7.374-2.629c-.034.092-.084.175-.143.25-.042.05-.084.084-.135.125a.77.77 0 0 1-.43.133.78.78 0 0 1-.591-.275.73.73 0 0 1-.169-.476.67.67 0 0 1 .051-.259.73.73 0 0 1 .54-.467c.059-.017.118-.017.177-.017a.76.76 0 0 1 .599.292c.059.075.101.167.135.259.017.067.025.134.025.2-.025.075-.034.159-.059.234zm-.405 5.633c.127-.075.287-.125.447-.125a.96.96 0 0 1 .27.042c.11.033.211.092.295.159.186.159.304.384.304.651a.84.84 0 0 1-.27.617.87.87 0 0 1-.591.234c-.025 0-.059 0-.084-.008a.76.76 0 0 1-.236-.058c-.228-.092-.413-.284-.489-.517-.025-.084-.042-.175-.042-.275a.76.76 0 0 1 .397-.718zm8.935-1.636a2.2 2.2 0 0 0 .937.209c.456 0 .878-.142 1.232-.384l3.62 3.672a1.76 1.76 0 0 0-.321 1.018c0 .05 0 .092.008.142l-10.336 2.921c-.067-.133-.16-.259-.262-.367l5.122-7.21zm-.447-1.936a1.37 1.37 0 0 1 .16-.643c.236-.434.692-.726 1.224-.726.759 0 1.384.609 1.384 1.369a1.33 1.33 0 0 1-.194.701 1.38 1.38 0 0 1-.515.492c-.202.109-.43.175-.675.175a1.25 1.25 0 0 1-.473-.083c-.456-.167-.801-.567-.886-1.051l-.017-.175c-.009-.017-.009-.033-.009-.058zm6.775 7.093c-.127-.184-.194-.401-.194-.643v-.042a1.18 1.18 0 0 1 .127-.484c.093-.175.228-.325.397-.426.042-.025.076-.05.118-.067a1.13 1.13 0 0 1 .506-.117h.068c.354.017.667.2.861.467a1.15 1.15 0 0 1 .219.668v.008c0 .442-.262.826-.633 1.01-.152.075-.329.117-.515.117h-.034c-.059 0-.11-.008-.16-.017-.194-.033-.371-.108-.515-.225-.093-.067-.177-.159-.245-.25zm.152-2.253l-.186.1-3.611-3.672c.262-.351.422-.793.422-1.268 0-1.185-.97-2.145-2.168-2.145-.903 0-1.679.551-2 1.327l-6.328-1.435 11.484-1.886 2.388 8.979zm-4.084-9.421l-10.294 1.694c-.228-.517-.751-.885-1.358-.885a1.45 1.45 0 0 0-.683.167l-3.831-4.289 16.166 3.313zm-16.976-3.138l4.101 4.59a1.46 1.46 0 0 0-.262.826c0 .484.236.91.599 1.177l-3.873 9.288-.219-.017c-.11 0-.219.008-.321.033l-1.898-3.772a1.98 1.98 0 0 0 .81-1.594c0-.801-.481-1.494-1.173-1.802l2.236-8.728zM20.129 25.55a1.29 1.29 0 0 1-.641.317c-.076.017-.143.017-.219.017a1.35 1.35 0 0 1-.321-.042 1.22 1.22 0 0 1-.616-.367c-.177-.184-.295-.425-.329-.693-.008-.05-.008-.108-.008-.167a1.24 1.24 0 0 1 .118-.534c.194-.417.616-.709 1.105-.726h.051c.236 0 .456.067.65.175.371.217.624.626.624 1.085-.008.376-.16.709-.413.935zm1.375-11.098l-2.101 8.203c-.042 0-.093-.008-.135-.008-.877 0-1.62.559-1.898 1.335l-5.248-.809 9.383-8.72zm-9.686 9.388l5.434.834c.017.576.278 1.093.692 1.444l-3.847 6.409-2.278-8.687zm6.742 2.654c.219.083.456.125.7.125a2.04 2.04 0 0 0 .557-.075l1.898 3.772a1.48 1.48 0 0 0-.531 1.11l-6.488 1.485 3.864-6.417zm-2.886 6.918l5.206-1.193-2.565 1.711-2.641-.517zm6.649 5.174l-3.409-4.197 2.767-1.853c.177.159.396.275.641.342v5.708zm.363-6.35a.89.89 0 0 1-.363-.083l-.034-.017c-.084-.05-.16-.108-.228-.184-.093-.117-.16-.25-.177-.409-.008-.033-.008-.067-.008-.1 0-.067.008-.125.025-.184.025-.108.076-.2.135-.292.135-.175.346-.3.582-.317l.025-.067.034.067c.093 0 .186.017.27.05.127.05.245.125.329.225.076.083.127.184.16.292.025.075.034.15.034.225 0 .133-.034.267-.101.375-.076.142-.194.259-.346.325a.64.64 0 0 1-.245.075c-.017.008-.059.017-.093.017zm.363 7.043v-6.4l.177-.05 4.961 7.085-5.138-.634zm.759-6.859c.236-.259.371-.601.371-.976 0-.267-.068-.509-.194-.726l3.611-3.355c.236.15.515.242.818.242.042 0 .084 0 .135-.008l1.063 3.063c-.506.3-.844.851-.844 1.477a1.71 1.71 0 0 0 1.072 1.585l-1.097 5.733-4.936-7.035zm8.944 13.252l-3.434-5.382 1.223-6.434c.143 0 .279-.025.413-.059l3.341 6.467a1.94 1.94 0 0 0-.101 3.021l-1.443 2.387zm5.594 2.587l-2.953.659-1.696-2.437 4.793-1.21-.143 2.988zm-4.826-2.47l1.291-2.145c.211.083.447.125.692.125.861 0 1.586-.543 1.865-1.293l5.653.926-9.501 2.387zm3.957-4.014c-.008-.392-.127-.751-.329-1.051l3.274-3.146c.245.15.532.242.844.242a1.58 1.58 0 0 0 .346-.042l2.523 5.073-6.657-1.076zm7.256.684l-2.481-4.99c.346-.284.574-.718.574-1.193 0-.543-.287-1.018-.709-1.302l1.806-4.932.177.017 1.544 10.247-.911 2.153zm1.544-2.704l-1.468-9.797c.7-.25 1.198-.91 1.198-1.694l-.008-.2 3.527-1.126 1.181 9.922-4.43 2.896z" fill="#7f35fd" stroke="#7f35fd" stroke-width=".326" stroke-linejoin="round"/></svg>