<svg widthwidth="62" height="62" fill="none" viewBox="0 0 400 400" xmlns="http://www.w3.org/2000/svg">
    <path fill-rule="evenodd" clip-rule="evenodd" d="M101.008 42L190.99 124.905V124.886V42.1913H208.506V125.276L298.891 42V136.524H336V272.866H299.005V357.035L208.506 277.525V357.948H190.99V278.836L101.11 358V272.866H64V136.524H101.008V42ZM177.785 153.826H81.5159V255.564H101.088V223.472L177.785 153.826ZM118.625 231.149V319.392L190.99 255.655V165.421L118.625 231.149ZM209.01 254.812V165.336L281.396 231.068V272.866H281.489V318.491L209.01 254.812ZM299.005 255.564H318.484V153.826H222.932L299.005 222.751V255.564ZM281.375 136.524V81.7983L221.977 136.524H281.375ZM177.921 136.524H118.524V81.7983L177.921 136.524Z" fill="black"/>
</svg>