<svg xmlns="http://www.w3.org/2000/svg" width="62" height="62" fill="none"><rect width="62" height="62" rx="31" fill="#fff"/><path fill-rule="evenodd" d="M17.153 9l12.529 11.544v-.003V9.027h2.439v11.569L44.706 9v13.162h5.167v18.984h-5.151v11.72L32.121 41.795v11.198h-2.439V41.977L17.167 53V41.146H12V22.162h5.153V9zm10.691 15.571H14.439v14.166h2.725v-4.468l10.679-9.698zm-8.237 10.767v12.287l10.076-8.875V26.185l-10.076 9.152zm12.585 3.295V26.173l10.079 9.152v5.82h.013v6.353l-10.092-8.867zm12.531.105h2.712V24.571H34.13l10.592 9.597v4.569zm-2.455-16.575v-7.62l-8.271 7.62h8.271zm-14.405 0h-8.271v-7.62l8.271 7.62z" fill="#000"/></svg>
