<svg width="62" height="62" viewBox="-153 -46 652 652" xmlns="http://www.w3.org/2000/svg"><rect x="-153" y="-46" width="100%" height="100%" rx="100%" fill="#fff"/><path d="M-45.3 284.5c-7.1 25.4-13 46.8-13.5 49.7-.4 3-3 5.3-6.1 5.3h-.7c-3.3-.4-5.7-3.4-5.3-6.7.3-2.4 5-20 10.9-40.9-8.3 3.8-15.1 6.3-19.2 6.8-.7.1-1.4.1-2 .1-4.1 0-6.2-2-7.2-3.7-1.7-2.9-.7-6.6 2.2-8.3 1.8-1 3.9-1.1 5.7-.2 3.6-.5 12.8-4.3 24.9-10.6 6.1-21.6 12.4-43.6 15.5-54.6 1-3.2 4.4-5 7.6-4 3.1 1 4.9 4.2 4.1 7.3-3.7 13-8 28.2-12.2 43.1 5.2-3 10.8-6.4 16.3-10 30.3-19.6 50.9-38.3 55-50.2 1.6-4.5.4-6.5-1.8-8.2-5.3-4.1-21.6-4.6-51.5 6.3-44.8 16.3-92 48-96.6 64.6.5.1.9.1 1.4.1 3.3-.3 6.3 2.2 6.5 5.6.3 3.3-2.2 6.3-5.6 6.5h-.4c-1.3.1-7.9.2-11.7-4.4-2.2-2.7-3-6.4-2.2-9.8 3-14.1 22.3-29.6 37.9-40.1 20.8-13.8 43.1-25.2 66.5-33.9 21.4-7.8 49.6-14.9 63.1-4.5 6.3 4.9 8.5 11.9 6.4 19.8-2.7 10.2-14.9 28.3-57 56.1-10.5 7.1-21.2 13.5-31 18.8m406.4-8.2c-4.7 12.9-15.6 43.1-2 49.3 3 1.5 4.2 5.1 2.7 8.1-1.4 2.8-4.8 4.1-7.7 2.9-17.2-7.8-15-29.1-10.1-46.7-19.3 22.8-31.3 34.4-40.9 34.4-3 0-5.7-1.4-7.5-3.8-5.1-7.1-1.8-21.3 8.2-52.7.3-1.1.7-2.2 1.1-3.3-.9 1.2-1.8 2.5-2.8 3.9-6.2 8.8-12.6 20-18.2 29.8-3.9 6.8-7.4 12.8-10.2 17.2-2.9 4.4-7.1 10.9-13.2 8.7-1.8-.7-3.3-2.1-4.1-4-1-2.3-2.9-6.5 4.6-37 1.3-5.2 2.7-10.5 4-15.2-10.2 9-19.2 14.3-26.7 17.2-.9 5.1-2.5 10-4.8 14.5-11.1 22-24.5 32.4-37.8 29.4-5.1-1.2-8.9-4.8-10.8-10.2-4.6-13.4 3.4-34.6 21.4-56.8 1.6-2 4.4-2.8 6.8-1.8q1.8-1.5 3.9-2.7c4.8-2.8 8.9-3.4 12.3-2 4.2 2 6.5 6.4 7.7 9.9q1.05 3 1.5 6.3c7.8-3.9 17.6-10.9 29.1-23.3 2.4-2.6 7-7.5 12-4.4 5 3.2 2.6 9.1 1.5 11.9-1.6 4-7.7 25.9-11.2 42.3 1.2-2.1 2.4-4.1 3.5-6.1 16.8-29.4 28.8-48.6 40.8-49.6 2.1-.2 4.2.7 5.6 2.4 2.9 3.6 1.8 7.3-4.3 26.4-3.2 9.9-10.1 31.7-10.1 39.9 2.2-1.2 6.4-4.1 13.4-11.2 7.5-7.7 15.5-17.3 21.9-25.1 10.1-12.2 12.3-14.7 15.2-15.7 2.3-.9 4.9-.3 6.7 1.5 2.9 3.4 1.7 6.7-1.5 15.6m-136.2 12.2c-1.8.2-3.7.2-5.5.1-5.9-.4-10.7-2.4-13.5-5.5-10.3 16.4-11.2 27.4-9.7 31.8.7 2 1.7 2.3 2 2.3 7.1 1.6 16.2-6.9 24.3-23q1.35-2.7 2.4-5.7m1.7-12.5c-.1-3.1-.8-6.1-2.2-8.8-2.9 1.2-7.8 5.6-8.9 8.2 1.8.8 3.8 1.2 5.8 1.1 1.7.1 3.5-.1 5.3-.5M467 256.9c-16.3 18-30.3 25.3-41.2 27.7-1 3.2-2.3 6.2-3.8 9.2-13.1 25.6-25.6 32-34.9 32-1.4 0-2.8-.1-4.2-.4-5-1.1-8.8-4.5-10.6-9.8-4.9-13.7 3.7-36.4 23-60.5 1.6-2.1 4.4-2.9 6.8-2 4.8-4.1 11.4-7.7 16.7-5.3 3.2 1.4 5.8 4.7 7.4 9.4 1.5 4.6 2.1 9.3 1.9 14.1 8-2.9 18.1-9.5 29.9-22.6 2.3-2.4 6.1-2.5 8.6-.2 2.4 2.2 2.6 5.9.4 8.4m-54.4 28.5c-8.7-1-14.8-5.1-17.9-8.7-3.5 5.5-6.5 11.4-8.8 17.5-2.6 7.2-3.4 13.7-2.1 17.3.6 1.8 1.4 2 1.8 2 7.3 1.5 16.9-7.8 25.8-25.2.3-1 .8-1.9 1.2-2.9m1.5-25.9c-3.4 1.5-9 7-9.8 9.7 1.3 1.3 4.9 3.8 11 4.2h.6c.7-6.6-.6-11.7-1.8-13.9m-31-32.7c1.4-5.5-1.4-10.9-6.3-12.2s-10 2.1-11.4 7.6 1.4 10.9 6.3 12.2 10-2.1 11.4-7.6M184 250.6c-2.5-1.3-6.4-1-8.8-.7-12.1 1.7-25.5 10.1-30.1 15.2 1.6.7 3.9 1.5 5.7 2.2 8.7 3.1 20.7 7.4 25.6 18.1 2.9 6.6 2.7 14.4-.9 23.3-10.7 26.9-31.7 33.6-43.5 33.6-2 0-4-.2-5.9-.7-7.1-2.1-12.3-6.6-15-12.8-6.6-15.7 4.5-37.8 5.8-40.3 1.6-3 5.2-4.1 8.2-2.6 3 1.6 4.1 5.2 2.6 8.2-2.8 5.3-9.1 21.1-5.4 30 1.3 2.9 3.6 4.8 7.3 5.9 1.1.3 7.2.9 14.7-2.7 6.1-2.9 14.6-9.2 20-23 2.3-5.8 2.7-10.4 1.1-13.9-2.7-6-11.5-9.2-18.6-11.7-6.8-2.4-12.2-4.3-14.3-9.1-1-2.3-.9-4.9.1-7.1-17.3 2.9-31.3 14-41.5 32.8-3.9 7.3-6.9 14.9-9.2 22.8-1.7 7.5-2.9 12.7-2.9 12.8-.6 2.7-3.1 4.7-5.9 4.7-.4 0-.7 0-1.1-.1-3.2-.6-5.3-3.6-4.9-6.8.8-4.7 1.8-9.4 3.2-14 2.9-13.2 5.8-26.3 7.8-36.4-12.6 17-43.5 55.5-65.1 55.6-6.2.1-11.3-2.8-14.8-8.2-.4-.6-.8-1.3-1.1-2-3.4 1.3-6.9 2.2-10.4 2.7-9.6 1.4-18.1-.6-24.6-5.8-2.6-2.1-2.9-6-.8-8.5s5.8-2.9 8.4-.9c4.7 3.8 10.9 3.9 15.2 3.2 3.3-.5 6.6-1.5 9.7-2.8-.1-13.6 6.2-29.3 8.8-35 7.6-17.1 20.6-36.1 34.5-38.3 6.6-1 12.1 1.1 15.1 5.9 6.6 10.5-2.3 27.9-11 40.6-10 14.7-21.9 26.3-34.1 33.6.1.2.2.5.4.7 1.5 2.4 3.1 2.7 4.5 2.7 3.4 0 13.8-2.7 35.6-26.5 9-9.9 17.3-20.4 25-31.3l1.1-1.8c4.1-6.6 7.1-11.3 12.4-10.8 2.9.4 5.2 2.4 6 5.1.5 1.5 1 2.9-1.6 16.7 13.3-15.5 30.4-23.7 50.5-23.8.8 0 1.6.2 2.4.5 8.3-5.9 19.5-10.7 29.2-12.1 11.9-1.7 18.1 2.4 21.2 6.1s4.1 10.8-9 23.4c-2.3 2.4-6.2 2.5-8.6.2s-2.5-6.2-.2-8.6c.1-.1.2-.2.4-.3 2.6-2.4 4.9-5.1 6.8-8M7.4 304.4C16.1 298 24.6 289 32.1 278c11.9-17.4 11.7-25.6 10.8-27.3-.2-.4-1-.5-1.7-.5-.4 0-.9 0-1.3.1-8.1 1.3-18.9 16.7-25.4 31.3-3.3 7.3-5.7 14.9-7.1 22.8m445.3 54.1H-118v12.1h570.7z"/></svg>