<svg width="62" height="62" viewBox="0 0 62 62" fill="none" xmlns="http://www.w3.org/2000/svg"><path d="M37.4567 9H18.4859C17.1599 9 16.0859 10.0753 16.0859 11.4013V41.2596C16.0859 42.5856 17.1599 43.6609 18.4859 43.6609H31.0062V39.1583H20.5858V13.5026H37.4554C38.5298 13.5026 39.5602 13.9294 40.32 14.689C41.0799 15.4486 41.507 16.4788 41.5073 17.5532V35.109C41.507 36.1835 41.0799 37.2137 40.32 37.9733C39.5602 38.7329 38.5298 39.1596 37.4554 39.1596H33.8541C33.7752 39.1596 33.697 39.1752 33.6241 39.2054C33.5513 39.2357 33.485 39.28 33.4293 39.3359C33.3736 39.3917 33.3294 39.458 33.2993 39.531C33.2693 39.6039 33.2539 39.6821 33.2541 39.761V43.0623C33.2541 43.3938 33.5226 43.6623 33.8541 43.6623H37.4567C39.7249 43.6619 41.9001 42.7606 43.5039 41.1566C45.1076 39.5526 46.0086 37.3773 46.0086 35.109V17.5532C46.0086 15.285 45.1076 13.1097 43.5039 11.5057C41.9001 9.90167 39.7249 9.00036 37.4567 9Z" fill="white"/><path d="M27.1422 52.4978L17.878 45.3883C17.2942 44.9402 16.8211 44.3638 16.4955 43.7038C16.1698 43.0437 16.0003 42.3176 16 41.5816V11.4027C16 9.41512 18.2835 8.28911 19.8629 9.50005L29.1271 16.6095C29.7112 17.0578 30.1843 17.6343 30.51 18.2947C30.8356 18.955 31.0051 19.6814 31.0052 20.4176V50.5951C31.0052 52.5854 28.7217 53.7115 27.1422 52.4991V52.4978Z" fill="#03EAB3"/></svg>