<svg xmlns="http://www.w3.org/2000/svg" width="62" height="62" fill="none"><path d="M9 31c0 9.009 5.417 16.747 13.169 20.15-.062-1.536-.011-3.38.383-5.052l2.831-11.988s-.703-1.405-.703-3.481c0-3.26 1.889-5.695 4.243-5.695 2.001 0 2.968 1.503 2.968 3.303 0 2.011-1.283 5.021-1.943 7.807-.551 2.334 1.17 4.237 3.472 4.237 4.168 0 6.976-5.354 6.976-11.697 0-4.822-3.248-8.431-9.154-8.431-6.673 0-10.831 4.977-10.831 10.536 0 1.917.565 3.268 1.45 4.315.407.481.463.674.316 1.226l-.448 1.766c-.146.557-.598.756-1.102.551-3.074-1.255-4.505-4.621-4.505-8.405 0-6.249 5.271-13.743 15.723-13.743 8.399 0 13.927 6.078 13.927 12.602 0 8.63-4.798 15.078-11.87 15.078-2.375 0-4.609-1.284-5.375-2.742l-1.548 6.048c-.466 1.696-1.379 3.392-2.214 4.713 1.979.584 4.069.902 6.235.902 12.148 0 21.999-9.85 21.999-22S43.149 9 31 9 9 18.85 9 31z" fill="#cb1f27"/></svg>