<svg width="62" height="62" viewBox="0 0 62 62" fill="none" xmlns="http://www.w3.org/2000/svg"><path d="M9 9C23.52 9 38.04 9 53 9C53 23.52 53 38.04 53 53C38.48 53 23.96 53 9 53C9 38.48 9 23.96 9 9Z" fill="#34D28B"/><path d="M32.8331 15.4405C33.002 15.4403 33.1709 15.439 33.3399 15.4376C33.9912 15.4351 34.6123 15.4734 35.2536 15.6008C35.3056 15.6111 35.3577 15.6214 35.4114 15.632C37.3659 16.0554 39.0145 17.1479 40.112 18.8207C41.277 20.6828 41.7419 22.8957 41.9269 25.0608C41.9338 25.1382 41.9406 25.2156 41.9477 25.2954C42.0092 26.083 42.0139 26.8694 42.0138 27.659C42.014 27.8865 42.0153 28.1139 42.0167 28.3414C42.0207 29.7243 41.9272 31.0821 41.6565 32.4399C41.6471 32.4877 41.6377 32.5356 41.628 32.5848C41.4601 33.4322 41.2282 34.2352 40.9002 35.0341C40.8793 35.0863 40.8584 35.1384 40.8369 35.1922C40.4288 36.2043 39.9325 37.1385 39.2136 37.9674C39.1649 38.0267 39.1162 38.086 39.066 38.147C37.7896 39.6499 35.8684 40.5425 33.9192 40.7389C32.8305 40.8191 31.7072 40.8192 30.6336 40.6074C30.5843 40.5984 30.5351 40.5893 30.4844 40.58C29.1028 40.321 28.1088 39.6659 27.0402 38.7741C27.0455 38.8646 27.0507 38.955 27.0561 39.0482C27.1331 40.5238 27.1221 41.9994 27.1186 43.4765C27.1178 43.832 27.1175 44.1875 27.1171 44.5431C27.1164 45.2356 27.1151 45.9282 27.1136 46.6208C26.3117 46.6224 25.5098 46.6238 24.7079 46.6246C24.3356 46.6249 23.9632 46.6255 23.5909 46.6263C23.2319 46.6271 22.873 46.6275 22.514 46.6277C22.3767 46.6278 22.2394 46.6281 22.1021 46.6285C21.9105 46.629 21.7189 46.6291 21.5274 46.6291C21.47 46.6293 21.4127 46.6296 21.3536 46.6299C20.9619 46.6291 20.9619 46.6291 20.8802 46.5474C20.873 46.3858 20.871 46.2239 20.871 46.0622C20.8709 46.0106 20.8708 45.959 20.8707 45.9059C20.8704 45.7309 20.8707 45.5559 20.8709 45.3809C20.8708 45.2551 20.8707 45.1293 20.8706 45.0034C20.8703 44.6559 20.8704 44.3084 20.8706 43.9609C20.8708 43.5867 20.8706 43.2126 20.8704 42.8385C20.87 42.1049 20.8701 41.3714 20.8703 40.6378C20.8705 40.0419 20.8705 39.446 20.8704 38.8501C20.8704 38.7654 20.8704 38.6808 20.8704 38.5936C20.8704 38.4217 20.8703 38.2498 20.8703 38.0779C20.8701 36.4639 20.8703 34.8498 20.8707 33.2358C20.8711 31.8492 20.871 30.4627 20.8707 29.0761C20.8703 27.4681 20.8701 25.86 20.8703 24.252C20.8704 24.0807 20.8704 23.9094 20.8704 23.7381C20.8704 23.6538 20.8704 23.5695 20.8705 23.4827C20.8705 22.8871 20.8704 22.2915 20.8702 21.696C20.87 20.9707 20.8701 20.2455 20.8705 19.5202C20.8707 19.1498 20.8707 18.7794 20.8705 18.409C20.8703 18.0705 20.8704 17.7319 20.8708 17.3934C20.8709 17.2704 20.8708 17.1474 20.8707 17.0243C20.8704 16.8582 20.8707 16.6921 20.871 16.526C20.871 16.4334 20.871 16.3408 20.871 16.2454C20.8802 16.0408 20.8802 16.0408 20.9536 15.9674C21.0518 15.9576 21.1505 15.9525 21.2492 15.9494C21.3439 15.9459 21.3439 15.9459 21.4406 15.9423C21.5098 15.94 21.5789 15.9377 21.6502 15.9353C22.3531 15.9084 23.0522 15.8596 23.7527 15.7958C24.2681 15.751 24.7582 15.7474 25.2802 15.7474C25.6432 16.425 26.0062 17.1026 26.3802 17.8008C26.5738 17.6556 26.7674 17.5104 26.9669 17.3608C28.7864 16.0728 30.6087 15.4403 32.8331 15.4405Z" fill="#FDFEFE"/><path d="M33.9181 21.6316C35.1643 22.6176 35.4188 24.2348 35.5995 25.7242C35.6582 26.3433 35.6464 26.9667 35.6406 27.5878C35.6383 27.8336 35.6376 28.0793 35.6371 28.3252C35.6332 29.4489 35.6242 30.5565 35.3862 31.6597C35.3701 31.7351 35.3539 31.8105 35.3373 31.8882C35.0482 33.1788 34.5335 34.2727 33.4432 35.0754C32.7227 35.5176 31.9631 35.5611 31.142 35.5647C31.0139 35.5669 31.0139 35.5669 30.8832 35.5693C29.6855 35.5746 28.7709 35.2303 27.8893 34.4197C27.8268 34.3559 27.7643 34.2921 27.6999 34.2263C27.6286 34.1636 27.6286 34.1636 27.5558 34.0996C27.1373 33.6967 27.0443 33.3922 27.033 32.8176C27.0346 32.6737 27.0346 32.6737 27.0362 32.5269C27.0353 32.4233 27.0341 32.3196 27.0327 32.2159C27.0298 31.936 27.0305 31.6563 27.0321 31.3764C27.033 31.142 27.0321 30.9077 27.0312 30.6733C27.0291 30.1201 27.03 29.567 27.0328 29.0138C27.0356 28.4446 27.0339 27.8755 27.0299 27.3063C27.0266 26.8162 27.0259 26.3261 27.0273 25.8359C27.0281 25.5438 27.0281 25.2517 27.0256 24.9596C27.0234 24.6848 27.0244 24.4101 27.0279 24.1353C27.029 23.9874 27.0269 23.8396 27.0246 23.6917C27.0365 23.088 27.1615 22.7783 27.5947 22.3536C29.2362 20.9382 31.9994 20.3557 33.9181 21.6316Z" fill="#34D28B"/></svg>