<svg width="62" height="62" viewBox="0 0 62 62" fill="none" xmlns="http://www.w3.org/2000/svg">
<rect width="62" height="62" rx="10" fill="white"/>
<path d="M33.7015 11C28.8426 11 26.0252 13.2049 24.6778 14.6748C24.5145 13.3682 23.657 11.6941 20.3088 11.6941H13V19.2888H15.9807C16.4707 19.2888 16.634 19.4521 16.634 19.9421V54.6896H25.2903V41.7052V40.7253C26.6377 41.9502 29.2101 43.6651 33.2524 43.6651C41.7045 43.6651 47.625 36.9688 47.625 27.3326C47.6659 17.5739 42.0311 11 33.7015 11ZM31.9458 36.1113C27.291 36.1113 25.1678 31.6607 25.1678 27.4959C25.1678 20.9629 28.7201 18.6355 32.0683 18.6355C36.1514 18.6355 38.928 22.147 38.928 27.4142C38.8871 33.4573 35.3756 36.1113 31.9458 36.1113Z" fill="#203232"/>
</svg>
