<svg xmlns="http://www.w3.org/2000/svg" width="62" height="62" fill="none"><rect width="62" height="62" rx="31" fill="#fff"/><path d="M34.849 9c-4.893 0-7.731 2.221-9.088 3.701-.164-1.316-1.028-3.002-4.4-3.002H14v7.649h3.002c.493 0 .658.164.658.658V53h8.718V39.923v-.987c1.357 1.234 3.948 2.961 8.019 2.961 8.512 0 14.475-6.744 14.475-16.449C48.912 15.621 43.237 9 34.849 9zM33.08 34.29c-4.688 0-6.826-4.482-6.826-8.677 0-6.579 3.578-8.923 6.949-8.923 4.112 0 6.909 3.537 6.909 8.841-.041 6.086-3.578 8.759-7.032 8.759z" fill="#203232"/></svg>