<svg xmlns="http://www.w3.org/2000/svg" width="62" height="62" fill="none"><path d="M25.174 19.083l4.912 8.508a3.52 3.52 0 0 1 2.405.215l2.582-4.474-4.316-7.474-5.634 3.254.051-.029zm-7.406 11.006h9.827c.078-.293.191-.581.35-.854a3.5 3.5 0 0 1 1.036-1.126l-2.582-4.472h-8.633v6.507h.003v-.056zm16.286 2.674a3.52 3.52 0 0 1-1.034 1.125l2.584 4.475h8.63v-6.451h-9.83a3.58 3.58 0 0 1-.35.852zm-.563-4.256a3.52 3.52 0 0 1 1.021 2.189h5.163l4.316-7.475-5.586-3.226-4.915 8.511zm-9.897 13.498l4.915-8.514a3.54 3.54 0 0 1-1.021-2.186h-5.165l-4.317 7.472 5.633 3.255-.045-.027z" fill-rule="evenodd" fill="#de752c"/><mask id="A" maskUnits="userSpaceOnUse" x="9" y="9" width="44" height="44"><path d="M53 52.97H9V30.985 9h44v43.97z" fill="#fff"/></mask><g mask="url(#A)"><path fill-rule="evenodd" d="M36.828 42.915l-4.911-8.508c-.78.21-1.632.151-2.407-.213l-2.583 4.475 4.314 7.472 5.635-3.253-.047.028z" fill="#de752c"/></g><mask id="B" maskUnits="userSpaceOnUse" x="9" y="9" width="44" height="44"><path d="M53 52.97H9V30.985 9h44v43.97z" fill="#fff"/></mask><g mask="url(#B)"><path fill-rule="evenodd" d="M31.001 9C18.871 9 9 18.868 9 30.997s9.871 22.005 22.001 22.005S53 43.131 53 30.997 43.132 9 31.001 9zm0 4.454c9.69 0 17.544 7.854 17.544 17.544a17.55 17.55 0 0 1-17.544 17.55c-9.69 0-17.546-7.858-17.546-17.55s7.856-17.543 17.546-17.543z" fill="#517a9e"/></g></svg>