<svg version="1.1" id="Layer_1" xmlns="http://www.w3.org/2000/svg" xmlns:xlink="http://www.w3.org/1999/xlink" x="0px" y="0px"
	 width="100%" viewBox="0 0 100 100" enable-background="new 0 0 100 100" xml:space="preserve">
<path fill="#010101" opacity="1.000000" stroke="none" 
	d="
M73.000000,101.000000 
	C48.666668,101.000000 24.833334,101.000000 1.000000,101.000000 
	C1.000000,67.666664 1.000000,34.333332 1.000000,1.000000 
	C34.333332,1.000000 67.666664,1.000000 101.000000,1.000000 
	C101.000000,34.333332 101.000000,67.666664 101.000000,101.000000 
	C91.833336,101.000000 82.666664,101.000000 73.000000,101.000000 
M22.463257,41.501003 
	C22.463257,54.076439 22.463257,66.651878 22.463257,79.265076 
	C26.426809,79.265076 29.680614,79.265076 33.369095,79.265076 
	C33.369095,72.438011 33.369095,65.865982 33.369095,58.970604 
	C38.449890,58.970604 43.097744,59.138504 47.729263,58.934921 
	C56.790371,58.536625 64.387489,51.333309 65.113174,42.693726 
	C65.902145,33.300716 60.097206,24.230244 51.053780,23.245720 
	C41.753872,22.233271 32.257988,23.021021 22.463289,23.021021 
	C22.463289,28.909559 22.463289,34.705807 22.463257,41.501003 
M71.556778,66.215080 
	C69.793892,66.215080 68.031013,66.215080 66.147026,66.215080 
	C66.147026,70.898277 66.147026,74.984344 66.147026,79.139282 
	C70.678169,79.139282 75.023605,79.139282 79.229401,79.139282 
	C79.229401,74.648674 79.229401,70.578705 79.229401,66.214783 
	C76.753105,66.214783 74.617592,66.214783 71.556778,66.215080 
z"/>
<path fill="#F6F6F6" opacity="1.000000" stroke="none" 
	d="
M22.463272,41.001526 
	C22.463289,34.705807 22.463289,28.909559 22.463289,23.021021 
	C32.257988,23.021021 41.753872,22.233271 51.053780,23.245720 
	C60.097206,24.230244 65.902145,33.300716 65.113174,42.693726 
	C64.387489,51.333309 56.790371,58.536625 47.729263,58.934921 
	C43.097744,59.138504 38.449890,58.970604 33.369095,58.970604 
	C33.369095,65.865982 33.369095,72.438011 33.369095,79.265076 
	C29.680614,79.265076 26.426809,79.265076 22.463257,79.265076 
	C22.463257,66.651878 22.463257,54.076439 22.463272,41.001526 
M51.877106,33.764935 
	C51.296257,33.147846 50.728634,32.010052 50.132500,31.994909 
	C44.689350,31.856640 39.241238,31.913668 33.648861,31.913668 
	C33.648861,38.074657 33.648861,43.787525 33.648861,49.492886 
	C39.859138,49.492886 45.739147,49.492886 51.881443,49.492886 
	C51.881443,44.330563 51.881443,39.525967 51.877106,33.764935 
z"/>
<path fill="#EDEDED" opacity="1.000000" stroke="none" 
	d="
M72.019432,66.214935 
	C74.617592,66.214783 76.753105,66.214783 79.229401,66.214783 
	C79.229401,70.578705 79.229401,74.648674 79.229401,79.139282 
	C75.023605,79.139282 70.678169,79.139282 66.147026,79.139282 
	C66.147026,74.984344 66.147026,70.898277 66.147026,66.215080 
	C68.031013,66.215080 69.793892,66.215080 72.019432,66.214935 
z"/>
<path fill="#0B0B0B" opacity="1.000000" stroke="none" 
	d="
M51.879272,34.243153 
	C51.881443,39.525967 51.881443,44.330563 51.881443,49.492886 
	C45.739147,49.492886 39.859138,49.492886 33.648861,49.492886 
	C33.648861,43.787525 33.648861,38.074657 33.648861,31.913668 
	C39.241238,31.913668 44.689350,31.856640 50.132500,31.994909 
	C50.728634,32.010052 51.296257,33.147846 51.879272,34.243153 
z"/>
</svg>