<svg width="62" height="62" viewBox="0 0 62 62" fill="none" xmlns="http://www.w3.org/2000/svg"><path d="M52.2459 23.6667C52.2459 15.567 45.7119 9 37.6526 9H26.2749C25.3124 9 24.0163 9.60683 23.3966 10.3475L13.4049 22.3192C12.7853 23.0598 13.0658 23.6667 14.0283 23.6667H28.1358C35.8926 23.6667 42.2341 29.7533 42.6979 37.4313C45.5046 36.3863 47.924 34.5071 49.6312 32.0465C51.3384 29.5858 52.2497 26.6615 52.2459 23.6667ZM22.1994 38.3333C21.2351 38.3333 19.9408 38.9383 19.3211 39.6808L9.32943 51.6525C8.70977 52.3932 8.99027 53 9.95277 53H28.1358C36.1951 53 42.7291 46.433 42.7291 38.3333C42.7279 38.0324 42.7175 37.7316 42.6979 37.4313C41.0836 38.029 39.3758 38.3345 37.6544 38.3333H22.1994Z" fill="#1AD379"/></svg>