<svg width="62" height="62" viewBox="0 0 62 62" fill="none" xmlns="http://www.w3.org/2000/svg">
  <rect width="62" height="62" rx="12" fill="#F8FAFC"/>
  <g transform="translate(19 19) scale(1.9)">
    <rect x="4.01489" y="4.96204" width="16.7294" height="15.217" fill="white"/>
    <path d="M15.5294 9.5186L12.7843 10.294C12.2353 10.4491 11.6863 10.4491 11.1372 10.294L8.39213 9.44106C8.3137 9.44106 8.15684 9.5186 8.15684 9.59615V13.0856C8.15684 13.1632 8.23527 13.2407 8.3137 13.3183L11.6863 14.3264C11.8431 14.4039 12.0784 14.4039 12.2353 14.3264L15.6078 13.3183C15.6863 13.3183 15.7647 13.2407 15.7647 13.0856V9.67369C15.7647 9.59615 15.6862 9.5186 15.5294 9.5186Z" fill="#2465F5"/>
    <path d="M21.1765 2.46204L13.8824 0.290792C12.6275 -0.0969305 11.2941 -0.0969305 9.96078 0.290792L2.7451 2.46204C1.09804 3.00485 0 4.47819 0 6.18417V17.8158C0 19.5218 1.09804 20.9952 2.7451 21.538L10.0392 23.7092C11.2941 24.0969 12.6275 24.0969 13.9608 23.7092L21.2549 21.538C22.902 20.9952 24 19.5218 24 17.8158V6.18417C23.9216 4.47819 22.7451 3.00485 21.1765 2.46204ZM18.1176 14.2488C18.1176 14.7141 17.8039 15.1018 17.4118 15.2569L12.549 16.7302C12.1569 16.8853 11.6863 16.8853 11.2941 16.7302L8.15686 15.7997C8.15686 15.7997 8.07843 15.7997 8.07843 15.8772V18.2036C8.07843 18.4362 7.84314 18.5913 7.60784 18.5137L5.96078 18.0485C5.80392 17.9709 5.72549 17.8158 5.72549 17.6607V8.20032C5.72549 7.34733 6.58824 6.72698 7.45098 6.95961L11.6863 8.20032C11.8431 8.27787 12 8.20032 12.0784 8.20032L16.3137 6.95961C17.1765 6.64943 18.1176 7.34733 18.1176 8.27787V14.2488Z" fill="#2465F5"/>
  </g>
</svg>
