<svg width="62" height="62" viewBox="0 0 62 62" fill="none" xmlns="http://www.w3.org/2000/svg"><rect width="62" height="62" rx="31" fill="white"/><g clip-path="url(#clip0_2210_47)"><path d="M17.4195 14.9593C17.4195 16.122 16.4681 17.0475 15.3027 17.0475H11.8778V12.8475H15.3027C16.4681 12.8475 17.4195 13.7966 17.4195 14.9593ZM20.4162 14.9593C20.4162 12.2305 18.1805 10 15.4216 10H9V24.0949H11.9016V19.9186H15.4216C18.1805 19.9186 20.4162 17.7119 20.4162 14.9593ZM28.0032 41.1085H38.4681V38.2373H30.8811V35.9119C32.0227 35.722 33.1643 35.4373 34.2346 35.0339L35.6378 34.5356L34.6389 31.7356L33.2357 32.2339C32.4746 32.5424 31.6897 32.7559 30.8811 32.8983V29.861H38.4443V26.9898H28.0032V33.0881C26.2432 32.922 25.0065 32.2339 24.1741 31.4983C22.6995 30.2169 21.1773 27.6542 22.2476 22.6712L22.5568 21.2237L19.6314 20.6068L19.3222 22.0542C18.2281 27.1085 19.227 31.1424 22.2 33.7288C23.413 34.7966 24.8638 35.5085 26.4811 35.8407C26.9805 35.9356 27.48 36.0068 28.0032 36.0542V41.1085ZM50.1459 44.6678C50.1459 45.2847 50.0508 45.878 49.8605 46.4475C49.6703 46.9932 49.4086 47.4678 49.0519 47.8712C48.6951 48.2746 48.267 48.5831 47.7914 48.7966C47.2919 49.0102 46.7449 49.1288 46.1503 49.1288C45.5319 49.1288 44.9849 49.0102 44.4854 48.7966C44.0097 48.5831 43.5816 48.2508 43.2249 47.8712C42.8681 47.4678 42.6065 46.9932 42.4162 46.4475C42.2259 45.878 42.1308 45.261 42.1308 44.6678C42.1308 44.0271 42.2259 43.4339 42.4162 42.8881C42.6065 42.3424 42.8681 41.8678 43.2249 41.4644C43.5816 41.061 44.0097 40.7525 44.4854 40.5153C44.9849 40.3017 45.5319 40.183 46.1503 40.183C46.7686 40.183 47.3157 40.3017 47.7914 40.5153C48.267 40.7288 48.6951 41.061 49.0519 41.4644C49.4086 41.8678 49.6703 42.3424 49.8605 42.8881C50.0508 43.4339 50.1459 44.0271 50.1459 44.6678ZM53 44.6678C53 43.6237 52.8335 42.6508 52.5243 41.7492C52.2151 40.8475 51.7395 40.0644 51.1449 39.4237C50.5503 38.7593 49.813 38.2373 48.9805 37.8814C48.1481 37.5017 47.1968 37.3356 46.1503 37.3356C45.1038 37.3356 44.1524 37.5254 43.32 37.8814C42.4876 38.2373 41.7503 38.7593 41.1557 39.4237C40.5611 40.0881 40.1092 40.8712 39.7762 41.7492C39.467 42.6508 39.3005 43.6237 39.3005 44.6678C39.3005 45.7119 39.467 46.6847 39.7762 47.5864C40.0854 48.4881 40.5611 49.2712 41.1557 49.9119C41.7503 50.5763 42.4876 51.0983 43.32 51.4305C44.1762 51.7864 45.1038 51.9763 46.1503 51.9763C47.1968 51.9763 48.1481 51.7864 48.9805 51.4305C49.7892 51.0746 50.5265 50.5525 51.1449 49.9119C51.7395 49.2712 52.1914 48.4881 52.5243 47.5864C52.8573 46.6847 53 45.7119 53 44.6678Z" fill="black"/></g><g clip-path="url(#clip1_2210_47)"><path d="M17.4195 14.9593C17.4195 16.122 16.4681 17.0475 15.3027 17.0475H11.8778V12.8475H15.3027C16.4681 12.8475 17.4195 13.7966 17.4195 14.9593ZM20.4162 14.9593C20.4162 12.2305 18.1805 10 15.4216 10H9V24.0949H11.9016V19.9186H15.4216C18.1805 19.9186 20.4162 17.7119 20.4162 14.9593ZM28.0032 41.1085H38.4681V38.2373H30.8811V35.9119C32.0227 35.722 33.1643 35.4373 34.2346 35.0339L35.6378 34.5356L34.6389 31.7356L33.2357 32.2339C32.4746 32.5424 31.6897 32.7559 30.8811 32.8983V29.861H38.4443V26.9898H28.0032V33.0881C26.2432 32.922 25.0065 32.2339 24.1741 31.4983C22.6995 30.2169 21.1773 27.6542 22.2476 22.6712L22.5568 21.2237L19.6314 20.6068L19.3222 22.0542C18.2281 27.1085 19.227 31.1424 22.2 33.7288C23.413 34.7966 24.8638 35.5085 26.4811 35.8407C26.9805 35.9356 27.48 36.0068 28.0032 36.0542V41.1085ZM50.1459 44.6678C50.1459 45.2847 50.0508 45.878 49.8605 46.4475C49.6703 46.9932 49.4086 47.4678 49.0519 47.8712C48.6951 48.2746 48.267 48.5831 47.7914 48.7966C47.2919 49.0102 46.7449 49.1288 46.1503 49.1288C45.5319 49.1288 44.9849 49.0102 44.4854 48.7966C44.0097 48.5831 43.5816 48.2508 43.2249 47.8712C42.8681 47.4678 42.6065 46.9932 42.4162 46.4475C42.2259 45.878 42.1308 45.261 42.1308 44.6678C42.1308 44.0271 42.2259 43.4339 42.4162 42.8881C42.6065 42.3424 42.8681 41.8678 43.2249 41.4644C43.5816 41.061 44.0097 40.7525 44.4854 40.5153C44.9849 40.3017 45.5319 40.183 46.1503 40.183C46.7686 40.183 47.3157 40.3017 47.7914 40.5153C48.267 40.7288 48.6951 41.061 49.0519 41.4644C49.4086 41.8678 49.6703 42.3424 49.8605 42.8881C50.0508 43.4339 50.1459 44.0271 50.1459 44.6678ZM53 44.6678C53 43.6237 52.8335 42.6508 52.5243 41.7492C52.2151 40.8475 51.7395 40.0644 51.1449 39.4237C50.5503 38.7593 49.813 38.2373 48.9805 37.8814C48.1481 37.5017 47.1968 37.3356 46.1503 37.3356C45.1038 37.3356 44.1524 37.5254 43.32 37.8814C42.4876 38.2373 41.7503 38.7593 41.1557 39.4237C40.5611 40.0881 40.1092 40.8712 39.7762 41.7492C39.467 42.6508 39.3005 43.6237 39.3005 44.6678C39.3005 45.7119 39.467 46.6847 39.7762 47.5864C40.0854 48.4881 40.5611 49.2712 41.1557 49.9119C41.7503 50.5763 42.4876 51.0983 43.32 51.4305C44.1762 51.7864 45.1038 51.9763 46.1503 51.9763C47.1968 51.9763 48.1481 51.7864 48.9805 51.4305C49.7892 51.0746 50.5265 50.5525 51.1449 49.9119C51.7395 49.2712 52.1914 48.4881 52.5243 47.5864C52.8573 46.6847 53 45.7119 53 44.6678Z" fill="black"/></g><defs><clipPath id="clip0_2210_47"><rect width="44" height="42" fill="white" transform="translate(9 10)"/></clipPath><clipPath id="clip1_2210_47"><rect width="44" height="42" fill="white" transform="translate(9 10)"/></clipPath></defs></svg>