<svg xmlns="http://www.w3.org/2000/svg" width="62" height="62" fill="none"><rect width="62" height="62" rx="31" fill="#fff"/><path d="M9 38.252a.92.92 0 0 1 1.565-.648l4.203 4.203a.92.92 0 0 1-.648 1.565H9.917c-.506 0-.917-.411-.917-.917v-4.203zm0-4.427c0 .243.097.476.269.648l8.63 8.63c.172.172.405.269.648.269h4.74a.92.92 0 0 0 .648-1.565L10.565 28.437A.92.92 0 0 0 9 29.085v4.74zm0-9.167c0 .243.097.476.269.648l17.796 17.796c.172.172.405.269.648.269h4.74a.92.92 0 0 0 .648-1.565L10.565 19.27A.92.92 0 0 0 9 19.919v4.74zm9.167 0c0 .243.097.476.268.648l16.5 16.499a.92.92 0 0 0 1.565-.648v-4.74c0-.243-.097-.476-.269-.648L19.732 19.27a.92.92 0 0 0-1.565.648v4.74zm10.732-5.388a.92.92 0 0 0-1.565.648v4.74c0 .243.097.476.269.648l7.333 7.333a.92.92 0 0 0 1.565-.648v-4.74c0-.243-.097-.477-.269-.648l-7.333-7.333z" fill="#f9bd2b"/><path d="M47.993 38.364l-8.631-8.631a.92.92 0 0 0-1.565.648v12.073c0 .506.41.917.917.917h13.37c.506 0 .917-.41.917-.917v-1.099c0-.506-.412-.911-.915-.976-1.541-.201-2.983-.905-4.093-2.015zm-5.796 2.074a1.47 1.47 0 0 1-1.467-1.467 1.47 1.47 0 0 1 1.467-1.467 1.47 1.47 0 0 1 1.467 1.467 1.47 1.47 0 0 1-1.467 1.467z" fill="#000"/><path d="M10.488 37.534l.078.07 4.203 4.203a.92.92 0 0 1-.544 1.56l-.104.005H9.917c-.47 0-.858-.354-.911-.81L9 42.455v-4.203a.92.92 0 0 1 1.488-.718zm0-9.166l.078.07 7.601 7.601v7.333l-8.898-8.898c-.143-.143-.234-.329-.261-.528L9 33.825v-4.74a.92.92 0 0 1 1.488-.718zM9 19.919a.92.92 0 0 1 1.488-.718l.078.07 7.601 7.601v7.333l-8.898-8.898c-.143-.143-.234-.329-.261-.528L9 24.659v-4.74z" fill="#1d4aff"/><path d="M18.167 26.872l8.898 8.898c.143.143.234.329.261.528l.008.12v6.953l-8.898-8.898c-.143-.143-.234-.329-.261-.528l-.008-.12v-6.954zm0 9.167l5.768 5.768a.92.92 0 0 1-.544 1.56l-.104.005h-5.12v-7.333zm1.488-16.838l.078.07 7.333 7.333c.143.143.234.329.261.528l.008.121v6.954l-8.898-8.898c-.143-.143-.234-.329-.261-.528l-.008-.12v-4.74a.92.92 0 0 1 1.488-.718z" fill="#f54e00"/></svg>