<svg width="62" height="62" viewBox="0 0 62 62" fill="none" xmlns="http://www.w3.org/2000/svg"><path d="M27.329 14.2256C28.2172 14.0621 29.1272 14.2039 30.0184 14.065C30.7852 13.9507 31.5592 14.0027 32.3246 14.1011C36.8906 14.1908 41.5549 15.0922 45.5523 17.3881C47.1003 18.3372 48.5949 19.4439 49.706 20.8979C52.0859 23.751 53.0841 27.5487 52.9945 31.2162C52.9323 34.7448 51.8328 38.3487 49.4919 41.0442C49.0723 41.5795 48.6195 42.0945 48.0726 42.5025C45.807 44.5077 42.9713 45.7751 40.0589 46.5114C38.1362 47.0033 36.1614 47.2754 34.1866 47.4272C33.2144 47.3693 32.2581 47.5994 31.2858 47.5719C23.8611 47.5603 16.4363 47.5835 9.01154 47.5603C8.9913 41.8717 9.01447 36.183 9 30.4943C9.04781 26.7067 10.4771 22.8901 13.1624 20.1804C14.6236 18.6338 16.4249 17.4331 18.3505 16.5389C21.16 15.2007 24.243 14.5222 27.329 14.2256ZM24.6843 19.2602C23.5182 19.6147 22.9091 20.7793 22.4823 21.8297C21.5014 24.6017 21.4971 27.7066 22.4808 30.477C22.8975 31.4565 23.4038 32.5589 24.4585 32.9813C25.1139 33.2866 25.8749 32.9886 26.3537 32.501C27.5748 31.348 27.9669 29.6205 28.22 28.0248C28.2345 27.2146 28.4761 26.413 28.3488 25.6028C28.2345 24.8838 28.2461 24.1488 28.0739 23.437C27.7874 22.1596 27.3953 20.814 26.4159 19.8851C25.9733 19.4469 25.3252 19.052 24.6843 19.2602ZM36.406 19.2618C35.2977 19.6886 34.5989 20.7766 34.2213 21.8559C33.6875 23.226 33.5731 24.7017 33.469 26.1527C33.5688 27.9308 33.7772 29.7624 34.6193 31.3625C35.0474 32.1104 35.6435 32.87 36.5218 33.0842C37.3899 33.2187 38.1898 32.611 38.6312 31.9094C39.7756 30.1762 40.0634 28.0379 40.1156 26.0066C40.0113 24.0752 39.7322 22.044 38.6283 20.4019C38.1594 19.6914 37.2985 19.0332 36.406 19.2618Z" fill="#5725E9"/></svg>