<svg width="62" height="62" viewBox="0 0 62 62" fill="none" xmlns="http://www.w3.org/2000/svg"><rect width="62" height="62" rx="31" fill="white"/><path d="M30.9857 41.6639L41.8703 47.743V36.085L30.9857 30.0059V41.6639Z" fill="#00AAFF"/><path d="M9.00073 41.6639L19.8858 47.743V36.085L9.00073 30.0059V41.6639Z" fill="#00AAFF"/><path d="M19.8856 36.0871V47.7435L30.986 41.6665V30.0078L19.8856 36.0871Z" fill="#002266"/><path d="M41.871 36.0871V47.7435L52.9692 41.6665V30.0078L41.871 36.0871Z" fill="#002266"/><path d="M30.9405 17.6927L37.5275 14H24.3976L30.9405 17.6927Z" fill="#002266"/><path d="M9.00054 30.0069L19.9327 23.8684L9 17.7793L9.00054 30.0069Z" fill="#00AAFF"/><path d="M52.9995 30.0069L42.0674 23.8684L53 17.7793L52.9995 30.0069Z" fill="#002266"/></svg>