<svg version="1.1" id="Layer_1" xmlns="http://www.w3.org/2000/svg" xmlns:xlink="http://www.w3.org/1999/xlink" x="0px" y="0px"
	 width="100%" viewBox="0 0 156 153" enable-background="new 0 0 156 153" xml:space="preserve">
<path fill="#7CA936" opacity="1.000000" stroke="none"
	d="
M0.999999,84.000000
	C1.000000,77.645599 1.000000,71.291206 1.357306,64.297546
	C3.166491,52.420029 7.891068,42.523960 15.936655,34.812172
	C28.160746,23.095247 43.403030,18.567568 60.136097,19.423677
	C78.957420,20.386627 95.582352,27.264292 110.061478,39.451393
	C108.378349,41.519741 106.803856,43.278488 105.004578,44.764244
	C91.723579,34.346428 77.186668,29.013851 60.399841,29.877472
	C37.070282,31.077696 19.901833,51.721603 23.141663,74.885422
	C27.987474,109.531532 64.310448,135.139694 95.783005,130.123962
	C114.180679,127.191948 128.708801,111.461647 129.056702,92.849899
	C129.375229,75.809235 122.182426,62.068348 111.076202,49.700378
	C113.363998,48.242058 115.482208,47.082417 117.844696,46.177135
	C120.481880,49.199764 123.032654,51.848133 125.241493,54.756229
	C137.420013,70.790154 143.477280,88.941040 140.798584,108.925377
	C137.957321,130.122406 125.025421,143.849426 105.023277,150.879395
	C100.834068,152.351746 96.348824,152.981812 92.000000,154.000000
	C87.310745,154.000000 82.621490,154.000000 77.276611,153.631409
	C72.462524,152.533768 68.224976,152.102036 64.160164,151.020874
	C51.041542,147.531494 39.619953,141.047287 29.341141,132.056503
	C19.821976,123.730171 12.292784,114.123497 7.339710,102.605141
	C4.759270,96.604340 3.084082,90.214249 0.999999,84.000000
z"/>
<path fill="#FFFFFF" opacity="1.000000" stroke="none"
	d="
M110.170113,39.141800
	C95.582352,27.264292 78.957420,20.386627 60.136097,19.423677
	C43.403030,18.567568 28.160746,23.095247 15.936655,34.812172
	C7.891068,42.523960 3.166491,52.420029 1.357306,63.829147
	C1.000000,43.044903 1.000000,22.089809 1.000000,1.000000
	C48.020813,1.000000 95.041748,1.000000 142.416565,1.321842
	C141.928192,2.846205 141.192902,4.143201 140.227188,5.236689
	C130.229492,16.557232 120.194633,27.844950 110.170113,39.141800
z"/>
<path fill="#FFFFFF" opacity="1.000000" stroke="none"
	d="
M92.468658,154.000000
	C96.348824,152.981812 100.834068,152.351746 105.023277,150.879395
	C125.025421,143.849426 137.957321,130.122406 140.798584,108.925377
	C143.477280,88.941040 137.420013,70.790154 125.241493,54.756229
	C123.032654,51.848133 120.481880,49.199764 117.938873,45.837048
	C123.709702,40.490788 129.555603,35.641502 135.571075,31.012556
	C142.637177,25.575142 149.850525,20.329063 157.000000,15.000003
	C157.000000,61.233768 157.000000,107.467537 157.000000,154.000000
	C135.646698,154.000000 114.292007,154.000000 92.468658,154.000000
z"/>
<path fill="#FFFFFF" opacity="1.000000" stroke="none"
	d="
M0.999999,84.468658
	C3.084082,90.214249 4.759270,96.604340 7.339710,102.605141
	C12.292784,114.123497 19.821976,123.730171 29.341141,132.056503
	C39.619953,141.047287 51.041542,147.531494 64.160164,151.020874
	C68.224976,152.102036 72.462524,152.533768 76.810486,153.631409
	C51.742802,154.000000 26.485605,154.000000 1.000000,154.000000
	C1.000000,130.979614 1.000000,107.958466 0.999999,84.468658
z"/>
<path fill="#9E9F9E" opacity="1.000000" stroke="none"
	d="
M110.061478,39.451393
	C120.194633,27.844950 130.229492,16.557232 140.227188,5.236689
	C141.192902,4.143201 141.928192,2.846205 142.885223,1.321842
	C143.444443,1.000000 143.888901,1.000000 144.644470,1.368292
	C142.329834,7.784713 139.704056,13.832842 136.894043,20.170265
	C133.454224,23.494432 130.223145,26.556112 126.938011,29.558664
	C119.894844,35.995998 112.657722,42.233589 105.852028,48.911690
	C103.390663,51.326900 101.935394,54.767437 99.889053,57.904732
	C99.283432,58.386513 98.809807,58.703674 98.027863,59.126564
	C97.146255,59.836933 96.572975,60.441570 96.004471,61.018219
	C96.009247,60.990234 96.053970,61.025230 95.606079,60.863167
	C94.203850,60.590767 93.249512,60.480431 92.541290,60.098652
	C92.942047,59.638130 93.096695,59.449051 93.498032,58.980240
	C95.524529,56.321587 97.304314,53.942665 99.427071,51.462254
	C101.589821,49.252922 103.409592,47.145081 105.229370,45.037239
	C106.803856,43.278488 108.378349,41.519741 110.061478,39.451393
z"/>
<path fill="#B2B3B2" opacity="1.000000" stroke="none"
	d="
M100.021034,57.740105
	C101.935394,54.767437 103.390663,51.326900 105.852028,48.911690
	C112.657722,42.233589 119.894844,35.995998 126.938011,29.558664
	C130.223145,26.556112 133.454224,23.494432 137.275635,20.196922
	C139.718567,19.362394 141.598282,18.798967 143.472244,18.216927
	C147.982941,16.815922 152.490921,15.406202 157.000000,13.999999
	C157.000000,14.000000 157.000000,14.500000 157.000000,14.750003
	C149.850525,20.329063 142.637177,25.575142 135.571075,31.012556
	C129.555603,35.641502 123.709702,40.490788 117.694611,45.582687
	C115.482208,47.082417 113.363998,48.242058 110.756905,49.796654
	C108.119644,52.089745 105.971260,53.987877 103.479248,55.957306
	C102.097427,56.599102 101.059227,57.169601 100.021034,57.740105
z"/>
<path fill="#FFFFFF" opacity="1.000000" stroke="none"
	d="
M157.000000,13.523337
	C152.490921,15.406202 147.982941,16.815922 143.472244,18.216927
	C141.598282,18.798967 139.718567,19.362394 137.459869,19.907627
	C139.704056,13.832842 142.329834,7.784713 144.977814,1.368292
	C148.925995,1.000000 152.851974,1.000000 157.000000,1.000000
	C157.000000,5.013897 157.000000,9.030287 157.000000,13.523337
z"/>
<path fill="#FDFDFC" opacity="1.000000" stroke="none"
	d="
M103.822868,55.886009
	C105.971260,53.987877 108.119644,52.089745 110.587326,50.095337
	C122.182426,62.068348 129.375229,75.809235 129.056702,92.849899
	C128.708801,111.461647 114.180679,127.191948 95.783005,130.123962
	C64.310448,135.139694 27.987474,109.531532 23.141663,74.885422
	C19.901833,51.721603 37.070282,31.077696 60.399841,29.877472
	C77.186668,29.013851 91.723579,34.346428 105.004578,44.764244
	C103.409592,47.145081 101.589821,49.252922 99.146622,51.200916
	C92.005768,45.871693 84.613968,42.583450 76.417000,41.373695
	C57.612068,38.598358 38.780869,51.648899 44.861019,75.641823
	C50.046200,96.103119 70.569893,110.424797 91.756416,108.980972
	C106.842529,107.952888 117.696564,94.046127 115.414795,79.104347
	C114.029640,70.033882 109.917297,62.511234 103.822868,55.886009
z"/>
<path fill="#7CA937" opacity="1.000000" stroke="none"
	d="
M103.479248,55.957306
	C109.917297,62.511234 114.029640,70.033882 115.414795,79.104347
	C117.696564,94.046127 106.842529,107.952888 91.756416,108.980972
	C70.569893,110.424797 50.046200,96.103119 44.861019,75.641823
	C38.780869,51.648899 57.612068,38.598358 76.417000,41.373695
	C84.613968,42.583450 92.005768,45.871693 98.803650,51.302406
	C97.304314,53.942665 95.524529,56.321587 93.282593,58.774925
	C89.462105,57.101879 86.275810,54.746960 82.708679,53.736607
	C75.819038,51.785179 69.044533,52.273335 64.089981,58.384594
	C59.428921,64.133858 59.971184,70.584480 63.110630,76.659744
	C68.245041,86.595566 76.444618,92.176292 87.923531,91.984161
	C97.535172,91.823288 104.274651,83.944733 102.119377,74.594490
	C101.086586,70.113876 98.097954,66.084099 96.020035,61.644638
	C96.044960,61.439140 96.053970,61.025230 96.053970,61.025230
	C96.053970,61.025230 96.009247,60.990234 96.250534,60.832092
	C97.106606,60.122910 97.721390,59.571869 98.336174,59.020832
	C98.809807,58.703674 99.283432,58.386513 99.889053,57.904728
	C101.059227,57.169601 102.097427,56.599102 103.479248,55.957306
z"/>
<path fill="#FCFDFB" opacity="1.000000" stroke="none"
	d="
M95.995110,61.850136
	C98.097954,66.084099 101.086586,70.113876 102.119377,74.594490
	C104.274651,83.944733 97.535172,91.823288 87.923531,91.984161
	C76.444618,92.176292 68.245041,86.595566 63.110630,76.659744
	C59.971184,70.584480 59.428921,64.133858 64.089981,58.384594
	C69.044533,52.273335 75.819038,51.785179 82.708679,53.736607
	C86.275810,54.746960 89.462105,57.101879 93.035896,59.054653
	C93.096695,59.449051 92.942047,59.638130 92.373428,60.202263
	C90.032066,62.658718 88.104691,64.740128 85.899811,66.579727
	C83.013657,66.289612 80.330841,65.882751 77.838768,66.398186
	C77.026810,66.566124 75.831360,69.670578 76.338326,70.512878
	C77.772209,72.895157 79.688148,75.334534 82.028816,76.690193
	C83.377769,77.471481 87.320335,76.684021 87.643036,75.752808
	C88.438599,73.457054 87.818283,70.670639 87.934280,67.774475
	C90.732605,65.595016 93.363853,63.722576 95.995110,61.850136
z"/>
<path fill="#BBBCBA" opacity="1.000000" stroke="none"
	d="
M96.020035,61.644638
	C93.363853,63.722576 90.732605,65.595016 87.666000,67.729263
	C86.879547,67.601212 86.528427,67.211372 86.177307,66.821533
	C88.104691,64.740128 90.032066,62.658718 92.127312,60.473701
	C93.249512,60.480431 94.203850,60.590767 95.606079,60.863167
	C96.053970,61.025230 96.044960,61.439140 96.020035,61.644638
z"/>
<path fill="#B2B3B2" opacity="1.000000" stroke="none"
	d="
M98.027863,59.126564
	C97.721390,59.571869 97.106606,60.122910 96.245758,60.860077
	C96.572975,60.441570 97.146255,59.836933 98.027863,59.126564
z"/>
<path fill="#7FAA3C" opacity="1.000000" stroke="none"
	d="
M85.899811,66.579727
	C86.528427,67.211372 86.879547,67.601212 87.498932,68.036278
	C87.818283,70.670639 88.438599,73.457054 87.643036,75.752808
	C87.320335,76.684021 83.377769,77.471481 82.028816,76.690193
	C79.688148,75.334534 77.772209,72.895157 76.338326,70.512878
	C75.831360,69.670578 77.026810,66.566124 77.838768,66.398186
	C80.330841,65.882751 83.013657,66.289612 85.899811,66.579727
z"/>
</svg>