<svg xmlns="http://www.w3.org/2000/svg" viewBox="0 0 62 60.808" xml:space="preserve" width="62" height="60.808">
	<path fill="#7CA936" d="M.397 33.385c0-2.525 0-5.051.142-7.83.719-4.721 2.597-8.654 5.795-11.719C11.192 9.179 17.25 7.38 23.901 7.72c7.48.383 14.087 3.116 19.842 7.959-.669.822-1.294 1.521-2.009 2.112-5.28-4.141-11.057-6.26-17.729-5.917-9.272.477-16.095 8.682-14.808 17.888 1.926 13.77 16.362 23.947 28.87 21.954 7.312-1.165 13.086-7.417 13.224-14.814.126-6.772-2.732-12.234-7.146-17.149.909-.579 1.751-1.04 2.69-1.4 1.048 1.201 2.062 2.254 2.939 3.41 4.842 6.371 7.249 13.585 6.185 21.527-1.13 8.424-6.269 13.88-14.219 16.674-1.665.585-3.447.836-5.176 1.24-1.864 0-3.728 0-5.851-.147-1.913-.436-3.598-.608-5.213-1.037-5.214-1.387-9.753-3.964-13.838-7.537-3.783-3.309-6.775-7.128-8.744-11.705-1.026-2.384-1.692-4.923-2.521-7.393"/>
	<path fill="#FFF" d="M43.786 15.556C37.988 10.836 31.38 8.103 23.9 7.72c-6.65-.34-12.708 1.459-17.567 6.116C3.137 16.901 1.259 20.834.54 25.368.397 17.108.397 8.779.397.397c18.687 0 37.376 0 56.204.128a4.3 4.3 0 0 1-.87 1.556c-3.974 4.499-7.961 8.985-11.946 13.475M36.75 61.205c1.542-.405 3.325-.655 4.989-1.24 7.95-2.794 13.089-8.25 14.219-16.674 1.064-7.942-1.343-15.156-6.183-21.529-.878-1.156-1.892-2.208-2.902-3.545a99 99 0 0 1 7.008-5.892c2.808-2.161 5.675-4.246 8.516-6.363v55.244zM.397 33.571c.828 2.283 1.494 4.823 2.52 7.208 1.968 4.578 4.961 8.396 8.744 11.705 4.085 3.573 8.624 6.15 13.839 7.537 1.615.43 3.3.601 5.028 1.037-9.964.147-20.002.147-30.131.147z"/>
	<path fill="#9E9F9E" d="M43.742 15.679c4.028-4.613 8.015-9.099 11.989-13.598.384-.435.676-.95 1.056-1.556.223-.128.399-.128.699.018-.92 2.55-1.963 4.954-3.081 7.473a194 194 0 0 1-3.957 3.732c-2.799 2.558-5.675 5.037-8.38 7.692-.978.96-1.557 2.327-2.37 3.574a4.5 4.5 0 0 1-.74.486c-.351.282-.578.523-.804.752.002-.011.02.003-.158-.062-.557-.108-.936-.152-1.218-.304.159-.183.221-.258.38-.445.806-1.056 1.513-2.002 2.357-2.988.859-.878 1.583-1.716 2.306-2.554.626-.699 1.252-1.398 1.92-2.22"/>
	<path fill="#B2B3B2" d="M39.752 22.948c.761-1.182 1.339-2.549 2.317-3.509 2.705-2.654 5.581-5.133 8.38-7.692 1.306-1.194 2.59-2.41 4.109-3.721.971-.332 1.718-.556 2.463-.787q2.688-.836 5.377-1.676v.298c-2.842 2.218-5.708 4.302-8.517 6.464-2.391 1.84-4.714 3.767-7.105 5.791-.88.596-1.721 1.057-2.757 1.675-1.048.911-1.902 1.665-2.893 2.448a21 21 0 0 0-1.374.709"/>
	<path fill="#FFF" d="M62.397 5.375c-1.792.748-3.584 1.309-5.377 1.866-.745.231-1.492.455-2.389.672.892-2.414 1.936-4.818 2.988-7.368 1.57-.148 3.13-.148 4.778-.148z"/>
	<path fill="#FDFDFC" d="M41.263 22.211c.854-.754 1.708-1.509 2.688-2.301 4.608 4.758 7.467 10.219 7.341 16.992-.138 7.397-5.912 13.649-13.224 14.814-12.508 1.994-26.945-8.184-28.87-21.954-1.288-9.206 5.535-17.41 14.807-17.888 6.672-.343 12.449 1.777 17.728 5.917-.634.946-1.357 1.784-2.328 2.558-2.838-2.118-5.776-3.425-9.034-3.906-7.474-1.103-14.958 4.084-12.541 13.619 2.061 8.132 10.218 13.824 18.638 13.25 5.996-.409 10.309-5.936 9.403-11.874-.55-3.605-2.185-6.595-4.607-9.228"/>
	<path fill="#7CA937" d="M41.127 22.239c2.558 2.605 4.193 5.595 4.743 9.199.907 5.938-3.407 11.466-9.403 11.874-8.42.574-16.577-5.118-18.638-13.251-2.416-9.535 5.068-14.722 12.541-13.619 3.258.481 6.196 1.788 8.897 3.946-.596 1.049-1.304 1.995-2.194 2.97-1.518-.665-2.785-1.601-4.202-2.002-2.738-.776-5.431-.582-7.4 1.847-1.852 2.285-1.637 4.849-.389 7.263 2.041 3.949 5.3 6.167 9.862 6.09 3.82-.064 6.498-3.195 5.642-6.911-.41-1.781-1.598-3.382-2.424-5.147.01-.081.014-.246.014-.246s-.018-.014.078-.077c.34-.282.584-.501.829-.72.188-.126.376-.252.617-.444a12 12 0 0 1 1.427-.774"/>
	<path fill="#FCFDFB" d="M38.152 24.581c.836 1.683 2.024 3.284 2.434 5.065.857 3.716-1.822 6.848-5.642 6.911-4.563.076-7.821-2.141-9.862-6.09-1.248-2.415-1.463-4.978.389-7.263 1.969-2.429 4.662-2.623 7.4-1.847 1.418.401 2.684 1.337 4.104 2.114.024.157-.037.232-.264.456-.93.976-1.696 1.804-2.573 2.535-1.147-.115-2.214-.277-3.204-.072-.323.067-.798 1.301-.596 1.635.57.947 1.331 1.916 2.261 2.455.536.31 2.103-.002 2.231-.372.316-.913.07-2.02.116-3.171a89 89 0 0 1 3.204-2.354"/>
	<path fill="#BBBCBA" d="M38.162 24.5c-1.056.826-2.101 1.57-3.32 2.418-.312-.051-.452-.206-.592-.36.766-.827 1.532-1.655 2.365-2.523.446.002.825.046 1.383.155.178.064.174.229.164.31"/>
	<path fill="#B2B3B2" d="M38.96 23.499c-.122.177-.366.396-.708.689a4.5 4.5 0 0 1 .708-.689"/>
	<path fill="#7FAA3C" d="M34.14 26.461c.25.251.389.406.635.579.127 1.047.374 2.155.057 3.067-.128.37-1.695.683-2.231.372-.93-.539-1.692-1.508-2.261-2.455-.202-.335.273-1.569.596-1.635.99-.205 2.057-.043 3.203.072"/>
</svg>
