<svg width="62" height="62" viewBox="0 0 62 62" fill="none" xmlns="http://www.w3.org/2000/svg"><rect width="62" height="62" rx="31" fill="white"/><mask id="mask0_1545_50" style="mask-type:luminance" maskUnits="userSpaceOnUse" x="9" y="9" width="44" height="44"><path d="M53 9H9V53H53V9Z" fill="white"/></mask><g mask="url(#mask0_1545_50)"><path d="M30.9999 51.6803C42.4212 51.6803 51.6799 42.4216 51.6799 31.0003C51.6799 19.5791 42.4212 10.3203 30.9999 10.3203C19.5787 10.3203 10.3199 19.5791 10.3199 31.0003C10.3199 42.4216 19.5787 51.6803 30.9999 51.6803Z" fill="#231F20"/><mask id="mask1_1545_50" style="mask-type:luminance" maskUnits="userSpaceOnUse" x="9" y="9" width="44" height="44"><path d="M53 9H9V53H53V9Z" fill="white"/></mask><g mask="url(#mask1_1545_50)"><path d="M32.2478 26.9463C35.199 26.9463 36.3981 27.4183 36.3981 28.7935C35.7094 29.482 32.2478 28.9263 32.2478 26.9463ZM30.9999 50.2786C30.9594 50.2786 30.9188 50.2781 30.8781 50.2777C28.1128 42.5853 33.1304 34.8087 41.1743 34.8087C45.4052 34.8087 46.9372 29.9644 46.6968 27.6446C46.6729 27.464 46.5286 27.3319 46.3601 27.3319L38.4328 27.3202C38.2956 27.3199 38.1656 27.2597 38.0769 27.1552L37.2606 26.1941C36.8609 25.7235 36.2848 25.4392 35.6687 25.4086L34.0814 25.3293C33.8805 25.319 33.7126 25.1788 33.6583 24.9851C32.9882 22.5955 31.6707 20.6911 30.6044 19.7948C30.5336 19.7353 30.4254 19.7645 30.3835 19.847C29.8198 20.9627 29.3871 22.0628 29.1626 23.3605C29.1453 23.4591 29.015 23.4591 28.9638 23.3599C28.0211 21.5287 26.805 19.8033 25.5486 18.5502C25.4863 18.4882 25.3845 18.4953 25.3321 18.5658C24.2486 20.0315 22.9205 22.578 22.6893 27.2533C22.6789 27.4608 22.5372 27.6355 22.3358 27.6867C20.2984 28.2047 17.5526 29.6856 16.6062 30.2162C16.3916 30.3362 16.4318 30.4231 16.6124 30.4435C16.7931 30.4644 19.7811 30.7772 19.9118 30.791C20.0426 30.8048 20.095 30.9107 19.932 30.9714C18.3234 31.5703 15.0313 33.6615 14.0195 34.3149C13.8269 34.4394 13.9496 34.5201 14.0579 34.5277C14.1656 34.5351 17.6482 34.6941 17.807 34.7014C17.9658 34.7088 18.0457 34.8462 17.8426 34.9138C17.7316 34.9508 15.0502 35.9794 12.6425 36.9037C12.0447 35.0432 11.7216 33.0594 11.7216 31.0001C11.7216 20.3528 20.3528 11.7216 30.9999 11.7216C41.6474 11.7216 50.2786 20.3528 50.2786 31.0001C50.2786 41.6477 41.6474 50.2786 30.9999 50.2786ZM30.9999 9C18.8692 9 9 18.8692 9 31.0001C9 43.1308 18.8692 53 30.9999 53C43.1306 53 53 43.1308 53 31.0001C53 18.8692 43.1306 9 30.9999 9Z" fill="white"/></g></g></svg>