<svg width="62" height="62" viewBox="0 0 62 62" fill="none" xmlns="http://www.w3.org/2000/svg"><rect width="62" height="62" rx="31" fill="white"/><path d="M47.6687 10.543C48.7399 10.9547 49.7137 11.59 50.5253 12.4044C51.3368 13.2217 51.9713 14.2001 52.3874 15.28C52.8035 16.3568 52.9923 17.5142 52.9392 18.6686V25.4101H42.9647L38.6208 17.8334H23.3255L15.7679 31.0389L23.1721 44.2445H38.4673L42.8113 36.6677H52.7858V43.4092C52.8241 44.5427 52.6323 45.6733 52.2192 46.7322C51.806 47.7882 51.1834 48.7487 50.3895 49.5511C49.5927 50.3535 48.6455 50.9829 47.5978 51.4006C46.5532 51.8182 45.4347 52.0121 44.3104 51.9733H17.512C16.3876 52.0121 15.2663 51.8182 14.2216 51.4006C13.174 50.9859 12.2208 50.3565 11.424 49.5541C10.6272 48.7487 10.0016 47.7912 9.5855 46.7352C9.1694 45.6763 8.97464 44.5457 9.0071 43.4092V18.6686C8.95988 17.5261 9.14875 16.3837 9.55894 15.3158C9.96914 14.2479 10.5918 13.2754 11.3915 12.4641C12.1883 11.6497 13.1445 11.0143 14.198 10.5908C15.2515 10.1702 16.3788 9.9703 17.512 10.0121H44.3104C45.4554 9.94942 46.6004 10.1314 47.6687 10.543Z" fill="black"/><path d="M26.9077 24.1172H34.8607L38.8387 31.0436L34.8607 37.97H26.9077L22.9297 31.0436L26.9077 24.1172Z" fill="#FF5200"/></svg>