<svg xmlns="http://www.w3.org/2000/svg" width="62" height="62" fill="none" xmlns:v="https://vecta.io/nano"><g fill="#ff1a26"><path d="M47.133 9H14.867A5.87 5.87 0 0 0 9 14.867v32.267A5.87 5.87 0 0 0 14.867 53h32.267A5.87 5.87 0 0 0 53 47.133V14.867A5.87 5.87 0 0 0 47.133 9z"/><path d="M14.606 21.635v14.041l11.86 7.02 11.86-7.02V21.635l-11.86-7.02-11.86 7.02zm22.874.167l-11.013 6.519-11.013-6.519 11.013-6.519 11.013 6.519zm-22.309.502l11.013 6.519v13.038l-11.013-6.519V22.304zm11.578 19.557V28.823l11.013-6.519v13.038l-11.013 6.519z"/></g><path d="M14.606 21.631l-.29-.49-.28.166v.325h.57zm0 14.041h-.57v.325l.28.165.29-.49zm11.86 7.02l-.29.49.29.172.29-.172-.29-.49zm11.86-7.02l.29.49.279-.165v-.325h-.57zm0-14.041h.57v-.325l-.279-.166-.29.49zm-11.86-7.02l.29-.49-.29-.172-.29.172.29.49zm11.013 7.188l.29.49.828-.49-.828-.49-.29.49zm-11.013 6.519l-.29.49.29.172.29-.172-.29-.49zm-11.013-6.519l-.29-.49-.828.49.828.49.29-.49zm11.013-6.519l.29-.49-.29-.172-.29.172.29.49zM15.17 22.3l.29-.49-.86-.509v.999h.57zm11.013 6.519h.57v-.325l-.279-.166-.29.49zm0 13.038l-.29.49.86.509v-.999h-.57zM15.17 35.338h-.57v.325l.279.165.29-.49zm11.578 6.519h-.57v.999l.86-.509-.29-.49zm0-13.038l-.29-.49-.28.166v.325h.57zM37.762 22.3h.57v-.999l-.86.509.29.49zm0 13.038l.29.49.279-.166v-.325h-.57zM14.036 21.631v14.041h1.139V21.631h-1.139zm.28 14.531l11.86 7.02.58-.98-11.86-7.02-.58.98zm12.441 7.02l11.861-7.02-.58-.98-11.86 7.02.58.98zm12.14-7.51V21.631h-1.139v14.041h1.139zm-.279-14.531l-11.861-7.02-.58.98 11.86 7.02.58-.981zm-12.441-7.02l-11.86 7.02.58.981 11.86-7.02-.58-.98zm11.013 7.187l-11.013 6.519.58.98 11.013-6.519-.58-.98zm-10.433 6.519l-11.013-6.519-.58.98 11.013 6.519.58-.98zm-11.013-5.539l11.013-6.519-.58-.98-11.013 6.519.58.98zm10.433-6.519l11.013 6.519.58-.98-11.013-6.519-.58.98zM14.88 22.79l11.013 6.519.58-.981-11.013-6.519-.58.98zm10.734 6.029v13.038h1.139V28.819h-1.139zm.86 12.548l-11.013-6.519-.58.98 11.013 6.519.58-.98zM15.74 35.338V22.3h-1.139v13.037h1.139zm11.578 6.519V28.819h-1.139v13.038h1.139zm-.28-12.548l11.013-6.519-.58-.98-11.013 6.519.58.981zM37.192 22.3v13.038h1.139V22.3h-1.139zm.28 12.548l-11.013 6.519.58.98 11.013-6.519-.58-.98z" fill="#fff"/><g fill="#ff1a26"><path d="M38.412 26.463l-7.642 5.015-.955 10.03 8.597 5.015 8.597-5.015-.955-10.03-7.642-5.015z"/><path d="M30.036 31.499v10.609l8.68 5.304 8.679-5.304V31.499l-8.679-5.304-8.68 5.304zm16.739.127l-8.059 4.926-8.06-4.926 8.06-4.925 8.06 4.925zm-16.326.379l8.06 4.925v9.851l-8.06-4.925v-9.85zm8.473 14.776V36.93l8.06-4.925v9.851l-8.059 4.925z"/></g><path d="M30.036 31.5l-.267-.437-.245.15v.287h.512zm0 10.609h-.512v.287l.245.15.267-.437zm8.68 5.304l-.267.437.267.163.267-.163-.267-.437zm8.679-5.304l.267.437.245-.15v-.287h-.512zm0-10.608h.512v-.287l-.245-.15-.267.437zm-8.679-5.304l.267-.437-.267-.163-.267.163.267.437zm8.059 5.43l.267.437.715-.437-.715-.437-.267.437zm-8.059 4.926l-.267.437.267.163.267-.163-.267-.437zm-8.06-4.925l-.267-.437-.715.437.715.437.267-.437zm8.06-4.925l.267-.437-.267-.163-.267.163.267.437zm-8.266 5.304l.267-.437-.779-.476v.913h.512zm8.059 4.925h.512v-.287l-.245-.15-.267.437zm0 9.851l-.267.437.779.476v-.913h-.512zm-8.059-4.925h-.512v.287l.245.15.267-.437zm8.473 4.926h-.512v.913l.779-.476-.267-.437zm0-9.851l-.267-.437-.245.15v.287h.512zm8.059-4.925h.512v-.913l-.779.476.267.437zm0 9.851l.267.437.245-.15v-.287h-.512zM29.524 31.5v10.609h1.024V31.5h-1.024zm.245 11.045l8.679 5.304.534-.874-8.679-5.304-.534.874zm9.213 5.304l8.679-5.304-.534-.874-8.68 5.304.534.874zm8.924-5.741V31.5h-1.024v10.609h1.024zm-.245-11.045l-8.679-5.304-.534.874 8.68 5.304.534-.874zm-9.213-5.304l-8.679 5.304.534.874 8.68-5.304-.534-.874zm8.06 5.43l-8.059 4.926.534.874 8.059-4.926-.534-.874zm-7.525 4.926l-8.059-4.925-.534.874 8.059 4.926.534-.874zm-8.059-4.052l8.06-4.925-.534-.874-8.059 4.925.534.874zm7.525-4.925l8.06 4.925.534-.874-8.059-4.925-.534.874zm-8.266 5.304l8.06 4.925.534-.874-8.059-4.925-.534.874zm7.814 4.488v9.851h1.024V36.93h-1.024zm.779 9.414l-8.059-4.926-.534.874 8.06 4.926.534-.874zm-7.814-4.489v-9.85h-1.024v9.85h1.024zm8.473 4.926V36.93H38.41v9.851h1.024zm-.245-9.414l8.06-4.925-.534-.874-8.059 4.925.534.874zm7.28-5.362v9.851h1.024v-9.851h-1.024zm.245 9.414l-8.059 4.925.534.874 8.06-4.925-.534-.874z" fill="#fff"/></svg>