<svg xmlns="http://www.w3.org/2000/svg" width="62" height="62" viewBox="370 -5 460 465">
<path d="M0 0 C0.95572906 0.00337372 1.91145813 0.00674744 2.89614868 0.01022339 C18.3398658 0.08884805 33.216846 0.91073664 48.3125 4.4375 C49.34777832 4.67887695 50.38305664 4.92025391 51.44970703 5.16894531 C88.52239192 14.13405086 121.81737651 31.5747469 149.9453125 57.29296875 C152.03144486 59.18288074 154.15899761 61.00061747 156.3125 62.8125 C195.94810591 97.62221377 219.12232071 153.55520805 223.03125 205.3046875 C226.43783172 261.27307819 211.12695582 317.70146672 175.3125 361.4375 C174.9009668 361.95054687 174.48943359 362.46359375 174.06542969 362.9921875 C162.90982615 376.88700585 150.38352333 389.61876817 136.01269531 400.18603516 C134.31613496 401.43482441 132.63854025 402.70637103 130.9609375 403.98046875 C121.92840637 410.73953228 112.32128369 416.25623776 102.3125 421.4375 C101.54776367 421.83356445 100.78302734 422.22962891 99.99511719 422.63769531 C50.50532359 447.91485265 -8.39342121 452.4165748 -61.6875 437.4375 C-62.93249268 437.09041992 -62.93249268 437.09041992 -64.20263672 436.73632812 C-99.10721247 426.72288715 -129.68000575 407.40178319 -155.6875 382.4375 C-156.20054687 381.95168457 -156.71359375 381.46586914 -157.2421875 380.96533203 C-164.68621295 373.89681421 -171.24101243 366.41072814 -177.38037109 358.18457031 C-178.63008103 356.51424451 -179.90148041 354.86252836 -181.17578125 353.2109375 C-214.46320139 309.22517238 -228.20658095 249.91676717 -221.4296875 195.56640625 C-215.06691176 149.87739892 -196.66836792 106.64029254 -164.91796875 72.8203125 C-162.93461076 70.70148873 -161.0551006 68.53272449 -159.1875 66.3125 C-155.05918679 61.5916974 -150.45614355 57.50015325 -145.6875 53.4375 C-144.89110107 52.7566333 -144.89110107 52.7566333 -144.07861328 52.06201172 C-118.16924965 30.09748081 -87.36073384 14.49721153 -54.5 6.0625 C-53.1864856 5.72255005 -53.1864856 5.72255005 -51.84643555 5.37573242 C-34.7221473 1.26138504 -17.56318112 -0.12145726 0 0 Z " fill="#CDBA85" transform="translate(599.6875,-0.4375)"/>
<path d="M0 0 C3.65329648 1.71456048 6.00019984 3.75809563 8.86035156 6.63330078 C9.32910706 7.10176422 9.79786255 7.57022766 10.28082275 8.05288696 C11.82221432 9.59566695 13.35640873 11.14539964 14.890625 12.6953125 C15.96064255 13.76906192 17.03110381 14.84236933 18.10198975 15.91525269 C20.91431879 18.73520452 23.72058889 21.56111154 26.52563477 24.38830566 C29.39105523 27.2742137 32.26217168 30.15444257 35.1328125 33.03515625 C40.76079512 38.68456489 46.38238884 44.34027825 52 50 C50.68559655 52.90345046 49.27553638 54.97476739 47.02645111 57.22523117 C46.41410819 57.84278959 45.80176526 58.46034801 45.17086649 59.09662032 C44.49714046 59.76588491 43.82341443 60.43514949 43.12927246 61.12469482 C42.05689339 62.20175387 42.05689339 62.20175387 40.96285009 63.30057168 C38.56005951 65.71135553 36.15016399 68.11490886 33.74023438 70.51855469 C32.01865261 72.24284567 30.2974968 73.96756202 28.57673645 75.69267273 C24.3838287 79.89376466 20.18623867 84.09014155 15.98634112 88.28424278 C12.57455133 91.69151836 9.16471554 95.10073791 5.75627136 98.51136017 C5.27143157 98.99650643 4.78659178 99.48165268 4.28705987 99.98150034 C3.30219492 100.96700473 2.31733447 101.95251361 1.33247846 102.93802693 C-7.90356522 112.17977439 -17.14573075 121.41538016 -26.38999707 130.64890173 C-34.32841918 138.57838265 -42.26157491 146.5131007 -50.19091797 154.45166016 C-59.39419649 163.66563074 -68.60069657 172.87636237 -77.81239653 182.08191419 C-78.79369234 183.06257288 -79.77498397 184.04323577 -80.75627136 185.02390289 C-81.23911926 185.50644224 -81.72196716 185.98898159 -82.21944681 186.48614334 C-85.62827517 189.89324198 -89.03477132 193.30266184 -92.44038391 196.71297455 C-97.01891544 201.29768589 -101.60270096 205.87710082 -106.19011879 210.45292091 C-107.87776367 212.13790998 -109.56368803 213.82462421 -111.24780846 215.51313591 C-113.53705829 217.80780621 -115.83230614 220.09629762 -118.12927246 222.38323975 C-118.80299849 223.06142722 -119.47672452 223.73961469 -120.17086649 224.4383533 C-121.08938088 225.34904445 -121.08938088 225.34904445 -122.02645111 226.27813339 C-122.82109843 227.07229365 -122.82109843 227.07229365 -123.63179922 227.88249755 C-125 229 -125 229 -127 229 C-128.39526463 227.585289 -128.39526463 227.585289 -130.036026 225.59606934 C-134.25939678 220.63425433 -138.80842507 216.05861558 -143.42358398 211.46289062 C-144.3414418 210.54488678 -145.25929962 209.62688293 -146.20497131 208.68106079 C-148.69811208 206.18763553 -151.19430285 203.69728479 -153.69109225 201.20751381 C-156.3087324 198.59616557 -158.92350194 195.98194604 -161.53858948 193.36804199 C-166.48041793 188.42930975 -171.42478776 183.49313007 -176.37009722 178.55788374 C-182.00454925 172.93464619 -187.63612957 167.30853637 -193.26748168 161.68219471 C-204.84181661 150.11828543 -216.41971611 138.55795196 -228 127 C-224.55672674 122.91177423 -221.06762835 118.94315543 -217.27978516 115.16625977 C-216.39932526 114.2858754 -215.51886536 113.40549103 -214.61172485 112.49842834 C-213.21450699 111.10895241 -213.21450699 111.10895241 -211.7890625 109.69140625 C-210.81092733 108.71514014 -209.83301565 107.73865006 -208.85531616 106.76194763 C-206.30285601 104.21327423 -203.74740552 101.66762042 -201.19128418 99.12261963 C-198.57490086 96.51653382 -195.96140697 93.90755379 -193.34765625 91.29882812 C-188.23456754 86.19640882 -183.11831088 81.09718143 -178 76 C-174.34118823 77.53956134 -172.0170821 79.74089057 -169.23144531 82.54150391 C-168.77244339 83.00021378 -168.31344147 83.45892365 -167.8405304 83.93153381 C-166.33160325 85.4418491 -164.82987546 86.95911388 -163.328125 88.4765625 C-162.28052776 89.5278917 -161.23248672 90.57877885 -160.184021 91.62924194 C-157.4308748 94.39001016 -154.68378873 97.15673249 -151.93792725 99.92474365 C-149.13283084 102.75032928 -146.32203679 105.57023445 -143.51171875 108.390625 C-138.00222468 113.92154374 -132.49912123 119.45876589 -127 125 C-123.17367115 123.41956625 -120.75526634 121.00170566 -117.84942627 118.0899353 C-117.34373163 117.58594951 -116.83803699 117.08196372 -116.31701827 116.56270564 C-114.62485125 114.87383115 -112.93992866 113.17791096 -111.25488281 111.48193359 C-110.04291516 110.26940178 -108.8305069 109.05731023 -107.61769104 107.84562683 C-104.32634924 104.55485933 -101.04121448 101.25795754 -97.75714588 97.95993376 C-94.32407266 94.51436626 -90.88534276 91.0744538 -87.44720459 87.63394165 C-80.93740936 81.11792783 -74.43272958 74.59683207 -67.92986465 68.07390273 C-60.52635995 60.64805085 -53.11718201 53.22787062 -45.7075181 45.80816531 C-30.46535013 30.54508675 -15.23033366 15.2748869 0 0 Z " fill="#FEFEFE" transform="translate(688,108)"/>
</svg>
