<?xml version="1.0" encoding="utf-8"?>
<!-- Generator: Adobe Illustrator 27.3.1, SVG Export Plug-In . SVG Version: 6.00 Build 0)  -->
<svg version="1.1" id="Ebene_1" xmlns="http://www.w3.org/2000/svg" xmlns:xlink="http://www.w3.org/1999/xlink" x="0px" y="0px"
	 viewBox="0 0 149.9 116.9" style="enable-background:new 0 0 149.9 116.9;" xml:space="preserve">
<style type="text/css">
	.st0{fill:#050F34;}
	.st1{fill:#00AEEF;}
	.st2{fill:#E60060;}
</style>
<g id="Ebene_2_00000081605738754465094210000007624559759320516758_">
	<g id="Ebene_1-2">
		<polygon class="st0" points="83.7,97.9 94.3,88.6 25.8,47.6 		"/>
		<path class="st1" d="M23.9,19.8C-3.5,44.9-7.9,86.6,13.7,116.9l10.4-6.7c-18-22.2-14.5-54.8,7.7-72.8c1.5-1.2,3.1-2.4,4.8-3.5
			l-0.3,0.2L23.9,19.8z"/>
		<path class="st0" d="M127.8,21.8C99.3-6.5,53.6-7.4,23.9,19.8l12.5,14.3l0.3-0.2c0.8-0.5,1.7-1,2.5-1.5l0.5-0.3
			c0.8-0.5,1.7-0.9,2.5-1.3l0.5-0.3c19.2-9,41.9-5.7,57.8,8.3c1.3,1.1,2.4,2.3,3.6,3.5l0.1,0.1c0.5,0.5,1,1.1,1.4,1.6l0.4,0.5
			c0.2,0.2,0.4,0.5,0.6,0.7L127.8,21.8z"/>
		<path class="st2" d="M106.6,45.3c12.9,16.1,15,38.4,5.3,56.6l24.4,14.9c20.9-29.5,17.3-69.7-8.4-95.1"/>
	</g>
</g>
</svg>
