<?xml version="1.0" encoding="utf-8"?>
<svg xmlns="http://www.w3.org/2000/svg" xmlns:xlink="http://www.w3.org/1999/xlink" width="62" height="62" viewBox="0 0 62 62">
  <rect width="62" height="62" fill="#1e2851"/>
  <g transform="translate(6.0000,6.0000) scale(0.041667)">
<style type="text/css">.st0{fill:#FFFFFF;}</style><g><path class="st0" d="M600,10C274.2,10,10,274.2,10,600s264.2,590,590,590s590-264.2,590-590S925.8,10,600,10z M284.5,875.6
		L391.3,324h44.4L329.2,875.6H284.5z M385.3,875.6L492,324h44.4L430,875.6H385.3z M719.3,703.9H612.5l-32.1,171.6h-94.6L592.6,324
		H736c139.8,0,201.7,81.3,201.7,176.7C937.8,631.4,838.3,703.9,719.3,703.9z"/><path class="st0" d="M740.2,409.1H670l-41.2,210.5h83c71.5,0,131.4-39.5,131.4-115.8C843.2,439.1,796.7,409.1,740.2,409.1z"/></g><path class="st0" d="M1128.1,1102.6c0-8-6.1-12.8-15.4-12.8h-17.8v40h7.6V1116h8.3l9.7,13.8h9.1l-10.8-15.1
	C1124.4,1113.1,1128.1,1109.1,1128.1,1102.6z M1112.4,1109.3h-9.9v-12.7h9.9c5,0,7.9,2.2,7.9,6.3
	C1120.3,1106.9,1117.4,1109.3,1112.4,1109.3z"/><path class="st0" d="M1110.4,1072.7c-21.4,0-38.3,17.4-38.3,38.3c0,20.9,16.7,38.1,38.1,38.1c21.4,0,38.3-17.4,38.3-38.3
	C1148.5,1089.9,1131.8,1072.7,1110.4,1072.7z M1110.2,1145.3c-19.4,0-34-15.3-34-34.3c0-19,14.8-34.5,34.3-34.5
	c19.4,0,34,15.3,34,34.3S1129.7,1145.3,1110.2,1145.3z"/>
  </g>
</svg>
