<svg width="62" height="62" viewBox="0 0 62 62" fill="none" xmlns="http://www.w3.org/2000/svg"><path d="M30.3904 9.00465C30.8905 9.00858 31.3902 9.00466 31.8903 9C37.0146 9.01487 41.8081 10.9868 45.7132 14.2278C45.7132 14.3889 45.7132 14.5501 45.7132 14.7161C45.8525 14.769 45.9919 14.8219 46.1355 14.8764C49.3298 16.7019 51.411 21.3889 52.3277 24.7421C53.708 30.4867 52.9834 36.2942 49.9636 41.4226C46.6808 46.4612 41.785 50.2555 35.7486 51.5863C29.5065 52.7002 23.494 51.5686 18.2163 48.145C17.0852 47.3387 16.0685 46.4426 15.0723 45.482C14.8796 45.2963 14.6869 45.1106 14.4884 44.9192C10.6241 40.963 8.98246 35.9592 9.00014 30.5721C9.00044 30.4034 9.00074 30.2347 9.00105 30.0608C9.026 24.9177 10.4829 20.0831 14.0758 16.1812C14.2402 16.1812 14.4046 16.1812 14.574 16.1812C14.6363 16.0389 14.6986 15.8966 14.7628 15.7501C16.6117 12.4903 21.2361 10.7013 24.687 9.63237C26.5961 9.10132 28.4106 8.9862 30.3904 9.00465ZM33.7557 14.9603C33.7557 25.1936 33.7557 35.4269 33.7557 45.9703C36.7438 45.2381 39.711 44.2304 41.9765 42.0635C41.9765 41.9024 41.9765 41.7412 41.9765 41.5752C42.1409 41.5752 42.3053 41.5752 42.4747 41.5752C42.4747 41.414 42.4747 41.2529 42.4747 41.0869C42.6391 41.0869 42.8035 41.0869 42.9729 41.0869C45.7838 37.8251 47.1854 33.7724 47.0356 29.5239C46.6501 25.061 44.8337 21.3913 41.4782 18.3787C39.1181 16.4498 36.7598 15.5492 33.7557 14.9603ZM20.3036 18.6229C22.8521 18.6229 25.4005 18.6229 28.0261 18.6229C28.0261 17.4143 28.0261 16.2056 28.0261 14.9603C25.1856 14.9603 22.2359 16.7289 20.3036 18.6229ZM15.8196 24.4831C15.573 25.45 15.3264 26.4169 15.0723 27.4131C19.347 27.4131 23.6218 27.4131 28.0261 27.4131C28.0261 26.4462 28.0261 25.4793 28.0261 24.4831C23.998 24.4831 19.9698 24.4831 15.8196 24.4831ZM15.0723 33.2733C15.3189 34.3208 15.5655 35.3683 15.8196 36.4476C19.8478 36.4476 23.8759 36.4476 28.0261 36.4476C28.0261 35.4001 28.0261 34.3526 28.0261 33.2733C23.7514 33.2733 19.4766 33.2733 15.0723 33.2733ZM20.0545 42.0635C22.1929 44.1595 25.054 45.4848 28.0261 45.9703C28.0261 44.6811 28.0261 43.3919 28.0261 42.0635C25.3955 42.0635 22.7649 42.0635 20.0545 42.0635Z" fill="#4F46E4"/></svg>