<svg xmlns="http://www.w3.org/2000/svg" width="62" height="62" fill="none"><path d="M45.923 19.007l-4.94 17.485h-.063l-5.3-17.485H23.898l-4.014 7.136-4.25-7.136h-5.96l6.93 11.213L9 42.781h5.488l4.878-8.313 5.049 8.313h8.994V26.299h.063l.358 1.772.322 1.364.336 1.193.368 1.239 3.53 10.907h4.626l3.56-10.907.73-2.541a26.66 26.66 0 0 0 .588-2.761h.063v16.216H53V19l-7.077.007zM22.518 30.25l6.203-10.295v20.384L22.518 30.25z" fill="url(#A)"/><defs><linearGradient id="A" x1="14.852" y1="19.19" x2="28.899" y2="54.002" gradientUnits="userSpaceOnUse"><stop offset=".042" stop-color="#21dbaa"/><stop offset=".358" stop-color="#00b4ef"/><stop offset=".433" stop-color="#01a7ec"/><stop offset=".568" stop-color="#0487e4"/><stop offset=".68" stop-color="#0768dd"/><stop offset=".965" stop-color="#5f1ae5"/></linearGradient></defs></svg>