<svg width="62" height="62" viewBox="0 0 1200 1200" fill="none" xmlns="http://www.w3.org/2000/svg">
<rect width="1200" height="1200" rx="600" fill="#fff"/>
<path d="M0 0 C2.53523108 1.40722994 5.10150592 2.75539679 7.66162109 4.11669922 C13.20177585 7.16503025 18.51497603 10.50183 23.78662109 13.99169922 C24.3916748 14.39018066 24.99672852 14.78866211 25.62011719 15.19921875 C34.10291838 20.81143833 42.12130731 26.69828696 49.78271484 33.39013672 C52.51896056 35.75988919 55.31704859 38.00458329 58.16162109 40.24169922 C68.22877142 48.43417493 77.50742932 58.00225187 85.78662109 67.99169922 C86.56263672 68.90177734 87.33865234 69.81185547 88.13818359 70.74951172 C93.67943187 77.27286053 98.85963041 83.99018614 103.78662109 90.99169922 C104.54072266 92.04486328 105.29482422 93.09802734 106.07177734 94.18310547 C110.13183041 99.89599851 113.88127234 105.66149621 117.13818359 111.87841797 C118.41068182 114.28169068 119.7154897 116.64859938 121.06005859 119.01123047 C139.09079277 150.74306613 151.38049546 184.27157056 158.78662109 219.99169922 C159.10759766 221.50521973 159.10759766 221.50521973 159.43505859 223.04931641 C162.9227944 239.61093245 165.24393204 256.14034435 166.78662109 272.99169922 C166.85864746 273.75546875 166.93067383 274.51923828 167.00488281 275.30615234 C167.99957518 286.18708429 167.88634627 297.07733248 167.78662109 307.99169922 C162.64102699 310.31639299 157.52025288 312.0575217 152.09912109 313.61669922 C135.51264615 318.50060596 119.09646796 323.92905554 102.66162109 329.29638672 C85.16144742 335.01071292 67.65800445 340.70986566 50.09912109 346.24169922 C49.00517532 346.58754059 49.00517532 346.58754059 47.88912964 346.94036865 C45.83105537 347.59037953 43.77194284 348.23697615 41.71240234 348.88232422 C40.56167236 349.24358398 39.41094238 349.60484375 38.2253418 349.97705078 C34.43316094 351.09599318 30.62799377 352.05679256 26.78662109 352.99169922 C26.78884171 352.31756989 26.79106232 351.64344055 26.79335022 350.94888306 C26.81571945 343.84174131 26.83065752 336.73460979 26.84155273 329.62744141 C26.84596547 326.98581922 26.85332766 324.34425357 26.86206055 321.70263672 C27.01212988 293.43582076 27.01212988 293.43582076 24.03662109 265.36669922 C23.86106689 264.27260742 23.6855127 263.17851562 23.50463867 262.05126953 C15.86482033 215.55035333 0.45448453 169.16765197 -32.21337891 133.99169922 C-32.76864258 133.39260742 -33.32390625 132.79351562 -33.89599609 132.17626953 C-61.16371072 103.11167091 -96.9410703 85.05371593 -136.21337891 78.99169922 C-137.37353516 78.81147217 -138.53369141 78.63124512 -139.72900391 78.44555664 C-150.61431888 76.91190328 -161.35568417 76.63194117 -172.33837891 76.67919922 C-173.69233261 76.68243195 -173.69233261 76.68243195 -175.07363892 76.68572998 C-217.97722637 76.84997877 -259.11703825 88.70293098 -292.21337891 116.99169922 C-293.33497161 117.91845331 -294.45742898 118.84416154 -295.58056641 119.76904297 C-311.41411081 132.92217304 -323.86495732 148.2456108 -334.21337891 165.99169922 C-334.56174805 166.58692383 -334.91011719 167.18214844 -335.26904297 167.79541016 C-337.62868733 171.83654179 -339.93686335 175.90315894 -342.21337891 179.99169922 C-342.60267578 180.68392578 -342.99197266 181.37615234 -343.39306641 182.08935547 C-352.23785744 198.71902457 -357.9239191 218.75477877 -362.21337891 236.99169922 C-362.37547852 237.6776416 -362.53757812 238.36358398 -362.70458984 239.0703125 C-364.07274492 245.01098587 -365.17545005 250.98542037 -366.21337891 256.99169922 C-366.39964844 258.02649414 -366.58591797 259.06128906 -366.77783203 260.12744141 C-374.68585338 305.76610699 -373.55843542 357.19348346 -361.21337891 401.99169922 C-360.9462207 402.98621094 -360.6790625 403.98072266 -360.40380859 405.00537109 C-357.13970977 417.06948033 -353.5966581 428.68822584 -348.21337891 439.99169922 C-347.08392779 442.38548083 -345.96072233 444.78206292 -344.83837891 447.17919922 C-344.33564453 448.22462891 -343.83291016 449.27005859 -343.31494141 450.34716797 C-342.21337891 452.99169922 -342.21337891 452.99169922 -342.21337891 455.99169922 C-349.26872231 458.73469388 -356.17029589 460.82566487 -363.58837891 462.30419922 C-372.40343398 464.14039783 -381.15689403 466.15539159 -389.90087891 468.30419922 C-403.00987008 471.51740601 -416.16951442 474.46304361 -429.35864258 477.3269043 C-430.10317688 477.48980957 -430.84771118 477.65271484 -431.61480713 477.82055664 C-433.00437327 478.12455249 -434.39451273 478.42594527 -435.78533936 478.72412109 C-439.69545762 479.5816901 -443.42292962 480.71565731 -447.21337891 481.99169922 C-448.61958146 482.2916725 -450.0341693 482.55610859 -451.45556641 482.77294922 C-452.21224609 482.89283203 -452.96892578 483.01271484 -453.74853516 483.13623047 C-454.90675781 483.3121875 -454.90675781 483.3121875 -456.08837891 483.49169922 C-460.60789685 484.18525088 -465.0495058 484.90688637 -469.47119141 486.08544922 C-472.59872615 486.84284803 -475.03218569 487.19052379 -478.21337891 486.99169922 C-495.45495988 454.56837216 -503.37821464 417.08517892 -508.21337891 380.99169922 C-508.37854004 379.80866211 -508.54370117 378.625625 -508.71386719 377.40673828 C-514.34994325 335.24399348 -513.44810474 290.01494721 -507.21337891 247.99169922 C-506.96515381 246.23720459 -506.96515381 246.23720459 -506.71191406 244.44726562 C-502.00670799 211.61634252 -492.39691297 180.38692939 -479.21337891 149.99169922 C-478.85775879 149.16847168 -478.50213867 148.34524414 -478.13574219 147.49707031 C-468.39286117 125.21307913 -455.197753 104.55291239 -440.73681641 85.05810547 C-439.51614944 83.40238027 -438.35442482 81.70326809 -437.21337891 79.99169922 C-436.55337891 79.99169922 -435.89337891 79.99169922 -435.21337891 79.99169922 C-434.99681641 79.29302734 -434.78025391 78.59435547 -434.55712891 77.87451172 C-432.87217242 74.25969227 -430.44961187 71.70074632 -427.71337891 68.86669922 C-426.63201706 67.72537124 -425.55129925 66.58343276 -424.47119141 65.44091797 C-423.65569824 64.58312744 -423.65569824 64.58312744 -422.82373047 63.70800781 C-421.27799935 62.06057153 -419.76701331 60.38873961 -418.26806641 58.69873047 C-417.81496094 58.18906738 -417.36185547 57.6794043 -416.89501953 57.15429688 C-415.65263473 55.75173915 -414.41338873 54.34640292 -413.17431641 52.94091797 C-411.21337891 50.99169922 -411.21337891 50.99169922 -409.21337891 50.99169922 C-408.71837891 49.50669922 -408.71837891 49.50669922 -408.21337891 47.99169922 C-406.85791016 46.58935547 -406.85791016 46.58935547 -405.02587891 45.05419922 C-403.93339844 44.131875 -403.93339844 44.131875 -402.81884766 43.19091797 C-401.95904297 42.46517578 -401.09923828 41.73943359 -400.21337891 40.99169922 C-399.20762452 40.10446694 -398.20383322 39.21500604 -397.20166016 38.32373047 C-369.26042124 13.63495491 -336.24652358 -5.35409885 -301.21337891 -18.00830078 C-300.31006836 -18.33636719 -299.40675781 -18.66443359 -298.47607422 -19.00244141 C-272.00748741 -28.49374816 -245.03916712 -34.40104713 -217.21337891 -38.00830078 C-216.19453613 -38.14107422 -215.17569336 -38.27384766 -214.12597656 -38.41064453 C-142.86567305 -47.16298817 -62.93419067 -35.10625647 0 0 Z " fill="#02AED8" transform="translate(867.21337890625,228.00830078125)"/>
<path d="M0 0 C-2.51787211 10.45127922 -5.30651669 20.78485466 -8.41943359 31.07470703 C-8.92913183 32.7649847 -9.42831123 34.45842685 -9.92578125 36.15234375 C-12.68028052 45.38659022 -15.90531957 54.45722679 -19.09765625 63.546875 C-20.26769137 66.87934168 -21.40820902 70.21790306 -22.5078125 73.57421875 C-24.12632851 78.46188666 -25.96021066 83.25943944 -27.8125 88.0625 C-30.70566553 95.57007069 -30.70566553 95.57007069 -33.50390625 103.11328125 C-40.40498328 122.10713855 -49.02112886 140.43319833 -57.50537109 158.75927734 C-58.82315926 161.61656584 -60.13107282 164.47814663 -61.4344635 167.34202576 C-66.8925525 179.32764093 -72.38104868 191.19675296 -79.03515625 202.57421875 C-80.9378784 205.89168859 -82.64273418 209.2478625 -84.3125 212.6875 C-89.09157006 222.37657354 -94.55536952 231.67341091 -100 241 C-100.63711914 242.09199707 -101.27423828 243.18399414 -101.93066406 244.30908203 C-109.60352234 257.42881425 -117.34723655 270.4847881 -125.76611328 283.14404297 C-126.98542918 284.97808323 -128.19472337 286.81839956 -129.40234375 288.66015625 C-140.04766666 304.83369055 -151.24294563 320.61705506 -163 336 C-163.4326416 336.5676709 -163.8652832 337.1353418 -164.31103516 337.72021484 C-166.77623034 340.952528 -169.25560191 344.17342211 -171.74804688 347.38476562 C-172.59765785 348.48090958 -173.44524893 349.57862153 -174.29101562 350.67773438 C-180.50977032 358.757509 -186.97660235 366.56061036 -193.703125 374.22265625 C-195.97321901 376.80999522 -198.20870884 379.42239669 -200.421875 382.05859375 C-200.97045166 382.70957031 -201.51902832 383.36054687 -202.08422852 384.03125 C-203.13348174 385.27878604 -204.17842614 386.52996197 -205.21850586 387.78515625 C-206.43620276 389.22735881 -207.71294425 390.6193402 -209 392 C-209.66 392 -210.32 392 -211 392 C-216.77659962 378.2498493 -221.65259019 364.35768408 -226.04296875 350.10644531 C-226.95734599 347.13845142 -227.88379676 344.17447416 -228.8125 341.2109375 C-232.56901296 329.13821741 -235.95043167 316.98588427 -239.19140625 304.765625 C-240.70850236 299.05478858 -242.2883087 293.36328427 -243.88256836 287.67358398 C-247.39972357 275.0974829 -250.7048568 262.47981944 -253.875 249.8125 C-254.0681781 249.04319153 -254.2613562 248.27388306 -254.46038818 247.48126221 C-256.49644015 239.35775257 -258.49008177 231.241532 -260 223 C-271.8183398 225.0816278 -283.46330646 227.67806062 -295.125 230.5 C-298.3770636 231.28351324 -301.62969186 232.06463746 -304.8828125 232.84375 C-305.66996643 233.03239624 -306.45712036 233.22104248 -307.26812744 233.41540527 C-313.03074016 234.78848362 -318.81199047 236.05073117 -324.60888672 237.27148438 C-330.75951644 238.59282916 -336.87756072 240.05459939 -343 241.5 C-350.32356215 243.22896467 -357.64601869 244.94056959 -365.0078125 246.5 C-372.32503975 248.05107938 -379.5977399 249.77265241 -386.875 251.5 C-395.92342251 253.63505999 -404.95732427 255.65242896 -414.11328125 257.27734375 C-418.80710527 258.1500648 -423.4627679 259.16104403 -428.125 260.1875 C-438.032811 262.36319885 -447.94929191 264.49549622 -457.87347412 266.59512329 C-459.51258053 266.9423211 -461.15146482 267.29056956 -462.7901001 267.63998413 C-472.64131086 269.73976137 -482.5011955 271.68132162 -492.42944336 273.38232422 C-498.02206416 274.34979982 -503.57363951 275.4679034 -509.1171875 276.68359375 C-518.37473847 278.70933903 -527.6624289 280.39800713 -537 282 C-539.77140412 282.47593038 -542.54228524 282.954693 -545.3125 283.4375 C-546.00504883 283.55794678 -546.69759766 283.67839355 -547.41113281 283.80249023 C-552.12435117 284.6349002 -556.81163244 285.56563033 -561.4987793 286.53344727 C-569.56086323 288.19714938 -577.50531244 289.49510261 -585.68823242 290.41430664 C-590.13734246 290.97368934 -594.48341672 291.88193045 -598.8671875 292.8125 C-611.2137692 295.35207919 -623.65767808 297.16678092 -636.125 299 C-639.48828858 299.49927624 -642.85136411 299.99997046 -646.21443176 300.50073242 C-648.44387755 300.83241584 -650.6734404 301.16331337 -652.90312195 301.4934082 C-662.06882163 302.85232629 -671.2268027 304.25910157 -680.38101196 305.69335938 C-686.75570196 306.68456284 -693.12175927 307.52466426 -699.53430176 308.23094177 C-706.04954683 308.95290957 -712.5199396 309.95405768 -719 310.9375 C-728.97106869 312.44617936 -738.94690656 313.76685915 -748.96411133 314.92773438 C-755.38716634 315.67489475 -761.78682704 316.52013971 -768.1875 317.4375 C-780.18344859 319.13853688 -792.23545418 320.33393484 -804.2878418 321.55444336 C-812.78390205 322.41948106 -821.24861031 323.38185037 -829.70605469 324.56958008 C-838.45424225 325.71270598 -847.18236688 326.17913927 -856 326 C-855.4282044 320.89327374 -854.24070402 316.38024307 -852.4375 311.5625 C-851.88343211 310.03717776 -851.3314625 308.51109219 -850.78125 306.984375 C-850.34232422 305.76717773 -850.34232422 305.76717773 -849.89453125 304.52539062 C-848.34232207 300.14328044 -846.89439775 295.72702108 -845.4375 291.3125 C-841.56632405 279.61800134 -837.57826612 267.96468622 -833.57983398 256.31326294 C-830.05236571 246.0332017 -826.53339757 235.75171842 -823.17944336 225.41333008 C-822.71469069 223.99620757 -822.23862089 222.58272964 -821.74951172 221.17382812 C-821.19414257 219.5630767 -820.67523519 217.93965348 -820.17626953 216.31054688 C-819.87188965 215.40884766 -819.56750977 214.50714844 -819.25390625 213.578125 C-818.99037354 212.7521582 -818.72684082 211.92619141 -818.45532227 211.07519531 C-815.33540714 206.62639837 -808.29345656 206.5977298 -803.23046875 205.66796875 C-801.29892944 205.31013306 -801.29892944 205.31013306 -799.32836914 204.94506836 C-798.65355499 204.82163055 -797.97874084 204.69819275 -797.28347778 204.5710144 C-794.41979773 204.04702863 -791.55757347 203.51528778 -788.69523621 202.98402405 C-787.23519088 202.71309757 -785.7750771 202.44253976 -784.31489563 202.17234802 C-765.17445878 198.6291614 -746.08238508 194.84168809 -727 191 C-722.85441873 190.16540673 -718.7086245 189.33189059 -714.5625 188.5 C-713.53882324 188.2944751 -712.51514648 188.0889502 -711.46044922 187.87719727 C-703.83612737 186.35245234 -696.20095487 184.88952519 -688.5625 183.4375 C-679.86266399 181.78179738 -671.21089992 180.00171483 -662.5859375 177.9921875 C-658.72124699 177.12202221 -654.83459982 176.41309864 -650.9375 175.703125 C-641.18019526 173.90855815 -631.50746557 171.7420248 -621.82458496 169.58703613 C-616.29833327 168.35722323 -610.77031453 167.13541379 -605.2421875 165.9140625 C-604.12589966 165.66732788 -603.00961182 165.42059326 -601.85949707 165.16638184 C-592.04057537 163.0002487 -582.20893891 160.89649613 -572.37338257 158.80743408 C-557.43801369 155.63386583 -542.54515988 152.33506461 -527.6875 148.8125 C-521.94373342 147.45101459 -516.1928726 146.12400192 -510.4375 144.8125 C-493.59299754 140.96989269 -476.79748329 137.04351643 -460.09765625 132.60546875 C-453.48653692 130.8508174 -446.85082962 129.19810294 -440.212677 127.54959106 C-432.95303639 125.74642069 -425.69532191 123.93547457 -418.4375 122.125 C-417.56181366 121.90656433 -416.68612732 121.68812866 -415.78390503 121.46307373 C-404.62828691 118.6784586 -393.48641875 115.85167058 -382.37011719 112.91333008 C-375.57174571 111.12445521 -368.74474401 109.50061556 -361.88671875 107.95703125 C-358.96108005 107.26991782 -356.09994178 106.44248838 -353.2265625 105.5625 C-347.76130682 103.89450875 -342.23889906 102.53529918 -336.6875 101.1875 C-328.1142494 99.07698895 -319.61686747 96.79528838 -311.14282227 94.31884766 C-304.0070135 92.24912239 -296.82525295 90.39379582 -289.625 88.5625 C-280.15958152 86.14985076 -270.82190005 83.47613962 -261.50146484 80.55712891 C-253.75081369 78.15853469 -245.93363744 76.14504396 -238.0324707 74.30444336 C-231.21601631 72.6795661 -224.5824574 70.63851151 -217.91490173 68.49934387 C-211.24895868 66.3702547 -204.55053484 64.37049775 -197.83203125 62.4140625 C-196.77267365 62.10507523 -195.71331604 61.79608795 -194.62185669 61.47773743 C-190.26770536 60.20922689 -185.9127795 58.94344334 -181.55639648 57.68261719 C-167.76500507 53.68679622 -154.08687683 49.46496896 -140.48999023 44.84814453 C-134.76685295 42.9071741 -129.01206875 41.0715848 -123.25 39.25 C-113.60334215 36.18546733 -103.99927393 33.00556499 -94.40371704 29.78561401 C-81.94619975 25.60539493 -69.4706323 21.54192139 -56.89526367 17.7265625 C-45.7904346 14.35070859 -34.80273747 10.64752811 -23.8125 6.91845703 C-20.50121956 5.79616119 -17.18815112 4.67925914 -13.875 3.5625 C-12.83649902 3.20800781 -11.79799805 2.85351562 -10.72802734 2.48828125 C-9.7633252 2.1634375 -8.79862305 1.83859375 -7.8046875 1.50390625 C-6.94858887 1.21330322 -6.09249023 0.9227002 -5.21044922 0.62329102 C-3 0 -3 0 0 0 Z " fill="#FAAB4B" transform="translate(1022,623)"/>
</svg>
