<svg xmlns="http://www.w3.org/2000/svg" width="62" height="62" fill="none"><g clip-path="url(#A)"><path d="M31 53c12.15 0 22-9.85 22-22S43.15 9 31 9 9 18.85 9 31s9.85 22 22 22z" fill="#2ca01c"/><path d="M15.111 31.002c0 2.269.901 4.445 2.506 6.05s3.781 2.506 6.05 2.506h1.222V36.38h-1.222a5.38 5.38 0 0 1-5.378-5.378 5.38 5.38 0 0 1 5.378-5.378H26.6v16.622c0 .417.082.831.242 1.216a3.18 3.18 0 0 0 .689 1.031c.295.295.645.529 1.031.689a3.18 3.18 0 0 0 1.216.242V22.447h-6.111c-2.269 0-4.445.901-6.05 2.506s-2.506 3.781-2.506 6.05zm23.222-8.556h-1.222v3.178h1.222a5.38 5.38 0 0 1 5.378 5.378 5.38 5.38 0 0 1-5.378 5.378H35.4V19.758a3.18 3.18 0 0 0-3.178-3.178v22.978h6.111c1.124 0 2.236-.221 3.274-.651s1.981-1.06 2.776-1.855 1.425-1.738 1.855-2.776.651-2.151.651-3.274-.221-2.236-.651-3.274-1.06-1.981-1.855-2.776-1.738-1.425-2.776-1.855-2.151-.651-3.274-.651z" fill="#fff"/></g><defs><clipPath id="A"><path fill="#fff" transform="translate(9 9)" d="M0 0h44v44H0z"/></clipPath></defs></svg>