<?xml version="1.0" encoding="UTF-8" standalone="no" ?>
<!DOCTYPE svg PUBLIC "-//W3C//DTD SVG 1.1//EN" "http://www.w3.org/Graphics/SVG/1.1/DTD/svg11.dtd">
<svg xmlns="http://www.w3.org/2000/svg" xmlns:xlink="http://www.w3.org/1999/xlink" version="1.1" width="62" height="62" viewBox="0 0 62 62" xml:space="preserve">
<desc>Created with Fabric.js 5.2.4</desc>
<defs>
</defs>
<rect x="0" y="0" width="100%" height="100%" fill="transparent"></rect>
<g transform="matrix(1 0 0 1 31 31)" id="6eb78dbb-1a79-4fcc-9736-32cae64076f3"  >
<rect style="stroke: none; stroke-width: 1; stroke-dasharray: none; stroke-linecap: butt; stroke-dashoffset: 0; stroke-linejoin: miter; stroke-miterlimit: 4; fill: rgb(255,255,255); fill-rule: nonzero; opacity: 1;" vector-effect="non-scaling-stroke"  x="-31" y="-31" rx="0" ry="0" width="62" height="62" />
</g>
<g transform="matrix(Infinity NaN NaN Infinity 0 0)" id="abfd9144-79d4-418d-8fd5-f58fb6ad1dd0"  >
</g>
<g transform="matrix(2.69 0 0 2.69 31 31)"  >
<g style=""   >
		<g transform="matrix(1 0 0 1 4.5 7.5)"  >
<path style="stroke: none; stroke-width: 1; stroke-dasharray: none; stroke-linecap: butt; stroke-dashoffset: 0; stroke-linejoin: miter; stroke-miterlimit: 4; fill: rgb(242,94,48); fill-rule: nonzero; opacity: 1;" vector-effect="non-scaling-stroke"  transform=" translate(-12.5, -17.5)" d="M 15 15 L 10 15 L 10 20 L 15 20 z" stroke-linecap="round" />
</g>
		<g transform="matrix(1 0 0 1 2 -5)"  >
<path style="stroke: none; stroke-width: 1; stroke-dasharray: none; stroke-linecap: butt; stroke-dashoffset: 0; stroke-linejoin: miter; stroke-miterlimit: 4; fill: rgb(44,147,130); fill-rule: nonzero; opacity: 1;" vector-effect="non-scaling-stroke"  transform=" translate(-10, -5)" d="M 10 0 L 5 0 L 5 5 L 10 5 L 10 10 L 15 10 L 15 0 z" stroke-linecap="round" />
</g>
		<g transform="matrix(1 0 0 1 -3 0)"  >
<path style="stroke: none; stroke-width: 1; stroke-dasharray: none; stroke-linecap: butt; stroke-dashoffset: 0; stroke-linejoin: miter; stroke-miterlimit: 4; fill: rgb(28,44,23); fill-rule: nonzero; opacity: 1;" vector-effect="non-scaling-stroke"  transform=" translate(-5, -10)" d="M 5 10 L 5 5 L 0 5 L 0 15 L 10 15 L 10 10 z" stroke-linecap="round" />
</g>
</g>
</g>
</svg>