<svg width="70" height="70" viewBox="0 0 70 70" fill="none" xmlns="http://www.w3.org/2000/svg"><g filter="url(#filter0_d_2565_98)"><path d="M43.5391 32.4541V53.0002H50.6731V32.4541C49.6565 33.1497 48.4259 33.5599 47.1061 33.5599C45.7863 33.5599 44.5557 33.1497 43.5391 32.4541Z" fill="#8989F5"/><path d="M34.8376 9.01783C26.0984 9.01783 19 16.1162 19 24.8733C19 33.6303 26.0092 40.6039 34.6771 40.7109H38.4225V33.559H34.8554C30.0578 33.559 26.1519 29.6709 26.1519 24.8554C26.1519 20.04 30.04 16.1519 34.8554 16.1519C39.6709 16.1519 43.5412 20.04 43.5412 24.8198C43.5412 24.8198 43.5412 24.8198 43.5412 24.8376C43.5412 26.8173 45.1463 28.4046 47.1082 28.4046C49.0701 28.4046 50.6752 26.7995 50.6752 24.8376C50.6752 16.0984 43.5768 9 34.8376 9V9.01783Z" fill="#8989F5"/></g><defs><filter id="filter0_d_2565_98" x="0" y="0" width="70" height="70" filterUnits="userSpaceOnUse" color-interpolation-filters="sRGB"><feFlood flood-opacity="0" result="BackgroundImageFix"/><feColorMatrix in="SourceAlpha" type="matrix" values="0 0 0 0 0 0 0 0 0 0 0 0 0 0 0 0 0 0 127 0" result="hardAlpha"/><feOffset dy="4"/><feGaussianBlur stdDeviation="2"/><feComposite in2="hardAlpha" operator="out"/><feColorMatrix type="matrix" values="0 0 0 0 0 0 0 0 0 0 0 0 0 0 0 0 0 0 0.25 0"/><feBlend mode="normal" in2="BackgroundImageFix" result="effect1_dropShadow_2565_98"/><feBlend mode="normal" in="SourceGraphic" in2="effect1_dropShadow_2565_98" result="shape"/></filter></defs></svg>