<svg xmlns="http://www.w3.org/2000/svg" width="200" height="200"><path d="M0 0h200v200H0z"/><path d="M109.313 39.563c4.764 2.758 7.776 6.292 9.316 11.609.9 5.49.09 9.972-2.629 14.828-2.187 2.5-2.187 2.5-4 4 1.466 3.97 3.345 7.485 5.492 11.129l1.037 1.767c1.877 3.197 3.772 6.385 5.667 9.572l2.331 3.927 1.167 1.962a337 337 0 0 1 6.747 11.967l1.554 2.809c.935 1.697 1.845 3.41 2.721 5.139 1.28 2.274 2.336 3.989 4.284 5.728 2.612.7 4.88.88 7.58.858 5.445.32 9.27 3.963 12.92 7.704 2.662 6.1 2.375 12.485.5 18.813-3.67 4.818-7.015 8.067-13.133 9.21-6.651.325-11.304-.365-16.344-4.862C131.55 152.36 130 149.495 130 145H71l-1 6c-1.234 2.047-1.234 2.047-2.75 3.75l-1.484 1.734c-4.665 4.004-9.936 4.01-15.82 3.887-4.429-.558-7.03-2.025-9.946-5.371-3.343-4.59-4.688-9.095-4.375-14.766.954-5.683 3.26-9.814 7.938-13.234 4.938-2.791 9.923-2.456 15.437-2l.811-2.162c1.215-2.9 2.632-5.52 4.209-8.24l1.832-3.168 1.96-3.368 2.002-3.469a725 725 0 0 1 10.14-17.058c.608-.998 1.216-1.997 1.844-3.025a450 450 0 0 1 3.516-5.654l1.565-2.567 1.393-2.228c.972-2.064.972-2.064-.007-4.138a244 244 0 0 0-3.39-4.986C82.158 60.16 82.125 55.34 83 50c1.919-5.095 5.055-8.975 9.984-11.375 5.542-1.718 11.026-1.374 16.329.938" fill="#8EA1A5"/><path d="m100.188 72.375 2.855-.29c4.896 1.514 6.49 5.639 8.957 9.915l1.482 2.448c1.55 2.567 3.068 5.15 4.58 7.74l3.391 5.777 1.752 2.988c1.83 3.108 3.678 6.205 5.53 9.3l1.816 3.045q1.738 2.913 3.486 5.82l1.576 2.648 1.4 2.337C138 126 138 126 138 128l-2.312 2.188c-3.31 3.134-3.31 3.134-5.688 9.812H71l-3-8-2.25-2.187L64 128c.346-4.326 2.206-7.445 4.395-11.129l1.041-1.767q1.68-2.838 3.376-5.666 1.159-1.953 2.315-3.906 2.884-4.863 5.788-9.715 2.428-4.068 4.847-8.141c2.033-3.41 4.067-6.82 6.113-10.223l1.18-1.964c1.924-3.032 3.59-2.856 7.132-3.114" fill="#020202"/><path d="M110.928 71.625c2.672 1.773 3.658 3.58 5.217 6.379l1.778 3.15 1.89 3.408q.99 1.743 1.985 3.48a939 939 0 0 1 9.191 16.425c1.582 2.88 3.208 5.735 4.823 8.595l1.736 3.278c2.91 5.442 2.91 5.442 7.972 8.477 2.62.282 2.62.282 5.118.135 5.396.11 9.277 3.936 12.862 7.61 2.662 6.1 2.375 12.485.5 18.813-3.67 4.818-7.015 8.067-13.133 9.21-6.651.325-11.304-.365-16.344-4.862C131.55 152.36 130 149.495 130 145H72v-5h58l1-5c1.121-2.02 1.121-2.02 2.437-3.813l1.31-1.832L136 128h2c-14.386-25.612-14.386-25.612-29.71-50.666C107 75 107 75 107 72c2-1 2-1 3.928-.375" fill="#5AC1E5"/><path d="M109.313 39.563c4.764 2.758 7.776 6.292 9.316 11.609.89 5.433.305 10.115-2.629 14.828-2.13 2.307-4.347 4.313-7 6h-2l-1 2c-13.973-.721-13.973-.721-19.25-6.437C82.769 61.733 82.067 57.028 83 50c1.893-5.095 5.068-8.98 9.984-11.375 5.542-1.718 11.026-1.374 16.329.938" fill="#81B342"/><path d="M57 130c4.34 2.253 7.097 4.454 9 9 .547 4.298.315 6.415-1.75 10.25-3.386 4.139-4.676 5.572-10.125 6.188-4.322-.186-6.852-1.545-10.125-4.438-2.642-4.051-3.702-7.184-3-12 3.74-7.063 7.925-9.992 16-9" fill="#050707"/><path d="M104 43c4.316 2.285 7.098 4.456 9 9 .54 5.036.042 7.944-3 12-2.272 2.697-3.812 3.476-7.312 3.875-4.36.347-7.02-.343-10.688-2.875-3.307-2.965-3.788-6.481-4.125-10.75.206-3.701 1.648-5.583 4.125-8.25 4.051-2.642 7.184-3.702 12-3" fill="#040802"/><path d="M153 131c3.438 2.121 5.776 4.104 7 8 .474 4.262.298 6.446-1.75 10.25-3.386 4.139-4.676 5.572-10.125 6.188-4.322-.186-6.852-1.545-10.125-4.438-2.642-4.051-3.702-7.184-3-12 4.296-8.115 9.292-10.339 18-8" fill="#010305"/><path d="M110.926 71.62c2.69 1.79 3.685 3.633 5.254 6.454l1.796 3.181 1.899 3.432a2181 2181 0 0 0 3.996 7.083l1.026 1.818c4.08 7.197 8.46 14.212 12.886 21.2l1.682 2.704 1.488 2.355C142 122 142 122 142 126l-4 1c-5.686-9.148-11.2-18.383-16.625-27.688l-3.282-5.618q-1.058-1.81-2.114-3.624a452 452 0 0 0-7.96-13.093C107 75 107 75 107 72c2-1 2-1 3.926-.38" fill="#E9EBEB"/><path d="m90 71 5 1a66 66 0 0 1-4.504 9.555l-1.481 2.59-1.578 2.73-1.627 2.832a1023 1023 0 0 1-12.754 21.548 542 542 0 0 0-3.283 5.518q-1.073 1.802-2.148 3.602l-1.898 3.21C64 126 64 126 61 127l-2-1c.58-4.378 2.17-7.272 4.5-11q1.212-1.965 2.418-3.934l1.427-2.327a773 773 0 0 0 5.893-9.962l1.134-1.94q2.288-3.921 4.573-7.845a4693 4693 0 0 1 3.262-5.59l1.921-3.297C86 77 87.966 74 90 71" fill="#ECEDED"/><path d="M72 140h58v5H72z" fill="#F1F3F5"/><path d="M161 153c-.965 2.894-1.688 3.84-4.437 5.25-4.879 1.027-9.597.909-14.563.75l-1-4 2-1v2c6.097-.45 12.178-3 18-3" fill="#53CBF8"/><path d="m135 145 2 3 2.625 2.313C142 153 142 153 142 159l14-1c-2.713 2.713-4.334 2.394-8.125 2.5-5.844-.071-9.063-1.133-13.484-4.895C133 154 133 154 132 151h2v2l5 2-2-2.75c-2-3.25-2-3.25-2-7.25" fill="#56B4D6"/><path d="m43 149 2.125 1.875c2.933 2.168 5.387 3.152 8.875 4.125l-4 5c-4.833-.414-6.827-2.464-10-6l2-1c.652-2.025.652-2.025 1-4" fill="#899C9E"/><path d="M160 140h1l.586 5.957c.34 2.343.34 2.343 2.414 5.043-2.056 2.782-3.098 3.017-6.625 3.625L154 155l-1 1a92 92 0 0 1-5.062.063l-2.786-.028L143 156l1-2 3.688.25c3.288 0 4.253-.214 7.187-2 3.644-3.859 4.412-7.018 5.125-12.25" fill="#59BBDD"/><path d="M110 47h2v2h2l1-2h2c2.721 4.803 2.148 9.77 1 15l-2 2 1-10h-2l-1 5h-1l-.402-1.863-.535-2.45-.528-2.425c-.534-2.407-.534-2.407-1.535-5.262" fill="#79A640"/><path d="M133 137h1l.332 2.484.48 3.266.458 3.234c.75 3.097 1.74 4.595 3.73 7.016v2l-5-2v-2h-2c-1.18-3.688-1.21-7.151-1-11z" fill="#52CBF8"/><path d="M150 130c-2.639 1.414-5.071 2.372-8 3v3c-.96.835-.96.835-1.937 1.688-2.964 3.322-2.77 5.924-3.063 10.312-2.356-3.534-2.49-4.836-2-9 3.58-6.76 7.304-9.537 15-9" fill="#092131"/><path d="M62 155c-.375 1.938-.375 1.938-1 4-2.341 1.17-3.894 1.2-6.5 1.25l-2.406.078L50 160l-2-3q2.37-.797 4.75-1.562l2.672-.88c2.656-.575 4.048-.45 6.578.442" fill="#90A5A7"/><path d="M88 64h4v3l4 1v2c1.666.043 3.334.04 5 0l1-1a100 100 0 0 1 5 0l1 2c-5.877 1.068-11.42 1.552-17-1-2.062-3.125-2.062-3.125-3-6" fill="#7FBA36"/><path d="M112 59c.75 1.688.75 1.688 1 4-1.5 2.688-1.5 2.688-4 5-3.687.688-3.687.688-7 1l-1 2-5-1v-2l-4-1 1-2 1.938 1.063c4.214 1.29 7.81 1.05 12.062-.063 2.995-2.246 3.816-3.449 5-7" fill="#7DAA41"/><path d="m100.25 37.875 2.703.055L105 38v1l-2.371.367-3.067.508-3.058.492L94 41l-1 2 6-1c-1 2-1 2-4.062 3.125L92 46v-3l-5 1c4.195-4.495 7.036-6.289 13.25-6.125" fill="#7BA742"/><path d="m90 71 5 1c-1.25 3.46-2.675 6.147-5 9l-2-3-2 1c1.125-2.972 2.223-5.334 4-8" fill="#E5EAE3"/><path d="M144 127c11.457-.4 11.457-.4 15 2 .813 2.625.813 2.625 1 5l-1.504-.84c-4.569-2.436-8.304-3.524-13.496-4.16z" fill="#50CCF9"/><path d="m135 129 6 2c0 2 0 2-1.875 4L137 137l-2 2v-6h-3z" fill="#55B9D9"/><path d="M63 126c2.5 2.313 2.5 2.313 5 5v3l-5 1c-1.108-3.325-.845-5.622 0-9" fill="#87979B"/><path d="m109 71 3 1v7c-1.937-.687-1.937-.687-4-2-.75-2.625-.75-2.625-1-5z" fill="#EFF3EC"/><path d="M161 153c-.562 1.875-.562 1.875-2 4-3.625 1.25-3.625 1.25-7 2l-1-2c6.625-4 6.625-4 10-4" fill="#58C4EE"/><path d="M88 58c2 3 2 3 3 6l-2 6c-1.55-1.207-1.55-1.207-3-3 .145-2.262.145-2.262.813-4.687l.644-2.45z" fill="#7AA744"/><path d="m140 152 13 1-1 2c-7.5.375-7.5.375-12-3" fill="#082835"/><path d="M61 152c2.125.938 2.125.938 4 2-.312 1.938-.312 1.938-1 4l-3 1v-4l-2-2z" fill="#84999A"/><path d="M150 130c3.735.498 5.812.875 9 3v3h2l-1 3-1.625-2.312c-2.577-2.917-4.833-4.159-8.375-5.688z" fill="#5BB4D6"/><path d="m102 39-1 3-8 1 1-3c5.75-1 5.75-1 8-1" fill="#80BA37"/><path d="M163 151c1.208 3.623.543 4.641-1 8h-6l2.375-2.312c2.698-2.597 2.698-2.597 4.625-5.688" fill="#021624"/><path d="M163 140c1.467 3.815.433 6.29-1 10h-1v-9z" fill="#4ECCF8"/><path d="M43 149c1.563 1.813 1.563 1.813 3 4l-1 3-3 1-2-3 2-1c.652-2.025.652-2.025 1-4" fill="#809798"/><path d="M131 109c2.125.938 2.125.938 4 2l-2 1v2h-3l-1-4z" fill="#F4F5F5"/><path d="M159 139h1c.37 6.4.37 6.4-1.5 9.438L157 150c-.625-1.875-.625-1.875-1-4l2-2c.648-2.57.648-2.57 1-5" fill="#031925"/><path d="m105 41 6 1 1 3c-3.106 0-4.353-.54-7-2z" fill="#80BB35"/></svg>