<svg width="62" height="62" viewBox="0 0 62 62" fill="none" xmlns="http://www.w3.org/2000/svg"><rect width="62" height="62" rx="31" fill="white"/><path d="M29.7183 9.00162C29.912 9.00147 30.1057 9.00147 30.2994 9.00235C30.5475 9.00368 30.7957 9.00456 31.0438 9.00427C31.2392 9.00397 31.4347 9.00398 31.6302 9.00442C31.7242 9.00456 31.8183 9.00486 31.9124 9.00501C32.562 9.00471 33.2042 9.01988 33.8461 9.13075C34.0238 9.18346 34.1858 9.24073 34.3534 9.31995C34.5006 9.40578 34.6305 9.49634 34.7618 9.60515C34.8782 9.71911 34.9814 9.83543 35.0823 9.96337C35.1742 10.1015 35.244 10.235 35.3113 10.3868C35.3644 10.5718 35.4032 10.7565 35.4412 10.9452C35.4817 11.2 35.4951 11.4478 35.4981 11.7056C35.4981 11.8025 35.4981 11.8025 35.4981 11.8975C35.5003 12.1064 35.5024 12.3152 35.5035 12.5241C35.5046 12.7398 35.506 12.7322 35.5075 12.9479C35.5089 13.0852 35.5103 13.2228 35.5116 13.3603C35.5117 13.4264 35.5119 13.4907 35.5119 13.5551C35.5128 13.6467 35.5128 13.6467 35.5136 13.7363C35.5144 13.8951 35.5144 13.8952 35.5284 14.0411C35.5435 14.0909 35.558 14.1392 35.5726 14.1875C35.5945 14.2305 35.6156 14.2723 35.6368 14.3141C35.7242 14.3883 35.7242 14.3883 35.8099 14.4609C35.9285 14.5295 35.9285 14.5294 36.071 14.5872C36.1285 14.5991 36.1844 14.6108 36.2403 14.6224C36.6977 14.6826 37.1494 14.7121 37.6104 14.7227C37.7772 14.7256 37.944 14.7287 38.1108 14.7321C38.2341 14.7349 38.2341 14.7349 38.3551 14.7375C38.647 14.7428 38.9297 14.7624 39.2185 14.8056C39.4704 14.8689 39.4704 14.8689 39.7068 14.9694C39.7959 15.035 39.7961 15.035 39.8833 15.0992C39.934 15.1479 39.9832 15.1953 40.0325 15.2426C40.1784 15.3665 40.1785 15.3665 40.3039 15.5156C40.3431 15.584 40.3811 15.6506 40.4192 15.717C40.5298 15.9729 40.6186 16.2277 40.6837 16.4987C40.6979 16.6282 40.7118 16.7579 40.7175 16.8881C40.7186 16.9379 40.72 16.9862 40.7211 17.0346C40.7443 18.1545 40.7443 18.1545 40.7371 19.2748C40.7368 19.3311 40.7364 19.3857 40.7359 19.4403C40.7355 19.5449 40.735 19.6495 40.7346 19.7541C40.733 19.9255 40.734 20.0957 40.738 20.2671C40.7564 20.3413 40.7744 20.4134 40.7922 20.4854C40.8257 20.533 40.8581 20.5793 40.8906 20.6254C40.9494 20.6708 41.0066 20.7147 41.0636 20.7587C41.19 20.8046 41.19 20.8046 41.3415 20.8438C41.7485 20.9405 41.7485 20.9405 42.6509 21.0044C42.813 21.0158 42.9749 21.0275 43.1369 21.0402C43.3759 21.0623 43.5819 21.0923 43.8143 21.1561C43.9051 21.2035 43.9051 21.2035 43.9941 21.2502C44.0776 21.3148 44.0775 21.3149 44.1594 21.3784C44.3107 21.5312 44.4548 21.6842 44.591 21.8509C44.6753 21.9788 44.6751 21.9788 44.73 22.1102C44.7588 22.205 44.7843 22.3007 44.808 22.397C44.8947 22.8919 44.9295 23.3816 44.9344 23.8835C44.9347 23.9642 44.935 24.0425 44.9352 24.121C44.9385 24.4667 44.9415 24.8126 44.9437 25.1583C44.9455 25.4221 44.9472 25.6861 44.9497 25.9498C44.9506 26.0348 44.9513 26.1172 44.9522 26.1997C44.9525 26.2814 44.9528 26.3609 44.9531 26.4403C44.9538 26.5163 44.9546 26.5902 44.9553 26.6641C44.9565 26.8602 44.9565 26.8602 44.9709 27.0392C45.021 27.2187 45.021 27.2189 45.0794 27.3668C45.107 27.4087 45.1339 27.4491 45.1608 27.4896L45.2965 27.5853C45.3704 27.6074 45.4419 27.6288 45.5136 27.6501C45.792 27.6978 45.792 27.6978 46.3886 27.7252C46.7146 27.7376 47.0354 27.7567 47.3586 27.8037C47.5485 27.8414 47.5485 27.8415 47.7386 27.9129C47.9052 27.9985 48.0652 28.091 48.2269 28.1861V28.2953H48.3355C48.4547 28.4389 48.5596 28.5764 48.661 28.7322C48.7779 28.9379 48.7779 28.9379 48.8345 29.0839C48.8809 29.2251 48.881 29.2251 48.9106 29.3794C48.9883 29.8898 49.0017 30.3938 48.9998 30.9089C48.9994 31.0083 48.9991 31.1077 48.9991 31.2071C48.9991 31.4172 48.999 31.6273 48.9984 31.8374C48.9975 32.107 48.9966 32.3767 48.9966 32.6463C48.9968 32.8584 48.9968 33.0704 48.9963 33.2824C48.9962 33.3844 48.996 33.4865 48.9957 33.5885C48.9956 34.2135 48.9839 34.8353 48.9458 35.4592C48.9374 35.5905 48.9292 35.7218 48.9216 35.8532C48.9024 36.1822 48.8766 36.5106 48.845 36.8386C48.7238 37.954 48.5334 39.0671 48.2269 40.1465C47.9216 41.1835 47.5405 42.1829 47.0619 43.1514C46.6196 44.0256 46.1098 44.8525 45.5288 45.6399C45.4417 45.7572 45.3551 45.8747 45.2709 45.9942C45.0734 46.2755 44.8698 46.5492 44.6453 46.8094C44.1606 47.334 43.6623 47.8595 43.1041 48.3055C42.9669 48.4131 42.8358 48.5196 42.7071 48.6377C42.2526 49.0798 41.7448 49.4511 41.2265 49.8132C40.2872 50.4549 39.2836 51.0211 38.2499 51.4944C37.3073 51.9109 36.3253 52.2557 35.3253 52.5029C34.219 52.759 33.08 52.9177 31.9466 52.9807C30.8613 53.0193 29.7692 53.0081 28.6906 52.8716C27.7259 52.7432 26.7872 52.5562 25.8578 52.2646C25.7811 52.2401 25.7811 52.2401 25.7059 52.2163C25.391 52.1176 25.0792 52.0132 24.7711 51.8944C23.581 51.4162 22.4664 50.8312 21.3746 50.1592C21.3343 50.1345 21.2951 50.1105 21.256 50.0863C20.8647 49.8482 20.5002 49.5894 20.1401 49.3054C20.0767 49.2553 20.0151 49.2066 19.9535 49.1578C19.8809 49.1019 19.8105 49.0474 19.7399 48.9931C19.6685 48.9377 19.599 48.884 19.5296 48.8302C19.4155 48.742 19.3028 48.6516 19.1939 48.557V48.4479H19.0853C19.0264 48.3957 19.0264 48.3957 18.9687 48.3447C18.9197 48.2955 18.8721 48.2478 18.8246 48.2001C18.7703 48.1456 18.7176 48.0927 18.665 48.04C18.5792 47.953 18.5793 47.9529 18.4952 47.8676C18.0862 47.4539 17.6864 47.0388 17.3165 46.589C17.2721 46.5339 17.229 46.4805 17.1859 46.4272C16.8153 45.9865 16.4672 45.5302 16.1305 45.0629C15.533 44.2208 15.0052 43.323 14.5593 42.3907C14.2592 41.7422 13.9956 41.0854 13.8048 40.3956C13.792 40.348 13.7795 40.302 13.7671 40.2559C13.753 40.2035 13.7394 40.1527 13.7257 40.102C13.4282 38.9758 13.258 37.8438 13.1543 36.684C13.147 36.5986 13.14 36.5157 13.1329 36.4328C13.0228 35.1485 12.9996 33.8628 13 32.5742C13.0004 32.3307 13.0006 32.0871 13.0003 31.8438C13.0001 31.6812 13 31.5188 13 31.3562C13.0001 31.277 13.0001 31.2002 13.0002 31.1233C12.9994 30.6499 13.0108 30.1861 13.0616 29.7153C13.0977 29.4419 13.1499 29.1801 13.2312 28.9165C13.2658 28.8538 13.2995 28.793 13.333 28.7322C13.3973 28.6462 13.4643 28.5621 13.5331 28.4797C13.6732 28.3292 13.8068 28.2101 13.9707 28.0837L14.2013 27.9677C14.3522 27.9113 14.4998 27.8697 14.6568 27.8337C14.8941 27.7974 15.1283 27.7844 15.368 27.7731C15.6069 27.7631 15.8449 27.7526 16.0831 27.7314C16.2386 27.7102 16.3842 27.6844 16.5347 27.64C16.6016 27.6029 16.6665 27.5668 16.7314 27.5307C16.7753 27.4751 16.8178 27.421 16.8603 27.3668C16.8811 27.2841 16.9013 27.2037 16.9215 27.1233C16.9678 26.8661 16.9836 26.6151 16.9881 26.354C16.9885 26.2964 16.989 26.2405 16.9895 26.1845C16.9924 25.9984 16.9952 25.8123 16.9973 25.6262C17.0075 24.7139 17.0076 23.7987 17.0775 22.8885C17.1052 22.699 17.1369 22.5182 17.1859 22.3332C17.2418 22.1739 17.3058 22.0299 17.3861 21.8817C17.4698 21.7496 17.4698 21.7494 17.5658 21.6324C17.6623 21.5324 17.6623 21.5323 17.7693 21.448C17.9961 21.3018 17.9961 21.3018 18.2328 21.1904C18.3789 21.1305 18.3789 21.1305 18.5427 21.0863C18.7511 21.0585 18.9572 21.0445 19.1672 21.0336C19.6079 21.0163 20.0485 21.0131 20.4815 20.9246C20.6591 20.8678 20.6591 20.8678 20.8627 20.7858C20.9226 20.7394 20.9808 20.6943 21.0389 20.6493C21.079 20.5715 21.1179 20.496 21.1568 20.4206C21.2121 20.2722 21.2121 20.2722 21.256 20.1032C21.2775 19.8975 21.2831 19.6959 21.2847 19.4892C21.284 19.3717 21.2841 19.3717 21.2834 19.2566C21.285 19.0063 21.2865 18.7558 21.2867 18.5054C21.2866 18.2473 21.2867 17.989 21.2873 17.7309C21.2882 17.566 21.2892 17.4009 21.2901 17.236C21.2889 16.9529 21.288 16.6717 21.3103 16.3894C21.3422 16.2236 21.3422 16.2235 21.3879 16.0734C21.4651 15.8515 21.465 15.8514 21.5549 15.6819C21.6491 15.5474 21.7441 15.4203 21.8529 15.2972C21.965 15.1944 21.965 15.1943 22.0869 15.1093C22.1978 15.0322 22.1979 15.0322 22.3414 14.9694C22.523 14.9075 22.6981 14.8506 22.884 14.8056C23.0227 14.7876 23.1588 14.7788 23.2985 14.7732C23.348 14.772 23.396 14.7708 23.4441 14.7696C23.6032 14.7636 23.7622 14.7577 23.9213 14.7527C24.0847 14.7477 24.248 14.7424 24.4113 14.7368C24.5163 14.733 24.6212 14.729 24.7261 14.7252C24.9092 14.7202 25.089 14.7105 25.2719 14.6965C25.5103 14.6471 25.5103 14.647 25.7059 14.5872C25.8087 14.5302 25.8087 14.5302 25.9094 14.4746C25.9693 14.42 26.0276 14.3671 26.0858 14.3141C26.1261 14.2436 26.1652 14.1752 26.2043 14.1068C26.2595 13.9747 26.2595 13.9747 26.3029 13.8226C26.3225 13.6316 26.3259 13.4457 26.3246 13.2537C26.323 13.1836 26.3214 13.1157 26.3199 13.0479C26.3172 12.7092 26.3118 12.5951 26.2891 12.2572C26.2684 11.9867 26.2485 11.7205 26.2494 11.449C26.2655 11.1899 26.2813 10.9335 26.3316 10.6785C26.3816 10.5095 26.4555 10.3533 26.5316 10.1948C26.6098 10.0491 26.6918 9.91802 26.7913 9.7861C26.9021 9.67258 26.9021 9.67258 27.0254 9.57452C27.1812 9.46365 27.3353 9.37325 27.5036 9.28093C27.6466 9.22292 27.7875 9.18007 27.9369 9.14076C28.3992 9.03946 28.8397 9.00191 29.3126 9C29.4479 9.00088 29.5831 9.00162 29.7183 9.00162ZM40.1034 32.8678C39.4642 32.8678 38.9535 33.2029 38.9535 34.1468C38.9535 37.7979 36.2902 42.5835 31.327 42.5835C30.3586 42.5835 30.0559 43.0572 30.0559 43.6894V47.426C30.0559 48.6749 30.8954 48.6749 31.7933 48.6749C38.7362 48.6749 45.0062 41.8828 45.1551 33.9507H45.1534C45.1876 33.2965 44.6431 32.7459 43.9976 32.7459L40.1034 32.8678Z" fill="black"/></svg>