<svg xmlns="http://www.w3.org/2000/svg" xmlns:xlink="http://www.w3.org/1999/xlink" width="62" height="62" viewBox="-1 -1 36 36" version="1.1"><!-- Generator: Sketch 63.1 (92452) - https://sketch.com --><title>blue-horizontal</title><desc>Created with Sketch.</desc><g id="Page-1" stroke="none" stroke-width="1" fill="none" fill-rule="evenodd"><g id="1200XL-Desktop---Home" transform="translate(-20.000000, -90.000000)"><g id="blue-horizontal" transform="translate(20.000000, 90.000000)"><g id="No" transform="translate(0.047484, 0.065122)"><path d="M16.6923014,0.0459000038 C7.49700062,0.0459000038 0.0459000038,7.49700062 0.0459000038,16.6923014 C0.0459000038,25.8876021 7.49700062,33.3387028 16.6923014,33.3387028 C25.8876021,33.3387028 33.3387028,25.8876021 33.3387028,16.6923014 C33.3387028,7.49700062 25.8876021,0.0459000038 16.6923014,0.0459000038" id="Fill-1" fill="#1D4371"/><path d="M28.9476024,24.066902 L27.8460023,24.166352 L24.533552,24.434102 C24.158702,24.441752 23.814452,24.296402 23.5620019,24.059252 L22.3609518,22.9041019 L21.1675518,21.7872018 C21.0298517,21.6724518 20.8462517,21.6112518 20.6550017,21.6265518 C20.3107517,21.6571518 20.0506517,21.9249018 20.0277017,22.2691518 C20.0200517,22.4374519 20.0659517,22.5904519 20.1501017,22.7205019 L20.1654017,22.7434519 L22.2538518,25.2297021 L23.0035519,26.0482522 C23.4472519,26.4766522 23.4549019,27.1728022 23.0341519,27.6165023 C22.6057519,28.0602023 21.9096018,28.0678523 21.4659018,27.6471023 L20.6167517,26.9356522 L17.4496514,24.235202 L17.2966514,24.105152 C17.1742514,23.990402 17.0059514,23.921552 16.8300014,23.929202 C16.6540514,23.936852 16.4857514,24.005702 16.3710014,24.120452 L16.2256513,24.258152 L13.1580011,27.0733522 L12.331801,27.8154023 C11.903401,28.2591023 11.2072509,28.2667523 10.7635509,27.8460023 C10.3198509,27.4176023 10.3122009,26.7214522 10.7329509,26.2777522 L11.4520509,25.4362521 L13.4487011,22.8735019 L13.4640011,22.8505519 C13.5481511,22.7205019 13.5940511,22.5675019 13.5711011,22.3992019 C13.5328511,22.0549518 13.2651011,21.7948518 12.9208511,21.7795518 C12.7219511,21.7719018 12.546001,21.8407518 12.415951,21.9631518 L11.2684509,23.1259519 L10.1133008,24.327002 C9.86850082,24.571802 9.53190079,24.724802 9.15705076,24.732452 L5.83695048,24.587102 L4.72770039,24.533552 C4.11570034,24.541202 3.6108003,24.059252 3.59541048,23.4472519 C3.5878503,22.8352519 4.06980034,22.3303518 4.68180039,22.3150518 L5.78340048,22.2232518 L8.25435068,21.9172518 C8.89695074,21.7872018 9.37890078,21.2058018 9.36360077,20.5249517 L9.21825076,12.8673011 C9.14175076,8.78220073 12.393001,5.40855045 16.4781014,5.33205044 C20.5632017,5.25555043 23.936852,8.5068007 24.013352,12.591901 L24.158702,20.2495517 C24.174002,20.9304017 24.671252,21.4888518 25.3215021,21.5959518 L27.8001023,21.8101518 L28.9093524,21.8560518 C29.5213524,21.8484018 30.0262525,22.3303518 30.0416409,22.9423519 C30.0492025,23.5543519 29.5596024,24.059252 28.9476024,24.066902" id="Fill-5" fill="#FFFFFF"/><path d="M21.7260018,12.247651 C20.8462517,11.643301 19.9512016,11.0619009 19.0332016,10.5111009 C18.5512515,10.2204008 17.9928015,10.6105509 18.0004515,11.1690009 C18.0081015,11.4673509 18.1611015,11.666251 18.3982515,11.819251 C18.8725516,12.125251 19.3468516,12.438901 19.8670516,12.7755011 C19.3086016,13.1121011 18.7960516,13.4028011 18.2988015,13.7164511 C17.9392515,13.9459512 17.8627515,14.3590512 18.0693015,14.7033012 C18.2682015,15.0322512 18.6736515,15.1699513 19.0179016,14.9710512 C19.9129516,14.4585012 20.8003517,13.9383012 21.6801018,13.3875011 C22.1085018,13.1274011 22.1314518,12.530701 21.7260018,12.247651" id="Fill-7" fill="#1D4371"/><path d="M14.7874512,13.6399511 C14.3284512,13.3645511 13.8694511,13.0968011 13.3416011,12.7755011 C13.8618011,12.438901 14.3208012,12.148201 14.7721512,11.849851 C15.2388013,11.543851 15.3612013,11.1307509 15.1011012,10.7482509 C14.8486512,10.3810509 14.4355512,10.3351509 13.9765512,10.6258509 C13.2115511,11.1154509 12.446551,11.612701 11.681551,12.109951 C11.0389509,12.530701 11.0542509,13.1197511 11.712151,13.5175511 C12.484801,13.9765512 13.2574511,14.4355512 14.0301012,14.8869012 C14.4891012,15.1546513 14.9175012,15.0858012 15.1393513,14.7109512 C15.3765013,14.3284512 15.2388013,13.9077011 14.7874512,13.6399511" id="Fill-9" fill="#1D4371"/></g><g id="Blue" transform="translate(39.556060, 7.016071)" fill="#1D4371">></g></g></g></g></svg>