<svg width="62" height="62" viewBox="40 40 500 500" fill="none" xmlns="http://www.w3.org/2000/svg">
<rect x="40" y="40" width="500" height="500" rx="100" fill="url(#paint0_linear)"/>
<g clip-path="url(#clip0)">
<path fill-rule="evenodd" clip-rule="evenodd" d="M399.317 288.907C399.317 349.885 349.885 399.317 288.907 399.317C227.929 399.317 178.497 349.885 178.497 288.907C178.497 227.929 227.929 178.497 288.907 178.497C349.885 178.497 399.317 227.929 399.317 288.907ZM288.907 373.081C335.395 373.081 373.081 335.395 373.081 288.907C373.081 242.419 335.395 204.733 288.907 204.733C242.419 204.733 204.733 242.419 204.733 288.907C204.733 335.395 242.419 373.081 288.907 373.081Z" fill="white"/>
<path fill-rule="evenodd" clip-rule="evenodd" d="M253.252 301.182C253.792 300.986 254.389 301.266 254.6 301.801C260.011 315.474 273.349 325.115 288.907 325.115C304.465 325.115 317.803 315.474 323.213 301.801C323.425 301.266 324.021 300.986 324.562 301.182L347.264 309.426C347.805 309.623 348.084 310.222 347.879 310.759C338.817 334.476 315.849 351.351 288.907 351.351C261.965 351.351 238.997 334.476 229.935 310.759C229.729 310.222 230.009 309.623 230.55 309.426L253.252 301.182Z" fill="white"/>
<path fill-rule="evenodd" clip-rule="evenodd" d="M410.248 401.503V358.818C410.248 358.243 410.715 357.776 411.29 357.776H435.443C436.018 357.776 436.484 358.243 436.484 358.818V401.503C436.484 420.823 420.823 436.484 401.503 436.484H358.818C358.243 436.484 357.776 436.018 357.776 435.443V411.29C357.776 410.715 358.243 410.248 358.818 410.248H401.503C406.333 410.248 410.248 406.333 410.248 401.503Z" fill="white"/>
<path fill-rule="evenodd" clip-rule="evenodd" d="M169.752 178.497V221.182C169.752 221.757 169.285 222.224 168.71 222.224H144.557C143.982 222.224 143.516 221.757 143.516 221.182V178.497C143.516 159.177 159.177 143.516 178.497 143.516H221.182C221.757 143.516 222.224 143.982 222.224 144.557V168.71C222.224 169.285 221.757 169.752 221.182 169.752H178.497C173.667 169.752 169.752 173.667 169.752 178.497Z" fill="white"/>
</g>
<defs>
<linearGradient id="paint0_linear" x1="166.582" y1="427.658" x2="464.051" y2="163.418" gradientUnits="userSpaceOnUse">
<stop stop-color="#4361EE"/>
<stop offset="1" stop-color="#7B61FF"/>
</linearGradient>
<clipPath id="clip0">
<rect width="292.969" height="292.969" fill="white" transform="translate(143.516 143.516)"/>
</clipPath>
</defs>
</svg>
