<svg width="64" height="64" viewBox="0 0 64 64" fill="none" xmlns="http://www.w3.org/2000/svg"><g clip-path="url(#clip0_299_22)"><g style="mix-blend-mode:multiply"><path d="M64 0H0V64H64V0Z" fill="black"/><path d="M46.366 45.8069C47.7154 48.0518 48.8161 48.798 51.0672 49.0654V51.3103H39.961L29.5577 33.9546H26.9584V45.3343C26.9584 48.3814 27.7108 48.8042 30.9132 49.0715V51.3164H14.1484V49.0715C17.3509 48.8042 18.1034 48.3751 18.1034 45.3343V19.9071C18.1034 16.8104 17.4505 16.4373 14.1484 16.1699V13.925H31.4045C41.808 13.925 47.2428 16.114 47.2428 23.8061C47.2428 29.6266 44.4135 32.4062 38.7113 33.3639L46.366 45.8069ZM28.457 17.5567C27.5553 17.5567 26.9584 18.197 26.9584 19.161V30.323H31.2615C35.7139 30.323 38.363 28.7186 38.363 23.8061C38.363 18.8376 35.7139 17.5567 31.4108 17.5567H28.457Z" fill="white"/><path d="M40.1179 15.2551H23.9375V30.7017H40.1179V15.2551Z" fill="white"/><path d="M38.0384 17.95C37.1616 19.573 38.5172 27.2216 38.5172 27.2216C38.5359 27.6259 38.2622 27.9803 37.8643 28.0673C37.8643 28.0673 29.5689 28.1047 26.8203 30.3931" fill="black"/></g></g><defs><clipPath id="clip0_299_22"><rect width="64" height="64" fill="white"/></clipPath></defs></svg>