<svg xmlns="http://www.w3.org/2000/svg" width="62" height="62" fill="none" xmlns:v="https://vecta.io/nano"><path fill-rule="evenodd" d="M53 31c0 12.15-9.85 22-22 22S9 43.15 9 31 18.85 9 31 9s22 9.85 22 22zm-30.804 8.704H33.1c.167 0 .251-.209.167-.355l-8.811-10.916c-.126-.146-.335-.083-.377.083l-2.114 10.916c-.021.146.084.271.23.271zm-.205-16.477h10.904c.147 0 .251.125.23.271l-2.114 10.916c-.042.167-.251.23-.377.084l-8.811-10.937c-.105-.125-.021-.334.168-.334zm12.012.167c.021-.084.105-.167.209-.167h7.848c.126 0 .251.125.23.25l-1.465 7.096c-.021.104-.105.167-.209.167h-.23c-3.872 0-6.948-3.569-6.383-7.347z" fill="#3901f1"/></svg>