<svg width="62" height="62" viewBox="0 0 62 62" fill="none" xmlns="http://www.w3.org/2000/svg"><path d="M39.7173 9H22.2494C14.932 9 9 14.9365 9 22.2594V39.7406C9 47.0635 14.932 53 22.2494 53H39.7173C47.0348 53 52.9668 47.0635 52.9668 39.7406V22.2594C52.9668 14.9365 47.0348 9 39.7173 9Z" fill="#ECE0F5"/><path d="M24.4476 29.2559C27.042 29.2559 29.1414 31.3567 29.1414 33.9532V40.0774C29.1414 42.654 27.0618 44.7549 24.4674 44.7549H19.7538V33.9532C19.7538 31.3567 21.8532 29.2756 24.4476 29.2756V29.2559Z" fill="#5A1CB7"/><path d="M24.4476 26.7768C21.8532 26.7768 19.7538 24.6759 19.7538 22.0994C19.7538 19.5029 21.8532 17.4219 24.4476 17.4219C27.042 17.4219 29.1414 19.5228 29.1414 22.0994C29.1414 24.6958 27.042 26.7768 24.4476 26.7768Z" fill="#E23393"/><path d="M42.1136 44.7351H37.4199C34.8453 44.7351 32.746 42.654 32.746 40.0576V33.9333C32.746 31.3369 34.8453 29.2559 37.4397 29.2559C40.0342 29.2559 42.1335 31.3567 42.1335 33.9333V44.7351H42.1136Z" fill="#5A1CB7"/><path d="M37.4397 17.4043C40.0342 17.4043 42.1136 19.5052 42.1136 22.0818C42.1136 24.6782 40.0143 26.7791 37.4397 26.7791C34.8453 26.7791 32.746 24.6782 32.746 22.0818C32.746 19.4854 34.8453 17.4043 37.4397 17.4043Z" fill="#5A1CB7"/></svg>