<svg data-v-9ec25a00="" xmlns="http://www.w3.org/2000/svg" width="62" height="62" viewBox="0 0 89.457 89.713" class="rt-fill-T800" id="sTest-recruitcrmIcon"><g data-name="Group 3116"><path fill="#1070ca" fill-rule="evenodd" d="M67.444 1.93C62.399.763 54.106 0 44.731 0S27.062.762 22.018 1.93A26.09 26.09 0 0 0 1.924 22.079C.76 27.138 0 35.455 0 44.857s.76 17.719 1.924 22.779a26.09 26.09 0 0 0 20.091 20.148c5.045 1.168 13.338 1.93 22.713 1.93s17.668-.762 22.713-1.93a26.09 26.09 0 0 0 20.091-20.148c1.164-5.06 1.924-13.376 1.924-22.779s-.76-17.719-1.924-22.778A26.09 26.09 0 0 0 67.444 1.93" data-name="Group 3114"></path><g fill="#fff" data-name="Group 3115"><path d="M45.071 71.042a50 50 0 0 1-7.227-1.563c-9.065-3.4-14.289-10.088-14.9-19.7-.5-7.844-.1-15.744-.1-23.777h22.233Z" data-name="Path 6181"></path><path d="M71.137 37.006a11.169 11.169 0 1 1-11.272-11.155 11.147 11.147 0 0 1 11.272 11.155" data-name="Path 6182"></path></g></g></svg>