<svg version="1.1" id="Layer_1" xmlns="http://www.w3.org/2000/svg" xmlns:xlink="http://www.w3.org/1999/xlink" x="0px" y="0px"
	 height="64" width="64" viewBox="0 0 780 414" enable-background="new 0 0 780 414" xml:space="preserve">
<path fill="#E5EBEF" opacity="1.000000" stroke="none" 
	d="
M1.000000,147.000000 
	C1.000000,98.000008 1.000000,49.500019 1.000000,1.000020 
	C260.999939,1.000013 520.999878,1.000013 780.999878,1.000006 
	C780.999878,138.999924 780.999878,276.999847 780.999939,414.999817 
	C521.000122,414.999878 261.000244,414.999878 1.000190,414.999939 
	C1.000000,325.833344 1.000000,236.666672 1.000000,147.000000 
M720.500000,413.000000 
	C737.666077,413.000000 754.832092,413.001007 771.998169,412.999512 
	C778.996582,412.998901 778.999573,412.996429 778.999573,405.975403 
	C779.000183,273.981476 779.000183,141.987549 778.999573,9.993610 
	C778.999512,3.003353 778.996460,3.000278 771.967163,3.000263 
	C517.978821,2.999734 263.990540,2.999730 10.002205,3.000286 
	C3.003398,3.000301 3.000309,3.003529 3.000276,10.024323 
	C2.999654,141.851593 2.996723,273.678864 3.007152,405.506134 
	C3.007809,413.807922 2.211125,412.991974 10.532624,412.992310 
	C246.855087,413.001831 483.177551,413.000000 720.500000,413.000000 
z"/>
<path fill="#FFFFFF" opacity="1.000000" stroke="none" 
	d="
M720.000000,413.000000 
	C483.177551,413.000000 246.855087,413.001831 10.532624,412.992310 
	C2.211125,412.991974 3.007809,413.807922 3.007152,405.506134 
	C2.996723,273.678864 2.999654,141.851593 3.000276,10.024323 
	C3.000309,3.003529 3.003398,3.000301 10.002205,3.000286 
	C263.990540,2.999730 517.978821,2.999734 771.967163,3.000263 
	C778.996460,3.000278 778.999512,3.003353 778.999573,9.993610 
	C779.000183,141.987549 779.000183,273.981476 778.999573,405.975403 
	C778.999573,412.996429 778.996582,412.998901 771.998169,412.999512 
	C754.832092,413.001007 737.666077,413.000000 720.000000,413.000000 
M322.910950,106.397102 
	C303.491241,119.378021 288.516541,136.257339 278.731659,157.508133 
	C276.899048,161.488235 274.469604,163.191772 270.251251,163.844162 
	C247.731567,167.326920 229.790939,178.545624 216.456543,196.932816 
	C192.827087,229.516235 196.860840,275.790588 225.448486,303.463074 
	C228.345947,306.267792 230.540573,307.049500 233.842407,304.038574 
	C241.068649,297.449005 249.558746,293.007721 258.820404,289.805542 
	C267.188843,286.912170 268.503601,282.855469 263.815125,275.402405 
	C257.871704,265.954529 254.223221,255.711334 252.411087,244.747971 
	C250.086777,230.685913 254.408417,219.193787 266.491364,211.527725 
	C277.252625,204.700195 288.783722,204.683609 299.521393,211.605759 
	C311.523926,219.343323 315.848450,230.732269 313.456238,244.860443 
	C311.539062,256.183044 307.655701,266.650818 301.525726,276.366821 
	C297.588013,282.608154 298.973236,286.339539 305.840973,289.218750 
	C306.606812,289.539795 307.387238,289.826843 308.165100,290.118469 
	C314.200165,292.381012 314.443665,293.312042 310.325562,298.383514 
	C309.380432,299.547424 308.314789,300.636017 307.518829,301.894745 
	C302.812256,309.337830 298.065277,316.760132 293.609314,324.352203 
	C292.892273,325.573883 293.567627,327.612793 293.599335,329.273926 
	C295.172607,328.872040 296.815247,328.633331 298.292542,328.005615 
	C299.145447,327.643158 299.735626,326.656799 300.437134,325.944427 
	C316.083862,310.054474 333.806122,297.481720 355.390961,290.800385 
	C363.492004,288.292816 366.464722,280.841675 362.659546,273.193939 
	C359.920044,267.687988 356.447357,262.549561 353.646149,257.071075 
	C345.587585,241.310547 340.305664,224.785477 340.830261,206.829849 
	C341.643890,178.982590 363.369751,157.740707 390.965546,157.731125 
	C418.545776,157.721542 440.368439,179.051102 441.130249,206.815033 
	C441.622894,224.768051 436.386841,241.297302 428.300537,257.050049 
	C425.566254,262.376678 422.232086,267.395935 419.511261,272.728699 
	C415.372498,280.840607 418.416870,287.964966 427.004669,290.991516 
	C430.296112,292.151520 433.615723,293.249939 436.843079,294.570526 
	C454.426147,301.765411 468.998505,313.218018 482.283264,326.561066 
	C483.741486,328.025696 486.289978,328.404785 488.332764,329.287384 
	C488.074249,327.027802 488.509705,324.346985 487.437836,322.581055 
	C482.613342,314.632355 477.612976,306.762115 472.186462,299.215668 
	C467.541229,292.755737 467.323853,292.679657 474.761230,289.804382 
	C483.341187,286.487396 484.595215,282.932861 479.648682,275.016418 
	C473.551819,265.259033 469.826996,254.691666 468.247223,243.332031 
	C466.361633,229.773392 471.003937,218.889603 482.494995,211.587433 
	C493.269989,204.740295 504.752045,204.741119 515.520935,211.607056 
	C526.998413,218.924744 531.677185,229.810211 529.732300,243.362411 
	C528.130432,254.524704 524.593689,264.998291 518.610779,274.635223 
	C513.283997,283.215393 514.830139,286.114136 524.156250,290.368042 
	C532.395691,294.126312 540.285095,298.841370 547.801025,303.916107 
	C551.532166,306.435333 553.545532,306.504059 556.594238,303.311310 
	C578.678040,280.184631 586.360046,252.935043 577.623230,222.320084 
	C569.008667,192.133316 548.613647,172.511505 517.888184,165.257919 
	C509.119324,163.187805 504.455048,159.544189 500.145386,151.644699 
	C464.839752,86.929886 386.338745,66.895103 322.910950,106.397102 
z"/>
<path fill="#1A9AE3" opacity="1.000000" stroke="none" 
	d="
M323.218201,106.207115 
	C386.338745,66.895103 464.839752,86.929886 500.145386,151.644699 
	C504.455048,159.544189 509.119324,163.187805 517.888184,165.257919 
	C548.613647,172.511505 569.008667,192.133316 577.623230,222.320084 
	C586.360046,252.935043 578.678040,280.184631 556.594238,303.311310 
	C553.545532,306.504059 551.532166,306.435333 547.801025,303.916107 
	C540.285095,298.841370 532.395691,294.126312 524.156250,290.368042 
	C514.830139,286.114136 513.283997,283.215393 518.610779,274.635223 
	C524.593689,264.998291 528.130432,254.524704 529.732300,243.362411 
	C531.677185,229.810211 526.998413,218.924744 515.520935,211.607056 
	C504.752045,204.741119 493.269989,204.740295 482.494995,211.587433 
	C471.003937,218.889603 466.361633,229.773392 468.247223,243.332031 
	C469.826996,254.691666 473.551819,265.259033 479.648682,275.016418 
	C484.595215,282.932861 483.341187,286.487396 474.761230,289.804382 
	C467.323853,292.679657 467.541229,292.755737 472.186462,299.215668 
	C477.612976,306.762115 482.613342,314.632355 487.437836,322.581055 
	C488.509705,324.346985 488.074249,327.027802 488.332764,329.287354 
	C486.289978,328.404785 483.741486,328.025696 482.283264,326.561066 
	C468.998505,313.218018 454.426147,301.765411 436.843079,294.570526 
	C433.615723,293.249939 430.296112,292.151520 427.004669,290.991516 
	C418.416870,287.964966 415.372498,280.840607 419.511261,272.728699 
	C422.232086,267.395935 425.566254,262.376678 428.300537,257.050049 
	C436.386841,241.297302 441.622894,224.768051 441.130249,206.815033 
	C440.368439,179.051102 418.545776,157.721542 390.965546,157.731125 
	C363.369751,157.740707 341.643890,178.982590 340.830261,206.829849 
	C340.305664,224.785477 345.587585,241.310547 353.646149,257.071075 
	C356.447357,262.549561 359.920044,267.687988 362.659546,273.193939 
	C366.464722,280.841675 363.492004,288.292816 355.390961,290.800385 
	C333.806122,297.481720 316.083862,310.054474 300.437134,325.944427 
	C299.735626,326.656799 299.145447,327.643158 298.292542,328.005615 
	C296.815247,328.633331 295.172607,328.872040 293.599335,329.273926 
	C293.567627,327.612793 292.892273,325.573883 293.609314,324.352203 
	C298.065277,316.760132 302.812256,309.337830 307.518829,301.894745 
	C308.314789,300.636017 309.380432,299.547424 310.325562,298.383514 
	C314.443665,293.312042 314.200165,292.381012 308.165100,290.118469 
	C307.387238,289.826843 306.606812,289.539795 305.840973,289.218750 
	C298.973236,286.339539 297.588013,282.608154 301.525726,276.366821 
	C307.655701,266.650818 311.539062,256.183044 313.456238,244.860443 
	C315.848450,230.732269 311.523926,219.343323 299.521393,211.605759 
	C288.783722,204.683609 277.252625,204.700195 266.491364,211.527725 
	C254.408417,219.193787 250.086777,230.685913 252.411087,244.747971 
	C254.223221,255.711334 257.871704,265.954529 263.815125,275.402405 
	C268.503601,282.855469 267.188843,286.912170 258.820404,289.805542 
	C249.558746,293.007721 241.068649,297.449005 233.842407,304.038574 
	C230.540573,307.049500 228.345947,306.267792 225.448486,303.463074 
	C196.860840,275.790588 192.827087,229.516235 216.456543,196.932816 
	C229.790939,178.545624 247.731567,167.326920 270.251251,163.844162 
	C274.469604,163.191772 276.899048,161.488235 278.731659,157.508133 
	C288.516541,136.257339 303.491241,119.378021 323.218201,106.207115 
z"/>
</svg>