<svg xmlns="http://www.w3.org/2000/svg" width="62" height="62" fill="none"><path d="M31 52.999c12.15 0 22-9.849 22-22S43.15 9 31 9 9 18.85 9 30.999s9.85 22 22 22z" fill="#ff4500"/><path d="M45.675 31a3.2 3.2 0 0 0-3.203-3.203c-.865 0-1.652.341-2.23.892-2.206-1.575-5.224-2.599-8.585-2.73l1.472-6.878 4.777 1.024c.052 1.208 1.051 2.179 2.285 2.179 1.26 0 2.283-1.024 2.283-2.284s-1.023-2.284-2.283-2.284c-.894 0-1.681.525-2.049 1.286l-5.328-1.129c-.157-.026-.314 0-.421.079-.131.079-.209.21-.236.368l-1.628 7.666c-3.412.105-6.484 1.129-8.714 2.73a3.23 3.23 0 0 0-2.233-.893 3.2 3.2 0 0 0-3.203 3.203c0 1.313.787 2.415 1.89 2.914-.052.315-.079.63-.079.971 0 4.935 5.749 8.952 12.837 8.952s12.839-3.99 12.839-8.952c0-.315-.028-.657-.081-.971 1.103-.499 1.89-1.628 1.89-2.94zm-21.998 2.284c0-1.26 1.023-2.284 2.283-2.284s2.285 1.024 2.285 2.284-1.025 2.284-2.285 2.284c-1.26.026-2.283-1.024-2.283-2.284zm12.785 6.064c-1.576 1.575-4.568 1.68-5.435 1.68-.892 0-3.885-.131-5.433-1.68-.238-.236-.238-.604 0-.84s.604-.236.839 0c.999.998 3.098 1.339 4.594 1.339s3.624-.341 4.594-1.339a.59.59 0 0 1 .842 0 .64.64 0 0 1 0 .84zm-.421-3.754c-1.26 0-2.283-1.024-2.283-2.284s1.023-2.284 2.283-2.284 2.285 1.024 2.285 2.284c0 1.234-1.025 2.284-2.285 2.284z" fill="#fff"/></svg>