<svg width="62" height="62" viewBox="0 0 62 62" fill="none" xmlns="http://www.w3.org/2000/svg"><path d="M31 53C26.6488 53 22.3953 51.7097 18.7775 49.2923C15.1596 46.8749 12.3398 43.439 10.6747 39.419C9.00953 35.3991 8.57386 30.9756 9.42273 26.708C10.2716 22.4404 12.3669 18.5204 15.4437 15.4437C18.5204 12.3669 22.4404 10.2716 26.708 9.42273C30.9756 8.57386 35.3991 9.00953 39.419 10.6747C43.439 12.3398 46.8749 15.1596 49.2923 18.7775C51.7097 22.3953 53 26.6488 53 31C53 36.8348 50.6822 42.4306 46.5564 46.5564C42.4306 50.6822 36.8348 53 31 53ZM51.1667 31C51.1667 27.0114 49.9839 23.1124 47.768 19.796C45.552 16.4796 42.4024 13.8948 38.7175 12.3684C35.0325 10.8421 30.9776 10.4427 27.0657 11.2208C23.1537 11.999 19.5604 13.9197 16.74 16.74C13.9197 19.5604 11.999 23.1537 11.2208 27.0657C10.4427 30.9776 10.8421 35.0325 12.3684 38.7175C13.8948 42.4024 16.4796 45.552 19.796 47.768C23.1124 49.9839 27.0114 51.1667 31 51.1667C36.3485 51.1667 41.478 49.042 45.26 45.26C49.042 41.478 51.1667 36.3485 51.1667 31Z" fill="#C81414"/><path d="M21.531 42.3936C21.8335 42.3936 22.191 42.2745 22.3743 41.6145C22.5577 40.9545 23.181 38.7911 23.3918 38.0486C23.7019 37.1974 24.2038 36.4289 24.8585 35.8028C25.0877 37.2786 25.2618 39.4145 25.4635 40.7436C25.4818 40.9146 25.5635 41.0724 25.6925 41.1861C25.8214 41.2998 25.9883 41.3611 26.1602 41.3578C26.2393 41.3556 26.3172 41.3372 26.3889 41.3037C26.4606 41.2702 26.5247 41.2223 26.5771 41.163C26.6296 41.1037 26.6693 41.0342 26.6937 40.9589C26.7182 40.8836 26.7269 40.8041 26.7193 40.7253C26.7193 40.4136 26.7193 40.2028 26.6552 39.4786C26.6726 37.9682 26.8601 36.4645 27.2143 34.9961C27.4068 34.4095 28.4152 33.7311 28.901 33.9236C30.2677 34.4262 31.6078 34.9983 32.916 35.6378C33.466 35.9495 33.9335 37.3428 34.1168 38.3878C34.3002 39.4328 34.676 41.8711 34.9143 43.1453C34.9208 43.3225 34.9928 43.4909 35.1165 43.6179C35.2401 43.745 35.4066 43.8215 35.5835 43.8328C35.7513 43.8246 35.9105 43.7562 36.0317 43.6399C36.153 43.5237 36.2282 43.3676 36.2435 43.2003C36.3352 41.6511 36.3718 38.617 36.491 36.9945C36.4868 36.7955 36.5523 36.6014 36.6762 36.4457C36.8001 36.29 36.9746 36.1826 37.1693 36.142C37.701 35.9861 37.8202 36.4261 37.9852 37.0586C38.3152 38.2686 39.1493 41.7245 39.1493 41.7245C39.1692 41.8939 39.2499 42.0504 39.3762 42.165C39.5026 42.2796 39.6663 42.3445 39.8368 42.3478C39.9134 42.3436 39.9883 42.3234 40.0566 42.2885C40.125 42.2536 40.1852 42.2048 40.2336 42.1452C40.2819 42.0857 40.3173 42.0166 40.3373 41.9426C40.3574 41.8685 40.3618 41.7911 40.3502 41.7153C40.2218 40.4228 39.8827 38.0486 39.6902 36.0961C39.5985 35.1336 39.5527 33.832 39.406 32.7595C39.1952 31.2011 39.076 31.1461 38.9843 30.1011C38.8799 29.5129 38.8799 28.911 38.9843 28.3228C39.2227 27.4978 40.0202 25.7745 40.2768 25.7836C40.7535 25.7836 41.5235 25.8845 42.0368 25.9395C42.3144 25.9671 42.5946 25.9255 42.8521 25.8183C43.1097 25.7111 43.3367 25.5417 43.5127 25.3253L44.2185 24.3353C44.5027 23.9411 44.3285 23.7028 43.9893 23.602C43.201 23.3545 41.6427 22.9328 40.8452 22.6853C40.0477 22.4378 40.1577 21.6495 38.8835 21.6128C38.2674 21.5692 37.6507 21.6894 37.096 21.9611C36.1152 20.6686 35.941 22.0711 35.0335 23.0245C33.686 24.4361 33.8968 24.8578 36.3168 24.3445C36.0662 25.0683 35.684 25.7396 35.1893 26.3245C34.3918 27.3328 33.4843 27.1861 32.5768 27.6995C31.6693 28.2128 27.5077 27.8736 25.1885 28.5611C23.7301 27.8736 22.5799 26.6678 21.9618 25.1786C21.4054 23.5536 21.2176 21.8252 21.4118 20.1186C21.256 20.0453 20.6143 20.4028 20.1652 21.3653C19.716 22.3278 19.7068 22.9695 19.4777 23.0703C19.2485 23.1711 18.9185 22.722 18.781 22.777C18.6435 22.832 18.6068 23.3911 18.9277 24.1703C19.1752 24.7936 19.7893 25.2153 19.6427 25.5178C19.496 25.8203 18.9827 25.472 18.9093 25.6095C18.836 25.747 19.3218 26.3611 19.8993 26.7186C20.4768 27.0761 20.9902 27.2411 20.9902 27.4978C20.9902 27.7545 20.4218 27.5711 20.3852 27.7636C20.3485 27.9561 21.4943 28.6253 22.6677 28.9095C24.0885 29.2486 24.0702 29.4045 23.8318 29.9545C22.8418 32.237 21.6685 38.4428 21.0818 41.5411C20.8343 42.0545 21.1827 42.3936 21.531 42.3936Z" fill="#C81414"/></svg>