<svg xmlns="http://www.w3.org/2000/svg" width="62" height="62" fill="none"><g clip-path="url(#A)"><path d="M12.61 28.415V11.829A2.83 2.83 0 0 1 15.439 9h34.732A2.83 2.83 0 0 1 53 11.829v34.732a2.83 2.83 0 0 1-2.829 2.829H33.585c-.78 0-1.366-.683-1.366-1.366V34.951a5.21 5.21 0 0 0-5.171-5.171H13.976a1.33 1.33 0 0 1-1.366-1.366z" fill="#0138ff"/><path d="M26.366 53H11.829A2.83 2.83 0 0 1 9 50.171V35.634a2.83 2.83 0 0 1 2.829-2.829h14.537a2.83 2.83 0 0 1 2.829 2.829v14.536A2.83 2.83 0 0 1 26.366 53z" fill="#5a7fff"/></g><defs><clipPath id="A"><path fill="#fff" transform="translate(9 9)" d="M0 0h44v44H0z"/></clipPath></defs></svg>