<svg width="62" height="62" viewBox="0 0 62 62" fill="none" xmlns="http://www.w3.org/2000/svg"><rect width="62" height="62" rx="31" fill="white"/><path d="M42.3905 9.01245C36.6687 8.74295 31.8599 12.879 31.0385 18.3295C31.0055 18.5825 30.956 18.8281 30.9157 19.072C29.6397 25.8608 23.6997 31.0015 16.5662 31.0015C14.1145 31.0064 11.7016 30.3888 9.5537 29.2066C9.49703 29.1743 9.43284 29.1576 9.36763 29.1581C9.30241 29.1585 9.23848 29.1762 9.18229 29.2093C9.1261 29.2425 9.07966 29.2898 9.04766 29.3466C9.01565 29.4035 8.99922 29.4677 9.00003 29.533V52.9996H30.9084V36.5015C30.9084 33.4655 33.3614 31.0015 36.3845 31.0015H41.8625C48.0629 31.0015 53.0514 25.837 52.8075 19.5541C52.5875 13.9001 48.0225 9.28195 42.3905 9.01245Z" fill="black"/></svg>