<svg width="62" height="62" viewBox="0 0 62 62" fill="none" xmlns="http://www.w3.org/2000/svg"><path d="M50.3225 32.3393C50.3225 35.7831 49.9361 38.8438 49.164 42.2876C48.0053 47.2615 44.5296 50.705 39.5091 51.8527C32.9439 53.3832 25.9924 53.3832 19.4272 51.8527C14.7929 50.705 10.931 46.8787 10.1586 42.2876C9.3862 38.8438 9 35.4003 9 32.3393C9 28.8959 9.3862 25.835 10.1586 22.3915C11.3171 17.4175 14.7929 13.9739 19.8134 12.8261C22.9029 12.0608 26.3786 11.6782 29.8543 11.6782C33.3299 11.6782 36.4195 12.0608 39.8952 12.8261C44.9157 13.9739 48.3916 17.4175 49.5501 22.3915C49.9361 25.4524 50.3225 28.8959 50.3225 32.3393Z" fill="#80ADFD"/><path d="M42.475 30.0438C48.2861 30.0438 52.9969 25.333 52.9969 19.5219C52.9969 13.7108 48.2861 9 42.475 9C36.6639 9 31.9531 13.7108 31.9531 19.5219C31.9531 25.333 36.6639 30.0438 42.475 30.0438Z" fill="#005AFF"/></svg>