<svg width="62" height="62" viewBox="0 0 62 62" fill="none" xmlns="http://www.w3.org/2000/svg"><path d="M35.3102 9.53125C43.4751 9.53125 48.331 14.3872 48.331 20.8332C48.331 27.2792 43.4751 32.1351 35.3102 32.1351H31.1846L51.6831 51.6884H37.2009L21.6014 36.8624C20.4843 35.8311 19.9686 34.6279 19.9686 33.5967C19.9686 32.1356 21.0002 30.8464 22.9769 30.2877L31.0127 28.1386C34.0638 27.3222 36.1696 24.9585 36.1696 21.8644C36.1696 18.0829 33.0752 15.8914 29.2506 15.8914H9.526V9.53125H35.3102Z" fill="url(#paint0_linear_2309_65)"/><path d="M48.332 20.8289C48.3319 14.3829 43.4761 9.52697 35.3112 9.52697V9C39.4976 9 42.8872 10.2462 45.2365 12.3696C47.5158 14.4297 48.7787 17.2826 48.8554 20.515L48.859 20.8289C48.859 24.1904 47.5892 27.1617 45.2365 29.2881C42.9605 31.3453 39.7084 32.5791 35.7013 32.6543L35.3112 32.6578H32.5014L53 52.2111H36.9914L36.8391 52.066L21.2448 37.2446C20.0405 36.1327 19.4427 34.7967 19.4426 33.5924C19.4426 31.8341 20.6961 30.3809 22.8349 29.7764L22.8416 29.7745L30.8773 27.6254C33.7371 26.8601 35.6437 24.6774 35.6437 21.8602C35.6437 20.1275 34.9409 18.7841 33.8122 17.8637C32.6726 16.9347 31.068 16.414 29.2516 16.414H9V9H35.3112V9.52697H9.52697V15.8871H29.2516C33.0762 15.8871 36.1705 18.0787 36.1706 21.8602C36.1706 24.9543 34.0648 27.3179 31.0136 28.1343L22.978 30.2834C21.0012 30.8421 19.9695 32.1313 19.9695 33.5924C19.9696 34.6236 20.4852 35.8268 21.6024 36.858L37.202 51.6841H51.6842L31.1856 32.1308H35.3112C43.4762 32.1308 48.332 27.2749 48.332 20.8289Z" fill="url(#paint1_linear_2309_65)"/><defs><linearGradient id="paint0_linear_2309_65" x1="30.6046" y1="9.53125" x2="53.0752" y2="51.0141" gradientUnits="userSpaceOnUse"><stop stop-color="#FDFDFD"/><stop offset="1" stop-color="#ADADAD"/></linearGradient><linearGradient id="paint1_linear_2309_65" x1="31.0001" y1="9" x2="53.8033" y2="51.8655" gradientUnits="userSpaceOnUse"><stop stop-color="#FDFDFD"/><stop offset="1" stop-color="#ADADAD"/></linearGradient></defs></svg>