<svg width="62" height="62" viewBox="0 0 62 62" fill="none" xmlns="http://www.w3.org/2000/svg"><path d="M13.5289 17.0137C13.5289 15.0973 15.0973 13.5289 17.0137 13.5289H44.9863C46.9027 13.5289 48.4711 15.0973 48.4711 17.0137V25.6461C48.4711 40.0707 40.0449 48.4711 25.616 48.4711H17.0137C15.0973 48.4711 13.5289 46.9027 13.5289 44.9863V17.0137ZM17.6324 9C12.8844 9 9 12.8844 9 17.6281V44.3676C9 49.1156 12.8844 53 17.6324 53H44.3676C49.1156 53 53 49.1156 53 44.3719V17.6281C53 12.8844 49.1156 9 44.3676 9H17.6324Z" fill="#3698E4"/><path d="M24.2031 18.707C21.1652 18.707 18.7031 21.1949 18.7031 24.2672V37.7336V38.0859H18.716C18.8965 40.982 21.2984 43.298 24.2031 43.298C27.1121 43.298 29.5098 40.9863 29.6902 38.0859H29.7031V37.7336V24.2672C29.7031 21.1949 27.241 18.707 24.2031 18.707Z" fill="#3698E4"/><path d="M37.7969 18.707C34.759 18.707 32.2969 21.1691 32.2969 24.207V27.4426C32.2969 30.4805 34.759 32.9426 37.7969 32.9426C40.8348 32.9426 43.2969 30.4805 43.2969 27.4426V24.207C43.2969 21.1691 40.8348 18.707 37.7969 18.707Z" fill="#3698E4"/></svg>