<?xml version="1.0" encoding="UTF-8"?>
<svg xmlns="http://www.w3.org/2000/svg" xmlns:xlink="http://www.w3.org/1999/xlink" width="62px" height="62px" viewBox="0 0 62 62" version="1.1">
<g id="surface1">
<rect x="0" y="0" width="62" height="62" style="fill:rgb(0%,0%,0%);fill-opacity:1;stroke:none;"/>
<path style=" stroke:none;fill-rule:evenodd;fill:rgb(100%,100%,100%);fill-opacity:1;" d="M 25.761719 17.910156 C 27.5 17.910156 28.90625 16.503906 28.90625 14.765625 C 28.90625 13.03125 27.5 11.625 25.761719 11.625 C 24.027344 11.625 22.621094 13.03125 22.621094 14.765625 C 22.621094 16.503906 24.027344 17.910156 25.761719 17.910156 Z M 38.640625 31 C 40.621094 30.089844 41.996094 28.085938 41.996094 25.761719 C 41.996094 22.582031 39.417969 20.003906 36.238281 20.003906 C 33.914062 20.003906 31.910156 21.378906 31 23.359375 C 30.089844 21.378906 28.085938 20.003906 25.765625 20.003906 C 22.582031 20.003906 20.003906 22.582031 20.003906 25.761719 C 20.003906 28.085938 21.378906 30.089844 23.359375 31 C 21.378906 31.910156 20.003906 33.914062 20.003906 36.238281 C 20.003906 39.417969 22.582031 41.996094 25.765625 41.996094 C 28.085938 41.996094 30.089844 40.621094 31 38.640625 C 31.910156 40.621094 33.914062 41.996094 36.238281 41.996094 C 39.417969 41.996094 41.996094 39.417969 41.996094 36.238281 C 41.996094 33.914062 40.621094 31.910156 38.640625 31 Z M 31 33.832031 C 31.574219 32.582031 32.582031 31.574219 33.832031 31 C 32.582031 30.425781 31.574219 29.417969 31 28.167969 C 30.425781 29.417969 29.417969 30.425781 28.167969 31 C 29.417969 31.574219 30.425781 32.582031 31 33.832031 Z M 38.332031 14.765625 C 38.332031 15.921875 37.394531 16.863281 36.238281 16.863281 C 35.078125 16.863281 34.140625 15.921875 34.140625 14.765625 C 34.140625 13.609375 35.078125 12.671875 36.238281 12.671875 C 37.394531 12.671875 38.332031 13.609375 38.332031 14.765625 Z M 14.765625 27.859375 C 15.921875 27.859375 16.863281 26.921875 16.863281 25.761719 C 16.863281 24.605469 15.921875 23.667969 14.765625 23.667969 C 13.609375 23.667969 12.671875 24.605469 12.671875 25.761719 C 12.671875 26.921875 13.609375 27.859375 14.765625 27.859375 Z M 27.859375 47.234375 C 27.859375 48.390625 26.921875 49.328125 25.761719 49.328125 C 24.605469 49.328125 23.667969 48.390625 23.667969 47.234375 C 23.667969 46.078125 24.605469 45.136719 25.761719 45.136719 C 26.921875 45.136719 27.859375 46.078125 27.859375 47.234375 Z M 47.234375 38.332031 C 48.390625 38.332031 49.328125 37.394531 49.328125 36.238281 C 49.328125 35.078125 48.390625 34.140625 47.234375 34.140625 C 46.078125 34.140625 45.136719 35.078125 45.136719 36.238281 C 45.136719 37.394531 46.078125 38.332031 47.234375 38.332031 Z M 16.339844 14.765625 C 16.339844 15.632812 15.636719 16.335938 14.765625 16.335938 C 13.898438 16.335938 13.195312 15.632812 13.195312 14.765625 C 13.195312 13.898438 13.898438 13.195312 14.765625 13.195312 C 15.636719 13.195312 16.339844 13.898438 16.339844 14.765625 Z M 14.765625 48.804688 C 15.636719 48.804688 16.339844 48.101562 16.339844 47.234375 C 16.339844 46.367188 15.636719 45.664062 14.765625 45.664062 C 13.898438 45.664062 13.195312 46.367188 13.195312 47.234375 C 13.195312 48.101562 13.898438 48.804688 14.765625 48.804688 Z M 48.804688 47.234375 C 48.804688 48.101562 48.101562 48.804688 47.234375 48.804688 C 46.367188 48.804688 45.664062 48.101562 45.664062 47.234375 C 45.664062 46.367188 46.367188 45.664062 47.234375 45.664062 C 48.101562 45.664062 48.804688 46.367188 48.804688 47.234375 Z M 47.234375 16.335938 C 48.101562 16.335938 48.804688 15.632812 48.804688 14.765625 C 48.804688 13.898438 48.101562 13.195312 47.234375 13.195312 C 46.367188 13.195312 45.664062 13.898438 45.664062 14.765625 C 45.664062 15.632812 46.367188 16.335938 47.234375 16.335938 Z M 39.378906 47.234375 C 39.378906 48.96875 37.972656 50.375 36.238281 50.375 C 34.5 50.375 33.09375 48.96875 33.09375 47.234375 C 33.09375 45.496094 34.5 44.089844 36.238281 44.089844 C 37.972656 44.089844 39.378906 45.496094 39.378906 47.234375 Z M 47.234375 28.90625 C 48.96875 28.90625 50.375 27.5 50.375 25.761719 C 50.375 24.027344 48.96875 22.621094 47.234375 22.621094 C 45.5 22.621094 44.089844 24.027344 44.089844 25.761719 C 44.089844 27.5 45.5 28.90625 47.234375 28.90625 Z M 17.910156 36.238281 C 17.910156 37.972656 16.503906 39.378906 14.765625 39.378906 C 13.03125 39.378906 11.625 37.972656 11.625 36.238281 C 11.625 34.5 13.03125 33.09375 14.765625 33.09375 C 16.503906 33.09375 17.910156 34.5 17.910156 36.238281 Z M 17.910156 36.238281 "/>
</g>
</svg>
