<svg width="62" height="62" viewBox="0 0 62 62" fill="none" xmlns="http://www.w3.org/2000/svg"><path d="M30.8503 53C20.3216 53 12.0555 45.8606 10.1878 35.5124C10.139 35.2433 10.315 34.986 10.5797 34.9357C10.6092 34.9312 10.6388 34.9283 10.6684 34.9283H20.156C20.3704 34.9283 20.5612 35.0702 20.6292 35.2773C22.1745 40.1349 26.3756 42.6473 30.8503 42.6473C35.3323 42.6473 39.5408 40.1793 41.0802 35.2847C41.1482 35.0732 41.342 34.9298 41.5623 34.9298H51.1268C51.3531 34.9298 51.5364 35.1146 51.5364 35.3438C51.5364 35.3675 51.5349 35.3926 51.5305 35.4177C49.6969 45.8163 41.4115 53 30.8503 53ZM30.8503 9C41.864 9 50.4007 16.7397 51.7301 27.9176C51.7494 28.0773 51.7745 28.3198 51.8055 28.6421H41.9453C41.7057 28.6421 41.5002 28.4706 41.4573 28.2325C40.366 22.3323 35.773 19.3512 30.8488 19.3512C25.9823 19.3512 21.4381 22.2614 20.2817 28.0299C20.2107 28.3848 19.9017 28.6421 19.5423 28.6421H10.8887C10.3978 28.6421 10 28.2384 10 27.7431C10 27.7031 10.003 27.6632 10.0074 27.6248C11.4492 16.6052 19.9342 9 30.8503 9Z" fill="url(#paint0_linear_2527_82)"/><defs><linearGradient id="paint0_linear_2527_82" x1="14.9218" y1="13.7441" x2="51.6813" y2="51.1229" gradientUnits="userSpaceOnUse"><stop stop-color="#40E0CF"/><stop offset="1" stop-color="#36CDCF"/></linearGradient></defs></svg>