<svg xmlns="http://www.w3.org/2000/svg" width="62" height="62" fill="none"><g clip-path="url(#A)" fill-rule="evenodd"><g fill="#0684bc"><path d="M11.087 31.398l-.315 1.817H9L9.932 28h2.541a6.33 6.33 0 0 1 1.002.068 2 2 0 0 1 .665.214c.175.09.292.214.373.35s.116.305.116.497a2.08 2.08 0 0 1-.035.35c-.058.293-.175.564-.361.802a1.34 1.34 0 0 1-.769.474c.105.034.21.079.292.124.093.045.163.09.221.158s.105.136.14.237c.035.09.046.215.046.35 0 .147-.023.327-.046.519l-.081.451a1.63 1.63 0 0 0-.035.282c0 .113.046.169.128.169v.169h-1.795c-.012-.045-.012-.102-.012-.169 0-.079.012-.192.023-.316l.058-.429a1.87 1.87 0 0 0 .046-.407c0-.181-.058-.316-.175-.384-.116-.079-.338-.113-.641-.113h-.548v.001zm.21-1.14h.699c.268 0 .489-.034.641-.113.152-.068.245-.203.28-.384 0-.022.012-.056.012-.113 0-.147-.058-.26-.175-.327a.88.88 0 0 0-.443-.102h-.827l-.186 1.038h0zm5.815-.835h1.41l-.105.598a2.69 2.69 0 0 1 .665-.53 1.72 1.72 0 0 1 .781-.181c.443 0 .758.102.968.293s.303.485.303.858c0 .146-.012.305-.047.474l-.396 2.28h-1.55l.361-2.009.023-.248c0-.135-.035-.237-.093-.327s-.175-.136-.35-.136c-.233 0-.419.068-.524.203s-.186.327-.222.576l-.35 1.93h-1.55l.676-3.781zm5.49 3.893v.023c0 .056.023.102.07.147.058.068.163.09.326.09.222 0 .396-.056.513-.169s.198-.305.245-.576l.058-.316c-.128.113-.292.203-.478.293-.187.079-.431.124-.711.124-.233 0-.443-.034-.618-.113a1.2 1.2 0 0 1-.443-.294 1.18 1.18 0 0 1-.268-.451 1.73 1.73 0 0 1-.093-.553c0-.068 0-.124.012-.192s.012-.124.023-.192a3.16 3.16 0 0 1 .21-.7 2.08 2.08 0 0 1 .408-.621 2.02 2.02 0 0 1 .618-.44c.245-.113.524-.169.851-.169.245 0 .454.056.641.169s.338.26.443.44l.081-.497h1.364l-.548 3.059a6.71 6.71 0 0 1-.186.79c-.081.248-.198.463-.373.643a1.69 1.69 0 0 1-.699.429c-.292.102-.688.158-1.165.158-.338 0-.63-.034-.863-.09s-.419-.136-.571-.226c-.14-.102-.245-.203-.315-.339a.8.8 0 0 1-.105-.395v-.045h1.573v.011h0zm.921-3.025a.66.66 0 0 0-.303.068.82.82 0 0 0-.221.181c-.058.079-.105.169-.14.271a1.57 1.57 0 0 0-.081.339c0 .034-.012.068-.012.09v.09a.66.66 0 0 0 .117.395c.081.113.198.169.373.169h.035a.62.62 0 0 0 .292-.068.81.81 0 0 0 .221-.169.9.9 0 0 0 .151-.248 2.15 2.15 0 0 0 .093-.293c.012-.079.023-.158.023-.237 0-.158-.035-.293-.117-.406s-.221-.169-.419-.169h-.012v-.011h0z"/></g><g fill="#ff7a00"><path d="M29.491 29.998v-.09c0-.226-.07-.407-.198-.531-.14-.124-.326-.181-.571-.181-.303 0-.548.124-.758.361s-.35.598-.443 1.072c-.023.09-.035.181-.046.26s-.012.169-.012.248a1.42 1.42 0 0 0 .035.327.52.52 0 0 0 .14.26.61.61 0 0 0 .256.181c.105.045.233.068.396.068.268 0 .489-.079.653-.237s.28-.361.361-.598h1.608c-.093.316-.233.609-.408.858s-.385.463-.63.643-.513.305-.816.406c-.303.09-.618.136-.956.136-.373 0-.688-.045-.979-.136-.28-.09-.524-.226-.723-.395s-.35-.384-.443-.632c-.105-.248-.151-.53-.151-.846l.012-.282.046-.305c.07-.395.198-.756.385-1.072a3.15 3.15 0 0 1 .688-.813c.268-.226.571-.395.897-.519.338-.124.676-.181 1.026-.181.734 0 1.294.158 1.655.474s.548.756.548 1.332v.09c0 .034 0 .068-.012.102h-1.562.001z"/><path d="M32.708 31.51c0 .022-.012.045-.012.068v.068c0 .18.058.327.186.44s.28.158.466.158a.8.8 0 0 0 .361-.079.65.65 0 0 0 .28-.249h1.492a1.91 1.91 0 0 1-.431.598 2.15 2.15 0 0 1-.583.384c-.21.102-.443.169-.676.214s-.466.056-.699.056a2.75 2.75 0 0 1-.769-.102c-.233-.068-.431-.169-.606-.305a1.38 1.38 0 0 1-.396-.497c-.093-.192-.14-.418-.14-.677 0-.068 0-.124.012-.192s.012-.136.023-.203a2.43 2.43 0 0 1 .326-.846 2.6 2.6 0 0 1 .583-.643c.233-.181.489-.316.781-.407a2.67 2.67 0 0 1 .898-.147c.315 0 .595.045.839.136s.443.203.606.361.292.339.373.564.128.463.128.734c0 .169-.023.35-.058.553h-2.984v.011h0zm1.538-.768c0-.023.012-.056.012-.113 0-.158-.058-.282-.163-.395a.57.57 0 0 0-.408-.158c-.233 0-.419.056-.571.18a.89.89 0 0 0-.28.485h1.41 0zm1.982-1.365h1.422l-.105.598a2.74 2.74 0 0 1 .664-.53 1.72 1.72 0 0 1 .781-.181c.443 0 .758.102.968.293s.303.485.303.858a2.32 2.32 0 0 1-.047.474l-.396 2.28h-1.55l.361-2.009.023-.248c0-.136-.035-.237-.093-.327s-.175-.135-.35-.135c-.233 0-.419.068-.524.203a1.21 1.21 0 0 0-.221.576l-.35 1.941h-1.55l.664-3.793z"/><path d="M42.696 33.192l-.478.022-.408.011c-.233 0-.431-.011-.595-.034s-.291-.056-.384-.113-.163-.124-.198-.226c-.035-.09-.058-.203-.058-.35 0-.09.012-.18.023-.294s.035-.226.058-.361l.28-1.58h-.548l.151-.869h.571l.221-1.185h1.527l-.222 1.185h.746l-.152.869h-.746l-.245 1.377c-.012.045-.012.079-.023.113 0 .034-.012.068-.012.102 0 .09.035.158.093.192s.175.056.338.056h.245l-.186 1.084h0zm1.003-3.77h1.411l-.14.768h.012c.315-.587.769-.88 1.364-.88.035 0 .07 0 .105.011.035 0 .07.011.105.011l-.268 1.512-.151-.034c-.058-.011-.105-.011-.163-.011-.315 0-.571.079-.758.248s-.315.451-.396.858l-.233 1.309h-1.551l.665-3.793h0zm4.942 3.804l-.012-.519c-.257.203-.501.339-.746.407s-.513.102-.816.102c-.163 0-.327-.023-.466-.056a.99.99 0 0 1-.385-.169.85.85 0 0 1-.256-.282c-.07-.113-.093-.248-.093-.407 0-.068.012-.146.024-.226a1.18 1.18 0 0 1 .326-.666 1.62 1.62 0 0 1 .583-.361 3.5 3.5 0 0 1 .699-.169l.688-.09c.21-.023.396-.056.536-.113.151-.045.233-.124.245-.248v-.045c0-.056-.024-.102-.047-.136-.035-.034-.081-.056-.128-.079-.047-.011-.093-.034-.151-.034-.058-.011-.105-.011-.14-.011-.058 0-.117 0-.175.011s-.117.022-.175.056c-.058.022-.105.068-.151.113s-.081.113-.105.192h-1.492c.035-.203.105-.384.21-.542s.257-.294.443-.395c.198-.113.432-.192.711-.248a5.13 5.13 0 0 1 1.002-.09 4.7 4.7 0 0 1 .874.068c.222.045.408.113.536.203s.222.192.268.316.07.26.07.407c0 .09-.012.18-.024.282l-.047.305-.315 1.772-.023.203a.31.31 0 0 0 .035.147.56.56 0 0 0 .116.146v.192h-1.62v-.034h0zm-.723-.858a.84.84 0 0 0 .35-.068c.105-.045.186-.113.256-.203.07-.079.128-.18.163-.293a1.8 1.8 0 0 0 .081-.361c-.14.056-.28.102-.42.124a3.38 3.38 0 0 0-.396.09c-.116.034-.233.079-.315.136-.093.056-.14.146-.163.271v.023c0 .079.035.147.105.203.081.045.198.079.338.079m2.6.846l.933-5.204H53l-.932 5.204h-1.55 0z"/></g><path d="M14.408 33.215l.886-3.07h1.119l-.454 3.07h-1.55z" fill="#0684bc"/><g fill="#ff7a00"><path d="M16.984 28.768c-.012-.011-.012-.023-.023-.034a.53.53 0 0 0-.116-.113 1.15 1.15 0 0 0-.571-.248c-.14-.022-.257-.022-.361-.011-.257.023-.408.124-.455.169l-.023.011c-.07.068-.187.068-.257 0s-.07-.181 0-.248c.023-.022.257-.237.699-.282a1.65 1.65 0 0 1 .466.022c.711.124.956.564.968.598a.17.17 0 0 1-.081.237c-.023.011-.046.011-.058.023-.081-.023-.151-.056-.186-.124z"/><path d="M16.53 29.174l-.012-.011c-.012-.012-.035-.034-.058-.068a.62.62 0 0 0-.315-.136c-.081-.011-.151-.011-.21-.011-.14.011-.221.068-.257.09h-.012c-.058.056-.151.056-.222 0-.058-.056-.058-.147 0-.214a.82.82 0 0 1 .443-.181c.081-.011.186-.011.291.011.443.079.606.35.606.373.035.068.012.158-.07.203-.012.011-.035.011-.058.011-.047.011-.105-.011-.128-.068m-.138.362c0 .18-.175.327-.396.327s-.396-.147-.396-.327.175-.327.396-.327.408.147.396.327z"/></g></g><defs><clipPath id="A"><path fill="#fff" transform="translate(9 28)" d="M0 0h44v6.4H0z"/></clipPath></defs></svg>