<svg fill="none" height="60" viewBox="0 0 60 60" width="60" xmlns="http://www.w3.org/2000/svg">
  <g fill="#000">
    <path
      d="m30 53.25c-12.8406 0-23.25-10.4094-23.25-23.25s10.4094-23.25 23.25-23.25 23.25 10.4094 23.25 23.25-10.4094 23.25-23.25 23.25zm0 3.75c14.9117 0 27-12.0883 27-27s-12.0883-27-27-27-27 12.0883-27 27 12.0883 27 27 27z" />
    <path
      d="m44.4267 11.7661c-2.1524-.8182-4.4873-1.2661-6.9267-1.2661-10.7696 0-19.5 8.7304-19.5 19.5s8.7304 19.5 19.5 19.5c2.4394 0 4.7743-.4479 6.9267-1.2661 5.3752-4.2586 8.8233-10.8436 8.8233-18.2339s-3.4481-13.9753-8.8233-18.2339zm8.8233 18.2339c0 8.6985-7.0515 15.75-15.75 15.75s-15.75-7.0515-15.75-15.75 7.0515-15.75 15.75-15.75 15.75 7.0515 15.75 15.75z"
      fill-opacity=".5" />
    <path
      d="m48.1828 41.5733c3.1159-2.8775 5.0672-6.9975 5.0672-11.5733s-1.9513-8.6958-5.0672-11.5733c-1.0136-.2782-2.0809-.4267-3.1828-.4267-6.6274 0-12 5.3726-12 12s5.3726 12 12 12c1.1019 0 2.1692-.1485 3.1828-.4267zm-3.1828-3.3233c-4.5563 0-8.25-3.6937-8.25-8.25s3.6937-8.25 8.25-8.25 8.25 3.6937 8.25 8.25-3.6937 8.25-8.25 8.25z"
      fill-opacity=".3" />
  </g>
</svg>