<svg width="62" height="62" viewBox="0 0 62 62" fill="none" xmlns="http://www.w3.org/2000/svg"><path d="M28.7838 43.5191L28.4932 43.617C26.611 44.2422 23.8278 45.2048 21.3292 46.3529C21.1955 46.4156 21.1074 46.5906 21.1074 46.5906C21.0612 46.6979 21.0034 46.83 20.9379 46.9797L20.928 46.999C20.6484 47.6358 20.2621 48.5939 20.097 48.9841L19.9682 49.2912C19.9484 49.3397 19.9599 49.3958 19.999 49.4327C20.0221 49.4547 20.0502 49.4674 20.0843 49.4685C20.1019 49.4685 20.1228 49.4646 20.141 49.4553L20.4431 49.3116C21.1261 48.9869 21.9918 48.4938 22.8994 48.0628L22.9308 48.048C24.6561 47.2296 26.6039 46.3061 27.7772 45.7469C27.7772 45.7464 27.9654 45.6457 28.0607 45.4574L28.9385 43.6968C28.9616 43.6512 28.9544 43.595 28.9225 43.5559C28.8867 43.5174 28.8328 43.5031 28.7838 43.5191ZM21.769 40.7904C21.8911 40.5499 22.4619 39.4552 22.5906 39.2098L22.6138 39.1679C26.4244 31.9813 31.0689 25.2031 36.4151 19.0215L36.5632 18.8509C36.6083 18.7975 36.6165 18.721 36.5841 18.6588C36.5488 18.5966 36.4784 18.5625 36.4107 18.5718L36.1867 18.6021C32.6776 19.0853 29.1278 19.7546 25.6297 20.59C25.283 20.6869 25.059 20.9131 25.01 20.9659C22.3925 24.0997 19.9131 27.3991 17.6391 30.7794C17.5251 30.95 17.513 31.3583 17.513 31.3583C17.513 31.3583 18.0859 35.7601 18.9203 39.0039C16.8526 44.9484 15.0067 52.7822 15.0067 52.7822C14.9918 52.8328 15.0023 52.8873 15.0326 52.9302C15.0639 52.9731 15.1135 52.9979 15.1668 52.9996H16.3435C16.3793 53.0003 16.4145 52.9899 16.4442 52.9699C16.474 52.9499 16.4968 52.9213 16.5097 52.8878L16.5895 52.6677C17.791 49.3925 19.1613 46.1575 20.6748 43.0061C21.0271 42.272 21.769 40.7904 21.769 40.7904Z" fill="#00C805"/><path d="M38.1405 20.3072L38.1383 20.0832C38.1361 20.0128 38.0921 19.9495 38.0271 19.9258C37.9611 19.9011 37.8851 19.9198 37.84 19.9737L37.6936 20.1432C31.4597 27.3507 26.2203 35.3507 22.1201 43.9204L22.0249 44.1207C21.9935 44.184 22.0067 44.2605 22.0535 44.3111C22.086 44.3447 22.1289 44.3634 22.1757 44.3634C22.196 44.3645 22.2214 44.3601 22.2428 44.3513L22.4481 44.266C25.9495 42.8158 29.5257 41.5593 33.0783 40.5329C33.2907 40.4713 33.4707 40.3232 33.5714 40.1262C35.1284 37.0921 38.7442 31.2181 38.7442 31.2181C38.8373 31.0855 38.8136 30.889 38.8136 30.889C38.8136 30.889 38.1801 23.8625 38.1405 20.3072Z" fill="#00C805"/><path d="M46.2056 10.1732C45.3206 9.40602 44.0372 9.04553 42.0416 9.0026C40.2325 8.96408 38.0806 9.35318 35.6442 10.1567C35.2787 10.2849 34.9887 10.4869 34.7284 10.7428C32.2339 13.085 29.8427 15.5347 27.5616 18.0852L27.386 18.2795C27.3376 18.3345 27.3305 18.4143 27.3662 18.4776C27.3842 18.5089 27.4116 18.5336 27.4446 18.5481C27.4776 18.5627 27.5143 18.5663 27.5495 18.5585L27.8049 18.5046C31.4774 17.7197 35.1857 17.1199 38.8225 16.7219C39.0619 16.6955 39.309 16.7753 39.4879 16.9382C39.6662 17.1028 39.7686 17.3367 39.7642 17.5805C39.7042 21.1892 39.8346 24.8161 40.1566 28.3615L40.1769 28.5926C40.1804 28.6275 40.1945 28.6605 40.2173 28.6871C40.2402 28.7137 40.2706 28.7326 40.3046 28.7412C40.3167 28.7445 40.3288 28.7473 40.3448 28.7478C40.3987 28.7484 40.4549 28.7225 40.4879 28.6752L40.6211 28.4848C42.6706 25.5618 44.9012 22.7203 47.2463 20.0329L47.2452 20.0324C47.5077 19.7335 47.5776 19.5442 47.6266 19.2729C48.3652 14.5486 47.2254 11.0571 46.2056 10.1732Z" fill="#00C805"/></svg>