<svg width="62" height="62" viewBox="0 0 62 62" fill="none" xmlns="http://www.w3.org/2000/svg"><path fill-rule="evenodd" clip-rule="evenodd" d="M44.7688 13.0546L53 31.1913L44.7688 49.3279C42.9302 49.9188 40.9699 50.2379 38.9349 50.2379C36.127 50.2379 33.4611 49.6303 31.0614 48.5396L38.9349 31.1913L31.0614 13.8429C33.4611 12.7521 36.127 12.1445 38.9349 12.1445C40.9699 12.1445 42.9302 12.4637 44.7688 13.0546Z" fill="#0F62FE"/><path fill-rule="evenodd" clip-rule="evenodd" d="M22.9656 13.2134L31.0591 31.0466L22.9656 48.8801C20.8802 49.6644 18.6209 50.0935 16.2613 50.0935C13.6901 50.0935 11.2378 49.5838 9 48.6604L16.9939 31.0466L9 13.4331C11.2378 12.5095 13.6901 12 16.2613 12C18.6209 12 20.8802 12.4291 22.9656 13.2134Z" fill="white"/></svg>