<svg width="62" height="62" viewBox="0 0 62 62" fill="none" xmlns="http://www.w3.org/2000/svg"><path d="M31 52.8781C43.1547 52.8781 53 43.0328 53 30.9997C53 18.845 43.1547 9.12123 31 9.12123C18.8453 8.99968 9 18.845 9 30.9997C9 43.0328 18.8453 52.8781 31 52.8781Z" fill="#415896"/><path d="M25.654 33.4307L12.6484 43.0329C13.3777 44.2483 14.3501 45.3423 15.444 46.3146C16.5379 47.4086 17.6319 48.2594 18.8473 49.1102L28.5711 36.2262" fill="#F5BC41"/><path d="M52.9994 9C52.9994 9 36.7121 9.12155 29.1761 22.2486C25.2866 21.1547 24.0712 22.8564 24.0712 22.8564L18.6016 28.326L25.2866 29.0552C25.5297 29.0552 25.7728 29.1768 25.8944 29.4199C26.1375 29.663 26.259 30.0276 26.1375 30.3923C25.8944 31.3646 25.7728 32.337 25.6513 33.4309L27.1098 34.8895L28.5684 36.3481C29.6623 36.2265 30.6347 36.105 31.6071 35.8619C31.9717 35.7403 32.3364 35.8619 32.5795 36.105C32.701 36.2265 32.8226 36.4696 32.9441 36.7127L33.6734 43.2762L39.143 37.8066C39.143 37.8066 40.8447 36.5912 39.7507 32.7017C52.7563 25.2873 52.9994 9 52.9994 9ZM40.8447 21.1547C39.6292 19.9392 39.6292 18.116 40.8447 16.9006C42.0601 15.6851 43.8833 15.6851 45.0988 16.9006C46.3143 18.116 46.3143 19.9392 45.0988 21.1547C43.8833 22.3702 42.0601 22.3702 40.8447 21.1547Z" fill="white"/></svg>