<svg xmlns="http://www.w3.org/2000/svg" id="Layer_1" data-name="Layer 1" width="62" height="62" viewBox="0 0 291.2 331.6" preserveAspectRatio="xMidYMid meet">
  <defs>
    <linearGradient id="linear-gradient" x1="103.4" x2="103.4" y1="-9.2" y2="234.7" gradientTransform="matrix(1 0 0 -1 31.9 277.384)" gradientUnits="userSpaceOnUse">
      <stop offset=".24" stop-color="#0e9948"/>
      <stop offset="1" stop-color="#a8d058"/>
    </linearGradient>
    <linearGradient id="linear-gradient-2" x1="193.55" x2="193.55" y1="-8.4" y2="165.24" gradientTransform="matrix(1 0 0 -1 31.9 277.384)" gradientUnits="userSpaceOnUse">
      <stop offset=".24" stop-color="#6fbe44"/>
      <stop offset=".5" stop-color="#87c64d"/>
      <stop offset=".81" stop-color="#9fcd55"/>
      <stop offset="1" stop-color="#a8d058"/>
    </linearGradient>
    <linearGradient id="linear-gradient-3" x1="12" x2="185.1" y1="113.75" y2="113.75" gradientTransform="matrix(1 0 0 -1 31.9 277.384)" gradientUnits="userSpaceOnUse">
      <stop offset="0" stop-color="#336"/>
      <stop offset="1" stop-color="#243e90"/>
    </linearGradient>
    <clipPath id="clip-path" transform="translate(22.4 87.7)">
      <path d="M24.9 0A25.1 25.1 0 0 0 0 24.9V219a25.1 25.1 0 0 0 24.9 24.9h118.5l9.6-34.2 6.9-29.3 21.7-36.1 12.3-46.2 11.6-10.6 6.4-50.5 13.9-37Z" class="cls-1"/>
    </clipPath>
    <style>
      .cls-1{fill:none}.cls-3{fill:#fff;stroke:#243e90;stroke-width:10.32px}.cls-4{fill:#b8c733}
    </style>
  </defs>
  <path fill="url(#linear-gradient)" d="M47.3 42.684c-13.707.109-24.791 11.193-24.9 24.9v194.1c.109 13.706 11.193 24.791 24.9 24.9h118.5l9.6-34.2 6.9-29.3 21.7-36.1 12.3-46.2 11.6-10.6 6.4-50.5 13.9-37H47.3Z"/>
  <path d="M107.9 42.684H47.3c-13.707.109-24.791 11.193-24.9 24.9v194.1c.109 13.706 11.193 24.791 24.9 24.9h118.5l9.6-34.2 6.9-29.3 21.7-36.1 12.3-46.2 11.6-10.6 6.4-50.5 13.9-37H107.9Z" class="cls-1"/>
  <path d="M189 208.784c.1 1.2-1.3 2.3-1.2 3l1.6-3.2-.4.2ZM184.4 218.184c-.7 1.5-1.3 3.1-2.1 4.7l3.2-6.4a1.702 1.702 0 0 1 .1-.7c-1.1.3-.4 1.9-1.2 2.4Z" class="cls-4"/>
  <path fill="url(#linear-gradient-2)" d="M264.7 162.084c-.4-2.6-1.9-2.4-3.2-3.9-1.3-1.5-1.1-2.2-2.3-2.9-.7-2.4-1.9-3.8-2.6-5.6a13.883 13.883 0 0 0-1.2-2.8c-.6-1.1-1.9-1.6-2.5-2.6a15.804 15.804 0 0 1-1.5-2.4c-.5-1.4-3.9-5.1-5-7-2.3-3.9-5.9-6.6-8.5-9.7a37.068 37.068 0 0 1-3.1-5.5c-.8-1.9-1.4-2.2-1.7-4.7-.3-2.5-3.1-3.4-3.5-2.5-.4.9.8-.3.8-.3s-1.8 3.7-1.2 4.9c.6 1.2-.3 2.2 0 2.8.3.6 2.2 3.2 3.3 4.6 2.7 4.1 5.2 7.7 6.8 12.6.7 2.5 3.3 5.6 4.1 7.8-1.6.5-.9.2-1.9 1.5-1 1.3-4.1 3.2-3.6 5.9l.6 1.2c.3 1 0 2.2.4 3.4.4 1.2.8.7 1 1.4.2.7-.7 2.5-.4 3.8.3 1.3 1.1 0 1.5.3a1.9 1.9 0 0 0 1.9 1.6c.4.6 0 .8.2 1.2.2.4 1.1.5 1.3 1.2.4 2.3-6.3 1.6-7.8 2.1s-.9.9-2.3 1c-1.4.1-5.6.2-6 .1-.4-.1-1-1-1.5-1.9l-1.1-1.3c-1.5-2.9-1.6-5.8-3.3-9.4-.6-1.4-6.4-7.9-8.1-7.7-1.7.2-2 6.8-2 6.8l1-1 2.6.4c.3 1 1.7 1.6 2.2 2.5.5.9.2 3.3.3 4.9.034 1.341.168 2.678.4 4a23.323 23.323 0 0 0 2.3 7.2 30.754 30.754 0 0 0 1.7 3.1c1.5 2 8.6 2.6 11.7 2.9 2.257.263 4.528.397 6.8.4.3 1.8-.3 3.5-.7 5.3-.4 1.8-1.4 3.4-1.4 5s.9 2.6.9 4-.7-.3-1.3-.3a6.607 6.607 0 0 0-1.5.4c-.5.1-2.4-.7-3.7-.2l-1.3-1c-1.7.3-2.9-1.1-4.3-1.9l-3.4-1.8a22.054 22.054 0 0 1-3.4-1.8c-1.7-.9-2.6-2.1-4.8-2-1.3-1.6-1.5-4-2.4-5.9-.9-1.9-1.1-1.5-1.4-2.2-.3-.7-.5-2.2-1.1-3.8-.6-1.6-1.8-3.1-1.8-4.5a4.999 4.999 0 0 1 .9-2.4l-.6-.5-2.3 4.7c.181.622.315 1.257.4 1.9a3.1 3.1 0 0 0 .6-1.6 35.71 35.71 0 0 1 4 6.8c.7 1.4.8 3.9 1.5 5.4.7 1.5 1.3 1.2 1.3 2.1 0 .9-1.3 1.9-1.8 2.8-.5.9-.8 2.4-1.4 3l-1.2.7c-2 1.8-2.7 4.9-3.9 7-1.2 2.1-1.7 2.6-2.5 3.9-.8 1.3-2.2 3.4-3.3 5.3-1.1 1.9-2.3 5-3.9 6.8-1.6 1.8-2.2 2.4-3.1 2.4-.9 0-.7-.6-1.2-.7h-2.3c-.91-.298-1.783-.7-2.6-1.2a2.999 2.999 0 0 1-1.4-1.9c.024-.46.162-.906.4-1.3h-.1l-1.7 3.5c-.3 2.3 1.4 3.7 2.8 5.7s2.6 6.8 5.3 6.7c2.7-.1 3.6-3.6 4.7-5.2a50.855 50.855 0 0 1 4.1-5.1 53.106 53.106 0 0 1 4.7-4.8 34.114 34.114 0 0 0 4.7-4.6c1.4-1.9 1.8-4.1 2.9-5.9 1.7 0 2.9.8 4.4 1.6 1.5.8 3.5 1.8 3.9 2.9.4 1.1-.8 3.6-.3 4.6.5 1 1.6.5 2.3.7l5.3.8c.9.1 2-.1 2.7.4.7.5-3.1 2.7-5.1 4.3l-2.6 2.1c-.8.7-2.3 1.6-2.3 2.5 0 .9 1.7 2.4 2 4 .3 1.6-1.8 4.6-3.1 7a16.202 16.202 0 0 0-1.7 3.5 14.924 14.924 0 0 0-.3 4.2c.3 1.3 1 1.7 2 2.6.614.78 1.282 1.515 2 2.2.9.8 2.1 1.4 3.2 2.3 3.2 2.4 6 5.3 9.1 7.8 3.1 2.5 4.2 3.1 6.3 5 2.1 1.9 4.4 4.8 4.7 7.3a14.926 14.926 0 0 1-.2 2.1c0 1.505.101 3.008.3 4.5 0 2-.7 4.7-.5 6.4.2 1.7 1.5 3.7 2.3 3.7a3.4 3.4 0 0 0 2-1.3 17.608 17.608 0 0 0 2.9-5.6c.8-2 .5-4.4 1.4-6.6.9-2.2 2.5-2.6 2.4-4.2-.1-1.6-3.2-3.2-4.7-4.2s-.1-1.6-.4-2.1c-.3-.5-.2 1.1-.4 1.5l-2.4-1.8c-3-3.2-5.2-7.7-8.2-11.8-3-4.1-4.3-5.4-7.5-7-.9-.5-2.5-1.3-2.7-2-.2-.7.9-2.9 1.6-3.7a13.674 13.674 0 0 1 2-1.3c1.3-1.4 2.3-3.2 3.5-4.4 1.2-1.2 2.1-1.3 2.5-2.1.4-.8 0-2.2 1-2.8a27.77 27.77 0 0 0 4.2-2.8 6.702 6.702 0 0 0 3.6-1.7c1.2-.8 1.7-2.1 2.8-2.5 1.1 1.5-.6 3.8 1.1 4.5 0-.3-.7-1.9 0-2.4s-1.2-4.7 1.4-4.8c.7.2.6 1.3.9 2.1.3.8 1.5 3.9-.4 4.8.4-.1.7-.6 1-.2.3 2.6 2.3 3.5 4.3 2.2a8.101 8.101 0 0 0 3.3-5.1c.5-2.3.5-4.8 1-6.7a8.39 8.39 0 0 0-3.3-1.9c-.8-.4-3-.8-3.3-1.8-.3-1 .3-1.5.4-2.5a26.07 26.07 0 0 1 .4-3.1c.373-.864.807-1.699 1.3-2.5.3-.8.2-2 .5-2.6.3-.6 1.8-1.2 2.2-1.8-2.2-.3-.6-2.7.3-3.5.9-.8-.7-1.1-.5-1.7a69.397 69.397 0 0 1 2-10.1c-.1-2.4.2-4.6.1-6.8s.1-1.8 0-2.7c-.1-.9-.4-2-.5-2.9-.1-.9.6-2 .5-2.9-.1-.9-.6-1.8-.7-2.6-.1-.8.1-1.6 0-2.3Zm-48 30.4c-1.1-.2-2.9-.4-3.2-1-.3-.6 1.4-3.5 2.1-4.1.7-.6.5.1.9 0s.1-.6.6-.6c2.5.5 4.5 2.1 6.7 3.3l3.3 1.8c1 .6 2.5.9 2.9 2.3a66.444 66.444 0 0 1-13.3-1.7Zm17.7 2.6c.7-.2 1.6-.3 1.7.7a.919.919 0 1 1-1.7-.7Zm3.9 1.7a1.4 1.4 0 0 1-1.4-.2c0-.6.2-1 1-1a1 1 0 0 1 .4 1.2Zm18.9 18.7c0 1 .4 2-.3 2.6-.7.6-.2-.7-.5-1.2s-1.6-.3-1.6-2a27.52 27.52 0 0 1 1.4-4.9c.357-.007.706.097 1 .3.9 1.7-.1 3.5 0 5.2Z"/>
  <path d="M188.1 211.684c0-.2-.3.1-.3.2l-.6 1.2h.1c.361-.406.634-.883.8-1.4Z" class="cls-4"/>
  <g clip-path="url(#clip-path)" transform="translate(0 -45.016)">
    <path fill="#fff" d="M268.8 9.9c0 53.9-65.2 97.6-145.6 97.6S-22.4 63.8-22.4 9.9s65.1-97.6 145.6-97.6S268.8-44 268.8 9.9Z" opacity=".14" style="isolation:isolate" transform="translate(22.4 87.7)"/>
  </g>
  <path fill="url(#linear-gradient-3)" d="m201 99.284 14.9-29.8h-18.4l-10.3 25.8v-25.8h-17v10.1c-2.7-5.8-7.3-11.2-16.5-11.2-12.3 0-19.5 8.1-22.2 20.8-2.6-12.6-9.8-20.8-22.1-20.8s-18.4 7.1-21.4 18.2c-1.5-9.9-9.3-17.1-19.7-17.1H46.1v63.9h10.1c-8.3 4.9-12.3 15.9-12.3 30.3s3.9 25.1 12.1 30.1h-9.9v63.9H63v-21.3h4.4c9.3 0 15.3-4.2 18.4-10.2v31.5h16.9v-21.3h2.2l5.5 21.3h18.1l-8.1-25.4a18.301 18.301 0 0 0 6.1-8.4 12.07 12.07 0 0 0-.1 1.9c0 19.4 7.4 33.1 23.3 33.1s23.3-13.7 23.3-33.1c0-16-5.1-28.1-15.8-31.9l8.5-29.1v30.8h16.7v-62.2h4.8v-13.2l3.6-7.9 7.2 21.1h19l-16-34.1Zm-47.3-15.9c3.3 0 4.6 2.9 5.6 7.8l10.9-4.1v27.5l-10.8-3.9c-.6 5.1-2.2 8.9-5.7 8.9s-6.1-7.1-6.1-18.1c0-11 1.4-18.1 6.1-18.1Zm7.7 49.5-7.4 24.4-6.8-23.6c2.114.6 4.302.903 6.5.9a15.807 15.807 0 0 0 7.7-1.7Zm-29.9-19.1c1.7 8.2 5.3 14.4 11 17.8h-21.9c5.6-3.4 9.2-9.6 10.9-17.8Zm-25.2 40.1-6-21.2a22.208 22.208 0 0 0 9.1 1.9h2.4l-5.5 19.3Zm3.1-70.5c4.5 0 6.1 7.2 6.1 18.1 0 10.9-1.6 18.1-6.1 18.1s-6-7.3-6-18.1 1.5-18.1 6-18.1Zm-23.2 17.7c0 .1-.1.3-.1.4 0 14.1 4 25.1 12.2 30.1H88.2l-7.5-23.6a17.599 17.599 0 0 0 5.5-6.9ZM63 84.284h2.5c3.4 0 5.6 2.4 5.6 6.6 0 4.2-2.2 6.5-5.6 6.5H63v-13.1Zm0 27.9h2.2l4.8 18.6-2.7-.2a20.832 20.832 0 0 0-4.3.4v-18.8Zm2.5 109.5H63v-13.1h2.5c3.4 0 5.6 2.4 5.6 6.5s-2.2 6.6-5.6 6.6Zm10.5-26.4a27.701 27.701 0 0 0 10.7-7.8v-28.8H66.1v14.7h5.8v6.6c-1 1.2-2.4 1.8-4.6 1.8-2.2 0-6.2-3.5-6.2-18.1 0-14.6 3-18.2 6.2-18.2s4.8 3.7 5.5 7.8l13.3-4.9c-1.4-6.2-4.5-11.8-9.3-15h6.1l14.9 36.4v24h-12v10.3a17.698 17.698 0 0 0-9.8-8.8Zm29.2 26.4h-2.5v-13.1h2.5c3.4 0 5.6 2.4 5.6 6.6 0 4.2-2.2 6.5-5.6 6.5Zm22.6-9.3c-.7-8.3-5.7-14.9-13-17.5v-25.1l10.8-26.5v52.3h13.1c-5.4 3.2-9 9.1-10.9 16.8Zm21.9 31.5c-4.5 0-6-7.3-6-18.1s1.5-18.1 6-18.1 6 7.2 6 18.1c0 10.9-1.5 18.1-6 18.1Zm0-51.2c-2.408.016-4.8.386-7.1 1.1v-29l8 28-.9-.1Zm13.9-61.1a19.991 19.991 0 0 0 6.6-8.6v8.6h-6.6Z"/>
</svg>