<?xml version="1.0" encoding="UTF-8"?>
<svg width="187px" height="33px" viewBox="0 0 187 33" version="1.1" xmlns="http://www.w3.org/2000/svg" xmlns:xlink="http://www.w3.org/1999/xlink">
    <!-- Generator: Sketch 41.2 (35397) - http://www.bohemiancoding.com/sketch -->
    <title>logo</title>
    <desc>Created with Sketch.</desc>
    <defs>
        <polygon id="path-1" points="23.484621 30.4454887 23.484621 0.254603359 0.0822403555 0.254603359 0.0822403555 30.4454887"></polygon>
        <polygon id="path-3" points="0.297762795 32.0032155 31.7110982 32.0032155 31.7110982 0.275869558 0.297762795 0.275869558"></polygon>
        <linearGradient x1="0%" y1="100%" x2="149.196309%" y2="0%" id="linearGradient-5">
            <stop stop-color="#E84C4D" offset="0%"></stop>
            <stop stop-color="#76122F" offset="100%"></stop>
        </linearGradient>
    </defs>
    <g id="Page-1" stroke="none" stroke-width="1" fill="none" fill-rule="evenodd">
        <g id="Full-color" transform="translate(-17.000000, -14.000000)">
            <g id="logo">
                <g transform="translate(17.000000, 14.000000)">
                    <g id="Group-15" transform="translate(33.717771, 0.119202)">
                        <path d="M14.0384907,13.2194616 C13.4110301,13.490106 12.7207847,13.6603948 11.9681421,13.7311179 C11.2151119,13.8022362 10.4624692,13.8374002 9.709439,13.8374002 L5.60982316,13.8374002 L5.60982316,5.65050354 L10.1694734,5.65050354 C10.8387905,5.65050354 11.5286484,5.69277939 12.239822,5.7781213 C12.9513833,5.86346321 13.598997,6.04125885 14.1849886,6.31150823 C14.7705926,6.5817576 15.2445792,6.98673656 15.6069484,7.52644511 C15.9693175,8.06694386 16.1510834,8.77773133 16.1510834,9.65880751 C16.1510834,10.6544631 15.9553653,11.4284668 15.5654794,11.982399 C15.1744308,12.5367263 14.6659513,12.9492122 14.0384907,13.2194616 L14.0384907,13.2194616 Z M15.4213069,17.7848586 C17.3296552,17.4020053 18.8206007,16.5414744 19.8945311,15.2024756 C21.0796914,13.7244012 21.6722715,11.8907355 21.6722715,9.70108336 C21.6722715,7.99543051 21.3649359,6.58807923 20.7522027,5.47981972 C20.1383067,4.37116512 19.3155156,3.49008894 18.2842169,2.83580098 C17.252143,2.18190812 16.0739589,1.72042965 14.7496644,1.44978517 C13.4249823,1.180326 12.0518552,1.04480621 10.6295078,1.04480621 L0.339774362,1.04480621 L0.339774362,31.2356915 L5.60982316,31.2356915 L5.60982316,18.4430975 L10.1376934,18.4430975 L17.3843012,31.2356915 L23.7422326,31.2356915 L15.4213069,17.7848586 Z" id="Fill-1" fill="#1D1C1B"></path>
                        <g id="Group-5" transform="translate(129.057674, 0.790203)">
                            <mask id="mask-2" fill="white">
                                <use xlink:href="#path-1"></use>
                            </mask>
                            <g id="Clip-4"></g>
                            <path d="M13.7809567,12.4292587 C13.1534961,12.6999032 12.4632507,12.8701919 11.7106081,12.9409151 C10.9575779,13.0120333 10.2049352,13.0471973 9.45190499,13.0471973 L5.35228915,13.0471973 L5.35228915,4.86030069 L9.9119394,4.86030069 C10.5812565,4.86030069 11.2711144,4.90257654 11.982288,4.98791845 C12.6938493,5.07326036 13.341463,5.251056 13.9274546,5.52130537 C14.5130586,5.79155475 14.9870452,6.19653371 15.3494144,6.73624226 C15.7117835,7.27674101 15.8935494,7.98752848 15.8935494,8.86860466 C15.8935494,9.86426025 15.6978313,10.6382639 15.3079454,11.1921961 C14.9168968,11.7465234 14.4084173,12.1590093 13.7809567,12.4292587 L13.7809567,12.4292587 Z M15.1637728,16.9946557 C17.0721212,16.6118024 18.5630667,15.7512715 19.6369971,14.4122728 C20.8221573,12.9341983 21.4147375,11.1005326 21.4147375,8.91088051 C21.4147375,7.20522765 21.1074019,5.79787637 20.4946687,4.68961687 C19.8807727,3.58096227 19.0579816,2.69988609 18.0266829,2.04559813 C16.994609,1.39170526 15.8164249,0.930226798 14.4921304,0.659582321 C13.1674483,0.390123148 11.7943211,0.254603359 10.3719738,0.254603359 L0.0822403555,0.254603359 L0.0822403555,30.4454887 L5.35228915,30.4454887 L5.35228915,17.6528947 L9.88015943,17.6528947 L17.1267672,30.4454887 L23.4846985,30.4454887 L15.1637728,16.9946557 Z" id="Fill-3" fill="#1D1C1B" mask="url(#mask-2)"></path>
                        </g>
                        <g id="Group-8" transform="translate(24.803877, 0.000000)">
                            <mask id="mask-4" fill="white">
                                <use xlink:href="#path-3"></use>
                            </mask>
                            <g id="Clip-7"></g>
                            <path d="M5.81933841,15.9270126 C5.81933841,17.5473236 6.06311401,19.0400168 6.55144035,20.4046971 C7.03899156,21.7689823 7.7288494,22.9491503 8.62178898,23.9440157 C9.51395344,24.9392762 10.5805202,25.7207868 11.8218767,26.2893377 C13.0620706,26.8582838 14.4495375,27.1419666 15.9838898,27.1419666 C17.5170795,27.1419666 18.9115224,26.8582838 20.1668312,26.2893377 C21.4213648,25.7207868 22.49452,24.9392762 23.387072,23.9440157 C24.2792365,22.9491503 24.9698695,21.7689823 25.4578082,20.4046971 C25.9453594,19.0400168 26.1895226,17.5473236 26.1895226,15.9270126 C26.1895226,14.4204909 25.9453594,13.0135347 25.4578082,11.705749 C24.9698695,10.3983584 24.2792365,9.25374953 23.387072,8.27271269 C22.49452,7.29207095 21.4213648,6.52438888 20.1668312,5.97006157 C18.9115224,5.41573427 17.5170795,5.13837307 15.9838898,5.13837307 C14.4495375,5.13837307 13.0620706,5.41573427 11.8218767,5.97006157 C10.5805202,6.52438888 9.51395344,7.29207095 8.62178898,8.27271269 C7.7288494,9.25374953 7.03899156,10.3983584 6.55144035,11.705749 C6.06311401,13.0135347 5.81933841,14.4204909 5.81933841,15.9270126 M0.297762795,16.2683803 C0.297762795,13.8519399 0.688036301,11.6559662 1.46897087,9.68006397 C2.24951789,7.70455684 3.33042435,6.02023946 4.71091514,4.62711183 C6.09140594,3.2343793 7.73621305,2.16088872 9.64649916,1.4074303 C11.5563977,0.654366983 13.6550383,0.277440222 15.9416457,0.277440222 C18.2557699,0.24938802 20.3757263,0.597077276 22.2999646,1.32208839 C24.2238153,2.04670441 25.8825746,3.10636644 27.2774052,4.49870386 C28.6714606,5.89222659 29.7589556,7.56943215 30.5398901,9.53071563 C31.3204372,11.4919991 31.7110982,13.6820463 31.7110982,16.0976964 C31.7110982,18.4576373 31.3204372,20.6038282 30.5398901,22.5366644 C29.7589556,24.4702908 28.6714606,26.1332727 27.2774052,27.5260052 C25.8825746,28.9191328 24.2238153,30.006452 22.2999646,30.7879626 C20.3757263,31.5694732 18.2557699,31.9744522 15.9416457,32.0032946 C13.6550383,32.0032946 11.5563977,31.6259727 9.64649916,30.8733045 C7.73621305,30.1202412 6.09140594,29.0542575 4.71091514,27.6749584 C3.33042435,26.2964496 2.24951789,24.6405795 1.46897087,22.7073482 C0.688036301,20.774512 0.297762795,18.6283211 0.297762795,16.2683803" id="Fill-6" fill="#1D1C1B" mask="url(#mask-4)"></path>
                        </g>
                        <polygon id="Fill-9" fill="#1D1C1B" points="61.4507533 1.04496425 66.7208021 1.04496425 66.7208021 26.3745216 79.3114827 26.3745216 79.3114827 31.2358496 61.4507533 31.2358496"></polygon>
                        <polygon id="Fill-11" fill="#1D1C1B" points="83.1591842 1.04496425 88.4292329 1.04496425 88.4292329 26.3745216 101.019914 26.3745216 101.019914 31.2358496 83.1591842 31.2358496"></polygon>
                        <polygon id="Fill-13" fill="#1D1C1B" points="104.868196 1.04496425 124.486125 1.04496425 124.486125 5.9058971 110.138245 5.9058971 110.138245 13.3259019 123.733095 13.3259019 123.733095 18.1872298 110.138245 18.1872298 110.138245 26.3745216 125.238768 26.3745216 125.238768 31.2358496 104.868196 31.2358496"></polygon>
                    </g>
                    <polygon id="Fill-16" fill="url(#linearGradient-5)" points="0 31.2832222 17.0611919 31.2832222 8.53059597 16.2199803"></polygon>
                    <polygon id="Fill-18" fill="#E94B4C" points="17.0612307 31.2830642 25.5918267 16.2202174 17.0612307 1.15737061 3.87560542e-05 1.15737061"></polygon>
                </g>
            </g>
        </g>
    </g>
</svg>