<svg width="62" height="62" viewBox="0 0 62 62" fill="none" xmlns="http://www.w3.org/2000/svg"><path d="M28.7525 49.95C28.7525 48.424 28.2156 47.1807 27.0853 46.1635C23.0726 42.5182 12.9562 42.6593 9.39562 43.0268L9 39.1835C9.59342 39.127 23.553 37.7707 29.6568 43.2812C31.6067 45.033 32.5957 47.2656 32.5957 49.9219" fill="#FBB040"/><path d="M29.4044 49.9509C29.4044 47.2947 30.3935 45.0624 32.3433 43.3103C38.447 37.8 52.4349 39.1563 53 39.2128L52.6044 43.0277C49.044 42.6603 38.9275 42.5191 34.9147 46.1644C33.7845 47.1817 33.2475 48.4251 33.2475 49.9509" fill="#FBB040"/><path d="M46.1342 20.1383C46.1342 20.1383 39.7761 18.3298 37.4308 21.8055C35.0571 25.2248 41.4998 30.0287 46.1342 20.1383Z" fill="#FBB040"/><path d="M50.3077 29.7177C50.3077 29.7177 44.4017 26.7789 41.4345 29.7461C38.4675 32.7131 43.9212 38.6191 50.3077 29.7177Z" fill="#FBB040"/><path d="M30.5954 12C30.5954 12 26.4979 17.1713 28.7868 20.6753C31.0757 24.1793 37.9708 20.0536 30.5954 12Z" fill="#FBB040"/><path d="M30.6736 26.4688C30.6736 26.4688 26.4348 31.527 28.6107 35.0874C30.7866 38.6481 37.7948 34.7484 30.6736 26.4688Z" fill="#FBB040"/><path d="M15.4775 20.1383C15.4775 20.1383 21.8356 18.3298 24.1811 21.8055C26.5265 25.2813 20.1119 30.0287 15.4775 20.1383Z" fill="#FBB040"/><path d="M11.2842 29.7177C11.2842 29.7177 17.1902 26.7789 20.1573 29.7461C23.1244 32.7131 17.6423 38.6191 11.2842 29.7177Z" fill="#FBB040"/></svg>