<svg width="62" height="62" viewBox="0 0 62 62" fill="none" xmlns="http://www.w3.org/2000/svg">
<rect width="62" height="62" rx="31" fill="white"/>
<g transform="translate(18.6637 10.8514) scale(0.073321)">
<path fill="black" d="M162.2,299.2h27.1l-2,9.7h-15.2l-1.8,7.8h14.3l-2,9.4h-14.2l-2,9.1h15.8l-2,9.7h-27.7L162.2,299.2 M188.7,310.3h11.9 l-2,24.9h0.1l8.6-24.9h11.9L203.3,345h-13.7L188.7,310.3 M227.5,329.5l-1,4.6c-0.8,3.7,0.5,4.7,2.1,4.7c2,0,3.5-1.3,4.6-6.1h10.4 c-1.9,8.3-6.8,13-16.3,13c-11.1,0-13.7-5.1-10.9-18.2c2.8-13.3,8.2-18.2,18.6-18.2c9.2,0,13,4,10.4,16.7l-0.8,3.5L227.5,329.5 M235.5,321.7c0.8-3.7,0.4-5.3-2-5.3c-2.4,0-3.5,1.6-4.3,5.3l-0.4,1.5h6.3L235.5,321.7z M251.5,310.3h11.1l-1.1,5.6h0.1 c2.1-4.2,5.7-6.4,9.1-6.4h1.9l-2.3,10.7c-1-0.3-1.9-0.3-2.8-0.3c-4,0-6.8,1.6-7.8,6.2l-4,18.8h-11.5L251.5,310.3 M293.6,299.2h11.5 l-3.2,15h0.1c1.9-3.5,4.9-4.8,8.2-4.8c6.7,0,9.7,4,7,17.4c-2.8,12.8-6.7,19-14.4,19c-4,0-6.1-1.8-6.7-5.7H296l-1,4.8h-11.1 L293.6,299.2 M300.3,337.3c2.7,0,3.8-2.1,5.3-9.6c1.6-7.5,1.5-9.7-1.3-9.7c-2.7,0-3.7,2.1-5.3,9.7 C297.5,335.1,297.7,337.3,300.3,337.3z M330.8,329.5l-1,4.6c-0.8,3.7,0.5,4.7,2.1,4.7c2,0,3.5-1.3,4.6-6.1h10.4 c-1.9,8.3-6.8,13-16.3,13c-11.1,0-13.7-5.1-10.9-18.2c2.8-13.3,8.2-18.2,18.6-18.2c9.2,0,13,4,10.4,16.7l-0.8,3.5L330.8,329.5 M338.8,321.7c0.8-3.7,0.4-5.3-2-5.3c-2.4,0-3.5,1.6-4.3,5.3l-0.4,1.5h6.3L338.8,321.7z M386.9,318h4.6l1.6-7.7h-4.6l2.1-10.2h-11.5 l-2.1,10.2h-8.6l2.1-10.2h-11.5l-2.1,10.2h-3.8l-1.6,7.7h3.8l-3.9,18.5c-1.6,7.7,0.9,8.9,8,8.9c1.9,0,4.2-0.1,6.3-0.4l1.6-7.7h-1.8 c-1.9,0-2.7-0.8-2.1-2.7L367,318h8.6l-3.9,18.5c-1.6,7.7,0.9,8.9,8,8.9c1.9,0,4.2-0.1,6.3-0.4l1.6-7.7h-1.8c-1.9,0-2.7-0.8-2.1-2.7 L386.9,318 M402,329.5l-1,4.6c-0.8,3.7,0.5,4.7,2.1,4.7c2,0,3.5-1.3,4.6-6.1H418c-1.9,8.3-6.8,13-16.3,13 c-11.1,0-13.7-5.1-10.9-18.2c2.8-13.3,8.2-18.2,18.6-18.2c9.2,0,13,4,10.4,16.7l-0.8,3.5L402,329.5 M410.1,321.7 c0.8-3.7,0.4-5.3-2-5.3c-2.4,0-3.5,1.6-4.3,5.3l-0.4,1.5h6.3L410.1,321.7z M426.1,310.3h11.1l-1.1,5.6h0.1c2.1-4.2,5.7-6.4,9.1-6.4 h1.9l-2.3,10.7c-1-0.3-1.9-0.3-2.8-0.3c-4,0-6.8,1.6-7.8,6.2l-4,18.8h-11.5L426.1,310.3 M439,332.3h10.7l-2.7,12.6h-10.7L439,332.3 M458.4,303.4H456v6.6h-1.3v-6.6h-2.4v-1h5.9v1 M468.3,309.9H467v-6.3l-2.5,6.3h-0.8l-2.5-6.3v6.3h-1.3v-7.6h1.9l2.3,5.8l2.3-5.8 h1.9L468.3,309.9L468.3,309.9z"/>
<path fill="#CE2028" d="M27.1,203.8h51.5c18.7,0,28.5,5.6,24.9,21.5c-2.1,9.7-8,17.2-21.6,20.2v0.3c8.2,0.8,12,4.3,12.4,10.9 c0.4,7.3-2.5,19.3-1.4,32.1H59.1c-0.6-6.3,0.6-17.1,1-24.4c0.3-4.2-1.6-5.9-7.2-5.9h-3.9l-6.6,30.2H8.6L27.1,203.8 M56,239.3 c6.6,0,11.9-2.3,13.3-8.6c1.4-6.2-2.8-7.6-9.6-7.6h-3l-3.5,16.1H56V239.3z"/>
<path fill="#CE2028" d="M112.9,290.6l-11.1-60.8h30.9l1.3,32.4h0.3l15-32.4h29.1l-46.4,81.6h-31.5L112.9,290.6 M209.5,282 c-6.6,6.7-14,8.6-20.6,8.6c-14.7,0-22.8-11-18.2-32c4.8-22.4,18.3-30.6,31.5-30.6c6.7,0,12.8,1.9,16.4,7.2l6.8-31.4h29.1l-18.5,85 h-27.4L209.5,282 M214.7,250.1c0-3.4-1.8-5.4-5.1-5.4c-6.1,0-8,5.2-10,14.5c-1.8,8-2.4,14.5,3.8,14.5c3.3,0,4.9-1.4,6.1-3.2 c1.3-1.8,2.4-5.3,3.7-11.4C214.3,254,214.7,252.5,214.7,250.1z M313,269.9c-5.1,13.4-17.2,20.7-39.8,20.7 c-17.7,0-31.9-7.7-26.7-31.6c4.4-20.4,20.9-31,42.5-31c22.9,0,31.4,11.4,26.8,32.5l-0.9,4h-41.6l-0.4,1.6c-1.5,6.8,0.3,9.7,6.1,9.7 c3.3,0,6.8-1.9,8.6-6.1H313 M291.3,252l0.1-0.9c1.3-5.7-1.1-8.6-5.7-8.6c-4.7,0-8.5,2.9-9.7,8.6l-0.1,0.9H291.3z M354.4,228.9 l-2.9,13.5h0.3c5.4-8.5,12.6-14.9,22-14.9c1.8,0,3.5,0.3,4.7,0.6l-5.2,24c-1.3-0.6-3.8-0.9-6.6-0.9c-8.2,0-16.7,7.1-18.6,15.9 l-4.7,21.7h-29.7l13-59.9h27.7"/>
<path fill="black" d="M9.9,209.7c-27.6,5.1-51,13.2-66.8,23.4l58.8,13.2L1,250.1l-132.8-29.6h83.6c16.8-6.6,36.8-11.5,58.8-14.3L9.9,209.7 M117.2,337.1l8.9-15.6c-16.1,2.3-33.5,3.5-51.5,3.5c-85.1,0-154-27.1-154-60.4c0-8.3,4.3-16.3,12.1-23.6l-13-2.9 c-13.7,10.6-21.5,23-21.5,36.2c0,38.8,67.7,70.4,151,70.4C73.5,344.7,96.9,341.9,117.2,337.1"/>
<path fill="#CE2028" d="M382,233.9c0-4.2,3.4-7.6,7.6-7.6s7.6,3.4,7.6,7.6s-3.4,7.6-7.6,7.6C385.4,241.4,382,238.1,382,233.9 M396.3,233.9c0-3.7-2.9-6.6-6.6-6.6c-3.7,0-6.7,2.9-6.7,6.6s2.9,6.7,6.7,6.7C393.3,240.5,396.3,237.6,396.3,233.9z M393.4,238.1 h-1.3l-2.4-3.9h-1.9v3.9h-1v-8.5h3.7c0.8,0,1.4,0,2,0.4c0.6,0.4,0.9,1.1,0.9,1.8c0,1.6-1.1,2.3-2.7,2.3L393.4,238.1L393.4,238.1z M389.5,233.4c1.1,0,3,0.3,3-1.5c0-1.3-1.1-1.5-2.1-1.5H388v3H389.5L389.5,233.4z"/>
</g>
</svg>
