<svg width="62" height="62" viewBox="0 0 62 62" fill="none" xmlns="http://www.w3.org/2000/svg"><path fill-rule="evenodd" clip-rule="evenodd" d="M9 19.4406C9 13.6743 13.6743 9 19.4406 9H42.4096C48.1757 9 52.85 13.6743 52.85 19.4406V42.4096C52.85 48.1757 48.1757 52.85 42.4096 52.85H19.4406C13.6745 52.85 9 48.1757 9 42.4096V19.4406ZM42.4096 24.6606C42.4096 27.5437 40.0724 29.8809 37.1893 29.8809C34.3063 29.8809 31.969 27.5437 31.969 24.6606C31.969 21.7776 34.3063 19.4404 37.1893 19.4404C40.0724 19.4406 42.4096 21.7776 42.4096 24.6606ZM24.6606 19.4406C21.7776 19.4406 19.4404 21.7778 19.4404 24.6609V41.3658C19.4404 41.9422 19.9078 42.4098 20.4844 42.4098H24.6606C27.5437 42.4098 29.8809 40.0726 29.8809 37.1895V20.4844C29.8809 19.9078 29.4135 19.4404 28.8369 19.4404H24.6606V19.4406Z" fill="#2C275F"/></svg>