<svg xmlns="http://www.w3.org/2000/svg" width="62" height="62" fill="none"><path d="M36.906 26.921c-3.803-.489-14.721-.054-14.721-5.052 0-2.933 4.617-4.563 8.8-4.563 4.454-.054 8.8 1.195 12.494 3.585l5.704-5.649c-1.684-1.358-7.931-5.758-18.197-5.758-9.343 0-17.763 4.889-17.763 12.711 0 12.005 14.504 12.005 20.533 12.603 3.694.38 7.007.597 7.007 4.183 0 3.368-5.106 5.215-9.072 5.215-6.464 0-10.321-2.119-14.123-5.541l-6.084 6.138c5.269 5.106 12.385 7.877 19.719 7.822 10.864 0 18.741-4.78 18.741-14.395 0-6.356-4.291-10.158-13.037-11.299z" fill="#00dc06"/></svg>