<svg xmlns="http://www.w3.org/2000/svg" width="62" height="62" fill="none" viewBox="0 0 62 34"><g transform="translate(18, -6) scale(2)"><path fill="#00d639" d="M6.63 0c3.754 0 6.807 2.599 6.877 6.216.035 1.018-.701 1.58-1.509 1.58-.771 0-1.438-.561-1.473-1.51C10.49 4.25 8.771 2.74 6.595 2.74c-2.035 0-3.578 1.44-3.578 3.406 0 2.143 1.438 3.091 4.42 4.18 3.193 1.159 6.105 2.528 6.105 6.602 0 3.547-2.772 6.392-6.63 6.392C3.122 23.319 0 20.65 0 17.033c0-2.247 1.087-3.828 2.14-3.828.912 0 1.473.597 1.473 1.405 0 .702-.596 1.018-.596 2.282 0 2.248 1.824 3.688 3.895 3.688 2.175 0 3.613-1.51 3.613-3.336 0-2.248-1.438-3.196-4.42-4.25C2.772 11.8 0 10.36 0 6.392 0 2.81 2.877 0 6.63 0z"/></g></svg>