<svg xmlns="http://www.w3.org/2000/svg" width="62" height="62" fill="none"><mask id="A" maskUnits="userSpaceOnUse" x="9" y="16" width="44" height="31"><path d="M53 16H9v30.784h44V16z" fill="#fff"/></mask><g mask="url(#A)"><mask id="B" maskUnits="userSpaceOnUse" x="9" y="16" width="44" height="31"><path d="M9.011 16.081H52.85v30.623H9.011V16.081z" fill="#00a1e0"/></mask><g mask="url(#B)"><path fill-rule="evenodd" d="M27.212 19.433c1.416-1.473 3.384-2.385 5.561-2.385 2.901 0 5.414 1.612 6.768 4.013 1.202-.537 2.504-.814 3.819-.814 5.222 0 9.463 4.271 9.463 9.541s-4.24 9.541-9.463 9.541c-.637 0-1.26-.064-1.87-.185-1.184 2.111-3.448 3.545-6.027 3.545-1.05.002-2.085-.236-3.029-.695-1.202 2.821-3.997 4.802-7.253 4.802-3.401 0-6.285-2.144-7.398-5.157a7.19 7.19 0 0 1-1.505.155c-4.046 0-7.319-3.32-7.319-7.397a7.43 7.43 0 0 1 3.66-6.413c-.465-1.068-.702-2.221-.702-3.385 0-4.706 3.819-8.51 8.526-8.51a8.49 8.49 0 0 1 6.77 3.352" fill="#00a1e0"/></g><path fill-rule="evenodd" d="M15.349 32.006c-.027.071.011.086.018.099.082.06.167.102.251.152.448.236.871.305 1.312.305.9 0 1.46-.479 1.46-1.249v-.015c0-.712-.633-.971-1.222-1.158l-.077-.024c-.448-.145-.832-.271-.832-.565v-.015c0-.251.225-.437.574-.437a2.6 2.6 0 0 1 1.141.293s.088.057.119-.027l.185-.494c.017-.048-.013-.082-.044-.101-.338-.207-.807-.348-1.29-.348h-.09c-.823 0-1.399.499-1.399 1.211v.015c0 .752.635.997 1.229 1.167l.095.029c.432.132.805.247.805.551v.015c0 .28-.243.487-.633.487-.152 0-.635-.002-1.158-.333l-.15-.093c-.026-.017-.09-.044-.117.04l-.177.496zm13.167-.002c-.027.071.011.086.02.099.082.06.166.104.249.152.448.238.871.306 1.313.306.898 0 1.458-.477 1.458-1.248v-.016c0-.712-.631-.971-1.222-1.156l-.077-.026c-.446-.144-.832-.271-.832-.563v-.017c0-.251.227-.435.574-.435a2.62 2.62 0 0 1 1.143.291s.086.057.119-.027l.181-.494c.018-.048-.013-.082-.042-.101-.338-.207-.807-.346-1.29-.346h-.09c-.825 0-1.399.498-1.399 1.209v.016c0 .75.635.995 1.227 1.165l.095.029c.433.134.807.249.807.551v.017c0 .278-.243.487-.633.487a2.12 2.12 0 0 1-1.16-.335l-.148-.093c-.016-.009-.093-.04-.119.042l-.178.492m8.994-1.509c0 .435-.082.779-.24 1.023s-.399.358-.732.358-.573-.117-.73-.357-.236-.587-.236-1.023.079-.776.236-1.017.393-.353.73-.353.573.117.732.353c.159.241.24.58.24 1.015zm.75-.805a1.82 1.82 0 0 0-.34-.653c-.154-.183-.347-.331-.578-.439s-.499-.161-.805-.161-.576.055-.807.161-.424.256-.576.439-.269.402-.342.653-.112.52-.112.807a2.86 2.86 0 0 0 .112.808 1.81 1.81 0 0 0 .342.653 1.61 1.61 0 0 0 .576.434c.23.106.501.159.807.159s.574-.053.803-.159a1.63 1.63 0 0 0 .578-.434 1.87 1.87 0 0 0 .342-.653 2.86 2.86 0 0 0 .11-.808c0-.287-.037-.558-.11-.807zm6.172 2.063c-.024-.073-.095-.046-.095-.046-.11.042-.227.081-.349.099s-.265.031-.412.031c-.362 0-.653-.11-.86-.324s-.324-.558-.322-1.026c.002-.426.104-.744.289-.99s.463-.368.832-.368c.309 0 .547.037.796.113 0 0 .058.026.086-.051l.187-.512c.018-.058-.029-.082-.048-.09-.097-.037-.327-.099-.501-.126a3.94 3.94 0 0 0-.565-.037 2.03 2.03 0 0 0-.836.161 1.73 1.73 0 0 0-.604.437c-.161.185-.284.404-.366.653s-.122.521-.122.808c0 .622.166 1.127.499 1.496s.832.558 1.483.558a3.06 3.06 0 0 0 1.063-.19s.055-.026.031-.09l-.187-.508zm1.315-1.677c.035-.241.101-.443.205-.598.157-.24.393-.37.728-.37s.554.132.712.37c.104.157.15.366.168.598h-1.822.009zm2.53-.53c-.064-.241-.223-.485-.326-.596-.165-.176-.324-.298-.483-.366-.23-.099-.479-.148-.73-.148-.317 0-.605.053-.84.163s-.43.26-.585.446a1.83 1.83 0 0 0-.344.66c-.075.251-.112.523-.112.81 0 .294.038.567.115.812a1.66 1.66 0 0 0 1.008 1.07c.258.101.569.152.924.15.735-.002 1.123-.166 1.281-.254.027-.017.055-.044.022-.123l-.166-.465c-.026-.069-.095-.044-.095-.044-.183.068-.441.19-1.045.188-.395-.002-.688-.117-.871-.3s-.28-.459-.295-.847l2.546.002s.066 0 .073-.066c.004-.027.088-.521-.075-1.094h-.004zm-22.887.53c.037-.241.102-.443.207-.598.155-.24.393-.37.728-.37s.554.132.712.37c.104.157.15.366.168.598h-1.822.007zm2.532-.53c-.064-.241-.223-.485-.326-.596-.165-.176-.324-.298-.485-.366-.23-.099-.477-.148-.728-.148-.316 0-.605.053-.84.163a1.68 1.68 0 0 0-.585.446c-.154.187-.271.408-.344.66s-.112.523-.112.81c0 .294.038.567.115.812a1.68 1.68 0 0 0 1.008 1.07c.256.101.565.152.924.15.734-.002 1.121-.166 1.279-.254.027-.017.055-.044.022-.123l-.166-.465c-.026-.069-.095-.044-.095-.044-.183.068-.441.19-1.044.188-.393-.002-.688-.117-.871-.3s-.28-.459-.295-.847l2.546.002s.066 0 .073-.066c.004-.027.088-.521-.075-1.094h-.002zm-8.027 2.191c-.101-.081-.113-.099-.146-.152-.051-.077-.077-.189-.077-.329 0-.223.075-.384.227-.492-.002 0 .22-.19.739-.183a5.15 5.15 0 0 1 .69.059v1.156s-.322.068-.686.09c-.518.031-.746-.148-.745-.148h-.002zm1.012-1.789l-.397-.011a2.39 2.39 0 0 0-.624.081 1.61 1.61 0 0 0-.53.245 1.25 1.25 0 0 0-.369.419c-.09.168-.135.366-.135.587 0 .227.038.421.115.58a1.05 1.05 0 0 0 .333.399c.141.102.315.179.518.223s.424.07.673.07a4.69 4.69 0 0 0 .772-.064l.64-.124.179-.046c.062-.017.057-.082.057-.082l-.002-2.321c0-.509-.135-.889-.404-1.121s-.659-.351-1.167-.351a4.2 4.2 0 0 0-.68.062s-.554.108-.785.287c0 0-.049.031-.022.101l.181.483c.022.064.082.042.082.042s.02-.007.042-.022c.488-.265 1.107-.258 1.107-.258.274 0 .488.057.629.165s.21.269.21.607v.106l-.419-.049-.004-.006zm20.469-1.31c.004-.009.005-.018.005-.027s-.002-.018-.005-.027-.009-.017-.015-.022-.015-.013-.024-.015c-.044-.017-.26-.062-.424-.073-.32-.02-.498.033-.657.106s-.333.185-.428.317l-.002-.309c0-.042-.029-.077-.073-.077h-.649c-.044 0-.073.035-.073.077v3.788c0 .02.007.038.022.053s.035.024.055.024h.668c.02 0 .04-.009.053-.024s.024-.033.024-.053v-1.902c0-.254.027-.508.084-.668s.13-.284.221-.373a.76.76 0 0 1 .315-.188 1.21 1.21 0 0 1 .342-.049 1.39 1.39 0 0 1 .278.035c.049.006.077-.024.093-.069l.192-.532" fill="#fffffe"/><path fill-rule="evenodd" d="M35.142 26.888c-.082-.026-.165-.046-.251-.06a1.99 1.99 0 0 0-.346-.026c-.459 0-.821.13-1.075.386s-.426.642-.512 1.152l-.031.172h-.576s-.071-.002-.086.075l-.095.529c-.005.051.016.082.084.082h.562l-.571 3.181c-.044.256-.095.468-.152.627s-.11.276-.177.36-.126.145-.232.181a.95.95 0 0 1-.3.042 1.08 1.08 0 0 1-.203-.022c-.06-.013-.093-.026-.137-.044 0 0-.066-.026-.093.04l-.188.518c-.016.049.007.09.04.101a1.73 1.73 0 0 0 .232.068c.141.033.26.035.371.035.234 0 .448-.033.626-.095s.331-.178.468-.329c.148-.163.242-.335.331-.569s.163-.518.223-.854l.573-3.24h.838s.071.002.086-.075l.093-.529c.007-.049-.015-.082-.082-.082h-.812c.004-.018.04-.304.133-.572a.72.72 0 0 1 .179-.271.54.54 0 0 1 .212-.134c.088-.027.181-.04.273-.038.077 0 .152.009.209.02l.13.033c.084.024.095 0 .112-.04l.194-.534c.02-.057-.029-.081-.048-.088zm-11.358 5.499c0 .042-.031.077-.073.077h-.673c-.044 0-.073-.035-.073-.077v-5.427c0-.042.029-.077.073-.077h.673c.042 0 .073.035.073.077v5.427z" fill="#fffffe"/></g></svg>