<svg width="62" height="62" viewBox="0 0 62 62" fill="none" xmlns="http://www.w3.org/2000/svg"><g clip-path="url(#clip0_2373_2)"><path fill-rule="evenodd" clip-rule="evenodd" d="M22.3427 51.2312C24.9997 52.3697 27.9262 53 31 53C43.1502 53 53 43.1502 53 31C53 18.8497 43.1502 9 31 9C18.8497 9 9 18.8497 9 31C9 36.5761 11.0745 41.6676 14.4938 45.5451L11.4656 49.4479C10.2182 51.0556 11.6345 53.3496 13.6307 52.9547L22.3427 51.2312Z" fill="url(#paint0_radial_2373_2)"/><path fill-rule="evenodd" clip-rule="evenodd" d="M10.238 38.294L19.2304 28.8877C20.7056 27.3447 23.0754 27.0831 24.8516 28.2673L29.1645 31.1425C30.1855 31.8232 31.566 31.537 32.2322 30.5067L37.2161 22.8003C37.2161 22.8003 38.0039 21.7786 39.0885 22.3993C40.1731 23.0201 39.6948 24.2265 39.6948 24.2265L35.1334 36.7912C34.1599 39.473 30.9309 40.5334 28.5569 38.9508L24.3641 36.1556C23.4042 35.5157 22.113 35.7258 21.4057 36.6374L14.4936 45.5441C12.6422 43.4447 11.1851 40.9893 10.238 38.294Z" fill="white"/></g><defs><radialGradient id="paint0_radial_2373_2" cx="0" cy="0" r="1" gradientUnits="userSpaceOnUse" gradientTransform="translate(23.745 53) rotate(-64.5044) scale(38.7172 37.7274)"><stop stop-color="#0780DC"/><stop offset="1" stop-color="#31A3FB"/></radialGradient><clipPath id="clip0_2373_2"><rect width="44" height="44" fill="white" transform="translate(9 9)"/></clipPath></defs></svg>