<svg xmlns="http://www.w3.org/2000/svg" width="62" height="62" fill="none"><rect width="62" height="62" rx="31" fill="#fff"/><path d="M24.48 17.8c0-2.933 2.787-5.28 6.453-5.28 4.693 0 7.48 2.2 9.093 13.347h1.027l1.467-15.253c-10.56-3.667-23.467.293-23.613 11.147 0 11.88 18.92 11.88 18.92 22.733 0 3.227-2.787 5.28-6.013 5.28-8.36 0-10.267-7.04-10.707-14.373h-1.173l-2.787 13.787s6.16 3.667 12.907 3.667c8.067-.147 13.347-6.013 13.64-12.173 0-11.88-19.213-14.373-19.213-22.88z" fill="#06492e"/></svg>