<?xml version="1.0" encoding="UTF-8"?>
<svg xmlns="http://www.w3.org/2000/svg" xmlns:xlink="http://www.w3.org/1999/xlink" width="62px" height="62px" viewBox="0 0 62 62" version="1.1">
<g id="surface1">
<path style=" stroke:none;fill-rule:nonzero;fill:rgb(94.117647%,67.058825%,0%);fill-opacity:1;" d="M 29.488281 39.910156 C 24.3125 39.910156 19.996094 35.664062 19.996094 30.570312 C 19.996094 25.476562 24.167969 21.230469 29.488281 21.230469 C 32.078125 21.230469 34.523438 22.21875 36.105469 23.917969 L 40.996094 19.105469 C 37.976562 16.132812 33.949219 14.4375 29.347656 14.4375 C 20.28125 14.4375 12.945312 21.652344 12.945312 30.570312 C 12.945312 39.488281 20.28125 46.707031 29.347656 46.707031 C 33.804688 46.707031 37.976562 44.867188 40.996094 42.035156 L 36.105469 37.222656 C 34.378906 38.78125 32.078125 39.910156 29.488281 39.910156 "/>
<path style=" stroke:none;fill-rule:nonzero;fill:rgb(94.117647%,67.058825%,0%);fill-opacity:1;" d="M 43.300781 26.464844 C 40.996094 26.464844 39.128906 28.304688 39.128906 30.570312 C 39.128906 32.835938 40.996094 34.675781 43.300781 34.675781 C 45.601562 34.675781 47.472656 32.835938 47.472656 30.570312 C 47.472656 28.304688 45.601562 26.464844 43.300781 26.464844 "/>
<path style=" stroke:none;fill-rule:nonzero;fill:rgb(94.117647%,67.058825%,0%);fill-opacity:1;" d="M 0 62 L 62 62 L 62 0 L 0 0 Z M 6.90625 54.066406 L 6.90625 6.792969 L 54.953125 6.792969 L 54.953125 54.066406 C 54.953125 54.066406 6.90625 54.066406 6.90625 54.066406 Z M 6.90625 54.066406 "/>
</g>
</svg>
