<svg width="62" height="62" viewBox="0 0 62 62" fill="none" xmlns="http://www.w3.org/2000/svg"><path d="M24.0098 13.7866C18.9163 13.7866 15.4798 17.5913 15.4798 23.2371C15.4798 29.3738 21.0642 35.265 27.5077 42.1381L31.3738 46.2496L35.2399 42.1381C41.6834 35.3264 47.2678 29.4351 47.2678 23.2371C47.2678 17.5913 43.8313 13.7866 38.7378 13.7866C36.59 13.7866 34.5035 14.7071 32.9693 16.4254L31.3124 18.205L29.6555 16.4254C28.2441 14.7071 26.219 13.7866 24.0098 13.7866ZM31.4351 53L24.378 45.5133C17.198 37.9651 11 31.3989 11 23.2371C11 15.0139 16.523 9 24.0711 9C26.7713 9 29.2873 9.92049 31.4351 11.5774C33.583 9.92049 36.1604 9 38.7992 9C46.3473 9 51.8703 15.0139 51.8703 23.2371C51.8703 31.3989 45.6722 37.9651 38.4923 45.5133L31.4351 53Z" fill="#F0AB00"/></svg>