<svg width="62" height="62" viewBox="0 0 62 62" fill="none" xmlns="http://www.w3.org/2000/svg"><g clip-path="url(#clip0_1784_8)"><path fill-rule="evenodd" clip-rule="evenodd" d="M9 42H31.2369L53 20H9V42Z" fill="url(#paint0_linear_1784_8)"/><path fill-rule="evenodd" clip-rule="evenodd" d="M35.1121 24.1364H30.7802V34.5454L26.9967 24.1331H23.2452L20.0155 32.8382C19.6698 30.6436 17.4291 29.8855 15.6579 29.3171C14.4906 28.9386 13.2519 28.3811 13.2679 27.7642C13.2775 27.2595 13.9326 26.7936 15.229 26.8605C16.1007 26.9069 16.8689 26.978 18.399 27.7232L19.9034 25.0757C18.5025 24.3585 16.5755 23.9045 14.9932 23.9023H14.9836C13.1399 23.9023 11.6034 24.5063 10.6517 25.5017C9.99261 26.1855 9.62128 27.1008 9.61563 28.0554C9.59109 29.398 10.0787 30.3524 11.103 31.1073C11.9672 31.7479 13.0726 32.1631 14.0479 32.4683C15.2503 32.8447 16.232 33.1725 16.2202 33.8703C16.2134 34.1275 16.1118 34.3729 15.9353 34.5583C15.6355 34.8711 15.1746 34.9897 14.5387 35.0005C13.3127 35.0264 12.4047 34.8322 10.9525 33.9663L9.61563 36.6526C11.1123 37.5113 12.8028 37.9652 14.5237 37.9705H14.7489C16.2682 37.9435 17.4953 37.5057 18.4747 36.7076C18.5313 36.6634 18.5814 36.617 18.6337 36.5696L18.1941 37.7397H22.1238L22.7843 35.7101C23.5302 35.9602 24.3116 36.0852 25.0975 36.08C25.8636 36.0838 26.6255 35.9655 27.3552 35.7295L27.9954 37.7397H34.4122V33.5338H35.811C39.1944 33.5338 41.1949 31.7921 41.1949 28.875C41.1949 25.6278 39.2509 24.1364 35.1121 24.1364ZM25.1017 33.0485C24.6285 33.0514 24.1587 32.9681 23.7147 32.8026L25.0879 28.4253H25.1113L26.4611 32.8156C26.0242 32.9701 25.5646 33.0488 25.1017 33.0485ZM35.3661 30.5325H34.4122V26.9996H35.3661C36.639 26.9996 37.6536 27.431 37.6536 28.7402C37.6536 30.099 36.639 30.5271 35.3661 30.5271" fill="white"/></g><defs><linearGradient id="paint0_linear_1784_8" x1="31" y1="20" x2="31" y2="42" gradientUnits="userSpaceOnUse"><stop stop-color="#00B8F1"/><stop offset="0.02" stop-color="#01B6F0"/><stop offset="0.31" stop-color="#0D90D9"/><stop offset="0.58" stop-color="#1775C8"/><stop offset="0.82" stop-color="#1C65BF"/><stop offset="1" stop-color="#1E5FBB"/></linearGradient><clipPath id="clip0_1784_8"><rect width="44" height="22" fill="white" transform="translate(9 20)"/></clipPath></defs></svg>