<svg width="62" height="62" viewBox="0 0 62 62" fill="none" xmlns="http://www.w3.org/2000/svg"><rect width="62" height="62" rx="31" fill="white"/><path d="M53 9H9V53H53V9Z" fill="#00A0DF"/><path d="M47.2276 28.9393C47.2276 29.9953 45.9428 30.9457 44.9396 30.9457C44.2708 30.9457 43.69 30.4705 43.69 30.1889C43.69 30.0129 43.7428 29.5025 43.9892 29.5025C44.1652 29.5025 44.3236 29.6433 44.4996 29.8017C44.746 30.0305 45.0452 30.2945 45.4852 30.2945C45.9252 30.2945 46.3828 29.9953 46.3828 29.5025C46.3828 29.2033 46.154 28.9217 45.9076 28.5873C45.5908 28.1825 45.2212 27.7073 45.2212 27.1089C45.2212 26.0177 46.3124 24.6097 47.5444 24.6097C48.09 24.6097 48.4068 24.9265 48.4068 25.2257C48.4068 25.4721 48.1428 25.7889 47.8436 25.7889C47.6148 25.7889 47.4388 25.7009 47.2628 25.6305C47.0868 25.5601 46.9108 25.4721 46.6996 25.4721C46.2772 25.4721 45.9956 25.7889 45.9956 26.2817C45.9956 26.6513 46.2596 27.0033 46.5412 27.3729C46.858 27.8305 47.2276 28.3409 47.2276 28.9393ZM20.3876 21.1953C20.37 21.1953 20.3348 21.2305 20.3348 21.2481V21.5473C20.3348 21.5649 20.3524 21.5825 20.37 21.6001L20.546 21.6177L20.7748 21.6353C21.074 21.6881 21.1444 21.7409 21.1444 21.8817C21.1444 22.1281 20.8628 22.9201 20.4756 24.0113L20.1236 24.9969C19.8244 25.8769 19.3492 27.0913 18.9444 28.1649C18.4516 29.4497 18.0644 30.4529 18.0644 30.5937C18.0644 30.7521 18.1524 30.8049 18.522 30.8049C18.9268 30.8049 19.1028 30.7345 19.138 30.5937C19.8244 28.3233 21.7252 25.7361 22.7108 25.7361C23.0276 25.7361 23.1332 25.8417 23.1332 26.1585C23.1332 26.6689 22.7108 27.6193 22.2884 28.5345C21.9188 29.3441 21.5844 30.1009 21.5844 30.4705C21.5844 30.8049 21.7428 30.9809 22.0244 30.9809C22.9924 30.9809 23.7316 30.1009 24.33 29.3969L24.418 29.2913L24.4356 29.2561L24.418 29.2209L24.2244 28.9745C24.2244 28.9745 24.2068 28.9569 24.1892 28.9569C24.1716 28.9569 24.154 28.9569 24.154 28.9745C23.8196 29.3265 23.2564 29.8545 23.098 29.8721C23.0452 29.8721 23.0276 29.8721 23.01 29.8545C22.9924 29.8369 22.9924 29.7841 22.9924 29.6961C23.01 29.6257 23.098 29.3793 23.2564 29.0273C23.626 28.1297 24.242 26.6513 24.242 25.7537C24.242 25.0497 23.9076 24.6449 23.3092 24.6449C22.1124 24.6449 21.162 26.0001 20.7044 26.6513C20.5988 26.8097 20.4932 26.9505 20.4756 26.9505H20.458C20.4404 26.9153 20.5108 26.7745 20.634 26.4929C20.7572 26.1937 20.9508 25.7361 21.2324 25.0497C22.13 22.7265 22.4996 21.4769 22.4996 21.3713C22.4996 21.2305 22.3764 21.2129 22.2356 21.2129H20.3876V21.1953ZM17.7652 29.5201C17.7652 29.5025 17.7652 29.4849 17.7652 29.4673L17.554 29.2561C17.554 29.2385 17.5364 29.2385 17.5188 29.2385C17.5012 29.2385 17.5012 29.2385 17.4836 29.2561L17.466 29.2737C17.0964 29.6081 16.3748 30.1889 15.7412 30.2417C15.4948 30.2593 15.266 30.1889 15.09 30.0305C14.8788 29.8369 14.7556 29.5553 14.738 29.1857C14.7028 28.2177 15.5124 26.7745 16.322 25.9121C16.762 25.4545 17.1668 25.2081 17.4484 25.2081C17.7828 25.2081 17.994 25.4545 18.2052 25.7009C18.3812 25.9121 18.5572 26.1233 18.8036 26.1233C18.8916 26.1233 18.9972 26.0705 19.0852 26.0001C19.1732 25.9121 19.2084 25.7889 19.2084 25.6657C19.2084 25.2609 18.8564 24.6625 17.994 24.6449C17.0084 24.6273 15.794 25.2257 14.8788 26.1585C14.0164 27.0561 13.5588 28.1121 13.6116 29.1505C13.6468 30.0129 14.122 30.9457 15.3188 30.9457C16.5332 30.9457 17.5892 29.8545 17.7652 29.5201ZM33.6052 27.3025C33.5876 27.3553 33.5172 27.4961 33.4996 27.4785H33.482V27.4257C33.482 27.3729 33.5524 27.1089 33.6228 26.7921C33.7636 26.1937 33.9572 25.3665 33.9572 25.1201C33.9572 24.8033 33.7812 24.6449 33.482 24.6449C32.8308 24.6449 31.8452 25.7185 31.5108 26.2817L31.4932 26.2993C31.4932 26.3169 31.4932 26.3169 31.5108 26.3345L31.7044 26.5281C31.7044 26.5457 31.722 26.5457 31.7396 26.5457C31.7572 26.5457 31.7748 26.5281 31.7748 26.5281L31.8276 26.4577L31.8804 26.3873C32.0916 26.1057 32.5492 25.5425 32.7956 25.5425C32.9188 25.5425 32.9892 25.6657 32.9892 25.8945C32.9892 26.4753 32.3556 28.2177 31.9332 29.3793C31.7044 30.0305 31.5284 30.5057 31.5284 30.5937C31.5284 30.7169 31.5812 30.7697 31.6868 30.7697H32.2324C32.338 30.7697 32.3908 30.6993 32.4612 30.5233C32.4612 30.5233 32.7252 29.8897 32.8836 29.5729C33.9572 27.3729 34.5556 26.2465 35.0132 25.8065C35.3124 25.5073 35.5236 25.3841 35.682 25.3841C35.8052 25.3841 35.8756 25.4897 35.9636 25.5777C36.0516 25.6833 36.1396 25.7889 36.298 25.8065C36.4036 25.8065 36.5092 25.7713 36.5972 25.7009C36.738 25.5777 36.8084 25.3489 36.8084 25.1201C36.8084 24.7153 36.5268 24.5745 36.2804 24.5745C35.3124 24.6273 34.5908 25.3665 33.6052 27.3025ZM30.226 24.5217C30.2612 24.5041 30.314 24.5217 30.3668 24.5569C30.3668 24.5569 30.3844 24.5569 30.3844 24.5745L30.754 24.8209C30.842 24.8561 30.842 24.9617 30.842 24.9793C30.8244 25.1025 30.5428 25.8769 30.1908 26.7745C29.7332 27.9889 29.1524 29.5025 29.1348 29.7841C29.1348 29.8897 29.1348 29.9425 29.17 29.9601C29.1876 29.9777 29.2228 29.9953 29.2756 29.9953C29.4868 29.9953 29.8388 29.5553 30.1204 29.2209L30.3316 28.9569C30.3492 28.9393 30.3844 28.9393 30.402 28.9569L30.6132 29.2033L30.6308 29.2385C30.6308 29.2385 30.6132 29.2737 30.6132 29.2561C30.314 29.7137 29.4868 30.9281 28.5364 30.9457C28.3604 30.9457 28.2372 30.9105 28.1492 30.8049C28.0436 30.6993 27.9908 30.5409 27.9908 30.3121C27.9908 29.8545 28.2196 29.3441 28.3428 29.0801L28.4132 28.9041C28.4308 28.8689 28.4308 28.8513 28.4132 28.8337H28.3956C28.3604 28.8337 28.1492 29.2033 28.1492 29.2033C27.146 30.7345 26.354 30.9281 25.7732 30.9281C25.298 30.9281 24.8404 30.5409 24.8404 29.6785C24.8404 28.4113 26.266 24.7505 28.994 24.7505C29.2404 24.7505 29.4164 24.7857 29.5572 24.8209C29.6628 24.8385 29.7508 24.8561 29.8388 24.8561C29.9444 24.8561 29.9972 24.7681 30.05 24.6801C30.0852 24.6273 30.138 24.5569 30.226 24.5217ZM25.8964 29.3969C25.8964 29.9073 26.0372 29.9953 26.3012 29.9953C27.498 29.9953 29.434 26.6161 29.434 25.8945C29.434 25.4193 29.17 25.1553 28.7124 25.1553C27.3044 25.1553 25.8964 27.6193 25.8964 29.3969ZM39.0788 29.2209C39.0788 27.0033 41.5604 24.6449 43.3028 24.6449C44.13 24.6449 44.57 25.1553 44.57 25.6305C44.57 26.7921 42.6692 27.2849 41.6484 27.2849L41.0676 27.2673C41.0676 27.2673 40.9796 27.2673 40.962 27.2673C40.962 27.2849 40.9268 27.3201 40.9268 27.3201C40.6452 27.7425 40.2756 28.3233 40.2756 29.0977C40.2756 29.7313 40.6628 30.1361 41.2788 30.1361C41.7892 30.1361 42.4756 29.6257 42.8452 29.3441L43.0036 29.2385C43.0212 29.2209 43.0564 29.2209 43.074 29.2385L43.25 29.4673C43.2676 29.4849 43.2676 29.5025 43.25 29.5201C42.9684 29.8897 41.7892 30.9457 40.6804 30.9457C39.7476 30.9457 39.0788 30.2417 39.0788 29.2209ZM43.1092 25.0321C42.3524 25.0321 41.5428 26.2641 41.2612 26.7745C42.7748 26.7569 43.6372 26.2993 43.6372 25.5601C43.6372 25.2609 43.4084 25.0321 43.1092 25.0321ZM38.5684 29.2913C38.586 29.2737 38.5684 29.2385 38.5684 29.2385C38.5684 29.2209 38.3572 28.9745 38.3572 28.9745C38.3396 28.9569 38.3396 28.9569 38.322 28.9569C38.3044 28.9569 38.2868 28.9569 38.2868 28.9745L38.2164 29.0449C37.6884 29.6257 37.3892 29.9601 37.1428 29.9601C37.1076 29.9601 37.0724 29.9601 37.0372 29.9249C37.002 29.8897 36.9844 29.8193 36.9844 29.7489C37.002 29.4145 37.53 27.8833 38.6036 25.0673L39.378 23.0433C39.7828 21.9873 39.994 21.4593 39.994 21.3889C39.994 21.3361 39.9764 21.3009 39.9588 21.2833C39.9236 21.2481 39.8532 21.2305 39.7476 21.2305H37.9172C37.882 21.2305 37.8644 21.2481 37.8644 21.2833L37.8468 21.5825C37.8468 21.6001 37.8644 21.6353 37.882 21.6353L38.2868 21.6705C38.5508 21.7233 38.6564 21.7937 38.6388 21.9697C38.6212 22.2337 37.442 25.1553 37.442 25.1553C36.8084 26.7393 35.7348 29.4673 35.7172 30.1185C35.6996 30.4001 35.77 30.6289 35.9108 30.7873C36.034 30.9281 36.2276 30.9809 36.4564 30.9809C37.1956 30.9809 37.9348 30.0481 38.4276 29.4321L38.5684 29.2913ZM13.6116 34.8001C13.6116 35.6625 14.298 36.1201 14.9492 36.4721L15.2308 36.6129C15.8996 36.9473 16.1636 37.2817 16.1636 37.7921C16.1636 38.3729 15.794 38.7953 15.2484 38.7953C14.386 38.7953 13.8932 37.8977 13.682 37.3521V37.3345L13.3828 37.4401V37.4577C13.4708 38.0033 13.5764 38.6017 13.6468 38.8305L13.7876 38.8833L14.1748 39.0241C14.4388 39.1121 14.7556 39.1825 15.0724 39.1825C16.2868 39.1825 17.114 38.4433 17.114 37.3697C17.114 36.3665 16.3396 35.9089 15.7764 35.6449L15.5476 35.5393C14.8084 35.2049 14.5092 34.8705 14.5092 34.4129C14.5092 33.9553 14.7908 33.4977 15.4068 33.4977C16.1284 33.4977 16.41 34.0609 16.586 34.6241V34.6417L16.9028 34.5889V34.5713C16.8324 34.1313 16.762 33.7441 16.7268 33.3745V33.3569L16.5156 33.2865L16.3396 33.2337C16.1108 33.1457 15.8116 33.1105 15.53 33.1105C14.4036 33.0929 13.6116 33.7969 13.6116 34.8001ZM17.7828 36.2257C17.7828 37.6865 18.8036 39.1649 21.074 39.1649C21.6548 39.1649 22.4292 38.9889 22.746 38.9009C22.9044 38.5489 23.1156 37.7921 23.2036 37.4049V37.3873L22.922 37.3345V37.3521C22.4644 38.2849 22.0244 38.7953 21.0564 38.7953C19.8068 38.7953 18.962 37.6689 18.962 36.0145C18.962 34.8529 19.5076 33.4977 21.0564 33.4977C21.9716 33.4977 22.4644 33.8849 22.7108 34.8001V34.8177L22.9924 34.7825L22.9572 34.3777L22.834 33.3393H22.8164L22.658 33.3041C22.3588 33.2337 21.8484 33.1105 21.2148 33.1105C19.2084 33.0929 17.7828 34.3777 17.7828 36.2257ZM29.8564 33.2161H27.322V33.4977H27.3396C27.9908 33.5505 28.0788 33.5857 28.0788 34.5713V35.7505H25.386V34.5713C25.386 33.6033 25.474 33.5505 26.1076 33.4977H26.1252V33.2161H23.5556V33.4977H23.5732C24.33 33.5505 24.3828 33.6209 24.3828 34.5713V37.6865C24.3828 38.6193 24.33 38.7073 23.6084 38.7601H23.5908V39.0417H26.1604V38.7601H26.1428C25.474 38.7073 25.386 38.6545 25.386 37.6865V36.1905H28.0612V37.6865C28.0612 38.6369 28.0084 38.7073 27.2516 38.7601H27.234V39.0417H29.8388V38.7601H29.8212C29.1524 38.7073 29.0644 38.6721 29.0644 37.6865V34.5713C29.0644 33.6209 29.1172 33.5505 29.8212 33.4977H29.8388L29.8564 33.2161ZM38.7796 33.2161H36.7204V33.4977L37.0372 33.5153C37.2132 33.5329 37.3012 33.5681 37.354 33.6385C37.3892 33.6737 37.3892 33.7265 37.3892 33.8145C37.3892 33.9025 37.3716 34.0433 37.3188 34.2193C37.3012 34.3073 36.8084 36.2257 36.4212 37.5281C36.3508 37.3521 34.8724 33.3217 34.8724 33.3217V33.3041H34.5204C34.5204 33.3041 33.2004 37.4577 33.1828 37.5281C33.13 37.3345 32.1444 34.0785 32.1444 34.0785C32.1092 33.9553 32.0916 33.8497 32.0916 33.7793C32.0916 33.7265 32.1092 33.6737 32.1268 33.6561C32.1796 33.5857 32.2676 33.5505 32.426 33.5329L32.7076 33.5153V33.4977V33.2337H30.2788V33.5153H30.2964C30.7716 33.5681 30.9124 33.6209 31.1588 34.3777L32.6196 39.1297H33.042C33.042 39.1297 34.4148 35.0289 34.4148 34.9761C34.4852 35.1521 35.9284 39.1121 35.9284 39.1121V39.1297H36.3508V39.1121C37.178 36.3665 37.8468 34.4305 37.8468 34.4129C38.146 33.6033 38.2164 33.5681 38.762 33.5153H38.7796V33.2161ZM40.2932 34.6241C40.2932 34.6417 39.6244 36.5073 39.6068 36.5425H40.9796C40.962 36.5073 40.3108 34.6417 40.2932 34.6241ZM42.546 37.8625C42.8452 38.6721 42.986 38.7073 43.4788 38.7601H43.4964V39.0417H41.1204V38.7601L41.3844 38.7249C41.5428 38.7073 41.6308 38.6721 41.666 38.6193C41.6836 38.6017 41.6836 38.5665 41.6836 38.5313C41.6836 38.4609 41.666 38.3905 41.6308 38.2673C41.5428 38.0033 41.3316 37.4753 41.1556 37.0001H39.5188C39.4132 37.2289 39.29 37.6337 39.1668 37.9857L39.114 38.1265C39.0612 38.2849 39.0436 38.3905 39.0436 38.4785C39.0436 38.5313 39.0612 38.5665 39.0788 38.6017C39.1316 38.6721 39.2196 38.7073 39.4132 38.7249L39.6772 38.7601V39.0417H37.6708V38.7601H37.6884C38.234 38.6897 38.322 38.6545 38.6388 37.8625L40.4516 33.1985L40.8212 33.1633H40.8388L41.4372 34.7825L42.546 37.8625ZM45.626 35.7505H45.9604C46.7524 35.7505 47.1924 35.3633 47.1924 34.6593C47.1924 33.6737 46.3476 33.5857 46.0836 33.5857C45.802 33.5857 45.6964 33.6209 45.6788 33.6209C45.6084 33.6561 45.6084 33.8145 45.6084 34.0081V35.7505H45.626ZM46.3828 33.2161C47.0516 33.2161 47.4212 33.2865 47.7556 33.5153C48.09 33.7441 48.266 34.0785 48.266 34.5361C48.266 35.3457 47.474 35.7329 47.034 35.8209C48.0196 35.9617 48.6004 36.5073 48.6004 37.3169C48.6004 37.8977 48.3364 38.3377 47.7908 38.6721C47.4036 38.9009 46.7876 39.0241 46.0836 39.0241H43.8484V38.7425H43.866C44.5348 38.6897 44.6228 38.6369 44.6228 37.6689V34.5537C44.6228 33.5857 44.5524 33.5329 43.9188 33.4801H43.9012V33.1985H43.9188H46.3828V33.2161ZM45.626 36.1025V37.6689C45.626 38.1089 45.6612 38.3905 45.802 38.5313C45.89 38.6193 46.0308 38.6545 46.2948 38.6545C46.858 38.6545 47.474 38.3377 47.474 37.4225C47.474 36.5777 46.9108 36.1025 45.9252 36.1025H45.626Z" fill="white"/></svg>