<svg xmlns="http://www.w3.org/2000/svg" xmlns:xlink="http://www.w3.org/1999/xlink" width="500" zoomAndPan="magnify" viewBox="0 0 375 374.999991" height="500" preserveAspectRatio="xMidYMid meet" version="1.0"><defs><clipPath id="04ab82ba5e"><path d="M 22 17.984375 L 354 17.984375 L 354 348.730469 L 22 348.730469 Z M 22 17.984375 " clip-rule="nonzero"/></clipPath></defs><path fill="#f9d94a" d="M 192.402344 188.09375 L 42.015625 105.757812 L 192.402344 32.261719 Z M 192.402344 188.09375 " fill-opacity="1" fill-rule="nonzero"/><g clip-path="url(#04ab82ba5e)"><path fill="#362490" d="M 176.714844 49.554688 L 64.199219 104.132812 L 176.714844 165.703125 Z M 176.714844 195.355469 L 48.828125 125.371094 L 48.828125 173.011719 L 176.714844 239.019531 Z M 176.714844 268.292969 L 31.894531 193.542969 C 26.335938 190.671875 22.84375 184.9375 22.84375 178.675781 L 22.84375 95.28125 L 178.714844 19.675781 C 189.804688 14.296875 202.703125 22.386719 202.703125 34.730469 L 202.703125 95.488281 L 344.53125 168.332031 C 350.105469 171.191406 353.613281 176.9375 353.613281 183.210938 L 353.613281 258.09375 C 353.613281 264.359375 350.113281 270.101562 344.546875 272.96875 L 201.0625 346.859375 C 189.945312 352.582031 176.714844 344.5 176.714844 331.984375 Z M 202.703125 124.726562 L 202.703125 316.757812 L 327.625 252.425781 L 327.625 188.886719 Z M 202.703125 124.726562 " fill-opacity="1" fill-rule="evenodd"/></g></svg>