<?xml version="1.0" encoding="UTF-8"?>
<svg xmlns="http://www.w3.org/2000/svg" xmlns:xlink="http://www.w3.org/1999/xlink" width="62px" height="62px" viewBox="0 0 62 62" version="1.1">
<defs>
<clipPath id="clip1">
  <path d="M 3.636719 2.972656 L 58.527344 2.972656 L 58.527344 57.65625 L 3.636719 57.65625 Z M 3.636719 2.972656 "/>
</clipPath>
</defs>
<g id="surface1">
<path style=" stroke:none;fill-rule:nonzero;fill:rgb(97.647059%,85.09804%,29.019609%);fill-opacity:1;" d="M 31.808594 31.097656 L 6.945312 17.484375 L 31.808594 5.332031 Z M 31.808594 31.097656 "/>
<g clip-path="url(#clip1)" clip-rule="nonzero">
<path style=" stroke:none;fill-rule:evenodd;fill:rgb(21.176471%,14.117648%,56.470591%);fill-opacity:1;" d="M 29.21875 8.191406 L 10.613281 17.214844 L 29.21875 27.394531 Z M 29.21875 32.296875 L 8.074219 20.726562 L 8.074219 28.605469 L 29.21875 39.519531 Z M 29.21875 44.359375 L 5.273438 32 C 4.355469 31.523438 3.777344 30.578125 3.777344 29.542969 L 3.777344 15.753906 L 29.546875 3.253906 C 31.382812 2.363281 33.511719 3.703125 33.511719 5.742188 L 33.511719 15.789062 L 56.960938 27.832031 C 57.882812 28.304688 58.464844 29.253906 58.464844 30.289062 L 58.464844 42.671875 C 58.464844 43.707031 57.886719 44.65625 56.964844 45.128906 L 33.242188 57.347656 C 31.402344 58.292969 29.21875 56.957031 29.21875 54.886719 Z M 33.511719 20.621094 L 33.511719 52.371094 L 54.167969 41.734375 L 54.167969 31.230469 Z M 33.511719 20.621094 "/>
</g>
</g>
</svg>
