<svg xmlns="http://www.w3.org/2000/svg" width="62" height="62" fill="none"><g clip-path="url(#A)"><path d="M48.785 32.568l.028.002 2.971.31a.82.82 0 0 1 .535.284l.022.027-.028.014a.82.82 0 0 1 .169.621 22.13 22.13 0 0 1-6.909 13.465A21.4 21.4 0 0 1 31.022 53a21.17 21.17 0 0 1-7.664-1.423l-.133-.052a.78.78 0 0 1-.266-.165c-.077-.072-.138-.159-.18-.256l-.013-.031a.81.81 0 0 1-.014-.608l1.173-2.861c.076-.194.225-.351.414-.437s.405-.096.602-.027l.027.01c5.994 2.315 12.783 1.011 17.494-3.359 2.998-2.755 4.932-6.477 5.462-10.515a.82.82 0 0 1 .833-.709l.028.001h0zM17.22 43.247h.042.042a2.48 2.48 0 0 1 2.449 2.449v.042.042a2.49 2.49 0 1 1-4.981-.085 2.49 2.49 0 0 1 2.449-2.449zm-6.401-9.823h24.297c.214.002.419.087.572.237s.241.354.247.568v.028 3.041c.002.214-.08.42-.227.576s-.349.247-.563.256l-.028.001H10.819c-.214-.002-.419-.087-.572-.237s-.241-.354-.247-.568v-3.099c.006-.209.09-.408.237-.557s.344-.237.553-.246l.029-.001zm27.338-23.21c.104.037.2.096.281.171s.147.166.192.267c.084.206.084.436 0 .642l-1.059 2.823c-.071.201-.218.366-.41.458s-.412.105-.614.035a16.81 16.81 0 0 0-16.231 2.9 17.48 17.48 0 0 0-5.73 9.131.82.82 0 0 1-.79.614h-.184l-2.907-.699a.81.81 0 0 1-.515-.381h-.014c-.058-.095-.096-.201-.112-.312a.82.82 0 0 1 .021-.331 22.15 22.15 0 0 1 7.375-11.658 21.39 21.39 0 0 1 20.697-3.662zM27.395 22.408h24.297c.209.002.41.083.561.227s.243.34.256.549l.001.029v3.042c.002.214-.08.421-.227.576s-.349.247-.563.256l-.028.001H27.395c-.213-.004-.416-.089-.567-.239s-.239-.352-.244-.565v-.029-3.013c-.002-.213.079-.418.224-.573s.346-.248.558-.259l.029-.001zm16.867-9.28h.042.042a2.48 2.48 0 0 1 2.449 2.449v.042.042a2.49 2.49 0 1 1-4.982-.085 2.49 2.49 0 0 1 2.449-2.448h0z" fill="#4fb58b"/></g><defs><clipPath id="A"><path fill="#fff" transform="translate(10 9)" d="M0 0h42.511v44H0z"/></clipPath></defs></svg>