<svg width="62" height="62" viewBox="0 0 62 62" fill="none" xmlns="http://www.w3.org/2000/svg"><path fill-rule="evenodd" clip-rule="evenodd" d="M34.8997 16C41.0803 16 46.0836 21.0033 46.0836 27.1839C50.0569 28.3612 53 32.0401 53 36.3813C53 41.6789 48.6589 45.9465 43.3612 45.9465H41.8896C41.5953 45.9465 41.3746 45.7258 41.3746 45.4314V43.9599C41.3746 43.6656 41.5953 43.4448 41.8896 43.4448H43.4348C47.3344 43.4448 50.5719 40.2809 50.5719 36.3813C50.5719 32.7023 47.7023 29.612 44.097 29.3177C43.9498 29.3177 43.8027 29.1706 43.8027 29.0234V27.6254V27.1839C43.8027 22.4013 39.7559 18.5017 34.9732 18.5017C30.7057 18.5017 27.1003 21.5184 26.3645 25.6388L26.291 26.2274C26.291 26.5217 25.9967 26.6689 25.7759 26.6689H22.6856H22.1706H22.0234C19.1538 26.7425 16.7993 29.097 16.7258 32.0401C16.7258 32.1137 16.7258 32.1873 16.7258 32.2609C16.7258 32.3344 16.7258 32.9967 16.7258 33.4381C16.7258 33.6589 16.5786 33.806 16.3579 33.806C15.6957 33.806 15.0334 33.9532 14.4448 34.2475C12.9732 34.9097 11.9431 36.3077 11.7224 37.9264C11.6488 38.1472 11.6488 38.4415 11.6488 38.6622C11.6488 41.2375 13.709 43.3712 16.2843 43.5184H33.1338C33.2809 43.5184 33.4281 43.5184 33.5753 43.5184C35.194 43.2977 36.4448 41.8997 36.4448 40.2074V27.1839C36.4448 26.8896 36.6656 26.6689 36.9599 26.6689H38.3579C38.6522 26.6689 38.8729 26.8896 38.8729 27.1839V34.1739V40.4281C38.7258 43.2241 36.592 45.505 33.796 45.8729C33.6488 45.8729 33.5753 45.8729 33.4281 45.8729H16.3579C12.311 45.8729 9 42.5619 9 38.5151C9 35.204 11.1338 32.4816 14.1505 31.5251C14.2977 29.612 15.1806 27.7726 16.6522 26.4482C17.9766 25.1973 19.6689 24.4615 21.4348 24.2408C21.4348 24.2408 21.8027 24.1672 22.8328 24.1672C23.1271 24.1672 23.495 24.1672 23.8629 24.1672H24.0836C25.3344 19.4582 29.7492 16 34.8997 16ZM23.2742 35.1304C23.5686 35.1304 23.8629 35.3512 23.8629 35.7191V37.485V39.5452C23.8629 39.8395 23.6421 40.1338 23.2742 40.1338H21.8763C21.5819 40.1338 21.2876 39.913 21.2876 39.5452V35.7191C21.2876 35.4247 21.5084 35.1304 21.8763 35.1304H23.2742ZM28.3512 32.2609C28.6455 32.2609 28.9398 32.5552 28.9398 32.8495V35.7926V39.4716C28.9398 39.7659 28.6455 40.0602 28.3512 40.0602H26.8796C26.5853 40.0602 26.291 39.7659 26.291 39.4716V32.8495C26.291 32.5552 26.5853 32.2609 26.8796 32.2609H28.3512ZM33.4281 29.4649C33.7224 29.4649 33.9431 29.6856 33.9431 29.9799V35.5719V39.5452C33.9431 39.8395 33.7224 40.0602 33.4281 40.0602H31.8829C31.5886 40.0602 31.3679 39.8395 31.3679 39.5452V35.3512V29.9799C31.3679 29.6856 31.5886 29.4649 31.8829 29.4649H33.4281Z" fill="#010061"/></svg>
