<svg width="62" height="62" viewBox="0 0 62 62" fill="none" xmlns="http://www.w3.org/2000/svg"><mask id="mask0_3327_89" style="mask-type:luminance" maskUnits="userSpaceOnUse" x="9" y="9" width="44" height="44"><path d="M53 9H9V53H53V9Z" fill="white"/></mask><g mask="url(#mask0_3327_89)"><path d="M9 20.8478V41.163C9 47.7079 14.3029 53.0108 20.8478 53.0108H41.163C47.7079 53.0108 53.0108 47.7079 53.0108 41.163V20.8478C53 14.3029 47.6971 9 41.1522 9H20.8478C14.3029 9 9 14.3029 9 20.8478Z" fill="#38D2A6"/><path d="M30.2116 46.7238H31.7669C32.5445 46.7238 33.1818 46.0866 33.1818 45.309V43.7537C33.1818 43.6566 33.1709 43.5593 33.1493 43.4622C33.1493 43.4622 32.3826 38.8288 32.3717 38.8288C32.2745 38.3321 31.8425 37.9648 31.3241 37.9648H30.6545C30.1361 37.9648 29.6932 38.3428 29.6068 38.8288C29.6068 38.8288 28.84 43.4622 28.8293 43.4622C28.8076 43.5593 28.7969 43.6457 28.7969 43.7537V45.309C28.7969 46.0866 29.4233 46.7238 30.2116 46.7238Z" fill="white"/><path d="M26.3685 37.6233C26.6817 37.1697 26.6925 36.5865 26.2929 36.1869L25.8177 35.7116C25.4289 35.3228 24.8457 35.3337 24.3812 35.636L19.856 38.6385C19.4779 38.8869 19.2188 39.319 19.2188 39.8157V41.371C19.2188 42.1486 19.856 42.7858 20.6336 42.7858H22.1888C22.6856 42.7858 23.1176 42.5374 23.3661 42.1486C23.3661 42.1486 26.3577 37.6341 26.3685 37.6233Z" fill="white"/><path d="M31.7982 15.2852H30.243C29.4653 15.2852 28.8281 15.9224 28.8281 16.7V18.2552C28.8281 18.3524 28.8389 18.4496 28.8605 18.5468C28.8605 18.5468 29.6273 23.1801 29.6381 23.1801C29.7354 23.6769 30.1673 24.0441 30.6857 24.0441H31.3554C31.8738 24.0441 32.3165 23.6661 32.4029 23.1801C32.4029 23.1801 33.1698 18.5468 33.1806 18.5468C33.2022 18.4496 33.213 18.3632 33.213 18.2552V16.7C33.2022 15.9116 32.5757 15.2852 31.7982 15.2852Z" fill="white"/><path d="M35.6441 24.3773C35.3309 24.8309 35.3201 25.4142 35.7197 25.8138L36.1949 26.289C36.5837 26.6778 37.1669 26.667 37.6314 26.3646L42.1566 23.3622C42.5347 23.1137 42.7938 22.6817 42.7938 22.185V20.6297C42.7938 19.8521 42.1566 19.2148 41.379 19.2148H39.8238C39.3269 19.2148 38.895 19.4633 38.6465 19.8521C38.6358 19.8521 35.6441 24.3773 35.6441 24.3773Z" fill="white"/><path d="M42.2023 38.6676C42.1915 38.6567 31.6397 30.0706 31.3588 29.7142C29.728 27.7053 23.3451 19.8212 23.3451 19.8104C23.0859 19.4972 22.6863 19.2812 22.2435 19.2812H20.6883C19.9107 19.2812 19.2734 19.9184 19.2734 20.696V22.2513C19.2734 22.694 19.4786 23.0829 19.8027 23.3528C19.8135 23.3637 30.3653 31.9498 30.646 32.3063C32.2769 34.3151 38.6599 42.1992 38.6599 42.21C38.9191 42.5232 39.3187 42.7393 39.7614 42.7393H41.3167C42.0943 42.7393 42.7314 42.102 42.7314 41.3244V39.7691C42.7314 39.3156 42.5263 38.9268 42.2023 38.6676Z" fill="white"/></g></svg>