<svg xmlns="http://www.w3.org/2000/svg" width="62" height="62" fill="none" xmlns:v="https://vecta.io/nano"><path d="M46.93 30.827c0 .809-.411.939-1.437.939-1.1 0-1.305-.173-1.423-.982-.205-2.094-1.628-3.857-4.033-4.044-.733-.058-.953-.347-.953-1.286 0-.867.117-1.257.821-1.257.906-.021 1.807.134 2.652.457a6.89 6.89 0 0 1 2.27 1.424c.654.617 1.178 1.356 1.542 2.173s.559 1.697.577 2.59l-.015-.014zm6.057 0c0-6.24-4.283-12.827-14.183-12.827H19.18c-.807 0-.953.693-.249 1.127 1.789 1.156 4.297 2.47 6.512 3.308.939.332.733 1.156-.191 1.156H9.72c-.763 0-.983.636-.352 1.199 4.281 3.817 9.153 6.938 14.432 9.244.939.405.748 1.228-.176 1.228h-6.981c-.792 0-.997.636-.352 1.156C20.046 39.19 28.787 44 38.804 44s14.183-7.41 14.183-13.173zm-13.083 8.84c-2.386-.008-4.672-.944-6.359-2.606a8.83 8.83 0 0 1-2.646-6.263c.027-2.329.99-4.553 2.677-6.186a9.02 9.02 0 0 1 6.328-2.524c2.367 0 4.637.926 6.311 2.574s2.614 3.884 2.614 6.215-.94 4.567-2.614 6.215-3.944 2.574-6.311 2.574z" fill="#ff642d"/></svg>