<svg width="62" height="62" viewBox="0 0 62 62" fill="none" xmlns="http://www.w3.org/2000/svg">
<g clip-path="url(#clip0_1172_588)">
<path d="M11.3694 24.0703H25.1469V37.8478H11.3694V24.0703Z" fill="white"/>
<path d="M11.3694 24.0703H25.1469V37.8478H11.3694V24.0703Z" fill="#99E1F4"/>
<path d="M25.147 37.8477H38.8461V51.5468H25.147V37.8477Z" fill="white"/>
<path d="M25.147 37.8477H38.8461V51.5468H25.147V37.8477Z" fill="#99E1F4"/>
<path d="M11.3694 51.5482H25.1469V51.6279H11.3694V51.5482ZM11.3694 37.8477H25.1469V51.5482H11.3694V37.8477Z" fill="#1A82E2"/>
<path d="M25.147 10.3721H38.8461V24.0712H25.147V10.3721ZM38.8475 24.1523H52.625V37.8514H38.8475V24.1523Z" fill="#00B3E3"/>
<path d="M38.8476 37.8478V24.0703H25.1484V37.8478H38.8476Z" fill="#009DD9"/>
<path d="M38.8474 10.3721H52.6249V24.0712H38.8474V10.3721Z" fill="#1A82E2"/>
<path d="M38.8474 24.0693H52.6249V24.1491H38.8474V24.0693Z" fill="#1A82E2"/>
</g>
<defs>
<clipPath id="clip0_1172_588">
<rect width="42.625" height="44" fill="white" transform="translate(10 9)"/>
</clipPath>
</defs>
</svg>
