<svg xmlns="http://www.w3.org/2000/svg" width="62" height="62" fill="none"><g clip-path="url(#A)"><path d="M11.37 24.07h13.777v13.778H11.37V24.07z" fill="#fff"/><path d="M11.37 24.07h13.777v13.778H11.37V24.07z" fill="#99e1f4"/><path d="M25.147 37.848h13.699v13.699H25.147V37.848z" fill="#fff"/><path d="M25.147 37.848h13.699v13.699H25.147V37.848z" fill="#99e1f4"/><path d="M11.37 51.548h13.777v.08H11.37v-.08zm0-13.7h13.777v13.7H11.37v-13.7z" fill="#1a82e2"/><path d="M25.147 10.372h13.699v13.699H25.147V10.372zm13.7 13.78h13.778v13.699H38.848V24.152z" fill="#00b3e3"/><path d="M38.847 37.848V24.07H25.148v13.778h13.699z" fill="#009dd9"/><g fill="#1a82e2"><path d="M38.848 10.372h13.778v13.699H38.848V10.372z"/><path d="M38.848 24.069h13.778v.08H38.848v-.08z"/></g></g><defs><clipPath id="A"><path fill="#fff" transform="translate(10 9)" d="M0 0h42.625v44H0z"/></clipPath></defs></svg>