<svg width="62" height="62" viewBox="0 0 62 62" fill="none" xmlns="http://www.w3.org/2000/svg"><path d="M34.5007 13.0012C33.7563 11.7593 32.4193 11 30.977 11C29.5347 11 28.1977 11.7593 27.4533 13.0012L21.6569 22.9815C30.6676 27.5038 36.6184 36.4889 37.2932 46.5904H33.2233C32.5499 37.932 27.3691 30.2783 19.6044 26.4705L14.2396 35.7955C18.5992 37.761 21.6634 41.8225 22.3705 46.5727H13.0239C12.7988 46.5567 12.5968 46.4277 12.4867 46.2296C12.3766 46.0314 12.3732 45.7909 12.4778 45.5897L15.0677 41.162C14.1902 40.426 13.1874 39.856 12.1078 39.4794L9.54431 43.9072C9.00525 44.8367 8.85929 45.9446 9.13908 46.9831C9.41887 48.0216 10.1011 48.9041 11.0331 49.4331C11.641 49.7774 12.3262 49.9603 13.0239 49.9644H25.8237C26.3072 43.9666 23.6338 38.1517 18.7763 34.6354L20.8112 31.0932C26.9435 35.3272 30.3939 42.5034 29.8847 49.9644H40.7288C41.2427 38.6594 35.7364 27.9328 26.2729 21.8037L30.3868 14.7192C30.5776 14.3978 30.9904 14.2911 31.3118 14.4801C31.7786 14.7369 49.1856 45.2709 49.5115 45.6252C49.6284 45.8359 49.6242 46.0933 49.5004 46.3C49.3767 46.5067 49.1524 46.631 48.9125 46.6259H44.7193C44.7722 47.7535 44.7722 48.8781 44.7193 49.9999H48.9301C50.0101 50.0069 51.0481 49.5794 51.8126 48.8125C52.5771 48.0456 53.0047 47.0031 53 45.9174C53.0004 45.2074 52.8119 44.5103 52.4538 43.8983L34.5007 13.0012Z" fill="#362D59"/></svg>