<svg xmlns="http://www.w3.org/2000/svg" width="62" height="62" fill="none"><path fill-rule="evenodd" d="M31.13 11.006c-4.425-.009-8.75 1.311-12.416 3.79s-6.502 6.001-8.142 10.111-2.007 8.617-1.054 12.938 3.182 8.256 6.398 11.296a4.36 4.36 0 0 0 5.671.294c2.721-2.025 6.022-3.118 9.414-3.118s6.693 1.093 9.414 3.118c.833.638 1.867.955 2.914.894a4.37 4.37 0 0 0 2.79-1.227c3.191-3.028 5.405-6.94 6.358-11.234a22.08 22.08 0 0 0-1.008-12.869c-1.61-4.094-4.406-7.613-8.029-10.107S35.529 11.043 31.13 11M31 44.105a10.71 10.71 0 0 1-7.861-3.132 10.71 10.71 0 0 1-3.134-7.86c0-2.916 1.158-5.713 3.22-7.775s4.858-3.22 7.775-3.22 5.713 1.158 7.775 3.22 3.22 4.858 3.22 7.775a10.71 10.71 0 0 1-3.134 7.86A10.71 10.71 0 0 1 31 44.105z" fill="#62d84e"/></svg>