<svg width="62" height="62" viewBox="0 0 62 62" fill="none" xmlns="http://www.w3.org/2000/svg"><path d="M27.6667 52.9994V28.0661H27.5933C27.5933 36.231 22.812 45.6661 13 45.6661V37.5994C25.0798 37.6064 27.6667 28.9083 27.6667 23.666H35C35 28.9083 37.5868 37.6064 49.6666 37.5994V45.6661C39.8546 45.6661 35.0733 36.231 35.0733 28.0661H35V52.9994H27.6667Z" fill="#1B3D32"/><path d="M27.6667 38.3333V13.4H27.5933C27.5933 21.5649 22.812 31 13 31V22.9333C25.0798 22.9403 27.6667 14.2422 27.6667 9H35C35 14.2422 37.5868 22.9403 49.6666 22.9333V31C39.8546 31 35.0733 21.5649 35.0733 13.4H35V38.3333H27.6667Z" fill="#1B3D32"/></svg>