<svg xmlns="http://www.w3.org/2000/svg" width="62" height="62" fill="none"><g clip-path="url(#A)"><path d="M29.625 35.125c7.214 0 13.063-5.848 13.063-13.063S36.839 9 29.625 9s-13.063 5.848-13.063 13.063 5.848 13.063 13.063 13.063z" fill="#036c70"/><path d="M41.828 44.75C47.998 44.75 53 39.748 53 33.578s-5.002-11.172-11.172-11.172-11.172 5.002-11.172 11.172S35.658 44.75 41.828 44.75z" fill="#1a9ba1"/><path d="M31 53a8.94 8.94 0 0 0 8.937-8.937A8.94 8.94 0 0 0 31 35.125a8.94 8.94 0 0 0-8.937 8.937A8.94 8.94 0 0 0 31 53z" fill="#37c6d0"/><g fill="#000"><path d="M31.917 18.625H17.02a13.09 13.09 0 0 0-.458 3.429c0 7.214 5.848 13.068 13.063 13.071a13.38 13.38 0 0 0 1.131-.049l.007.052a8.94 8.94 0 0 0-8.701 8.934c0 .231.009.461.026.688h9.828a1.84 1.84 0 0 0 1.833-1.833V20.458a1.84 1.84 0 0 0-1.833-1.833h0z" fill-opacity=".102"/><path d="M30.542 20H16.723c-.107.679-.163 1.368-.163 2.056 0 7.215 5.85 13.068 13.065 13.069a13.38 13.38 0 0 0 1.131-.05l.007.052c-4.844.131-8.702 4.096-8.702 8.941 0 .692.081 1.382.239 2.056h8.241a1.84 1.84 0 0 0 1.833-1.833V21.834a1.84 1.84 0 0 0-1.833-1.833V20z" fill-opacity=".2"/><path d="M30.542 20H16.723c-.107.679-.163 1.368-.163 2.056 0 7.215 5.85 13.068 13.065 13.069a13.38 13.38 0 0 0 1.131-.05l.007.052a8.94 8.94 0 0 0-8.677 8.247h8.455a1.84 1.84 0 0 0 1.833-1.833V21.833A1.84 1.84 0 0 0 30.542 20h0z" fill-opacity=".2"/><path d="M29.167 20H16.723c-.107.679-.163 1.368-.163 2.056 0 7.215 5.85 13.068 13.065 13.069a13.38 13.38 0 0 0 1.131-.05l.007.052a8.94 8.94 0 0 0-8.677 8.247h7.08A1.84 1.84 0 0 0 31 41.542V21.833A1.84 1.84 0 0 0 29.167 20h0z" fill-opacity=".2"/></g><path d="M10.833 20h18.334c1.012 0 1.833.821 1.833 1.833v18.334C31 41.179 30.179 42 29.167 42H10.833C9.821 42 9 41.179 9 40.167V21.833C9 20.821 9.821 20 10.833 20z" fill="#03787c"/><path d="M16.796 30.759c-.463-.307-.85-.717-1.13-1.197-.26-.476-.396-1.01-.396-1.553l.001-.083-.002-.098a3.15 3.15 0 0 1 .734-2.021c.52-.593 1.195-1.033 1.947-1.27a8.22 8.22 0 0 1 2.573-.413h.088l.371-.006a10.16 10.16 0 0 1 3.133.497v2.475c-.49-.297-1.026-.516-1.585-.648a7.73 7.73 0 0 0-1.838-.222h-.017a4.02 4.02 0 0 0-1.906.403 1.25 1.25 0 0 0-.755 1.145v.011a1.16 1.16 0 0 0 .321.8 2.92 2.92 0 0 0 .862.616l1.617.715a1.76 1.76 0 0 1 .232.092c.707.277 1.39.613 2.04 1.006a3.65 3.65 0 0 1 1.205 1.214c.287.521.438 1.106.438 1.7l-.002.131a3.41 3.41 0 0 1-.686 2.207c-.478.582-1.116 1.011-1.835 1.232-.806.253-1.646.382-2.491.382-.041 0-.085-.001-.124-.001h-.055c-.774 0-1.55-.066-2.313-.195-.661-.104-1.31-.293-1.925-.556v-2.615a6.19 6.19 0 0 0 1.947.928c.693.217 1.417.333 2.142.344l.234.008c.595 0 1.182-.145 1.709-.42.198-.114.363-.279.478-.477s.175-.423.175-.652v-.035-.01c0-.33-.132-.647-.366-.881a3.72 3.72 0 0 0-1.011-.704l-1.906-.852c-.666-.266-1.307-.604-1.906-.997h0 0z" fill="#fff"/></g><defs><clipPath id="A"><path fill="#fff" transform="translate(9 9)" d="M0 0h44v44H0z"/></clipPath></defs></svg>