<svg xmlns="http://www.w3.org/2000/svg" width="62" height="62" fill="none"><path d="M34.349 52.996h-6.698l-.886-5.847c-1.471-.388-2.882-.975-4.194-1.746l-4.759 3.512-4.738-4.734 3.512-4.762a16.5 16.5 0 0 1-1.737-4.197L9 34.342v-6.689l5.847-.884a16.62 16.62 0 0 1 1.739-4.194l-3.512-4.764 4.738-4.737 4.759 3.512c1.311-.77 2.723-1.355 4.194-1.739L27.651 9h6.698l.88 5.847a16.53 16.53 0 0 1 4.197 1.739l4.758-3.512 4.74 4.737-3.512 4.759c.768 1.312 1.353 2.723 1.737 4.194l5.847.889v6.7l-5.847.88c-.384 1.472-.968 2.883-1.737 4.195l3.512 4.761-4.738 4.738-4.759-3.512a16.63 16.63 0 0 1-4.197 1.739L34.349 53v-.005zm-3.351-29.353c-1.455 0-2.877.431-4.087 1.239s-2.153 1.957-2.71 3.301-.703 2.823-.419 4.25.984 2.738 2.013 3.767 2.34 1.729 3.767 2.013 2.906.138 4.25-.419 2.493-1.5 3.301-2.71 1.239-2.632 1.239-4.087a7.36 7.36 0 0 0-7.354-7.354z" fill="#6cbe45"/></svg>