<svg width="62" height="62" viewBox="0 0 62 62" fill="none" xmlns="http://www.w3.org/2000/svg"><rect width="62" height="62" rx="31" fill="white"/><path d="M32.3512 26.087C31.7493 26.5371 30.9055 26.5532 30.2686 26.1635C29.6498 25.7849 29.2949 25.0515 29.4332 24.3366C29.4484 24.2581 29.4704 24.1811 29.4966 24.1056C29.4175 24.3167 29.3499 24.4955 29.508 24.0704C29.6699 23.6412 29.6018 23.8243 29.5222 24.037C29.7924 23.3661 30.4778 22.9393 31.202 22.9522C31.9589 22.9656 32.6616 23.45 32.9215 24.1584C33.1753 24.8504 32.945 25.6429 32.3512 26.087ZM52.3236 23.5263C51.7508 22.1491 50.8321 20.9313 49.645 20.0167C48.3992 19.0567 46.8956 18.4507 45.3346 18.2417C44.4239 18.1198 43.5001 18.1383 42.5934 18.2839C41.6451 18.4362 40.7503 18.7426 39.8706 19.1182C39.4397 19.3023 39.0126 19.4947 38.5826 19.6812C37.2711 20.4548 35.7916 20.895 34.2629 20.9151C33.4711 20.9254 32.681 20.8372 31.9076 20.6685C31.5004 20.5798 31.0981 20.4692 30.7017 20.3413C30.3172 20.217 29.9281 20.1377 29.5249 20.1035C28.6089 20.0258 27.6861 20.1486 26.7765 20.2454L24.581 20.4813C24.578 20.477 24.5756 20.4741 24.5732 20.4699L24.5089 20.4764C23.951 19.8606 23.2607 19.3763 22.5846 18.8987C22.3918 18.7625 22.2042 18.6435 21.962 18.6214C21.2768 18.615 21.114 19.4307 21.0745 19.9593C21.0261 20.6045 21.1034 21.2677 21.2515 21.8964C21.3083 22.1372 21.371 22.3923 21.491 22.6111C21.491 22.6111 21.5967 23.0784 21.7819 23.5152C21.5438 23.8046 21.3526 24.1336 21.2197 24.4833C21.1732 24.6063 21.1258 24.7139 21.0532 24.8244C20.8397 25.1494 20.5814 25.4471 20.3276 25.741C19.4693 26.7348 18.5546 27.6815 17.6393 28.6232C17.2106 29.0643 13.5164 30.2835 11.389 30.96C11.5937 21.2183 19.5539 13.3841 29.3445 13.3841C33.9802 13.3841 38.2053 15.1407 41.3916 18.0241C41.8034 17.9047 42.2008 17.8135 42.5934 17.7505C43.1296 17.6644 43.6718 17.6207 44.2044 17.6207C44.258 17.6207 44.3114 17.6224 44.3648 17.6234C40.6448 13.5534 35.293 11 29.3445 11C18.1086 11 9 20.1086 9 31.3445C9 42.5804 18.1086 51.689 29.3445 51.689C39.6724 51.689 48.2018 43.993 49.5132 34.0233C49.4345 34.0709 49.3573 34.1207 49.2767 34.1662C48.7652 34.455 48.234 34.67 47.7203 34.8777C47.543 34.9497 47.3756 35.0173 47.2089 35.0879C47.1014 35.1332 46.9918 35.1815 46.8821 35.2298C45.1584 43.0453 38.3447 48.9495 30.0944 49.2885C31.8775 46.6323 35.4566 41.4118 36.5056 40.6937C37.9418 39.7105 39.3952 38.7513 40.8763 37.836C42.2321 36.998 43.6112 36.193 45.0334 35.4703C45.6501 35.157 46.2753 34.8595 46.9128 34.59C47.5914 34.3035 48.2822 34.0587 48.9254 33.6957C50.0843 33.0418 51.0867 32.1223 51.7993 31.0015C52.481 29.9291 52.884 28.6943 52.9781 27.4302C53.0773 26.0997 52.8357 24.7575 52.3236 23.5263Z" fill="black"/></svg>