<svg width="62" height="62" viewBox="0 0 62 62" fill="none" xmlns="http://www.w3.org/2000/svg"><path fill-rule="evenodd" clip-rule="evenodd" d="M17.4289 29.0763V39.1698L30.9918 47.2333L44.5699 39.1698V25.9017L32.9935 32.7647C31.7229 33.5126 30.2658 33.5126 28.9902 32.7647L13.2441 23.4089C11.5853 22.4117 11.5853 19.9189 13.2441 18.937L28.9952 9.56089C30.2658 8.81304 31.7229 8.81304 32.9985 9.56089L44.5749 16.4544L39.2455 19.6137L30.9969 14.7246L27.1398 17.0343L20.1667 21.2009L23.8423 23.3784L31.0019 27.6773L45.6388 18.9981C46.4657 18.5097 47.5951 18.5809 48.4269 19.0134C49.3296 19.4916 50 20.4124 50 21.5825V40.055C50 41.4948 49.2841 42.7513 48.0538 43.489L33.0036 52.4276C31.7481 53.1908 30.2759 53.1908 29.0003 52.4276L13.9449 43.4788C12.7147 42.7411 12.0139 41.5048 12.0139 40.0449V25.8559L17.4289 29.0711V29.0763Z" fill="black"/></svg>
