<svg xmlns="http://www.w3.org/2000/svg" width="62" height="62" fill="none"><path d="M45.167 17.472c-.029-.222-.212-.345-.366-.359s-3.112-.061-3.112-.061l-2.724-2.803c-.246-.259-.723-.181-.908-.122l-1.246.408a9.51 9.51 0 0 0-.595-1.548c-.882-1.78-2.173-2.721-3.735-2.724h-.006c-.108 0-.216.011-.324.021l-.141-.172c-.68-.769-1.55-1.144-2.596-1.111-2.016.061-4.024 1.6-5.651 4.335-1.146 1.924-2.018 4.341-2.266 6.212l-3.969 1.3c-1.167.388-1.205.426-1.358 1.591L13 48.315l25.621 4.685 11.104-2.919-4.559-32.608zm-9.638-2.517l-1.989.651c-.014-1.079-.136-2.581-.611-3.878 1.531.306 2.283 2.136 2.6 3.227zm-3.329 1.09l-4.278 1.4c.415-1.674 1.199-3.34 2.162-4.432.358-.407.859-.859 1.452-1.118.558 1.23.678 2.972.664 4.15zm-2.747-5.625c.474-.011.872.099 1.212.335-.544.299-1.071.729-1.564 1.289-1.281 1.453-2.262 3.707-2.655 5.883l-3.513 1.15c.694-3.424 3.409-8.562 6.52-8.657z" fill="#95bf47"/><path d="M44.801 17.116c-.151-.013-3.114-.061-3.114-.061l-2.722-2.803a.59.59 0 0 0-.344-.167V53l11.104-2.919-4.559-32.607c-.029-.222-.214-.345-.365-.359z" fill="#5e8e3e"/><path d="M32.467 23.151l-1.289 5.101s-1.44-.692-3.144-.578c-2.501.166-2.529 1.834-2.503 2.252.137 2.281 5.814 2.78 6.133 8.125.25 4.203-2.11 7.08-5.51 7.307-4.081.272-6.329-2.273-6.329-2.273l.865-3.889s2.264 1.803 4.073 1.683c1.183-.079 1.605-1.097 1.562-1.816-.179-2.975-4.8-2.8-5.093-7.691-.246-4.113 2.311-8.284 7.95-8.66 2.173-.148 3.285.438 3.285.438z" fill="#fff"/></svg>