<svg width="62" height="62" viewBox="0 0 62 62" fill="none" xmlns="http://www.w3.org/2000/svg"><rect width="62" height="62" rx="31" fill="white"/><path d="M30.9208 39.5187C29.0219 37.7147 26.7569 36.5947 25.0055 36.5947C24.1798 36.5947 23.4859 36.8427 22.9973 37.3147C22.1835 38.0947 22.0255 39.364 22.5522 40.8827C22.6497 41.1564 22.7625 41.4244 22.8907 41.6867C22.9021 41.7089 22.9122 41.7311 22.9209 41.7533C23.0201 41.9524 23.1255 42.1489 23.237 42.3427L23.3371 42.5133C23.4187 42.6467 23.5034 42.7791 23.5912 42.9107C23.8405 43.2803 24.11 43.6355 24.3984 43.9747L24.4379 44.0213C24.5828 44.1893 24.7307 44.3547 24.8817 44.5173C25.031 44.6738 25.1824 44.8267 25.336 44.976L25.394 45.0293C26.9215 46.4827 28.6848 47.4907 30.2294 47.8293C30.4041 47.8693 30.5806 47.8987 30.7588 47.9173C30.9405 47.944 31.124 47.9573 31.3093 47.9573C31.7827 47.966 32.2522 47.8685 32.6841 47.672C32.9202 47.56 33.1309 47.4156 33.3161 47.2387C34.9069 45.7093 33.9219 42.4347 31.0196 39.6173L30.9208 39.5187ZM32.3799 46.332C32.1393 46.5649 31.7825 46.6813 31.3093 46.6813C29.916 46.6813 27.9618 45.676 26.3303 44.1253L26.2815 44.0787C26.0416 43.8468 25.8114 43.6048 25.5915 43.3533C25.5423 43.3018 25.4949 43.2498 25.4493 43.1973C25.347 43.0768 25.2478 42.9537 25.1517 42.828L25.0858 42.748C24.649 42.1898 24.2806 41.58 23.9889 40.932L23.9797 40.9093C23.8732 40.6575 23.7822 40.3992 23.7071 40.136L23.665 39.964C23.6518 39.9044 23.6399 39.8453 23.6294 39.7867C23.6162 39.7129 23.6061 39.6396 23.5991 39.5667L23.5859 39.4587C23.5798 39.3698 23.5776 39.2853 23.5794 39.2053V39.152C23.5838 39.056 23.5943 38.9618 23.611 38.8693C23.6258 38.7892 23.6478 38.7107 23.6768 38.6347L23.6808 38.6147C23.7072 38.5482 23.7389 38.484 23.7756 38.4227L23.7887 38.396C23.8322 38.3318 23.8811 38.2716 23.9349 38.216C24.1772 37.9867 24.5345 37.872 25.0068 37.872C26.3987 37.872 28.3556 38.8747 29.9832 40.424L30.0806 40.5173C32.5273 42.8947 33.2556 45.4907 32.3799 46.332ZM35.9051 17.2613L35.6088 16.9707C33.7125 15.1653 31.4462 14.044 29.6961 14.044C28.8718 14.044 28.1765 14.2947 27.6853 14.764C26.1051 16.2827 27.1375 19.6507 30.0319 22.4307L30.0846 22.48C31.9795 24.2853 34.2458 25.4053 35.9972 25.4053C36.8216 25.4053 37.5156 25.1573 38.0054 24.6853C39.5593 23.192 38.652 20.032 35.9051 17.2613ZM37.0678 23.7853C36.8273 24.0147 36.4704 24.1298 35.9972 24.1307C34.6053 24.1307 32.6498 23.128 31.0143 21.5707L30.9695 21.5307C28.482 19.136 27.7367 16.52 28.6242 15.6667C28.8612 15.4373 29.2234 15.32 29.6948 15.32C31.088 15.32 33.0422 16.324 34.6738 17.8747L34.7686 17.968C37.218 20.3453 37.9462 22.9413 37.0678 23.7853ZM38.4703 33.2627L42.6737 29.22L42.6961 29.1973C45.5444 26.46 43.5691 20.224 38.203 14.9573L38.2043 14.956L38.1174 14.8693L38.0094 14.768L37.904 14.668C34.2327 11.1733 29.8805 9 26.5462 9C25.0872 9 23.8664 9.42667 23.0131 10.2347L22.9736 10.2747L18.3067 14.764C15.4965 17.4653 17.3612 23.5267 22.5351 28.74L18.308 32.8027V32.804C15.4149 35.5853 17.4758 41.9253 22.9947 47.2307L23.0671 47.3L23.1027 47.3307C26.7754 50.8293 31.1249 53 34.4592 53C35.9301 53 37.1561 52.5667 38.0094 51.7467V51.7453L42.6842 47.2493L42.7013 47.236C45.4996 44.5427 43.6336 38.468 38.4703 33.2627ZM23.0223 13.5093V13.4267C23.0267 13.344 23.0338 13.264 23.0434 13.1867L23.05 13.084C23.0579 13.0129 23.0689 12.9427 23.0829 12.8733C23.0882 12.8342 23.0943 12.796 23.1013 12.7587C23.1145 12.6964 23.129 12.6351 23.1448 12.5747C23.1567 12.5333 23.1646 12.4867 23.1764 12.4467C23.1931 12.3933 23.2111 12.34 23.2304 12.2867C23.2453 12.2404 23.2607 12.1964 23.2765 12.1547C23.2958 12.1058 23.3169 12.0582 23.3397 12.012C23.3621 11.964 23.3779 11.9213 23.4003 11.8787C23.4231 11.836 23.4468 11.7942 23.4714 11.7533L23.5517 11.62L23.6307 11.5093C23.6614 11.4667 23.6931 11.4244 23.7255 11.3827C23.7545 11.3489 23.7839 11.316 23.8138 11.284C23.8533 11.2396 23.8937 11.1964 23.9349 11.1547L23.9481 11.1413C24.5538 10.568 25.4282 10.2747 26.5436 10.2747C29.4973 10.2747 33.5887 12.3547 36.9704 15.5733L37.1653 15.76C41.9073 20.3653 44.0129 26.0893 41.7769 28.2773L41.7585 28.2947C41.6854 28.3649 41.6085 28.4307 41.528 28.492C40.9609 28.9249 40.2103 29.1516 39.2762 29.172H39.2143C39.1063 29.172 38.9988 29.1689 38.8917 29.1627C38.8118 29.1609 38.7328 29.1573 38.6546 29.152C38.5309 29.1413 38.4062 29.1289 38.2807 29.1147L38.0686 29.088C37.9334 29.0666 37.7986 29.0421 37.6644 29.0147L37.4576 28.976C37.3198 28.944 37.1811 28.9102 37.0415 28.8747L36.8242 28.8187C36.6873 28.7787 36.5512 28.7369 36.416 28.6933L36.1724 28.6147C36.042 28.5733 35.9143 28.5213 35.7865 28.4747L35.5047 28.3707L35.1492 28.2187L34.8279 28.0827C34.7199 28.0329 34.6115 27.9809 34.5026 27.9267C34.3841 27.8693 34.2656 27.816 34.1444 27.7547C34.0457 27.708 33.9495 27.6507 33.8508 27.6C33.72 27.5324 33.59 27.4627 33.461 27.3907C33.3671 27.3409 33.2749 27.2876 33.1845 27.2307C33.0475 27.1542 32.9097 27.0742 32.771 26.9907L32.505 26.824L32.0862 26.5573L31.807 26.368C31.6736 26.2773 31.5397 26.1849 31.4054 26.0907C31.2983 26.0142 31.1912 25.9351 31.0841 25.8533L30.7285 25.5933C30.5951 25.4884 30.4617 25.3818 30.3282 25.2733C30.2387 25.2013 30.1491 25.136 30.0622 25.0627C29.8796 24.9107 29.6988 24.7564 29.5197 24.6L29.4077 24.5053L29.3445 24.4467C29.1461 24.2689 28.9503 24.0898 28.7572 23.9093L28.6242 23.784C28.4746 23.6391 28.3266 23.4924 28.1804 23.344C25.2873 20.4213 23.4464 17.1107 23.0842 14.5467C23.0672 14.4289 23.054 14.3106 23.0447 14.192C23.0438 14.1778 23.0417 14.1631 23.0381 14.148C23.0306 14.0472 23.0253 13.9463 23.0223 13.8453L23.0184 13.78C23.0184 13.6911 23.0197 13.6009 23.0223 13.5093ZM37.5946 50.1427C37.4594 50.4042 37.2823 50.6412 37.0705 50.844C36.4621 51.4293 35.5864 51.7267 34.4592 51.7267V51.724C31.5081 51.724 27.4167 49.644 24.035 46.4267L23.9362 46.3333C19.1047 41.6893 16.9569 35.9053 19.243 33.7067C19.8514 33.1213 20.731 32.8267 21.8543 32.8267C22.2423 32.8289 22.6296 32.8601 23.0131 32.92C25.8206 33.3627 29.3221 35.3067 32.2837 38.124L32.476 38.3107C33.6067 39.4043 34.6258 40.6104 35.5179 41.9107C37.6973 45.1173 38.5519 48.3027 37.5946 50.1427ZM41.7743 46.32L39.2986 48.7013V48.6973C39.3197 48.3107 39.3078 47.9253 39.263 47.5413L39.2551 47.4453C39.2264 47.2045 39.1868 46.9652 39.1366 46.728C39.1049 46.5644 39.0689 46.4017 39.0286 46.24L38.9918 46.1027C38.9378 45.8976 38.8786 45.6939 38.814 45.492C38.8026 45.4529 38.7894 45.4138 38.7745 45.3747C38.7157 45.1994 38.6529 45.0256 38.5862 44.8533L38.5243 44.6867C38.3499 44.2502 38.1566 43.8218 37.9449 43.4027L37.8527 43.2253C37.7508 43.0316 37.6459 42.8387 37.538 42.6467L37.4945 42.5667C37.3673 42.3483 37.237 42.1318 37.1034 41.9173C37.0665 41.856 37.0288 41.7969 36.9901 41.74C36.8744 41.5597 36.7564 41.3811 36.6359 41.204L36.5385 41.0613C36.3849 40.8429 36.2286 40.6264 36.0697 40.412L35.9498 40.2573C35.8142 40.0793 35.6759 39.9032 35.535 39.7293L35.3981 39.56C35.2185 39.3415 35.0354 39.1259 34.849 38.9133L34.7515 38.8053C34.5852 38.6205 34.4171 38.4374 34.2472 38.256C34.1918 38.2 34.137 38.1422 34.0825 38.0827C33.8745 37.8667 33.6638 37.6533 33.4505 37.4427L33.4175 37.412L33.2661 37.2653L33.2147 37.2187L33.2121 37.2147L23.9349 28.2947C19.1034 23.6493 16.9556 17.8653 19.243 15.6653L21.7002 13.3027V13.3373C21.6919 13.5092 21.6901 13.6813 21.695 13.8533L21.7029 14.024C21.7099 14.1591 21.72 14.296 21.7331 14.4347L21.7503 14.608C21.7748 14.7893 21.8038 14.9733 21.8372 15.16L21.8727 15.3333C21.957 15.7449 22.0659 16.1507 22.1993 16.5507C22.2142 16.6004 22.2314 16.6502 22.2507 16.7C22.3042 16.8582 22.3617 17.0182 22.4232 17.18L22.5101 17.3987C22.5803 17.572 22.6549 17.7453 22.7339 17.9187C22.755 17.972 22.777 18.0227 22.7998 18.0707C23.0052 18.5107 23.2291 18.9431 23.4714 19.368L23.5636 19.532C23.6865 19.7427 23.8146 19.9529 23.9481 20.1627L24.0798 20.364C24.1869 20.5329 24.2984 20.6987 24.4142 20.8613C24.4538 20.9236 24.4955 20.9853 24.5393 21.0467C24.7331 21.3184 24.9324 21.586 25.1372 21.8493C25.2715 22.0271 25.4098 22.2009 25.552 22.3707L25.7021 22.556C25.8847 22.7747 26.07 22.9907 26.2578 23.204C26.2881 23.236 26.3237 23.2707 26.354 23.3067C26.5778 23.5573 26.8078 23.8027 27.044 24.0427C27.2547 24.2573 27.4654 24.4733 27.6892 24.6867L27.7854 24.7787L27.7841 24.7813L37.0678 33.7067L37.1666 33.8C41.9112 38.4107 44.0182 44.1373 41.7743 46.32Z" fill="black"/></svg>
