<svg width="62" height="62" viewBox="0 0 62 62" fill="none" xmlns="http://www.w3.org/2000/svg"><path d="M44.0931 48.1699C42.1745 46.731 39.3767 45.6519 36.379 44.4928C32.8217 43.1338 28.8248 41.575 25.7871 39.1768C22.3498 36.419 20.711 32.9816 20.711 28.6249C20.711 24.7479 22.3098 21.3905 25.3874 18.9923C28.8248 16.2744 34.0208 14.8755 40.4559 14.8755C42.2145 14.8755 43.8932 14.9954 45.492 15.1952C45.6119 15.1952 45.7718 15.1553 45.8118 15.0354C45.8517 14.9155 45.8517 14.7556 45.7318 14.6756C41.615 10.9985 36.419 9 30.9831 9C25.1476 9 19.5919 11.2783 15.4351 15.4351C11.2783 19.5919 9 25.1476 9 30.9831C9 36.8586 11.2783 42.4144 15.4351 46.5312C19.5919 50.688 25.1476 52.9663 30.9831 52.9663C35.7395 52.9663 40.216 51.4874 44.0931 48.6496C44.173 48.6096 44.213 48.4897 44.213 48.4098C44.213 48.3298 44.173 48.2499 44.0931 48.1699Z" fill="black"/><path d="M52.8849 28.9847C52.8849 28.9048 52.8449 28.8248 52.765 28.7848C48.1685 24.9878 44.4914 23.429 39.9349 23.429C37.5367 23.429 35.6981 23.9086 34.4591 24.8679C33.3799 25.7072 32.8203 26.8263 32.8203 28.1853C32.8203 31.9424 37.4168 33.6611 42.7727 35.6596C45.5306 36.6988 48.3684 37.738 50.9664 39.1769C51.0064 39.2168 51.0463 39.2168 51.1263 39.2168C51.1662 39.2168 51.2062 39.2168 51.2462 39.2168C51.3261 39.1769 51.406 39.1369 51.446 39.017C52.4453 36.459 52.9649 33.781 52.9649 31.0231C53.0448 30.3436 52.9649 29.6642 52.8849 28.9847Z" fill="black"/></svg>