<svg xmlns="http://www.w3.org/2000/svg" width="62" height="62" fill="none"><path d="M53 46.418a6.57 6.57 0 0 1-.498 2.52c-.33.799-.815 1.525-1.426 2.137s-1.338 1.096-2.137 1.426a6.57 6.57 0 0 1-2.52.498H15.6C11.954 53 9 50.078 9 46.418V15.6C9 11.956 11.955 9 15.6 9h30.818A6.6 6.6 0 0 1 53 15.6v30.818z" fill="#0088ce"/><path d="M28.383 23.857c-.184-3.327 4.731-5.744 8.466-5.694 1.99.025 3.504.723 3.276 2.049-.151.881-1.072 1.877-2.318 2.256-.373.117-.507.277-.507.588 0 .48 1.428 1.386 2.589 1.386 2.65 0 4.971-1.774 4.971-4.33-.003-3.03-3.805-5.191-7.996-5.191-6.497 0-13.36 4.502-13.36 9.419 0 7.576 12.391 7.05 12.391 12.555 0 3.773-4.097 6.695-8.472 6.695-3.448 0-5.884-1.281-5.884-3.482 0-1.499 1.854-2.772 3.252-2.772.785 0 1.353.44 1.353 1.141 0 .89-.946.791-.946 1.595 0 .666 1.031 1.372 2.505 1.372 2.505 0 3.897-1.627 3.897-3.506 0-2.079-2.246-4.327-6.151-4.313s-7.807 2.841-8.261 6.146c-.584 4.283 4.231 7.301 9.972 7.301 6.401 0 14.036-3.881 14.164-9.63.17-8.04-12.625-7.926-12.939-13.592l-.003.007z" fill="#fff"/></svg>