<svg xmlns="http://www.w3.org/2000/svg" width="62" height="62" fill="none"><path d="M18.274 36.795c0 2.556-2.065 4.621-4.621 4.621a4.62 4.62 0 1 1 0-9.242h4.621v4.621zm2.31 0a4.62 4.62 0 1 1 9.242 0v11.552c0 2.556-2.065 4.621-4.621 4.621s-4.621-2.065-4.621-4.621V36.795z" fill="#e01e5a"/><path d="M25.208 18.242c-2.556 0-4.621-2.065-4.621-4.621a4.62 4.62 0 1 1 9.242 0v4.621h-4.621zm0 2.345a4.62 4.62 0 1 1 0 9.242H13.621C11.065 29.829 9 27.764 9 25.208a4.62 4.62 0 0 1 4.621-4.621h11.587z" fill="#36c5f0"/><path d="M43.724 25.208a4.62 4.62 0 1 1 9.242 0 4.62 4.62 0 0 1-4.621 4.621h-4.621v-4.621zm-2.31 0a4.62 4.62 0 0 1-4.621 4.621c-2.556 0-4.621-2.065-4.621-4.621V13.621a4.62 4.62 0 1 1 9.242 0v11.587z" fill="#2eb67d"/><path d="M36.792 43.726a4.62 4.62 0 1 1 0 9.242c-2.556 0-4.621-2.065-4.621-4.621v-4.621h4.621zm0-2.31c-2.556 0-4.621-2.065-4.621-4.621a4.62 4.62 0 0 1 4.621-4.621h11.587a4.62 4.62 0 1 1 0 9.242H36.792z" fill="#ecb22e"/></svg>