<svg width="20" height="20" viewBox="0 0 20 20" fill="none" xmlns="http://www.w3.org/2000/svg">
<path d="M13.3333 2.9165C13.3333 2.22615 12.7736 1.6665 12.0833 1.6665C11.3929 1.6665 10.8333 2.22615 10.8333 2.9165V7.08317C10.8333 7.77353 11.3929 8.33317 12.0833 8.33317C12.7736 8.33317 13.3333 7.77353 13.3333 7.08317V2.9165Z" stroke="white" stroke-width="1.3" stroke-linecap="round" stroke-linejoin="round"/>
<path d="M15.8333 7.08317V8.33317H17.0833C17.3305 8.33317 17.5722 8.25986 17.7778 8.12251C17.9833 7.98516 18.1435 7.78993 18.2381 7.56153C18.3328 7.33312 18.3575 7.08178 18.3093 6.83931C18.261 6.59683 18.142 6.3741 17.9672 6.19929C17.7924 6.02447 17.5696 5.90542 17.3272 5.85719C17.0847 5.80896 16.8333 5.83371 16.6049 5.92832C16.3765 6.02293 16.1813 6.18315 16.044 6.38871C15.9066 6.59427 15.8333 6.83594 15.8333 7.08317Z" stroke="white" stroke-width="1.3" stroke-linecap="round" stroke-linejoin="round"/>
<path d="M9.16663 12.9165C9.16663 12.2261 8.60698 11.6665 7.91663 11.6665C7.22627 11.6665 6.66663 12.2261 6.66663 12.9165V17.0832C6.66663 17.7735 7.22627 18.3332 7.91663 18.3332C8.60698 18.3332 9.16663 17.7735 9.16663 17.0832V12.9165Z" stroke="white" stroke-width="1.3" stroke-linecap="round" stroke-linejoin="round"/>
<path d="M4.16663 12.9165V11.6665H2.91663C2.6694 11.6665 2.42773 11.7398 2.22216 11.8772C2.0166 12.0145 1.85639 12.2097 1.76178 12.4381C1.66717 12.6666 1.64241 12.9179 1.69064 13.1604C1.73888 13.4028 1.85793 13.6256 2.03274 13.8004C2.20756 13.9752 2.43029 14.0943 2.67276 14.1425C2.91524 14.1907 3.16657 14.166 3.39498 14.0714C3.62339 13.9767 3.81861 13.8165 3.95596 13.611C4.09331 13.4054 4.16663 13.1637 4.16663 12.9165Z" stroke="white" stroke-width="1.3" stroke-linecap="round" stroke-linejoin="round"/>
<path d="M17.0833 10.8332H12.9166C12.2263 10.8332 11.6666 11.3928 11.6666 12.0832C11.6666 12.7735 12.2263 13.3332 12.9166 13.3332H17.0833C17.7736 13.3332 18.3333 12.7735 18.3333 12.0832C18.3333 11.3928 17.7736 10.8332 17.0833 10.8332Z" stroke="white" stroke-width="1.3" stroke-linecap="round" stroke-linejoin="round"/>
<path d="M12.9166 15.8332H11.6666V17.0832C11.6666 17.3304 11.7399 17.5721 11.8773 17.7776C12.0146 17.9832 12.2099 18.1434 12.4383 18.238C12.6667 18.3326 12.918 18.3574 13.1605 18.3092C13.403 18.2609 13.6257 18.1419 13.8005 17.9671C13.9753 17.7922 14.0944 17.5695 14.1426 17.327C14.1908 17.0846 14.1661 16.8332 14.0715 16.6048C13.9769 16.3764 13.8166 16.1812 13.6111 16.0438C13.4055 15.9065 13.1639 15.8332 12.9166 15.8332Z" stroke="white" stroke-width="1.3" stroke-linecap="round" stroke-linejoin="round"/>
<path d="M7.08329 6.6665H2.91663C2.22627 6.6665 1.66663 7.22615 1.66663 7.9165C1.66663 8.60686 2.22627 9.1665 2.91663 9.1665H7.08329C7.77365 9.1665 8.33329 8.60686 8.33329 7.9165C8.33329 7.22615 7.77365 6.6665 7.08329 6.6665Z" stroke="white" stroke-width="1.3" stroke-linecap="round" stroke-linejoin="round"/>
<path d="M7.08329 4.1665H8.33329V2.9165C8.33329 2.66928 8.25998 2.4276 8.12263 2.22204C7.98528 2.01648 7.79006 1.85626 7.56165 1.76166C7.33324 1.66705 7.08191 1.64229 6.83943 1.69052C6.59695 1.73875 6.37423 1.85781 6.19941 2.03262C6.02459 2.20744 5.90554 2.43017 5.85731 2.67264C5.80908 2.91512 5.83383 3.16645 5.92844 3.39486C6.02305 3.62327 6.18327 3.81849 6.38883 3.95584C6.59439 4.09319 6.83607 4.1665 7.08329 4.1665Z" stroke="white" stroke-width="1.3" stroke-linecap="round" stroke-linejoin="round"/>
</svg>
