<svg xmlns="http://www.w3.org/2000/svg" width="62" height="62" fill="none"><path d="M30.898 53c3.185.02 6.067-.705 7.095-2.822.383-.806.383-1.35.564-2.298a18.61 18.61 0 0 1 5.2-9.735c2.842-2.761 5.059-7.155 5.059-11.851 0-9.453-7.861-17.253-17.898-17.293C20.861 9.04 13 16.841 13 26.294c0 4.696 2.237 9.09 5.059 11.851a18.67 18.67 0 0 1 5.2 9.735c.201.968.181 1.492.564 2.298 1.008 2.116 3.91 2.842 7.095 2.822h-.02zm7.659-20.075c0 2.519-2.237 4.878-7.74 4.878s-7.699-2.358-7.699-4.878v-1.028c0-.484.202-.726.685-.726h2.157c.524 0 .685.242.685.726v.867c0 1.471 1.552 2.157 4.152 2.157s4.152-.685 4.152-2.157v-1.108c0-.968-.806-1.512-2.157-1.955l-6.107-2.116c-1.512-.524-3.185-2.076-3.185-4.112V21.96c0-2.519 1.874-5.019 7.377-5.019s7.377 2.479 7.377 5.019v.967c0 .524-.161.726-.726.726h-2.116c-.484 0-.685-.202-.685-.726v-.967c0-1.471-1.35-2.157-3.87-2.157s-3.789.685-3.789 2.157v.685c0 1.068.968 1.633 1.713 1.875l6.107 2.116c2.237.766 3.668 2.076 3.668 3.991v2.278.02z" fill="#238740"/></svg>