<svg xmlns="http://www.w3.org/2000/svg" width="62" height="62" fill="none"><rect width="62" height="62" rx="31" fill="#fff"/><path d="M19.775 26.935s1.913-2.63 4.384-2.71c3.906-.08 7.014 6.855 7.493 7.891C35.957 22.551 43.051 14.42 48.79 9H13.478v39.616c0 2.152-.319 3.746-.478 4.384 1.594-.239 7.493-1.275 13.551-3.428 10.761-3.826 14.906-7.971 14.986-7.971l.239-.239.159.319s1.355 2.949 2.71 4.543c1.514 1.754 2.312 1.913 2.79 1.833.638-.16 1.036-1.196 1.196-2.79s.319-5.181.319-9.565V12.109C38.507 24.862 30.855 43.993 30.855 43.993s-5.022-17.138-11.08-17.058z" fill="#0e2947"/></svg>