<?xml version="1.0" encoding="UTF-8" standalone="no" ?>
<!DOCTYPE svg PUBLIC "-//W3C//DTD SVG 1.1//EN" "http://www.w3.org/Graphics/SVG/1.1/DTD/svg11.dtd">
<svg xmlns="http://www.w3.org/2000/svg" xmlns:xlink="http://www.w3.org/1999/xlink" version="1.1" width="1080" height="1080" viewBox="0 0 1080 1080" xml:space="preserve">
<desc>Created with Fabric.js 5.2.4</desc>
<defs>
</defs>
<rect x="0" y="0" width="100%" height="100%" fill="transparent"></rect>
<g transform="matrix(0 0 0 0 0 0)" id="55ec7a0d-f33d-485c-8f35-f84640989d40"  >
</g>
<g transform="matrix(1 0 0 1 540 540)" id="60b05044-976a-4a3b-8d79-46f5e30709ce"  >
<rect style="stroke: none; stroke-width: 1; stroke-dasharray: none; stroke-linecap: butt; stroke-dashoffset: 0; stroke-linejoin: miter; stroke-miterlimit: 4; fill: rgb(255,255,255); fill-rule: nonzero; opacity: 1; visibility: hidden;" vector-effect="non-scaling-stroke"  x="-540" y="-540" rx="0" ry="0" width="1080" height="1080" />
</g>
<g transform="matrix(6.68 0 0 6.68 540 564.42)"  >
<path style="stroke: none; stroke-width: 1; stroke-dasharray: none; stroke-linecap: butt; stroke-dashoffset: 0; stroke-linejoin: miter; stroke-miterlimit: 4; fill: rgb(11,177,71); fill-rule: nonzero; opacity: 1;" vector-effect="non-scaling-stroke"  transform=" translate(-121.14, -588.53)" d="M 115 534.1 C 117.2 533.8000000000001 119.4 533.7 121.5 533.8000000000001 C 122.7 533.6 123.9 533.6 125.1 533.9000000000001 C 138.2 535.0000000000001 150.2 541.7 157.89999999999998 552.4000000000001 C 164.2 561.1000000000001 166.79999999999998 572.0000000000001 165.29999999999998 582.6000000000001 C 163.79999999999998 591.7000000000002 159.49999999999997 600.1000000000001 152.89999999999998 606.6000000000001 C 146.59999999999997 612.9000000000001 142.29999999999998 620.9000000000001 140.39999999999998 629.6000000000001 C 140.09999999999997 632.0000000000001 139.49999999999997 634.3000000000002 138.7 636.5000000000001 C 137.1 639.2000000000002 134.6 641.2000000000002 131.6 642.0000000000001 C 129.2 642.7000000000002 126.8 643.2000000000002 124.3 643.4000000000001 C 122.1 643.2 119.89999999999999 643.2 117.7 643.3000000000001 C 113.5 643.2 109.4 641.9000000000001 106 639.5000000000001 C 104 637.9000000000001 102.8 635.5000000000001 102.5 633.0000000000001 C 101.1 623.1000000000001 96.5 613.9000000000001 89.5 606.8000000000001 C 82.6 600.1 78.2 591.4000000000001 76.9 581.9000000000001 C 76.60000000000001 580.2 76.5 578.5000000000001 76.60000000000001 576.8000000000001 C 76.60000000000001 566.7 80.2 557.0000000000001 86.80000000000001 549.4000000000001 C 94 541 104.1 535.5 115 534.1 z" stroke-linecap="round" />
</g>
<g transform="matrix(6.68 0 0 6.68 539.17 504.27)"  >
<path style="stroke: none; stroke-width: 1; stroke-dasharray: none; stroke-linecap: butt; stroke-dashoffset: 0; stroke-linejoin: miter; stroke-miterlimit: 4; fill: rgb(253,254,253); fill-rule: nonzero; opacity: 1;" vector-effect="non-scaling-stroke"  transform=" translate(-121.03, -579.55)" d="M 119.7 553.6 C 124.5 553.2 129.2 554.1 133.5 556.3000000000001 C 136.4 557.9000000000001 138.5 560.6 139.2 563.9000000000001 C 139.5 565.6000000000001 139.5 567.4000000000001 139.39999999999998 569.1000000000001 C 139.29999999999998 569.7000000000002 138.79999999999998 570.2000000000002 138.2 570.2000000000002 L 132 570.2000000000002 C 131.5 570.2000000000002 131 569.9000000000002 130.8 569.4000000000002 C 130.3 567.6000000000003 131.10000000000002 565.6000000000003 130.20000000000002 563.9000000000002 C 129.4 562.6000000000003 128.20000000000002 561.6000000000003 126.70000000000002 561.2000000000002 C 124.10000000000002 560.5000000000001 121.40000000000002 560.3000000000002 118.70000000000002 560.6000000000001 C 116.70000000000002 560.6000000000001 114.70000000000002 561.3000000000002 113.00000000000001 562.5000000000001 C 112.00000000000001 563.4000000000001 111.50000000000001 564.6000000000001 111.50000000000001 565.9000000000001 C 111.30000000000001 567.1000000000001 111.50000000000001 568.3000000000001 111.90000000000002 569.5000000000001 C 112.70000000000002 570.9000000000001 114.10000000000002 571.9000000000001 115.60000000000002 572.3000000000001 C 120.90000000000002 574.2 126.30000000000003 576.0000000000001 131.60000000000002 577.9000000000001 C 134.10000000000002 578.8000000000001 136.40000000000003 580.3000000000001 138.20000000000002 582.3000000000001 C 139.4 583.9000000000001 140.10000000000002 585.8000000000001 140.10000000000002 587.8000000000001 L 140.10000000000002 593.5000000000001 C 140.10000000000002 596.0000000000001 139.10000000000002 598.5000000000001 137.40000000000003 600.3000000000001 C 135.70000000000005 602.1 133.50000000000003 603.4000000000001 131.20000000000005 604.1 C 127.40000000000005 605.3000000000001 123.40000000000005 605.8000000000001 119.40000000000005 605.5 C 114.90000000000005 605.5 110.60000000000005 604.4 106.70000000000005 602.1 C 104.00000000000004 600.4 102.20000000000005 597.5 102.00000000000004 594.2 C 102.00000000000004 592.9000000000001 101.90000000000005 591.5 102.00000000000004 590.1 C 102.10000000000004 589.2 103.10000000000004 589 103.90000000000005 589 L 109.00000000000004 589 C 109.70000000000005 588.9 110.40000000000005 589.4 110.50000000000004 590.1 C 110.80000000000004 591.9 110.10000000000004 594.1 111.40000000000005 595.6 C 113.20000000000005 597.3000000000001 115.60000000000005 598.2 118.10000000000005 598.3000000000001 C 121.30000000000005 598.7 124.60000000000005 598.4000000000001 127.80000000000005 597.4000000000001 C 129.40000000000006 596.9000000000001 130.70000000000005 595.6000000000001 131.10000000000005 594.0000000000001 C 131.20000000000005 592.6000000000001 131.20000000000005 591.3000000000001 131.20000000000005 589.8000000000001 C 131.10000000000005 588.8000000000001 130.60000000000005 587.8000000000001 129.80000000000004 587.1 C 128.70000000000005 586.3000000000001 127.40000000000003 585.6 126.10000000000004 585.3000000000001 C 121.00000000000004 583.5000000000001 115.90000000000003 581.8000000000001 110.80000000000004 580.0000000000001 C 107.20000000000005 578.8000000000001 104.50000000000004 576.0000000000001 103.20000000000005 572.4000000000001 C 102.80000000000004 570.9000000000001 102.70000000000005 569.4000000000001 102.80000000000004 567.9000000000001 C 102.70000000000005 566.1000000000001 102.80000000000004 564.3000000000001 103.30000000000004 562.5000000000001 C 104.30000000000004 559.5000000000001 106.50000000000004 557.1000000000001 109.40000000000003 555.8000000000001 C 112.5 554.4 116.1 553.6 119.7 553.6 z" stroke-linecap="round" />
</g>
</svg>