<svg width="62" height="62" viewBox="0 0 62 62" fill="none" xmlns="http://www.w3.org/2000/svg"><path d="M9 14.5367C9 11.4789 11.4789 9 14.5367 9H47.4633C50.5212 9 53 11.4789 53 14.5367V47.4633C53 50.5212 50.5212 53 47.4633 53H14.5367C11.4789 53 9 50.5212 9 47.4633V14.5367Z" fill="#6E58F1"/><path d="M15.3479 27.6104C15.3479 23.8151 18.4129 20.7383 22.1938 20.7383H22.5875C24.1869 20.7383 25.4834 22.0398 25.4834 23.6452V31.5755C25.4834 33.181 24.1869 34.4824 22.5875 34.4824H22.1938C18.4129 34.4824 15.3479 31.4058 15.3479 27.6104Z" fill="white"/><path d="M27.0469 21.9542C27.0469 21.2171 27.4781 20.5488 28.1482 20.2474L38.1137 15.7652C39.3463 15.2108 40.7386 16.1161 40.7386 17.472V37.9019C40.7386 39.2665 39.3299 40.1717 38.0956 39.6003L28.1299 34.9882C27.4697 34.6827 27.0469 34.0195 27.0469 33.2898V32.344C27.0469 31.5659 27.5268 30.8691 28.252 30.5942L33.8064 28.4897C34.6099 28.1852 34.6099 27.0445 33.8064 26.74L28.252 24.6355C27.5268 24.3606 27.0469 23.6638 27.0469 22.8857V21.9542Z" fill="white"/><path d="M46.6428 29.2513V28.8348C46.6428 26.5346 44.7853 24.6699 42.4939 24.6699C42.3792 24.6699 42.2864 24.7631 42.2864 24.8782V33.208C42.2864 33.323 42.3792 33.4162 42.4939 33.4162C44.7853 33.4162 46.6428 31.5515 46.6428 29.2513Z" fill="white"/><path d="M22.1885 37.1427C22.1885 36.7338 22.5187 36.4023 22.9261 36.4023H26.7853C27.1928 36.4023 27.5229 36.7338 27.5229 37.1427V43.7207C27.5229 45.1994 26.3287 46.3981 24.8558 46.3981C23.3826 46.3981 22.1885 45.1994 22.1885 43.7207V37.1427Z" fill="white"/></svg>