<?xml version="1.0" encoding="UTF-8"?>
<svg xmlns="http://www.w3.org/2000/svg" xmlns:xlink="http://www.w3.org/1999/xlink" width="62px" height="62px" viewBox="0 0 62 62" version="1.1">
<g id="surface1">
<path style=" stroke:none;fill-rule:nonzero;fill:rgb(59.607843%,78.823529%,19.607843%);fill-opacity:1;" d="M 7.75 0 L 54.25 0 C 58.53125 0 62 3.46875 62 7.75 L 62 54.25 C 62 58.53125 58.53125 62 54.25 62 L 7.75 62 C 3.46875 62 0 58.53125 0 54.25 L 0 7.75 C 0 3.46875 3.46875 0 7.75 0 Z M 7.75 0 "/>
<path style=" stroke:none;fill-rule:nonzero;fill:rgb(100%,100%,100%);fill-opacity:1;" d="M 26.367188 10.414062 C 26.367188 12.421875 24.273438 14.046875 21.6875 14.046875 C 19.101562 14.046875 17.003906 12.421875 17.003906 10.414062 C 17.003906 8.410156 19.101562 6.78125 21.6875 6.78125 C 24.273438 6.78125 26.367188 8.410156 26.367188 10.414062 Z M 42.753906 6.78125 C 40.171875 6.78125 38.074219 8.410156 38.074219 10.414062 C 38.074219 12.421875 40.171875 14.046875 42.753906 14.046875 C 45.339844 14.046875 47.4375 12.421875 47.4375 10.414062 C 47.4375 8.410156 45.339844 6.78125 42.753906 6.78125 Z M 55.21875 25.25 C 55.21875 28.828125 47.214844 55.21875 26.636719 55.21875 C 6.058594 55.21875 3.769531 35.871094 9.488281 23.945312 C 10.632812 21.558594 11.773438 21.316406 11.773438 21.316406 L 51.789062 21.316406 C 51.789062 21.316406 55.21875 21.667969 55.21875 25.25 Z M 50.367188 26.160156 L 13.667969 26.160156 C 11.246094 31.003906 10.257812 38.769531 13.503906 44.265625 C 16.503906 49.324219 22.300781 50.382812 26.636719 50.382812 C 42.238281 50.382812 49.207031 31.003906 50.367188 26.160156 Z M 50.367188 26.160156 "/>
</g>
</svg>
