<svg xmlns="http://www.w3.org/2000/svg" width="62" height="62" fill="#6eb800" fill-rule="evenodd"><path d="M21.706 17.881c3.977-.063 5.883-2.49 5.63-4.697-.213-1.845-1.935-3.536-5.218-3.564-2.705-.022-4.471 2.058-4.736 4.135-.267 2.09.984 4.178 4.324 4.126zm19.437-.498c3.817-.225 5.485-2.206 5.509-4.185.026-2.232-2.037-4.462-5.468-4.172-2.753.232-4.362 2.203-4.606 4.174-.27 2.192 1.147 4.384 4.565 4.183zm2.181 8.254c-9.385.976-9.843 1.072-27.106 1.484-7.28.032-5.81 25.88 9.735 25.88 14.802 0 32.726-28.683 17.371-27.363zM26.458 48.064c-13.24 0-11.43-16.134-9.203-16.226l24.811-1.298c5.649-.125-5.156 17.483-15.608 17.525z"/></svg>