<svg width="62" height="62" viewBox="0 0 62 62" fill="none" xmlns="http://www.w3.org/2000/svg"><path d="M9 41.8086V41.8106C9.02633 42.7873 9.03446 43.7697 9.19921 44.7405C9.3738 45.7675 9.62337 46.7689 10.0995 47.701C10.7432 48.9626 11.6273 50.028 12.7432 50.8983C13.5444 51.5232 14.4196 52.0193 15.3885 52.3322C16.8013 52.7879 18.2588 52.9625 19.7375 52.9711C20.6602 52.9769 21.5822 53 22.5051 52.9962C29.2077 52.9679 35.9105 53.0445 42.6133 52.9548C43.5028 52.9427 44.3777 52.8342 45.2506 52.6746C46.9237 52.3683 48.4024 51.6544 49.6675 50.5258C51.142 49.2107 52.1367 47.6013 52.5858 45.6589C52.8796 44.3892 52.9531 43.1011 52.9657 41.8085V41.5506C52.9657 41.4506 52.9277 19.5868 52.9242 19.2978C52.9143 18.504 52.8559 17.7161 52.707 16.935C52.526 15.9831 52.2703 15.0557 51.8145 14.1945C51.3332 13.2847 50.7304 12.4667 49.9847 11.7518C48.8426 10.6566 47.5245 9.88208 45.9901 9.47238C44.6042 9.10243 43.1903 9.02052 41.7661 9.0218C41.7637 9.02146 41.7584 9.00701 41.758 9H20.2009C20.2004 9.00735 20.2002 9.01471 20.1997 9.0218C19.3914 9.03659 18.5819 9.03052 17.7777 9.13021C16.8967 9.23974 16.0242 9.40466 15.1903 9.71263C13.8769 10.1984 12.7358 10.9551 11.761 11.9652C10.6566 13.1097 9.87815 14.4333 9.46511 15.9746C9.09661 17.3498 9.01642 18.7523 9.01445 20.1647" fill="#FFFC00"/><path d="M31.182 46.1219C31.0907 46.1219 31.0035 46.1185 30.9373 46.1154C30.8847 46.1199 30.8304 46.1219 30.776 46.1219C28.8577 46.1219 27.5751 45.215 26.4432 44.4142C25.6319 43.8411 24.8667 43.3001 23.9704 43.151C23.5302 43.0779 23.0922 43.0409 22.6691 43.0409C21.9067 43.0409 21.3042 43.1592 20.8643 43.2452C20.5936 43.2979 20.3602 43.3433 20.1798 43.3433C19.9909 43.3433 19.7613 43.3014 19.6656 42.9748C19.5898 42.7171 19.5354 42.4674 19.4829 42.227C19.3516 41.6262 19.2564 41.2595 19.0314 41.2247C16.6254 40.8535 15.2038 40.3066 14.9207 39.6443C14.891 39.5747 14.8744 39.5047 14.8707 39.4355C14.8597 39.2381 14.9991 39.0649 15.1937 39.0327C17.1044 38.7181 18.8033 37.7082 20.2435 36.0301C21.3592 34.7309 21.9071 33.4897 21.9659 33.3526C21.9684 33.3465 21.9714 33.34 21.9745 33.3341C22.2521 32.7708 22.3074 32.2841 22.1392 31.8878C21.8292 31.1567 20.8024 30.8309 20.1231 30.6154C19.9542 30.562 19.7944 30.5113 19.6671 30.4608C19.0649 30.223 18.0746 29.7204 18.2065 29.0268C18.3026 28.5209 18.9716 28.1687 19.5123 28.1687C19.6625 28.1687 19.7955 28.195 19.9075 28.2476C20.5185 28.5339 21.0681 28.6789 21.5409 28.6789C22.1288 28.6789 22.4127 28.4551 22.4813 28.3915C22.4644 28.0779 22.4437 27.7463 22.4237 27.4327C22.4237 27.4324 22.4233 27.4286 22.4233 27.4286C22.2853 25.2335 22.1132 22.5016 22.812 20.935C24.9034 16.2457 29.3388 15.8811 30.648 15.8811C30.6828 15.8811 31.2186 15.8758 31.2186 15.8758C31.2428 15.8753 31.269 15.875 31.2962 15.875C32.6089 15.875 37.0536 16.2401 39.1463 20.9322C39.8451 22.4998 39.6728 25.234 39.5344 27.4314L39.5279 27.5366C39.5089 27.835 39.4914 28.1174 39.4766 28.3912C39.5412 28.4507 39.8011 28.6559 40.3297 28.6766C40.7803 28.6594 41.2982 28.515 41.8685 28.248C42.0448 28.1652 42.24 28.148 42.3725 28.148C42.5728 28.148 42.7766 28.187 42.9465 28.2579L42.9556 28.2614C43.4395 28.4331 43.7565 28.7764 43.7633 29.137C43.7694 29.4732 43.5195 29.9757 42.2908 30.461C42.1649 30.5108 42.0043 30.5618 41.8347 30.6156C41.1548 30.8314 40.1289 31.1569 39.8189 31.8876C39.6505 32.2839 39.7059 32.7705 39.9836 33.3336C39.9867 33.3397 39.9893 33.346 39.9923 33.3524C40.0778 33.5529 42.1473 38.2716 46.7645 39.0323C46.959 39.0647 47.0987 39.238 47.0875 39.435C47.0834 39.5058 47.0663 39.5766 47.0364 39.6458C46.7552 40.3044 45.3337 40.8505 42.927 41.2222C42.7011 41.2571 42.606 41.6222 42.4759 42.2198C42.422 42.4666 42.3672 42.7086 42.2924 42.9629C42.2224 43.202 42.0666 43.3189 41.8164 43.3189H41.7787C41.6158 43.3189 41.3851 43.2893 41.094 43.2324C40.5853 43.1334 40.0148 43.0412 39.2893 43.0412C38.8662 43.0412 38.4284 43.0783 37.9876 43.1512C37.0922 43.3003 36.3272 43.8405 35.5173 44.413C34.3832 45.2149 33.1001 46.1219 31.182 46.1219Z" fill="white"/><path d="M31.2962 16.2649C32.5321 16.2649 36.7878 16.5969 38.7933 21.0932C39.4537 22.5737 39.2844 25.2557 39.1487 27.4102C39.1275 27.7521 39.1064 28.0835 39.0893 28.3999L39.0822 28.536L39.1729 28.6373C39.2096 28.678 39.5529 29.0367 40.3164 29.0662L40.3287 29.0669L40.3415 29.0666C40.8463 29.0474 41.4149 28.8906 42.0324 28.6014C42.1233 28.5588 42.2444 28.538 42.3725 28.538C42.5184 28.538 42.6735 28.5655 42.8014 28.6193L42.8207 28.627C43.1445 28.7405 43.3734 28.9544 43.3769 29.148C43.3788 29.2574 43.297 29.6516 42.1492 30.105C42.0371 30.1493 41.8894 30.1964 41.7182 30.2504C40.9713 30.4875 39.8429 30.8454 39.4631 31.7403C39.2493 32.2444 39.3079 32.8393 39.637 33.5083C39.7725 33.8244 41.9044 38.6266 46.7018 39.4171C46.7009 39.4399 46.6951 39.4648 46.6823 39.4941C46.6009 39.6856 46.0841 40.3473 42.868 40.8435C42.3648 40.9206 42.2415 41.4847 42.0985 42.1405C42.0469 42.3753 41.9944 42.6123 41.9222 42.8571C41.9002 42.931 41.8961 42.9352 41.8168 42.9352C41.8059 42.9352 41.793 42.9352 41.779 42.9352C41.6364 42.9352 41.4199 42.9056 41.169 42.8564C40.712 42.7674 40.0877 42.6582 39.2896 42.6582C38.8441 42.6582 38.3853 42.6969 37.9248 42.7738C36.9407 42.9374 36.1403 43.5035 35.2927 44.1027C34.1544 44.9071 32.9778 45.7394 31.1827 45.7394C31.1043 45.7394 31.0278 45.7367 30.9511 45.7329L30.9309 45.732L30.9107 45.7336C30.8666 45.7374 30.8223 45.7394 30.7769 45.7394C28.9821 45.7394 27.805 44.9073 26.6672 44.1027C25.8194 43.5035 25.0186 42.9374 24.0346 42.7738C23.5747 42.6972 23.1154 42.6582 22.6702 42.6582C21.8722 42.6582 21.2471 42.7803 20.7911 42.8695C20.5402 42.9185 20.3229 42.9606 20.1807 42.9606C20.0643 42.9606 20.0621 42.9538 20.0374 42.8696C19.9653 42.6247 19.9125 42.382 19.8611 42.1476C19.7178 41.4912 19.5945 40.924 19.0915 40.8468C15.8756 40.3501 15.3587 39.6873 15.2772 39.4963C15.2644 39.4662 15.2587 39.4406 15.2574 39.4178C20.0547 38.628 22.1863 33.8256 22.3221 33.5083C22.6519 32.8398 22.7104 32.245 22.4958 31.7403C22.1161 30.8459 20.9878 30.4875 20.2414 30.2508C20.0698 30.1965 19.9221 30.1493 19.8098 30.105C18.8406 29.7221 18.5425 29.3363 18.5868 29.1026C18.6382 28.833 19.1055 28.5589 19.5133 28.5589C19.605 28.5589 19.6854 28.5737 19.7448 28.6014C20.4071 28.9119 21.0118 29.0693 21.5421 29.0693C22.3758 29.0693 22.7469 28.6814 22.7867 28.6371L22.8771 28.536L22.8698 28.4007C22.853 28.0844 22.8322 27.7531 22.8103 27.4119C22.675 25.2569 22.5057 22.5767 23.1658 21.0961C25.1639 16.6163 29.3989 16.271 30.649 16.271C30.6798 16.271 31.2233 16.2654 31.2233 16.2654C31.2456 16.2653 31.2703 16.2649 31.2962 16.2649ZM31.2962 15.4922H31.2947C31.2663 15.4922 31.2395 15.4922 31.214 15.4925C31.0109 15.4946 30.6769 15.4978 30.6469 15.4982C29.9145 15.4982 28.4492 15.6016 26.8752 16.2964C25.9752 16.6934 25.1657 17.2301 24.4692 17.8918C23.6389 18.6802 22.9624 19.6522 22.459 20.7813C21.7217 22.4345 21.8968 25.2191 22.0373 27.4568L22.0378 27.4603C22.0529 27.7 22.0687 27.9502 22.0832 28.1941C21.975 28.2437 21.7996 28.2961 21.5412 28.2961C21.1253 28.2961 20.6308 28.1632 20.0717 27.9012C19.9072 27.8246 19.7195 27.7859 19.5123 27.7859C19.1795 27.7859 18.8286 27.8839 18.5242 28.0628C18.1413 28.2877 17.8938 28.6055 17.8266 28.9578C17.7823 29.1909 17.7845 29.6515 18.2962 30.1187C18.5776 30.3759 18.9911 30.613 19.5248 30.824C19.6648 30.8791 19.831 30.9318 20.0071 30.9876C20.618 31.1818 21.5425 31.4751 21.7836 32.0426C21.9058 32.3303 21.8532 32.7089 21.6278 33.1665C21.6219 33.1789 21.616 33.1912 21.6106 33.204C21.5543 33.3356 21.0286 34.5262 19.9504 35.7819C19.3377 36.496 18.6629 37.0928 17.9457 37.5562C17.0704 38.1219 16.1232 38.4918 15.1309 38.6553C14.7412 38.7192 14.4629 39.0664 14.4846 39.461C14.4913 39.5747 14.5179 39.6881 14.5642 39.7978C14.5645 39.7985 14.565 39.7991 14.5653 39.7997C14.7229 40.1683 15.0882 40.4814 15.6822 40.7576C16.408 41.0947 17.4934 41.3783 18.9082 41.6002C18.9797 41.7361 19.0539 42.0778 19.1052 42.3117C19.159 42.5603 19.2151 42.8159 19.2951 43.0875C19.3813 43.3817 19.6051 43.7333 20.1799 43.7333C20.3977 43.7333 20.6482 43.6842 20.9383 43.6279C21.3632 43.5446 21.9441 43.4308 22.6692 43.4308C23.0713 43.4308 23.4879 43.4662 23.9073 43.5359C24.7156 43.6705 25.4125 44.1628 26.2189 44.7329C27.3991 45.5672 28.735 46.5115 30.7761 46.5115C30.8317 46.5115 30.8876 46.5097 30.9427 46.5059C31.0102 46.509 31.0938 46.5115 31.182 46.5115C33.2237 46.5115 34.5593 45.5668 35.7382 44.7332L35.7401 44.7315C36.5466 44.1621 37.2427 43.6705 38.0509 43.5359C38.4701 43.4663 38.8866 43.4308 39.2888 43.4308C39.9815 43.4308 40.53 43.5192 41.0197 43.6147C41.3393 43.6776 41.5877 43.7079 41.7782 43.7079L41.7969 43.7082H41.8162C42.2366 43.7082 42.5455 43.4774 42.6634 43.0736C42.7417 42.8078 42.7976 42.5582 42.8528 42.3054C42.9008 42.0861 42.9776 41.7347 43.0491 41.5973C44.4648 41.375 45.5498 41.092 46.2757 40.755C46.8683 40.4801 47.2332 40.1674 47.3917 39.8003C47.4393 39.6903 47.467 39.5762 47.4733 39.4601C47.4956 39.0663 47.2169 38.7184 46.8269 38.6544C42.4165 37.9275 40.4296 33.3958 40.3474 33.2032C40.3421 33.1906 40.3362 33.178 40.3299 33.1658C40.1045 32.708 40.0524 32.3299 40.1746 32.0416C40.4152 31.4747 41.3392 31.1814 41.9505 30.9873C42.1275 30.9315 42.2943 30.8785 42.4333 30.8236C43.0351 30.5859 43.4652 30.3281 43.749 30.0353C44.0879 29.6862 44.1539 29.3517 44.1498 29.1328C44.1395 28.6032 43.7346 28.1327 43.0906 27.9022C42.8731 27.8123 42.6251 27.7648 42.3726 27.7648C42.2006 27.7648 41.946 27.7884 41.705 27.901C41.189 28.1424 40.7268 28.2744 40.33 28.2932C40.119 28.2825 39.971 28.2368 39.8751 28.1931C39.8872 27.9865 39.9005 27.7743 39.9143 27.5531L39.92 27.4583C40.0614 25.2191 40.237 22.4324 39.4994 20.778C38.9938 19.6449 38.315 18.6704 37.4813 17.8803C36.7821 17.2182 35.9698 16.6816 35.0666 16.2848C33.4948 15.5952 32.0296 15.4922 31.2962 15.4922Z" fill="#020202"/></svg>