<svg height="272pt" viewBox="66.9 58.4 140.2 144.6" width="272pt" xmlns="http://www.w3.org/2000/svg"><path d="m100.1 71.5c-11.2 6.8-20.8 12.8-21.4 13.4-.7.7 1.3 6.5 6.8 19.3 4.3 10.1 8 18.4 8.1 18.6s2.5-.8 5.3-2.3c17.4-8.7 34.2-6.4 46.4 6.4 3 3.1 6.1 7.1 7 8.8 1.2 2.2 4.4 4.6 10.9 8.4 5.1 2.8 10.9 6.1 12.8 7.3 3.3 2 3.2 1.7-3.4-7.9-3.8-5.5-7.8-11.1-8.8-12.4s-1.7-2.6-1.4-2.8c.2-.2 8.3 1.4 18.1 3.7s17.9 3.9 18.1 3.8c.2-.2-6.4-4.6-14.6-9.8-8.3-5.2-15-9.7-15-10s8.7-3.9 19.4-8c11.9-4.6 18.7-7.7 17.7-8.1-.9-.3-11.9-1.9-24.6-3.4-12.6-1.6-23.3-3.1-23.7-3.4-.4-.4 6.2-5.1 14.7-10.5s15.5-10 15.5-10.1-10.6 1.8-23.6 4.3c-13 2.4-23.8 4.1-24 3.9-.3-.2 2.7-5.1 6.6-10.7s6.9-10.4 6.7-10.6c-.2-.3-9.3 4.1-20.2 9.6-10.8 5.6-19.9 10-20 9.8-.2-.2 1.7-4.5 4.1-9.7s4.4-9.5 4.4-9.7c0-1-3 .7-21.9 12.1zm-.5 67.3c-.3 3.7-.6 9.2-.6 12.2v5.5l-9.1 5.8c-12.1 7.7-12 8.3 2.8 13.8l8.3 3.1 1.4 5.1c.8 2.9 2.2 8.2 3.2 11.9.9 3.8 2 6.8 2.3 6.7.3 0 3.9-4.3 7.9-9.5 8.3-10.7 6.8-10.1 23.7-8.5 4.4.4 8.1.7 8.3.6.2-.2-2.6-4.8-6.2-10.3-3.7-5.5-6.6-10.5-6.6-11.2 0-.6 1.8-5.9 4.1-11.6 2.3-5.8 3.9-10.7 3.7-10.9-.2-.3-5.1.9-10.9 2.5-5.7 1.7-11 3-11.8 3-.7 0-5-3.1-9.5-6.8-4.4-3.8-8.6-7.1-9.2-7.5-.8-.4-1.3 1.6-1.8 6.1zm3.3 25.3c3.4 1 3.6 1.4 3.3 4.3-.3 2.4.3 4 2.1 6.1 2 2.4 3.3 2.9 8.5 3.3 6 .4 6.3.3 9.8-3.2 2.5-2.5 4-3.3 5.1-2.8 1.1.7.4 1.8-3.7 5.5-6.3 5.7-10.8 7.4-16 5.8-6.1-1.8-12.9-9.7-15.4-17.9-.9-2.6.6-2.8 6.3-1.1zm7.1 4.4c0 .8-.7 1.5-1.5 1.5s-1.5-.7-1.5-1.5.7-1.5 1.5-1.5 1.5.7 1.5 1.5zm-35.5-22.4c-.9 3.8.7 5.9 3.3 4.3 2.6-1.7 2.6-3.9-.2-5.7-2.4-1.6-2.5-1.6-3.1 1.4zm-7.3 4.2c.2 2.5.8 3.3 2.6 3.5 2 .3 2.3 0 2-2.4-.2-1.7-1.1-3-2.6-3.5-2.2-.8-2.3-.6-2 2.4zm126 13.7c-3.1 7.9-4.3 10-7.3 13.5-1.9 2.1-5.2 4.6-7.4 5.6-4.2 1.9-3.5 2.6.9.9 4.6-1.7 10.3-7.8 13-14 1.5-3.3 2.5-6.6 2.3-7.3-.3-.7-.9-.1-1.5 1.3zm-22.7 4.3c-6 1.6-11.2 3.1-11.4 3.3-.3.3.9 1.8 2.5 3.5 3.2 3.1 8.5 4.6 12.8 3.5 5.6-1.4 11.6-9.4 6.9-9.2-1 .1-1.8-.4-1.8-.9 0-.6.8-1 1.8-.9 1.7.1 2.4-1.2 1-1.9-.5-.2-5.7 1-11.8 2.6z"/><path d="m71 173c-1.1 1.1-2 2.7-2 3.5 0 2.1 3.6 5.5 5.8 5.5 3.2 0 6.2-2.9 6.2-6 0-4.9-6.2-6.8-10-3zm6.4 1.3c2.3 1.7 1.1 4.7-2 4.7-2.9 0-4.1-2.4-2.4-4.5 1.5-1.8 2.1-1.9 4.4-.2zm87.1 18.2c-3.2 1.9-17.8 6.1-27 7.8-3.1.5 5.2 2.7 10.5 2.7 5.5 0 14.2-3.9 18.8-8.3 5.2-5.1 4.3-6-2.3-2.2z"/></svg>