<svg width="62" height="62" viewBox="0 0 62 62" fill="none" xmlns="http://www.w3.org/2000/svg"><rect width="62" height="62" rx="31" fill="white"/><path d="M20.1014 12.776C16.6755 14.856 13.739 16.6913 13.5555 16.8748C13.3413 17.0889 13.9531 18.8631 15.6355 22.7784C16.9508 25.8679 18.0826 28.4067 18.1131 28.4679C18.1437 28.5291 18.8779 28.2232 19.7343 27.7643C25.0568 25.1031 30.1956 25.8067 33.9274 29.722C34.8451 30.6703 35.7933 31.8938 36.0686 32.4138C36.4357 33.0868 37.4145 33.8209 39.4028 34.9833C40.9628 35.8397 42.7369 36.8491 43.3181 37.2162C44.3275 37.828 44.297 37.7362 42.2781 34.7997C41.1157 33.1173 39.8922 31.4044 39.5863 31.0067C39.2804 30.6091 39.0663 30.2114 39.1581 30.1503C39.2193 30.0891 41.6969 30.5785 44.6946 31.282C47.6923 31.9856 50.17 32.475 50.2311 32.4444C50.2923 32.3832 48.2735 31.0373 45.7652 29.4467C43.2264 27.8561 41.1769 26.4796 41.1769 26.3879C41.1769 26.2961 43.8381 25.1949 47.1111 23.9408C50.7511 22.5337 52.8312 21.5855 52.5253 21.4631C52.25 21.3713 48.8852 20.8819 45.0005 20.4231C41.1463 19.9337 37.8734 19.4748 37.751 19.3831C37.6287 19.2607 39.6475 17.8231 42.2475 16.1713C44.8475 14.5195 46.9887 13.1124 46.9887 13.0818C46.9887 13.0513 43.7464 13.6324 39.7698 14.3971C35.7933 15.1313 32.4898 15.6513 32.4286 15.5901C32.3368 15.5289 33.2545 14.0301 34.4474 12.3171C35.6404 10.6042 36.558 9.13592 36.4969 9.07474C36.4357 8.98297 33.6521 10.3289 30.318 12.0112C27.0144 13.7242 24.2309 15.0701 24.2003 15.0089C24.1391 14.9477 24.7203 13.6324 25.4544 12.0418C26.1885 10.4512 26.8003 9.13592 26.8003 9.07474C26.8003 8.76885 25.8826 9.28886 20.1014 12.776ZM19.9485 33.3621C19.8567 34.4938 19.7649 36.1762 19.7649 37.0939V38.7762L16.9814 40.5504C13.2802 42.9057 13.3107 43.0892 17.8379 44.7716L20.3767 45.7198L20.8049 47.2798C21.0497 48.1669 21.4779 49.7881 21.7838 50.9199C22.0591 52.0822 22.3955 52.9999 22.4873 52.9693C22.5791 52.9693 23.6803 51.654 24.9038 50.0634C27.4427 46.7904 26.9838 46.974 32.1533 47.4634C33.4992 47.5857 34.631 47.6775 34.6921 47.6469C34.7533 47.5857 33.8968 46.1787 32.7957 44.4963C31.6639 42.8139 30.7768 41.2845 30.7768 41.0704C30.7768 40.8868 31.3274 39.2656 32.0309 37.5221C32.7345 35.748 33.2239 34.2491 33.1627 34.1879C33.1015 34.0962 31.6027 34.4632 29.8286 34.9527C28.085 35.4727 26.4638 35.8703 26.2191 35.8703C26.005 35.8703 24.6897 34.9221 23.3132 33.7903C21.9673 32.6279 20.6826 31.6185 20.4991 31.4962C20.2543 31.3738 20.1014 31.9856 19.9485 33.3621ZM20.9579 41.101C21.9979 41.4068 22.0591 41.5292 21.9673 42.4163C21.8755 43.1504 22.0591 43.6398 22.6097 44.2822C23.2214 45.0163 23.6191 45.1692 25.2097 45.2916C27.045 45.4139 27.1368 45.3834 28.2074 44.3128C28.9721 43.548 29.4309 43.3033 29.7674 43.4563C30.1039 43.6704 29.8897 44.0069 28.6356 45.1387C26.7085 46.8822 25.332 47.4022 23.7414 46.9128C21.8755 46.3622 19.7955 43.9457 19.0308 41.4374C18.7555 40.6421 19.2143 40.581 20.9579 41.101ZM23.1297 42.4469C23.1297 42.6916 22.9156 42.9057 22.6708 42.9057C22.4261 42.9057 22.212 42.6916 22.212 42.4469C22.212 42.2021 22.4261 41.988 22.6708 41.988C22.9156 41.988 23.1297 42.2021 23.1297 42.4469ZM12.2707 35.595C11.9954 36.7574 12.4849 37.3997 13.2802 36.9103C14.0755 36.3903 14.0755 35.7174 13.219 35.1668C12.4849 34.6774 12.4543 34.6774 12.2707 35.595ZM10.0378 36.8797C10.0989 37.6445 10.2825 37.8892 10.8331 37.9503C11.4448 38.0421 11.5366 37.9503 11.4448 37.2162C11.3837 36.6962 11.1084 36.2986 10.6495 36.1456C9.97659 35.9009 9.946 35.9621 10.0378 36.8797ZM48.5794 41.0704C47.6311 43.4869 47.264 44.1292 46.3464 45.1998C45.7652 45.8422 44.7558 46.6069 44.0828 46.9128C42.7981 47.494 43.0122 47.7081 44.3581 47.1881C45.7652 46.6681 47.5088 44.8022 48.3346 42.9057C48.7935 41.8963 49.0994 40.8868 49.0382 40.6727C48.9464 40.4586 48.7629 40.6421 48.5794 41.0704ZM41.6358 42.3857C39.8004 42.8751 38.2098 43.3339 38.1487 43.3951C38.0569 43.4869 38.424 43.9457 38.9134 44.4657C39.8922 45.4139 41.5134 45.8728 42.8287 45.5363C44.5417 45.1081 46.377 42.661 44.9393 42.7222C44.6334 42.7527 44.3887 42.5998 44.3887 42.4469C44.3887 42.2633 44.6334 42.141 44.9393 42.1716C45.4593 42.2021 45.6734 41.8045 45.2452 41.5904C45.0923 41.5292 43.5017 41.8963 41.6358 42.3857Z" fill="black"/><path d="M11.2002 43.8231C10.8637 44.1596 10.5884 44.649 10.5884 44.8937C10.5884 45.5361 11.6896 46.5761 12.3625 46.5761C13.3413 46.5761 14.259 45.689 14.259 44.7408C14.259 43.2419 12.3625 42.6608 11.2002 43.8231ZM13.1578 44.2208C13.8614 44.7408 13.4943 45.6584 12.546 45.6584C11.659 45.6584 11.2919 44.9243 11.8119 44.282C12.2707 43.7314 12.4543 43.7008 13.1578 44.2208ZM39.8004 49.7879C38.8216 50.3691 34.3557 51.6538 31.5415 52.1738C30.5933 52.3267 33.1321 52.9997 34.7533 52.9997C36.4357 52.9997 39.0969 51.8067 40.504 50.4608C42.0946 48.9008 41.8193 48.6255 39.8004 49.7879Z" fill="black"/></svg>