<svg xmlns="http://www.w3.org/2000/svg" width="62" height="62" fill="none"><path d="M15.942 19.52l8.941 5.361c.495.298 1.076.419 1.649.344s1.103-.342 1.505-.757c.268-.259.482-.569.627-.913s.219-.713.217-1.086V11.723a2.62 2.62 0 0 0-1.279-2.351 2.62 2.62 0 0 0-2.676 0 2.62 2.62 0 0 0-1.279 2.351v6.115l-5.078-3.045c-.299-.178-.631-.294-.976-.341s-.696-.025-1.032.066c-.678.182-1.25.646-1.581 1.268-.726 1.306-.302 2.942.962 3.727m21.494 5.361l8.941-5.361a2.79 2.79 0 0 0 .962-3.728c-.164-.307-.389-.577-.661-.794s-.585-.378-.92-.471-.686-.118-1.031-.072-.677.161-.976.339l-5.018 3.004v-6.076c.013-.352-.045-.702-.171-1.031a2.62 2.62 0 0 0-1.422-1.474 2.62 2.62 0 0 0-2.048 0 2.62 2.62 0 0 0-1.422 1.474 2.62 2.62 0 0 0-.171 1.031v10.533c-.054.564.065 1.131.34 1.627.331.621.903 1.079 1.581 1.267a2.55 2.55 0 0 0 2.009-.275m-7.951 6.113a.76.76 0 0 1 .187-.467l1.045-1.086a.73.73 0 0 1 .452-.194h.039a.72.72 0 0 1 .451.194l1.045 1.086a.77.77 0 0 1 .187.468v.041c-.008.173-.074.338-.187.469l-1.045 1.086c-.123.116-.282.185-.451.195h-.039c-.169-.01-.33-.079-.452-.195l-1.045-1.086c-.113-.131-.179-.297-.187-.469v-.042zm-3.165-.447v.938a1.06 1.06 0 0 0 .256.639l3.547 3.682c.167.158.385.252.615.265h.902c.23-.013.448-.107.615-.265l3.547-3.682a1.06 1.06 0 0 0 .256-.639v-.938a1.06 1.06 0 0 0-.256-.639l-3.547-3.682c-.167-.158-.385-.252-.615-.265h-.902c-.23.013-.448.107-.615.265L26.569 29.9c-.154.179-.244.404-.256.639m-14.997-2.55l5.062 3.036-5.062 3.033a2.79 2.79 0 0 0-.962 3.728 2.58 2.58 0 0 0 1.581 1.267c.678.188 1.404.092 2.008-.269l8.941-5.361c.825-.524 1.306-1.428 1.306-2.4a2.86 2.86 0 0 0-1.306-2.4l-8.941-5.361c-.299-.178-.631-.294-.976-.341s-.696-.025-1.032.066a2.55 2.55 0 0 0-1.581 1.268c-.727 1.306-.302 2.941.962 3.727m26.804 3.053a2.75 2.75 0 0 0 1.313 2.39l8.936 5.361c.605.36 1.329.458 2.007.269s1.249-.646 1.581-1.267c.351-.626.447-1.363.267-2.057s-.62-1.293-1.23-1.671l-5.056-3.034 5.063-3.036c1.265-.786 1.689-2.426.962-3.727a2.57 2.57 0 0 0-.66-.796c-.272-.218-.585-.378-.921-.471-.678-.188-1.404-.092-2.007.275l-8.936 5.362a2.75 2.75 0 0 0-1.313 2.411m-11.448 5.806c-.617-.119-1.256-.006-1.795.319l-8.941 5.361a2.79 2.79 0 0 0-.962 3.727c.332.621.903 1.079 1.581 1.267.336.093.687.117 1.032.071s.677-.162.977-.34l5.078-3.045v6.069a2.62 2.62 0 0 0 .169 1.034c.125.33.316.631.56.885s.537.457.862.595a2.62 2.62 0 0 0 2.052 0 2.62 2.62 0 0 0 1.422-1.48 2.62 2.62 0 0 0 .169-1.034V39.523a2.69 2.69 0 0 0-2.203-2.683m19.7 5.689l-8.941-5.361a2.58 2.58 0 0 0-.977-.34c-.345-.046-.696-.022-1.032.071a2.57 2.57 0 0 0-1.581 1.267 2.81 2.81 0 0 0-.34 1.629v10.482a2.62 2.62 0 0 0 .729 1.919 2.62 2.62 0 0 0 1.888.804 2.62 2.62 0 0 0 1.888-.804 2.62 2.62 0 0 0 .729-1.919v-6.024l5.009 3.004c.299.178.631.294.976.341s.696.025 1.032-.066c.678-.182 1.25-.646 1.581-1.267.727-1.306.302-2.942-.962-3.727" fill="#29b5e8"/></svg>