<svg width="62" height="62" viewBox="0 0 62 62" fill="none" xmlns="http://www.w3.org/2000/svg"><path d="M9 14V31.0967C9 33.995 10.5685 36.6615 13.1054 38.0663L30.9045 47.9411L31.0205 48.0025L48.9014 38.0663C51.4315 36.6615 53 33.995 53 31.0967V14H9Z" fill="#2006F7"/><path d="M46.6371 20.6435L37.3829 25.806C36.4895 26.3038 35.4802 26.5698 34.4573 26.5698L16.9855 26.6243L25.7896 21.7142C27.1126 20.9777 28.6129 20.589 30.1269 20.5958L46.6303 20.6435H46.6371ZM16.7946 35.3261L26.0487 30.1637C26.9421 29.6658 27.9514 29.3999 28.9743 29.3999L46.4461 29.3453L37.642 34.2554C36.319 34.9919 34.8187 35.3807 33.3048 35.3738L16.8014 35.3261H16.7946Z" fill="white"/></svg>