<svg xmlns="http://www.w3.org/2000/svg" width="62" height="62" fill="none" fill-rule="evenodd"><path d="M25.71 35.69l4.969-2.863L10 20.914V32.68c1.55-.833 3.502-1.268 5.737-1.268 4.868 0 7.948 2.063 9.972 4.279m-9.123 16.422c2.071 0 3.633-.609 3.633-2.168 0-1.593-2.003-2.202-4.482-2.812-1.845-.472-3.963-.945-5.737-1.837v3.023c1.493 2.406 3.972 3.795 6.586 3.795z" fill="#1cc29f"/><path d="M51.358 44.741V20.913L30.679 32.828l20.68 11.913z" fill="#52595f"/><path d="M51.358 20.914L30.679 9 10 20.914l20.679 11.913 20.679-11.913z" fill="#ace4d6"/><path d="M30.679 32.827L25.71 35.69l-5.326 3.069c-1.361-1.08-3.092-1.859-4.68-1.859-1.935 0-2.92.643-2.92 1.829 0 1.372 1.347 2.026 3.213 2.557l1.234.323c4.108.983 9.609 2.236 9.609 7.86 0 1.181-.249 2.357-.795 3.431h25.313v-8.159L30.679 32.827z" fill="#373b3f"/><path d="M17.232 41.609l-1.235-.323c-1.865-.53-3.213-1.185-3.213-2.556 0-1.186.984-1.829 2.92-1.829 1.588 0 3.319.779 4.68 1.859l5.326-3.069c-2.024-2.216-5.105-4.279-9.972-4.279-2.236 0-4.188.434-5.737 1.268v12.616c1.774.892 3.892 1.365 5.737 1.837 2.478.61 4.482 1.22 4.482 2.813 0 1.559-1.562 2.168-3.633 2.168-2.614 0-5.093-1.389-6.587-3.795V52.9h16.045c.546-1.074.795-2.251.795-3.431 0-5.624-5.5-6.878-9.608-7.86z" fill="#fff"/></svg>