<svg xmlns="http://www.w3.org/2000/svg" width="62" height="62" fill="none"><path d="M31 9C18.85 9 9 18.85 9 31s9.85 22 22 22S53 43.15 53 31 43.151 9.001 31 9.001V9h0zm10.089 31.73a1.37 1.37 0 0 1-1.886.454c-5.165-3.155-11.668-3.87-19.326-2.12a1.37 1.37 0 1 1-.61-2.674c8.38-1.915 15.569-1.09 21.368 2.454a1.37 1.37 0 0 1 .454 1.886h0zm2.693-5.99c-.497.807-1.553 1.062-2.359.565-5.914-3.635-14.928-4.688-21.922-2.564a1.72 1.72 0 0 1-2.14-1.143 1.72 1.72 0 0 1 1.144-2.139c7.99-2.424 17.922-1.25 24.713 2.923.807.497 1.061 1.553.565 2.358h0 0zm.231-6.238c-7.091-4.211-18.789-4.599-25.559-2.544a2.06 2.06 0 0 1-2.566-1.371 2.06 2.06 0 0 1 1.372-2.567c7.771-2.359 20.69-1.903 28.853 2.943.98.58 1.3 1.843.72 2.82s-1.844 1.3-2.819.719h-.001z" fill="#fff"/></svg>