<svg xmlns="http://www.w3.org/2000/svg" height="62" width="62" viewBox="0 0 62 62"><path fill="#1ED760" d="M30.999.102C13.93.102.093 13.939.093 31.007S13.93 61.911 30.998 61.911c17.07 0 30.906-13.836 30.906-30.904S48.068.104 30.998.104zm14.173 44.574a1.925 1.925 0 0 1-2.65.638c-7.256-4.432-16.391-5.436-27.149-2.978a1.926 1.926 0 0 1-2.306-1.45 1.924 1.924 0 0 1 1.449-2.307c11.773-2.691 21.871-1.532 30.017 3.447a1.926 1.926 0 0 1 .638 2.65m3.783-8.416a2.41 2.41 0 0 1-3.314.795c-8.307-5.107-20.97-6.586-30.796-3.603a2.413 2.413 0 0 1-3.007-1.605 2.414 2.414 0 0 1 1.607-3.005c11.224-3.406 25.177-1.756 34.717 4.106a2.41 2.41 0 0 1 .793 3.313zm.325-8.763c-9.961-5.916-26.394-6.46-35.904-3.574a2.89 2.89 0 0 1-3.605-1.926 2.89 2.89 0 0 1 1.927-3.606c10.917-3.314 29.065-2.674 40.532 4.134a2.887 2.887 0 0 1 1.011 3.961 2.89 2.89 0 0 1-3.96 1.011z"/></svg>