<svg xmlns="http://www.w3.org/2000/svg" width="62" height="62" fill="none"><rect width="62" height="62" rx="31" fill="#fff"/><g fill="#000"><path d="M37.286 24.714H24.714v12.571h12.571V24.714z"/><path fill-rule="evenodd" d="M9 21.571C9 14.628 14.628 9 21.571 9h18.857C47.372 9 53 14.628 53 21.571v18.857C53 47.372 47.372 53 40.429 53H21.571C14.628 53 9 47.372 9 40.429V21.571zm12.571-3.143h18.857c1.736 0 3.143 1.407 3.143 3.143v18.857c0 1.736-1.407 3.143-3.143 3.143H21.571c-1.736 0-3.143-1.407-3.143-3.143V21.571c0-1.736 1.407-3.143 3.143-3.143z"/></g></svg>