<svg xmlns="http://www.w3.org/2000/svg" width="62" height="62" fill="none"><rect width="62" height="62" rx="31" fill="#fff"/><path d="M37.004 20.99c-.829-.829-2.173-.829-3.002 0L20.493 34.499c-1.659 1.657-4.346 1.657-6.004 0s-1.659-4.346 0-6.005l13.249-13.249c-1.658-1.658-4.346-1.658-6.004 0L11.487 25.493c-3.315 3.316-3.315 8.692 0 12.008s8.692 3.316 12.008 0l13.509-13.509c.828-.829.828-2.173 0-3.002zm4.503-4.502a8.49 8.49 0 0 0-12.008 0L15.99 29.996c-.828.829-.828 2.174 0 3.002s2.173.829 3.002 0l13.51-13.508c1.658-1.658 4.345-1.658 6.003 0 .83.829 2.174.829 3.003 0s.829-2.173 0-3.002zm4.503 13.508c-.829-.828-2.174-.828-3.003 0L29.499 43.505c-1.658 1.658-4.346 1.658-6.004 0-.828-.828-2.172-.828-3.001 0a2.12 2.12 0 0 0 0 3.002c3.315 3.316 8.692 3.316 12.008 0L46.01 32.998c.828-.828.828-2.174 0-3.002zm4.503-4.502c-3.316-3.316-8.693-3.316-12.008 0l-13.51 13.509c-.829.828-.829 2.173 0 3.002s2.174.829 3.002 0l13.509-13.509c1.657-1.658 4.346-1.658 6.004 0s1.658 4.346 0 6.004L34.262 47.749c1.658 1.657 4.345 1.657 6.004 0l10.248-10.247c3.315-3.317 3.315-8.692 0-12.008z" fill="#1a1918"/></svg>