<svg xmlns="http://www.w3.org/2000/svg" width="62" height="62" fill="none"><path d="M13 35.516h35.474V28.22H13v7.296z" fill="#4068bb"/><path d="M13 26.118h35.474v-7.298H13v7.297h0z" fill="#5ca3de"/><path d="M42.844 9H18.624C15.517 9 13 11.611 13 14.829v1.895h35.474v-1.895c0-3.217-2.52-5.829-5.629-5.829z" fill="#9adff7"/><path d="M13 37.571v1.895c0 3.218 2.517 5.829 5.624 5.829h15.15V53l7.435-7.705h1.635c3.109 0 5.629-2.612 5.629-5.829v-1.894H13" fill="#2d4e9b"/><path d="M19.655 45.295h-1.031c-3.107 0-5.624-2.612-5.624-5.829v-1.894h14.107l-7.453 7.724" fill="#455ca6"/><path d="M38.157 26.118H13v-7.298h32.198l-7.04 7.297" fill="#73aee2"/><path d="M29.091 35.516H13V28.22h23.131l-7.041 7.296z" fill="#5877c4"/></svg>