<?xml version="1.0" encoding="UTF-8"?>
<svg id="Ebene_1" data-name="Ebene 1" xmlns="http://www.w3.org/2000/svg" viewBox="0 0 99.91 100">
  <defs>
    <style>
      .cls-1 {
        fill: #0f2741;
      }
    </style>
  </defs>
  <path class="cls-1" d="M96.42,0H3.5c-.92,0-1.81.37-2.46,1.02C.38,1.67,0,2.55,0,3.48v63.33c.17-.01.34-.01.51,0,0,0,15.04-.3,21.51-3.66,7.97-4.15,13.9-12.71,13.9-12.71,1.51-2.18,3.17-4.58,3.71-5.34.53-.76,1.07-1.52,1.2-1.69.13-.17.76-1.06,1.13-1.58.37-.52,1.9-2.71,3.41-4.91,0,0,9.03-13.08,21.91-19.76,13.93-7.23,32.35-6.44,32.35-6.44h.29V3.48c0-.92-.38-1.81-1.03-2.46C98.23.37,97.34,0,96.42,0h0ZM77.44,36.8c-7.92,4.14-13.85,12.76-13.85,12.76l-3.71,5.34c-.52.75-1.07,1.52-1.2,1.69-.13.17-.77,1.05-1.13,1.57s-1.89,2.71-3.41,4.92c0,0-9.04,13.08-21.92,19.76-13.34,6.94-30.81,6.49-32.23,6.44v7.23c0,.93.37,1.82,1.02,2.47.66.66,1.54,1.02,2.47,1.02h92.92c.93,0,1.82-.37,2.47-1.02s1.02-1.54,1.02-2.47v-63.48c-.3.06-.6.1-.9.11,0,0-15.04.3-21.52,3.66h-.05Z"/>
</svg>