<svg xmlns="http://www.w3.org/2000/svg" width="62" height="62" fill="none" xmlns:v="https://vecta.io/nano"><g clip-path="url(#A)"><path d="M51.425 9H10.54c-.405 0-.796.163-1.082.449A1.52 1.52 0 0 0 9 10.531v27.865a1.91 1.91 0 0 1 .224 0s6.618-.132 9.464-1.61c3.507-1.826 6.116-5.592 6.116-5.592l1.632-2.35.528-.744.497-.695 1.5-2.16s3.973-5.755 9.64-8.694c6.129-3.181 14.234-2.834 14.234-2.834h.128v-3.186a1.54 1.54 0 0 0-.453-1.082C52.221 9.163 51.83 9 51.425 9zm-8.351 16.192c-3.485 1.822-6.094 5.614-6.094 5.614l-1.632 2.35-.528.744a30.05 30.05 0 0 0-.497.691l-1.5 2.165s-3.978 5.755-9.645 8.694c-5.87 3.054-13.556 2.856-14.181 2.834v3.181a1.54 1.54 0 0 0 .449 1.087c.29.29.678.449 1.087.449h40.885a1.54 1.54 0 0 0 1.536-1.536V23.533c-.132.026-.264.044-.396.048 0 0-6.618.132-9.469 1.61h-.022.009z" fill="#0f2741"/></g><defs><clipPath id="A"><path fill="#fff" transform="translate(9 9)" d="M0 0h43.96v44H0z"/></clipPath></defs></svg>