<svg width="140" height="113" viewBox="0 0 140 113" fill="none" xmlns="http://www.w3.org/2000/svg"><g clip-path="url(#clip0_2732_146)"><path d="M112.458 110.67C122.078 110.07 126.238 105.5 127.178 95.18C127.908 87.14 128.178 83.12 128.538 75.07C128.968 65.47 133.818 59.9399 138.498 57.3699C139.908 56.5699 139.898 54.72 138.498 53.83C133.618 50.89 128.888 44.64 128.518 36.38C128.158 28.48 127.888 24.5299 127.168 16.6299C126.148 5.49995 122.618 1.95995 112.988 1.34995C84.2016 -0.202395 55.3527 -0.195719 26.5675 1.36995C16.9475 1.97995 13.4075 5.51995 12.3875 16.65C11.6675 24.55 11.3975 28.5 11.0375 36.4C10.6575 44.66 5.93753 50.9099 1.05753 53.8499C0.737845 54.022 0.470719 54.2774 0.28452 54.589C0.0983204 54.9007 0 55.2569 0 55.6199C0 55.983 0.0983204 56.3392 0.28452 56.6509C0.470719 56.9625 0.737845 57.2179 1.05753 57.3899C5.74753 59.8799 10.5875 65.4 11.0175 75.09C11.3775 83.13 11.6475 87.15 12.3775 95.2C13.3175 105.52 17.4775 110.09 27.0975 110.69C55.6175 112.22 83.9475 112.22 112.458 110.69V110.67ZM69.5475 92.82C60.7775 93.31 49.8475 89.02 43.5975 82.87C42.3675 81.74 41.8675 80.34 41.8375 78.95C41.8075 77.84 42.0675 76.64 42.8775 75.72C43.7475 74.58 44.1875 74.01 45.0575 72.87C46.1575 71.49 47.3575 70.85 48.7575 70.86C50.3375 70.87 51.8375 71.53 53.4375 72.57C58.4975 75.87 64.0675 77.77 70.7475 77.77C75.8475 77.77 80.5275 74.88 79.9775 71.2C77.7975 56.6 41.6075 65.01 42.1475 40.57C42.4375 27.71 55.2875 18.69 67.8975 19C77.6675 19.25 85.3675 22.0899 90.9775 25.7099C92.3775 26.6599 93.3475 28.54 93.3875 30.4C93.4075 31.52 93.1575 32.5299 92.5275 33.4599C91.8775 34.4599 91.5575 34.95 90.8975 35.95C89.7175 37.61 88.3275 38.44 86.5575 38.43C85.3475 38.43 84.0375 37.95 82.6375 37.29C78.4375 35.12 74.0775 33.9799 68.7875 33.9799C63.3175 33.9799 59.6375 37.5 60.0275 40.08C62.2075 54.55 97.3775 46.05 97.8675 70.15C98.1675 85.03 82.2875 92.67 69.5275 92.83L69.5475 92.82Z" fill="#191A1B"/><path d="M105.693 102.58C114.163 101.96 117.923 97.88 118.893 88.76C119.643 81.66 119.923 78.11 120.293 71C120.733 62.52 125.043 57.63 129.213 55.36C130.463 54.66 130.463 53.03 129.213 52.24C124.873 49.65 120.663 44.12 120.273 36.83C119.903 29.85 119.623 26.37 118.883 19.39C117.833 9.55999 114.643 6.39 106.173 5.77C80.828 4.19093 55.4089 4.19093 30.0634 5.77C21.5934 6.39 18.3934 9.55999 17.3534 19.39C16.6134 26.37 16.3334 29.85 15.9634 36.83C15.5734 44.12 11.3734 49.65 7.02344 52.24C5.77344 52.95 5.77344 54.65 7.02344 55.36C11.1934 57.55 15.5034 62.44 15.9434 71C16.3134 78.1 16.5934 81.65 17.3434 88.76C18.3034 97.88 22.0634 101.96 30.5434 102.58C55.7234 104.12 80.5434 104.12 105.723 102.58H105.693Z" fill="#D4FF4C"/><path d="M47.4925 69.3401C48.4225 68.1301 49.4925 67.6001 50.7025 67.6001C52.0425 67.6001 53.3725 68.1401 54.7125 69.0801C58.9825 71.9001 63.7925 73.5101 69.5425 73.5101C73.9525 73.5101 77.4225 71.6301 77.4225 67.8801C77.4225 58.0901 44.9625 63.4501 44.9625 41.4501C44.9625 29.6401 54.5825 23.0701 67.0025 23.0701C75.8225 23.0701 82.2325 25.6201 87.0425 28.7001C88.2425 29.5001 89.0425 31.1101 89.0425 32.7201C89.0425 33.6601 88.7725 34.6001 88.2425 35.4001L86.7725 37.5501C85.7025 39.0301 84.5025 39.7001 83.0325 39.7001C81.9625 39.7001 80.8925 39.3001 79.6925 38.7601C76.0825 36.8801 72.3425 35.9401 67.8025 35.9401C63.2625 35.9401 60.3225 38.4901 60.3225 41.1701C60.3225 51.2301 92.7825 45.7301 92.7825 67.0601C92.7825 79.0001 83.1625 86.3801 68.4725 86.3801C59.1225 86.3801 52.3125 83.5601 46.0325 78.0601C44.9625 77.1201 44.5625 75.9101 44.5625 74.7101C44.5625 73.7701 44.8325 72.7001 45.5025 71.8901L47.5025 69.3401H47.4925Z" fill="black"/></g><defs><clipPath id="clip0_2732_146"><rect width="139.56" height="112.01" fill="white"/></clipPath></defs></svg>