<svg width="62" height="62" viewBox="0 0 62 62" fill="none" xmlns="http://www.w3.org/2000/svg"><g clip-path="url(#clip0_2464_121)"><path d="M49.8914 16.3122C45.477 11.9202 38.1678 11.8482 33.6809 16.1682L31.0757 18.7602L35.1283 22.6482L31.0757 26.5362L27.023 22.6482L19.0625 30.4242L23.1151 34.3122L19.0625 38.2002L29.773 48.4962C30.4967 49.2162 31.6546 49.2162 32.3783 48.4962L49.4572 32.0082C53.9441 27.6882 54.2336 20.7042 49.8914 16.3122Z" fill="url(#paint0_linear_2464_121)"/><path d="M16.3088 20.0559C14.1377 22.1439 14.1377 25.6719 16.3088 27.7599L18.9141 30.2799L14.8614 34.1679L12.2562 31.6479C7.84169 27.3999 7.84169 20.4879 12.2562 16.1679C16.6706 11.9199 23.8351 11.9199 28.322 16.1679L30.9996 18.7599L26.947 22.6479L24.3417 20.1279C22.0983 17.9679 18.5522 17.9679 16.3088 20.0559Z" fill="url(#paint1_linear_2464_121)"/></g><defs><linearGradient id="paint0_linear_2464_121" x1="17.24" y1="30.7984" x2="52.9775" y2="31.1783" gradientUnits="userSpaceOnUse"><stop stop-color="#FF0066"/><stop offset="1" stop-color="#FF54F0"/></linearGradient><linearGradient id="paint1_linear_2464_121" x1="17.3128" y1="23.6016" x2="53.0503" y2="23.9816" gradientUnits="userSpaceOnUse"><stop stop-color="#FF0066"/><stop offset="1" stop-color="#FF54F0"/></linearGradient><clipPath id="clip0_2464_121"><rect width="44" height="36" fill="white" transform="translate(9 13)"/></clipPath></defs></svg>