<svg xmlns="http://www.w3.org/2000/svg" width="62" height="62" fill="none"><path d="M50.105 33.053c.842 1.474 1.316 3.316 1.316 5.474v.105c0 2.211-.421 4.211-1.316 6s-2.158 3.263-3.737 4.526c-1.632 1.211-3.579 2.158-5.895 2.842s-4.895 1-7.737 1c-4.316 0-8.368-.579-12.105-1.789s-6.947-3-9.632-5.368l7.579-9c2.316 1.789 4.737 3.053 7.263 3.789a25.25 25.25 0 0 0 7.579 1.158c1.316 0 2.21-.158 2.789-.474s.842-.79.842-1.316v-.105c0-.632-.421-1.105-1.263-1.526s-2.368-.842-4.632-1.263c-2.368-.474-4.632-1.053-6.789-1.684s-4.053-1.474-5.684-2.474-2.947-2.263-3.895-3.79c-1.053-1.632-1.526-3.526-1.526-5.737v-.105c0-2 .368-3.895 1.158-5.632s1.947-3.263 3.474-4.526c1.526-1.316 3.421-2.316 5.632-3.053S28.316 9 31.263 9c4.105 0 7.737.474 10.789 1.474 3.105.947 5.842 2.421 8.316 4.368l-6.895 9.526c-2-1.474-4.158-2.526-6.368-3.21-2.263-.684-4.368-1-6.316-1-1.053 0-1.842.158-2.316.474-.526.316-.737.737-.737 1.263V22c0 .579.369 1.053 1.158 1.474s2.263.842 4.474 1.263c2.684.474 5.158 1.053 7.368 1.737s4.105 1.579 5.737 2.632c1.526 1.158 2.789 2.421 3.632 3.947z" fill="#fc4c02"/></svg>