<svg xmlns:xlink="http://www.w3.org/1999/xlink" class="ProductIcon ProductIcon--Connect " width="400" height="400" viewBox="0 0 40 40" fill="none" xmlns="http://www.w3.org/2000/svg"><title>Connect logo</title><path d="M12.47.01a13.01 13.01 0 0 0 .5 25.99h10.55c1.37 0 2.48-1.1 2.48-2.48V13.01a12.99 12.99 0 0 0-13.53-13z" fill="url(&quot;#product-icon-connect-SiteMobileMenu-a&quot;)"></path><path d="M27.53 39.99a13.01 13.01 0 0 0-.5-25.99H16.48A2.48 2.48 0 0 0 14 16.48v10.51a12.99 12.99 0 0 0 13.53 13z" fill="#0073E6"></path><path d="M26 14v9.52A2.48 2.48 0 0 1 23.52 26H14v-9.52A2.48 2.48 0 0 1 16.32 14l.16-.01H26z" fill="url(&quot;#product-icon-connect-SiteMobileMenu-b&quot;)"></path><defs><linearGradient id="product-icon-connect-SiteMobileMenu-a" x1="13" y1="1.71" x2="13" y2="15.25" gradientUnits="userSpaceOnUse"><stop stop-color="#11EFE3"></stop><stop offset=".33" stop-color="#15E8E2"></stop><stop offset=".74" stop-color="#1FD3E0"></stop><stop offset="1" stop-color="#21CFE0"></stop></linearGradient><linearGradient id="product-icon-connect-SiteMobileMenu-b" x1="20" y1="15.72" x2="20" y2="27.24" gradientUnits="userSpaceOnUse"><stop stop-color="#00299C"></stop><stop offset="1" stop-color="#0073E6"></stop></linearGradient><linearGradient id="product-icon-connect-SiteMobileMenu-a" x1="13" y1="1.71" x2="13" y2="15.25" gradientUnits="userSpaceOnUse"><stop stop-color="#11EFE3"></stop><stop offset=".33" stop-color="#15E8E2"></stop><stop offset=".74" stop-color="#1FD3E0"></stop><stop offset="1" stop-color="#21CFE0"></stop></linearGradient><linearGradient id="product-icon-connect-SiteMobileMenu-b" x1="20" y1="15.72" x2="20" y2="27.24" gradientUnits="userSpaceOnUse"><stop stop-color="#00299C"></stop><stop offset="1" stop-color="#0073E6"></stop></linearGradient></defs></svg>