<svg xmlns="http://www.w3.org/2000/svg" width="62" height="62" fill="none"><g clip-path="url(#A)"><path fill-rule="evenodd" d="M28.1 22.248c0-1.865 1.53-2.583 4.065-2.583 3.635 0 8.226 1.1 11.861 3.061V11.487c-3.97-1.578-7.891-2.2-11.861-2.2C22.457 9.287 16 14.357 16 22.822c0 13.2 18.174 11.096 18.174 16.787 0 2.2-1.913 2.917-4.591 2.917-3.97 0-9.039-1.626-13.056-3.826v11.383c4.448 1.913 8.944 2.726 13.057 2.726 9.948 0 16.787-4.926 16.787-13.487C46.322 25.07 28.1 27.605 28.1 22.248z" fill="#635bff"/></g><defs><clipPath id="A"><path fill="#fff" transform="translate(16 9)" d="M0 0h30.609v44H0z"/></clipPath></defs></svg>