<svg xmlns="http://www.w3.org/2000/svg" width="62" height="62" fill="none"><path d="M44.864 21.271c.961-.053 1.741.732 1.741 1.694v17.708c0 .964-.787 1.729-1.736 1.885-2.18.36-4.193 1.393-5.757 2.955s-2.599 3.574-2.962 5.754c-.157.948-.923 1.734-1.884 1.734H18.315c-1.925 0-3.507-1.566-3.296-3.48a31.78 31.78 0 0 1 29.845-28.249z" fill="#96f"/><path d="M44.864 40.731c.961.052 1.741-.733 1.741-1.694V21.328c0-.964-.787-1.729-1.736-1.885-2.181-.36-4.194-1.393-5.757-2.954s-2.599-3.574-2.961-5.754C35.994 9.785 35.228 9 34.267 9H18.311c-1.924 0-3.503 1.564-3.292 3.476a31.78 31.78 0 0 0 29.844 28.256l.001-.001z" fill="url(#A)"/><path fill-rule="evenodd" d="M46.341 41.596a1.86 1.86 0 0 0-1.477-.866A31.78 31.78 0 0 1 23.675 31a31.78 31.78 0 0 1 21.19-9.73 1.86 1.86 0 0 0 1.476-.867 1.75 1.75 0 0 1 .264.924v19.345a1.75 1.75 0 0 1-.264.924z" fill="url(#B)"/><defs><linearGradient id="A" x1="42.755" y1="13.4" x2="15.806" y2="13.4" gradientUnits="userSpaceOnUse"><stop stop-color="#21cfe0"/><stop offset="1" stop-color="#11efe3"/></linearGradient><linearGradient id="B" x1="24.073" y1="31.412" x2="48.273" y2="31.412" gradientUnits="userSpaceOnUse"><stop stop-color="#0048e5"/><stop offset="1" stop-color="#9b66ff"/></linearGradient></defs></svg>