<svg width="62" height="62" viewBox="0 0 62 62" fill="none" xmlns="http://www.w3.org/2000/svg"><g clip-path="url(#clip0_3128_139)"><path d="M36.5 9H25.5C16.3873 9 9 16.3873 9 25.5V36.5C9 45.6127 16.3873 53 25.5 53H36.5C45.6127 53 53 45.6127 53 36.5V25.5C53 16.3873 45.6127 9 36.5 9Z" fill="#8345DD"/><path d="M30.9991 16.7188C37.3217 16.7188 42.6824 20.828 44.5612 26.521C44.6189 26.696 44.4869 26.8742 44.3025 26.8742H38.2961C38.2 26.8742 38.1112 26.8237 38.0598 26.7425C36.5975 24.4336 33.983 22.8941 30.9991 22.8941C26.4165 22.8944 22.701 26.523 22.7008 30.9992C22.7008 35.4754 26.4164 39.1039 30.9991 39.1041C33.9832 39.1041 36.5976 37.5648 38.0598 35.2558C38.1112 35.1745 38.2 35.1242 38.2961 35.1242H44.3025C44.4869 35.1242 44.6189 35.3023 44.5612 35.4773C42.6825 41.1704 37.3217 45.2795 30.9991 45.2795C23.1123 45.2794 16.7188 38.8861 16.7188 30.9992C16.7189 23.1123 23.1124 16.7189 30.9991 16.7188Z" fill="white"/><path d="M30.7851 35.125C30.7063 34.6596 30.4987 34.1582 30.1621 33.621C29.8255 33.0768 29.3457 32.5719 28.7226 32.1065C28.1067 31.6409 27.4909 31.3438 26.875 31.2148V30.7636C27.4837 30.6205 28.0674 30.3554 28.6259 29.9688C29.1917 29.5748 29.6643 29.1022 30.044 28.5507C30.4306 27.985 30.6777 27.4264 30.7851 26.875H31.2364C31.3007 27.233 31.4297 27.6018 31.623 27.9815C31.8163 28.3538 32.0634 28.7119 32.3643 29.0556C32.6721 29.3922 33.0159 29.6966 33.3955 29.9688C33.9612 30.3698 34.5377 30.6348 35.125 30.7636V31.2148C34.7311 31.2936 34.323 31.4547 33.9004 31.6982C33.485 31.9417 33.0983 32.2317 32.7402 32.5683C32.3822 32.8978 32.0886 33.2451 31.8594 33.6103C31.5228 34.1475 31.3151 34.6523 31.2364 35.125H30.7851Z" fill="white"/></g><defs><clipPath id="clip0_3128_139"><rect width="44" height="44" fill="white" transform="translate(9 9)"/></clipPath></defs></svg>