<svg xmlns="http://www.w3.org/2000/svg" width="62" height="62" fill="none"><path d="M47.855 33.486c-.409 0-.813.068-1.222.135-1.558-6.1-6.505-10.707-12.673-11.793-.269-.067-.543-.067-.813-.135.067-1.491.135-3.255 2.371-4.813L35.11 16s-4.336 1.355-4.813 5.082c-.201-1.014-2.236-2.303-3.255-2.509l-.476.813c.88.543 1.49 1.49 1.625 2.509-6.235 1.086-11.183 5.693-12.74 11.793-2.778-.678-5.625 1.014-6.303 3.794s1.014 5.625 3.794 6.303c1.086.269 2.168.201 3.187-.201.476 1.086 1.014 2.168 1.692 3.116l4.336-2.913-.067-.067c-1.222-1.692-1.899-3.726-1.967-5.759-.135-2.371.476-4.745 1.967-6.1 3.116-2.644 6.505-1.423 8.673 1.086h.543c2.101-2.577 5.49-3.726 8.673-1.086 1.49 1.355 2.101 3.726 1.967 6.101-.068 2.101-.745 4.067-1.967 5.759l-.068.067 4.336 2.913c.678-.947 1.221-2.033 1.692-3.116 2.644 1.014 5.693-.269 6.712-2.913s-.269-5.693-2.913-6.712a3.97 3.97 0 0 0-1.899-.476l.014.005h.002zm-33.755 6.779c-.813-.068-1.491-.745-1.423-1.626.068-.813.678-1.423 1.423-1.49.336 0 .61.068.88.269 0 .813.068 1.626.135 2.442-.269.269-.61.409-1.014.409v-.005l-.001.001zm33.822 0c-.409 0-.745-.135-1.014-.409.068-.813.135-1.626.135-2.442.678-.476 1.626-.269 2.101.409.201.269.269.543.269.88.067.88-.678 1.558-1.491 1.558v.005-.001z" fill="#008323"/></svg>