<svg xmlns="http://www.w3.org/2000/svg" width="62" height="62" viewBox="0 0 62 62" fill="none"><g transform="scale(0.33513514)"><path d="M187 -3H-4V188H187V-3Z" fill="#F36A34"/><path d="M103.609 158.555C103.609 175.006 88.1034 186.029 68.1613 186.029C48.5203 186.029 33.3062 175.166 30.2059 157.595H52.5049C53.8363 163.824 59.5945 167.338 68.0108 167.338C76.2812 167.338 82.6321 163.824 82.6321 157.435C82.6321 151.202 77.0197 146.733 65.2069 146.733C58.7101 146.733 50.7314 148.012 43.9382 149.927V135.71C56.3438 134.111 65.6491 130.437 72.146 125.487C69.1916 126.287 65.9408 126.767 62.3984 126.767C44.3804 126.767 32.1206 116.065 32.1206 99.2932C32.1206 81.5622 45.8576 69.4201 66.5336 69.4201C77.1656 69.4201 85.8829 72.6144 91.7917 78.2079C93.1183 73.4141 92.5303 67.3454 91.3495 61.9118H106.267C107.89 71.1748 104.79 81.8821 98.7354 88.2707C100.062 91.625 100.801 95.2991 100.801 99.2932C100.801 112.39 92.9725 125.172 78.7933 133.796C93.8616 136.19 103.609 145.298 103.609 158.555ZM66.5383 111.111C74.6628 111.111 79.9788 106.477 79.9788 99.6084C79.9788 92.7399 74.6628 88.1061 66.5383 88.1061C58.4137 88.1061 52.9519 92.7399 52.9519 99.6084C52.9519 106.482 58.4184 111.111 66.5383 111.111Z" fill="white"/><path d="M107.867 111.751C107.867 86.3513 123.373 69.42 146.707 69.42C170.04 69.42 185.551 86.3513 185.551 111.751C185.551 137.15 170.045 154.081 146.707 154.081C123.373 154.081 107.867 137.15 107.867 111.751ZM164.724 111.751C164.724 97.3738 157.489 88.1108 146.707 88.1108C135.924 88.1108 128.689 97.3738 128.689 111.751C128.689 125.967 135.924 135.39 146.707 135.39C157.489 135.395 164.724 125.967 164.724 111.751Z" fill="white"/></g></svg>
