<svg xmlns="http://www.w3.org/2000/svg" width="62" height="62" fill="none"><g clip-path="url(#A)"><path d="M29.796 38.335h2.408v-6.567h6.056v-2.335h-6.056v-6.567h-2.408v6.567h-5.983v2.335h5.983v6.567z" fill="#e8762d"/><path d="M18.632 47.82h2.043v-5.837h5.4v-1.824h-5.4v-5.91h-2.043v5.91h-5.4v1.824h5.4v5.837z" fill="#c72037"/><path d="M41.325 26.734h2.043v-5.837h5.473v-1.751h-5.473v-5.91h-2.043v5.91h-5.4v1.751h5.4v5.837z" fill="#5b879b"/><path d="M30.161 52.417h1.751v-4.159h3.721v-1.532h-3.721v-4.159h-1.751v4.159h-3.648v1.532h3.648v4.159z" fill="#5c6692"/><path d="M18.705 26.734h1.897v-5.91h5.473v-1.678h-5.473v-5.91h-1.897v5.91h-5.473v1.678h5.473v5.91z" fill="#eb9129"/><path d="M47.527 35.489h1.751v-4.086H53v-1.605h-3.721v-4.086h-1.751v4.086h-3.648v1.605h3.648v4.086z" fill="#5c6692"/><path fill-rule="evenodd" d="M41.325 47.82h2.043v-5.837h5.473v-1.824h-5.473v-5.91h-2.043v5.91h-5.4v1.824h5.4v5.837z" fill="#1f457e"/><path d="M35.342 14.256v-1.24h-3.648V9.002H30.38v4.013h-3.648v1.24h3.648v4.013h1.313v-4.013h3.648zM12.648 35.198h1.313v-4.013h3.648v-1.241h-3.648v-3.94h-1.313v3.94H9v1.313l3.648-.073v4.013z" fill="#7199a6"/></g><defs><clipPath id="A"><path fill="#fff" transform="translate(9 9)" d="M0 0h44v43.419H0z"/></clipPath></defs></svg>