<svg xmlns="http://www.w3.org/2000/svg" width="62" height="62" fill="none" xmlns:v="https://vecta.io/nano"><rect width="62" height="62" rx="31" fill="#fff"/><g fill="#1f1e1e"><path d="M14.501 36.448c3.038 0 5.501-2.457 5.501-5.488s-2.463-5.488-5.501-5.488S9 27.93 9 30.96s2.463 5.488 5.501 5.488z"/><use href="#B"/><path opacity=".2" d="M14.501 52.921c3.038 0 5.501-2.457 5.501-5.488s-2.463-5.488-5.501-5.488S9 44.402 9 47.433s2.463 5.488 5.501 5.488z"/><use href="#B" x="16.49" y="16.473" opacity=".2"/><use href="#B" y="16.473"/><use href="#B" x="16.49"/><path opacity=".2" d="M14.501 19.975c3.038 0 5.501-2.457 5.501-5.488S17.539 9 14.501 9 9 11.457 9 14.488s2.463 5.488 5.501 5.488zm16.508 0c3.038 0 5.501-2.457 5.501-5.488S34.047 9 31.009 9s-5.501 2.457-5.501 5.488 2.463 5.488 5.501 5.488zm16.49 0c3.038 0 5.501-2.457 5.501-5.488S50.537 9 47.499 9s-5.501 2.457-5.501 5.488 2.463 5.488 5.501 5.488z"/></g><defs ><path id="B" d="M31.009 36.448c3.038 0 5.501-2.457 5.501-5.488s-2.463-5.488-5.501-5.488-5.501 2.457-5.501 5.488 2.463 5.488 5.501 5.488z"/></defs></svg>