<svg width="62" height="62" viewBox="0 0 62 62" fill="none" xmlns="http://www.w3.org/2000/svg"><path d="M48.3331 13.6539C37.7155 7.52362 25.3279 7.37744 14.5228 13.6444C8.42112 24.7386 8.56096 37.46 14.5323 48.3604C25.331 54.621 37.7124 54.4748 48.3204 48.3509C54.2854 37.4568 54.4253 24.7418 48.3299 13.6539H48.3331Z" fill="#F86100"/><path d="M25.9836 26.5249C26.616 26.1689 27.2007 25.7812 27.7664 25.4062C29.0058 24.5863 30.08 23.9189 31.2812 23.4772V16.5938H25.8438V26.6011C25.8882 26.5757 25.9391 26.5503 25.9836 26.5249Z" fill="white"/><path d="M37.6664 39.0271C36.9895 39.6341 36.0965 40.0027 35.1209 40.0027C33.0107 40.0027 31.2978 38.2866 31.2978 36.1796V30.5737H38.9376V25.1553H34.7745C32.3401 25.1553 31.0626 25.9243 29.0128 27.2877C28.409 27.6881 27.7925 28.0981 27.0965 28.4921C26.8455 28.6351 26.5912 28.7686 26.3433 28.8926C26.1622 28.9847 25.9779 29.0705 25.7999 29.15C25.6029 29.2389 25.4058 29.3216 25.2088 29.401C23.7883 29.9699 22.1961 30.3322 20.4609 30.4879V30.5769H25.8984V36.1828C25.8984 41.2707 30.0361 45.4084 35.124 45.4084C37.1961 45.4084 39.1092 44.722 40.6505 43.5652L37.6759 39.0302H37.6696L37.6664 39.0271Z" fill="white"/></svg>