<svg width="62" height="62" viewBox="0 0 62 62" fill="none" xmlns="http://www.w3.org/2000/svg"><rect width="62" height="62" rx="31" fill="white"/><path d="M36.4771 15.8934C36.4771 18.3277 35.5784 21.6769 34.2535 26.1774L33.3055 29.6341L36.3053 27.6747C42.0074 23.6705 45.451 22.1677 47.7305 22.1677C50.3232 22.1677 53 24.0204 53 27.7049C53 32.3919 47.9961 33.7234 38.3348 33.8876L34.7227 34.0573L37.5714 36.3251C44.3345 41.5381 46.6791 44.0918 46.6791 47.328C46.6791 49.8745 44.3122 52.5271 41.3777 52.5271C36.9686 52.5271 34.9756 47.9453 32.2891 40.1667L30.9196 36.7857L29.6313 40.1667C26.6203 49.0019 24.3029 52.446 20.4616 52.446C17.3648 52.446 15.1603 49.6308 15.1603 47.2465C15.1603 43.6856 18.3971 40.7252 24.349 36.3251L27.1977 34.0573L23.6667 33.8876C13.4059 33.8047 9 32.329 9 27.6236C9 23.9391 11.7597 22.0864 14.303 22.0864C17.3743 22.0864 20.7241 24.1582 25.6962 27.6747L28.696 29.6341L27.7481 26.1774C26.3118 21.433 25.6374 17.9524 25.6374 15.8934C25.6374 12.6702 27.4538 10 31.0008 10C34.6289 10 36.4771 12.6702 36.4771 15.8934Z" fill="black"/></svg>