<svg xmlns="http://www.w3.org/2000/svg" width="62" height="62" fill="none" xmlns:v="https://vecta.io/nano"><path d="M35.731 47.447a17.12 17.12 0 0 1-4.733.664c-6.999 0-13.016-4.204-15.666-10.222l-4.603 1.674c3.339 7.896 11.157 13.436 20.269 13.436a22.05 22.05 0 0 0 6.408-.948l-1.676-4.605z" fill="#76d25d"/><path d="M39.622 10.756l-1.676 4.603C43.935 18.023 48.11 24.023 48.11 31c0 7.017-4.224 13.045-10.267 15.686l1.676 4.603c7.919-3.328 13.48-11.16 13.48-20.289 0-9.089-5.513-16.89-13.376-20.244z" fill="#3199f0"/><path d="M16.198 29.878h4.878c.516-4.612 4.184-8.274 8.801-8.779V16.2c-7.303.544-13.133 6.374-13.678 13.679zm24.678 2.245a9.97 9.97 0 0 1-8.753 8.775v4.904a14.85 14.85 0 0 0 13.679-13.679h-4.925z" fill="#4f5e6d"/><path d="M21.075 32.122h-4.878-2.272L13.887 31a17.04 17.04 0 0 1 4.167-11.19l-3.462-3.464C11.114 20.237 9 25.372 9 31c0 2.246.338 4.414.962 6.453l6.74-2.453c1.649 5.907 6.862 10.327 13.174 10.799V40.9c-4.616-.504-8.283-4.164-8.801-8.778z" fill="#ff405d"/><path d="M32.122 16.199v4.904a9.97 9.97 0 0 1 8.753 8.775h4.925c-.47-6.29-4.861-11.486-10.734-13.156l2.448-6.74C35.455 9.345 33.268 9 30.999 9a21.92 21.92 0 0 0-14.829 5.749l3.462 3.462C22.655 15.523 26.636 13.89 31 13.89a16.89 16.89 0 0 1 1.122.037v2.272z" fill="#f2c049"/></svg>