<svg xmlns="http://www.w3.org/2000/svg" width="62" height="62" fill="none"><rect width="62" height="62" rx="31" fill="#fff"/><path d="M25.361 25.347c2.521 0 3.972-1.375 3.972-3.743 0-2.215-1.528-3.743-3.896-3.743h-5.729V13.66c0-3.056-2.215-4.66-4.354-4.66S11 10.604 11 13.66V42.84C11 49.868 13.826 53 20.09 53c3.361 0 5.347-.84 6.799-1.757 1.069-.611 1.528-1.91 1.528-2.903 0-1.91-1.222-3.972-3.056-3.972-.229 0-.535.076-.764.153-.076.076-.229.076-.306.153-.458.229-1.146.535-2.062.535-1.146 0-2.444-.382-2.444-3.514V25.347h5.576z" fill="#1d1c39"/><path d="M44 37.646c-4.201 0-7.639 3.438-7.639 7.639s3.438 7.639 7.639 7.639 7.639-3.437 7.639-7.639c0-4.278-3.437-7.639-7.639-7.639z" fill="#ff22b1"/></svg>