<svg xmlns="http://www.w3.org/2000/svg" width="62" height="62" fill="none"><path d="M18.997 52.064c-.74.499-1.245.936-1.648.936h-1.076c-.303-.062-.605-.187-.942-.343a9.26 9.26 0 0 1-1.648-.967c-.505-.374-.908-.749-1.211-1.123-.336-.374-.471-.655-.471-.78 0-.811.336-2.059.976-3.775s1.514-3.65 2.59-5.802l3.633-6.832 4.171-6.832 4.171-5.802c1.346-1.716 4.844-3.899 3.566-3.837l-7.501.593c-2.321.312-4.272.749-5.786 1.279-.841.312-1.48.25-1.884-.156-.437-.405-.706-.936-.807-1.591-.135-.655-.101-1.31.034-1.965s.37-1.029.673-1.216c1.043-.655 2.59-1.248 4.609-1.809s4.272-1.029 6.728-1.435l7.535-1.029 7.165-.53h5.517c1.48.062 2.388.25 2.691.562.336.406.538 1.061.572 1.934s-.067 1.778-.269 2.683-.471 1.685-.841 2.34-.807.967-1.312.905l-6.324-.561c-2.321-.125-9.352-1.497-7.199-.125.404.249.774.561 1.144.905s.673.718.875 1.092c.236.374.37.749.404 1.092s-.034.686-.303.967c-2.994 3.275-5.517 6.551-7.67 9.795s-3.869 6.145-5.113 8.735c-1.278 2.558-2.018 4.617-2.287 6.145s.067 2.184 1.009 1.934 1.245-.094.875.437c-.336.562-.942 1.217-1.816 1.996s-1.817 1.529-2.826 2.184z" fill="#f43f85"/></svg>