<svg width="62" height="62" viewBox="0 0 62 62" fill="none" xmlns="http://www.w3.org/2000/svg"><path d="M31 53C43.1502 53 53 43.1502 53 31C53 18.8498 43.1502 9 31 9C18.8498 9 9 18.8498 9 31C9 43.1502 18.8498 53 31 53Z" fill="#34AADF"/><path d="M18.156 30.8077C18.156 30.8077 29.156 26.2933 32.971 24.7036C34.4335 24.0678 39.393 22.0331 39.393 22.0331C39.393 22.0331 41.6821 21.143 41.4913 23.3048C41.4276 24.195 40.919 27.3105 40.4104 30.6805C39.6473 35.4493 38.8207 40.6631 38.8207 40.6631C38.8207 40.6631 38.6936 42.1256 37.6127 42.3799C36.5318 42.6342 34.7514 41.4898 34.4335 41.2354C34.1791 41.0447 29.6647 38.1834 28.0115 36.7845C27.5664 36.4031 27.0578 35.6401 28.0751 34.7499C30.3641 32.6516 33.0982 30.0447 34.7514 28.3915C35.5144 27.6285 36.2774 25.8482 33.0982 28.01C28.5838 31.1256 24.1329 34.0505 24.1329 34.0505C24.1329 34.0505 23.1156 34.6863 21.2081 34.114C19.3005 33.5418 17.0751 32.7788 17.0751 32.7788C17.0751 32.7788 15.5491 31.825 18.156 30.8077Z" fill="white"/></svg>