<svg width="62" height="62" viewBox="0 0 62 62" fill="none" xmlns="http://www.w3.org/2000/svg"><path d="M34.4609 9L20.3922 23.0701L15.6955 18.3729L11 23.0689L15.6942 27.7636C18.289 30.3586 22.4955 30.3586 25.0902 27.7636L39.1576 13.6947L34.4609 9Z" fill="#F54D42"/><path d="M12.3359 39.7141L31.5541 44.8641L29.8349 51.2806L36.2491 52.9995L37.9673 46.5865C38.917 43.0415 36.8138 39.3982 33.2693 38.4484L14.0529 33.2988L12.3359 39.7141Z" fill="#9664FE"/><path d="M50.0173 43.573L44.8678 24.3529L51.2837 22.6335L49.5651 16.2188L43.1526 17.9371C39.6081 18.887 37.5049 22.5303 38.4546 26.0752L43.6036 45.2937L50.0173 43.573Z" fill="#FFCC24"/></svg>