<svg width="62" height="62" viewBox="0 0 62 62" fill="none" xmlns="http://www.w3.org/2000/svg"><g clip-path="url(#clip0_2935_70)"><path d="M42.5161 19.4774C43.6884 20.6496 45.5939 20.6496 46.7661 19.4774C47.3328 18.9107 47.6439 18.1552 47.6439 17.3552C47.6439 16.5552 47.3273 15.7996 46.7661 15.2274C46.1828 14.6441 45.4106 14.3496 44.6384 14.3496C43.8661 14.3496 43.0995 14.6441 42.5106 15.2274C41.9384 15.7996 41.6328 16.5496 41.6328 17.3552C41.6328 18.1607 41.9495 18.9107 42.5106 19.4774H42.5161Z" fill="#D64000"/><path d="M19.4628 42.5223C18.8906 41.9556 18.1406 41.6445 17.3351 41.6445C16.5295 41.6445 15.7795 41.9612 15.2073 42.5223C14.0351 43.6945 14.0351 45.6001 15.2073 46.7723C15.7795 47.339 16.5295 47.6501 17.3351 47.6501C18.1406 47.6501 18.8906 47.3334 19.4628 46.7723C20.6351 45.6001 20.6351 43.6945 19.4628 42.5223Z" fill="#D64000"/><path d="M37.3663 15.611C38.7108 16.1721 40.2552 15.5276 40.8163 14.1832C41.3774 12.8388 40.733 11.2943 39.3885 10.7332C39.0608 10.5999 38.7219 10.5332 38.3774 10.5332C38.033 10.5332 37.6941 10.5999 37.3663 10.7332C36.7163 11.0054 36.2052 11.511 35.9385 12.161C35.6663 12.811 35.6663 13.5276 35.9385 14.1832C36.2108 14.8388 36.7163 15.3443 37.3663 15.611Z" fill="#D64000"/><path d="M24.6137 46.4002C24.2859 46.2669 23.947 46.2002 23.6026 46.2002C23.2581 46.2002 22.9193 46.2669 22.5915 46.4002C21.9415 46.6724 21.4304 47.178 21.1637 47.828C20.6026 49.1724 21.247 50.7169 22.5915 51.278C23.2415 51.5502 23.9581 51.5502 24.6137 51.278C25.2637 51.0058 25.7748 50.5002 26.0415 49.8502C26.6026 48.5058 25.9581 46.9613 24.6137 46.4002Z" fill="#D64000"/><path d="M30.9887 13.9833C32.2498 13.9833 33.2665 12.9555 33.2665 11.7055C33.2665 10.4555 32.2387 9.42773 30.9887 9.42773C29.7387 9.42773 28.7109 10.4555 28.7109 11.7055C28.7109 12.9555 29.7387 13.9833 30.9887 13.9833Z" fill="#D64000"/><path d="M30.9887 48.0273C29.7276 48.0273 28.7109 49.0551 28.7109 50.3051C28.7109 51.5551 29.7387 52.5829 30.9887 52.5829C32.2387 52.5829 33.2665 51.5551 33.2665 50.3051C33.2665 49.0551 32.2387 48.0273 30.9887 48.0273Z" fill="#D64000"/><path d="M22.875 14.9444C23.3472 15.1389 23.8694 15.1389 24.3472 14.9444C24.8194 14.75 25.1861 14.3778 25.3861 13.9056C25.5805 13.4333 25.5805 12.9111 25.3861 12.4333C25.0805 11.6944 24.3639 11.25 23.6139 11.25C22.8639 11.25 23.1194 11.3 22.8805 11.3944C21.9028 11.8 21.4361 12.9222 21.8416 13.9C22.0361 14.3722 22.4083 14.7389 22.8805 14.9389L22.875 14.9444Z" fill="#D64000"/><path d="M39.1068 47.0663C38.8679 46.9663 38.6234 46.9219 38.3734 46.9219C38.1234 46.9219 37.8734 46.9719 37.6401 47.0663C37.1679 47.2608 36.8012 47.633 36.6068 48.0997C36.4123 48.5719 36.4123 49.0941 36.6068 49.5719C36.8012 50.0441 37.1734 50.4108 37.6401 50.6052C38.1123 50.7997 38.6345 50.7997 39.1123 50.6052C39.5845 50.4108 39.9512 50.0385 40.1457 49.5719C40.3401 49.0997 40.3401 48.5774 40.1457 48.0997C39.9512 47.6274 39.579 47.2608 39.1123 47.0663H39.1068Z" fill="#D64000"/><path d="M18.4432 18.4554C19.0488 17.8498 19.0488 16.8609 18.4432 16.2554C18.1377 15.9498 17.7432 15.7998 17.3432 15.7998C16.9432 15.7998 16.5432 15.9498 16.2432 16.2554C15.6377 16.8609 15.6377 17.8498 16.2432 18.4554C16.8488 19.0609 17.8377 19.0609 18.4432 18.4554Z" fill="#D64000"/><path d="M44.6337 43.0947C44.2392 43.0947 43.8337 43.2447 43.5337 43.5503C43.2392 43.8447 43.0781 44.2336 43.0781 44.6503C43.0781 45.0669 43.2392 45.4614 43.5337 45.7503C44.1392 46.3558 45.1281 46.3558 45.7337 45.7503C46.0281 45.4558 46.1892 45.0669 46.1892 44.6503C46.1892 44.2336 46.0281 43.8392 45.7337 43.5503C45.4281 43.2447 45.0337 43.0947 44.6337 43.0947Z" fill="#D64000"/><path d="M12.4218 25.3891C12.8941 25.5835 13.4163 25.5835 13.8941 25.3891C14.3663 25.1946 14.733 24.8224 14.933 24.3502C15.3385 23.3724 14.8718 22.2502 13.8941 21.8446C13.6552 21.7446 13.4107 21.7002 13.1607 21.7002C12.9107 21.7002 12.6607 21.7502 12.4274 21.8446C11.9552 22.0391 11.5885 22.4113 11.3885 22.8835C10.983 23.8613 11.4496 24.9835 12.4274 25.3891H12.4218Z" fill="#D64000"/><path d="M49.5576 36.6171C49.3187 36.5171 49.0687 36.4727 48.8243 36.4727C48.0687 36.4727 47.3521 36.9171 47.0521 37.656C46.8576 38.1282 46.8576 38.6504 47.0521 39.1282C47.2465 39.6004 47.6187 39.9671 48.0854 40.1615C49.0632 40.5671 50.1854 40.1004 50.591 39.1282C50.7854 38.656 50.7854 38.1338 50.591 37.656C50.3965 37.1838 50.0243 36.8171 49.5576 36.6171Z" fill="#D64000"/><path d="M11.6918 28.7227C10.4307 28.7227 9.41406 29.7504 9.41406 31.0004C9.41406 32.2504 10.4418 33.2782 11.6918 33.2782C12.9418 33.2782 13.9696 32.2504 13.9696 31.0004C13.9696 29.7504 12.9418 28.7227 11.6918 28.7227Z" fill="#D64000"/><path d="M50.2934 28.7227C49.0323 28.7227 48.0156 29.7504 48.0156 31.0004C48.0156 32.2504 49.0434 33.2782 50.2934 33.2782C51.5434 33.2782 52.5712 32.2504 52.5712 31.0004C52.5712 29.7504 51.5434 28.7227 50.2934 28.7227Z" fill="#D64000"/><path d="M15.5938 37.3829C15.3216 36.7329 14.8161 36.2218 14.1661 35.9551C13.5161 35.6829 12.7994 35.6829 12.1438 35.9551C10.7994 36.5163 10.1605 38.0607 10.7161 39.4051C10.9883 40.0551 11.4938 40.5663 12.1438 40.8329C12.7938 41.1051 13.5105 41.1051 14.1661 40.8329C14.8161 40.5607 15.3272 40.0551 15.5994 39.4051C15.8716 38.7551 15.8716 38.0385 15.5994 37.3829H15.5938Z" fill="#D64000"/><path d="M46.3816 24.6282C46.6538 25.2782 47.1594 25.7893 47.8094 26.056C48.4594 26.3282 49.176 26.3282 49.8316 26.056C51.176 25.4949 51.8149 23.9504 51.2594 22.606C50.8372 21.5893 49.8538 20.9727 48.8205 20.9727C47.7872 20.9727 48.1427 21.0393 47.8094 21.1727C47.1594 21.4449 46.6483 21.9504 46.376 22.6004C46.1038 23.2504 46.1038 23.9727 46.376 24.6227L46.3816 24.6282Z" fill="#D64000"/><path d="M24.8092 24.8225C25.6092 24.0281 25.6092 22.7336 24.8092 21.9392C24.4148 21.5447 23.887 21.3447 23.3648 21.3447C22.8425 21.3447 22.3259 21.5447 21.9203 21.9392C21.1203 22.7336 21.1203 24.0281 21.9203 24.8225C22.7203 25.6225 24.0092 25.6225 24.8092 24.8225Z" fill="#D64000"/><path d="M38.6069 36.5837C38.0847 36.5837 37.5681 36.7837 37.1625 37.1781C36.3625 37.9726 36.3625 39.267 37.1625 40.0615C37.9625 40.8615 39.2514 40.8615 40.0458 40.0615C40.4292 39.6781 40.6403 39.167 40.6403 38.617C40.6403 38.067 40.4292 37.5615 40.0458 37.1726C39.6514 36.7781 39.1236 36.5781 38.6014 36.5781L38.6069 36.5837Z" fill="#D64000"/><path d="M20.1312 29.8719C21.0423 30.1164 21.9868 29.5719 22.2368 28.6553C22.3534 28.2108 22.2979 27.7497 22.0645 27.3553C21.8368 26.9608 21.4645 26.6719 21.0256 26.5553C20.8812 26.5164 20.7256 26.4941 20.5812 26.4941C20.2812 26.4941 19.9923 26.5719 19.7256 26.7275C19.3312 26.9553 19.0423 27.3219 18.9256 27.7664C18.6812 28.683 19.2256 29.6219 20.1423 29.8719H20.1312Z" fill="#D64000"/><path d="M41.8387 32.1334C41.6943 32.0945 41.5387 32.0723 41.3943 32.0723C41.0943 32.0723 40.8054 32.15 40.5387 32.3056C40.1443 32.5334 39.8554 32.9056 39.7387 33.3445C39.6221 33.7889 39.6776 34.25 39.911 34.6445C40.1387 35.0389 40.511 35.3278 40.9499 35.4445C41.3943 35.5612 41.8554 35.5056 42.2499 35.2723C42.6443 35.0389 42.9332 34.6778 43.0499 34.2334C43.2943 33.3167 42.7499 32.3723 41.8332 32.1278L41.8387 32.1334Z" fill="#D64000"/><path d="M20.2165 32.4444C19.4721 32.6444 19.0276 33.4111 19.2276 34.1555C19.3276 34.5111 19.5554 34.8166 19.8776 35C20.2054 35.1833 20.5776 35.2333 20.9332 35.1389C21.2887 35.0389 21.5943 34.8111 21.7776 34.4889C21.9609 34.1666 22.0109 33.7889 21.9165 33.4333C21.7165 32.6889 20.9498 32.2444 20.2054 32.4444H20.2165Z" fill="#D64000"/><path d="M40.7035 29.4226C41.0313 29.6059 41.4035 29.6559 41.759 29.5615C42.5035 29.3615 42.9479 28.5948 42.7479 27.8504C42.5479 27.1059 41.7813 26.667 41.0368 26.8615C40.2924 27.0615 39.8479 27.8281 40.0479 28.5726C40.1479 28.9281 40.3757 29.2337 40.6979 29.417L40.7035 29.4226Z" fill="#D64000"/><path d="M24.126 39.3836C24.326 39.1836 24.4427 38.9113 24.4427 38.6224C24.4427 38.3336 24.326 38.0613 24.126 37.8613C23.7094 37.4447 23.026 37.4447 22.6094 37.8613C22.1927 38.278 22.1927 38.9613 22.6094 39.378C23.026 39.7947 23.7094 39.7947 24.126 39.378V39.3836Z" fill="#D64000"/><path d="M39.3701 22.6282C39.1701 22.4226 38.8979 22.3115 38.609 22.3115C38.3201 22.3115 38.0479 22.4282 37.8479 22.6282C37.6479 22.8282 37.5312 23.1004 37.5312 23.3893C37.5312 23.6782 37.6479 23.9504 37.8479 24.1504C38.2646 24.5671 38.9479 24.5671 39.3646 24.1504C39.5646 23.9504 39.6813 23.6782 39.6813 23.3893C39.6813 23.1004 39.5701 22.8282 39.3646 22.6282H39.3701Z" fill="#D64000"/><path d="M29.4026 40.7112C29.2193 40.3889 28.9137 40.1556 28.5582 40.0612C28.1971 39.9612 27.8193 40.0112 27.5026 40.2001C27.1804 40.3834 26.9471 40.6889 26.8526 41.0445C26.6526 41.7889 27.0971 42.5501 27.8415 42.7556C28.1971 42.8556 28.5804 42.8056 28.8971 42.6167C29.2193 42.4278 29.4526 42.1278 29.5471 41.7723C29.6471 41.4167 29.5971 41.0334 29.4082 40.7167L29.4026 40.7112Z" fill="#D64000"/><path d="M32.5666 21.2888C32.7499 21.611 33.0555 21.8443 33.411 21.9388C34.1555 22.1332 34.9166 21.6943 35.1221 20.9499C35.2221 20.5943 35.1721 20.211 34.9832 19.8943C34.7999 19.5721 34.4943 19.3388 34.1388 19.2443C34.0221 19.211 33.8943 19.1943 33.7777 19.1943C33.5332 19.1943 33.2943 19.261 33.0832 19.3832C32.761 19.5666 32.5277 19.8721 32.4332 20.2277C32.3332 20.5832 32.3832 20.9666 32.5721 21.2832L32.5666 21.2888Z" fill="#D64000"/><path d="M34.6339 39.9277C34.3672 39.7777 34.0728 39.6943 33.7783 39.6943C33.4839 39.6943 33.4783 39.7166 33.3339 39.7554C32.8895 39.8721 32.5228 40.1554 32.295 40.5554C32.0672 40.9499 32.0006 41.4166 32.1228 41.8554C32.2395 42.2943 32.5228 42.6721 32.9228 42.8999C33.3172 43.1277 33.7783 43.1943 34.2228 43.0721C35.1395 42.8277 35.6839 41.8832 35.4395 40.9666C35.3228 40.5221 35.0395 40.1554 34.6395 39.9277H34.6339Z" fill="#D64000"/><path d="M28.6406 22.2498C29.5572 22.0054 30.1017 21.061 29.8572 20.1443C29.6517 19.3776 28.9572 18.8721 28.1961 18.8721C27.435 18.8721 27.9017 18.8887 27.7517 18.9332C26.835 19.1776 26.2906 20.1221 26.535 21.0387C26.7795 21.9554 27.7239 22.4998 28.6406 22.2554V22.2498Z" fill="#D64000"/></g><defs><clipPath id="clip0_2935_70"><rect width="44" height="44" fill="white" transform="translate(9 9)"/></clipPath></defs></svg>