<svg xmlns="http://www.w3.org/2000/svg" width="62" height="62" fill="none"><rect width="62" height="62" rx="31" fill="#fff"/><path d="M43.275 17.432c-1.533-1.84-2.453-4.139-2.453-6.592h-1.993c.613 2.76 2.146 5.213 4.446 6.592z" fill="#fe2c55"/><path d="M27.178 26.324v-1.686c-.613-.153-1.227-.153-1.84-.153A13.35 13.35 0 0 0 12 37.822c0 4.446 2.3 8.585 5.672 10.885-2.3-2.453-3.526-5.519-3.526-9.045 0-7.206 5.826-13.185 13.031-13.338zm.306 19.471c3.22 0 5.979-2.606 6.132-5.826V10.84h5.366c-.153-.613-.153-1.226-.153-1.84h-7.206v29.129a6.09 6.09 0 0 1-6.132 5.826c-1.073 0-1.993-.307-2.76-.767.92 1.533 2.76 2.606 4.753 2.606zm21.31-25.144v-1.533c-1.993 0-3.833-.613-5.519-1.686 1.38 1.686 3.373 2.76 5.519 3.22z" fill="#25f4ee"/><path d="M25.338 31.69c-3.373 0-6.132 2.76-6.132 6.132 0 2.3 1.38 4.446 3.22 5.366-.767-1.073-1.226-2.3-1.226-3.526 0-3.373 2.759-6.132 6.132-6.132.613 0 1.227.153 1.84.307v-7.359c-.613-.153-1.226-.153-1.84-.153h-.307v5.672c-.46-.153-1.073-.307-1.686-.307zm23.457-11.039v5.672c-3.833 0-7.206-1.226-10.118-3.219v14.718A13.35 13.35 0 0 1 25.338 51.16a13.06 13.06 0 0 1-7.666-2.453C20.126 51.313 23.652 53 27.485 53a13.35 13.35 0 0 0 13.338-13.338V24.944c2.913 1.993 6.286 3.22 10.118 3.22v-7.206c-.767 0-1.533-.153-2.146-.307z" fill="#fe2c55"/><path d="M38.676 37.822V23.105c2.913 1.993 6.286 3.22 10.119 3.22v-5.672c-2.146-.46-4.139-1.686-5.519-3.219-2.3-1.533-3.833-3.833-4.446-6.592h-5.366v29.129a6.09 6.09 0 0 1-6.132 5.826c-1.993 0-3.833-1.073-4.906-2.606-1.993-1.073-3.219-3.066-3.219-5.366 0-3.373 2.76-6.132 6.132-6.132.613 0 1.226.153 1.84.307v-5.672c-7.206.153-13.031 6.132-13.031 13.338 0 3.526 1.38 6.746 3.526 9.045 2.146 1.533 4.753 2.453 7.666 2.453a13.35 13.35 0 0 0 13.338-13.338z" fill="#000"/></svg>