<svg xmlns="http://www.w3.org/2000/svg" width="62" height="62" fill="none"><path fill-rule="evenodd" d="M9 21.883C9 14.768 14.754 9 21.851 9h18.19c7.097 0 12.851 5.768 12.851 12.883v18.234C52.892 47.232 47.138 53 40.041 53h-7.326l.026-20.691 6.735 5.893 2.282-2.659-8.256-7.223h-5.004l-8.256 7.223h.002l2.282 2.659 6.732-5.891-.026 20.685 3.477.004H21.851C14.754 53 9 47.232 9 40.117V21.883zm28.246 3.755l1.618 1.471 3.446-3.864-1.619-1.471-3.446 3.864h.001zM29.9 17.328l2.178-.003.009 6.646-2.178.003-.009-6.646zm-6.778 9.782l-3.446-3.864 1.619-1.471 3.446 3.864-1.619 1.471z" fill="#fff"/></svg>