<svg width="62" height="62" viewBox="0 0 62 62" fill="none" xmlns="http://www.w3.org/2000/svg"><path d="M16.082 34.5922C15.8186 34.6687 15.5477 34.7041 15.2731 34.6986C14.9312 34.7191 14.595 34.6108 14.3278 34.3962C14.0756 34.1274 13.9505 33.7615 13.9878 33.3938V29.4816H16.889V27.1279H13.9878V24.0332L10.6757 24.9478V27.1279H9V29.4835H10.6738V33.9407C10.6551 34.5754 10.8139 35.2025 11.1315 35.7513C11.4285 36.2086 11.8657 36.5576 12.3794 36.7443C12.994 36.9645 13.6441 37.0709 14.2979 37.056C14.8098 37.056 15.3216 36.9906 15.8167 36.8619C16.2557 36.7573 16.6723 36.5725 17.044 36.3168L16.6928 34.273C16.5116 34.4148 16.3043 34.5231 16.082 34.5922Z" fill="#1D1DFF"/><path d="M22.6352 34.7387C22.3662 34.7667 22.0991 34.6659 21.9141 34.4662C21.746 34.1918 21.6713 33.8708 21.7012 33.5516V23.002H18.389V33.979C18.389 35.0691 18.6226 35.853 19.0896 36.3346C19.5566 36.8143 20.3094 37.0551 21.35 37.0551C21.7236 37.0532 22.0972 37.0084 22.4596 36.9188C22.7809 36.8498 23.0891 36.7322 23.375 36.5679L23.5879 34.5838C23.4067 34.6361 23.2498 34.6753 23.1209 34.7014C22.9621 34.7275 22.7977 34.7406 22.6352 34.7387Z" fill="#1D1DFF"/><path d="M25.4811 29.989C25.879 30.3175 26.3871 30.4836 26.9027 30.4556C27.422 30.4874 27.9339 30.3194 28.3337 29.989C28.6867 29.6567 28.8754 29.1883 28.8493 28.7048C28.8773 28.2158 28.6886 27.738 28.3337 27.4001C27.932 27.0697 27.422 26.9018 26.9027 26.9335C26.3871 26.9055 25.879 27.0716 25.4811 27.4001C25.1206 27.7342 24.9282 28.2121 24.9562 28.7048C24.93 29.1901 25.1224 29.6605 25.4811 29.989Z" fill="#1D1DFF"/><path d="M28.03 33.8437C27.6788 33.6123 27.2622 33.4965 26.8419 33.5133C26.5112 33.5114 26.1862 33.5843 25.8873 33.728C25.594 33.8661 25.3455 34.0807 25.1662 34.3514C24.9738 34.6612 24.8785 35.0196 24.8935 35.3836C24.8804 35.7009 24.9645 36.0126 25.1363 36.2795C25.2876 36.5035 25.4969 36.6845 25.7397 36.804C25.9601 36.916 26.203 36.9757 26.4515 36.9795C26.5897 36.9832 26.7261 36.9701 26.8606 36.9403C26.9521 36.9197 27.038 36.8805 27.1127 36.8227L27.2099 36.8805C27.081 37.1717 26.9073 37.4405 26.6943 37.6775C26.4552 37.9463 26.188 38.189 25.8948 38.398C25.5847 38.6201 25.2484 38.8049 24.8916 38.943L26.2347 39.936C26.7335 39.7139 27.1875 39.4003 27.5686 39.0102C27.9795 38.5977 28.3158 38.118 28.5624 37.5898C28.8127 37.0634 28.9416 36.4886 28.9416 35.9062C28.9472 35.4956 28.8706 35.0887 28.7174 34.7098C28.5792 34.3607 28.3401 34.0602 28.03 33.8437Z" fill="#1D1DFF"/><path d="M37.5553 28.7919C37.3741 28.4055 37.1275 28.049 36.8249 27.741C36.2551 27.1904 35.4837 26.8973 34.6916 26.9328C33.9368 26.9178 33.1933 27.1288 32.5582 27.5357C31.9212 27.9631 31.4206 28.5641 31.1179 29.2678C30.7499 30.1413 30.5743 31.0839 30.6022 32.0321C30.5781 32.9598 30.748 33.88 31.0993 34.7386C31.3868 35.4386 31.8745 36.0377 32.5021 36.4614C33.1318 36.8646 33.8678 37.0718 34.615 37.055C35.1959 37.0643 35.7676 36.9262 36.2814 36.6537C36.7707 36.3868 37.1854 36.0023 37.4901 35.5338C37.6039 35.3564 37.7029 35.1698 37.787 34.9775L37.9083 36.8571H40.8694V23H37.5572V28.7919H37.5553ZM37.3406 33.4152C37.2303 33.7699 37.0155 34.0853 36.7278 34.3205C36.4494 34.5258 36.1112 34.6322 35.7658 34.6229C35.2408 34.6453 34.7364 34.4082 34.4188 33.9901C34.0938 33.5683 33.9312 32.9038 33.9312 31.9948C33.9312 31.0877 34.0975 30.4213 34.4282 29.9995C34.7495 29.5814 35.2558 29.3462 35.7824 29.3667C36.1281 29.3574 36.4682 29.4638 36.7465 29.6691C37.0303 29.895 37.2397 30.1992 37.3499 30.5445C37.4955 30.9944 37.5647 31.4647 37.5553 31.9369C37.5666 32.4372 37.4936 32.9374 37.3406 33.4152Z" fill="#1D1DFF"/><path d="M49.5723 27.1289L47.5267 34.5428L45.5205 27.1289H42.0327L45.5391 36.8591H49.4937L53 27.1289H49.5723Z" fill="#1D1DFF"/></svg>