<svg width="62" height="62" viewBox="0 0 62 62" fill="none" xmlns="http://www.w3.org/2000/svg"><path d="M52.9944 39.3186C53.0286 36.4277 52.9056 33.5371 52.6258 30.6598C52.4191 28.7156 51.7715 26.2298 49.7218 25.7229C49.9864 25.7913 50.265 25.7817 50.5244 25.6951C52.9083 24.4175 52.7257 21.272 51.8817 18.998C50.7759 16.0157 48.1406 13.9048 45.5362 12.5022C36.1765 7.46112 23.6509 7.88468 14.577 13.6271C12.2173 15.12 9.49583 18.0259 10.6912 21.272C11.0158 22.076 11.4946 22.8075 12.1002 23.4246C12.3654 23.7127 12.9993 24.3828 12.9993 24.3863C11.7832 26.077 10.8945 27.5977 10.3226 29.653C8.6036 35.8259 8.88953 39.7942 9.36148 44.7589C9.65429 47.828 10.6464 52.3969 14.0982 52.9038C16.9127 53.3031 19.9545 52.3518 22.7724 52.015C25.8728 51.6401 29.0008 51.0568 32.1287 51.1401C36.5451 51.2547 40.927 52.331 45.3502 52.3726C47.6858 52.3969 51.5682 52.6226 52.2641 49.4736C52.9255 46.4775 52.9531 43.3528 52.9531 40.2941C52.991 39.9678 52.9944 39.6414 52.9944 39.3186ZM47.9442 44.502C46.8453 47.0399 43.7346 46.7552 41.5677 46.5677C38.3226 46.2865 35.1292 45.4845 31.8669 45.3838C28.9801 45.297 26.1243 45.856 23.3098 46.4879C21.205 46.9635 18.27 48.203 16.3684 46.5434C14.2601 44.7103 13.8812 41.5787 13.8536 38.9506C13.8954 36.5704 14.1258 34.1973 14.5426 31.8541C14.803 30.4073 15.2176 28.993 15.7793 27.6359C16.5372 25.6708 17.6499 24.4904 17.7084 24.5529C17.14 23.9523 16.4614 23.6329 16.079 22.817C14.639 19.7271 18.239 17.1163 20.2129 16.2205C27.1026 13.0646 36.7483 13.3771 43.2592 17.4287C45.2882 18.689 49.2292 23.0357 45.5466 25.1987C47.8168 26.2958 48.3921 29.6113 48.647 31.9652C49.0444 35.7431 48.9285 39.5579 48.3025 43.3042C48.2314 43.7166 48.1112 44.1188 47.9442 44.502Z" fill="#FF4C00"/></svg>