<svg xmlns="http://www.w3.org/2000/svg" width="62" height="62" fill="none"><path d="M45.976 9H16.123c-3.879 0-7.024 3.145-7.024 7.024v29.853c0 3.879 3.145 7.024 7.024 7.024h29.853c3.879 0 7.024-3.145 7.024-7.024V16.024C53 12.145 49.855 9 45.976 9z" fill="#de483a"/><g fill="#fff"><path d="M18.378 29.569l8.745-5.032.011-.007 9.011-5.186c.38-.22.398-.892-.028-1.136l-.298-.17-1.237-.708a1.4 1.4 0 0 0-1.368.017l-14.881 8.554a1.85 1.85 0 0 1-1.837 0L9 21.545v3.703l.077.044 7.384 4.28c.657.37 1.285.362 1.918-.003z"/><path d="M18.378 36.967l8.734-5.027.033-.019 9-5.179c.38-.22.398-.893-.028-1.136l-.298-.17-1.237-.708a1.4 1.4 0 0 0-1.368.016l-14.881 8.552a1.85 1.85 0 0 1-1.837 0L9 28.943v3.701l.077.045 7.384 4.28a1.8 1.8 0 0 0 1.918-.003z"/><path d="M27.124 39.33l-8.746 5.034c-.633.365-1.262.373-1.918.003l-7.384-4.28L9 40.041v-3.701l7.496 4.354a1.85 1.85 0 0 0 1.837 0l14.881-8.554a1.4 1.4 0 0 1 1.368-.017l1.537.878c.425.244.406.918.026 1.137l-9.02 5.191z"/></g></svg>