<svg width="62" height="62" viewBox="0 0 62 62" fill="none" xmlns="http://www.w3.org/2000/svg"><path d="M30.9987 42.8204C28.2713 42.8194 25.6369 41.8292 23.5842 40.0332C21.5315 38.2374 20.1999 35.7579 19.8366 33.0547C19.4732 30.3517 20.1027 27.6086 21.6082 25.3343C23.1138 23.0602 25.3932 21.4092 28.0234 20.688V23.9672C26.2544 24.6607 24.7831 25.9502 23.8635 27.613C22.9438 29.2757 22.6338 31.2075 22.9867 33.0745C23.3396 34.9416 24.3333 36.6268 25.7963 37.8392C27.2594 39.0517 29.0999 39.7152 31 39.7152C32.9002 39.7152 34.7406 39.0517 36.2037 37.8392C37.6667 36.6268 38.6605 34.9416 39.0133 33.0745C39.3663 31.2075 39.0562 29.2757 38.1365 27.613C37.2169 25.9502 35.7456 24.6607 33.9766 23.9672V20.688C36.6071 21.4093 38.8866 23.0604 40.3922 25.3348C41.8977 27.6093 42.527 30.3527 42.1633 33.056C41.7996 35.7593 40.4676 38.2388 38.4144 40.0345C36.3613 41.8302 33.7263 42.8201 30.9987 42.8204ZM29.3818 16.9244H32.6182V32.9777H29.3818V16.9244ZM30.9987 9C26.6476 9.00025 22.3943 10.2907 18.7766 12.7083C15.1588 15.1258 12.3392 18.5618 10.6743 22.5818C9.00936 26.6018 8.57387 31.0252 9.42289 35.2927C10.2719 39.5602 12.3673 43.4802 15.4441 46.5567C18.5209 49.6334 22.4409 51.7286 26.7085 52.5773C30.976 53.4262 35.3994 52.9904 39.4193 51.3252C43.4393 49.6601 46.8751 46.8402 49.2924 43.2224C51.7098 39.6046 53 35.3512 53 31C53.0002 28.1107 52.4312 25.2498 51.3256 22.5805C50.2199 19.9112 48.5993 17.4857 46.5563 15.4428C44.5132 13.3999 42.0878 11.7794 39.4183 10.6739C36.749 9.56848 33.888 8.99967 30.9987 9Z" fill="#E57CD8"/></svg>