<svg width="62" height="62" viewBox="0 0 62 62" fill="none" xmlns="http://www.w3.org/2000/svg"><path fill-rule="evenodd" clip-rule="evenodd" d="M33.6344 16H53C53 21.8719 48.2399 26.632 42.3681 26.632H33.6344V16Z" fill="#5DCFFA"/><mask id="mask0_2017_2" style="mask-type:alpha" maskUnits="userSpaceOnUse" x="33" y="26" width="12" height="20"><path d="M33.6337 45.9317H44.2656V26.6348H33.6337V45.9317Z" fill="white"/></mask><g mask="url(#mask0_2017_2)"><path fill-rule="evenodd" clip-rule="evenodd" d="M33.6337 42.496L44.2656 45.9317V26.6348H33.6337V42.496Z" fill="#0054FF"/></g><path fill-rule="evenodd" clip-rule="evenodd" d="M28.3656 26.632H19.6319C13.7601 26.632 9 21.8716 9 16H28.3656V26.632Z" fill="#5DCFFA"/><path fill-rule="evenodd" clip-rule="evenodd" d="M17.7318 45.9356L28.3638 42.4999V26.6387H17.7318V45.9356Z" fill="#0054FF"/><path fill-rule="evenodd" clip-rule="evenodd" d="M19.6301 26.6343H28.3636L17.7318 30.1783V26.6343C17.7318 26.5768 17.7352 26.5202 17.736 26.4629C18.3509 26.5733 18.9831 26.6343 19.6301 26.6343Z" fill="#1A31AE"/><path fill-rule="evenodd" clip-rule="evenodd" d="M42.3681 26.6343H33.6344L44.2664 30.1783V26.6343C44.2664 26.5768 44.263 26.5202 44.2622 26.4629C43.6472 26.5733 43.015 26.6343 42.3681 26.6343Z" fill="#1A31AE"/></svg>