<?xml version="1.0" encoding="UTF-8"?>
<svg xmlns="http://www.w3.org/2000/svg" xmlns:xlink="http://www.w3.org/1999/xlink" width="62px" height="62px" viewBox="0 0 62 62" version="1.1">
<defs>
<clipPath id="clip1">
  <path d="M 25 9.300781 L 37 9.300781 L 37 21 L 25 21 Z M 25 9.300781 "/>
</clipPath>
<clipPath id="clip2">
  <path d="M 41 9.300781 L 52.699219 9.300781 L 52.699219 21 L 41 21 Z M 41 9.300781 "/>
</clipPath>
<clipPath id="clip3">
  <path d="M 25 41 L 37 41 L 37 52.699219 L 25 52.699219 Z M 25 41 "/>
</clipPath>
<clipPath id="clip4">
  <path d="M 9.300781 9.300781 L 52.699219 9.300781 L 52.699219 52.699219 L 9.300781 52.699219 Z M 9.300781 9.300781 "/>
</clipPath>
<linearGradient id="linear0" gradientUnits="userSpaceOnUse" x1="6" y1="20" x2="34.0005" y2="20" gradientTransform="matrix(1.55,0,0,1.55,0,0)">
<stop offset="0" style="stop-color:rgb(35.294119%,73.725492%,100%);stop-opacity:1;"/>
<stop offset="0.8997" style="stop-color:rgb(0%,35.294119%,93.333334%);stop-opacity:1;"/>
</linearGradient>
</defs>
<g id="surface1">
<g clip-path="url(#clip1)" clip-rule="nonzero">
<path style=" stroke:none;fill-rule:nonzero;fill:rgb(35.294119%,73.725492%,100%);fill-opacity:1;" d="M 31 20.148438 C 33.996094 20.148438 36.425781 17.722656 36.425781 14.726562 C 36.425781 11.730469 33.996094 9.300781 31 9.300781 C 28.003906 9.300781 25.574219 11.730469 25.574219 14.726562 C 25.574219 17.722656 28.003906 20.148438 31 20.148438 Z M 31 20.148438 "/>
</g>
<g clip-path="url(#clip2)" clip-rule="nonzero">
<path style=" stroke:none;fill-rule:nonzero;fill:rgb(35.294119%,73.725492%,100%);fill-opacity:1;" d="M 47.273438 20.148438 C 50.269531 20.148438 52.699219 17.722656 52.699219 14.726562 C 52.699219 11.730469 50.269531 9.300781 47.273438 9.300781 C 44.277344 9.300781 41.851562 11.730469 41.851562 14.726562 C 41.851562 17.722656 44.277344 20.148438 47.273438 20.148438 Z M 47.273438 20.148438 "/>
</g>
<g clip-path="url(#clip3)" clip-rule="nonzero">
<path style=" stroke:none;fill-rule:nonzero;fill:rgb(35.294119%,73.725492%,100%);fill-opacity:1;" d="M 31 52.699219 C 33.996094 52.699219 36.425781 50.269531 36.425781 47.273438 C 36.425781 44.277344 33.996094 41.851562 31 41.851562 C 28.003906 41.851562 25.574219 44.277344 25.574219 47.273438 C 25.574219 50.269531 28.003906 52.699219 31 52.699219 Z M 31 52.699219 "/>
</g>
<g clip-path="url(#clip4)" clip-rule="nonzero">
<path style=" stroke:none;fill-rule:nonzero;fill:url(#linear0);" d="M 47.273438 41.851562 C 46.988281 41.851562 46.699219 41.882812 46.425781 41.917969 C 42.679688 42.511719 37.273438 37.664062 36.425781 33.558594 L 36.425781 28.289062 C 36.425781 26.796875 35.203125 25.574219 33.710938 25.574219 L 28.441406 25.574219 C 24.929688 24.847656 20.878906 20.792969 20.148438 17.285156 L 20.148438 9.300781 L 9.300781 9.300781 L 9.300781 20.148438 L 17.285156 20.148438 C 20.792969 20.878906 24.847656 24.929688 25.574219 28.441406 L 25.574219 33.710938 C 25.574219 35.203125 26.796875 36.425781 28.289062 36.425781 L 33.558594 36.425781 C 37.664062 37.273438 42.511719 42.679688 41.917969 46.425781 C 41.867188 46.699219 41.851562 46.988281 41.851562 47.273438 C 41.851562 50.632812 44.882812 53.277344 48.359375 52.597656 C 50.480469 52.191406 52.175781 50.480469 52.597656 48.359375 C 53.277344 44.882812 50.632812 41.851562 47.273438 41.851562 Z M 47.273438 41.851562 "/>
</g>
</g>
</svg>
