<svg width="62" height="62" viewBox="-7.5 0 57 57" fill="none" xmlns="http://www.w3.org/2000/svg"><path d="M36.8957 0.129883H0V45.9999H36.8957V0.129883Z" fill="white"/><path d="M33.1033 25.3987L32.3267 24.8865L31.1036 26.5515L31.0222 26.6625L31.0105 26.6782L30.998 26.6946L30.9823 26.7165L30.865 26.876L30.786 26.984L30.7399 27.0465L26.7881 32.4248L26.8045 32.959L26.8616 34.7679C26.8733 35.1683 27.3832 35.3247 27.621 35.0057C29.7052 32.1613 31.6846 28.9782 32.95 25.7944L33.1033 25.3987Z" fill="#59CBAF"/><path d="M31.3375 26.728L31.2867 26.7984L31.1498 26.9853L31.1279 26.9352L31.1083 26.9689L31.081 26.9931L31.0004 27.0557L30.9496 27.1081L26.8054 32.958L26.7882 32.4238L26.6052 26.6013L26.5981 26.6005V26.2588L30.5539 26.6506L30.8221 26.6772L30.977 26.692L30.9981 26.6944L31.0075 26.6951L31.0161 26.6959L31.2264 26.717L31.3375 26.728Z" fill="#A1D04C"/><path d="M31.129 26.9995L31.0383 27.0597L31.0148 27.0753L30.9499 27.0683L30.9421 27.0675L30.9069 27.0636L30.838 27.0566L30.7411 27.0464L26.6063 26.6022L26.5992 26.6014V26.3777L26.4217 20.7366L26.4053 20.215V20.2095L30.666 25.9593L30.8811 26.2502L31.0476 26.4747L31.0555 26.4849L31.1047 26.5521L31.2275 26.7179L31.2877 26.7993L31.3362 26.8642L31.129 26.9995Z" fill="#E5ED28"/><path d="M30.9396 27.1255L30.931 27.1309L30.8379 27.0559L30.7871 26.9823L30.5548 26.65L26.4216 20.7352L26.4052 20.2135V20.2081C26.3841 19.415 26.7485 18.6627 27.3906 18.1989L28.749 17.2119L28.8765 17.1189L30.8802 26.2488L30.9771 26.6914L30.9826 26.7149L30.9944 26.7688L30.999 26.79L31.0554 27.0465L31.0335 27.0488L31.0006 27.0535L30.9396 27.1255Z" fill="#DEDD23"/><path d="M33.3477 13.6323L33.3313 13.723L33.3211 13.7786L31.0539 26.4841L31.0218 26.6616L31.0156 26.696L30.9984 26.7914L30.9491 27.0683L30.9397 27.1223L30.9389 27.1254L30.9381 27.1238L30.9334 27.1144L30.9061 27.0636L30.8646 26.8751L30.8208 26.6765L30.6636 25.9585L28.7476 17.2126L28.875 17.1196L30.4658 15.9645C31.5075 15.2082 32.3857 14.491 33.1006 13.813C33.1428 13.7731 33.1835 13.734 33.2241 13.6941L33.3477 13.6323Z" fill="#C5DF26"/><path d="M33.1034 25.3987C33.9293 23.2175 34.4079 21.0433 34.3438 18.9841C34.3031 17.7477 34.1413 16.5464 33.8628 15.3913C33.8284 15.2404 33.8746 15.0894 33.9848 14.9846C34.5526 14.4559 35.0344 13.9445 35.4325 13.4463L35.488 13.3767L33.3318 13.7239L33.2896 13.731L33.2802 13.7865L31.0474 26.4748L31.0114 26.6789L31.0083 26.6961L30.995 26.7704L30.9426 27.0676L30.9316 27.131L30.9402 27.1255L31.0153 27.0754L31.056 27.0488L31.1506 26.9863L31.3352 26.8643L32.9509 25.7944L33.1034 25.3987Z" fill="#9DC62A"/><path d="M36.8472 10.5605C36.7033 11.4669 36.2575 12.396 35.4872 13.3759L35.4316 13.4456L33.3208 13.7787L33.2786 13.7858L33.1011 13.8139C33.1433 13.774 33.184 13.7349 33.2246 13.695C34.5291 12.4336 35.2596 11.3089 35.4152 10.3227C35.4606 10.0303 35.4543 9.75576 35.3941 9.50081C35.362 9.36238 35.3136 9.23021 35.2494 9.10274L35.983 7.65747C36.0268 7.70361 36.0698 7.75132 36.1113 7.80059C36.166 7.86472 36.2176 7.93198 36.2677 8.0008C36.7948 8.73203 36.9981 9.61421 36.8472 10.5605Z" fill="#B7C017"/><path d="M36.1113 7.80041L35.3941 9.50063C35.362 9.3622 35.3136 9.23003 35.2494 9.10255C35.2041 9.01262 35.1517 8.92581 35.0907 8.84212C34.7896 8.4245 34.3547 8.16876 33.787 8.0757C32.8446 7.92241 31.6151 8.2368 30.0995 9.01496L30.0932 9.01809L29.4629 7.36714L29.4668 7.37105C29.4715 7.37574 29.4762 7.38044 29.4801 7.38513C29.6076 7.51261 29.7992 7.5478 29.9611 7.47194C31.5432 6.73444 32.8704 6.47323 34.0122 6.65311C34.7997 6.77902 35.4739 7.12235 35.9822 7.65651C36.0276 7.70343 36.0698 7.75114 36.1113 7.80041Z" fill="#E9D912"/><path d="M27.8793 10.3477C27.561 10.562 27.2334 10.7919 26.8971 11.0367L25.1491 12.3084L25.1343 12.3193L27.8692 5.90088C27.8747 5.90479 27.8801 5.90948 27.8856 5.91417C27.9145 5.93763 27.9443 5.9611 27.9732 5.98534C27.9794 5.99081 27.9865 5.99551 27.9927 6.00098L27.8887 10.3415L27.8793 10.3477Z" fill="#F3D71A"/><path d="M27.8853 5.91411L25.1489 12.3084L25.134 12.3193L23.2406 13.6973L22.9802 13.8874C22.9747 13.8913 22.9692 13.8952 22.9638 13.8991C22.9606 13.9014 22.9575 13.903 22.9544 13.9054L22.9512 13.9069C22.9481 13.9093 22.9442 13.9108 22.9411 13.9132L22.9372 13.9155C22.934 13.9171 22.9309 13.9186 22.9278 13.9202L22.9223 13.9233C22.92 13.9249 22.9168 13.9257 22.9145 13.9272C22.9145 13.9272 22.9114 13.9288 22.909 13.9296C22.9051 13.9312 22.9012 13.9327 22.8973 13.9343L22.8957 13.9351C22.8926 13.9366 22.8887 13.9382 22.8848 13.939C22.8785 13.9413 22.8723 13.9437 22.866 13.9452C22.8621 13.9468 22.8582 13.9476 22.8543 13.9484L22.8527 13.9491C22.8504 13.9499 22.8472 13.9507 22.8449 13.9515C22.8402 13.9523 22.8363 13.9538 22.8316 13.9546C22.8292 13.9554 22.8261 13.9562 22.8238 13.9562C22.8199 13.957 22.8159 13.9578 22.812 13.9585C22.8073 13.9593 22.8034 13.9601 22.7987 13.9609H22.7964C22.7917 13.9617 22.7878 13.9617 22.7839 13.9624C22.7792 13.9632 22.7745 13.9632 22.7698 13.9632L21.3558 4.28506L21.3535 4.2702L21.2385 3.48109L21.0195 2.55981C21.0375 2.56372 21.0555 2.56842 21.0743 2.57233C21.0868 2.57545 21.0985 2.5778 21.1103 2.58093C21.1103 2.58093 21.1142 2.58171 21.1165 2.58249C21.1376 2.58719 21.1587 2.59266 21.1799 2.59735C21.1978 2.60205 21.2166 2.60596 21.2346 2.61065C23.695 3.21206 25.9505 4.34919 27.8689 5.9016C27.8744 5.90473 27.8799 5.90942 27.8853 5.91411Z" fill="#F9B411"/><path d="M23.2398 13.6973L22.9793 13.8874C22.9739 13.8913 22.9684 13.8952 22.9629 13.8991C22.9598 13.9015 22.9566 13.903 22.9535 13.9054L22.9504 13.9069C22.9473 13.9093 22.9434 13.9108 22.9402 13.9132L22.9363 13.9155C22.9332 13.9171 22.9301 13.9187 22.9269 13.9202L22.9215 13.9234C22.9191 13.9249 22.916 13.9257 22.9136 13.9273C22.9136 13.9273 22.9105 13.9288 22.9082 13.9296C22.9042 13.9312 22.9003 13.9327 22.8964 13.9343L22.8949 13.9351C22.8917 13.9366 22.8878 13.9382 22.8839 13.939C22.8777 13.9413 22.8714 13.9437 22.8651 13.9453C22.8612 13.9468 22.8573 13.9476 22.8534 13.9484L22.8518 13.9492C22.8495 13.9499 22.8464 13.9507 22.844 13.9515C22.8393 13.9523 22.8354 13.9539 22.8307 13.9546C22.8284 13.9554 22.8253 13.9562 22.8229 13.9562C22.819 13.957 22.8151 13.9578 22.8112 13.9585C22.8065 13.9593 22.8026 13.9601 22.7979 13.9609H22.7955C22.7908 13.9617 22.7869 13.9617 22.783 13.9625C22.7783 13.9632 22.7736 13.9632 22.7689 13.9632C22.7643 13.9632 22.7596 13.964 22.7541 13.964C22.7369 13.9648 22.7197 13.964 22.7025 13.9625C22.6962 13.9617 22.69 13.9617 22.6837 13.9601C22.6806 13.9601 22.6774 13.9593 22.6743 13.9585C22.6681 13.9578 22.6618 13.957 22.6563 13.9554C22.6516 13.9546 22.6469 13.9539 22.6423 13.9523C22.6258 13.9484 22.6086 13.9437 22.5922 13.9382L22.2192 13.8029L22.2137 13.8006L16.0658 4.41568L16.0635 4.41177L21.3534 4.26943L21.4379 4.26709H21.4472L23.2398 13.6973Z" fill="#F8950C"/><path d="M15.9385 1.63135H15.944L15.9385 1.63292V1.63135Z" fill="#F97008"/><path d="M21.4403 4.28273L21.3559 4.28508L16.073 4.41568H16.0659H16.0597V4.41412L15.9619 2.16801C15.9658 2.16801 15.969 2.16723 15.9729 2.16723C15.9776 2.16723 15.983 2.16645 15.9877 2.16645C16.209 2.15081 16.4319 2.13986 16.6564 2.13282C16.8316 2.12735 17.0068 2.125 17.1804 2.125C17.1984 2.125 17.2156 2.125 17.2336 2.125C17.2515 2.125 17.2688 2.125 17.2867 2.125C17.293 2.125 17.2985 2.125 17.3039 2.125C17.3243 2.125 17.3446 2.125 17.3649 2.12578C17.3892 2.12578 17.415 2.12656 17.4392 2.12656C17.4619 2.12656 17.4846 2.12735 17.5065 2.12735C17.5088 2.12735 17.5112 2.12735 17.5135 2.12735C17.5167 2.12735 17.519 2.12735 17.5221 2.12735C17.5292 2.12735 17.537 2.12735 17.544 2.12813C17.548 2.12813 17.5511 2.12813 17.555 2.12813C17.5589 2.12813 17.562 2.12813 17.5659 2.12813C17.5886 2.12891 17.6121 2.12891 17.6348 2.12969C17.652 2.12969 17.67 2.13047 17.6879 2.13126C17.7059 2.13204 17.7247 2.13204 17.7427 2.13282C17.7607 2.1336 17.7779 2.1336 17.7959 2.13438C17.8115 2.13517 17.8264 2.13517 17.842 2.13595C17.86 2.13673 17.878 2.13751 17.896 2.1383C17.9116 2.13908 17.9273 2.13986 17.9429 2.14064C17.9554 2.14142 17.9687 2.14142 17.9812 2.14221C17.9992 2.14299 18.018 2.14377 18.036 2.14455C18.0446 2.14533 18.054 2.14533 18.0626 2.14612C18.0641 2.14612 18.0657 2.14612 18.0672 2.14612C18.0688 2.14612 18.0704 2.14612 18.0719 2.14612C18.0759 2.14612 18.0805 2.14612 18.0845 2.1469L18.1408 2.15003C18.1619 2.15081 18.183 2.15237 18.2041 2.15394C18.2151 2.15472 18.2252 2.1555 18.2362 2.1555C18.2518 2.15628 18.2682 2.15706 18.2839 2.15863C18.3042 2.16019 18.3245 2.16098 18.3449 2.16254C18.3676 2.1641 18.391 2.16567 18.4137 2.16723C18.4184 2.16723 18.4223 2.16801 18.427 2.16801L18.4426 2.1688C18.4512 2.16958 18.4598 2.17036 18.4692 2.17036C18.5107 2.17349 18.5521 2.17662 18.5928 2.17974C18.6116 2.18131 18.6296 2.18287 18.6483 2.18444C18.6647 2.186 18.682 2.18757 18.6984 2.18913C18.7171 2.19069 18.7367 2.19226 18.7555 2.1946C18.7828 2.19695 18.8094 2.1993 18.8368 2.20242C18.854 2.20399 18.872 2.20555 18.89 2.2079C18.8915 2.2079 18.8939 2.2079 18.8955 2.20868C18.9095 2.21025 18.9236 2.21181 18.9369 2.21259C18.9408 2.21337 18.9455 2.21337 18.9494 2.21416C18.9643 2.21572 18.9784 2.21728 18.9932 2.21885C18.9987 2.21963 19.0042 2.21963 19.0096 2.22041C19.0308 2.22276 19.0519 2.22511 19.073 2.22745C19.0761 2.22745 19.08 2.22823 19.0832 2.22823C19.1152 2.23214 19.1473 2.23527 19.1801 2.23918C19.2263 2.24466 19.2724 2.25013 19.3178 2.25561C19.3326 2.25717 19.3483 2.25952 19.3639 2.26108C19.3858 2.26421 19.4085 2.26655 19.4304 2.26968C19.4499 2.27203 19.4703 2.27516 19.4898 2.2775C19.5094 2.27985 19.5297 2.28298 19.5493 2.28532C19.5696 2.28845 19.5892 2.2908 19.6087 2.29393C19.6283 2.29706 19.647 2.2994 19.6666 2.30253C19.6689 2.30253 19.6705 2.30331 19.6728 2.30331C19.6916 2.30566 19.7096 2.30879 19.7284 2.31191C19.7456 2.31426 19.7628 2.31739 19.78 2.31974C19.7909 2.3213 19.8019 2.32286 19.812 2.32443C19.8253 2.32677 19.8379 2.32834 19.8512 2.33068C19.8691 2.33381 19.8871 2.33616 19.9051 2.33929C19.945 2.34554 19.9841 2.3518 20.0232 2.35884C20.0428 2.36197 20.0623 2.36588 20.0826 2.36901C20.1022 2.37213 20.1217 2.37604 20.1413 2.37917C20.1608 2.3823 20.1804 2.38621 20.2 2.38934C20.2195 2.39247 20.2391 2.39638 20.2586 2.40029C20.2977 2.40733 20.3368 2.41515 20.3759 2.42219C20.3955 2.4261 20.415 2.43001 20.4346 2.43314C20.4541 2.43705 20.4737 2.44096 20.4932 2.44487C20.5097 2.448 20.5253 2.45112 20.5417 2.45425C20.5495 2.45582 20.5574 2.45738 20.5652 2.45894C20.58 2.46207 20.5949 2.4652 20.6105 2.46833C20.6277 2.47146 20.6442 2.47537 20.6614 2.4785C20.6833 2.48319 20.7052 2.48788 20.7271 2.49257C20.7466 2.49648 20.7662 2.50118 20.7849 2.50509C20.8045 2.509 20.8233 2.51369 20.8428 2.5176C20.8624 2.52151 20.8819 2.5262 20.9007 2.53011C20.9202 2.5348 20.939 2.53872 20.9586 2.54341C20.9781 2.5481 20.9969 2.55201 21.0164 2.5567C21.0344 2.56061 21.0524 2.56531 21.0712 2.56922C21.0837 2.57234 21.0954 2.57469 21.1072 2.57782C21.1087 2.5786 21.1111 2.5786 21.1134 2.57938C21.1345 2.58408 21.1556 2.58955 21.1768 2.59424C21.1947 2.59893 21.2135 2.60284 21.2315 2.60754L21.334 3.44279L21.4348 4.26474L21.4403 4.28273Z" fill="#F97008"/><path d="M16.074 4.44756L16.0724 4.44913L10.3493 9.49739L10.325 9.51929L10.3062 9.53571L10.2976 9.5099L10.2836 9.47471L8.35889 4.58208C8.441 4.53203 8.5239 4.48275 8.6068 4.43505C10.7927 3.16106 13.2883 2.35865 15.9622 2.16783C15.9661 2.16783 15.9692 2.16704 15.9731 2.16704C15.9778 2.16704 15.9833 2.16626 15.988 2.16626C15.9856 2.18425 15.9856 2.20224 15.9856 2.20224L16.0724 4.41159V4.4155L16.0732 4.42645L16.074 4.44756Z" fill="#F46E0F"/><path d="M10.2851 9.47399L10.2836 9.47321L5.39094 7.69791C5.10157 7.59311 5.02024 7.21615 5.24 7.00108C6.18083 6.08059 7.22646 5.26723 8.35968 4.58136C8.4418 4.5313 8.5247 4.48203 8.6076 4.43433L10.2851 9.47399Z" fill="#F24C1C"/><path d="M22.218 13.8035L16.0662 4.41553L16.0638 4.41162L16.0599 4.41475L10.3164 9.4857L22.2125 13.8012L22.218 13.8035Z" fill="#FD5E12"/><path d="M30.0939 9.01803C29.4159 9.36683 28.6807 9.80792 27.8885 10.3413L27.8799 10.3475L27.973 5.98438C27.9792 5.98985 27.9862 5.99454 27.9925 6.00002C28.5095 6.42546 29.0006 6.88219 29.4644 7.36629L29.4683 7.3702L30.1002 9.01412L30.0939 9.01803Z" fill="#F2E21B"/><path d="M1.30659 23.6294L8.22713 22.0535L8.42108 22.0089L8.48678 21.9941L8.4899 21.9933L8.50789 21.9894L8.53135 21.9839L8.53605 21.9831L8.56264 21.9769L8.56107 21.9088L8.46566 17.1265L8.46331 17.0029L8.45862 16.7769L8.45628 16.6752L8.44142 15.9237L4.23309 14.9343L4.08841 14.9007L3.45572 14.7521L3.3908 14.7373L2.85039 14.6106L2.67286 14.8984L2.60248 15.0133L0.000528682 19.2334C-0.00181753 19.493 -0.000253388 19.7613 0.00678525 20.0373C0.0200804 20.645 0.0451067 21.0939 0.0771716 21.431C0.14443 22.1435 0.240624 22.3523 0.307882 22.4868C0.511221 22.8817 0.792766 23.2133 1.12906 23.491L1.30659 23.6294Z" fill="#E62878"/><path d="M5.66635 13.3304L4.2336 14.9344L3.81753 15.4005L3.81675 15.4013L3.81362 15.4044L3.80502 15.4138L3.7972 15.4224L3.77999 15.3935L3.66034 15.1909L3.39131 14.7358L1.71924 11.9078C1.74661 11.8656 1.77711 11.8257 1.80918 11.7889C2.14781 11.4041 2.73906 11.3134 3.18718 11.6208L5.16426 12.9839L5.66635 13.3304Z" fill="#EA4118"/><path d="M3.82026 15.4077L3.81322 15.4053L3.81087 15.4045L3.77959 15.3944L2.60257 15.0127L0.709961 14.3988C0.717782 14.3722 0.726384 14.3464 0.734205 14.3206C1.00167 13.4783 1.31841 12.7369 1.6461 12.0393C1.66722 11.9931 1.69146 11.9493 1.71883 11.9087C1.7462 11.8664 1.77671 11.8266 1.80877 11.7898L3.54731 14.6498L3.88751 15.2606L3.81243 15.3944L3.81478 15.3991L3.81635 15.4022L3.81713 15.4037L3.82026 15.4077Z" fill="#DB292F"/><path d="M3.89837 15.2629L3.81469 15.3982L3.81312 15.4014L3.81078 15.4045L3.80452 15.4147L0.0771716 21.4311C0.0451067 21.0941 0.0192984 20.6444 0.00678525 20.0375C-0.000253388 19.7614 -0.00181753 19.4939 0.000528682 19.2335C0.0208625 17.24 0.304754 15.6978 0.709085 14.398C0.716905 14.3714 0.725508 14.3456 0.733329 14.3198L2.67208 14.8977L3.65905 15.1918L3.70754 15.2066L3.88664 15.2598L3.89837 15.2629Z" fill="#D61D4C"/><path d="M12.3214 17.9203L8.45957 16.777L8.21243 16.7034L8.11858 16.6761L8.05289 16.6565L3.8172 15.4021H3.81563L3.81329 15.4013L3.80859 15.3997L3.8125 15.3935L3.88758 15.2597L4.08857 14.9008L5.16392 12.9839L5.66601 13.3304L11.6395 17.4495L11.6762 17.4753L12.3214 17.9203Z" fill="#E8313E"/><path d="M13.3326 18.618L12.3214 17.9204L11.6762 17.4754L11.6394 17.4504L8.45718 16.6753L8.11854 16.5924L8.04581 16.5752L8.03955 16.5737L8.04659 16.5823L8.11854 16.6761L8.46656 17.1266L10.5516 19.8294L10.5602 19.8404L10.5852 19.8732L10.6743 19.8333L10.7987 19.7778L13.3537 18.6329L13.3326 18.618Z" fill="#E92B5F"/><path d="M10.6517 19.7245L8.03955 16.4985L8.50097 22.1177L10.6517 19.7245Z" fill="#F5368D"/><path d="M1.12939 23.4912L1.30692 23.6296C2.49958 24.5032 4.26315 24.7879 5.68026 24.8591L5.70529 24.8606L8.49024 22.0154L8.49259 22.0131L8.50902 21.9967L8.49181 21.9998L8.48868 22.0006L8.48711 21.9419L8.19619 22.0092L1.12939 23.4912Z" fill="#C91D7B"/><path d="M5.7052 24.8605C6.06808 24.8785 6.4075 24.8824 6.70782 24.8785C7.42732 24.873 8.12493 24.6447 8.71305 24.2278L8.74589 24.2044L8.54099 22.0771L8.53473 22.0169L8.53161 21.9849L8.53082 21.9786L8.52769 21.945L8.50814 21.9653L8.48937 21.9387L8.48546 21.9426L8.48155 21.9465L8.42055 22.0099L8.41508 22.0161L5.68018 24.859L5.7052 24.8605Z" fill="#8D1171"/><path d="M13.3327 18.6179L10.7519 19.7222L10.6518 19.7246L10.5868 19.7926L10.6267 19.852L10.5571 19.8239L10.5603 19.8411L10.5876 19.9936L11.0428 22.5361C11.1022 22.4931 11.1617 22.4493 11.2219 22.4063C11.2274 22.4024 11.2328 22.3985 11.2383 22.3946C12.0665 21.7924 12.8947 21.1902 13.7229 20.5895C14.3079 20.1602 14.2962 19.2835 13.6995 18.8713L13.3546 18.6336L13.3327 18.6179Z" fill="#EB2D7D"/><path d="M11.221 22.4055C11.1616 22.4485 11.1021 22.4923 11.0419 22.5353C10.6798 22.7989 10.3169 23.0624 9.95485 23.326C9.92591 23.3471 9.89619 23.3682 9.86726 23.3894L8.56746 22.0497L8.53539 22.016L8.5088 21.9887L8.49707 21.9762L8.51349 21.9589L8.52835 21.9433L8.56198 21.9081L10.5508 19.8286L10.5563 19.8231L10.586 19.7926L10.6509 19.7246L10.6587 19.7613L10.6736 19.8325L10.6861 19.8904L11.221 22.4055Z" fill="#F0328E"/><path d="M8.74676 24.2035C8.74911 24.202 8.75067 24.2004 8.75302 24.1988C9.1245 23.929 9.49677 23.6592 9.86825 23.3894C9.89719 23.3683 9.92691 23.3472 9.95584 23.3261L8.58722 22.0302L8.53717 21.9832L8.53169 21.9778L8.51292 21.9606L8.49024 21.9387L8.48555 21.9348L8.48242 21.9465L8.48711 21.995L8.4879 22.0012L8.48946 22.0161L8.71313 24.2278" fill="#CF2284"/><path d="M19.4413 27.8199L15.0547 33.1622L15.0008 33.2287L14.9914 33.2405L14.9765 33.2577L14.9577 33.2811L14.9538 33.2858L14.9507 33.2897L14.9351 33.3093V26.449L14.9585 26.4357C16.0964 25.7826 16.9935 25.3885 17.4056 25.2766C17.9718 25.0827 18.6874 25.2563 18.8618 25.8428L19.3389 27.4656L19.3397 27.4696L19.4413 27.8199Z" fill="#FC772A"/><path d="M14.9334 26.4488C14.303 26.8125 13.6265 27.2864 12.9759 27.9003C12.9501 27.9246 12.9242 27.9488 12.8984 27.9739L14.9131 33.1957L14.9232 33.2215L14.9334 33.2481L14.9428 33.2724L14.9498 33.2896L14.9529 33.2974L14.9576 33.3091V33.3076V33.281V33.2075V33.2028V33.1856V33.1785V26.4363L14.9334 26.4488Z" fill="#C32979"/><path d="M9.73584 34.7553L14.939 33.3499L14.964 33.3437L15.0039 33.3327L14.9929 33.3022L14.9765 33.2577L14.9687 33.2365L14.9577 33.2068L14.9554 33.2006L14.9499 33.1873L14.9343 33.1443L12.9767 27.8997C12.9509 27.9239 12.9251 27.9482 12.8993 27.9732C12.3659 28.487 11.8521 29.0963 11.397 29.8181C10.5359 31.1766 9.95638 32.8228 9.76634 34.4621L9.73584 34.7553Z" fill="#891F85"/><path d="M22.3635 37.7592L15.0152 33.3162L15.0034 33.3092L14.9933 33.3022L14.98 33.2951L14.9573 33.2811L14.951 33.2771L14.9432 33.2724L14.9338 33.267L14.9033 33.2482L14.9237 33.2216L14.9338 33.2083L14.9369 33.2036L14.944 33.1942L14.9495 33.1872L14.9502 33.1864L14.9573 33.177L19.3377 27.4656L19.3384 27.4695L19.4417 27.8199L22.3205 37.6129L22.3291 37.6427L22.3306 37.6474L22.3635 37.7592Z" fill="#AABF56"/><path d="M15.0332 33.2474L15.016 33.3155L15.0097 33.3382L14.9839 33.4406L12.8372 41.858C12.8223 41.8432 12.8074 41.8283 12.7926 41.8142C11.1948 40.2368 10.6857 39.4195 10.6857 39.4195C9.86529 38.1088 9.59 36.4453 9.73781 34.7545L9.76753 34.4612L14.9151 33.1943L14.9354 33.1888L14.9386 33.188L14.9519 33.1849L14.9597 33.1763L15.0332 33.2474Z" fill="#5C40AE"/><path d="M17.4159 45.9624L17.3064 45.9233C17.1985 45.8764 17.0984 45.8068 17.0131 45.7145L16.59 45.2609C16.5838 45.2546 16.5791 45.2491 16.5736 45.2429C16.5642 45.2319 16.5556 45.2218 16.5439 45.2147C16.023 44.7322 15.6351 44.3779 15.5655 44.3193C14.4245 43.3628 13.5298 42.5408 12.8361 41.8589C12.8212 41.844 12.8064 41.8291 12.7915 41.8151L14.9391 33.3499L14.9524 33.2975L14.9539 33.2921L14.9571 33.2803L14.968 33.2365L14.9743 33.2123L14.9688 33.188L14.9868 33.2201L14.9907 33.2404L15.004 33.3093L15.0095 33.339L16.7488 42.465L16.8418 42.9553L17.4159 45.9624Z" fill="#203BA4"/><path d="M22.6933 38.8814L16.8731 42.9685L16.8676 42.9427L16.8426 42.9513L16.7488 42.4648L15.7868 37.4189L15.0063 33.4311L14.9977 33.385L14.9875 33.3326L14.9805 33.2974L14.9797 33.2951L14.9774 33.2818L14.9758 33.2755L14.9742 33.2669L14.968 33.2356L14.957 33.177L14.9797 33.191L14.9813 33.1918L15.0564 33.2372L22.3202 37.6129L22.3288 37.6426L22.3304 37.6473L22.3632 37.7591L22.6534 38.7476L22.6917 38.8767L22.6933 38.8814Z" fill="#286EC3"/><path d="M22.8434 40.8672C21.3512 42.5471 20.085 43.8523 19.3491 44.6102C19.0058 44.9636 18.7782 45.1983 18.6977 45.296C18.6898 45.2999 18.6851 45.3062 18.6789 45.3132C18.6758 45.3171 18.6726 45.3211 18.6679 45.3257L18.3035 45.7152C18.0696 45.9655 17.7224 46.0499 17.4151 45.9631L17.3056 45.924L16.8418 42.9553L16.8441 42.9537L16.8668 42.9373L22.6534 38.7485L22.6909 38.8768L22.6925 38.8815L23.0288 40.0241C23.1156 40.3213 23.046 40.6404 22.8434 40.8672Z" fill="#2A66C6" stroke="#2A66C6" stroke-width="0.0078207"/><path d="M30.9653 0.129883C29.825 0.129883 28.9014 1.05507 28.9014 2.19533C28.9014 3.33637 29.8258 4.26078 30.9653 4.26078C32.1055 4.26078 33.0291 3.33559 33.0291 2.19533C33.0291 1.05507 32.1055 0.129883 30.9653 0.129883Z" fill="#E3D01E"/><path d="M3.14545 25.4697C2.45801 25.4697 1.90039 26.0273 1.90039 26.7156C1.90039 27.4038 2.45801 27.9614 3.14545 27.9614C3.83289 27.9614 4.3905 27.4038 4.3905 26.7156C4.3905 26.0273 3.83289 25.4697 3.14545 25.4697Z" fill="#C91D7B"/><path d="M18 52C26.2843 52 33 51.3284 33 50.5C33 49.6716 26.2843 49 18 49C9.71573 49 3 49.6716 3 50.5C3 51.3284 9.71573 52 18 52Z" fill="#2C66C7"/><path d="M18.5 52C22.0899 52 25 51.3284 25 50.5C25 49.6716 22.0899 49 18.5 49C14.9101 49 12 49.6716 12 50.5C12 51.3284 14.9101 52 18.5 52Z" fill="#2C66C7"/></svg>