<svg width="100" height="100" viewBox="0 0 100 100" fill="none" xmlns="http://www.w3.org/2000/svg">
<g clip-path="url(#clip0_2_2)">
<path d="M74.7195 49.1332L73.3889 48.2588L71.2932 51.101L71.1538 51.2906L71.1337 51.3173L71.1123 51.3453L71.0855 51.3827L70.8845 51.6551L70.7492 51.8393L70.6701 51.9461L63.8992 61.127L63.9273 62.0388L64.0251 65.1267C64.0452 65.8102 64.9189 66.0772 65.3263 65.5326C68.8973 60.6771 72.2888 55.2436 74.4569 49.8087L74.7195 49.1332Z" fill="#59CBAF"/>
<path d="M71.6877 51.3996L71.6006 51.5198L71.3661 51.8389L71.3286 51.7534L71.2951 51.8108L71.2482 51.8522L71.1101 51.959L71.023 52.0485L63.9225 62.0344L63.893 61.1226L63.5794 51.1834L63.5674 51.182V50.5986L70.345 51.2675L70.8046 51.3129L71.0699 51.3382L71.1061 51.3422L71.1222 51.3436L71.1369 51.3449L71.4974 51.381L71.6877 51.3996Z" fill="#A1D04C"/>
<path d="M71.3396 51.8655L71.1841 51.9683L71.1439 51.995L71.0327 51.983L71.0193 51.9817L70.959 51.975L70.8411 51.963L70.6749 51.9456L63.5905 51.1873L63.5784 51.186V50.8042L63.2742 41.1747L63.2461 40.2842C63.2461 40.2816 63.2461 40.2776 63.2461 40.2749L70.5463 50.0899L70.9148 50.5866L71.2002 50.9697L71.2136 50.9871L71.298 51.1019L71.5084 51.3849L71.6116 51.5237L71.6947 51.6345L71.3396 51.8655Z" fill="#E5ED28"/>
<path d="M71.0168 52.0742L71.0021 52.0835L70.8426 51.9554L70.7555 51.8299L70.3575 51.2625L63.2757 41.1658L63.2476 40.2753C63.2476 40.2727 63.2476 40.2687 63.2476 40.266C63.2114 38.9123 63.8358 37.628 64.936 36.8363L67.2635 35.1515L67.4819 34.9927L70.915 50.5776L71.0811 51.3333L71.0905 51.3733L71.1106 51.4654L71.1186 51.5015L71.2151 51.9394L71.1776 51.9434L71.1213 51.9514L71.0168 52.0742Z" fill="#DEDD23"/>
<path d="M75.1406 29.0474L75.1124 29.2022L75.095 29.297L71.2104 50.9857L71.1555 51.2887L71.1447 51.3475L71.1153 51.5103L71.0308 51.9829L71.0148 52.075L71.0134 52.0804L71.0121 52.0777L71.004 52.0617L70.9571 51.9749L70.8861 51.6532L70.8111 51.3141L70.5417 50.0885L67.2588 35.1591L67.4772 35.0002L70.2027 33.0284C71.9876 31.7374 73.4924 30.5132 74.7171 29.3558C74.7895 29.2877 74.8592 29.2209 74.9288 29.1528L75.1406 29.0474Z" fill="#C5DF26"/>
<path d="M74.725 49.1273C76.14 45.404 76.9601 41.6926 76.8502 38.1775C76.7806 36.0669 76.5032 34.0163 76.0262 32.0445C75.9672 31.7868 76.0463 31.5292 76.2352 31.3503C77.208 30.4478 78.0334 29.5747 78.7155 28.7243L78.8106 28.6055L75.1163 29.1982L75.0439 29.2102L75.0279 29.305L71.2022 50.9643L71.1406 51.3127L71.1352 51.3421L71.1124 51.4689L71.0227 51.9762L71.0039 52.0844L71.0186 52.075L71.1473 51.9896L71.217 51.9442L71.3791 51.8374L71.6953 51.6291L74.4637 49.8028L74.725 49.1273Z" fill="#9DC62A"/>
<path d="M81.1382 23.8101C80.8917 25.3574 80.1279 26.9433 78.808 28.6161L78.7129 28.7349L75.0963 29.3037L75.0239 29.3157L74.7197 29.3637C74.7921 29.2956 74.8618 29.2289 74.9314 29.1608C77.1665 27.0074 78.4181 25.0877 78.6847 23.4042C78.7624 22.9049 78.7517 22.4363 78.6486 22.0011C78.5936 21.7648 78.5105 21.5392 78.4007 21.3216L79.6576 18.8545C79.7326 18.9333 79.8063 19.0147 79.8773 19.0988C79.9711 19.2083 80.0596 19.3231 80.1453 19.4406C81.0485 20.6888 81.3969 22.1947 81.1382 23.8101Z" fill="#B7C017"/>
<path d="M79.8647 19.0986L78.6359 22.0009C78.581 21.7646 78.4979 21.539 78.388 21.3214C78.3103 21.1679 78.2205 21.0197 78.116 20.8769C77.6001 20.164 76.8551 19.7274 75.8823 19.5685C74.2676 19.3069 72.1611 19.8436 69.5643 21.1719L69.5535 21.1772L68.4735 18.359L68.4802 18.3657C68.4883 18.3737 68.4963 18.3817 68.503 18.3897C68.7214 18.6073 69.0497 18.6674 69.3271 18.5379C72.0379 17.279 74.3118 16.8331 76.2682 17.1401C77.6175 17.3551 78.7726 17.9412 79.6436 18.853C79.7213 18.9331 79.7937 19.0145 79.8647 19.0986Z" fill="#E9D912"/>
<path d="M65.7755 23.4426C65.2302 23.8084 64.6687 24.2009 64.0925 24.6187L61.0977 26.7895L61.0722 26.8082L65.7581 15.8517C65.7675 15.8584 65.7769 15.8664 65.7863 15.8744C65.8358 15.9144 65.8868 15.9545 65.9363 15.9959C65.9471 16.0052 65.9591 16.0132 65.9698 16.0226L65.7916 23.4319L65.7755 23.4426Z" fill="#F3D71A"/>
<path d="M65.7764 15.8836L61.0878 26.7987L61.0623 26.8174L57.8182 29.1697L57.372 29.4941C57.3626 29.5008 57.3533 29.5074 57.3439 29.5141C57.3385 29.5181 57.3332 29.5208 57.3278 29.5248C57.3265 29.5261 57.3251 29.5275 57.3225 29.5275C57.3171 29.5315 57.3104 29.5341 57.305 29.5381C57.3023 29.5395 57.301 29.5408 57.2983 29.5421C57.293 29.5448 57.2876 29.5475 57.2823 29.5501C57.2796 29.5515 57.2756 29.5542 57.2729 29.5555C57.2689 29.5582 57.2635 29.5595 57.2595 29.5622C57.2568 29.5635 57.2541 29.5648 57.2501 29.5662C57.2434 29.5688 57.2367 29.5715 57.23 29.5742C57.2287 29.5742 57.2287 29.5755 57.2273 29.5755C57.222 29.5782 57.2153 29.5809 57.2086 29.5822C57.1978 29.5862 57.1871 29.5902 57.1764 29.5929C57.1697 29.5955 57.163 29.5969 57.1563 29.5982C57.155 29.5982 57.1536 29.5995 57.1536 29.5995C57.1496 29.6009 57.1442 29.6022 57.1402 29.6035C57.1322 29.6049 57.1255 29.6076 57.1174 29.6089C57.1134 29.6102 57.1081 29.6116 57.104 29.6116C57.0973 29.6129 57.0906 29.6142 57.0839 29.6156C57.0759 29.6169 57.0692 29.6182 57.0612 29.6196C57.0598 29.6196 57.0585 29.6196 57.0571 29.6196C57.0491 29.6209 57.0424 29.6209 57.0357 29.6222C57.0277 29.6236 57.0196 29.6236 57.0116 29.6236L54.5889 13.1028L54.5849 13.0774L54.3879 11.7304L54.0127 10.1577C54.0435 10.1644 54.0743 10.1724 54.1065 10.1791C54.1279 10.1844 54.148 10.1884 54.1681 10.1938C54.1708 10.1951 54.1748 10.1951 54.1789 10.1964C54.215 10.2044 54.2512 10.2138 54.2874 10.2218C54.3182 10.2298 54.3504 10.2365 54.3812 10.2445C58.5968 11.2711 62.4613 13.2122 65.7483 15.8622C65.7576 15.8676 65.767 15.8756 65.7764 15.8836Z" fill="#F9B411"/>
<path d="M57.8121 29.1575L57.3659 29.4819C57.3565 29.4886 57.3471 29.4952 57.3377 29.5019C57.3324 29.5059 57.327 29.5086 57.3217 29.5126C57.3203 29.5139 57.319 29.5153 57.3163 29.5153C57.3109 29.5193 57.3042 29.5219 57.2989 29.5259C57.2962 29.5273 57.2949 29.5286 57.2922 29.53C57.2868 29.5326 57.2815 29.5353 57.2761 29.538C57.2734 29.5393 57.2694 29.542 57.2667 29.5433C57.2627 29.546 57.2573 29.5473 57.2533 29.55C57.2506 29.5513 57.248 29.5526 57.2439 29.554C57.2372 29.5567 57.2305 29.5593 57.2238 29.562C57.2225 29.562 57.2225 29.5633 57.2212 29.5633C57.2158 29.566 57.2091 29.5687 57.2024 29.57C57.1917 29.574 57.181 29.578 57.1702 29.5807C57.1635 29.5834 57.1568 29.5847 57.1501 29.586C57.1488 29.586 57.1475 29.5874 57.1475 29.5874C57.1434 29.5887 57.1381 29.59 57.1341 29.5914C57.126 29.5927 57.1193 29.5954 57.1113 29.5967C57.1073 29.598 57.1019 29.5994 57.0979 29.5994C57.0912 29.6007 57.0845 29.602 57.0778 29.6034C57.0697 29.6047 57.063 29.606 57.055 29.6074C57.0537 29.6074 57.0523 29.6074 57.051 29.6074C57.0429 29.6087 57.0362 29.6087 57.0295 29.6101C57.0215 29.6114 57.0135 29.6114 57.0054 29.6114C56.9974 29.6114 56.9893 29.6127 56.98 29.6127C56.9505 29.6141 56.921 29.6127 56.8915 29.6101C56.8808 29.6087 56.8701 29.6087 56.8594 29.606C56.854 29.606 56.8486 29.6047 56.8433 29.6034C56.8326 29.602 56.8218 29.6007 56.8125 29.598C56.8044 29.5967 56.7964 29.5954 56.7883 29.5927C56.7602 29.586 56.7307 29.578 56.7026 29.5687L56.0634 29.3377L56.054 29.3337L45.5204 13.3135L45.5164 13.3068L54.5801 13.0639L54.7248 13.0599H54.7409L57.8121 29.1575Z" fill="#F8950C"/>
<path d="M45.3055 8.55079H45.3159L45.3055 8.55374V8.55079Z" fill="#F97008"/>
<path d="M54.7373 13.0877L54.5926 13.0917L45.541 13.3147H45.5289H45.5182V13.3133V13.312L45.3507 9.47783C45.3574 9.47783 45.3628 9.47649 45.3695 9.47649C45.3775 9.47649 45.3869 9.47516 45.3949 9.47516C45.7741 9.44846 46.156 9.42977 46.5406 9.41775C46.8408 9.40841 47.1409 9.4044 47.4384 9.4044C47.4692 9.4044 47.4987 9.4044 47.5295 9.4044C47.5603 9.4044 47.5898 9.4044 47.6206 9.4044C47.6314 9.4044 47.6407 9.4044 47.6501 9.4044C47.685 9.4044 47.7198 9.4044 47.7546 9.40574H47.756C47.7975 9.40574 47.8404 9.40707 47.8819 9.40707C47.9208 9.40707 47.9597 9.40841 47.9972 9.40841C48.0012 9.40841 48.0052 9.40841 48.0092 9.40841C48.0146 9.40841 48.0186 9.40841 48.024 9.40841C48.036 9.40841 48.0494 9.40841 48.0615 9.40974C48.0682 9.40974 48.0736 9.40974 48.0803 9.40974C48.087 9.40974 48.0923 9.40974 48.099 9.40974C48.1379 9.41108 48.1781 9.41108 48.2169 9.41241C48.2464 9.41241 48.2772 9.41375 48.308 9.41508C48.3389 9.41642 48.371 9.41642 48.4018 9.41775C48.4327 9.41909 48.4621 9.41909 48.493 9.42042C48.5198 9.42176 48.5452 9.42176 48.572 9.42309C48.6028 9.42443 48.6337 9.42576 48.6645 9.4271C48.6913 9.42843 48.7181 9.42977 48.7449 9.4311C48.7663 9.43244 48.7891 9.43244 48.8105 9.43377C48.8414 9.43511 48.8735 9.43644 48.9043 9.43778C48.9191 9.43911 48.9352 9.43911 48.9499 9.44045C48.9526 9.44045 48.9553 9.44045 48.9579 9.44045C48.9606 9.44045 48.9633 9.44045 48.966 9.44045C48.9727 9.44045 48.9807 9.44045 48.9874 9.44178L49.0839 9.44712C49.1201 9.44846 49.1563 9.45113 49.1924 9.4538C49.2112 9.45513 49.2286 9.45647 49.2474 9.45647C49.2742 9.4578 49.3023 9.45914 49.3291 9.46181C49.364 9.46448 49.3988 9.46581 49.4336 9.46848C49.4725 9.47115 49.5127 9.47382 49.5516 9.47649C49.5596 9.47649 49.5663 9.47783 49.5743 9.47783L49.6011 9.47916C49.6159 9.4805 49.6306 9.48183 49.6467 9.48183C49.7177 9.48717 49.7887 9.49251 49.8584 9.49785C49.8906 9.50052 49.9214 9.50319 49.9535 9.50586C49.9817 9.50853 50.0112 9.5112 50.0393 9.51387C50.0715 9.51654 50.105 9.51921 50.1371 9.52322C50.184 9.52722 50.2296 9.53123 50.2765 9.53657C50.306 9.53924 50.3368 9.54191 50.3676 9.54591C50.3703 9.54591 50.3743 9.54591 50.377 9.54725C50.4011 9.54992 50.4252 9.55259 50.448 9.55392C50.4547 9.55526 50.4627 9.55526 50.4694 9.55659C50.4949 9.55926 50.519 9.56193 50.5445 9.5646C50.5539 9.56594 50.5632 9.56594 50.5726 9.56727C50.6088 9.57128 50.645 9.57528 50.6812 9.57929C50.6865 9.57929 50.6932 9.58062 50.6986 9.58062C50.7535 9.5873 50.8085 9.59264 50.8647 9.59932C50.9438 9.60866 51.0229 9.61801 51.1006 9.62735C51.126 9.63002 51.1528 9.63403 51.1796 9.6367C51.2171 9.64204 51.256 9.64604 51.2935 9.65138C51.327 9.65539 51.3619 9.66073 51.3954 9.66473C51.4289 9.66874 51.4637 9.67408 51.4972 9.67808C51.532 9.68342 51.5655 9.68743 51.599 9.69277C51.6325 9.69811 51.6647 9.70211 51.6982 9.70745C51.7022 9.70745 51.7049 9.70879 51.7089 9.70879C51.7411 9.71279 51.7719 9.71813 51.8041 9.72347C51.8335 9.72748 51.863 9.73282 51.8925 9.73682C51.9113 9.73949 51.93 9.74216 51.9474 9.74483C51.9702 9.74884 51.9917 9.75151 52.0144 9.75551C52.0453 9.76085 52.0761 9.76486 52.1069 9.7702C52.1752 9.78088 52.2422 9.79156 52.3092 9.80357C52.3427 9.80891 52.3762 9.81559 52.4111 9.82093C52.4446 9.82627 52.4781 9.83294 52.5116 9.83828C52.5451 9.84362 52.5786 9.8503 52.6121 9.85564C52.6456 9.86098 52.6791 9.86765 52.7126 9.87433C52.7796 9.88634 52.8466 9.89969 52.9136 9.91171C52.9471 9.91838 52.9806 9.92506 53.0141 9.9304C53.0476 9.93707 53.0811 9.94375 53.1146 9.95042C53.1427 9.95576 53.1695 9.9611 53.1976 9.96644C53.211 9.96911 53.2244 9.97178 53.2378 9.97445C53.2633 9.97979 53.2888 9.98513 53.3156 9.99047C53.345 9.99581 53.3732 10.0025 53.4027 10.0078C53.4402 10.0158 53.4777 10.0239 53.5152 10.0319C53.5487 10.0385 53.5822 10.0465 53.6144 10.0532C53.6479 10.0599 53.68 10.0679 53.7135 10.0746C53.747 10.0813 53.7805 10.0893 53.8127 10.0959C53.8462 10.104 53.8784 10.1106 53.9119 10.1186C53.9454 10.1266 53.9775 10.1333 54.011 10.1413C54.0418 10.148 54.0727 10.156 54.1048 10.1627C54.1263 10.168 54.1463 10.172 54.1664 10.1774C54.1691 10.1787 54.1731 10.1787 54.1772 10.18C54.2133 10.1881 54.2495 10.1974 54.2857 10.2054C54.3165 10.2134 54.3487 10.2201 54.3795 10.2281L54.555 11.6539L54.7279 13.057L54.7373 13.0877Z" fill="#F97008"/>
<path d="M45.5392 13.3688L45.5366 13.3715L35.7306 21.989L35.689 22.0264L35.6569 22.0545L35.6421 22.0104L35.618 21.9503L32.3203 13.5985C32.461 13.513 32.603 13.4289 32.7451 13.3475C36.4903 11.1727 40.7662 9.80302 45.3476 9.47728C45.3543 9.47728 45.3597 9.47594 45.3664 9.47594C45.3744 9.47594 45.3838 9.47461 45.3918 9.47461C45.3878 9.50531 45.3851 9.53602 45.3878 9.53602L45.5366 13.3074V13.3141L45.5379 13.3328L45.5392 13.3688Z" fill="#F46E0F"/>
<path d="M35.6264 21.9437L35.6237 21.9423L27.2408 18.9118C26.745 18.7329 26.6057 18.0895 26.9822 17.7223C28.5942 16.151 30.3857 14.7626 32.3274 13.5918C32.4681 13.5064 32.6101 13.4223 32.7521 13.3408L35.6264 21.9437Z" fill="#F24C1C"/>
<path d="M56.0716 29.3331L45.5314 13.3076L45.5273 13.3009L45.5206 13.3062L35.6798 21.9625L56.0623 29.3291L56.0716 29.3331Z" fill="#FD5E12"/>
<path d="M69.566 21.181C68.4042 21.7764 67.1446 22.5293 65.7872 23.4398L65.7725 23.4505L65.9319 16.0024C65.9426 16.0118 65.9547 16.0198 65.9654 16.0291C66.8511 16.7554 67.6927 17.535 68.4873 18.3614L68.494 18.3681L69.5767 21.1743L69.566 21.181Z" fill="#F2E21B"/>
<path d="M20.2395 46.11L32.097 43.4199L32.4293 43.3438L32.5419 43.3184L32.5472 43.3171L32.5781 43.3104L32.6183 43.3011L32.6263 43.2997L32.6719 43.2891L32.6692 43.1729L32.5057 35.0093L32.5017 34.7984L32.4936 34.4126L32.4896 34.239L32.4642 32.9561L25.2537 31.2673L25.0058 31.2099L23.9218 30.9562L23.8106 30.9308L22.8846 30.7146L22.5805 31.2058L22.4599 31.4021L18.0017 38.6058C17.9977 39.0491 18.0004 39.507 18.0125 39.9782C18.0352 41.0155 18.0781 41.7818 18.1331 42.3572C18.2483 43.5734 18.4131 43.9299 18.5284 44.1595C18.8768 44.8337 19.3591 45.3997 19.9353 45.8737L20.2395 46.11Z" fill="#E62878"/>
<path d="M27.7003 28.5249L25.2455 31.263L24.5326 32.0586L24.5313 32.06L24.5259 32.0653L24.5112 32.0813L24.4978 32.096L24.4683 32.0466L24.2633 31.7009L23.8023 30.9239L20.9374 26.0965C20.9843 26.0244 21.0366 25.9563 21.0915 25.8935C21.6717 25.2367 22.6848 25.0819 23.4526 25.6065L26.8401 27.9334L27.7003 28.5249Z" fill="#EA4118"/>
<path d="M24.544 32.0898L24.5319 32.0858L24.5279 32.0845L24.4743 32.0671L22.4576 31.4157L19.2148 30.3677C19.2282 30.3223 19.243 30.2782 19.2564 30.2342C19.7147 28.7964 20.2573 27.5308 20.8188 26.3399C20.855 26.2612 20.8965 26.1864 20.9434 26.117C20.9903 26.0449 21.0426 25.9768 21.0975 25.9141L24.0763 30.7962L24.6592 31.8389L24.5306 32.0671L24.5346 32.0752L24.5373 32.0805L24.5386 32.0832L24.544 32.0898Z" fill="#DB292F"/>
<path d="M24.6802 31.8225L24.5368 32.0534L24.5342 32.0588L24.5301 32.0641L24.5194 32.0815L18.1331 42.3517C18.0781 41.7763 18.0339 41.0087 18.0125 39.9727C18.0004 39.5015 17.9977 39.0449 18.0017 38.6003C18.0366 35.1974 18.523 32.5647 19.2158 30.3459C19.2292 30.3005 19.2439 30.2565 19.2573 30.2124L22.5791 31.199L24.2702 31.701L24.3533 31.7263L24.6601 31.8171L24.6802 31.8225Z" fill="#D61D4C"/>
<path d="M39.1083 36.3695L32.4915 34.4177L32.068 34.2922L31.9072 34.2454L31.7947 34.2121L24.5373 32.0707H24.5346L24.5306 32.0694L24.5226 32.0667L24.5293 32.056V32.0547L24.6579 31.8277L25.0023 31.215L26.8448 27.9428L27.705 28.5342L37.9398 35.5658V35.5671L38.0028 35.6098L39.1083 36.3695Z" fill="#E8313E"/>
<path d="M40.8376 37.5586L39.105 36.3677L37.9995 35.6081L37.9365 35.5654V35.5641L32.4841 34.2424L31.9039 34.1009L31.7793 34.0715L31.7686 34.0688L31.7806 34.0835L31.9039 34.2437L32.5002 35.0127L36.0726 39.6265L36.0873 39.6452L36.1302 39.7013L36.283 39.6332L36.496 39.5384L40.8737 37.5839L40.8376 37.5586Z" fill="#E92B5F"/>
<path d="M36.2441 39.4449L31.7686 33.938L32.5591 43.5301L36.2441 39.4449Z" fill="#F5368D"/>
<path d="M19.9277 45.8722L20.2319 46.1085C22.2754 47.5997 25.297 48.0857 27.7251 48.2071L27.768 48.2098L32.5396 43.353L32.5437 43.349L32.5718 43.321L32.5423 43.3263L32.537 43.3277L32.5343 43.2275L32.0358 43.3424L19.9277 45.8722Z" fill="#C91D7B"/>
<path d="M27.7743 48.2152C28.3961 48.2459 28.9776 48.2525 29.4922 48.2459C30.725 48.2365 31.9202 47.8467 32.9279 47.1351L32.9842 47.0951L32.6331 43.4638L32.6224 43.361L32.617 43.3063L32.6157 43.2956L32.6103 43.2382L32.5768 43.2729L32.5447 43.2275L32.538 43.2342L32.5313 43.2409L32.4267 43.349L32.4174 43.3597L27.7314 48.2125L27.7743 48.2152Z" fill="#8D1171"/>
<path d="M40.8425 37.5537L36.4206 39.4388L36.2491 39.4428L36.1378 39.5589L36.2062 39.6604L36.0869 39.6123L36.0923 39.6417L36.1392 39.902L36.919 44.2421C37.0209 44.1687 37.1227 44.0939 37.2259 44.0205C37.2353 44.0138 37.2447 44.0072 37.254 44.0005C38.6731 42.9725 40.0921 41.9446 41.5112 40.9193C42.5135 40.1864 42.4934 38.6898 41.471 37.9863L40.88 37.5804L40.8425 37.5537Z" fill="#EB2D7D"/>
<path d="M37.2237 44.028C37.1219 44.1014 37.0201 44.1761 36.9169 44.2496C36.2965 44.6995 35.6747 45.1494 35.0543 45.5993C35.0047 45.6353 34.9538 45.6714 34.9042 45.7074L32.6772 43.4205L32.6222 43.3631L32.5767 43.3164L32.5566 43.295L32.5847 43.2657L32.6102 43.239L32.6678 43.1789L36.0754 39.6291L36.0848 39.6197L36.1357 39.5677L36.2469 39.4515L36.2603 39.5143L36.2857 39.6358L36.3072 39.7345L37.2237 44.028Z" fill="#F0328E"/>
<path d="M32.9883 47.0903C32.9923 47.0876 32.995 47.0849 32.999 47.0823C33.6355 46.6217 34.2733 46.1611 34.9098 45.7005C34.9594 45.6645 35.0103 45.6284 35.0599 45.5924L32.7149 43.3803L32.6291 43.3002L32.6198 43.2908L32.5876 43.2615L32.5487 43.2241L32.5407 43.2174L32.5353 43.2374L32.5434 43.3202L32.5447 43.3309L32.5474 43.3562L32.9306 47.1317" fill="#CF2284"/>
<path d="M51.3089 53.2719L43.7929 62.3914L43.7004 62.5049L43.6844 62.5249L43.6589 62.5543L43.6268 62.5943L43.6201 62.6023L43.6147 62.609L43.5879 62.6424V50.9316L43.6281 50.9089C45.5778 49.7942 47.1147 49.1213 47.8209 48.9304C48.791 48.5993 50.0171 48.8957 50.3159 49.897L51.1333 52.6671L51.1347 52.6738L51.3089 53.2719Z" fill="#FC772A"/>
<path d="M43.5851 50.9213C42.5051 51.5421 41.346 52.3511 40.2312 53.3991C40.1869 53.4405 40.1427 53.4819 40.0985 53.5246L43.5503 62.4385L43.5677 62.4826L43.5851 62.5279L43.6012 62.5693L43.6133 62.5987L43.6186 62.6121L43.6267 62.6321V62.6294V62.584V62.4585V62.4505V62.4211V62.4091V50.9L43.5851 50.9213Z" fill="#C32979"/>
<path d="M34.6805 65.1033L43.5954 62.7043L43.6383 62.6936L43.7067 62.6749L43.6879 62.6228L43.6598 62.5467L43.6464 62.5107L43.6276 62.46L43.6236 62.4493L43.6142 62.4266V62.4252L43.5874 62.3532L40.2334 53.4005C40.1892 53.4419 40.145 53.4833 40.1008 53.526C39.1869 54.4031 38.3065 55.4431 37.5267 56.6753C36.0513 58.9943 35.0584 61.8045 34.7328 64.6027L34.6805 65.1033Z" fill="#891F85"/>
<path d="M56.3151 70.2289L43.7246 62.6446L43.7045 62.6326L43.6871 62.6206L43.6643 62.6086L43.6255 62.5846L43.6148 62.5779L43.6014 62.5699L43.5853 62.5605L43.533 62.5285L43.5679 62.4831L43.5853 62.4604L43.5906 62.4524L43.6027 62.4364L43.6121 62.4244L43.6134 62.423L43.6255 62.407L51.1307 52.6574L51.1321 52.6641L51.3089 53.2622L56.2414 69.9792L56.2561 70.0299L56.2588 70.038L56.3151 70.2289Z" fill="#AABF56"/>
<path d="M43.7536 62.5301L43.7241 62.6463L43.7134 62.685L43.6692 62.8599L39.9909 77.2287C39.9655 77.2033 39.94 77.1779 39.9145 77.1539C37.177 74.4612 36.3046 73.0661 36.3046 73.0661C34.899 70.8286 34.4273 67.989 34.6806 65.1027L34.7315 64.6021L43.5513 62.4394L43.5861 62.43H43.5874L43.5915 62.4287L43.6142 62.4233H43.6156L43.6276 62.4087L43.7536 62.5301Z" fill="#5C40AE"/>
<path d="M47.8403 84.2339L47.6527 84.1671C47.4678 84.087 47.2963 83.9682 47.1502 83.8107L46.4253 83.0364C46.4146 83.0257 46.4065 83.0163 46.3971 83.0057C46.3811 82.987 46.3663 82.9696 46.3462 82.9576C45.4538 82.1339 44.7892 81.5291 44.6699 81.429C42.7149 79.7963 41.1819 78.3932 39.9934 77.2291C39.9679 77.2037 39.9425 77.1783 39.917 77.1543L43.5966 62.7041L43.6194 62.6146L43.622 62.6053L43.6274 62.5853L43.6462 62.5105L43.6569 62.4691L43.6475 62.4277L43.6783 62.4825L43.685 62.5172L43.7078 62.6347L43.7172 62.6854L46.6973 78.2637L46.8568 79.1007L47.8403 84.2339Z" fill="#306DDE"/>
<path d="M56.884 72.1463L46.9119 79.1231L46.9025 79.079L46.8596 79.0937L46.6988 78.2633L45.0506 69.6498L43.7133 62.8426L43.6986 62.7638L43.6812 62.6744L43.6691 62.6143L43.6678 62.6103L43.6637 62.5876L43.6611 62.5769L43.6584 62.5622L43.6477 62.5088L43.6289 62.4087L43.6678 62.4327L43.6704 62.4341L43.7991 62.5115L56.2448 69.9809L56.2596 70.0316L56.2623 70.0396L56.3185 70.2305L56.8157 71.918L56.8813 72.1383L56.884 72.1463Z" fill="#286EC3"/>
<path d="M57.1404 75.5355C54.5838 78.4031 52.4143 80.6313 51.1534 81.9249C50.5652 82.5283 50.1752 82.9288 50.0372 83.0957C50.0238 83.1024 50.0158 83.113 50.005 83.1251C49.9997 83.1317 49.9943 83.1384 49.9863 83.1464L49.3618 83.8113C48.9612 84.2385 48.3662 84.3826 47.8396 84.2345L47.652 84.1677L46.8574 79.1L46.8614 79.0973L46.9003 79.0693L56.8148 71.9189L56.8791 72.1379L56.8818 72.1459L57.458 74.0964C57.6068 74.6037 57.4875 75.1483 57.1404 75.5355Z" fill="#2A66C6" stroke="#2A66C6" stroke-width="0.00462487"/>
<path d="M71.0567 5.99895C69.103 5.99895 67.5205 7.57827 67.5205 9.52473C67.5205 11.4725 69.1044 13.0505 71.0567 13.0505C73.0104 13.0505 74.5929 11.4712 74.5929 9.52473C74.5929 7.57827 73.0104 5.99895 71.0567 5.99895Z" fill="#E3D01E"/>
<path d="M23.3823 49.2432C22.2044 49.2432 21.249 50.195 21.249 51.3698C21.249 52.5447 22.2044 53.4965 23.3823 53.4965C24.5601 53.4965 25.5155 52.5447 25.5155 51.3698C25.5155 50.195 24.5601 49.2432 23.3823 49.2432Z" fill="#C91D7B"/>
</g>
<g opacity="0.45" filter="url(#filter0_f_2_2)">
<ellipse cx="48.8364" cy="91.9741" rx="25.7007" ry="2.56054" fill="#2C66C7"/>
</g>
<g opacity="0.14" filter="url(#filter1_f_2_2)">
<ellipse cx="49.6905" cy="91.9741" rx="11.137" ry="2.56054" fill="#2C66C7"/>
</g>
<defs>
<filter id="filter0_f_2_2" x="20.1789" y="86.4568" width="57.3149" height="11.0347" filterUnits="userSpaceOnUse" color-interpolation-filters="sRGB">
<feFlood flood-opacity="0" result="BackgroundImageFix"/>
<feBlend mode="normal" in="SourceGraphic" in2="BackgroundImageFix" result="shape"/>
<feGaussianBlur stdDeviation="1.47841" result="effect1_foregroundBlur_2_2"/>
</filter>
<filter id="filter1_f_2_2" x="36.7795" y="87.6395" width="25.8221" height="8.66925" filterUnits="userSpaceOnUse" color-interpolation-filters="sRGB">
<feFlood flood-opacity="0" result="BackgroundImageFix"/>
<feBlend mode="normal" in="SourceGraphic" in2="BackgroundImageFix" result="shape"/>
<feGaussianBlur stdDeviation="0.887044" result="effect1_foregroundBlur_2_2"/>
</filter>
<clipPath id="clip0_2_2">
<rect width="63.2163" height="78.3013" fill="white" transform="translate(18 6)"/>
</clipPath>
</defs>
</svg>
