<svg xmlns="http://www.w3.org/2000/svg" width="62" height="62" fill="none"><path fill-rule="evenodd" d="M46.992 9.178H14.468a5.07 5.07 0 0 0-5.071 5.064v32.477a5.07 5.07 0 0 0 5.071 5.092h32.525a5.07 5.07 0 0 0 5.064-5.092V14.242a5.07 5.07 0 0 0-5.064-5.064zM27.795 39.884c-.002.451-.183.882-.504 1.199s-.754.493-1.205.489h-7.108a1.69 1.69 0 0 1-1.681-1.688V18.732a1.69 1.69 0 0 1 1.681-1.688h7.108c.931.004 1.684.757 1.688 1.688l.021 21.152zm16.402-9.712a1.69 1.69 0 0 1-1.709 1.688h-7.108c-.931-.004-1.684-.758-1.688-1.688V18.732c.004-.931.757-1.684 1.688-1.688h7.108a1.69 1.69 0 0 1 1.681 1.688l.027 11.441z" fill="url(#A)"/><defs><linearGradient id="A" x1="30.747" y1="51.81" x2="30.747" y2="9.178" gradientUnits="userSpaceOnUse"><stop stop-color="#0052cc"/><stop offset="1" stop-color="#2684ff"/></linearGradient></defs></svg>