<svg width="62" height="62" viewBox="0 0 62 62" fill="none" xmlns="http://www.w3.org/2000/svg"><path d="M39.6775 37.0295V49.0093C38.138 49.8884 35.8015 51.2341 34.3287 52.0961L24.5302 46.4341C24 46.1241 23.0295 45.5721 22.3194 45.1706V23.6202C23.3256 23.045 24.6822 22.262 25.5395 21.7597L27.3752 20.6977C27.4713 20.6403 27.5721 20.5938 27.6853 20.5349L31.6884 22.8496C31.569 22.9271 31.4884 22.9845 31.4031 23.0341C29.9814 23.8527 28.5628 24.6791 27.1395 25.4899C26.8963 25.613 26.6936 25.8037 26.5561 26.0391C26.4186 26.2746 26.3521 26.5447 26.3643 26.8171C26.3705 31.8651 26.3705 36.9152 26.3643 41.9675C26.3513 42.2347 26.416 42.5002 26.5505 42.7315C26.6851 42.963 26.8837 43.1504 27.1225 43.2713C29.293 44.5189 31.4594 45.7695 33.6217 47.0233C34.5845 47.5799 35.6543 46.9768 35.6651 45.8605C35.6791 44.6481 35.6651 43.4372 35.6651 42.2248C35.6651 41.3954 35.6651 39.9985 35.6651 38.9783L39.4636 36.7969C39.5225 36.7644 39.5876 36.7411 39.6853 36.6977L39.6775 37.0295ZM34.8388 21.6217C35.1005 21.7546 35.3178 21.9609 35.4643 22.2153C35.6108 22.4697 35.68 22.7612 35.6636 23.0543C35.6512 24.6636 35.6636 26.2744 35.6636 27.8868V28.2512C35.8046 28.1768 35.893 28.1333 35.9736 28.0806C37.0077 27.4837 38.5426 26.5876 39.6791 25.938C39.6791 24.1163 39.6791 21.8093 39.6791 20.0465C39.6791 19.955 39.6698 19.8636 39.6682 19.7674L21.0217 9C20.8496 9.09457 20.6946 9.17674 20.5458 9.26357C16.8791 11.3783 12.6946 13.7923 9 15.9147C9.01085 17.7318 9 20.0062 9 21.7845V22.0946C12.5504 24.1426 16.0822 26.1799 19.6682 28.2512C19.6775 28.0884 19.6853 27.9892 19.6853 27.8884C19.6853 26.6372 19.6853 24.9085 19.6853 23.6062C17.8434 22.5504 15.5706 21.2403 13.7799 20.1954C13.6032 20.0959 13.4457 19.9657 13.3147 19.8109C13.1984 19.6577 13.1168 19.4812 13.0755 19.2933C13.0343 19.1055 13.0344 18.911 13.0758 18.7232C13.1173 18.5354 13.1991 18.3589 13.3156 18.2059C13.432 18.053 13.5804 17.9271 13.7504 17.8372C15.9209 16.5969 18.0873 15.3463 20.2496 14.0853C20.4775 13.9352 20.7443 13.8553 21.0171 13.8553C21.2899 13.8553 21.5567 13.9352 21.7845 14.0853C22.7628 14.6651 23.7535 15.2295 24.7395 15.7907C28.1039 17.739 31.4702 19.6827 34.8388 21.6217ZM52.9938 12.0729C51.7039 11.3349 49.9504 10.3256 48.8915 9.71473C48.4775 9.47442 48.0589 9.23876 47.6512 9.00465C44.0853 11.0605 40.5426 13.107 36.9674 15.1721C38.3426 15.9628 39.6636 16.7225 40.9876 17.4977C41.0899 17.4419 41.1783 17.3954 41.2667 17.3426C42.3344 16.7287 43.4 16.1142 44.4636 15.4992C45.2822 15.0289 46.0992 14.5571 46.9147 14.0837C47.1184 13.9478 47.356 13.8711 47.6006 13.862C47.8453 13.853 48.0878 13.912 48.3009 14.0325C48.5141 14.153 48.6898 14.3303 48.8082 14.5446C48.9267 14.7589 48.9834 15.0019 48.9721 15.2465C48.9721 17.7602 48.9721 20.2744 48.9721 22.7892C48.9743 22.9116 48.9623 23.0338 48.9364 23.1535C48.8403 23.6 48.5442 23.876 48.1612 24.0946C46.7081 24.9214 45.2609 25.7555 43.8202 26.5969C40.8972 28.2826 37.9757 29.9701 35.0558 31.6589C34.837 31.7952 34.5839 31.8665 34.3262 31.8642C34.0684 31.862 33.8164 31.7865 33.6 31.6465L29.4139 29.2279C29.2915 29.1597 29.1643 29.0977 28.9953 29.0093V29.355V33.3256C28.9859 33.4248 29.0077 33.5245 29.0578 33.6107C29.1077 33.6969 29.1836 33.7653 29.2744 33.8062C30.4356 34.462 31.586 35.1333 32.7411 35.8C33.2729 36.1101 33.8062 36.4109 34.3395 36.7178L34.9395 36.3752C38.0186 34.5974 41.0992 32.8186 44.1814 31.0388C46.8822 29.4791 50.2279 27.555 53 25.9659C52.9891 21.7737 52.9892 16.1535 52.9938 12.0729Z" fill="url(#paint0_linear_2439_35)"/><defs><linearGradient id="paint0_linear_2439_35" x1="15.6946" y1="40.8186" x2="46.0465" y2="11.4961" gradientUnits="userSpaceOnUse"><stop stop-color="#D70F8D"/><stop offset="0.18" stop-color="#D8138C"/><stop offset="0.35" stop-color="#DA1D88"/><stop offset="0.51" stop-color="#DF3081"/><stop offset="0.66" stop-color="#E54978"/><stop offset="0.81" stop-color="#EC6A6D"/><stop offset="0.95" stop-color="#F6925E"/><stop offset="1" stop-color="#F9A159"/></linearGradient></defs></svg>