<svg version="1.1" id="Layer_1" xmlns:x="ns_extend;" xmlns:i="ns_ai;" xmlns:graph="ns_graphs;" xmlns="http://www.w3.org/2000/svg" xmlns:xlink="http://www.w3.org/1999/xlink" x="0px" y="0px" viewBox="0 0 25.9 38" style="enable-background:new 0 0 25.9 38;" xml:space="preserve">
 <style type="text/css">
  .st0{fill:#58B3CD;}
	.st1{fill:#1AB96D;}
	.st2{fill:#010A59;}
 </style>
 <metadata>
  <sfw xmlns="ns_sfw;">
   <slices>
   </slices>
   <sliceSourceBounds bottomLeftOrigin="true" height="38" width="25.9" x="101.3" y="18.3">
   </sliceSourceBounds>
  </sfw>
 </metadata>
 <g>
  <path class="st0" d="M19.5,19.6v-1.1h6.4c-0.1-1.6-0.8-3.1-2-4.2c-1.1-1.1-2.5-1.8-4.1-2c-1.5-0.2-3.1,0.2-4.4,1
		c-1.3,0.8-2.3,2.1-2.8,3.5c-0.5,1.5-0.5,3.1,0.1,4.5s1.5,2.7,2.9,3.5c1.3,0.8,2.9,1.1,4.4,0.9c1.5-0.2,3-0.9,4-2.1
		c1.1-1.1,1.7-2.6,1.8-4.1L19.5,19.6z">
  </path>
  <path class="st1" d="M6.5,31.5h1.1V38c1.6-0.1,3.1-0.8,4.2-2c1.1-1.1,1.8-2.5,2-4.1c0.2-1.6-0.2-3.1-1-4.4
		c-0.8-1.3-2.1-2.3-3.5-2.8c-1.5-0.5-3.1-0.5-4.5,0.1c-1.5,0.5-2.7,1.6-3.5,2.9c-0.8,1.3-1.1,2.9-0.9,4.5c0.2,1.5,0.9,3,2.1,4.1
		c1.1,1.1,2.6,1.7,4.1,1.9L6.5,31.5z">
  </path>
  <path class="st2" d="M7.5,6.9L6.7,6.1l4.6-4.5C9.9,0.5,8.2-0.1,6.4,0S3,0.9,1.8,2.2C0.6,3.5,0,5.2,0,6.9c0,1.8,0.8,3.4,2,4.7
		c1.2,1.2,2.9,2,4.7,2c1.8,0,3.5-0.6,4.8-1.8c1.3-1.2,2.1-2.8,2.2-4.6c0.1-1.7-0.5-3.5-1.6-4.8L7.5,6.9z">
  </path>
 </g>
</svg>