<svg width="44" height="33" viewBox="0 0 44 33" fill="none" xmlns="http://www.w3.org/2000/svg"><path fill-rule="evenodd" clip-rule="evenodd" d="M30.1822 31.8874C30.2411 32.3953 29.8313 32.8173 29.3234 32.8173H16.4816C15.9859 32.8173 15.5981 32.4296 15.5981 31.934V14.0296C15.5981 13.5731 15.2497 13.1854 14.7908 13.1142C12.0865 12.6946 3.40416 10.5694 0.0495476 1.16811C-0.146773 0.620863 0.2655 0.014724 0.842192 0H10.5601C18.5896 0.350922 24.6142 5.48716 27.0387 12.4663L27.0534 12.4516C29.0707 18.2676 29.954 28.7218 30.1822 31.8874Z" fill="#0C70F2"/><path fill-rule="evenodd" clip-rule="evenodd" d="M43.9546 1.01596C40.7914 10.1154 34.2884 12.2259 30.5289 13.016C30.1263 13.0774 29.7436 12.8369 29.6379 12.4492C28.4404 8.21357 26.7743 5.89207 24.6123 3.89206C24.2467 3.55585 24.2613 2.962 24.6834 2.69451C27.2134 1.02087 30.3375 0.00981604 34.2367 0.00490801V0H43.2184C43.7485 0 44.1338 0.522704 43.9546 1.01596Z" fill="#0C70F2"/></svg>