<svg xmlns="http://www.w3.org/2000/svg" width="62" height="62" fill="none"><path d="M9 30.634C9 18.687 18.85 9 31 9s22 9.686 22 21.634-9.85 21.633-22 21.633S9 42.58 9 30.634z" fill="#2ca01c"/><path d="M38.137 23.096c4.362 0 7.896 3.458 7.896 7.722s-3.535 7.723-7.896 7.723h-5.644v-20.74c1.619 0 2.932 1.284 2.932 2.869v15.002h2.711c2.737 0 4.964-2.178 4.964-4.854s-2.227-4.853-4.964-4.853H37.01v-2.869h1.128zM16.7 30.816c0-4.264 3.535-7.722 7.896-7.722h5.644v20.74c-1.62 0-2.933-1.284-2.933-2.869V25.963h-2.71c-2.737 0-4.964 2.177-4.964 4.853s2.227 4.854 4.964 4.854h1.128v2.869h-1.128c-4.362 0-7.896-3.459-7.896-7.723z" fill="#fff"/></svg>