<svg version="1.0" xmlns="http://www.w3.org/2000/svg" width="62" height="62" viewBox="0 0 46.5 46.5" fill="#000"><rect width="62" height="62" rx="31" fill="#fff"/><path d="M0 23.25V46.5h46.5V0H0zm23.085 -10.292c0.062 0.145 -0.496 0.868 -1.219 1.612L20.543 15.913H17.112c-3.141 0 -3.451 0.041 -3.968 0.434 -0.517 0.413 -0.537 0.496 -0.537 2.666 0 2.563 -0.083 2.687 -1.653 2.687s-1.653 -0.124 -1.653 -2.728c0 -1.261 0.103 -2.645 0.227 -3.079 0.455 -1.467 1.798 -2.707 3.389 -3.1 1.095 -0.269 10.085 -0.124 10.168 0.165m10.54 -0.041c1.24 0.372 2.583 1.612 2.997 2.749 0.207 0.579 0.269 2.501 0.269 7.585 0 7.647 -0.021 7.833 -1.385 9.176 -1.199 1.219 -2.439 1.529 -5.621 1.426 -2.687 -0.083 -3.369 -0.289 -4.526 -1.385 -1.281 -1.178 -1.385 -1.633 -1.385 -6.365v-4.299l1.447 -1.55c1.178 -1.261 1.467 -1.488 1.653 -1.24 0.124 0.186 0.207 2.335 0.207 5.497 0 4.133 0.062 5.249 0.289 5.58 0.269 0.351 0.558 0.393 2.79 0.393 2.108 0 2.542 -0.062 2.852 -0.372 0.351 -0.331 0.372 -0.909 0.372 -6.861s-0.021 -6.531 -0.372 -6.861c-0.31 -0.331 -0.744 -0.372 -3.121 -0.372 -2.48 0 -2.811 0.041 -3.224 0.413 -0.269 0.227 -3.307 3.472 -6.758 7.233l-6.283 6.82 3.968 0.062c2.501 0.021 4.071 0.145 4.257 0.269 0.165 0.145 0.269 0.682 0.269 1.343 0 1.819 0.207 1.757 -6.345 1.695l-5.683 -0.062 -0.496 -0.579c-0.372 -0.434 -0.496 -0.827 -0.496 -1.591 0 -1.199 -0.806 -0.248 8.701 -10.54 3.72 -4.03 6.985 -7.461 7.254 -7.626 0.992 -0.62 2.191 -0.827 4.733 -0.827 1.736 -0.021 2.935 0.083 3.637 0.289" /></svg>