<?xml version="1.0" standalone="no"?>
<!DOCTYPE svg PUBLIC "-//W3C//DTD SVG 20010904//EN"
 "http://www.w3.org/TR/2001/REC-SVG-20010904/DTD/svg10.dtd">
<svg version="1.0" xmlns="http://www.w3.org/2000/svg"
 width="225.000000pt" height="225.000000pt" viewBox="0 0 225.000000 225.000000"
 preserveAspectRatio="xMidYMid meet">

<g transform="translate(0.000000,225.000000) scale(0.100000,-0.100000)"
fill="#000000" stroke="none">
<path d="M0 1125 l0 -1125 1125 0 1125 0 0 1125 0 1125 -1125 0 -1125 0 0
-1125z m1117 498 c3 -7 -24 -42 -59 -78 l-64 -65 -166 0 c-152 0 -167 -2 -192
-21 -25 -20 -26 -24 -26 -129 0 -124 -4 -130 -80 -130 -76 0 -80 6 -80 132 0
61 5 128 11 149 22 71 87 131 164 150 53 13 488 6 492 -8z m510 2 c60 -18 125
-78 145 -133 10 -28 13 -121 13 -367 0 -370 -1 -379 -67 -444 -58 -59 -118
-74 -272 -69 -130 4 -163 14 -219 67 -62 57 -67 79 -67 308 l0 208 70 75 c57
61 71 72 80 60 6 -9 10 -113 10 -266 0 -200 3 -254 14 -270 13 -17 27 -19 135
-19 102 0 123 3 138 18 17 16 18 44 18 332 0 288 -1 316 -18 332 -15 16 -36
18 -151 18 -120 0 -136 -2 -156 -20 -13 -11 -160 -168 -327 -350 l-304 -330
192 -3 c121 -1 197 -7 206 -13 8 -7 13 -33 13 -65 0 -88 10 -85 -307 -82
l-275 3 -24 28 c-18 21 -24 40 -24 77 0 58 -39 12 421 510 180 195 338 361
351 369 48 30 106 40 229 40 84 1 142 -4 176 -14z"/>
</g>
</svg>
