<svg xmlns="http://www.w3.org/2000/svg" width="62" height="62" fill="none"><style><![CDATA[.B{fill:#fff}.C{fill-rule:evenodd}.D{fill:#409bd2}]]></style><path d="M31 53c12.15 0 22-9.85 22-22S43.15 9 31 9 9 18.85 9 31s9.85 22 22 22z" fill="#007ac3"/><mask id="A" maskUnits="userSpaceOnUse" x="9" y="9" width="44" height="44"><path d="M31 53c12.15 0 22-9.85 22-22S43.15 9 31 9 9 18.85 9 31s9.85 22 22 22z" class="B"/></mask><g mask="url(#A)" class="C"><path d="M15.471 15.472H46.53v31.059H15.471V15.472z" fill="#85bc20"/></g><mask id="B" maskUnits="userSpaceOnUse" x="9" y="9" width="44" height="44"><path d="M31 53c12.15 0 22-9.85 22-22S43.15 9 31 9 9 18.85 9 31s9.85 22 22 22z" class="B"/></mask><g mask="url(#B)" class="C"><path d="M9 25.823h44v10.354H9V25.823z" fill="#a6d1ea"/></g><mask id="C" maskUnits="userSpaceOnUse" x="9" y="9" width="44" height="44"><path d="M31 53c12.15 0 22-9.85 22-22S43.15 9 31 9 9 18.85 9 31s9.85 22 22 22z" class="B"/></mask><g mask="url(#C)" class="C D"><path d="M25.823 25.823H53v10.354H25.823V25.823z"/></g><mask id="D" maskUnits="userSpaceOnUse" x="9" y="9" width="44" height="44"><path d="M31 53c12.15 0 22-9.85 22-22S43.15 9 31 9 9 18.85 9 31s9.85 22 22 22z" class="B"/></mask><g mask="url(#D)" class="C"><path d="M25.823 9h10.354v44H25.823V9z" fill="#a6d1ea"/></g><mask id="E" maskUnits="userSpaceOnUse" x="9" y="9" width="44" height="44"><path d="M31 53c12.15 0 22-9.85 22-22S43.15 9 31 9 9 18.85 9 31s9.85 22 22 22z" class="B"/></mask><g mask="url(#E)" class="C D"><path d="M25.823 25.823h10.354V53H25.823V25.823z"/></g><mask id="F" maskUnits="userSpaceOnUse" x="9" y="9" width="44" height="44"><path d="M31 53c12.15 0 22-9.85 22-22S43.15 9 31 9 9 18.85 9 31s9.85 22 22 22z" class="B"/></mask><g mask="url(#F)" class="C"><path d="M25.823 25.823h20.705v20.705H25.823V25.823z" fill="#a4cd58"/></g><mask id="G" maskUnits="userSpaceOnUse" x="9" y="9" width="44" height="44"><path d="M31 53c12.15 0 22-9.85 22-22S43.15 9 31 9 9 18.85 9 31s9.85 22 22 22z" class="B"/></mask><g mask="url(#G)" class="C"><path d="M15.471 15.472h20.705v20.705H15.471V15.472z" fill="#d4e8b1"/></g><mask id="H" maskUnits="userSpaceOnUse" x="9" y="9" width="44" height="44"><path d="M31 53c12.15 0 22-9.85 22-22S43.15 9 31 9 9 18.85 9 31s9.85 22 22 22z" class="B"/></mask><g mask="url(#H)" class="C D"><path d="M9 9h16.823v16.823H9V9z"/></g><mask id="I" maskUnits="userSpaceOnUse" x="9" y="9" width="44" height="44"><path d="M31 53c12.15 0 22-9.85 22-22S43.15 9 31 9 9 18.85 9 31s9.85 22 22 22z" class="B"/></mask><g mask="url(#I)" class="C"><path d="M25.823 25.823h10.354v10.354H25.823V25.823z" fill="#e5202e"/></g><mask id="J" maskUnits="userSpaceOnUse" x="9" y="9" width="44" height="44"><path d="M31 53c12.15 0 22-9.85 22-22S43.15 9 31 9 9 18.85 9 31s9.85 22 22 22z" class="B"/></mask><g mask="url(#J)" class="C"><path d="M15.471 15.472h10.354v10.353H15.471V15.472z" fill="#a4cd58"/></g><mask id="K" maskUnits="userSpaceOnUse" x="9" y="9" width="44" height="44"><path d="M31 53c12.15 0 22-9.85 22-22S43.15 9 31 9 9 18.85 9 31s9.85 22 22 22z" class="B"/></mask><g mask="url(#K)" class="C"><path d="M36.177 36.177H46.53V46.53H36.177V36.177z" fill="#85bc20"/></g></svg>