<svg xmlns="http://www.w3.org/2000/svg" width="62" height="62" fill="none"><mask id="A" maskUnits="userSpaceOnUse" x="9" y="13" width="44" height="37"><path d="M53 13H9v36.194h44V13z" fill="#fff"/></mask><g mask="url(#A)"><path d="M48.376 22.099l.026 1.159c0 11.839-9.014 25.493-25.495 25.493v-.007a25.36 25.36 0 0 1-13.733-4.017c.707.085 1.42.128 2.132.129a17.99 17.99 0 0 0 11.129-3.843 8.97 8.97 0 0 1-8.371-6.222 8.93 8.93 0 0 0 4.045-.154 8.96 8.96 0 0 1-7.187-8.782v-.114a8.9 8.9 0 0 0 4.067 1.121c-3.937-2.631-5.151-7.869-2.774-11.963a25.43 25.43 0 0 0 18.466 9.36c-.722-3.112.264-6.373 2.592-8.56a8.97 8.97 0 0 1 12.675.389c2.007-.396 3.93-1.132 5.69-2.175a9 9 0 0 1-3.937 4.955 17.81 17.81 0 0 0 5.144-1.41 18.17 18.17 0 0 1-4.47 4.641z" fill="#1d9bf0"/></g></svg>