<svg xmlns="http://www.w3.org/2000/svg" width="62" height="62" fill="none"><rect width="62" height="62" rx="31" fill="#fff"/><g fill-rule="evenodd"><path d="M41.857 18.429v9.429h-3.143v-9.428h3.143zm-11 0H34v9.429h-3.143v-9.428zM19.857 9L12 16.857v28.286h9.429V53l7.857-7.857h6.286L49.714 31V9H19.857zm26.714 20.429l-6.286 6.286H34L27.714 42v-6.286h-6.286V12.143h25.143v17.286z" fill="#000"/><path d="M40.286 35.714l6.286-6.286V12.143H21.429v23.571h6.286V42L34 35.714h6.286zm-9.428-17.286H34v9.429h-3.143v-9.429zm11 0h-3.143v9.429h3.143v-9.429z" fill="#fff"/></g></svg>