<svg xmlns="http://www.w3.org/2000/svg" width="62" height="62" fill="none"><path fill-rule="evenodd" d="M37.003 33.936c.188-.522.035-.686-.499-.516v-.006c-1.871.598-5.115 1.419-8.846.686-.78-.158-.733-.757.059-.798 2.956-.147 7.579-.815 10.072-3.379 1.816-1.868 2.787-4.725 3.868-7.905 1.254-3.691 2.656-7.818 5.7-11.34.073-.085.159-.175.248-.268.614-.64 1.35-1.41-1.374-1.41-13.762 0-18.752 11.109-27.139 29.78l-4.836 10.595-.444.911c-.407.822-.745 1.504-.806 1.987-.047.399.193.727.669.727 1.643-.016 3.303-2.922 4.841-5.615.697-1.221 1.37-2.398 2.004-3.242.815-1.085 1.613-1.59 2.622-1.854.794-.212 1.676-.311 2.613-.417 1.064-.12 2.198-.248 3.352-.557 4.558-1.22 6.916-4.611 7.895-7.379zm8.728 14.929c0 2.276-1.848 4.124-4.124 4.124s-4.124-1.848-4.124-4.124 1.848-4.124 4.124-4.124 4.124 1.848 4.124 4.124z" fill="#189af5"/></svg>