<svg xmlns="http://www.w3.org/2000/svg" width="62" height="62"><rect width="62" height="62" rx="31" fill="#fff"/><path fill-rule="evenodd" d="M23.659 27.26c0-.227.09-.344.24-.344s.241.117.241.345v.688c0 .227-.09.345-.241.345s-.24-.117-.24-.344v-.688zm1.618-.344h-.497c-.445 0-.48.192-.48.449l-.001.479c0 .267.034.449.483.449h.495c.446 0 .479-.192.479-.448v-.479c0-.257-.034-.45-.479-.45"/><path d="M14.94 36.252c2.08 0 3.688-1.608 3.688-3.988V23h2.251v15.01H18.65v-1.394c-1.008 1.05-2.401 1.651-3.967 1.651C11.466 38.267 9 35.93 9 32.393v-9.391h2.251v9.261c0 2.423 1.587 3.988 3.688 3.988M22.552 23h2.165v5.468a5.42 5.42 0 0 1 3.88-1.63 5.7 5.7 0 0 1 5.746 5.725c0 3.152-2.53 5.703-5.746 5.703a5.5 5.5 0 0 1-2.116-.421 5.5 5.5 0 0 1-1.788-1.209v1.372h-2.145zm5.897 13.358c2.058 0 3.752-1.694 3.752-3.795 0-2.123-1.694-3.795-3.752-3.795a3.77 3.77 0 0 0-3.774 3.795 3.77 3.77 0 0 0 3.774 3.795m12.371-9.499c3.152 0 5.468 2.423 5.468 5.682v.708h-8.897c.3 1.78 1.78 3.109 3.623 3.109 1.266 0 2.337-.515 3.152-1.608l1.566 1.158c-1.094 1.458-2.723 2.337-4.718 2.337-3.28 0-5.811-2.444-5.811-5.703 0-3.088 2.423-5.682 5.618-5.682m-3.388 4.675h6.669c-.364-1.673-1.715-2.788-3.323-2.788s-2.959 1.115-3.345 2.788zm14.666-2.531c-1.415 0-2.444 1.093-2.444 2.787v6.218h-2.166V27.074h2.145v1.352c.536-.879 1.415-1.437 2.616-1.437H53v2.016z"/></svg>