<svg xmlns="http://www.w3.org/2000/svg" width="62" height="62" fill="none"><path d="M37.676 16c-1.165 0-4.122.18-7.079 1.804 0 0-.09.09-.179.09-.179.09-.358.18-.448.27-.179.18-.358.271-.538.451-.09.09-.179.18-.358.271s-.358.271-.538.451c-.09 0-.09.09-.179.09-.269.18-.448.451-.717.631l-.09.09c-1.524 1.533-2.599 3.427-3.316 5.502-.448 1.353-.717 2.796-.717 4.329v14.972.631h.538c1.165 0 4.122-.18 7.079-1.804 0 0 .09-.09.179-.09.179-.09.358-.18.448-.271.179-.09.358-.27.538-.361.09-.09.179-.18.358-.271s.358-.271.538-.451c.09 0 .09-.09.179-.09.269-.18.448-.451.717-.631l.09-.09c1.523-1.533 2.599-3.427 3.316-5.502.448-1.353.717-2.796.717-4.329V16h-.538z" fill="#39c33a"/><path d="M38.842 16c1.165 0 4.122.18 7.079 1.804 0 0 .09.09.179.09.179.09.358.18.448.27.179.09.358.271.538.361.09.09.179.18.358.271s.358.271.538.451c.09 0 .09.09.179.09.269.18.448.451.717.631l.09.09c1.523 1.533 2.599 3.427 3.316 5.502.448 1.353.717 2.796.717 4.329v14.972.631h-.538c-1.165 0-4.122-.18-7.079-1.804 0 0-.09-.09-.179-.09-.179-.09-.359-.18-.448-.271-.179-.09-.358-.271-.538-.361-.09-.09-.179-.18-.358-.271s-.358-.271-.538-.451c-.09 0-.09-.09-.179-.09-.269-.18-.448-.451-.717-.631l-.09-.09c-1.523-1.533-2.599-3.427-3.316-5.502-.448-1.353-.717-2.796-.717-4.329V16h.538z" fill="#ade83a"/><path d="M23.069 45.583c-1.165 0-4.122-.18-7.079-1.804 0 0-.09-.09-.179-.09-.179-.09-.359-.18-.448-.271-.179-.09-.358-.27-.538-.361-.09-.09-.179-.18-.358-.271s-.358-.271-.538-.451c-.09 0-.09-.09-.179-.09-.269-.18-.448-.451-.717-.631l-.09-.09c-1.523-1.533-2.599-3.427-3.316-5.502C9.269 34.58 9 33.137 9 31.603V16.631 16h.538c1.165 0 4.122.18 7.079 1.804 0 0 .09.09.179.09.179.09.359.18.448.27.179.09.359.271.538.361.09.09.179.18.358.271s.358.271.538.451c.09 0 .09.09.179.09.269.18.448.451.717.631l.09.09c1.523 1.533 2.599 3.427 3.316 5.502.448 1.353.717 2.796.717 4.329v15.603l-.627.09z" fill="#52d6ff"/></svg>