<?xml version="1.0" encoding="utf-8"?>
<svg viewBox="0 0 500 500"
  xmlns="http://www.w3.org/2000/svg">
  <g transform="matrix(0.4849730432033539, 0, 0, 0.4849730432033539, 26.993268966674805, 129.87493896484375)">
    <path d="M159.222 42.6009C174.343 22.3348 207.672 22.3349 222.793 42.6009L367.889 237.066C376.443 248.532 376.443 263.468 367.889 274.934L222.793 469.399C207.672 489.665 174.343 489.665 159.222 469.399L14.1269 274.934C5.57229 263.468 5.57229 248.532 14.1269 237.066L159.222 42.6009Z" fill="#00BFA5"/>
    <path fill-rule="evenodd" clip-rule="evenodd" d="M471.841 31.9507C460.5 16.7511 435.503 16.7511 424.162 31.9507L363.094 113.799C356.678 122.398 356.678 133.6 363.094 142.199L433.876 237.066C442.431 248.532 442.431 263.468 433.876 274.934L363.094 369.801C356.678 378.4 356.678 389.602 363.094 398.201L424.162 480.049C435.503 495.249 460.5 495.249 471.841 480.049L628.414 270.2C634.83 261.601 634.83 250.399 628.414 241.8L471.841 31.9507Z" fill="#42AF71"/>
    <path fill-rule="evenodd" clip-rule="evenodd" d="M728.826 31.9507C717.486 16.7511 692.489 16.7511 681.148 31.9507L620.079 113.799C613.663 122.398 613.663 133.6 620.079 142.199L690.862 237.066C699.416 248.532 699.416 263.468 690.862 274.934L620.079 369.801C613.663 378.4 613.663 389.602 620.079 398.201L681.148 480.049C692.489 495.249 717.486 495.249 728.826 480.049L885.4 270.2C891.816 261.601 891.816 250.399 885.4 241.8L728.826 31.9507Z" fill="#DCDE4B"/>
  </g>
</svg>
