<svg xmlns="http://www.w3.org/2000/svg" width="64" height="64" viewBox="0 0 64 64">
<g transform="translate(10, 10) scale(0.11)">
<path fill="#1D3D48" opacity="1.000000" stroke="none"
	d="
M401.000000,92.000000 
	C401.000000,165.354233 401.000000,238.708450 400.707458,312.718262 
	C400.609924,314.582581 400.804962,315.791290 401.000000,317.000000 
	C401.000000,320.030609 401.000000,323.061188 400.932098,326.944824 
	C400.308807,329.200195 399.413422,330.563690 399.247772,332.010681 
	C395.113068,368.128998 368.073090,395.192322 332.080505,399.247894 
	C330.343262,399.443634 328.691559,400.398590 327.000000,401.000000 
	C323.638702,401.000000 320.277435,401.000000 316.284027,400.662811 
	C313.767944,400.550415 311.883972,400.775208 310.000000,401.000000 
	C236.645767,401.000000 163.291550,401.000000 89.283936,400.705750 
	C87.420372,400.607666 86.210182,400.803833 85.000000,401.000000 
	C81.969406,401.000000 78.938812,401.000000 75.138176,400.813660 
	C72.859665,400.147156 71.381691,399.404633 69.838264,399.225281 
	C33.832577,395.041290 6.812567,368.022125 2.768222,332.189758 
	C2.568009,330.415924 1.606839,328.727966 1.000001,327.000000 
	C1.000000,324.299988 1.000000,321.599976 1.321784,318.326569 
	C1.714422,316.855164 1.785276,315.957184 1.921846,314.675140 
	C1.658374,312.860748 1.329187,311.430359 1.000000,310.000000 
	C1.000000,236.645767 1.000000,163.291550 1.292527,89.281715 
	C1.390037,87.417412 1.195019,86.208702 1.000000,85.000000 
	C1.000000,81.969406 1.000000,78.938812 1.066200,75.054565 
	C1.688991,72.797363 2.642354,71.421921 2.744036,69.986160 
	C5.170110,35.729710 35.655258,5.181806 70.072365,2.726030 
	C71.747429,2.606508 73.358910,1.595744 75.000000,1.000000 
	C78.361290,1.000000 81.722572,1.000000 85.715965,1.337187 
	C88.232048,1.449583 90.116020,1.224791 92.000000,1.000000 
	C165.354233,1.000000 238.708450,1.000000 312.719849,1.291338 
	C314.584686,1.388450 315.792358,1.194224 317.000000,1.000000 
	C320.030609,1.000000 323.061188,1.000000 326.862305,1.000494 
	C328.323029,1.409739 328.966888,2.032073 329.710754,2.193399 
	C335.565582,3.463237 341.685547,3.960785 347.266571,5.967853 
	C377.358643,16.789694 395.075500,37.881516 399.238922,69.916283 
	C399.465240,71.657738 400.396759,73.307533 401.000000,75.000000 
	C401.000000,77.700012 401.000000,80.400032 400.678040,83.672882 
	C400.287018,85.143387 400.217926,86.041054 400.083130,87.322952 
	C400.345001,89.138123 400.672485,90.569061 401.000000,92.000000 
M303.468719,154.045609 
	C282.021667,137.765808 260.035736,139.412033 234.784271,159.640518 
	C234.784271,154.646881 234.784271,150.116043 234.784271,145.466049 
	C227.612930,145.466049 221.067856,145.466049 214.510834,145.466049 
	C214.510834,193.472214 214.510834,241.135483 214.510834,288.693481 
	C221.341156,288.693481 227.756454,288.693481 234.859497,288.693481 
	C234.859497,272.231262 234.859497,256.075073 234.859497,239.371094 
	C236.005066,240.104645 236.461548,240.289932 236.775589,240.613480 
	C248.322739,252.511093 262.747162,255.913910 278.450745,253.439529 
	C301.277924,249.842682 316.349213,236.200836 322.023590,214.083466 
	C327.910675,191.137070 322.744781,170.505402 303.468719,154.045609 
M101.180840,241.335373 
	C121.691139,257.761261 152.305511,258.593109 173.276062,243.129639 
	C187.708115,232.487595 193.422897,217.353302 193.883545,200.132401 
	C194.351105,182.652649 193.996246,165.150604 193.964539,147.658401 
	C193.962585,146.574875 193.636932,145.491959 193.483475,144.542313 
	C186.202545,144.542313 179.288498,144.542313 172.040100,144.542313 
	C172.040100,146.716614 172.040207,148.527039 172.040100,150.337463 
	C172.039062,166.830170 172.131790,183.323593 172.008469,199.815384 
	C171.901688,214.093689 163.619461,226.678070 151.519791,231.405563 
	C128.719574,240.313934 105.514977,225.212555 104.927467,200.727814 
	C104.519958,183.745056 104.829170,166.745087 104.818451,149.752808 
	C104.817352,148.005005 104.818306,146.257217 104.818306,144.602356 
	C97.118843,144.602356 90.218376,144.602356 83.420494,144.602356 
	C83.420494,165.492599 82.800385,185.987656 83.639290,206.422836 
	C84.195229,219.965210 90.123039,231.781845 101.180840,241.335373 
z"/>
<path fill="#FAFBFC" opacity="1.000000" stroke="none" 
	d="
M1.000001,327.468658 
	C1.606839,328.727966 2.568009,330.415924 2.768222,332.189758 
	C6.812567,368.022125 33.832577,395.041290 69.838264,399.225281 
	C71.381691,399.404633 72.859665,400.147156 74.684067,400.813660 
	C50.406464,401.000000 25.812927,401.000000 1.000000,401.000000 
	C1.000000,376.646210 1.000000,352.291779 1.000001,327.468658 
z"/>
<path fill="#FAFCFC" opacity="1.000000" stroke="none" 
	d="
M74.531342,1.000000 
	C73.358910,1.595744 71.747429,2.606508 70.072365,2.726030 
	C35.655258,5.181806 5.170110,35.729710 2.744036,69.986160 
	C2.642354,71.421921 1.688991,72.797363 1.066200,74.600449 
	C1.000000,50.406464 1.000000,25.812923 1.000000,1.000000 
	C25.353788,1.000000 49.708237,1.000000 74.531342,1.000000 
z"/>
<path fill="#FAFCFC" opacity="1.000000" stroke="none" 
	d="
M327.468658,401.000000 
	C328.691559,400.398590 330.343262,399.443634 332.080505,399.247894 
	C368.073090,395.192322 395.113068,368.128998 399.247772,332.010681 
	C399.413422,330.563690 400.308807,329.200195 400.932098,327.398926 
	C401.000000,351.593536 401.000000,376.187073 401.000000,401.000000 
	C376.646210,401.000000 352.291779,401.000000 327.468658,401.000000 
z"/>
<path fill="#FAFCFC" opacity="1.000000" stroke="none" 
	d="
M401.000000,74.531342 
	C400.396759,73.307533 399.465240,71.657738 399.238922,69.916283 
	C395.075500,37.881516 377.358643,16.789694 347.266571,5.967853 
	C341.685547,3.960785 335.565582,3.463237 329.710754,2.193399 
	C328.966888,2.032073 328.323029,1.409739 327.316406,1.000494 
	C351.593536,1.000000 376.187073,1.000000 401.000000,1.000000 
	C401.000000,25.353788 401.000000,49.708237 401.000000,74.531342 
z"/>
<path fill="#77929D" opacity="1.000000" stroke="none" 
	d="
M91.571533,1.000000 
	C90.116020,1.224791 88.232048,1.449583 86.174034,1.337187 
	C87.714355,1.000000 89.428719,1.000000 91.571533,1.000000 
z"/>
<path fill="#77929D" opacity="1.000000" stroke="none" 
	d="
M310.428467,401.000000 
	C311.883972,400.775208 313.767944,400.550415 315.825958,400.662811 
	C314.285645,401.000000 312.571289,401.000000 310.428467,401.000000 
z"/>
<path fill="#738E99" opacity="1.000000" stroke="none" 
	d="
M401.000000,91.583336 
	C400.672485,90.569061 400.345001,89.138123 400.296234,87.332611 
	C400.574982,86.958031 401.000000,87.000000 401.000000,87.000000 
	C401.000000,88.388893 401.000000,89.777779 401.000000,91.583336 
z"/>
<path fill="#738E99" opacity="1.000000" stroke="none" 
	d="
M1.000000,310.416656 
	C1.329187,311.430359 1.658374,312.860748 1.707597,314.664978 
	C1.427631,315.038879 1.000000,315.000000 1.000000,315.000000 
	C1.000000,313.611115 1.000000,312.222198 1.000000,310.416656 
z"/>
<path fill="#87A2AD" opacity="1.000000" stroke="none" 
	d="
M1.000000,85.400009 
	C1.195019,86.208702 1.390037,87.417412 1.292527,88.813057 
	C1.000000,87.933342 1.000000,86.866676 1.000000,85.400009 
z"/>
<path fill="#87A2AD" opacity="1.000000" stroke="none" 
	d="
M401.000000,316.599976 
	C400.804962,315.791290 400.609924,314.582581 400.707458,313.186951 
	C401.000000,314.066650 401.000000,315.133331 401.000000,316.599976 
z"/>
<path fill="#87A2AD" opacity="1.000000" stroke="none" 
	d="
M316.599976,1.000000 
	C315.792358,1.194224 314.584686,1.388450 313.188538,1.291338 
	C314.066650,1.000000 315.133331,1.000000 316.599976,1.000000 
z"/>
<path fill="#88A3AE" opacity="1.000000" stroke="none" 
	d="
M85.400009,401.000000 
	C86.210182,400.803833 87.420372,400.607666 88.815277,400.705750 
	C87.933342,401.000000 86.866676,401.000000 85.400009,401.000000 
z"/>
<path fill="#96B1BC" opacity="1.000000" stroke="none" 
	d="
M401.000000,86.625000 
	C401.000000,87.000000 400.574982,86.958031 400.361877,86.948380 
	C400.217926,86.041054 400.287018,85.143387 400.678040,84.122864 
	C401.000000,84.750000 401.000000,85.500000 401.000000,86.625000 
z"/>
<path fill="#97B2BD" opacity="1.000000" stroke="none" 
	d="
M1.000000,315.375000 
	C1.000000,315.000000 1.427631,315.038879 1.641881,315.049011 
	C1.785276,315.957184 1.714422,316.855164 1.321784,317.876587 
	C1.000000,317.250000 1.000000,316.500000 1.000000,315.375000 
z"/>
<path fill="#BFE5E5" opacity="1.000000" stroke="none" 
	d="
M303.752625,154.259613 
	C322.744781,170.505402 327.910675,191.137070 322.023590,214.083466 
	C316.349213,236.200836 301.277924,249.842682 278.450745,253.439529 
	C262.747162,255.913910 248.322739,252.511093 236.775589,240.613480 
	C236.461548,240.289932 236.005066,240.104645 234.859497,239.371094 
	C234.859497,256.075073 234.859497,272.231262 234.859497,288.693481 
	C227.756454,288.693481 221.341156,288.693481 214.510834,288.693481 
	C214.510834,241.135483 214.510834,193.472214 214.510834,145.466049 
	C221.067856,145.466049 227.612930,145.466049 234.784271,145.466049 
	C234.784271,150.116043 234.784271,154.646881 234.784271,159.640518 
	C260.035736,139.412033 282.021667,137.765808 303.752625,154.259613 
M290.686310,170.768738 
	C273.637482,156.154694 247.140350,161.871613 237.137878,181.709198 
	C230.332458,195.206116 232.539368,212.785538 242.698486,223.624863 
	C253.076431,234.697647 268.683167,237.819260 282.505157,231.586884 
	C305.665405,221.143906 310.220764,189.554520 290.686310,170.768738 
z"/>
<path fill="#C0E5E5" opacity="1.000000" stroke="none" 
	d="
M100.907684,241.107040 
	C90.123039,231.781845 84.195229,219.965210 83.639290,206.422836 
	C82.800385,185.987656 83.420494,165.492599 83.420494,144.602356 
	C90.218376,144.602356 97.118843,144.602356 104.818306,144.602356 
	C104.818306,146.257217 104.817352,148.005005 104.818451,149.752808 
	C104.829170,166.745087 104.519958,183.745056 104.927467,200.727814 
	C105.514977,225.212555 128.719574,240.313934 151.519791,231.405563 
	C163.619461,226.678070 171.901688,214.093689 172.008469,199.815384 
	C172.131790,183.323593 172.039062,166.830170 172.040100,150.337463 
	C172.040207,148.527039 172.040100,146.716614 172.040100,144.542313 
	C179.288498,144.542313 186.202545,144.542313 193.483475,144.542313 
	C193.636932,145.491959 193.962585,146.574875 193.964539,147.658401 
	C193.996246,165.150604 194.351105,182.652649 193.883545,200.132401 
	C193.422897,217.353302 187.708115,232.487595 173.276062,243.129639 
	C152.305511,258.593109 121.691139,257.761261 100.907684,241.107040 
z"/>
<path fill="#1E3F49" opacity="1.000000" stroke="none" 
	d="
M290.945312,171.015411 
	C310.220764,189.554520 305.665405,221.143906 282.505157,231.586884 
	C268.683167,237.819260 253.076431,234.697647 242.698486,223.624863 
	C232.539368,212.785538 230.332458,195.206116 237.137878,181.709198 
	C247.140350,161.871613 273.637482,156.154694 290.945312,171.015411
z"/>
</g>
</svg>