<svg xmlns="http://www.w3.org/2000/svg" width="62" height="62" fill="none" xmlns:v="https://vecta.io/nano"><g clip-path="url(#C)"><mask id="A" maskUnits="userSpaceOnUse" x="9" y="9" width="44" height="44"><path d="M53 9H9V53H53V9Z" fill="#fff"/></mask><g mask="url(#A)"><path d="M31 53c12.15 0 22-9.85 22-22S43.15 9 31 9 9 18.85 9 31s9.85 22 22 22z" fill="#ac55ff"/><mask id="B" maskUnits="userSpaceOnUse" x="9" y="9" width="44" height="44" mask-type="alpha"><path d="M31 53c12.15 0 22-9.85 22-22S43.15 9 31 9 9 18.85 9 31s9.85 22 22 22z" fill="#ac55ff"/></mask><g mask="url(#B)"><path d="M32.177 54.584c7.785 0 11.811-2.413 13.026-4.832.07-.14-.064-.297-.212-.248-1.37.453-2.393-.389-2.508-1.361 0 0-.383-4.122-1.754-4.524.081-.167.412-1.484-.61-2.701.279-.861.049-1.428-.16-1.856a2.72 2.72 0 0 0 .535-1.107c.021-.093.02-.175.096-.263.482-.4 1.013-.73 1.336-1.316.582-1.058.192-2.267-.514-3.159-.072-.099-.128-.146-.133-.399.002-.432-.077-.877-.309-1.243a2.53 2.53 0 0 0-.437-.495c-.678-.633-1.49-1.1-2.269-1.604-.107-.069-.232-.16-.279-.285-.245-.913-.88-1.62-1.669-1.812-.017-.612-.662-1.539-1.637-1.539-.298 0-.544.162-.698-.117-.357-.677-1.068-.802-1.439-.82a.06.06 0 0 1-.023-.114 8.01 8.01 0 0 1 .566-.239c1.34-.641.785-4.295.237-6.223-.257-.72-.907-2.767-2.501-2.902-.11-.009-.222-.007-.328.024-.307.088-.534.334-.694.675-.527 1.06-.659 3.921-.853 5.144-.275 1.744-.524 3.616-1.393 4.383-.37-.976-.906-1.429-1.198-1.412-.255.06.09.556-.057 1.287-.102.421-.335.813-.732.813-1.162 0-2.208-5.812-2.521-9.303-.008-.091-.017-.182-.034-.273-.153-.844-.597-1.342-1.066-1.342-.238 0-1.091-.087-2.069 1.451-.672 1.199-1.099 2.452-1.141 4.787.001 2.352 1.05 3.925 1.475 4.699 1.737 2.857 1.969 3.843 1.64 5.585-.334 1.688.685 2.638.685 2.638-.144.223-.334.822-.378 1.478-.028.418.057 1.168.257 1.632-.438.945-.428 1.695-.428 2.169 0 1.097-.479 1.543-1.101 1.739.168.598 1.284.919 1.929.279-.191 1.879-.543 3.571-1.034 5.666-.306 1.434-.254 2.238-.023 2.918.104.307.268.589.467.844 2.381 3.038 6.849 3.277 9.949 3.277zm-.004-4.1a3.88 3.88 0 0 1-2.246-1.215c-1.561.517-3.184-.797-2.691-2.531a.2.2 0 0 1 .384.093c-.049.305.008.618.139.887a1.3 1.3 0 0 0 2.026.456c.236-.208.576-.129.737.129 1.395 1.894 4.291 1.539 5.262-.587a3.47 3.47 0 0 0 .289-.937c.038-.231.385-.209.394.024.078 2.288-2.063 4.039-4.293 3.682h0z" fill="#240642"/><path d="M40.928 34.143c-.149 0-.309.208-.35.533-.089.457-.058 1.302-.466 1.302-.282 0-.307-.566-.781-1.088-.491-.506-1.195-.558-1.647-.922-.251-.174-.401-.389-.384-.757 0 0 .054-.587.845-.479l1.364.174c.675.076.839-.426.859-.596.043-.4-.381-.731-.649-.964a8.46 8.46 0 0 0-1.092-.798l-.211-.133c-.961-.613-2.669-1.639-3.627-.468-.343.46-.492.99-.6 1.429-.199.804-.616 1.114-.913 1.604-.471.778-.795 1.662-.819 2.571-.004 1.313.807 2.598 2.102 3.402 1.074.564 1.626.564 2.056.449.079-.027.251-.147.133-.346-.021-.042-.081-.135-.118-.196-.123-.226.045-.432.294-.239.164.128.331.256.523.335a.82.82 0 0 0 .514.047c.196-.064.296-.193.307-.357.011-.196-.077-.348-.224-.429-.224-.109-.718-.381-.927-.535-.236-.165-.488-.412-.575-.505-.285-.303-.367-.599-.544-.599-.03.002-.059.019-.079.041-.111.119-.112.315-.118.427-.004.082.009.208-.106.208-.286 0-.285-.598-.285-.76 0-.222.081-.798.424-.798.106 0 .25.142.306.198.756.839 1.634 1.492 2.747 1.492.852 0 1.564-.481 2.011-.933.351-.352.581-.793.597-1.248.01-.289-.129-1.059-.566-1.059v-.001zm-4.882.781c-.103.057-.227-.014-.34-.051-.227-.074-.484.001-.67.149a1.25 1.25 0 0 0-.306.38c-.087.157-.103.365-.289.365-.153 0-.23-.212-.247-.3-.09-.475.139-1.005.566-1.233s1.018-.107 1.294.29c.043.062.079.131.084.206s-.026.156-.092.193h0zm-5.614-5.44c-.407.006-.803.181-1.091.477-.162.166-.523.704-.488 1.533-.006.122-.166.166-.231.062-.26-.466-.275-.952-.174-1.31.224-.725.857-1.327 1.712-1.327 1.122 0 1.403.734 1.459.961.027.094-.09.164-.161.097-.186-.173-.473-.492-1.027-.492h.001zm.091 1.642c-.268.024-.479-.149-.503-.417a.45.45 0 0 1 .422-.504c.268-.024.485.158.509.421.024.268-.159.476-.427.499h0zm-8.782-5.013c-.395 0-1.691-2.103-1.691-5.073 0-1.333.342-2.755.964-2.755.383 0 .469.815.487 1.057.201 2.551-.127 4.283.352 6.593.032.135-.05.178-.112.178h0z" fill="#fff"/></g></g></g><defs><clipPath id="C"><path fill="#fff" transform="translate(9 9)" d="M0 0h44v44H0z"/></clipPath></defs></svg>