<svg width="62" height="62" viewBox="0 0 62 62" fill="none" xmlns="http://www.w3.org/2000/svg"><rect width="62" height="62" rx="31" fill="white"/><path d="M21.483 26.1376L18.1152 34.2335C18.0209 34.46 17.8598 34.6539 17.6526 34.7904C17.4454 34.9268 17.2014 34.9997 16.9517 34.9996H13.5484C13.299 34.9997 13.0551 34.927 12.848 34.7908C12.6408 34.6545 12.4797 34.4609 12.3853 34.2346L9.00762 26.1376C9.00128 26.1225 8.99884 26.106 9.00051 26.0897C9.00219 26.0734 9.00793 26.0578 9.01723 26.0442C9.02654 26.0306 9.03911 26.0195 9.05385 26.0118C9.06859 26.004 9.08504 26 9.10174 26H12.5108C12.5957 26 12.6719 26.0518 12.7021 26.1298L15.2549 32.8029L17.7873 26.1305C17.8018 26.0922 17.8279 26.0592 17.8621 26.0358C17.8963 26.0125 17.937 26 17.9786 26H21.3885C21.4608 26 21.5101 26.072 21.483 26.1376ZM21.794 26.1001V34.8999C21.794 34.955 21.8399 35 21.8962 35H31.2559C31.3118 35 31.3577 34.955 31.3577 34.8999V32.7057C31.3577 32.6793 31.347 32.6538 31.3279 32.6351C31.3088 32.6163 31.283 32.6057 31.2559 32.6056H25.1648C25.1378 32.6055 25.1119 32.5949 25.0928 32.5762C25.0737 32.5574 25.063 32.532 25.063 32.5055V31.7829C25.063 31.7281 25.1089 31.6831 25.1652 31.6831H31.1174C31.1737 31.6831 31.2196 31.6381 31.2196 31.583V29.4057C31.2196 29.3792 31.2088 29.3537 31.1897 29.335C31.1705 29.3162 31.1445 29.3056 31.1174 29.3056H25.1652C25.1381 29.3056 25.1121 29.2951 25.093 29.2763C25.0738 29.2575 25.063 29.2321 25.063 29.2055V28.4945C25.063 28.4394 25.1089 28.3944 25.1652 28.3944H31.2559C31.3118 28.3944 31.3577 28.3494 31.3577 28.2943V26.1001C31.3577 26.0737 31.3471 26.0483 31.3281 26.0296C31.3091 26.0108 31.2833 26.0002 31.2563 26H21.8962C21.8691 26 21.8431 26.0105 21.8239 26.0293C21.8048 26.0481 21.794 26.0736 21.794 26.1001ZM31.7878 26.1001V34.8999C31.7878 34.955 31.8337 35 31.8903 35H41.2501C41.3059 35 41.3518 34.955 41.3518 34.8999V32.7057C41.3517 32.6793 41.341 32.6539 41.3219 32.6352C41.3029 32.6164 41.2771 32.6058 41.2501 32.6056H35.1589C35.1319 32.6055 35.106 32.5949 35.0869 32.5762C35.0679 32.5574 35.0572 32.532 35.0572 32.5055V31.7829C35.0572 31.7281 35.1031 31.6831 35.1593 31.6831H41.1116C41.1678 31.6831 41.2137 31.6381 41.2137 31.583V29.4057C41.2137 29.3792 41.2029 29.3537 41.1838 29.335C41.1646 29.3162 41.1386 29.3056 41.1116 29.3056H35.1589C35.1318 29.3056 35.1059 29.2951 35.0867 29.2763C35.0675 29.2575 35.0568 29.2321 35.0568 29.2055V28.4945C35.0568 28.4394 35.1027 28.3944 35.1589 28.3944H41.2501C41.3059 28.3944 41.3518 28.3494 41.3518 28.2943V26.1001C41.3517 26.0737 41.341 26.0483 41.3219 26.0296C41.3029 26.0108 41.2771 26.0002 41.2501 26H31.8899C31.8629 26.0001 31.837 26.0107 31.8179 26.0295C31.7989 26.0482 31.7881 26.0736 31.7881 26.1001H31.7878ZM41.7826 34.8999C41.7826 34.955 41.8286 35 41.8844 35H48.2969C49.7004 35 50.8325 34.6434 51.6987 33.9245C52.5649 33.2113 52.9981 32.0682 52.9981 30.4944C52.9981 28.9205 52.5649 27.7775 51.6987 27.0639C50.8325 26.3562 49.7007 26 48.2969 26H41.8844C41.8574 26.0001 41.8315 26.0107 41.8124 26.0295C41.7934 26.0482 41.7826 26.0736 41.7826 26.1001V34.8999ZM45.1534 32.5887C45.1263 32.5887 45.1004 32.5782 45.0812 32.5594C45.062 32.5406 45.0513 32.5152 45.0513 32.4886V28.5114C45.0513 28.4563 45.0972 28.4112 45.153 28.4112H47.5463C48.2855 28.4112 48.8341 28.5699 49.1922 28.8867C49.5504 29.2036 49.729 29.7414 49.729 30.4944C49.729 31.2474 49.5504 31.7964 49.1922 32.1133C48.8341 32.4305 48.2855 32.5887 47.5463 32.5887H45.1534Z" fill="black"/></svg>