<svg width="62" height="62" viewBox="0 0 62 62" fill="none" xmlns="http://www.w3.org/2000/svg"><rect width="62" height="62" rx="31" fill="white"/><path d="M40.5445 23.5365C38.881 23.5379 37.2851 22.8785 36.1076 21.7034C34.9302 20.5282 34.2677 18.9335 34.2658 17.27C34.2663 16.4462 34.429 15.6305 34.7446 14.8695C35.0604 14.1085 35.5227 13.4172 36.1057 12.835C36.6886 12.2528 37.3804 11.791 38.1417 11.4762C38.9031 11.1614 39.719 10.9995 40.5428 11C41.3667 10.9991 42.1829 11.1605 42.9444 11.475C43.706 11.7896 44.3983 12.251 44.9814 12.8331C45.5647 13.4152 46.0276 14.1065 46.3436 14.8675C46.6595 15.6285 46.8226 16.4442 46.8233 17.2682C46.8226 18.0922 46.6595 18.908 46.3436 19.669C46.0276 20.43 45.5647 21.1213 44.9814 21.7034C44.3983 22.2854 43.706 22.7469 42.9444 23.0614C42.1829 23.376 41.3667 23.5374 40.5428 23.5365H40.5445ZM21.5994 23.5365C20.7755 23.5374 19.9596 23.376 19.1981 23.0616C18.4366 22.7472 17.7445 22.2859 17.1613 21.704C16.5781 21.1221 16.1152 20.431 15.7991 19.6702C15.483 18.9094 15.3198 18.0938 15.3189 17.27C15.3193 16.4459 15.4822 15.6299 15.7981 14.8687C16.114 14.1075 16.5768 13.416 17.1601 12.8337C17.7433 12.2515 18.4356 11.7898 19.1973 11.4752C19.959 11.1606 20.7753 10.9991 21.5994 11C22.4232 10.9993 23.2392 11.1609 24.0006 11.4755C24.762 11.7902 25.4539 12.2517 26.037 12.8337C26.62 13.4158 27.0827 14.107 27.3986 14.8679C27.7146 15.6287 27.8775 16.4444 27.8782 17.2682C27.8775 18.0921 27.7146 18.9077 27.3986 19.6686C27.0827 20.4295 26.62 21.1207 26.037 21.7027C25.4539 22.2848 24.762 22.7463 24.0006 23.0609C23.2392 23.3756 22.4232 23.5372 21.5994 23.5365ZM11.3993 31.3424C9.91426 31.3424 8.7382 32.6202 9.05064 34.0701C10.1461 39.0752 12.9203 43.5552 16.9127 46.7662C20.9051 49.9773 25.8756 51.7265 30.9991 51.7233C41.7662 51.7233 50.764 44.1632 52.9494 34.0701C53.2618 32.6202 52.0857 31.3424 50.6007 31.3424H11.3993Z" fill="black"/></svg>