<svg xmlns="http://www.w3.org/2000/svg" width="62" height="62" fill="none"><path d="M46.4 9H15.6A6.6 6.6 0 0 0 9 15.6v30.8a6.6 6.6 0 0 0 6.6 6.6h30.8a6.6 6.6 0 0 0 6.6-6.6V15.6A6.6 6.6 0 0 0 46.4 9z" fill="#1eb8eb"/><path d="M44.922 24.898c-1.633 9.367-11 17.359-13.836 19.164-2.75 1.805-5.328-.773-6.273-2.578-1.031-2.234-4.211-14.094-5.07-15.125-.773-1.031-3.352 1.031-3.352 1.031l-1.117-1.633s5.07-6.102 8.937-6.789c4.039-.859 4.039 6.273 5.07 10.141.945 3.867 1.547 6.016 2.32 6.016.859 0 2.492-2.062 4.211-5.414 1.805-3.18-.086-6.102-3.523-4.039 1.461-8.164 14.266-10.141 12.633-.773z" fill="#fff"/></svg>