<svg width="62" height="62" viewBox="0 0 62 62" fill="none" xmlns="http://www.w3.org/2000/svg"><path d="M49.7049 12H16.8488C14.3011 12 12.6697 14.7084 13.8619 16.96L17.1484 23.1834H11.1903C10.813 23.1835 10.4421 23.281 10.1136 23.4666C9.78504 23.6521 9.50998 23.9194 9.31505 24.2424C9.12011 24.5655 9.01191 24.9334 9.00093 25.3106C8.98994 25.6877 9.07654 26.0613 9.25234 26.3952L19.8234 46.4032C20.0098 46.7551 20.2885 47.0495 20.6296 47.2549C20.9708 47.4602 21.3614 47.5687 21.7596 47.5687C22.1578 47.5687 22.5485 47.4602 22.8896 47.2549C23.2308 47.0495 23.5095 46.7551 23.6959 46.4032L26.5668 40.9986L30.1687 47.8176C31.4364 50.2159 34.8705 50.2203 36.1425 47.8246L52.611 16.8344C53.775 14.6425 52.1867 12 49.7049 12ZM34.946 25.2408L27.845 38.6064C27.7209 38.8404 27.5354 39.0362 27.3085 39.1728C27.0815 39.3093 26.8216 39.3814 26.5567 39.3814C26.2918 39.3814 26.032 39.3093 25.805 39.1728C25.578 39.0362 25.3925 38.8404 25.2684 38.6064L18.2359 25.2971C18.1184 25.0752 18.0602 24.8267 18.0668 24.5756C18.0735 24.3246 18.1449 24.0796 18.2741 23.8642C18.4033 23.6489 18.5859 23.4706 18.8042 23.3465C19.0225 23.2225 19.2692 23.1569 19.5203 23.1561H33.6933C33.9381 23.1562 34.1787 23.2195 34.3918 23.3401C34.6049 23.4606 34.7832 23.6343 34.9093 23.8441C35.0354 24.054 35.1051 24.2929 35.1115 24.5377C35.1179 24.7824 35.0609 25.0247 34.946 25.2408Z" fill="#F71963"/></svg>