<svg width="62" height="62" viewBox="0 0 62 62" fill="none" xmlns="http://www.w3.org/2000/svg"><path d="M40.0534 28.7802C41.0871 28.5656 50.2334 24.3411 51.0497 23.866C52.9136 22.7813 53.5521 20.3788 52.476 18.4999C51.3999 16.6211 49.0167 15.9773 47.1529 17.0621C46.3365 17.5373 38.1341 23.4098 37.4329 24.205C36.6293 25.1164 36.4904 26.4199 37.0848 27.4578C37.6794 28.4957 38.8686 29.0261 40.0534 28.7802Z" fill="#FFC220"/><path d="M51.0496 38.1339C50.2332 37.6587 41.087 33.4342 40.0533 33.2197C38.8685 32.9738 37.6792 33.5043 37.0848 34.5422C36.4904 35.5801 36.6293 36.8836 37.4329 37.7949C38.1341 38.5901 46.3365 44.4627 47.1529 44.9379C49.0167 46.0226 51.3999 45.3789 52.476 43.5C53.5521 41.6212 52.9134 39.2186 51.0496 38.1339Z" fill="#FFC220"/><path d="M30.9984 38.084C29.8095 38.084 28.7591 38.857 28.378 40.0143C28.0454 41.0241 27.1016 51.1212 27.1016 52.0714C27.1016 54.2409 28.8462 55.9997 30.9984 55.9997C33.1505 55.9997 34.8952 54.2409 34.8952 52.0714C34.8952 51.1212 33.9513 41.0241 33.6187 40.0143C33.2376 38.857 32.1873 38.084 30.9984 38.084Z" fill="#FFC220"/><path d="M21.9454 33.2197C20.9117 33.4343 11.7654 37.6588 10.9491 38.1339C9.08524 39.2186 8.44665 41.6211 9.52271 43.4999C10.5988 45.3788 12.982 46.0225 14.8458 44.9378C15.6622 44.4626 23.8645 38.5901 24.5657 37.7949C25.3694 36.8834 25.5083 35.5799 24.9138 34.5421C24.3194 33.5043 23.1302 32.9738 21.9454 33.2197Z" fill="#FFC220"/><path d="M14.8459 17.0621C12.9821 15.9773 10.5989 16.6211 9.52272 18.4999C8.44665 20.3788 9.08525 22.7813 10.949 23.866C11.7654 24.3412 20.9117 28.5657 21.9454 28.7802C23.1301 29.0261 24.3194 28.4956 24.9139 27.4577C25.5083 26.4198 25.3694 25.1163 24.5658 24.2049C23.8646 23.4098 15.6622 17.5372 14.8459 17.0621Z" fill="#FFC220"/><path d="M30.9984 6C28.8461 6 27.1016 7.75875 27.1016 9.92825C27.1016 10.8785 28.0454 20.9756 28.378 21.9853C28.7592 23.1427 29.8095 23.9157 30.9984 23.9157C32.1872 23.9157 33.2376 23.1427 33.6187 21.9853C33.9513 20.9756 34.8952 10.8785 34.8952 9.92825C34.8952 7.75875 33.1505 6 30.9984 6Z" fill="#FFC220"/></svg>