<svg width="62" height="62" viewBox="0 0 62 62" fill="none" xmlns="http://www.w3.org/2000/svg"><rect width="62" height="62" rx="31" fill="white"/><path opacity="0.6" fill-rule="evenodd" clip-rule="evenodd" d="M30.9998 40.8014L11.5225 30.6909L9.00077 32.499L9 33.605L30.9998 49.382L52.9985 33.6058L53 32.5002L50.4771 30.6909L30.9998 40.8014Z" fill="black"/><path fill-rule="evenodd" clip-rule="evenodd" d="M30.9998 12L9.00116 27.7763L9 28.8822L30.9998 44.6597L52.9985 28.883L52.9996 27.777L30.9998 12ZM33.878 27.5703L31.1958 23.8715L33.4826 22.1981L38.2503 29.2541L36.3303 30.6595L31.2031 28.5385L31.1811 28.5543L34.101 32.2905L32.181 33.6954L22.5373 30.2066L24.8314 28.5277L29.8726 30.4909L29.9011 30.4697L27.1036 26.8651L28.9086 25.5446L33.8491 27.5915L33.878 27.5703Z" fill="black"/></svg>