<svg xmlns="http://www.w3.org/2000/svg" width="62" height="62" fill="none" fill-rule="evenodd"><path d="M12.999 41.296c2.5.796 5.171-.48 5.935-2.836l2.828-9.164c.764-2.356-.655-4.935-3.155-5.731l-.209-.066c-2.5-.796-5.171.48-5.935 2.836l-2.828 9.164c-.765 2.356.655 4.935 3.155 5.731l.209.066z" fill="#084f99"/><path d="M42.861 15.248c.533-1.29 1.52-2.27 2.678-2.799l.175-.08.1-.039c.955-.368 2.009-.433 3.022-.111l.209.066c2.5.796 3.831 3.648 2.958 6.337l-6.854 23.153c-1.789 5.325-7.474 8.082-12.367 6.698 0 0-1.319-.392-1.863-.784 4.863-1.045 10.971-30.096 11.942-32.443z" fill="#5eb7ff"/><path d="M13.792 44.356c1.056.336 2.144.357 3.175.118.164-.034.323-.08.48-.133 2.016-.64 3.749-2.288 4.484-4.553l5.336-17.612c.881-2.676 3.63-4.216 6.123-3.422l.209.066c2.5.796 3.831 3.648 2.958 6.337l-5.786 18.077c-5.181 9.387-14.913 4.8-17.671.872a5.85 5.85 0 0 0 .483.183l.209.067z" fill="#1479fb"/></svg>