<svg xmlns="http://www.w3.org/2000/svg" width="62" height="62" fill="none"><path d="M30.178 9.325a2.42 2.42 0 0 1 2.423 0l16.966 9.789a2.42 2.42 0 0 1 1.212 2.097v19.577a2.42 2.42 0 0 1-1.212 2.097l-16.966 9.789c-.75.433-1.674.433-2.424 0l-16.966-9.789A2.42 2.42 0 0 1 12 40.788V21.211a2.42 2.42 0 0 1 1.212-2.097l16.966-9.789zm.606 38.135c.187.108.397.162.606.162s.418-.054.606-.162l13.33-7.691a1.21 1.21 0 0 0 .606-1.049V23.34a1.21 1.21 0 0 0-.606-1.049l-13.33-7.69a1.21 1.21 0 0 0-1.212 0l-13.33 7.69a1.21 1.21 0 0 0-.606 1.049v15.381a1.21 1.21 0 0 0 .606 1.049l13.331 7.691zm7.877-12.235V21.24l4.544 2.621c.188.108.303.308.303.525v13.285c0 .217-.115.416-.303.525l-4.544 2.622-7.271-4.195-7.272 4.195-4.544-2.622c-.188-.108-.303-.308-.303-.525V24.386c0-.216.115-.416.303-.525l4.544-2.621v13.986l7.272-4.196 7.271 4.195z" fill="#106ed4"/></svg>