<?xml version="1.0" encoding="UTF-8"?>
<svg version="1.1" xmlns="http://www.w3.org/2000/svg" width="62" height="62" viewBox="0 0 1200 1200">
<path d="M0 0 C46.34924314 16.43116244 89.90128656 40.68883487 130 69 C130.7204248 69.50644043 131.44084961 70.01288086 132.18310547 70.53466797 C143.15328644 78.2678244 153.70228882 86.39368721 164 95 C164.59184082 95.49274414 165.18368164 95.98548828 165.79345703 96.49316406 C172.13774435 101.78273807 178.38432425 107.16739088 184.48828125 112.734375 C185.8883143 113.99723529 187.2944252 115.25372913 188.72268677 116.48457336 C193.59369127 120.68360081 198.21447831 125.06771339 202.75390625 129.62109375 C203.45845444 130.32468521 204.16300262 131.02827667 204.88890076 131.75318909 C206.36653367 133.23014648 207.84292457 134.70834742 209.31811523 136.18774414 C211.55666481 138.43165085 213.80050473 140.67016704 216.04492188 142.90820312 C217.48990404 144.35384618 218.93457592 145.79979945 220.37890625 147.24609375 C221.03951553 147.9046788 221.70012482 148.56326385 222.38075256 149.24180603 C226.78461988 153.66755722 230.93477146 158.26266073 235 163 C235.97325936 164.11779648 236.94709989 165.23508758 237.921875 166.3515625 C244.40808907 173.8404381 250.64820568 181.481404 256.70166016 189.32373047 C257.93150897 190.91157213 259.1743721 192.48930872 260.41796875 194.06640625 C321.12687591 271.6113888 359.7468855 365.22340878 380 491 C380.15098145 492.28084473 380.30196289 493.56168945 380.45751953 494.88134766 C385.27415786 536.85753639 385.36804234 580.9695259 380.25323486 622.92205811 C379.98926044 625.08812448 379.73443476 627.25515946 379.47998047 629.42236328 C369.57499721 712.64529829 342.22784307 793.17826734 299 865 C298.04259487 866.61045487 297.08554216 868.22111933 296.12890625 869.83203125 C277.59799181 900.82126314 255.53315627 929.84384042 231.23046875 956.5234375 C229.98083472 957.91094709 228.73762651 959.30455359 227.51885986 960.71925354 C223.31854354 965.59125923 218.93342169 970.2133467 214.37890625 974.75390625 C213.67531479 975.45845444 212.97172333 976.16300262 212.24681091 976.88890076 C210.76985352 978.36653367 209.29165258 979.84292457 207.81225586 981.31811523 C205.56834915 983.55666481 203.32983296 985.80050473 201.09179688 988.04492188 C199.64615382 989.48990404 198.20020055 990.93457592 196.75390625 992.37890625 C196.0953212 993.03951553 195.43673615 993.70012482 194.75819397 994.38075256 C190.33244278 998.78461988 185.73733927 1002.93477146 181 1007 C179.88219841 1007.97325348 178.76490634 1008.94709294 177.6484375 1009.921875 C170.25105329 1016.33003512 162.72854169 1022.53302826 154.96386719 1028.49121094 C153.61243886 1029.52947884 152.26430948 1030.5720503 150.91894531 1031.61816406 C128.83131282 1048.76682483 105.38060703 1064.30890807 81 1078 C80.07654785 1078.52078125 79.1530957 1079.0415625 78.20166016 1079.578125 C24.5792356 1109.65120844 -51.56742933 1147 -115 1147 C-112.68619791 1138.12777879 -109.97092338 1129.39606743 -107.18359375 1120.6640625 C-106.72170297 1119.21207194 -106.2599595 1117.76003451 -105.7983551 1116.30795288 C-104.83747763 1113.28703237 -103.87502421 1110.26662011 -102.91137695 1107.24658203 C-101.67906266 1103.38419901 -100.45047101 1099.52064385 -99.22300625 1095.6567173 C-98.27298362 1092.66739243 -97.32115235 1089.6786459 -96.36876106 1086.69007492 C-95.91493667 1085.26533985 -95.46163554 1083.84043799 -95.00887871 1082.41536331 C-94.37679216 1080.42687857 -93.74230508 1078.43917542 -93.10717773 1076.45166016 C-92.74760483 1075.32345856 -92.38803192 1074.19525696 -92.01756287 1073.03286743 C-89.40334456 1065.24113502 -89.40334456 1065.24113502 -87.328125 1064.00048828 C-86.29945313 1063.72567627 -86.29945313 1063.72567627 -85.25 1063.4453125 C-84.03763672 1063.09968262 -84.03763672 1063.09968262 -82.80078125 1062.74707031 C-81.41439453 1062.37727051 -81.41439453 1062.37727051 -80 1062 C-77.81148411 1061.35499951 -75.62406145 1060.70628281 -73.4375 1060.0546875 C-72.24157227 1059.70486816 -71.04564453 1059.35504883 -69.81347656 1058.99462891 C5.44477185 1036.89896135 75.4056687 999.23863609 133.48828125 946.265625 C134.84254709 945.04404772 136.20281147 943.82835686 137.5949707 942.65014648 C143.97099118 937.2197187 149.84714336 931.30411079 155.75463867 925.37573242 C157.55862085 923.56639067 159.36788665 921.76245681 161.17773438 919.95898438 C166.99858662 914.14178832 172.69310763 908.29657317 178 902 C178.94864142 900.91632065 179.89911786 899.83424448 180.8515625 898.75390625 C188.65230766 889.8109439 195.9211702 880.52198439 203 871 C203.5377002 870.27796387 204.07540039 869.55592773 204.62939453 868.81201172 C259.93040302 794.22961765 293.99447078 706.19298788 304.3125 614.0625 C304.39399292 613.33994019 304.47548584 612.61738037 304.55944824 611.8729248 C306.5223877 594.17606793 307.21095872 576.48637253 307.1875 558.6875 C307.18689575 557.82593292 307.1862915 556.96436584 307.18566895 556.07669067 C306.98734401 450.80847365 274.30968373 346.38492766 188.49609375 226.89453125 C186.17838314 224.20685744 183.95919807 221.46442495 181.75 218.6875 C171.82383332 206.55358696 160.62041853 195.52795611 149.5625 184.4375 C149.04839569 183.92071686 148.53429138 183.40393372 148.00460815 182.87149048 C142.18381285 177.02768118 136.29440075 171.33818059 130 166 C128.87004542 165.01552487 127.74110889 164.02987981 126.61328125 163.04296875 C119.53952544 156.905959 112.34941811 150.99614692 104.84912109 145.38525391 C103.54696617 144.40975522 102.24810585 143.42985094 100.95166016 142.44677734 C88.03672291 132.65870564 74.67477592 123.68931648 61 115 C60.25766113 114.52675293 59.51532227 114.05350586 58.75048828 113.56591797 C52.74527271 109.09080171 52.74527271 109.09080171 46 107 C43.53788229 114.65352631 41.07641853 122.30726282 38.61539078 129.96113968 C38.2047364 131.23827146 37.79406896 132.51539903 37.38338852 133.79252243 C32.92933391 147.64368797 28.47609079 161.49508568 24.05078125 175.35546875 C23.74161774 176.32376114 23.43245422 177.29205353 23.11392212 178.28968811 C22.65195938 179.73655251 22.65195938 179.73655251 22.18066406 181.21264648 C7.05320398 228.58890256 -8.29508852 275.89477294 -23.82714844 323.13989258 C-27.27308903 333.62361568 -30.71332177 344.10900111 -34.12475586 354.60400391 C-34.53825413 355.87609239 -34.53825413 355.87609239 -34.9601059 357.17387962 C-35.2413456 358.03911562 -35.5225853 358.90435162 -35.81234741 359.79580688 C-43.93408336 384.78199152 -52.14562641 409.73801949 -60.38452148 434.68579102 C-61.7861652 438.93101982 -63.18666313 443.17662625 -64.58719444 447.42222214 C-76.84015578 484.56382364 -89.09761921 521.70283718 -101.7718811 558.70318604 C-105.94591462 570.89140902 -110.07734236 583.09346765 -114.18359375 595.3046875 C-114.47995665 596.18580389 -114.77631954 597.06692028 -115.08166313 597.97473717 C-116.28264521 601.54544595 -117.48345859 605.11621141 -118.68402386 608.68706036 C-137.06678158 663.36172898 -137.06678158 663.36172898 -145.98901367 688.69995117 C-146.53575969 690.25305191 -147.08239147 691.80619288 -147.62890625 693.359375 C-148.02685646 694.49032341 -148.02685646 694.49032341 -148.43284607 695.64411926 C-152.9973794 708.65421053 -157.39290217 721.72350896 -161.8137207 734.78295898 C-162.13824722 735.74026917 -162.46277374 736.69757935 -162.7971344 737.68389893 C-163.40039499 739.46381379 -164.00256403 741.24409919 -164.6033783 743.02484131 C-164.87573807 743.82835022 -165.14809784 744.63185913 -165.42871094 745.4597168 C-165.66104431 746.14720505 -165.89337769 746.8346933 -166.13275146 747.54301453 C-167.36973955 751.04750214 -168.69508749 754.5202333 -170 758 C-191.12 758 -212.24 758 -234 758 C-235.55847656 753.37355469 -237.11695313 748.74710938 -238.72265625 743.98046875 C-240.83467342 737.71571906 -242.94816016 731.45146615 -245.0625 725.1875 C-245.33839588 724.37012486 -245.61429176 723.55274971 -245.89854813 722.71060562 C-252.32570814 703.6726019 -258.76101411 684.63984992 -265.4375 665.6875 C-273.4790582 642.85165169 -281.17190517 619.89765515 -288.90576172 596.95629883 C-289.70688432 594.57990301 -290.50801225 592.20350898 -291.30916595 589.82712364 C-291.83347012 588.27191769 -292.35774699 586.71670254 -292.88199615 585.16147804 C-297.24422427 572.22193091 -301.63371341 559.29193959 -306.0625 546.375 C-306.33048401 545.59337494 -306.59846802 544.81174988 -306.87457275 544.00643921 C-308.24752495 540.0035374 -309.62299653 536.00151025 -311 532 C-314.78206065 540.70713597 -317.99166056 549.53301216 -320.9921875 558.53515625 C-321.45875434 559.92369411 -321.92576599 561.31208258 -322.39318848 562.70033264 C-323.37982448 565.63274747 -324.3640919 568.56594096 -325.34637451 571.49981689 C-327.93889853 579.24178043 -330.54792473 586.97819269 -333.15625 594.71484375 C-333.41405621 595.47994766 -333.67186241 596.24505157 -333.93748093 597.03334045 C-338.00195414 609.09297722 -342.14406581 621.12265862 -346.375 633.125 C-354.1997044 655.34291998 -361.6952499 677.67263265 -369.21050549 699.99664307 C-370.25266024 703.09213906 -371.29544834 706.1874216 -372.33818245 709.28272247 C-373.03912982 711.36475674 -373.73881419 713.44721165 -374.43833923 715.52972412 C-379.2143504 729.71434905 -384.12034291 743.84899445 -389 758 C-410.12 758 -431.24 758 -453 758 C-457.7334375 744.2328125 -457.7334375 744.2328125 -462.5625 730.1875 C-468.8386287 711.94552353 -475.12704111 693.70842169 -481.5 675.5 C-487.79229207 657.52129898 -493.99580544 639.51243824 -500.18782425 621.49902725 C-505.90002822 604.88192856 -511.63142898 588.2720876 -517.4375 571.6875 C-523.44930312 554.51477092 -529.37141848 537.3117924 -535.27824783 520.1027565 C-541.81593437 501.05582668 -548.3609201 482.01190043 -555 463 C-555.29359406 462.15847382 -555.58718811 461.31694763 -555.88967896 460.44992065 C-558.90968356 451.79523292 -561.94479135 443.14611933 -565.00765991 434.50650024 C-566.33610346 430.75757237 -567.66023589 427.00712797 -568.98413086 423.2565918 C-569.91373946 420.62964407 -570.85028009 418.00523888 -571.78710938 415.38085938 C-572.34670804 413.79699998 -572.90597197 412.21302227 -573.46484375 410.62890625 C-573.72337631 409.91134659 -573.98190887 409.19378693 -574.24827576 408.45448303 C-575.43632103 405.06390879 -576 402.64461805 -576 399 C-549.27 399 -522.54 399 -495 399 C-481.35564366 439.93306903 -481.35564366 439.93306903 -476.45849609 455.36474609 C-474.802359 460.58225485 -473.13715927 465.79687407 -471.47265625 471.01171875 C-471.11841583 472.12195404 -470.76417542 473.23218933 -470.39920044 474.37606812 C-466.02721987 488.06583454 -461.59984777 501.73769397 -457.1759491 515.41074753 C-449.86508338 538.00748498 -442.58760055 560.61445092 -435.359375 583.23779297 C-434.73569304 585.18978374 -434.11199549 587.14176954 -433.48828125 589.09375 C-433.04193832 590.49066574 -433.04193832 590.49066574 -432.58657837 591.915802 C-428.41911317 604.95289887 -424.21370748 617.9777849 -420 631 C-418.02707642 628.04061464 -417.09084917 625.64080664 -415.97558594 622.28320312 C-415.57990921 621.09913376 -415.18423248 619.91506439 -414.77656555 618.69511414 C-414.34572149 617.39053036 -413.91499475 616.08590783 -413.484375 614.78125 C-413.03296915 613.42430303 -412.58119466 612.06747865 -412.1290741 610.71076965 C-410.91604714 607.06667399 -409.70881105 603.42068415 -408.50278854 599.77426529 C-407.49473716 596.72882008 -406.48328488 593.68450896 -405.47185802 590.64018345 C-399.63370573 573.06591957 -393.84457374 555.47625499 -388.14294434 537.85717773 C-382.47642583 520.35093033 -376.64629118 502.89993268 -370.81437302 485.44830704 C-364.24624824 465.79266294 -357.73309216 446.12088217 -351.34960938 426.40429688 C-351.0886145 425.59839111 -350.82761963 424.79248535 -350.55871582 423.9621582 C-350.09334341 422.52409426 -349.6286291 421.08581697 -349.16491699 419.6472168 C-346.82706986 412.41390803 -344.4042906 405.21287179 -342 398 C-321.21 398 -300.42 398 -279 398 C-260.19488294 454.27908223 -260.19488294 454.27908223 -253.0625 476.3125 C-247.26303383 494.22665274 -241.31715724 512.09087199 -235.34853745 529.94919968 C-229.05083923 548.79319033 -222.82164803 567.65756951 -216.69482422 586.55786133 C-211.88205962 601.40071236 -206.96826783 616.20850788 -202 631 C-200.03001619 628.04502428 -199.15186103 625.73623644 -198.08666992 622.37280273 C-197.71330505 621.20198151 -197.33994019 620.03116028 -196.95526123 618.82485962 C-196.54691579 617.52779658 -196.13865437 616.23070709 -195.73046875 614.93359375 C-195.29845281 613.57289573 -194.86600847 612.21233367 -194.4331665 610.85189819 C-193.25864863 607.15638434 -192.0899227 603.45906117 -190.92213058 599.76141739 C-189.68540711 595.84918825 -188.44319626 591.93870257 -187.20141602 588.02807617 C-185.14158774 581.53935044 -183.08455096 575.04974622 -181.02929688 568.55957031 C-178.23038563 559.72214479 -175.42210777 550.88772258 -172.609375 542.0546875 C-172.39429102 541.37919672 -172.17920704 540.70370594 -171.95760536 540.00774574 C-171.09481449 537.2981057 -170.23199102 534.58847604 -169.36908436 531.87887287 C-166.98254452 524.38466264 -164.59868966 516.88959874 -162.21484375 509.39453125 C-161.3462077 506.66356904 -160.47755081 503.93261345 -159.60888672 501.20166016 C-159.39386033 500.52564538 -159.17883394 499.8496306 -158.9572916 499.15313053 C-156.5566135 491.60584998 -154.15530222 484.05877091 -151.75390625 476.51171875 C-151.53722731 475.83074442 -151.32054836 475.14977009 -151.09730339 474.44816017 C-150.00271249 471.00811136 -148.90811195 467.56806561 -147.81350708 464.12802124 C-145.84434574 457.93946861 -143.8752698 451.75088881 -141.90618706 445.56231117 C-140.8124615 442.12487301 -139.71873048 438.68743659 -138.625 435.25 C-138.18749997 433.87500001 -137.74999997 432.50000001 -137.3125 431.125 C-129.4375 406.375 -121.5625 381.625 -113.6875 356.875 C-113.47093781 356.19437594 -113.25437563 355.51375189 -113.03125095 354.81250286 C-112.59374788 353.43749329 -112.1562447 352.06248375 -111.71874142 350.68747425 C-110.62503759 347.25012095 -109.53133558 343.81276706 -108.43763733 340.37541199 C-106.46833796 334.18615963 -104.49902578 327.99691134 -102.52964497 321.8076849 C-101.43511882 318.36788657 -100.34060344 314.92808482 -99.24609375 311.48828125 C-98.92106778 310.46679709 -98.92106778 310.46679709 -98.58947563 309.4246769 C-95.5380363 299.83460997 -92.48719808 290.24435199 -89.43674088 280.65397263 C-80.07103613 251.20932075 -70.69647204 221.76751979 -61.30796051 192.33013153 C-54.34356201 170.49332927 -47.38611154 148.65433103 -40.4375 126.8125 C-40.00581926 125.45562726 -39.57413794 124.0987547 -39.14245605 122.74188232 C-34.91857199 109.46508648 -30.69564629 96.18798596 -26.47366047 82.91058636 C-24.58302769 76.96493312 -22.69210425 71.01937236 -20.80101299 65.07386494 C-19.68414003 61.56239413 -18.56742438 58.05087349 -17.45114136 54.53921509 C-11.66856808 36.34831899 -5.85281504 18.16841263 0 0 Z " fill="#DE4234" transform="translate(814,42)"/>
<path d="M0 0 C0.66302502 -0.00044186 1.32605003 -0.00088371 2.00916672 -0.00133896 C24.57936211 -0.00920766 46.94450645 0.60184481 69.375 3.25 C70.10088318 3.33485657 70.82676636 3.41971313 71.574646 3.50714111 C100.02693072 6.87068489 128.00939086 12.44023278 155.75 19.5625 C156.41729126 19.73335114 157.08458252 19.90420227 157.77209473 20.08023071 C168.96434613 22.96475791 168.96434613 22.96475791 173.375 25.25 C171.76559081 33.32399779 169.31625621 41.08231162 166.8046875 48.91015625 C166.35879891 50.30965972 165.91325825 51.70927409 165.4680481 53.10899353 C164.30430011 56.76456857 163.1358804 60.41863335 161.96643066 64.0723877 C160.77032913 67.81231941 159.57872203 71.55368238 158.38671875 75.29492188 C156.0538378 82.61467724 153.71601207 89.93284056 151.375 97.25 C150.37952148 97.00040527 149.38404297 96.75081055 148.35839844 96.49365234 C144.74786997 95.58903728 141.13666866 94.6871382 137.52514648 93.78649902 C135.623937 93.31211412 133.72307488 92.83633761 131.82226562 92.36035156 C89.44406492 81.8346378 46.39223842 76.00707751 2.6875 76.0625 C1.35214203 76.06340637 1.35214203 76.06340637 -0.01019287 76.06433105 C-105.50174582 76.25706979 -210.03693541 108.79812041 -329.73046875 194.75390625 C-332.41814256 197.07161686 -335.16057505 199.29080193 -337.9375 201.5 C-350.07141304 211.42616668 -361.09704389 222.62958147 -372.1875 233.6875 C-372.96267471 234.45865646 -372.96267471 234.45865646 -373.75350952 235.24539185 C-379.59752386 241.06639139 -385.28315502 246.95849369 -390.625 253.25 C-391.57400247 254.33336318 -392.52447104 255.41544426 -393.4765625 256.49609375 C-401.27730766 265.4390561 -408.5461702 274.72801561 -415.625 284.25 C-416.1627002 284.97203613 -416.70040039 285.69407227 -417.25439453 286.43798828 C-481.15102037 372.61296878 -518.76925091 479.23723606 -519.8125 596.5625 C-519.81189575 597.42406708 -519.8112915 598.28563416 -519.81066895 599.17330933 C-519.61234401 704.44152635 -486.93468373 808.86507234 -401.12109375 928.35546875 C-398.80338314 931.04314256 -396.58419807 933.78557505 -394.375 936.5625 C-384.44883332 948.69641304 -373.24541853 959.72204389 -362.1875 970.8125 C-361.67339569 971.32928314 -361.15929138 971.84606628 -360.62960815 972.37850952 C-354.80860861 978.22252386 -348.91650631 983.90815502 -342.625 989.25 C-341.54163682 990.19900247 -340.45955574 991.14947104 -339.37890625 992.1015625 C-330.4359439 999.90230766 -321.14698439 1007.1711702 -311.625 1014.25 C-310.90296387 1014.7877002 -310.18092773 1015.32540039 -309.43701172 1015.87939453 C-231.64878917 1073.55744588 -139.73358845 1107.63300149 -3.625 1119.25 C-3.25858398 1117.43435547 -3.25858398 1117.43435547 -2.88476562 1115.58203125 C-1.47209923 1109.24445585 0.54139424 1103.11327419 2.53125 1096.9375 C2.9498723 1095.62816959 3.36811599 1094.31871807 3.78601074 1093.00915527 C4.67837448 1090.21510788 5.57309224 1087.42183022 6.46972656 1084.62915039 C7.89793554 1080.18049263 9.3206506 1075.73009052 10.7421875 1071.27929688 C10.98157043 1070.52984047 11.22095337 1069.78038406 11.46759033 1069.00821686 C11.95326096 1067.48767533 12.43891766 1065.96712936 12.92456055 1064.44657898 C13.65896926 1062.1477382 14.39388143 1059.84905889 15.12890625 1057.55041504 C19.2154758 1044.7677786 23.26355046 1031.97324054 27.29632568 1019.17352295 C34.07911799 997.64613068 40.90218413 976.13177265 47.75 954.625 C47.96983929 953.93454464 48.18967857 953.24408928 48.41617966 952.53271103 C49.08270127 950.43936634 49.74923425 948.34602526 50.41577148 946.25268555 C51.0823688 944.15915609 51.74896433 942.06562606 52.41555214 939.97209358 C52.86004233 938.576099 53.30453976 937.18010672 53.74904442 935.78411674 C58.65389664 920.37967246 63.54719165 904.97156668 68.4375 889.5625 C68.64246597 888.91666458 68.84743195 888.27082916 69.05860901 887.60542297 C70.71312699 882.39207524 72.36761233 877.17871714 74.02197647 871.96532059 C76.94863302 862.74256619 79.8769978 853.52035591 82.80672455 844.29857635 C84.704751 838.32413602 86.60246656 832.34959694 88.5 826.375 C88.70817604 825.71953438 88.91635208 825.06406876 89.13083649 824.38874054 C95.21078874 805.24443173 101.26992197 786.09364403 107.3125 766.9375 C114.86375574 742.99912442 122.46656786 719.07739694 130.08226013 695.1594696 C130.5266722 693.7637413 130.97108189 692.36801223 131.4154892 690.97228241 C131.86000671 689.57620791 132.30453084 688.18013553 132.74906158 686.78406525 C137.65390781 671.37963784 142.54705861 655.97150561 147.4375 640.5625 C147.85219209 639.25592006 148.26688529 637.94934047 148.68157959 636.64276123 C150.33804363 631.4236742 151.99443634 626.20456455 153.6506958 620.9854126 C156.55694451 611.82733982 159.46379583 602.6694585 162.37109375 593.51171875 C162.57758482 592.86128727 162.78407589 592.21085579 162.99682426 591.54071426 C164.24812482 587.59922104 165.49944331 583.65773352 166.75076675 579.71624756 C168.61772792 573.83558058 170.48465417 567.95490251 172.3515625 562.07421875 C172.55707796 561.42685635 172.76259342 560.77949394 172.97433662 560.1125145 C175.30700815 552.76469659 177.63951187 545.41682546 179.97167969 538.06884766 C180.18726815 537.38959354 180.40285662 536.71033943 180.62497807 536.01050186 C181.49591452 533.26643054 182.36684623 530.52235772 183.23774529 527.77827454 C185.57612164 520.4103754 187.91490943 513.04260754 190.25512695 505.67529297 C191.06983925 503.11035634 191.88453123 500.54541325 192.69921875 497.98046875 C193.09432144 496.73656372 193.48942413 495.49265869 193.89649963 494.21105957 C196.15700346 487.09225244 198.41291971 479.97201583 200.66394043 472.85020447 C201.98874907 468.6596735 203.31575507 464.46984034 204.64312744 460.28012085 C205.25065095 458.36041029 205.85707582 456.44035166 206.46234131 454.51992798 C207.27814432 451.93167969 208.09759874 449.34461614 208.91796875 446.7578125 C209.15546341 446.00079544 209.39295807 445.24377838 209.63764954 444.46382141 C211.26102713 439.36397287 211.26102713 439.36397287 212.375 438.25 C214.83944057 438.15499452 217.27574626 438.12442015 219.74047852 438.13647461 C220.51115662 438.13632858 221.28183472 438.13618256 222.0758667 438.1360321 C224.63524139 438.1367314 227.1945442 438.14452455 229.75390625 438.15234375 C231.52367615 438.15420787 233.29344656 438.1556318 235.06321716 438.15663147 C239.73051366 438.16045712 244.39777923 438.1702878 249.06506348 438.18133545 C253.82397035 438.19154856 258.58288221 438.19612887 263.34179688 438.20117188 C272.68621153 438.21191003 282.0306032 438.22898701 291.375 438.25 C289.17414691 446.65750659 286.62966532 454.92976351 283.97265625 463.203125 C283.53853437 464.56088413 283.1046366 465.91871494 282.67094421 467.27661133 C281.74550132 470.17281838 280.81868242 473.06857983 279.89074707 475.96398926 C278.41261763 480.57643087 276.9378848 485.18995388 275.46386719 489.80371094 C275.21480936 490.58324253 274.96575153 491.36277412 274.7091465 492.16592789 C274.20276907 493.75085209 273.69639919 495.3357787 273.19003677 496.9207077 C272.42230866 499.32336771 271.65429082 501.72593494 270.88619995 504.128479 C266.15415994 518.93138175 261.44338659 533.74099332 256.74261475 548.55385208 C256.12171043 550.51036568 255.50068457 552.46684067 254.87963867 554.42330933 C248.67786495 573.96190731 242.50177834 593.50856667 236.33477783 613.0581665 C229.14995175 635.83093616 221.91272436 658.58685202 214.66773987 681.3405304 C214.2233278 682.7362587 213.77891811 684.13198777 213.3345108 685.52771759 C212.88999329 686.92379209 212.44546916 688.31986447 212.00093842 689.71593475 C207.09609219 705.12036216 202.20294139 720.52849439 197.3125 735.9375 C196.89780791 737.24407994 196.48311471 738.55065953 196.06842041 739.85723877 C194.41195637 745.0763258 192.75556366 750.29543545 191.0993042 755.5145874 C188.19305549 764.67266018 185.28620648 773.83054223 182.37890625 782.98828125 C182.17253981 783.63831808 181.96617336 784.28835491 181.75355339 784.95808983 C180.7110462 788.24188876 179.66852891 791.52568448 178.62600708 794.80947876 C176.75059311 800.71678059 174.87526865 806.62411084 172.99993706 812.53143883 C171.958295 815.81262704 170.91664721 819.09381343 169.875 822.375 C169.45833331 823.68749999 169.04166664 824.99999999 168.625 826.3125 C166.12499964 834.18750115 166.12499964 834.18750115 165.49999809 836.15625572 C165.08333756 837.46873658 164.66667725 838.78121751 164.25001717 840.0936985 C163.2082584 843.37524197 162.1664958 846.65678422 161.12472534 849.93832397 C159.25082108 855.84106835 157.37694335 861.74382114 155.50321007 867.6466198 C154.46309661 870.92327342 153.42296052 874.19991985 152.3828125 877.4765625 C152.17680546 878.12552113 151.97079842 878.77447975 151.75854874 879.44310379 C148.81980163 888.70052069 145.87977113 897.95752925 142.93898392 907.21429825 C141.0423761 913.18444328 139.14613278 919.15470408 137.25 925.125 C137.04174339 925.78070732 136.83348679 926.43641464 136.61891937 927.11199188 C130.19131186 947.35024331 123.79078323 967.59692247 117.40472412 987.84832764 C111.33535017 1007.09050844 105.21669643 1026.31665786 99.08114624 1045.53781128 C92.0255739 1067.64124632 84.98485839 1089.74909036 78 1111.875 C77.63826691 1113.02074493 77.27653381 1114.16648987 76.90383911 1115.34695435 C72.8334625 1128.24348153 68.77861284 1141.14481019 64.73828125 1154.05078125 C64.17551483 1155.8477243 64.17551483 1155.8477243 63.60137939 1157.68096924 C61.8100562 1163.40128676 60.02058878 1169.12217076 58.23486328 1174.84423828 C57.60324054 1176.86362255 56.97157017 1178.88299192 56.33984375 1180.90234375 C56.05224686 1181.82638504 55.76464996 1182.75042633 55.46833801 1183.70246887 C55.20542465 1184.54178452 54.94251129 1185.38110016 54.67163086 1186.24584961 C54.44390488 1186.97549423 54.21617889 1187.70513885 53.98155212 1188.45689392 C53.375 1190.25 53.375 1190.25 52.375 1192.25 C36.8769747 1196.56491271 18.03054003 1194.49259501 2.125 1194.5 C0.16480423 1194.50101212 0.16480423 1194.50101212 -1.83499146 1194.50204468 C-23.24910184 1194.48454294 -44.36007914 1193.77051642 -65.625 1191.25 C-66.35710693 1191.16514343 -67.08921387 1191.08028687 -67.84350586 1190.99285889 C-151.86408399 1181.21980525 -233.12184457 1153.8879757 -305.625 1110.25 C-307.23545487 1109.29259487 -308.84611933 1108.33554216 -310.45703125 1107.37890625 C-326.80676478 1097.60103832 -342.39854219 1086.68708737 -357.625 1075.25 C-358.18380859 1074.83153809 -358.74261719 1074.41307617 -359.31835938 1073.98193359 C-366.59314115 1068.5173188 -373.61097064 1062.80626218 -380.51953125 1056.88671875 C-383.27752903 1054.52889771 -386.09946369 1052.26109619 -388.9375 1050 C-402.15809743 1039.1643683 -414.09982204 1026.87222621 -426.1875 1014.8125 C-426.84779205 1014.15488678 -427.50808411 1013.49727356 -428.18838501 1012.81973267 C-434.8849834 1006.14372479 -441.54614532 999.50268794 -447.625 992.25 C-448.59726463 991.1313382 -449.57120046 990.0141265 -450.546875 988.8984375 C-456.95503512 981.50105329 -463.15802826 973.97854169 -469.11621094 966.21386719 C-470.15447884 964.86243886 -471.1970503 963.51430948 -472.24316406 962.16894531 C-480.61282812 951.38874118 -488.42793966 940.28593747 -496 928.9375 C-496.41434296 928.31818604 -496.82868591 927.69887207 -497.25558472 927.06079102 C-549.65552741 848.57737336 -581.88602973 757.89573625 -592.625 664.25 C-592.85147217 662.32075684 -592.85147217 662.32075684 -593.08251953 660.35253906 C-597.97783303 617.48519486 -597.71949261 573.08720502 -592.625 530.25 C-592.49771515 529.15344086 -592.49771515 529.15344086 -592.36785889 528.034729 C-582.58943035 444.0110787 -555.26554037 362.75741655 -511.625 290.25 C-510.66759487 288.63954513 -509.71054216 287.02888067 -508.75390625 285.41796875 C-490.22299181 254.42873686 -468.15815627 225.40615958 -443.85546875 198.7265625 C-442.60583472 197.33905291 -441.36262651 195.94544641 -440.14385986 194.53074646 C-435.94354354 189.65874077 -431.55842169 185.0366533 -427.00390625 180.49609375 C-425.94851906 179.43927147 -425.94851906 179.43927147 -424.87181091 178.36109924 C-423.39485352 176.88346633 -421.91665258 175.40707543 -420.43725586 173.93188477 C-418.19334915 171.69333519 -415.95483296 169.44949527 -413.71679688 167.20507812 C-412.27115382 165.76009596 -410.82520055 164.31542408 -409.37890625 162.87109375 C-408.7203212 162.21048447 -408.06173615 161.54987518 -407.38319397 160.86924744 C-402.95744278 156.46538012 -398.36233927 152.31522854 -393.625 148.25 C-392.50719841 147.27674652 -391.38990634 146.30290706 -390.2734375 145.328125 C-382.87605329 138.91996488 -375.35354169 132.71697174 -367.58886719 126.75878906 C-366.23743886 125.72052116 -364.88930948 124.6779497 -363.54394531 123.63183594 C-352.76374118 115.26217188 -341.66093747 107.44706034 -330.3125 99.875 C-329.69318604 99.46065704 -329.07387207 99.04631409 -328.43579102 98.61941528 C-260.3373503 53.15306714 -182.76312895 22.24342327 -44.625 1.25 C-43.42891113 1.1454248 -42.23282227 1.04084961 -41.00048828 0.93310547 C-27.35792194 -0.08304304 -13.67283298 0.00623688 0 0 Z " fill="#6B6B6F" transform="translate(598.625,2.75)"/>
<path d="M0 0 C26.07 0 52.14 0 79 0 C75.62523077 13.49907692 75.62523077 13.49907692 74.0546875 18.34423828 C73.70422363 19.4322171 73.35375977 20.52019592 72.99267578 21.6411438 C72.62384277 22.77276947 72.25500977 23.90439514 71.875 25.0703125 C71.29274658 26.87373611 71.29274658 26.87373611 70.69873047 28.71359253 C69.67685443 31.87683199 68.6517327 35.03897733 67.62475586 38.20056152 C66.17971475 42.65172859 64.740578 47.10480747 63.30126953 51.55783081 C62.53807014 53.91793937 61.77350331 56.27760634 61.00732422 58.63674927 C59.12155952 64.45698861 57.29492381 70.2834752 55.60888672 76.16500854 C55 78 55 78 54 79 C51.53555943 79.09500548 49.09925374 79.12557985 46.63452148 79.11352539 C45.86384338 79.11367142 45.09316528 79.11381744 44.2991333 79.1139679 C41.73975861 79.1132686 39.1804558 79.10547545 36.62109375 79.09765625 C34.85132385 79.09579213 33.08155344 79.0943682 31.31178284 79.09336853 C26.64448634 79.08954288 21.97722077 79.0797122 17.30993652 79.06866455 C12.55102965 79.05845144 7.79211779 79.05387113 3.03320312 79.04882812 C-6.31121153 79.03808997 -15.6556032 79.02101299 -25 79 C-22.94376768 70.26138652 -20.42747569 61.73952301 -17.65625 53.203125 C-17.2414514 51.91673932 -16.82694741 50.6302586 -16.41271973 49.34368896 C-15.55117242 46.6705552 -14.68704157 43.99827658 -13.82080078 41.32666016 C-12.71744459 37.92347962 -11.61926256 34.51865751 -10.52283478 31.11323929 C-9.66987873 28.4651515 -8.81490867 25.81771754 -7.95927429 23.17049408 C-7.35870912 21.31191913 -6.7592356 19.45299154 -6.15979004 17.59405518 C-5.78930542 16.45216736 -5.4188208 15.31027954 -5.03710938 14.13378906 C-4.71528687 13.13961975 -4.39346436 12.14545044 -4.06188965 11.12115479 C-2.79072873 7.38490027 -1.38573472 3.69529258 0 0 Z " fill="#6B6B6F" transform="translate(845,332)"/>
</svg>
