<svg xmlns="http://www.w3.org/2000/svg" width="62" height="62" fill="#25d366"><path d="M52.594 30.009c-.205-5.619-2.573-10.942-6.61-14.857S36.555 9.033 30.932 9h-.106a21.81 21.81 0 0 0-19.154 32.27L9.744 52.81c-.003.024-.001.048.006.07s.019.044.034.062a.16.16 0 0 0 .057.042c.022.01.045.015.069.015h.033l11.413-2.539a21.82 21.82 0 0 0 9.45 2.15h.624a21.8 21.8 0 0 0 19.799-14.159 21.8 21.8 0 0 0 1.365-8.443zM31.321 48.818h-.515a18.03 18.03 0 0 1-8.309-2.017l-.584-.305-7.74 1.829 1.429-7.831-.332-.562a18.03 18.03 0 0 1-2.476-8.9 18.04 18.04 0 0 1 2.257-8.958 18.03 18.03 0 0 1 6.398-6.664c2.675-1.628 5.728-2.531 8.859-2.62h.524a18.02 18.02 0 0 1 .508 36.034l-.02-.007zm-8.098-28.536c-.269.005-.535.065-.781.174s-.468.268-.652.465c-.52.533-1.973 1.816-2.057 4.509s1.798 5.359 2.061 5.732 3.598 6.192 9.091 8.552c3.229 1.391 4.644 1.63 5.562 1.63.378 0 .664-.04.962-.057 1.006-.062 3.277-1.225 3.773-2.49s.529-2.371.398-2.592-.489-.38-1.028-.663l-3.684-1.897a1.68 1.68 0 0 0-.586-.153.81.81 0 0 0-.374.114.82.82 0 0 0-.278.275l-1.798 2.092a.81.81 0 0 1-.597.279 1.43 1.43 0 0 1-.599-.162 13.96 13.96 0 0 1-4.31-2.875 16.51 16.51 0 0 1-2.928-3.895c-.301-.557 0-.845.274-1.106s.568-.621.851-.933a3.76 3.76 0 0 0 .575-.885 1.01 1.01 0 0 0-.016-.96c-.13-.279-1.106-3.019-1.563-4.118-.371-.94-.814-.971-1.201-1l-1.048-.044h-.047"/></svg>