<svg xmlns="http://www.w3.org/2000/svg" width="62" height="62" fill="none"><rect width="62" height="62" rx="31" fill="#fff"/><path d="M30.922 50.68a19.75 19.75 0 1 1 0-39.517A19.75 19.75 0 0 1 50.68 30.922c0 10.922-8.863 19.758-19.758 19.758zm11-28.152h2.268l-5.839 19.159h-2.268L32.46 29.749h2.268l2.502 8.185 4.692-15.405zM24.483 34.441L20.86 22.528h-2.268l3.623 11.912h2.268zm5.761-11.912l-5.839 19.159h2.268l5.839-19.159h-2.268zM31 53c12.147 0 22-9.853 22-22S43.147 9 31 9 9 18.853 9 31s9.853 22 22 22z" fill="#000"/></svg>