<svg xmlns="http://www.w3.org/2000/svg" width="62" height="62" fill="none"><rect width="62" height="62" rx="31" fill="#fff"/><path d="M51.284 12.021c-1.93-.506-3.562 8.311-4.856 16.642-1.363 8.767-2.622 17.539-4.377 16.593-5.056-2.727-6.236-32.026-12.29-30.674-4.805 1.072-2.878 29.857-6.024 30.444S13.803 19.757 12.22 18.485s-5.943 1.509-.747 5.763c5.448 4.459 9.806 26.927 12.953 26.335s1.127-29.827 6.023-30.443c2.47-.311 4.28 7.425 6.067 15.16 1.755 7.605 3.491 15.209 5.812 15.168 3.148-.051 5.198-30.084 9.011-32.99 3.009-2.296 1.267-5.112-.053-5.459" fill="#036"/></svg>