<svg width="39" height="34" viewBox="0 0 39 34" fill="none" xmlns="http://www.w3.org/2000/svg">
    <path d="M33.4337 14.6778C32.2158 22.4032 31.0923 30.1287 29.5231 29.2954C25.0073 26.893 23.9534 1.08093 18.5448 2.27354C14.2539 3.21846 15.974 28.5767 13.1638 29.0935C10.3521 29.6118 4.29025 6.8335 2.87641 5.71248C1.45966 4.58859 -2.43204 7.04252 2.21013 10.7907C7.07584 14.7179 10.969 34.5097 13.7793 33.9899C16.5895 33.4702 14.7852 7.71399 19.1588 7.17138C21.3652 6.89649 22.9808 13.7128 24.5776 20.5277C26.1467 27.228 27.6956 33.927 29.7684 33.8912C32.5802 33.8468 34.4106 7.38756 37.8175 4.82769C40.5058 2.80613 37.7696 0.0186121 37.7696 0.0186121C37.7159 0.00715851 37.6636 0 37.6114 0C35.8288 0.0014317 34.5892 7.34032 33.4322 14.6792L33.4337 14.6778Z" fill="#164C74"/>
</svg>