<?xml version="1.0" encoding="UTF-8"?>
<svg version="1.1" xmlns="http://www.w3.org/2000/svg" width="32" height="32">
<path d="M0 0 C10.56 0 21.12 0 32 0 C32 10.56 32 21.12 32 32 C21.44 32 10.88 32 0 32 C0 21.44 0 10.88 0 0 Z " fill="#9CE56E" transform="translate(0,0)"/>
<path d="M0 0 C6.27 0 12.54 0 19 0 C16.69 7.26 14.38 14.52 12 22 C10.35 22 8.7 22 7 22 C7.81042494 19.37434281 8.62324187 16.74946834 9.4375 14.125 C9.66759766 13.37863281 9.89769531 12.63226563 10.13476562 11.86328125 C11.88671875 6.2265625 11.88671875 6.2265625 13 4 C10.69 4 8.38 4 6 4 C6.2784375 4.9590625 6.2784375 4.9590625 6.5625 5.9375 C6.706875 6.618125 6.85125 7.29875 7 8 C6.67 8.33 6.34 8.66 6 9 C6.99 9.33 7.98 9.66 9 10 C8.67 11.32 8.34 12.64 8 14 C4.37 14 0.74 14 -3 14 C-1.6328125 12.40494792 -0.265625 10.80989583 1.1015625 9.21484375 C2.5655291 6.25866063 2.5655291 6.25866063 0 0 Z " fill="#1E3E07" transform="translate(8,5)"/>
</svg>
