<?xml version="1.0" encoding="UTF-8"?>
<svg width="64" height="64" viewBox="0 0 64 64" fill="none" xmlns="http://www.w3.org/2000/svg">
  <g transform="translate(10, 10)">
    <rect width="44" height="44" rx="8" fill="#9CE56E"/>
    <path d="M11 6.875C15.35813 6.875 19.71625 6.875 24.1875 6.875C22.5859 11.89938 20.9844 16.92375 19.3333 22.0938C18.1879 22.0938 17.0425 22.0938 15.8542 22.0938C16.41564 20.27301 16.97986 18.45305 17.54531 16.63594C17.70401 16.11973 17.86271 15.60352 18.0261 15.07109C19.24219 11.17109 19.24219 11.17109 20.0208 9.6325C18.42189 9.6325 16.82297 9.6325 15.1667 9.6325C15.35969 10.29538 15.35969 10.29538 15.5566 10.97031C15.65641 11.44109 15.75622 11.91188 15.8542 12.4C15.62422 12.62813 15.39425 12.85625 15.1667 13.0938C15.85297 13.32193 16.53924 13.55006 17.2083 13.7813C16.97833 14.69318 16.74836 15.60506 16.5104 16.5438C14.00065 16.5438 11.49091 16.5438 8.9583 16.5438C9.77773 15.44092 10.59716 14.33845 11.41736 13.23555C12.43219 11.18973 12.43219 11.18973 10.6533 6.8748L11 6.875Z" fill="#1E3E07"/>
  </g>
</svg>
