<svg xmlns="http://www.w3.org/2000/svg" width="62" height="62" fill="none"><g clip-path="url(#B)"><mask id="A" maskUnits="userSpaceOnUse" x="9" y="9" width="44" height="44"><path d="M53 9H9V53H53V9Z" fill="#fff"/></mask><g mask="url(#A)"><path d="M48.077 9H13.893C11.191 9 9 11.191 9 13.893v34.185c0 2.702 2.191 4.893 4.893 4.893h34.185c2.702 0 4.893-2.191 4.893-4.893V13.893C52.97 11.191 50.779 9 48.077 9z" fill="#7f54b3"/><path d="M15.85 18.497c.425-.576 1.062-.879 1.912-.94 1.549-.121 2.429.606 2.641 2.182.941 6.335 1.973 11.7 3.066 16.095l6.649-12.639c.607-1.152 1.366-1.758 2.277-1.819 1.336-.091 2.155.758 2.489 2.546.759 4.031 1.73 7.456 2.884 10.366.789-7.699 2.125-13.245 4.008-16.67.455-.849 1.123-1.273 2.003-1.334.699-.06 1.336.152 1.913.606s.881 1.031.941 1.728c.03.546-.061 1-.304 1.455-1.184 2.182-2.156 5.85-2.945 10.942-.759 4.941-1.032 8.79-.85 11.549.061.757-.061 1.424-.364 2-.365.667-.911 1.031-1.609 1.091-.789.061-1.609-.303-2.398-1.121-2.823-2.88-5.07-7.184-6.709-12.913l-4.372 8.729c-1.791 3.425-3.309 5.184-4.584 5.274-.82.061-1.518-.637-2.125-2.091-1.548-3.971-3.218-11.639-5.009-23.006-.122-.788.06-1.485.486-2.031z" fill="#fff"/></g></g><defs><clipPath id="B"><path fill="#fff" transform="translate(9 9)" d="M0 0h44v44H0z"/></clipPath></defs></svg>