<svg xmlns="http://www.w3.org/2000/svg" width="62" height="62" fill="none"><g clip-path="url(#A)"><path d="M12.108 31c0 7.494 4.304 13.949 10.588 16.978l-8.913-24.63c-1.035 2.391-1.675 4.943-1.675 7.652zm31.646-.957c0-2.31-.877-3.988-1.595-5.181-.957-1.595-1.833-2.87-1.833-4.463 0-1.753 1.356-3.348 3.19-3.348h.239c-3.349-3.109-7.813-4.943-12.754-4.943a19.18 19.18 0 0 0-15.782 8.529h1.196c1.994 0 5.022-.239 5.022-.239 1.037-.08 1.116 1.434.159 1.595 0 0-1.037.16-2.152.16l6.856 20.405 4.144-12.356-2.949-8.051-1.994-.157c-1.037-.08-.877-1.595.08-1.595 0 0 3.108.239 4.942.239 1.994 0 5.022-.239 5.022-.239 1.037-.08 1.117 1.434.16 1.595 0 0-1.037.159-2.152.159l6.854 20.328 1.925-6.297c.797-2.63 1.434-4.463 1.434-6.138l-.011-.003zm-12.434 2.63L25.66 49.095c1.673.479 3.506.797 5.34.797 2.232 0 4.304-.413 6.297-1.037-.08-.08-.08-.16-.16-.239l-5.819-15.943zm16.261-10.68l.159 1.925c0 1.925-.319 4.066-1.434 6.776l-5.739 16.659c5.58-3.268 9.405-9.327 9.405-16.34-.08-3.268-.957-6.297-2.392-9.006l.001-.014zM31 9C18.884 9 9 18.884 9 31s9.884 22 22 22 22-9.883 22-22S43.117 9 31 9zm0 43.043c-11.558 0-20.963-9.405-20.963-21.043.009-5.557 2.22-10.884 6.15-14.814s9.257-6.141 14.814-6.15c5.557.009 10.884 2.22 14.814 6.15s6.141 9.257 6.15 14.814c0 11.638-9.405 21.043-20.963 21.043z" fill="#00749a"/></g><defs><clipPath id="A"><path fill="#fff" transform="translate(9 9)" d="M0 0h44v44H0z"/></clipPath></defs></svg>