<svg xmlns="http://www.w3.org/2000/svg" width="62" height="62" fill="none"><path d="M36.879 31.923c1.447-2.543 2.17-4.806 2.146-6.556-.023-2.146-.887-3.733-2.146-4.806-3.779-3.173-11.245-1.493-11.128 4.899.047 2.403 1.213 5.529 4.246 9.285 0 0 1.703-1.516 2.076-2.87-8.072-10.965 8.889-11.572.443.607 0 0-.98 1.586-2.216 2.66-2.636 2.473-5.016 3.266-7.092 2.916-7.232-1.19-8.375-11.945-8.912-18.361H9v.21 1.19c.28 12.715 9.262 30.375 23.633 16.471 1.423-1.423 2.24-2.566 2.24-2.566.723-.957 1.4-2.006 2.006-3.08zm12.201-5.506c-.98 7.466-5.296 13.765-11.805 10.289-.14.187-.257.35-.397.513-.63.723-1.33 1.4-2.076 1.983-.023 0-.047-.023-.047-.023.723.443 1.423.817 2.146 1.073C44.951 43.354 52.3 35.679 53 26.043l-3.779-.163c-.07.187-.117.35-.14.537z" fill="#00756a"/></svg>