<svg width="62" height="62" viewBox="0 0 62 62" fill="none" xmlns="http://www.w3.org/2000/svg"><path d="M34.6227 12C33.7834 12.5915 33.074 13.3463 32.5367 14.2181L32.438 14.3829L30.5742 17.597L22.8156 30.9996L30.1642 43.6565L28.3021 46.8722C26.8081 49.4594 23.6844 50.6295 20.8501 49.6636C19.4048 49.183 18.2326 48.1284 17.4413 46.8315L17.3608 46.6965L9.64512 33.3825C9.21929 32.6653 9.00001 31.8324 9.00001 30.9996C8.99854 30.2151 9.19418 29.4435 9.56799 28.7549L9.64512 28.6183L17.5801 14.9228C18.5982 13.1509 20.4739 12.0487 22.5185 12.0016L22.6551 12H34.6227ZM37.0855 12.3357C39.876 11.3989 42.9384 12.5155 44.467 15.0091L44.5375 15.127L52.3549 28.6168C52.7807 29.3324 53 30.1668 53 30.9996C53 31.7804 52.8073 32.5612 52.4323 33.2454L52.3549 33.3809L44.4199 47.0765C43.4018 48.8484 41.5261 49.9506 39.4815 49.9977L39.3449 49.9993H27.3773C28.2025 49.41 28.9119 48.6662 29.4555 47.7928L29.5621 47.6164L31.4258 44.4007L39.1845 30.9996L31.8358 18.3269L33.5963 15.3028C34.3876 13.9427 35.592 12.8328 37.0855 12.3357Z" fill="#6363F1"/></svg>