<?xml version="1.0" encoding="UTF-8" standalone="no" ?>
<svg xmlns="http://www.w3.org/2000/svg" xmlns:xlink="http://www.w3.org/1999/xlink" version="1.1" width="1200" height="900" viewBox="0 0 1200 900" xml:space="preserve">
<desc>Created with Fabric.js 5.2.4</desc>
<defs>
</defs>
<rect x="0" y="0" width="100%" height="100%" fill="transparent"></rect>
<g transform="matrix(1 0 0 1 600 450)" id="2f36dd0f-4206-4aa6-8ff6-842020387dab"  >
<rect style="stroke: none; stroke-width: 1; stroke-dasharray: none; stroke-linecap: butt; stroke-dashoffset: 0; stroke-linejoin: miter; stroke-miterlimit: 4; fill: rgb(255,255,255); fill-rule: nonzero; opacity: 1; visibility: hidden;" vector-effect="non-scaling-stroke"  x="-600" y="-450" rx="0" ry="0" width="1200" height="900" />
</g>
<g transform="matrix(Infinity NaN NaN Infinity 0 0)" id="71220f67-b18e-4632-989e-3a1f10f1bdbe"  >
</g>
<g transform="matrix(3.39 0 0 3.39 600 484.55)"  >
<path style="stroke: none; stroke-width: 1; stroke-dasharray: none; stroke-linecap: butt; stroke-dashoffset: 0; stroke-linejoin: miter; stroke-miterlimit: 4; fill: rgb(0,117,106); fill-rule: nonzero; opacity: 1;" vector-effect="non-scaling-stroke"  transform=" translate(-120.6, -321.1)" d="M 145.8 325.8 C 152 314.90000000000003 155.10000000000002 305.2 155 297.7 C 154.9 288.5 151.2 281.7 145.8 277.09999999999997 C 129.60000000000002 263.49999999999994 97.60000000000001 270.7 98.10000000000001 298.09999999999997 C 98.30000000000001 308.4 103.30000000000001 321.79999999999995 116.30000000000001 337.9 C 116.30000000000001 337.9 123.60000000000001 331.4 125.20000000000002 325.59999999999997 C 90.60000000000002 278.59999999999997 163.3 275.99999999999994 127.10000000000002 328.2 C 127.10000000000002 328.2 122.90000000000002 335 117.60000000000002 339.59999999999997 C 106.30000000000003 350.2 96.10000000000002 353.59999999999997 87.20000000000002 352.09999999999997 C 56.2 347 51.3 300.9 49 273.4 L 26.3 273.4 L 26.3 274.29999999999995 L 26.3 279.4 C 27.5 333.9 66 409.59999999999997 127.6 350 C 133.7 343.9 137.2 339 137.2 339 C 140.3 334.9 143.2 330.4 145.8 325.8 M 198.1 302.2 C 193.9 334.2 175.4 361.2 147.5 346.3 C 146.9 347.1 146.4 347.8 145.8 348.5 C 143.10000000000002 351.6 140.10000000000002 354.5 136.9 357 C 136.8 357 136.70000000000002 356.9 136.70000000000002 356.9 C 139.8 358.79999999999995 142.8 360.4 145.9 361.5 C 180.4 374.8 211.9 341.9 214.9 300.6 L 198.70000000000002 299.90000000000003 C 198.4 300.7 198.2 301.4 198.1 302.2" stroke-linecap="round" />
</g>
</svg>