<svg width="62" height="62" viewBox="0 0 62 62" fill="none" xmlns="http://www.w3.org/2000/svg"><path fill-rule="evenodd" clip-rule="evenodd" d="M52.1954 20.5419C53.7295 23.079 53.0214 26.4422 50.4843 27.9763C48.8322 29.0384 46.7671 29.0384 45.174 28.1533C44.9969 28.0943 44.8789 28.0353 44.5839 27.9763C44.2889 27.9173 43.9349 27.9763 43.5809 28.0943C43.4038 28.1533 43.2268 28.2713 43.0498 28.3303C41.9878 29.0384 41.6337 30.4545 42.2828 31.5165L44.7609 35.5288C46.295 38.066 45.587 41.4292 43.0498 42.9633C40.5717 44.5564 37.2085 43.7893 35.6744 41.2522L33.1962 37.3579C32.4882 36.2368 31.0721 35.9418 30.01 36.5909C29.361 37.0039 28.9479 37.7709 28.9479 38.538C28.9479 40.3671 28.0629 42.1372 26.4108 43.1403C23.9326 44.7334 20.5694 43.9663 19.0353 41.4292L9.83076 26.6192C8.23766 24.0821 9.00471 20.7189 11.5419 19.1848C14.02 17.5917 17.3832 18.3587 18.9173 20.8959L21.3955 24.8491C22.0445 25.9112 23.4606 26.2652 24.5227 25.6162H24.5817C25.2897 25.2032 25.6437 24.4361 25.6437 23.7281C25.6437 21.899 26.5288 20.0698 28.1809 19.0668C30.6591 17.4737 34.0223 18.2407 35.5564 20.7779L38.0345 24.7901C38.7426 25.9112 40.1586 26.2062 41.2207 25.5572C41.4567 25.3802 41.6927 25.1442 41.9288 24.7311C41.8698 24.9081 41.8698 24.8491 41.9288 24.6721C42.1058 24.3771 42.1648 24.1411 42.2238 23.9641C42.2828 23.7871 42.2828 23.6691 42.3418 23.492C42.5188 21.4269 43.2268 19.8928 44.8789 18.8308C47.2981 17.2377 50.6023 18.0047 52.1954 20.5419Z" fill="#67EADD"/></svg>