<svg xmlns="http://www.w3.org/2000/svg" width="62" height="62" fill="#08cf65"><path d="M19.321 27.578c2.13 0 3.134.37 4.677 1.827l8.277 7.818c.245.231.294.324.343.463.025.046.025.116.025.162s0 .116-.025.162c-.049.139-.098.231-.343.463l-5.657 5.367c-.245.231-.343.278-.49.324-.049.023-.122.023-.171.023s-.122 0-.171-.023c-.147-.046-.245-.092-.49-.324L9.256 28.688c-.465-.44-.294-1.11.49-1.11h9.575zm23.358-9.555c-2.13 0-3.134.37-4.677 1.827l-8.277 7.819c-.245.231-.294.324-.343.463-.024.046-.024.116-.024.162s0 .116.024.162c.049.139.098.231.343.463l5.657 5.343c.245.231.343.277.49.324a.44.44 0 0 0 .171.023c.049 0 .122 0 .171-.023.147-.046.245-.093.49-.324l16.04-15.152c.465-.439.294-1.11-.49-1.11h-9.575v.023z"/></svg>