<svg xmlns="http://www.w3.org/2000/svg" width="62" height="62" fill="none"><g clip-path="url(#B)"><mask id="A" maskUnits="userSpaceOnUse" x="-1" y="-1" width="64" height="64"><path d="M-.684-.734h63.407v63.407H-.684V-.734z" fill="#fff"/></mask><g mask="url(#A)"><path d="M31 52.917a21.92 21.92 0 0 0 21.916-21.916A21.92 21.92 0 0 0 31 9.085 21.92 21.92 0 0 0 9.084 31.001 21.92 21.92 0 0 0 31 52.917z" fill="#1ab4d7"/><path d="M19.575 30.938l3.74-3.749a.67.67 0 0 0-.477-1.141c-.18 0-.349.071-.476.2 0 .001-3.737 3.735-3.737 3.735l-3.754-3.741a.67.67 0 1 0-.942.953l3.74 3.739-3.738 3.745a.67.67 0 0 0 .467 1.15c.178 0 .347-.069.473-.196l3.748-3.743 3.733 3.729a.67.67 0 0 0 1.156-.46c0-.178-.069-.346-.195-.472l-3.738-3.747zm22.234-.001a1.22 1.22 0 0 0 1.218 1.218 1.22 1.22 0 0 0 1.217-1.218 1.22 1.22 0 0 0-1.217-1.218 1.22 1.22 0 0 0-1.218 1.218zm-2.309 0a3.53 3.53 0 0 1 3.527-3.527 3.53 3.53 0 0 1 3.526 3.527 3.53 3.53 0 0 1-3.526 3.526 3.53 3.53 0 0 1-3.527-3.526zm-1.387 0a4.92 4.92 0 0 0 4.914 4.913 4.92 4.92 0 0 0 4.915-4.913 4.92 4.92 0 0 0-4.915-4.914 4.92 4.92 0 0 0-4.914 4.914zm-.349-4.83l-.206-.001c-.619 0-1.216.195-1.714.579a.67.67 0 0 0-.655-.527.66.66 0 0 0-.664.664l.002 8.276a.67.67 0 1 0 1.34-.001V30.01c0-1.696.155-2.381 1.608-2.563.134-.017.28-.014.281-.014.398-.014.68-.287.68-.656a.67.67 0 0 0-.672-.67zm-12.868 4.021l.002-.056a3.55 3.55 0 0 1 6.895.056h-6.897zm8.269-.127c-.289-1.367-1.037-2.49-2.177-3.211-1.666-1.058-3.866-.999-5.476.145a4.97 4.97 0 0 0-2.07 4.035 4.84 4.84 0 0 0 .147 1.185c.496 1.95 2.172 3.426 4.171 3.671a4.67 4.67 0 0 0 1.768-.117 4.84 4.84 0 0 0 1.469-.627c.475-.306.872-.708 1.257-1.191l.023-.026c.267-.331.217-.802-.076-1.026-.247-.19-.663-.267-.99.152l-.235.306a3.85 3.85 0 0 1-.969.781 3.52 3.52 0 0 1-1.647.416c-1.949-.022-2.992-1.382-3.363-2.354a3.52 3.52 0 0 1-.15-.563l-.009-.103 6.995-.001c.959-.02 1.475-.697 1.332-1.471z" fill="#fff"/></g></g><defs><clipPath id="B"><path fill="#fff" transform="translate(9 9)" d="M0 0h44v44H0z"/></clipPath></defs></svg>