<svg xmlns="http://www.w3.org/2000/svg" width="62" height="62" fill="none"><g clip-path="url(#C)"><mask id="A" maskUnits="userSpaceOnUse" x="9" y="9" width="44" height="44"><path d="M9 9H53V53H9V9Z" fill="#fff"/></mask><g mask="url(#A)"><mask id="B" maskUnits="userSpaceOnUse" x="9" y="9" width="44" height="44" mask-type="alpha"><path d="M31 53c12.15 0 22-9.85 22-22S43.15 9 31 9 9 18.85 9 31s9.85 22 22 22z" fill="#fff"/></mask><g mask="url(#B)"><path d="M9 9H53V53H9V9Z" fill="#fc3f1d"/><path d="M31.597 33.273c1.286 2.816 1.715 3.795 1.715 7.177v4.486h-4.592v-7.562l-8.662-18.839h4.791l6.748 14.739zm5.663-14.74l-5.616 12.764h4.668l5.632-12.764h-4.684z" fill="#fff"/></g></g></g><defs><clipPath id="C"><path fill="#fff" transform="translate(9 9)" d="M0 0h44v44H0z"/></clipPath></defs></svg>