<svg width="62" height="62" viewBox="0 0 62 62" fill="none" xmlns="http://www.w3.org/2000/svg"><g clip-path="url(#clip0_1569_113)"><path fill-rule="evenodd" clip-rule="evenodd" d="M11.4815 26.6985L13.0926 31.1477L14.7963 26.6985H17.2037L13.0926 37H10.7037L11.9259 33.8062L9 26.6985H11.4815ZM36.9259 26.5323C39.0926 26.5323 40.6852 28.2123 40.6852 30.52C40.6852 32.8277 39.0926 34.5077 36.9259 34.5077C36.1296 34.5077 35.4444 34.3046 34.9259 33.88L34.8889 33.8615L34.8519 33.8431V37H32.537V26.6985H34.5926V27.4738L34.6111 27.4554C35.1111 26.8831 35.8889 26.5692 36.8333 26.5508H36.8889L36.9259 26.5323ZM21.4259 26.5323C23.8148 26.5323 25.5185 28.1754 25.5185 30.52C25.5185 32.8462 23.8148 34.5077 21.4259 34.5077C19.0185 34.5077 17.3148 32.8462 17.3148 30.52C17.3333 28.1754 19.0185 26.5323 21.4259 26.5323ZM29.3889 25V26.6985H31.2963V28.6923H29.3889V31.4431C29.3889 32.0523 29.6852 32.4031 30.2407 32.4215H30.2593H30.2778C30.6481 32.4215 30.9259 32.3292 31.1852 32.0892L31.2037 32.0708L31.2593 32.0154H31.2778V34.2123L31.2037 34.2492C30.8148 34.4338 30.5926 34.5077 29.9259 34.5077C28.0926 34.5077 27.0741 33.5108 27.037 31.6462V31.5908V31.5354V28.6923H26.2037V26.6985H27.1111V25H29.3889ZM45.7407 26.5323C48.1296 26.5323 49.8333 28.1754 49.8333 30.52C49.8333 32.8462 48.1296 34.5077 45.7407 34.5077C43.3333 34.5077 41.6296 32.8462 41.6296 30.52C41.6481 28.1754 43.3333 26.5323 45.7407 26.5323ZM51.7407 31.9785C52.4444 31.9785 53.0185 32.5508 53.0185 33.2523C53.0185 33.9538 52.4444 34.5262 51.7407 34.5262C51.037 34.5262 50.463 33.9538 50.463 33.2523C50.463 32.5508 51.037 31.9785 51.7407 31.9785ZM36.5741 28.6185C35.537 28.6185 34.8148 29.3938 34.8148 30.52C34.8148 31.6646 35.5185 32.4215 36.5741 32.4215C37.6296 32.4215 38.3519 31.6462 38.3519 30.52C38.3333 29.3754 37.6296 28.6185 36.5741 28.6185ZM21.4259 28.6185C20.3704 28.6185 19.6481 29.3938 19.6481 30.52C19.6481 31.6462 20.3704 32.4215 21.4259 32.4215C22.463 32.4215 23.1852 31.6462 23.1852 30.52C23.1852 29.3938 22.463 28.6185 21.4259 28.6185ZM45.7407 28.6185C44.6852 28.6185 43.963 29.3938 43.963 30.52C43.963 31.6462 44.6852 32.4215 45.7407 32.4215C46.7778 32.4215 47.5 31.6462 47.5 30.52C47.5 29.3938 46.7778 28.6185 45.7407 28.6185Z" fill="#0042E4"/></g><defs><clipPath id="clip0_1569_113"><rect width="44" height="12" fill="white" transform="translate(9 25)"/></clipPath></defs></svg>