<svg xmlns="http://www.w3.org/2000/svg" width="62" height="62" fill="none"><g clip-path="url(#A)"><path d="M51.89 20.789c-.505-1.886-1.987-3.368-3.873-3.873C44.603 16 30.903 16 30.903 16s-13.699 0-17.114.916c-1.886.505-3.368 1.987-3.873 3.873C9 24.204 9 31.333 9 31.333s0 7.129.916 10.544c.505 1.886 1.987 3.368 3.873 3.873 3.415.916 17.114.916 17.114.916s13.7 0 17.114-.916c1.886-.505 3.368-1.987 3.873-3.873.916-3.415.916-10.544.916-10.544s-.004-7.129-.916-10.544z" fill="red"/><path d="M26.518 37.903l11.381-6.57-11.381-6.57v13.141z" fill="#fff"/></g><defs><clipPath id="A"><path fill="#fff" transform="translate(9 16)" d="M0 0h44v30.854H0z"/></clipPath></defs></svg>