<svg xmlns="http://www.w3.org/2000/svg" width="62" height="62" fill="none"><g clip-path="url(#A)"><path d="M22.485 28.688h2.638v8.79h-2.638v-8.79zm1.314-3.687c-.845 0-1.528.682-1.528 1.497s.682 1.528 1.528 1.528a1.54 1.54 0 0 0 1.528-1.528c0-.825-.682-1.497-1.528-1.497zm-5.469 5.082v-1.395h-2.567v8.79h2.638v-3.473c0-1.742.805-2.791 2.251-2.791.265 0 .54.031.672.071v-2.658c-.051-.02-.265-.051-.458-.051-1.059-.01-1.986.367-2.536 1.507zm-6.692-4.288H9v7.68c0 2.424 1.314 4.145 4.308 4.145.458 0 .876-.03 1.182-.092v-2.281c-.224.03-.479.051-.774.051-1.385 0-2.078-.754-2.078-2.088v-2.271h2.852v-2.251h-2.852v-2.893zm38.531 4.166v-1.273h-3.147v-2.893h-1.406v8.23c0 2.271 1.334 3.605 3.748 3.605.265 0 .56-.02.805-.071v-1.253a4.3 4.3 0 0 1-.672.051c-1.721 0-2.475-.937-2.475-2.526v-3.87h3.147zm-19.016-1.477c-1.304 0-2.424.581-2.933 1.477v-1.273h-1.405v8.79h1.406v-4.685c0-1.864 1.131-3.005 2.709-3.005s2.495 1.07 2.495 2.76v4.94h1.405v-5.266c-.01-2.159-1.426-3.738-3.677-3.738zm13.394 4.41l-.02.682h-7.242c.173 1.721 1.426 2.852 3.096 2.852 1.334 0 2.18-.601 2.73-1.62l1.141.611c-.723 1.456-2.078 2.271-3.85 2.271-2.852 0-4.522-1.956-4.522-4.604s1.843-4.604 4.38-4.604 4.288 1.915 4.288 4.41zm-1.457-.53c-.122-1.507-1.12-2.618-2.831-2.618-1.579 0-2.74 1.151-2.954 2.618h5.785z" fill="#fff"/><path d="M48.61 25.796v1.294h3.056v2.872H53v-4.166h-4.39z" fill="#e14700"/><path d="M50.668 37.07h.326v.051h-.132v.407H50.8v-.407h-.132v-.051zm.896 0v.458h-.061v-.356l-.173.356h-.041l-.173-.356v.356h-.051v-.458h.071l.183.377.183-.377h.061z" fill="#0b0134" stroke="#fff" stroke-width=".241" stroke-miterlimit="10"/></g><defs><clipPath id="A"><path fill="#fff" transform="translate(9 25)" d="M0 0h44v12.692H0z"/></clipPath></defs></svg>