<svg xmlns="http://www.w3.org/2000/svg" width="62" height="62" fill="none"><path d="M20.307 46.123c-.625 0-1.159-.449-1.267-1.065l-5.562-31.541a1.56 1.56 0 0 0-1.077-1.223l-2.484-.772a1.29 1.29 0 0 1-.862-1.605 1.29 1.29 0 0 1 1.605-.862c.008.002.015.005.023.008l2.484.772a4.13 4.13 0 0 1 2.849 3.236l5.561 31.54a1.29 1.29 0 0 1-1.044 1.493 1.43 1.43 0 0 1-.226.02zm6.123 4.288a1.29 1.29 0 0 1-1.288-1.288 1.29 1.29 0 0 1 1.065-1.268l22.851-4.03c.853-.144 1.426-.953 1.282-1.806s-.953-1.426-1.806-1.282l-19.645 3.464c-2.253.398-4.401-1.108-4.799-3.359l-3.459-19.625c-.398-2.253 1.108-4.401 3.359-4.799l19.625-3.461c2.253-.398 4.401 1.108 4.799 3.359l3.203 18.166c.027.167.021.338-.018.502s-.11.32-.209.457a1.29 1.29 0 0 1-.839.518 1.29 1.29 0 0 1-1.472-1.032l-3.203-18.162c-.15-.851-.962-1.42-1.813-1.27l-19.627 3.459c-.851.15-1.42.962-1.27 1.813l3.461 19.625c.15.851.962 1.42 1.813 1.27h.002l19.625-3.461c2.246-.435 4.42 1.032 4.855 3.279s-1.032 4.42-3.279 4.855l-.138.024-22.851 4.03a1.13 1.13 0 0 1-.226.021z" fill="#e42527"/><path d="M31.614 25.353a1.29 1.29 0 0 1-1.288-1.288 1.29 1.29 0 0 1 1.065-1.268l7.451-1.314a1.29 1.29 0 0 1 1.491 1.045 1.29 1.29 0 0 1-1.045 1.491l-7.451 1.314a1.21 1.21 0 0 1-.223.02z" fill="#f9b21d"/><path d="M22.833 52.869c-2.845 0-5.151-2.308-5.151-5.153s2.308-5.151 5.152-5.151 5.151 2.308 5.151 5.153c0 2.497-1.792 4.635-4.251 5.072a5.13 5.13 0 0 1-.901.079zm.015-7.7a2.63 2.63 0 0 0-.451.039c-1.387.247-2.312 1.572-2.065 2.959s1.572 2.312 2.959 2.065 2.312-1.572 2.065-2.959a2.55 2.55 0 0 0-2.508-2.104z" fill="#e42527"/></svg>