<svg width="62" height="62" viewBox="0 0 62 62" fill="none" xmlns="http://www.w3.org/2000/svg"><g opacity="0.9"><path d="M40.5043 43.2696C37.698 43.2696 35.4073 40.979 35.4073 38.1726C35.4073 36.7466 35.8473 35.5938 36.7119 34.7594C36.9547 34.5319 37.2125 34.3347 37.4856 34.1678C37.2429 33.9099 37.1215 33.561 37.1519 33.1818C37.2277 32.4688 37.8497 31.953 38.5626 32.0289C39.6852 32.1351 41.0049 32.6053 42.1578 33.2728C42.3399 33.2728 42.5219 33.288 42.6888 33.288C43.4018 33.3031 43.963 33.8948 43.9327 34.6077C43.9327 34.6229 43.9327 34.6229 43.9327 34.6229C44.9642 35.6544 45.5407 36.868 45.6013 38.1119C45.6772 39.5227 45.2221 40.7666 44.3271 41.7223C43.3866 42.6931 41.991 43.2696 40.5043 43.2696ZM41.3842 35.8213C40.3071 35.8365 39.1087 35.9882 38.502 36.5949C38.1531 36.9439 37.971 37.4444 37.971 38.1574C37.971 39.553 39.1087 40.6908 40.5043 40.6908C41.2932 40.6908 42.0061 40.4177 42.4612 39.9323C42.8708 39.4924 43.068 38.9159 43.0377 38.2333C42.977 37.1259 41.991 36.246 41.3842 35.8213Z" fill="#F9B21D"/></g><path d="M20.5109 50.091C19.1153 50.091 17.7804 49.5752 16.764 48.6347C15.7477 47.6942 15.0954 46.4199 14.9588 45.0395L14.792 43.2646L13.6391 43.0674C10.681 42.5517 8.6786 39.8363 9.04267 36.863L10.2714 27.1545C10.3624 26.4112 10.7265 25.7589 11.2878 25.3038C11.7884 24.9094 12.4255 24.697 13.0778 24.7122C13.7301 24.7273 14.3672 24.9549 14.8526 25.3645C15.3988 25.8195 15.7477 26.487 15.8083 27.2303L17.5073 44.7968C17.659 46.3441 18.9485 47.5121 20.4958 47.5121H47.3915C48.2562 47.5121 49.045 47.1632 49.6215 46.5261C50.1979 45.889 50.471 45.0698 50.38 44.2203L47.7859 17.3094C47.6342 15.7621 46.3448 14.594 44.7975 14.594H17.9017C17.0371 14.594 16.2483 14.9429 15.6718 15.58C15.0954 16.2172 14.8223 17.0363 14.8982 17.8858L15.065 19.6455C15.0802 19.7517 15.1712 19.8427 15.2774 19.8427H42.5979C43.3109 19.8427 43.8873 20.4192 43.8873 21.1321C43.8873 21.8451 43.3261 22.4064 42.6131 22.4064H15.3077C13.8666 22.4064 12.6682 21.3293 12.5317 19.8882L12.3648 18.1285C12.2131 16.5661 12.7289 15.0036 13.7908 13.8355C14.8526 12.6675 16.3544 12 17.9169 12H44.8127C46.2083 12 47.5432 12.5158 48.5596 13.4563C49.5911 14.3968 50.2283 15.6711 50.3648 17.0515L52.974 43.9624C53.1257 45.5249 52.6099 47.0874 51.548 48.2555C50.4861 49.4235 48.9843 50.091 47.4219 50.091H20.5109ZM13.0323 27.3062C12.8503 27.3062 12.8351 27.4124 12.8199 27.4882L11.6063 37.1816C11.4091 38.7744 12.4862 40.2459 14.079 40.5189L14.5341 40.5948L13.2598 27.4882C13.2447 27.4124 13.2447 27.3062 13.0323 27.3062C13.0475 27.3062 13.0475 27.3062 13.0323 27.3062Z" fill="#226DB4"/></svg>