<svg xmlns="http://www.w3.org/2000/svg" width="62" height="62" fill="none"><path d="M30.208 53a3 3 0 0 1-3.004-3.004v-8.982c0-.076-.015-.152-.061-.212L11.41 13.522c-.546-.941-.546-2.094 0-3.019A2.95 2.95 0 0 1 14.019 9l28.964.015c1.077 0 2.079.577 2.61 1.502a2.96 2.96 0 0 1 0 3.004l-2.17 3.763h4.4c1.669 0 3.004 1.35 3.004 3.019 0 .531-.136 1.047-.41 1.502L39.433 40.862c-.03.061-.061.137-.061.212v6.676a3 3 0 0 1-1.972 2.822l-6.145 2.246a3.17 3.17 0 0 1-1.047.182zM14.019 11.58c-.243 0-.425.197-.425.425 0 .076.015.152.061.212l15.718 27.28c.258.455.41.971.41 1.502v8.982c0 .243.197.425.425.425.046 0 .106-.015.152-.03l6.145-2.23c.167-.061.288-.228.288-.41v-6.676c0-.531.137-1.047.41-1.502l11.015-19.056c.121-.212.045-.47-.152-.592-.061-.03-.137-.061-.212-.061h-6.554-.167-13.503l5.674 9.816 3.96-6.888c.349-.622 1.153-.835 1.76-.47.622.349.834 1.153.47 1.76l-4.37 7.571a2.14 2.14 0 0 1-1.866 1.077 2.14 2.14 0 0 1-1.866-1.077l-6.418-11.121a2.16 2.16 0 0 1 .789-2.943c.334-.182.698-.288 1.077-.288h13.594l2.913-5.052c.121-.212.045-.47-.152-.592-.061-.03-.137-.061-.213-.061H14.019z" fill="#089949"/></svg>