<?xml version="1.0" encoding="UTF-8"?>
<!DOCTYPE svg PUBLIC "-//W3C//DTD SVG 1.1//EN" "http://www.w3.org/Graphics/SVG/1.1/DTD/svg11.dtd">
<svg xmlns="http://www.w3.org/2000/svg" version="1.1" width="256px" height="256px" style="shape-rendering:geometricPrecision; text-rendering:geometricPrecision; image-rendering:optimizeQuality; fill-rule:evenodd; clip-rule:evenodd" xmlns:xlink="http://www.w3.org/1999/xlink">
<g><path style="opacity:0.856" fill="#0f9a49" d="M 30.5,1.5 C 87.8282,2.24559 145.162,2.74559 202.5,3C 212.048,7.59997 215.548,15.1 213,25.5C 208.893,33.5459 204.393,41.3792 199.5,49C 210.572,49.0681 221.572,49.7348 232.5,51C 239.806,55.9054 242.639,62.7388 241,71.5C 220.186,109.127 198.853,146.46 177,183.5C 176.667,197.833 176.333,212.167 176,226.5C 174.974,230.722 172.807,234.222 169.5,237C 156.611,242.278 143.611,247.278 130.5,252C 119.716,254.854 111.883,251.354 107,241.5C 106.667,222.167 106.333,202.833 106,183.5C 75.2671,131.092 44.9338,78.4248 15,25.5C 12.4175,12.3044 17.5842,4.30442 30.5,1.5 Z M 30.5,17.5 C 86.4049,17.1691 142.238,17.5024 198,18.5C 193.218,28.8858 187.718,39.0525 181.5,49C 154.167,49.3333 126.833,49.6667 99.5,50C 91.984,54.8975 90.1506,61.3975 94,69.5C 106,90.1667 118,110.833 130,131.5C 135.431,138.035 141.931,139.201 149.5,135C 160.065,118.705 169.732,101.872 178.5,84.5C 176.842,77.0043 172.509,74.8376 165.5,78C 157.208,91.4169 149.041,104.917 141,118.5C 130.833,100.833 120.667,83.1667 110.5,65.5C 148.734,64.1708 186.9,64.1708 225,65.5C 225.52,67.2889 225.187,68.9556 224,70.5C 203.081,106.003 182.414,141.67 162,177.5C 160.873,193.007 160.039,208.507 159.5,224C 147.707,228.648 135.874,233.148 124,237.5C 123.333,236.833 122.667,236.167 122,235.5C 121.667,216.5 121.333,197.5 121,178.5C 90.8995,125.408 60.3995,72.5749 29.5,20C 30.2524,19.3292 30.5858,18.4959 30.5,17.5 Z"/></g>
</svg>
