<svg xmlns="http://www.w3.org/2000/svg" width="62" height="62" fill="none"><path d="M30.759 24.639c-2.231 0-4.036-1.806-4.036-4.036s1.806-4.036 4.036-4.036 4.036 1.806 4.036 4.036c0 2.215-1.806 4.036-4.036 4.036zm0-5.508c-.804 0-1.457.652-1.457 1.457s.652 1.457 1.457 1.457 1.457-.652 1.457-1.457-.652-1.457-1.457-1.457z" fill="#226db4"/><path d="M22.049 53.003c-.683 0-1.351-.182-1.942-.516l-9.165-5.296C9.744 46.493 9 45.219 9 43.838V33.262c0-1.381.744-2.655 1.942-3.353l7.435-4.279c.622-.364 1.411-.152 1.76.47.364.622.152 1.411-.47 1.76l-7.435 4.279a1.3 1.3 0 0 0-.652 1.123v10.576c0 .455.243.88.652 1.123l9.165 5.296c.395.228.895.228 1.29 0l7.42-4.294c.622-.364 1.411-.152 1.76.47.364.622.152 1.411-.47 1.76l-7.42 4.279a3.8 3.8 0 0 1-1.927.531z" fill="#e42527"/><path d="M39.468 53.003c-.683 0-1.35-.182-1.942-.516l-7.435-4.294c-.622-.364-.835-1.138-.47-1.76s1.138-.835 1.76-.47l7.435 4.294c.394.228.895.228 1.29 0l9.165-5.296a1.3 1.3 0 0 0 .653-1.123V33.262c0-.455-.243-.88-.653-1.123l-7.42-4.279c-.622-.364-.835-1.138-.47-1.76s1.138-.834 1.76-.47l7.42 4.279c1.199.698 1.942 1.973 1.942 3.353v10.576c0 1.381-.743 2.655-1.942 3.353l-9.165 5.296c-.577.334-1.244.516-1.927.516z" fill="#f9b21d"/><path d="M19.015 28.039a1.29 1.29 0 0 1-1.29-1.29v-8.588c0-1.381.743-2.655 1.942-3.353l9.165-5.296a3.91 3.91 0 0 1 3.869 0l9.165 5.296c1.199.698 1.942 1.973 1.942 3.353v8.588a1.29 1.29 0 0 1-1.29 1.29 1.29 1.29 0 0 1-1.29-1.29v-8.588c0-.455-.243-.88-.653-1.123l-9.165-5.296c-.395-.228-.895-.228-1.29 0l-9.165 5.296a1.3 1.3 0 0 0-.652 1.123v8.588a1.3 1.3 0 0 1-1.29 1.29z" fill="#089949"/><g fill="#226db4"><path d="M27.724 36.54c-.228 0-.44-.061-.652-.167l-7.42-4.279c-1.199-.698-1.942-1.973-1.942-3.353v-1.988a1.29 1.29 0 0 1 2.58 0v1.973c0 .455.243.88.652 1.123l7.42 4.294c.622.364.835 1.138.47 1.76-.212.395-.637.653-1.108.637zm6.07.016a1.29 1.29 0 0 1-.637-2.413l7.435-4.294a1.3 1.3 0 0 0 .653-1.123v-1.988a1.29 1.29 0 0 1 2.58 0v2.003c0 1.381-.743 2.655-1.942 3.353l-7.435 4.279a1.29 1.29 0 0 1-.653.182z"/><path d="M30.759 31.321a1.29 1.29 0 0 1-.638-2.413l7.42-4.279a3.91 3.91 0 0 1 3.869 0l1.745 1.002c.622.364.835 1.138.47 1.76s-1.138.835-1.76.47L40.12 26.86a1.3 1.3 0 0 0-1.29 0l-7.42 4.279a1.29 1.29 0 0 1-.652.182zm-.015 17.04c-.228 0-.44-.061-.652-.167l-1.73-1.001a3.92 3.92 0 0 1-1.942-3.353v-8.588a1.29 1.29 0 0 1 2.58 0v8.588c0 .455.243.88.652 1.123l1.73 1.002c.622.364.835 1.138.47 1.76-.212.395-.637.637-1.108.637z"/><path d="M30.759 48.376a1.29 1.29 0 0 1-.638-2.413l1.745-1.001a1.3 1.3 0 0 0 .652-1.123v-8.588a1.29 1.29 0 0 1 2.58 0v8.588c0 1.381-.743 2.655-1.942 3.353l-1.745 1.002a1.29 1.29 0 0 1-.652.182zm0-17.055c-.228 0-.44-.061-.652-.167l-7.42-4.294a1.3 1.3 0 0 0-1.29 0l-1.73 1.002c-.622.364-1.411.152-1.76-.47-.364-.622-.152-1.411.47-1.76l1.73-1.001a3.91 3.91 0 0 1 3.869 0l7.42 4.294c.622.364.834 1.138.47 1.76-.212.379-.652.637-1.108.637z"/></g></svg>