<svg xmlns="http://www.w3.org/2000/svg" width="62" height="62" fill="#e42527" xmlns:v="https://vecta.io/nano"><path d="M31.465 53c-.334 0-.668-.121-.91-.379l-5.326-5.325a1.3 1.3 0 0 1-.379-.91 1.3 1.3 0 0 1 .379-.91l5.326-5.325a1.29 1.29 0 0 1 1.821 0l5.326 5.325a1.3 1.3 0 0 1 .379.91 1.3 1.3 0 0 1-.379.91l-5.326 5.325c-.243.258-.576.379-.91.379zm-3.505-6.615l3.505 3.505 3.505-3.505-3.505-3.505-3.505 3.505zm13.989-3.839c-.334 0-.668-.121-.91-.379l-5.31-5.31a1.3 1.3 0 0 1-.379-.91 1.3 1.3 0 0 1 .379-.91l1.654-1.639c1.578-1.578 2.443-3.672 2.443-5.902s-.865-4.324-2.443-5.902l-.015-.015c-3.247-3.247-8.542-3.247-11.789 0a8.31 8.31 0 0 0-2.367 4.734 8.47 8.47 0 0 0 .895 5.098c.334.622.106 1.411-.531 1.745-.622.334-1.411.106-1.745-.531a11.06 11.06 0 0 1-1.183-6.676c.334-2.367 1.396-4.506 3.095-6.19a10.86 10.86 0 0 1 7.723-3.201 10.86 10.86 0 0 1 7.723 3.201l.015.015a10.86 10.86 0 0 1 3.201 7.723 10.86 10.86 0 0 1-3.201 7.723l-.728.728 3.49 3.49.743-.743a15.74 15.74 0 0 0 4.643-11.228c0-4.248-1.654-8.223-4.658-11.227a15.74 15.74 0 0 0-11.228-4.643c-4.248 0-8.223 1.654-11.227 4.643s-4.643 6.979-4.643 11.227 1.654 8.223 4.643 11.228l.743.743 4.4-4.4a1.29 1.29 0 0 1 1.821 0 1.29 1.29 0 0 1 0 1.821l-5.31 5.31a1.29 1.29 0 0 1-1.821 0l-1.669-1.654c-1.76-1.76-3.125-3.808-4.051-6.099A18.46 18.46 0 0 1 13 27.465a18.46 18.46 0 0 1 1.35-6.949c.925-2.291 2.291-4.339 4.051-6.099s3.839-3.141 6.13-4.066a18.33 18.33 0 0 1 6.934-1.35 18.46 18.46 0 0 1 6.949 1.35c2.291.925 4.339 2.291 6.099 4.051a18.32 18.32 0 0 1 4.051 6.114 18.46 18.46 0 0 1 1.35 6.949 18.46 18.46 0 0 1-1.35 6.949 18.26 18.26 0 0 1-4.051 6.099l-1.669 1.669c-.243.228-.577.364-.895.364z"/></svg>