<svg xmlns="http://www.w3.org/2000/svg" width="62" height="62" fill="none"><path d="M28.649 38.032c-.336 0-.675-.07-1.002-.214l-6.973-3.108a2.48 2.48 0 0 1-1.255-3.269l3.108-6.974a2.48 2.48 0 0 1 3.269-1.255l6.973 3.107a2.48 2.48 0 0 1 1.255 3.269l-3.108 6.973c-.414.924-1.321 1.469-2.266 1.469zm-.423-1.521a1.05 1.05 0 0 0 1.382-.527l3.108-6.974a1.05 1.05 0 0 0-.527-1.382l-6.978-3.108a1.05 1.05 0 0 0-1.382.527l-3.108 6.974a1.05 1.05 0 0 0 .527 1.382l6.978 3.107z" fill="#089949"/><path d="M50.524 38.036h-7.636a2.48 2.48 0 0 1-2.476-2.476v-7.636a2.48 2.48 0 0 1 2.476-2.476h7.636A2.48 2.48 0 0 1 53 27.925v7.636a2.48 2.48 0 0 1-2.476 2.476zm-7.636-11.158a1.05 1.05 0 0 0-1.046 1.046v7.636a1.05 1.05 0 0 0 1.046 1.046h7.636a1.05 1.05 0 0 0 1.046-1.046v-7.636a1.05 1.05 0 0 0-1.046-1.046h-7.636z" fill="#f9b21d"/><path d="M21.929 29.323L20.9 31.625l-.039.07.401 2.476c.091.571-.296 1.107-.863 1.198l-7.54 1.22c-.275.044-.553-.022-.78-.183s-.375-.405-.418-.68l-1.22-7.54c-.044-.275.022-.553.183-.78s.405-.375.68-.418l7.54-1.22c.057-.009.113-.013.166-.013a1.05 1.05 0 0 1 1.033.88l.405 2.493 1.064-2.384-.057-.336a2.48 2.48 0 0 0-2.837-2.048l-7.54 1.22c-.649.1-1.225.453-1.608.989s-.54 1.19-.436 1.844l1.22 7.54c.105.654.458 1.225.994 1.613.423.309.924.466 1.443.466a2.52 2.52 0 0 0 .401-.031l7.54-1.22a2.48 2.48 0 0 0 2.049-2.837l-.75-4.62z" fill="#e42527"/><path d="M30.972 32.924l1.107-2.48-.314-2.306c-.039-.275.035-.549.205-.771s.414-.366.693-.401l7.566-1.029.144-.009c.227 0 .444.074.632.213.035.026.065.057.096.083.336-.353.776-.606 1.268-.715-.139-.192-.305-.362-.501-.51-.527-.401-1.177-.571-1.831-.484l-7.575 1.029c-.654.087-1.238.427-1.634.954s-.571 1.177-.484 1.831l.628 4.594zm12.875 1.277l-.994-7.322c-.558.017-1.007.479-1.007 1.042v2.149l.588 4.324c.039.275-.035.549-.205.771s-.414.366-.693.401l-7.566 1.029c-.274.039-.549-.035-.771-.205s-.366-.414-.401-.693l-.349-2.567-1.107 2.48.039.279c.087.654.427 1.238.954 1.634a2.46 2.46 0 0 0 1.495.506 2.96 2.96 0 0 0 .34-.022l7.557-1.02a2.44 2.44 0 0 0 1.635-.955c.401-.527.571-1.177.484-1.831z" fill="#226db4"/></svg>