<svg xmlns="http://www.w3.org/2000/svg" width="62" height="62" fill="#226db4"><path d="M40.348 52.999H10.291a1.29 1.29 0 0 1-1.29-1.29V40.788c0-2.385 1.516-4.509 3.772-5.283l33.311-11.433c2.593-.891 4.336-3.332 4.336-6.073A6.43 6.43 0 0 0 44 11.578H11.579v21.266a1.29 1.29 0 0 1-1.29 1.29A1.29 1.29 0 0 1 9 32.844V10.29A1.29 1.29 0 0 1 10.29 9h33.712A9.01 9.01 0 0 1 53 17.998a9 9 0 0 1-6.078 8.511L13.611 37.943a3.01 3.01 0 0 0-2.031 2.845v9.631h28.767c2.691 0 5.221-1.048 7.123-2.951a10.01 10.01 0 0 0 2.951-7.123 10.06 10.06 0 0 0-1.552-5.372c-1.001-1.591-2.429-2.87-4.121-3.69a1.29 1.29 0 0 1-.655-.738 1.29 1.29 0 0 1 .059-.985c.074-.152.177-.288.304-.401a1.29 1.29 0 0 1 .434-.254c.16-.055.329-.079.498-.069s.334.053.486.127a12.62 12.62 0 0 1 5.175 4.635c1.275 2.019 1.951 4.359 1.95 6.747 0 3.379-1.315 6.557-3.706 8.947s-5.565 3.705-8.944 3.705zM23.504 27.038a5.16 5.16 0 0 1-5.155-5.155 5.16 5.16 0 0 1 5.155-5.155 5.16 5.16 0 0 1 5.155 5.155 5.16 5.16 0 0 1-5.155 5.156zm0-7.733a2.58 2.58 0 0 0-2.578 2.578 2.58 2.58 0 0 0 2.578 2.578 2.58 2.58 0 0 0 2.578-2.578 2.58 2.58 0 0 0-2.578-2.578zm12.925 25.939a5.16 5.16 0 0 1-5.155-5.155 5.16 5.16 0 0 1 5.155-5.155 5.16 5.16 0 0 1 5.155 5.155 5.16 5.16 0 0 1-5.155 5.155zm0-7.735a2.58 2.58 0 0 0-2.578 2.578 2.58 2.58 0 0 0 2.578 2.578 2.58 2.58 0 0 0 2.578-2.578 2.58 2.58 0 0 0-2.578-2.578z"/></svg>