<svg xmlns="http://www.w3.org/2000/svg" width="62" height="62" fill="none"><path d="M43.897 38.677a1.29 1.29 0 0 1-1.29-1.29v-7.01a1.32 1.32 0 0 0-1.32-1.32H20.713a1.32 1.32 0 0 0-1.32 1.32v1.472a1.29 1.29 0 0 1-1.29 1.29 1.29 1.29 0 0 1-1.29-1.29v-1.472a3.91 3.91 0 0 1 3.899-3.899h20.574a3.91 3.91 0 0 1 3.899 3.899v7.01a1.29 1.29 0 0 1-1.29 1.29z" fill="#f9b21d"/><path d="M49.101 52.985H12.899A3.91 3.91 0 0 1 9 49.086V38.799a1.29 1.29 0 0 1 1.29-1.29 1.29 1.29 0 0 1 1.29 1.29v10.287a1.32 1.32 0 0 0 1.32 1.32h36.201a1.32 1.32 0 0 0 1.32-1.32V27.268c0-.41-.182-.774-.501-1.032L31.819 11.868a1.32 1.32 0 0 0-1.639 0L12.08 26.236c-.319.243-.501.622-.501 1.032v4.415c0 .486.273.925.698 1.168l18.101 9.635c.395.212.85.212 1.244 0l11.668-6.221a1.3 1.3 0 0 1 1.745.531 1.3 1.3 0 0 1-.531 1.745l-11.667 6.221a3.9 3.9 0 0 1-3.657 0l-18.116-9.65A3.9 3.9 0 0 1 9 31.668v-4.415a3.9 3.9 0 0 1 1.472-3.05L28.572 9.85C29.255 9.303 30.12 9 31 9s1.73.303 2.428.85l18.101 14.368c.941.744 1.472 1.851 1.472 3.05v21.833c0 2.139-1.745 3.884-3.899 3.884z" fill="#226db4"/></svg>