<svg width="62" height="62" viewBox="0 0 62 62" fill="none" xmlns="http://www.w3.org/2000/svg">
<g clip-path="url(#clip0_496_1440)">
<path d="M42.7585 19.7593L47.076 48.1553L18.1274 52.6943L13.4778 24.244L42.758 19.7608" fill="url(#paint0_linear_496_1440)"/>
<path d="M13.4783 24.2422L15.5112 14.1039L44.7403 9.41869L42.7592 19.7589L13.4783 24.2422Z" fill="#EF463D"/>
<path d="M44.7406 9.41884L49.0262 38.0887L47.077 48.1543L42.7595 19.7591L44.7406 9.41884Z" fill="#761116"/>
<path d="M39.6485 43.6335C39.4204 43.3609 39.1131 43.1595 38.7389 43.0286C38.3539 42.8943 37.8887 42.8296 37.3408 42.8296C36.8245 42.8296 36.2344 42.8871 35.5686 43.0012L27.9278 44.3071C28.0086 43.7183 28.301 42.9445 28.8166 42.0014C29.3924 40.9449 30.2412 39.6759 31.3626 38.1986L31.3632 38.1978C31.7479 37.6836 32.0421 37.2907 32.2453 37.0195C32.3912 36.8387 32.5945 36.5729 32.8579 36.2214C34.6057 33.9285 35.6876 32.0615 36.1023 30.5962C36.3397 29.7654 36.4841 28.9282 36.5364 28.085C36.5506 27.8542 36.5572 27.6251 36.5572 27.3977C36.5572 26.7935 36.5077 26.1986 36.4077 25.6131C36.3166 25.0796 36.1853 24.6358 36.0092 24.2797C35.8331 23.9243 35.6096 23.654 35.3337 23.4835C35.0225 23.2941 34.5847 23.2138 34.0121 23.2128C33.5392 23.2128 32.9722 23.2702 32.3084 23.3833L23.4785 24.8942C22.4092 25.0774 21.6196 25.3921 21.1158 25.8664C20.7155 26.242 20.5087 26.7285 20.5108 27.287C20.5108 27.4327 20.5241 27.5835 20.551 27.7396C20.6752 28.4898 21.0662 29.04 21.6966 29.3199C22.0686 29.4878 22.5182 29.5679 23.0429 29.5679C23.4004 29.5679 23.793 29.5307 24.222 29.4576L31.6125 28.2113C31.6251 28.3418 31.6337 28.4722 31.6337 28.6015C31.6337 29.0633 31.5537 29.5142 31.3935 29.9581C31.1741 30.5698 30.626 31.4443 29.7525 32.5559C29.505 32.8594 29.1258 33.3322 28.615 33.9729C26.6219 36.3872 25.1945 38.4457 24.3307 40.1579L24.3301 40.1594L24.3299 40.1601C23.7168 41.3386 23.2912 42.4995 23.0577 43.6423C22.9217 44.3088 22.853 44.9487 22.853 45.5628C22.853 46.0025 22.8882 46.4281 22.9588 46.8401C23.06 47.4311 23.2059 47.9187 23.4024 48.305C23.5989 48.6896 23.8496 48.9772 24.1591 49.1473C24.4472 49.3035 24.8706 49.3655 25.4534 49.3672C26.1931 49.3672 27.189 49.2582 28.4496 49.0431L36.4614 47.6731C37.8803 47.429 38.867 47.0907 39.4404 46.6198C39.8986 46.2434 40.136 45.7267 40.1335 45.1181C40.1335 44.9641 40.1193 44.8051 40.0906 44.6396C40.0234 44.2446 39.8767 43.9057 39.6485 43.6335ZM32.8581 36.2209L32.8586 36.2205L32.8579 36.2214H32.8573L32.8581 36.2209Z" fill="white"/>
</g>
<defs>
<linearGradient id="paint0_linear_496_1440" x1="28.1627" y1="22.455" x2="32.7999" y2="50.4501" gradientUnits="userSpaceOnUse">
<stop stop-color="#D92231"/>
<stop offset="1" stop-color="#BA2234"/>
</linearGradient>
<clipPath id="clip0_496_1440">
<rect width="36.3478" height="44" fill="white" transform="translate(13 9)"/>
</clipPath>
</defs>
</svg>
