<svg xmlns="http://www.w3.org/2000/svg" width="62" height="62" fill="none"><path d="M39.158 44.688a13.76 13.76 0 0 1-9.736-4.002l-7.623-7.623c-.888-.888-1.375-2.068-1.37-3.323a4.65 4.65 0 0 1 1.39-3.314 4.69 4.69 0 0 1 6.597.02l6.981 6.981a2.11 2.11 0 0 0 2.972.008 2.09 2.09 0 0 0 .625-1.493 2.09 2.09 0 0 0-.617-1.496l-7.612-7.612c-2.127-2.104-4.952-3.264-7.947-3.254-3.056.008-5.908 1.208-8.032 3.379a11.19 11.19 0 0 0-3.204 8.113c.12 6.086 5.172 11.038 11.263 11.038a11.29 11.29 0 0 0 3.198-.46 1.29 1.29 0 0 1 1.601.871 1.29 1.29 0 0 1-.871 1.602 13.87 13.87 0 0 1-3.928.566c-7.485 0-13.693-6.086-13.84-13.566a13.75 13.75 0 0 1 3.939-9.967 13.74 13.74 0 0 1 9.87-4.154c3.664-.009 7.152 1.413 9.77 4.003l7.62 7.62a4.66 4.66 0 0 1 1.373 3.326c-.003 1.256-.498 2.435-1.39 3.318a4.7 4.7 0 0 1-6.609-.018l-6.981-6.981c-.815-.815-2.142-.818-2.962-.009-.401.396-.622.924-.624 1.488a2.09 2.09 0 0 0 .614 1.491l7.615 7.617c2.12 2.097 4.934 3.255 7.92 3.255 6.206 0 11.26-5.048 11.266-11.254.003-3.007-1.168-5.838-3.298-7.972s-4.96-3.308-7.967-3.308c-.959 0-1.91.12-2.83.358-.134.035-.267.071-.399.111a1.29 1.29 0 0 1-1.604-.866 1.29 1.29 0 0 1 .866-1.604c.162-.049.326-.094.49-.137a13.92 13.92 0 0 1 3.474-.44 13.75 13.75 0 0 1 9.791 4.063c2.617 2.62 4.057 6.099 4.053 9.795-.008 7.626-6.219 13.828-13.843 13.828l.002.002z" fill="#006eb9"/></svg>