<svg xmlns="http://www.w3.org/2000/svg" width="62" height="62" fill="none"><path d="M14.29 53a1.35 1.35 0 0 1-.713-.212 1.28 1.28 0 0 1-.562-1.275l3.688-22.66a5.15 5.15 0 0 1 1.745-3.096 5.18 5.18 0 0 1 3.339-1.229h15.193l.85-5.206h-1.427a2.13 2.13 0 0 1-1.639-.759c-.41-.486-.592-1.108-.486-1.73l.971-6.026A2.14 2.14 0 0 1 37.375 9h5.661c1.518 0 2.945.668 3.931 1.821a5.14 5.14 0 0 1 1.169 4.174L45.86 29.019c-.106.607-.455 1.153-.987 1.487l-12.719 7.847c-.774.471-1.761.425-2.474-.152l-5.919-4.72a1.27 1.27 0 0 1 1.609-2.003l5.692 4.538 12.294-7.619 2.246-13.827c.121-.744-.091-1.503-.577-2.079s-1.199-.911-1.958-.911H37.77l-.835 5.16h1.412a2.13 2.13 0 0 1 1.639.759c.41.486.592 1.108.486 1.73l-.986 6.056a2.14 2.14 0 0 1-2.125 1.806H21.788c-1.275 0-2.337.911-2.55 2.17L16.005 49.13l4.538-2.808a2.11 2.11 0 0 1 1.138-.319h16.62c1.275 0 2.337-.911 2.55-2.17l1.032-6.359c.121-.698.774-1.184 1.472-1.062s1.184.774 1.062 1.472l-1.032 6.359a5.15 5.15 0 0 1-1.745 3.096 5.18 5.18 0 0 1-3.339 1.229H21.788l-6.83 4.235c-.197.137-.44.197-.668.197z" fill="#089949"/></svg>