<svg xmlns="http://www.w3.org/2000/svg" width="62" height="62" fill="none"><mask id="A" maskUnits="userSpaceOnUse" x="9" y="9" width="44" height="44"><path d="M31 53c12.15 0 22-9.85 22-22S43.15 9 31 9 9 18.85 9 31s9.85 22 22 22z" fill="#fff"/></mask><g mask="url(#A)"><path d="M7.922 7.921h46.157v46.157H7.922V7.921z" fill="#e5e5e4"/></g><mask id="B" maskUnits="userSpaceOnUse" x="9" y="9" width="44" height="44"><path d="M31 52.57c11.912 0 21.569-9.657 21.569-21.569S42.912 9.433 31 9.433 9.431 19.089 9.431 31.001 19.088 52.57 31 52.57z" fill="#fff"/></mask><g mask="url(#B)"><path d="M8.353 8.353h45.294v45.294H8.353V8.353z" fill="#fff"/></g><mask id="C" maskUnits="userSpaceOnUse" x="11" y="11" width="40" height="40"><path d="M31 50.845c10.959 0 19.843-8.884 19.843-19.843S41.959 11.158 31 11.158s-19.843 8.884-19.843 19.843S20.041 50.845 31 50.845z" fill="#fff"/></mask><g mask="url(#C)"><path d="M10.079 10.08h41.843v41.843H10.079V10.08z" fill="#4a8cff"/></g><mask id="D" maskUnits="userSpaceOnUse" x="18" y="24" width="26" height="14"><path d="M37.039 28.427l5.608-4.098c.49-.399.863-.306.863.431v12.497c0 .828-.466.733-.863.431l-5.608-4.098v-5.163zm-18.98-3.636v9.318c.005 1.011.412 1.98 1.13 2.691s1.691 1.109 2.702 1.105H35.48c.184.001.36-.072.491-.201s.205-.305.206-.489v-9.318c-.005-1.011-.412-1.98-1.13-2.691s-1.691-1.109-2.702-1.105H18.756c-.184 0-.36.072-.491.201s-.205.305-.206.489z" fill="#fff"/></mask><g mask="url(#D)"><path d="M16.981 23.022h27.608v15.961H16.981V23.022z" fill="#fff"/></g></svg>