<svg xmlns="http://www.w3.org/2000/svg" width="62" height="62" fill="none"><g clip-path="url(#A)"><path d="M48.2 9H13.8C11.1 9 9 11.1 9 13.8v34.4c0 2.7 2.1 4.8 4.8 4.8h34.4c2.7 0 4.8-2.1 4.8-4.8V13.8c0-2.7-2.1-4.8-4.8-4.8zM21 21.4c0-.2.2-.4.3-.4h11.1c.2 0 .3.2.3.4v1.3c0 .2-.2.4-.3.4h-9.3v3.1c0 .2-.2.4-.3.4h-1.4c-.2 0-.3-.2-.3-.4v-4.8H21zm20 19.2c0 .2-.2.4-.3.4H30.5c-.2 0-.3-.2-.3-.4v-1.4c0-.2.2-.4.3-.4h8.4v-3.2c0-.2.2-.4.4-.4h1.4c.2 0 .3.2.3.4v5zm0-14.5c0 .2-.2.4-.3.4h-1.4c-.2 0-.4-.2-.4-.4v-1.5L24.1 38.9h3c.2 0 .4.2.4.4v1.4c0 .2-.2.4-.3.4h-5.8c-.2 0-.4-.2-.3-.4V39l16.4-15.8h-1.7c-.2 0-.4-.2-.3-.4v-1.4c0-.2.2-.4.3-.4h4.9c.2 0 .3.2.3.4v4.7z" fill="#f44238"/><g fill="#fff"><path d="M40.7 35.301h-1.4c-.2 0-.4.2-.4.4v3.2h-8.4c-.2 0-.4.2-.3.4v1.4c0 .2.2.4.3.4h10.2c.2 0 .3-.2.3-.4v-4.9c0-.3-.2-.5-.3-.5zM21.3 26.5h1.4c.2 0 .3-.2.3-.4V23h9.3c.2 0 .3-.2.3-.4v-1.3c0-.2-.2-.4-.3-.4h-11c-.2 0-.4.2-.3.4v4.8c0 .2.2.4.3.4z"/><path d="M40.7 21h-4.9c-.2 0-.3.2-.3.4v1.4c0 .2.2.4.3.4h1.7L21 38.9v1.7c0 .2.2.4.3.4h5.8c.2 0 .4-.2.3-.4v-1.4c0-.2-.2-.4-.4-.4h-3l14.8-14.3V26c0 .2.2.4.4.4h1.4c.2 0 .3-.2.3-.4v-4.7c.1-.1-.1-.3-.2-.3z"/></g></g><defs><clipPath id="A"><path fill="#fff" transform="translate(9 9)" d="M0 0h44v44H0z"/></clipPath></defs></svg>