<svg width="62" height="62" viewBox="0 0 62 62" fill="none" xmlns="http://www.w3.org/2000/svg"><path d="M45.6574 52.4667H19.3495C17.9765 52.4667 16.8148 51.6329 16.3368 50.3823C15.8588 49.1316 16.2812 47.7254 17.3429 46.8916L23.207 42.1503H12.218C10.8451 42.1503 9.68341 41.3165 9.20538 40.0659C8.72736 38.8152 9.09977 37.459 10.1559 36.5752L21.5117 27.2482C22.4622 26.4645 23.8351 26.6201 24.6299 27.5095C25.4248 28.4488 25.2636 29.8051 24.3631 30.5833L15.6031 37.8203H28.6487L46.3966 23.5408H16.3924C14.4358 23.5408 12.5904 22.757 11.1619 21.4063C9.78901 20.0501 9.04975 18.2269 9.04975 16.2982C9.04975 14.3694 9.78901 12.5463 11.2175 11.14C12.5904 9.78373 14.4414 9 16.3924 9H41.9555C43.3284 9 44.4901 9.83376 44.9681 11.0844C45.4461 12.335 45.0237 13.6913 43.962 14.5751L38.2591 19.2163H49.7761C51.1491 19.2163 52.3108 20.0501 52.7888 21.3007C53.2612 22.5514 52.8444 23.9576 51.7883 24.7914L35.5689 37.8203H45.6574C47.6139 37.8203 49.4593 38.604 50.8322 39.9547C52.2051 41.311 53 43.1341 53 45.1129V45.2185C53 47.1473 52.2607 48.9704 50.8322 50.3767C49.4593 51.7385 47.6084 52.4667 45.6574 52.4667ZM22.7845 48.1422H45.6574C46.4522 48.1422 47.1915 47.831 47.7695 47.3085C48.3476 46.736 48.6144 46.0078 48.6144 45.2241V45.1185C48.6144 44.3347 48.2976 43.6066 47.7695 43.0341C47.1859 42.4616 46.4466 42.2003 45.6574 42.2003H30.1772L22.7845 48.1422ZM16.3924 13.3244C15.5975 13.3244 14.8583 13.6357 14.2802 14.1582C13.6966 14.7307 13.4353 15.4589 13.4353 16.2426C13.4353 17.0263 13.7522 17.7545 14.2802 18.327C14.8638 18.8995 15.6031 19.1608 16.3924 19.1608H31.3389L38.576 13.3244H16.3924Z" fill="#00D2B9"/></svg>