<?xml version="1.0" encoding="UTF-8"?>
<svg width="329px" height="272px" viewBox="0 0 329 272" version="1.1" xmlns="http://www.w3.org/2000/svg" xmlns:xlink="http://www.w3.org/1999/xlink">
    <defs>
        <linearGradient x1="-0.47804878%" y1="50.6578313%" x2="99.3756098%" y2="50.6578313%" id="linearGradient-1">
            <stop stop-color="#00A9E2" offset="0%"></stop>
            <stop stop-color="#1981D7" offset="18.82%"></stop>
            <stop stop-color="#394DC8" offset="45.72%"></stop>
            <stop stop-color="#5027BE" offset="69.19%"></stop>
            <stop stop-color="#5F10B7" offset="88.02%"></stop>
            <stop stop-color="#6408B5" offset="99.87%"></stop>
        </linearGradient>
        <linearGradient x1="-0.47804878%" y1="50.6578313%" x2="99.3756098%" y2="50.6578313%" id="linearGradient-2">
            <stop stop-color="#00A9E2" offset="0%"></stop>
            <stop stop-color="#1981D7" offset="18.82%"></stop>
            <stop stop-color="#394DC8" offset="45.72%"></stop>
            <stop stop-color="#5027BE" offset="69.19%"></stop>
            <stop stop-color="#5F10B7" offset="88.02%"></stop>
            <stop stop-color="#6408B5" offset="99.87%"></stop>
        </linearGradient>
        <linearGradient x1="-0.39661289%" y1="50.1139535%" x2="100.197%" y2="50.1139535%" id="linearGradient-3">
            <stop stop-color="#00A9E2" offset="0%"></stop>
            <stop stop-color="#1981D7" offset="18.82%"></stop>
            <stop stop-color="#394DC8" offset="45.72%"></stop>
            <stop stop-color="#5027BE" offset="69.19%"></stop>
            <stop stop-color="#5F10B7" offset="88.02%"></stop>
            <stop stop-color="#6408B5" offset="99.87%"></stop>
        </linearGradient>
        <linearGradient x1="-0.39661289%" y1="50.1139535%" x2="100.197%" y2="50.1139535%" id="linearGradient-4">
            <stop stop-color="#00A9E2" offset="0%"></stop>
            <stop stop-color="#1981D7" offset="18.82%"></stop>
            <stop stop-color="#394DC8" offset="45.72%"></stop>
            <stop stop-color="#5027BE" offset="69.19%"></stop>
            <stop stop-color="#5F10B7" offset="88.02%"></stop>
            <stop stop-color="#6408B5" offset="99.87%"></stop>
        </linearGradient>
        <linearGradient x1="-0.572970907%" y1="49.8144828%" x2="100.780977%" y2="49.8144828%" id="linearGradient-5">
            <stop stop-color="#00A9E2" offset="0%"></stop>
            <stop stop-color="#1981D7" offset="18.82%"></stop>
            <stop stop-color="#394DC8" offset="45.72%"></stop>
            <stop stop-color="#5027BE" offset="69.19%"></stop>
            <stop stop-color="#5F10B7" offset="88.02%"></stop>
            <stop stop-color="#6408B5" offset="99.87%"></stop>
        </linearGradient>
        <linearGradient x1="-0.572970907%" y1="49.8144828%" x2="100.780977%" y2="49.8144828%" id="linearGradient-6">
            <stop stop-color="#00A9E2" offset="0%"></stop>
            <stop stop-color="#1981D7" offset="18.82%"></stop>
            <stop stop-color="#394DC8" offset="45.72%"></stop>
            <stop stop-color="#5027BE" offset="69.19%"></stop>
            <stop stop-color="#5F10B7" offset="88.02%"></stop>
            <stop stop-color="#6408B5" offset="99.87%"></stop>
        </linearGradient>
        <linearGradient x1="0.109585748%" y1="50.5107527%" x2="99.7631654%" y2="50.5107527%" id="linearGradient-7">
            <stop stop-color="#00A9E2" offset="0%"></stop>
            <stop stop-color="#1981D7" offset="18.82%"></stop>
            <stop stop-color="#394DC8" offset="45.72%"></stop>
            <stop stop-color="#5027BE" offset="69.19%"></stop>
            <stop stop-color="#5F10B7" offset="88.02%"></stop>
            <stop stop-color="#6408B5" offset="99.87%"></stop>
        </linearGradient>
        <linearGradient x1="0.109585748%" y1="50.5107527%" x2="99.7631654%" y2="50.5107527%" id="linearGradient-8">
            <stop stop-color="#00A9E2" offset="0%"></stop>
            <stop stop-color="#1981D7" offset="18.82%"></stop>
            <stop stop-color="#394DC8" offset="45.72%"></stop>
            <stop stop-color="#5027BE" offset="69.19%"></stop>
            <stop stop-color="#5F10B7" offset="88.02%"></stop>
            <stop stop-color="#6408B5" offset="99.87%"></stop>
        </linearGradient>
        <linearGradient x1="0.0824631818%" y1="49.9236155%" x2="100.074618%" y2="49.9236155%" id="linearGradient-9">
            <stop stop-color="#00A9E2" offset="0%"></stop>
            <stop stop-color="#1981D7" offset="18.82%"></stop>
            <stop stop-color="#394DC8" offset="45.72%"></stop>
            <stop stop-color="#5027BE" offset="69.19%"></stop>
            <stop stop-color="#5F10B7" offset="88.02%"></stop>
            <stop stop-color="#6408B5" offset="99.87%"></stop>
        </linearGradient>
        <linearGradient x1="0.0824631818%" y1="49.9236155%" x2="100.074618%" y2="49.9236155%" id="linearGradient-10">
            <stop stop-color="#00A9E2" offset="0%"></stop>
            <stop stop-color="#1981D7" offset="18.82%"></stop>
            <stop stop-color="#394DC8" offset="45.72%"></stop>
            <stop stop-color="#5027BE" offset="69.19%"></stop>
            <stop stop-color="#5F10B7" offset="88.02%"></stop>
            <stop stop-color="#6408B5" offset="99.87%"></stop>
        </linearGradient>
    </defs>
    <g id="Page-1" stroke="none" stroke-width="1" fill="none" fill-rule="evenodd">
        <g id="5e319a83ec5266b90078cce8_bearer-sticker-logo" fill-rule="nonzero">
            <g id="Group" transform="translate(47.000000, 129.000000)" fill="url(#linearGradient-2)">
                <g id="SVGID_1_-link">
                    <path d="M0.62,8 L6.38,13.8666667 C7.46,14.9333333 8.72,15.4666667 10.16,15.4666667 C10.34,15.4666667 10.52,15.4666667 10.7,15.4666667 C11.78,15.2888889 12.86,14.9333333 13.76,14.0444444 C14.84,13.1555556 15.38,11.7333333 15.38,10.4888889 C15.38,9.06666667 14.84,7.82222222 13.94,6.75555556 L8,0.711111111 C5.84,3.55555556 3.32,6.04444444 0.62,8 Z" id="SVGID_1_"></path>
                </g>
            </g>
            <g id="Group" transform="translate(123.000000, 69.000000)" fill="url(#linearGradient-4)">
                <g id="SVGID_5_-link">
                    <path d="M0.72,3.64285714 L6.66,19.8928571 C7.38,21.8571429 9.36,23.2857143 11.52,23.2857143 C12.06,23.2857143 12.78,23.1071429 13.32,22.9285714 C16.02,22.0357143 17.46,19 16.38,16.3214286 L10.44,0.25 C7.38,1.85714286 4.14,2.92857143 0.72,3.64285714 Z" id="SVGID_5_"></path>
                </g>
            </g>
            <g id="Group" transform="translate(208.000000, 67.000000)" fill="url(#linearGradient-6)">
                <g id="SVGID_9_-link">
                    <path d="M7.72727273,0.9 L0.818181818,19.98 C-0.0909090909,22.68 1.18181818,25.74 3.90909091,26.64 C4.45454545,26.82 5.18181818,27 5.72727273,27 L5.90909091,27 C8.09090909,27 9.90909091,25.56 10.6363636,23.58 L17.5454545,4.68 C15.3636364,4.14 13.1818182,3.6 11,2.7 C9.90909091,1.98 8.81818182,1.44 7.72727273,0.9 Z" id="SVGID_9_"></path>
                </g>
            </g>
            <g id="Group" transform="translate(276.000000, 145.000000)" fill="url(#linearGradient-8)">
                <g id="SVGID_13_-link">
                    <path d="M5.22,17.5454545 C5.58,17.5454545 5.76,17.5454545 6.12,17.5454545 C7.74,17.5454545 9.18,16.8181818 10.26,15.5454545 L16.56,7.72727273 C13.5,5.90909091 10.8,3.54545455 8.64,0.636363636 L1.98,8.81818182 C0.18,11 0.54,14.4545455 2.7,16.2727273 C3.42,17 4.32,17.3636364 5.22,17.5454545 Z" id="SVGID_13_"></path>
                </g>
            </g>
            <g id="Group" transform="translate(22.000000, 97.000000)" fill="url(#linearGradient-10)">
                <g id="SVGID_17_-link">
                    <path d="M261.081875,90.9670103 C254.71625,88.5948454 247.805,87.6824742 241.075625,88.2298969 C234.34625,88.7773196 227.616875,90.9670103 221.433125,94.2515464 C220.705625,94.6164948 219.79625,94.4340206 219.4325,93.7041237 C219.06875,92.9742268 219.250625,92.2443299 219.79625,91.6969072 C222.3425,89.6896907 225.070625,88.0474227 227.980625,86.5876289 L227.980625,78.3762887 C227.980625,35.3123711 193.060625,0.277319588 150.138125,0.277319588 C114.126875,0.277319588 83.208125,24.5463918 74.478125,59.2164948 C77.024375,60.128866 79.570625,61.2237113 81.935,62.5010309 C86.66375,64.8731959 91.02875,67.9752577 95.03,71.6247423 C98.849375,75.2742268 102.305,79.2886598 105.033125,83.8505155 C105.760625,85.1278351 105.396875,86.5876289 104.12375,87.3175258 C103.0325,88.0474227 101.5775,87.6824742 100.85,86.7701031 L100.85,86.7701031 C97.758125,82.9381443 94.484375,79.6536082 90.665,76.7340206 C87.0275,73.814433 82.844375,71.2597938 78.66125,69.4350515 C70.113125,65.6030928 60.655625,63.7783505 51.38,64.5082474 C42.104375,65.0556701 33.010625,68.3402062 25.19,73.2670103 C21.370625,75.8216495 17.733125,78.9237113 14.64125,82.3907216 C11.3675,85.857732 8.82125,89.6896907 6.63875,93.8865979 C-1.909375,110.491753 -1.545625,131.476289 8.4575,147.351546 C13.18625,155.380412 20.0975,161.949485 28.1,166.693814 C36.1025,171.438144 45.378125,173.810309 54.835625,173.992784 C54.835625,173.992784 54.835625,173.992784 54.835625,173.992784 C54.835625,173.992784 54.835625,173.992784 54.835625,173.992784 L246.168125,174.905155 C246.168125,174.905155 246.168125,174.905155 246.168125,174.905155 L246.168125,174.905155 C259.445,174.905155 272.54,168.518557 280.360625,157.752577 C288.545,147.169072 290.909375,132.753608 287.271875,119.797938 C283.81625,106.659794 273.813125,95.528866 261.081875,90.9670103 Z" id="SVGID_17_"></path>
                </g>
            </g>
            <g id="Group" transform="translate(82.000000, 0.000000)" fill="#9DACE3">
                <g id="SVGID_21_-link">
                    <path d="M20.1666667,61.9666667 C24.2,63.6166667 28.2333333,64.5333333 32.45,64.5333333 C45.4666667,64.5333333 57.2,56.65 62.3333333,44.7333333 C69.1166667,28.2333333 61.4166667,9.35 44.9166667,2.56666667 C41.0666667,0.916666667 36.85,0 32.6333333,0 C19.6166667,0 7.88333333,7.88333333 2.75,19.8 C-0.55,27.6833333 -0.55,36.4833333 2.75,44.55 C6.05,52.4333333 12.2833333,58.6666667 20.1666667,61.9666667 Z" id="SVGID_21_"></path>
                </g>
            </g>
            <g id="Group" transform="translate(202.000000, 0.000000)" fill="#9DACE3">
                <g id="SVGID_23_-link">
                    <path d="M20.2666667,61.9666667 C24.3,63.6166667 28.3333333,64.5333333 32.55,64.5333333 C45.5666667,64.5333333 57.3,56.65 62.4333333,44.7333333 C69.2166667,28.2333333 61.5166667,9.35 45.0166667,2.56666667 C40.9833333,0.916666667 36.95,0 32.7333333,0 C19.7166667,0 7.98333333,7.88333333 2.85,19.8 C-3.93333333,36.3 3.76666667,55.1833333 20.2666667,61.9666667 Z" id="SVGID_23_"></path>
                </g>
            </g>
            <g id="Group" transform="translate(286.000000, 105.000000)" fill="#9DACE3">
                <g id="SVGID_25_-link">
                    <path d="M39.4166667,10.6333333 C36.4833333,5.86666667 31.9,2.38333333 26.4,0.916666667 C24.75,0.55 22.9166667,0.183333333 21.2666667,0.183333333 C11.55,0.183333333 3.11666667,6.78333333 0.733333333,16.1333333 C-2.01666667,27.5 4.76666667,38.8666667 16.1333333,41.8 C17.7833333,42.1666667 19.6166667,42.5333333 21.2666667,42.5333333 C30.9833333,42.5333333 39.4166667,35.9333333 41.8,26.5833333 C43.2666667,21.2666667 42.35,15.5833333 39.4166667,10.6333333 Z" id="SVGID_25_"></path>
                </g>
            </g>
            <g id="Group" transform="translate(0.000000, 82.000000)" fill="#9DACE3">
                <g id="SVGID_27_-link">
                    <path d="M52.9,33.7333333 C56.3833333,19.6166667 47.7666667,5.13333333 33.65,1.65 C31.45,1.1 29.25,0.916666667 27.2333333,0.916666667 C15.1333333,0.916666667 4.5,9.16666667 1.56666667,20.9 C-0.0833333333,27.6833333 1.01666667,34.8333333 4.5,40.8833333 C8.16666667,46.9333333 13.85,51.3333333 20.8166667,52.9833333 C23.0166667,53.5333333 25.2166667,53.7166667 27.2333333,53.7166667 C39.5166667,53.9 49.9666667,45.65 52.9,33.7333333 Z" id="SVGID_27_"></path>
                </g>
            </g>
        </g>
    </g>
</svg>