<svg width="143" height="34" viewBox="0 0 143 34" fill="none" xmlns="http://www.w3.org/2000/svg">
<g clip-path="url(#clip0_10395_22)">
<path d="M50.7088 7.89447C48.2518 7.89447 46.4841 8.79598 45.344 10.5592V8.34522H41.6054V25.6551H45.344V16.3793C45.344 13.0207 47.1116 11.3945 49.741 11.3945C52.1318 11.3945 53.6167 12.813 53.6167 15.4115V25.6595H57.3553V15.0314C57.3553 10.599 54.6905 7.89889 50.7088 7.89889V7.89447Z" fill="white"/>
<path d="M75.0759 10.8023C73.6574 8.86227 71.6511 7.89447 69.0172 7.89447C66.6309 7.89447 64.6202 8.76063 62.9232 10.5239C61.2263 12.2871 60.3955 14.4348 60.3955 16.998C60.3955 19.5611 61.2263 21.7044 62.9232 23.472C64.6202 25.2397 66.6265 26.1015 69.0172 26.1015C71.6467 26.1015 73.6574 25.1337 75.0759 23.1583V25.6507H78.8146V8.34522H75.0759V10.8023ZM73.516 20.9796C72.4775 22.0181 71.1605 22.5396 69.605 22.5396C68.0495 22.5396 66.7325 22.0181 65.694 20.9796C64.6555 19.9058 64.1385 18.5933 64.1385 16.998C64.1385 15.4026 64.6555 14.0901 65.694 13.0516C66.7325 11.9778 68.0495 11.4607 69.605 11.4607C71.1605 11.4607 72.4775 11.9778 73.516 13.0516C74.5545 14.0901 75.0715 15.4071 75.0715 16.998C75.0715 18.5889 74.5545 19.9058 73.516 20.9796Z" fill="white"/>
<path d="M92.2758 7.89447C89.8187 7.89447 88.0511 8.79598 86.9109 10.5592V8.34522H83.1723V25.6551H86.9109V16.3793C86.9109 13.0207 88.6786 11.3945 91.308 11.3945C93.6988 11.3945 95.1836 12.813 95.1836 15.4115V25.6595H98.9222V15.0314C98.9222 10.599 96.2575 7.89889 92.2758 7.89889V7.89447Z" fill="white"/>
<path d="M116.709 10.9082C115.291 8.90189 113.28 7.89874 110.686 7.89874C108.229 7.89874 106.187 8.7649 104.49 10.5281C102.793 12.2605 101.962 14.3728 101.962 16.8299C101.962 19.2869 102.793 21.3993 104.49 23.167C106.187 24.8993 108.229 25.7655 110.686 25.7655C113.284 25.7655 115.291 24.7623 116.709 22.756V24.8684C116.709 27.8778 114.769 29.6455 111.552 29.6455C109.095 29.6455 107.398 28.744 106.496 26.9807L103.275 28.85C104.764 31.6518 107.5 33.0394 111.481 33.0394C113.938 33.0394 116.051 32.3456 117.783 30.927C119.515 29.5085 120.382 27.4978 120.382 24.8684V8.34508H116.714V10.9082H116.709ZM115.118 20.7055C114.08 21.744 112.763 22.261 111.207 22.261C109.652 22.261 108.335 21.7396 107.261 20.7055C106.223 19.667 105.705 18.3854 105.705 16.8299C105.705 15.2743 106.223 13.9928 107.261 12.9543C108.335 11.9158 109.652 11.3987 111.207 11.3987C112.763 11.3987 114.08 11.9158 115.118 12.9543C116.192 13.9928 116.709 15.2743 116.709 16.8299C116.709 18.3854 116.192 19.667 115.118 20.7055Z" fill="white"/>
<path d="M139.379 10.5281C137.616 8.7649 135.469 7.89874 132.905 7.89874C130.342 7.89874 128.199 8.7649 126.431 10.5281C124.668 12.2914 123.767 14.4391 123.767 17.0022C123.767 19.5654 124.668 21.7087 126.431 23.4763C128.195 25.244 130.378 26.1057 132.905 26.1057C135.433 26.1057 137.612 25.2396 139.379 23.4763C141.143 21.7131 142.044 19.5654 142.044 17.0022C142.044 14.4391 141.143 12.2958 139.379 10.5281ZM136.75 20.9132C135.712 21.9517 134.43 22.4687 132.905 22.4687C131.381 22.4687 130.104 21.9517 129.061 20.9132C128.018 19.8747 127.505 18.5578 127.505 17.0022C127.505 15.4467 128.022 14.1298 129.061 13.0913C130.099 12.0528 131.381 11.5313 132.905 11.5313C134.43 11.5313 135.707 12.0528 136.75 13.0913C137.793 14.1298 138.306 15.4467 138.306 17.0022C138.306 18.5578 137.784 19.8747 136.75 20.9132Z" fill="white"/>
<path d="M16.8844 0.112457C7.55997 0.112457 -0.00122833 7.67366 -0.00122833 16.9981C-0.00122833 18.8055 0.281599 20.5511 0.80748 22.1818C2.94194 21.3598 5.44761 20.4009 5.54483 20.3699C5.7216 20.3125 5.65089 20.1932 5.5139 20.1888C5.3769 20.1843 2.37629 20.0473 2.28348 20.0385C2.19068 20.0297 2.08462 19.9634 2.25255 19.8573C3.12313 19.2961 5.96023 17.4931 7.34343 16.976C7.48485 16.923 7.44066 16.8302 7.32576 16.8213C7.21528 16.8081 4.6389 16.5385 4.48423 16.5208C4.32956 16.5032 4.29421 16.428 4.47981 16.3264C5.29294 15.8712 7.66161 14.5941 9.41603 14.1477C9.58837 14.1036 9.71211 13.9533 9.72095 13.7765C9.91981 9.75067 11.0644 7.55434 11.9968 6.29488C12.041 6.23301 12.1294 6.22859 12.1824 6.28162C13.2651 7.3599 14.3125 8.84916 15.1256 10.4268C15.1698 10.5108 15.2803 10.5108 15.2979 10.4268C15.4924 9.30875 15.8636 8.36305 16.3497 7.39967C16.3851 7.32896 16.4779 7.30245 16.5397 7.35548C17.4589 8.12883 18.5946 9.76835 19.1691 11.8277C19.2177 11.9956 19.3592 12.1149 19.5315 12.1238L20.897 12.1901C21.4273 12.2166 21.9223 12.4596 22.267 12.8662L22.9696 13.6926C23.0447 13.781 23.1596 13.834 23.2745 13.834L30.1022 13.8428C30.248 13.8428 30.3717 13.9577 30.3938 14.1124C30.6015 16.1099 29.2802 20.286 25.6344 20.286C18.6079 20.286 14.2594 27.1755 16.8712 33.8926C26.2 33.8926 33.7568 26.3314 33.7568 17.0069C33.7568 7.6825 26.2133 0.112457 16.8844 0.112457Z" fill="white"/>
<path d="M21.5379 15.0982C21.5379 13.9138 20.5038 13.5073 17.9628 13.5073C17.9628 15.2131 20.9458 15.6903 21.5379 15.0982Z" fill="white"/>
</g>
<defs>
<clipPath id="clip0_10395_22">
<rect width="142.045" height="33.7757" fill="white" transform="translate(0 0.112152)"/>
</clipPath>
</defs>
</svg>
