<svg width="110" height="40" viewBox="0 0 110 40" fill="none" xmlns="http://www.w3.org/2000/svg">
<g clip-path="url(#clip0_10396_65)">
<path d="M32.5198 14.0627C30.9441 14.0627 29.8105 14.6409 29.0793 15.7717V14.3518H26.6817V25.4527H29.0793V19.5041C29.0793 17.3502 30.2129 16.3073 31.8991 16.3073C33.4324 16.3073 34.3846 17.217 34.3846 18.8834V25.4556H36.7822V18.6397C36.7822 15.7972 35.0733 14.0656 32.5198 14.0656V14.0627Z" fill="black"/>
<path d="M48.1465 15.9275C47.2368 14.6834 45.9501 14.0627 44.2611 14.0627C42.7307 14.0627 41.4412 14.6182 40.3529 15.749C39.2647 16.8798 38.7319 18.2571 38.7319 19.9009C38.7319 21.5446 39.2647 22.9191 40.3529 24.0527C41.4412 25.1863 42.7279 25.739 44.2611 25.739C45.9473 25.739 47.2368 25.1183 48.1465 23.8515V25.4499H50.5441V14.3518H48.1465V15.9275ZM47.1461 22.4543C46.4801 23.1203 45.6356 23.4547 44.638 23.4547C43.6404 23.4547 42.7959 23.1203 42.1299 22.4543C41.4639 21.7656 41.1323 20.9239 41.1323 19.9009C41.1323 18.8778 41.4639 18.0361 42.1299 17.3701C42.7959 16.6814 43.6404 16.3498 44.638 16.3498C45.6356 16.3498 46.4801 16.6814 47.1461 17.3701C47.8121 18.0361 48.1437 18.8806 48.1437 19.9009C48.1437 20.9211 47.8121 21.7656 47.1461 22.4543Z" fill="black"/>
<path d="M59.1769 14.0627C57.6011 14.0627 56.4675 14.6409 55.7364 15.7717V14.3518H53.3388V25.4527H55.7364V19.5041C55.7364 17.3502 56.87 16.3073 58.5562 16.3073C60.0894 16.3073 61.0417 17.217 61.0417 18.8834V25.4556H63.4393V18.6397C63.4393 15.7972 61.7303 14.0656 59.1769 14.0656V14.0627Z" fill="black"/>
<path d="M74.8461 15.9955C73.9364 14.7088 72.6469 14.0655 70.9833 14.0655C69.4076 14.0655 68.0983 14.621 67.01 15.7518C65.9217 16.8627 65.3889 18.2174 65.3889 19.7931C65.3889 21.3688 65.9217 22.7235 67.01 23.8571C68.0983 24.968 69.4076 25.5235 70.9833 25.5235C72.6497 25.5235 73.9364 24.8802 74.8461 23.5935V24.9482C74.8461 26.8782 73.602 28.0118 71.5388 28.0118C69.9631 28.0118 68.8748 27.4337 68.2967 26.3029L66.2307 27.5017C67.1857 29.2985 68.94 30.1883 71.4935 30.1883C73.0692 30.1883 74.4238 29.7434 75.5348 28.8337C76.6457 27.9239 77.2012 26.6345 77.2012 24.9482V14.3518H74.8489V15.9955H74.8461ZM73.8259 22.2786C73.1599 22.9445 72.3153 23.2761 71.3177 23.2761C70.3202 23.2761 69.4756 22.9417 68.787 22.2786C68.121 21.6126 67.7894 20.7907 67.7894 19.7931C67.7894 18.7955 68.121 17.9737 68.787 17.3077C69.4756 16.6417 70.3202 16.3101 71.3177 16.3101C72.3153 16.3101 73.1599 16.6417 73.8259 17.3077C74.5145 17.9737 74.8461 18.7955 74.8461 19.7931C74.8461 20.7907 74.5145 21.6126 73.8259 22.2786Z" fill="black"/>
<path d="M89.3847 15.7518C88.2539 14.621 86.8766 14.0655 85.2328 14.0655C83.5891 14.0655 82.2146 14.621 81.081 15.7518C79.9502 16.8826 79.372 18.2599 79.372 19.9036C79.372 21.5474 79.9502 22.9219 81.081 24.0555C82.2117 25.1891 83.6118 25.7417 85.2328 25.7417C86.8539 25.7417 88.2511 25.1863 89.3847 24.0555C90.5155 22.9247 91.0936 21.5474 91.0936 19.9036C91.0936 18.2599 90.5155 16.8854 89.3847 15.7518ZM87.6984 22.4117C87.0324 23.0777 86.2106 23.4093 85.2328 23.4093C84.2551 23.4093 83.436 23.0777 82.7672 22.4117C82.0984 21.7458 81.7696 20.9012 81.7696 19.9036C81.7696 18.9061 82.1012 18.0615 82.7672 17.3955C83.4332 16.7295 84.2551 16.3951 85.2328 16.3951C86.2106 16.3951 87.0296 16.7295 87.6984 17.3955C88.3673 18.0615 88.696 18.9061 88.696 19.9036C88.696 20.9012 88.3616 21.7458 87.6984 22.4117Z" fill="black"/>
<path d="M10.8281 9.07211C4.84825 9.07211 -0.000785828 13.9211 -0.000785828 19.901C-0.000785828 21.0601 0.180592 22.1795 0.517842 23.2253C1.88668 22.6981 3.49358 22.0832 3.55593 22.0633C3.66929 22.0265 3.62394 21.95 3.53609 21.9471C3.44823 21.9443 1.52392 21.8564 1.46441 21.8508C1.4049 21.8451 1.33688 21.8026 1.44457 21.7346C2.00288 21.3747 3.82233 20.2184 4.70938 19.8868C4.80007 19.8528 4.77173 19.7933 4.69804 19.7876C4.62719 19.7791 2.97495 19.6062 2.87576 19.5949C2.77657 19.5835 2.7539 19.5354 2.87292 19.4702C3.39439 19.1783 4.91343 18.3592 6.03854 18.073C6.14907 18.0447 6.22842 17.9483 6.23409 17.8349C6.36162 15.2531 7.09564 13.8446 7.69362 13.0369C7.72196 12.9972 7.77864 12.9944 7.81265 13.0284C8.50698 13.7199 9.17865 14.675 9.70011 15.6867C9.72845 15.7406 9.7993 15.7406 9.81064 15.6867C9.93534 14.9697 10.1734 14.3633 10.4851 13.7454C10.5078 13.7001 10.5673 13.6831 10.607 13.7171C11.1965 14.213 11.9248 15.2645 12.2933 16.5851C12.3244 16.6928 12.4151 16.7693 12.5256 16.775L13.4014 16.8175C13.7414 16.8345 14.0589 16.9904 14.2799 17.2511L14.7305 17.7811C14.7787 17.8378 14.8524 17.8718 14.9261 17.8718L19.3047 17.8775C19.3982 17.8775 19.4775 17.9511 19.4917 18.0503C19.6249 19.3313 18.7775 22.0095 16.4394 22.0095C11.9333 22.0095 9.14464 26.4277 10.8196 30.7355C16.8022 30.7355 21.6484 25.8864 21.6484 19.9066C21.6484 13.9268 16.8107 9.07211 10.8281 9.07211Z" fill="black"/>
<path d="M13.8124 18.6825C13.8124 17.923 13.1492 17.6623 11.5196 17.6623C11.5196 18.7562 13.4326 19.0623 13.8124 18.6825Z" fill="black"/>
</g>
<defs>
<clipPath id="clip0_10396_65">
<rect width="91.0943" height="21.6605" fill="white" transform="translate(0 9.07193)"/>
</clipPath>
</defs>
</svg>
