<svg width="35" height="32" viewBox="0 0 35 32" fill="none" xmlns="http://www.w3.org/2000/svg">
<path d="M6.87559 14.8251H0.920911C0.920911 14.8251 0.0742648 15.3389 0.00480734 15.8807C-0.0773569 16.5217 0.920911 17.2576 0.920911 17.2576H7.8833C7.8833 17.2576 8.38778 17.2611 8.61618 17.074C8.82066 16.9065 8.93682 16.4774 8.93682 16.4774L12.647 5.23288L21.2584 31.0722C21.2584 31.0722 21.8104 31.929 22.3577 31.9442C22.7736 31.9558 23.3197 31.4853 23.3197 31.4853L28.1292 17.2576H34.1297C34.1297 17.2576 35 16.7512 35 16.0635C35 15.3759 34.1297 14.8251 34.1297 14.8251H27.2589C27.2589 14.8251 26.7337 14.8638 26.4802 15.0546C26.1857 15.2762 26.0222 15.8807 26.0222 15.8807L22.3577 26.7121L13.6089 0.826888C13.6089 0.826888 13.141 0.0286914 12.647 0.000764253C12.0775 -0.0314358 11.5477 0.964576 11.5477 0.964576L6.87559 14.8251Z" fill="white"/>
</svg>
