<svg width="24" height="25" viewBox="0 0 24 25" fill="none" xmlns="http://www.w3.org/2000/svg">
<path d="M3.375 20.2832H20.625M3.375 20.2832C3.07663 20.2832 2.79048 20.1647 2.5795 19.9537C2.36853 19.7427 2.25 19.4566 2.25 19.1582M3.375 20.2832H10.875C11.496 20.2832 12 19.7792 12 19.1582M20.625 20.2832C21.246 20.2832 21.75 19.7792 21.75 19.1582M20.625 20.2832H13.125C12.8266 20.2832 12.5405 20.1647 12.3295 19.9537C12.1185 19.7427 12 19.4566 12 19.1582M2.25 19.1582V6.4082M2.25 19.1582V17.6582C2.25 17.0372 2.754 16.5332 3.375 16.5332M12 19.1582V17.6582M2.25 6.4082C2.25 5.7872 2.754 5.2832 3.375 5.2832H20.625C21.246 5.2832 21.75 5.7872 21.75 6.4082M2.25 6.4082V7.9082C2.25 8.5292 2.754 9.0332 3.375 9.0332M3.375 16.5332C2.754 16.5332 2.25 16.0292 2.25 15.4082V13.9082C2.25 13.2872 2.754 12.7832 3.375 12.7832M3.375 16.5332H10.875M21.75 19.1582V6.4082M21.75 19.1582V17.6582C21.75 17.0372 21.246 16.5332 20.625 16.5332M21.75 6.4082V7.9082C21.75 8.5292 21.246 9.0332 20.625 9.0332M20.625 16.5332C21.246 16.5332 21.75 16.0292 21.75 15.4082V13.9082C21.75 13.2872 21.246 12.7832 20.625 12.7832M20.625 16.5332H13.125M20.625 9.0332H3.375M20.625 9.0332H13.125C12.504 9.0332 12 9.5372 12 10.1582M20.625 9.0332C21.246 9.0332 21.75 9.5372 21.75 10.1582V11.6582C21.75 12.2792 21.246 12.7832 20.625 12.7832M3.375 9.0332H10.875C11.496 9.0332 12 9.5372 12 10.1582M3.375 9.0332C2.754 9.0332 2.25 9.5372 2.25 10.1582V11.6582C2.25 12.2792 2.754 12.7832 3.375 12.7832M12 10.1582V11.6582M3.375 12.7832H10.875M20.625 12.7832H13.125M10.875 12.7832C11.496 12.7832 12 12.2792 12 11.6582M10.875 12.7832C11.496 12.7832 12 13.2872 12 13.9082M12 11.6582C12 12.2792 12.504 12.7832 13.125 12.7832M13.125 12.7832C12.504 12.7832 12 13.2872 12 13.9082M12 13.9082V15.4082M10.875 16.5332C11.496 16.5332 12 16.0292 12 15.4082M10.875 16.5332C11.496 16.5332 12 17.0372 12 17.6582M12 15.4082C12 16.0292 12.504 16.5332 13.125 16.5332M13.125 16.5332C12.504 16.5332 12 17.0372 12 17.6582" stroke="black" stroke-width="1.5" stroke-linecap="round" stroke-linejoin="round"/>
</svg>
