<svg width="25" height="25" viewBox="0 0 25 25" fill="none" xmlns="http://www.w3.org/2000/svg">
<path d="M8 8.96094H17M8 11.9609H12.5M2.75 13.4709C2.75 15.0709 3.873 16.4649 5.457 16.6979C6.586 16.8639 7.727 16.9909 8.88 17.0769C9.23 17.1029 9.55 17.2869 9.745 17.5779L12.5 21.7109L15.255 17.5779C15.3516 17.4342 15.4798 17.3144 15.6297 17.2276C15.7795 17.1408 15.9472 17.0892 16.12 17.0769C17.2652 16.9914 18.4069 16.865 19.543 16.6979C21.127 16.4649 22.25 15.0719 22.25 13.4699V7.45194C22.25 5.84994 21.127 4.45694 19.543 4.22394C17.211 3.88165 14.857 3.7102 12.5 3.71094C10.108 3.71094 7.756 3.88594 5.457 4.22394C3.873 4.45694 2.75 5.85094 2.75 7.45194V13.4699V13.4709Z" stroke="black" stroke-width="1.5" stroke-linecap="round" stroke-linejoin="round"/>
</svg>
