<svg width="35" height="35" viewBox="0 0 35 35" fill="none" xmlns="http://www.w3.org/2000/svg">
<path d="M27.3438 35C29.3743 35 31.3217 34.1934 32.7575 32.7575C34.1934 31.3217 35 29.3743 35 27.3438C35 25.3132 34.1934 23.3658 32.7575 21.93C31.3217 20.4941 29.3743 19.6875 27.3438 19.6875C25.3132 19.6875 23.3658 20.4941 21.93 21.93C20.4941 23.3658 19.6875 25.3132 19.6875 27.3438C19.6875 29.3743 20.4941 31.3217 21.93 32.7575C23.3658 34.1934 25.3132 35 27.3438 35ZM31.0166 25.1716L28.0963 30.0409C27.9679 30.2549 27.7925 30.4367 27.5833 30.5726C27.3741 30.7086 27.1367 30.795 26.8891 30.8254C26.6415 30.8558 26.3902 30.8293 26.1544 30.7479C25.9185 30.6666 25.7044 30.5325 25.5281 30.3559L23.835 28.665C23.6296 28.4596 23.5142 28.1811 23.5142 27.8906C23.5142 27.6002 23.6296 27.3216 23.835 27.1162C24.0404 26.9109 24.3189 26.7955 24.6094 26.7955C24.8998 26.7955 25.1784 26.9109 25.3837 27.1162L26.5803 28.315L29.1397 24.0472C29.2135 23.924 29.3109 23.8165 29.4263 23.7309C29.5416 23.6453 29.6727 23.5832 29.8121 23.5483C29.9514 23.5133 30.0963 23.5062 30.2384 23.5272C30.3805 23.5483 30.5171 23.5971 30.6403 23.6709C30.7635 23.7448 30.871 23.8421 30.9566 23.9575C31.0422 24.0729 31.1043 24.204 31.1392 24.3433C31.1742 24.4827 31.1813 24.6275 31.1603 24.7696C31.1392 24.9118 31.0904 25.0483 31.0166 25.1716ZM24.0625 10.9375C24.0625 12.678 23.3711 14.3472 22.1404 15.5779C20.9097 16.8086 19.2405 17.5 17.5 17.5C15.7595 17.5 14.0903 16.8086 12.8596 15.5779C11.6289 14.3472 10.9375 12.678 10.9375 10.9375C10.9375 9.19702 11.6289 7.52782 12.8596 6.29711C14.0903 5.0664 15.7595 4.375 17.5 4.375C19.2405 4.375 20.9097 5.0664 22.1404 6.29711C23.3711 7.52782 24.0625 9.19702 24.0625 10.9375Z" fill="white"/>
<path d="M4.375 28.4375C4.375 30.625 6.5625 30.625 6.5625 30.625H18.06C17.6881 29.571 17.4987 28.4614 17.5 27.3438C17.4986 25.9369 17.7994 24.5461 18.3821 23.2656C18.9648 21.985 19.8158 20.8446 20.8775 19.9216C19.8559 19.7706 18.7338 19.6875 17.5 19.6875C6.5625 19.6875 4.375 26.25 4.375 28.4375Z" fill="white"/>
</svg>
