<svg width="35" height="35" viewBox="0 0 35 35" fill="none" xmlns="http://www.w3.org/2000/svg">
<path d="M13.125 0C13.4151 0 13.6933 0.115234 13.8984 0.320352C14.1035 0.52547 14.2188 0.803669 14.2188 1.09375V6.5625H20.7812V1.09375C20.7812 0.803669 20.8965 0.52547 21.1016 0.320352C21.3067 0.115234 21.5849 0 21.875 0C22.1651 0 22.4433 0.115234 22.6484 0.320352C22.8535 0.52547 22.9688 0.803669 22.9688 1.09375V6.5625H25.1562C25.4463 6.5625 25.7245 6.67773 25.9296 6.88285C26.1348 7.08797 26.25 7.36617 26.25 7.65625V14.2188C26.25 16.2493 25.4434 18.1967 24.0075 19.6325C22.5717 21.0684 20.6243 21.875 18.5938 21.875C18.5894 22.8244 18.5719 23.7234 18.5063 24.5438C18.4166 25.6681 18.2306 26.7378 17.8128 27.6588C17.3892 28.6327 16.6387 29.4281 15.6909 29.9075C14.7109 30.4062 13.4947 30.625 12.0312 30.625C9.84812 30.625 8.50938 31.3469 7.71312 32.1956C6.99422 32.9548 6.584 33.9547 6.5625 35H4.375C4.375 33.6525 4.8825 32.0097 6.11844 30.695C7.38063 29.3562 9.32094 28.4375 12.0312 28.4375C13.3022 28.4375 14.1356 28.245 14.6956 27.9584C15.2228 27.6894 15.5706 27.3022 15.82 26.7553C16.0847 26.1734 16.2422 25.3969 16.3231 24.3709C16.3822 23.6272 16.3997 22.8003 16.4041 21.875C14.3739 21.8744 12.427 21.0675 10.9917 19.6318C9.55634 18.196 8.75 16.2489 8.75 14.2188V7.65625C8.75 7.36617 8.86523 7.08797 9.07035 6.88285C9.27547 6.67773 9.55367 6.5625 9.84375 6.5625H12.0312V1.09375C12.0312 0.803669 12.1465 0.52547 12.3516 0.320352C12.5567 0.115234 12.8349 0 13.125 0Z" fill="white"/>
</svg>
