<svg width="25" height="25" viewBox="0 0 25 25" fill="none" xmlns="http://www.w3.org/2000/svg">
<path d="M4.76007 10.8571C4.48502 12.9627 4.32112 15.0813 4.26907 17.2041C7.14786 18.4067 9.90423 19.8835 12.5001 21.6141C15.0962 19.8834 17.8529 18.4066 20.7321 17.2041C20.68 15.0813 20.5161 12.9627 20.2411 10.8571M20.2411 10.8571C21.1161 10.5631 22.0031 10.2911 22.8991 10.0431C19.6356 7.75537 16.1521 5.79901 12.5001 4.20312C8.84806 5.79934 5.36447 7.75604 2.10107 10.0441C2.99436 10.2907 3.88069 10.5618 4.75907 10.8571C7.42773 11.7542 10.017 12.8721 12.5001 14.1991C14.9828 12.8722 17.5728 11.7543 20.2411 10.8571ZM7.25007 15.7101C7.44899 15.7101 7.63975 15.6311 7.7804 15.4905C7.92106 15.3498 8.00007 15.159 8.00007 14.9601C8.00007 14.7612 7.92106 14.5704 7.7804 14.4298C7.63975 14.2891 7.44899 14.2101 7.25007 14.2101C7.05116 14.2101 6.8604 14.2891 6.71974 14.4298C6.57909 14.5704 6.50007 14.7612 6.50007 14.9601C6.50007 15.159 6.57909 15.3498 6.71974 15.4905C6.8604 15.6311 7.05116 15.7101 7.25007 15.7101ZM7.25007 15.7101V12.0351C8.94681 10.9805 10.6994 10.0184 12.5001 9.15312M5.49307 20.7031C6.05105 20.1465 6.49351 19.4851 6.79504 18.757C7.09656 18.0288 7.25121 17.2482 7.25007 16.4601V14.9601" stroke="black" stroke-width="1.5" stroke-linecap="round" stroke-linejoin="round"/>
</svg>
