<svg width="31" height="31" viewBox="0 0 31 31" fill="none" xmlns="http://www.w3.org/2000/svg">
<path d="M20.7354 18.9563C21.0391 20.2412 21.048 21.5781 20.7616 22.867C20.4752 24.1558 19.9008 25.3631 19.0815 26.3985C18.2622 27.4338 17.2193 28.2703 16.0308 28.8453C14.8423 29.4203 13.539 29.7189 12.2188 29.7188V22.7188M20.7354 18.9563C23.5207 16.9274 25.7865 14.2684 27.3477 11.1966C28.909 8.12472 29.7215 4.7271 29.7188 1.28126C26.2731 1.27877 22.8758 2.09134 19.8042 3.6526C16.7327 5.21387 14.0739 7.47954 12.0452 10.2646M20.7354 18.9563C18.2007 20.8102 15.2963 22.0937 12.2188 22.7188M12.2188 22.7188C12.0685 22.7494 11.9169 22.7785 11.7652 22.8063C10.4422 21.7572 9.24431 20.5593 8.19521 19.2363C8.22276 19.0843 8.25047 18.9326 8.28125 18.7813M12.0452 10.2646C10.7602 9.96067 9.42309 9.95151 8.13406 10.2378C6.84502 10.5241 5.6375 11.0985 4.60198 11.9178C3.56646 12.7371 2.72981 13.7802 2.15472 14.9688C1.57962 16.1574 1.28101 17.4608 1.28125 18.7813H8.28125M12.0452 10.2646C10.1915 12.7989 8.90652 15.7042 8.28125 18.7813M5.01604 22.2667C4.05672 22.98 3.31085 23.9423 2.8592 25.0492C2.40755 26.156 2.26734 27.3654 2.45375 28.5463C3.63475 28.7325 4.8442 28.5921 5.95109 28.1402C7.05799 27.6882 8.02014 26.9421 8.73333 25.9825M22.0625 11.125C22.0625 11.7052 21.832 12.2616 21.4218 12.6718C21.0116 13.082 20.4552 13.3125 19.875 13.3125C19.2948 13.3125 18.7384 13.082 18.3282 12.6718C17.918 12.2616 17.6875 11.7052 17.6875 11.125C17.6875 10.5448 17.918 9.98845 18.3282 9.57821C18.7384 9.16797 19.2948 8.93751 19.875 8.93751C20.4552 8.93751 21.0116 9.16797 21.4218 9.57821C21.832 9.98845 22.0625 10.5448 22.0625 11.125Z" stroke="white" stroke-width="1.5" stroke-linecap="round" stroke-linejoin="round"/>
</svg>
