<svg width="35" height="35" viewBox="0 0 35 35" fill="none" xmlns="http://www.w3.org/2000/svg">
<path d="M20.5734 2.29688C19.67 -0.765625 15.33 -0.765625 14.4266 2.29688L14.2078 3.04062C14.0728 3.49911 13.8369 3.92157 13.5174 4.27703C13.1979 4.63248 12.8029 4.91191 12.3613 5.09483C11.9198 5.27774 11.4429 5.35951 10.9656 5.33412C10.4883 5.30874 10.0228 5.17685 9.60312 4.94813L8.925 4.57625C6.11844 3.04938 3.04937 6.11844 4.57844 8.92281L4.94813 9.60312C5.92375 11.3969 4.99844 13.6303 3.04062 14.2078L2.29688 14.4266C-0.765625 15.33 -0.765625 19.67 2.29688 20.5734L3.04062 20.7922C3.49911 20.9272 3.92157 21.1631 4.27703 21.4826C4.63248 21.8021 4.91191 22.1971 5.09483 22.6387C5.27774 23.0802 5.35951 23.5571 5.33412 24.0344C5.30874 24.5117 5.17685 24.9772 4.94813 25.3969L4.57625 26.075C3.04938 28.8816 6.11844 31.9506 8.92281 30.4216L9.60312 30.0519C10.0228 29.8232 10.4883 29.6913 10.9656 29.6659C11.4429 29.6405 11.9198 29.7223 12.3613 29.9052C12.8029 30.0881 13.1979 30.3675 13.5174 30.723C13.8369 31.0784 14.0728 31.5009 14.2078 31.9594L14.4266 32.7031C15.33 35.7656 19.67 35.7656 20.5734 32.7031L20.7922 31.9594C20.9272 31.5009 21.1631 31.0784 21.4826 30.723C21.8021 30.3675 22.1971 30.0881 22.6387 29.9052C23.0802 29.7223 23.5571 29.6405 24.0344 29.6659C24.5117 29.6913 24.9772 29.8232 25.3969 30.0519L26.075 30.4237C28.8816 31.9506 31.9506 28.8816 30.4216 26.0772L30.0519 25.3969C29.8232 24.9772 29.6913 24.5117 29.6659 24.0344C29.6405 23.5571 29.7223 23.0802 29.9052 22.6387C30.0881 22.1971 30.3675 21.8021 30.723 21.4826C31.0784 21.1631 31.5009 20.9272 31.9594 20.7922L32.7031 20.5734C35.7656 19.67 35.7656 15.33 32.7031 14.4266L31.9594 14.2078C31.5009 14.0728 31.0784 13.8369 30.723 13.5174C30.3675 13.1979 30.0881 12.8029 29.9052 12.3613C29.7223 11.9198 29.6405 11.4429 29.6659 10.9656C29.6913 10.4883 29.8232 10.0228 30.0519 9.60312L30.4237 8.925C31.9506 6.11844 28.8816 3.04937 26.0772 4.57844L25.3969 4.94813C24.9772 5.17685 24.5117 5.30874 24.0344 5.33412C23.5571 5.35951 23.0802 5.27774 22.6387 5.09483C22.1971 4.91191 21.8021 4.63248 21.4826 4.27703C21.1631 3.92157 20.9272 3.49911 20.7922 3.04062L20.5734 2.29688ZM17.5 23.9094C15.8001 23.9094 14.1699 23.2341 12.9679 22.0321C11.7659 20.8301 11.0906 19.1999 11.0906 17.5C11.0906 15.8001 11.7659 14.1699 12.9679 12.9679C14.1699 11.7659 15.8001 11.0906 17.5 11.0906C19.1993 11.0906 20.829 11.7657 22.0306 12.9672C23.2321 14.1688 23.9072 15.7985 23.9072 17.4978C23.9072 19.1971 23.2321 20.8268 22.0306 22.0284C20.829 23.23 19.1993 23.905 17.5 23.905V23.9094Z" fill="white"/>
</svg>
