<svg width="359" height="242" viewBox="0 0 359 242" fill="none"
  xmlns="http://www.w3.org/2000/svg">
  <path fill-rule="evenodd" clip-rule="evenodd" d="M135.3 87.981C135.309 87.9866 135.322 87.9913 135.336 87.9953C143.073 92.4772 149.348 103.342 149.335 112.246C149.334 112.253 149.334 112.261 149.334 112.269L149.334 112.299C149.334 112.301 149.334 112.302 149.334 112.304L149.246 142.93C149.236 143.018 149.285 143.106 149.363 143.145C149.392 143.164 149.48 143.174 149.48 143.174C149.529 143.174 149.607 143.145 149.607 143.145L154.359 140.383C154.428 140.334 154.476 140.256 154.476 140.169L154.564 109.59C154.571 109.567 154.575 109.543 154.575 109.518C154.604 100.443 148.203 89.3476 140.308 84.7904C140.281 84.773 140.252 84.7618 140.222 84.7569C136.403 82.5703 132.658 82.2241 129.943 83.8045L125.191 86.5661C125.074 86.6344 125.035 86.7808 125.103 86.8979C125.171 87.015 125.318 87.054 125.435 86.9857C128.021 85.4927 131.612 85.8537 135.3 87.981Z" fill="#09090B"/>
  <path d="M135.336 87.9953L135.506 87.7017L135.468 87.6798L135.426 87.6682L135.336 87.9953ZM135.3 87.981L135.489 87.6987L135.479 87.6926L135.47 87.6871L135.3 87.981ZM149.335 112.246L149.673 112.28L149.674 112.263L149.674 112.246L149.335 112.246ZM149.334 112.269L149.673 112.27V112.269H149.334ZM149.334 112.299L149.673 112.304L149.673 112.3L149.334 112.299ZM149.334 112.304L149.673 112.305L149.673 112.301L149.334 112.304ZM149.246 142.93L149.583 142.968L149.585 142.949L149.585 142.931L149.246 142.93ZM149.363 143.145L149.551 142.863L149.534 142.851L149.515 142.841L149.363 143.145ZM149.48 143.174L149.443 143.511L149.461 143.513H149.48V143.174ZM149.607 143.145L149.726 143.463L149.753 143.453L149.777 143.438L149.607 143.145ZM154.359 140.383L154.53 140.677L154.544 140.669L154.557 140.659L154.359 140.383ZM154.476 140.169L154.137 140.168V140.169H154.476ZM154.564 109.59L154.24 109.488L154.225 109.538L154.225 109.589L154.564 109.59ZM154.575 109.518L154.236 109.517V109.518H154.575ZM140.308 84.7904L140.129 85.0783L140.139 85.0843L140.308 84.7904ZM140.222 84.7569L140.053 85.0513L140.106 85.0813L140.165 85.0914L140.222 84.7569ZM129.943 83.8045L130.114 84.0978L130.114 84.0977L129.943 83.8045ZM125.191 86.5661L125.02 86.2727L125.02 86.273L125.191 86.5661ZM125.103 86.8979L125.396 86.7269L125.396 86.7269L125.103 86.8979ZM125.435 86.9857L125.265 86.6919L125.264 86.6926L125.435 86.9857ZM135.426 87.6682C135.427 87.6683 135.431 87.6696 135.439 87.6727C135.443 87.6743 135.45 87.6768 135.457 87.6806C135.465 87.6843 135.476 87.6901 135.489 87.6987L135.112 88.2633C135.168 88.3008 135.226 88.3169 135.246 88.3224L135.426 87.6682ZM149.674 112.246C149.681 107.72 148.092 102.72 145.536 98.2927C142.98 93.8654 139.438 89.9794 135.506 87.7017L135.166 88.2889C138.971 90.4931 142.436 94.2805 144.948 98.6319C147.46 102.984 149.002 107.867 148.996 112.245L149.674 112.246ZM148.997 112.211C148.995 112.23 148.994 112.25 148.994 112.269H149.673C149.673 112.273 149.673 112.276 149.673 112.28L148.997 112.211ZM148.994 112.269L148.994 112.298L149.673 112.3L149.673 112.27L148.994 112.269ZM149.673 112.301C149.673 112.302 149.673 112.303 149.673 112.304L148.994 112.294C148.994 112.299 148.994 112.303 148.994 112.307L149.673 112.301ZM148.994 112.303L148.907 142.929L149.585 142.931L149.673 112.305L148.994 112.303ZM148.909 142.893C148.883 143.124 149.008 143.347 149.211 143.448L149.515 142.841C149.541 142.855 149.559 142.874 149.569 142.893C149.579 142.912 149.587 142.937 149.583 142.968L148.909 142.893ZM149.175 143.427C149.226 143.461 149.277 143.477 149.297 143.483C149.324 143.491 149.35 143.497 149.369 143.5C149.389 143.504 149.406 143.507 149.419 143.508C149.425 143.509 149.431 143.51 149.435 143.51C149.437 143.511 149.438 143.511 149.44 143.511C149.44 143.511 149.441 143.511 149.441 143.511C149.442 143.511 149.442 143.511 149.442 143.511C149.442 143.511 149.442 143.511 149.442 143.511C149.442 143.511 149.443 143.511 149.443 143.511C149.443 143.511 149.443 143.511 149.443 143.511C149.443 143.511 149.443 143.511 149.48 143.174C149.518 142.837 149.518 142.837 149.518 142.837C149.518 142.837 149.518 142.837 149.518 142.837C149.518 142.837 149.518 142.837 149.518 142.837C149.518 142.837 149.518 142.837 149.518 142.837C149.518 142.837 149.518 142.837 149.518 142.837C149.519 142.837 149.519 142.837 149.519 142.837C149.519 142.837 149.519 142.837 149.518 142.837C149.517 142.837 149.515 142.837 149.513 142.836C149.508 142.836 149.502 142.835 149.496 142.834C149.489 142.832 149.488 142.832 149.49 142.832C149.491 142.833 149.497 142.834 149.505 142.838C149.512 142.841 149.53 142.848 149.551 142.863L149.175 143.427ZM149.48 143.513C149.555 143.513 149.626 143.494 149.655 143.486C149.674 143.48 149.691 143.475 149.703 143.471C149.709 143.469 149.714 143.467 149.718 143.465C149.72 143.465 149.722 143.464 149.723 143.464C149.724 143.463 149.724 143.463 149.725 143.463C149.725 143.463 149.725 143.463 149.726 143.463C149.726 143.463 149.726 143.463 149.726 143.463C149.726 143.463 149.726 143.463 149.726 143.463C149.726 143.463 149.726 143.463 149.726 143.463C149.726 143.463 149.726 143.463 149.607 143.145C149.488 142.827 149.488 142.827 149.488 142.827C149.488 142.827 149.488 142.827 149.488 142.827C149.488 142.827 149.488 142.827 149.488 142.827C149.488 142.827 149.488 142.827 149.488 142.827C149.488 142.827 149.489 142.827 149.489 142.827C149.489 142.827 149.489 142.827 149.489 142.827C149.489 142.827 149.489 142.827 149.489 142.827C149.488 142.827 149.487 142.828 149.485 142.828C149.481 142.83 149.475 142.832 149.469 142.833C149.462 142.835 149.458 142.836 149.456 142.836C149.452 142.837 149.462 142.835 149.48 142.835V143.513ZM149.777 143.438L154.53 140.677L154.189 140.09L149.437 142.852L149.777 143.438ZM154.557 140.659C154.697 140.559 154.816 140.386 154.816 140.169H154.137C154.137 140.149 154.143 140.133 154.148 140.123C154.153 140.114 154.158 140.11 154.162 140.107L154.557 140.659ZM154.816 140.17L154.903 109.591L154.225 109.589L154.137 140.168L154.816 140.17ZM154.236 109.518C154.236 109.507 154.238 109.497 154.24 109.488L154.888 109.692C154.905 109.637 154.914 109.579 154.914 109.518H154.236ZM140.139 85.0843C144.022 87.326 147.558 91.1896 150.119 95.6295C152.681 100.07 154.25 105.054 154.236 109.517L154.914 109.519C154.929 104.907 153.312 99.8061 150.707 95.2904C148.102 90.7746 144.489 86.812 140.478 84.4966L140.139 85.0843ZM140.165 85.0914C140.148 85.0884 140.136 85.0826 140.129 85.0782L140.488 84.5027C140.426 84.4635 140.355 84.4352 140.279 84.4223L140.165 85.0914ZM130.114 84.0977C132.684 82.6014 136.293 82.8981 140.053 85.0513L140.391 84.4624C136.513 82.2426 132.631 81.8469 129.772 83.5112L130.114 84.0977ZM125.361 86.8594L130.114 84.0978L129.773 83.5111L125.02 86.2727L125.361 86.8594ZM125.396 86.7269C125.423 86.7728 125.405 86.8337 125.362 86.8591L125.02 86.273C124.742 86.4351 124.647 86.7887 124.81 87.0688L125.396 86.7269ZM125.264 86.6926C125.31 86.6659 125.371 86.6833 125.396 86.7269L124.81 87.0688C124.972 87.3467 125.326 87.4421 125.606 87.2787L125.264 86.6926ZM135.47 87.6871C131.726 85.5278 127.997 85.1143 125.265 86.6919L125.604 87.2795C128.044 85.871 131.498 86.1796 135.131 88.2749L135.47 87.6871Z" fill="white"/>
  <path d="M135.418 87.7674C143.254 92.2953 149.587 103.264 149.568 112.28L149.48 142.941L105.577 117.589L122.771 89.3288C125.211 85.2986 130.1 84.6936 135.418 87.7674Z" fill="#09090B"/>
  <path d="M149.48 143.175C149.48 143.175 149.392 143.165 149.363 143.145L105.46 117.793C105.401 117.764 105.362 117.705 105.343 117.647C105.323 117.579 105.343 117.52 105.372 117.462L122.566 89.2014C125.094 85.0248 130.07 84.4003 135.545 87.562C143.439 92.1191 149.841 103.214 149.812 112.29L149.724 142.95C149.724 143.038 149.675 143.116 149.597 143.165C149.558 143.185 149.519 143.194 149.48 143.194V143.175ZM105.919 117.501L149.246 142.511L149.333 112.28C149.363 103.361 143.069 92.4607 135.311 87.9816C130.09 84.9663 125.367 85.5322 122.996 89.4551L105.928 117.51L105.919 117.501Z" fill="#09090B"/>
  <path fill-rule="evenodd" clip-rule="evenodd" d="M114.183 35.4354C114.171 35.4319 114.161 35.4279 114.155 35.4234C112.262 34.3304 110.505 34.1548 109.188 34.9159C109.071 34.9842 108.924 34.9452 108.856 34.8281C108.788 34.711 108.827 34.5646 108.944 34.4963L112.749 32.2909C114.207 31.4416 116.123 31.6137 118.147 32.7601C118.164 32.7648 118.18 32.7711 118.196 32.7791C118.366 32.8738 118.537 32.9778 118.707 33.0909C118.715 33.094 118.723 33.0974 118.73 33.101L174.372 69.6558C174.44 69.7046 174.489 69.7826 174.479 69.8705C174.469 69.9583 174.43 70.0364 174.362 70.0754L170.556 72.2808C170.556 72.2808 170.478 72.31 170.429 72.31L170.439 72.3296C170.439 72.3296 170.342 72.3198 170.303 72.2905L114.686 35.7425C114.673 35.7379 114.662 35.7324 114.654 35.7261C114.5 35.6266 114.338 35.5271 114.183 35.4354Z" fill="#09090B"/>
  <path d="M114.155 35.4234L114.343 35.1411L114.334 35.135L114.324 35.1295L114.155 35.4234ZM114.183 35.4354L114.355 35.1434L114.321 35.123L114.283 35.1112L114.183 35.4354ZM109.188 34.9159L109.018 34.6222L109.017 34.6229L109.188 34.9159ZM108.856 34.8281L108.563 34.9991L108.563 34.9991L108.856 34.8281ZM108.944 34.4963L108.774 34.2028L108.773 34.2033L108.944 34.4963ZM112.749 32.2909L112.92 32.5845L112.92 32.5841L112.749 32.2909ZM118.147 32.7601L117.98 33.0553L118.015 33.0753L118.054 33.0864L118.147 32.7601ZM118.196 32.7791L118.361 32.4825L118.354 32.4789L118.348 32.4756L118.196 32.7791ZM118.707 33.0909L118.52 33.3736L118.548 33.3922L118.579 33.4049L118.707 33.0909ZM118.73 33.101L118.916 32.8175L118.899 32.8065L118.882 32.7976L118.73 33.101ZM174.372 69.6558L174.569 69.3795L174.558 69.3722L174.372 69.6558ZM174.362 70.0754L174.194 69.7808L174.192 69.7818L174.362 70.0754ZM170.556 72.2808L170.675 72.5984L170.702 72.5885L170.726 72.5743L170.556 72.2808ZM170.429 72.31V71.9708H169.881L170.126 72.4617L170.429 72.31ZM170.439 72.3296L170.405 72.6672L171.018 72.7284L170.743 72.1779L170.439 72.3296ZM170.303 72.2905L170.506 72.0191L170.498 72.0128L170.489 72.007L170.303 72.2905ZM114.686 35.7425L114.872 35.4589L114.84 35.4379L114.804 35.4246L114.686 35.7425ZM114.654 35.7261L114.857 35.4547L114.848 35.4476L114.838 35.4413L114.654 35.7261ZM113.966 35.7057C114.015 35.7379 114.062 35.7533 114.083 35.7596L114.283 35.1112C114.285 35.1118 114.291 35.1137 114.299 35.1172C114.306 35.1203 114.323 35.1277 114.343 35.1411L113.966 35.7057ZM109.357 35.2097C110.528 34.5333 112.147 34.6561 113.985 35.7172L114.324 35.1295C112.376 34.0048 110.482 33.7762 109.018 34.6222L109.357 35.2097ZM108.563 34.9991C108.725 35.2769 109.079 35.3724 109.359 35.209L109.017 34.6229C109.063 34.5961 109.123 34.6135 109.149 34.6572L108.563 34.9991ZM108.773 34.2033C108.495 34.3653 108.399 34.719 108.563 34.9991L109.149 34.6572C109.176 34.703 109.158 34.7639 109.115 34.7894L108.773 34.2033ZM112.579 31.9974L108.774 34.2028L109.114 34.7899L112.92 32.5845L112.579 31.9974ZM118.314 32.4649C116.231 31.285 114.179 31.0651 112.579 31.9978L112.92 32.5841C114.235 31.818 116.014 31.9424 117.98 33.0553L118.314 32.4649ZM118.348 32.4756C118.313 32.4584 118.277 32.4443 118.24 32.4338L118.054 33.0864C118.05 33.0853 118.047 33.0839 118.044 33.0825L118.348 32.4756ZM118.895 32.8082C118.717 32.6904 118.539 32.5818 118.361 32.4825L118.031 33.0757C118.193 33.1659 118.356 33.2652 118.52 33.3736L118.895 32.8082ZM118.579 33.4049L118.578 33.4045L118.882 32.7976C118.867 32.7902 118.852 32.7833 118.836 32.7769L118.579 33.4049ZM118.544 33.3846L174.186 69.9393L174.558 69.3722L118.916 32.8175L118.544 33.3846ZM174.175 69.9319C174.172 69.9296 174.163 69.9231 174.155 69.9081C174.146 69.8914 174.138 69.8646 174.142 69.833L174.816 69.9079C174.844 69.6637 174.706 69.4773 174.569 69.3797L174.175 69.9319ZM174.142 69.833C174.141 69.8398 174.14 69.837 174.146 69.8273C174.151 69.8167 174.166 69.7967 174.194 69.7808L174.53 70.37C174.724 70.2592 174.799 70.0618 174.816 69.9079L174.142 69.833ZM174.192 69.7818L170.386 71.9872L170.726 72.5743L174.532 70.3689L174.192 69.7818ZM170.556 72.2808C170.437 71.9631 170.437 71.9631 170.437 71.9631C170.437 71.9631 170.437 71.9631 170.437 71.963C170.437 71.963 170.437 71.963 170.437 71.963C170.438 71.963 170.438 71.9629 170.438 71.9629C170.438 71.9629 170.438 71.9628 170.438 71.9628C170.438 71.9627 170.438 71.9627 170.438 71.9626C170.439 71.9626 170.439 71.9626 170.438 71.9627C170.438 71.9629 170.436 71.9634 170.434 71.9641C170.43 71.9655 170.424 71.9674 170.418 71.9692C170.411 71.9711 170.407 71.9721 170.405 71.9724C170.402 71.9731 170.411 71.9708 170.429 71.9708V72.6493C170.505 72.6493 170.576 72.6299 170.604 72.6216C170.624 72.6161 170.641 72.6107 170.652 72.6066C170.659 72.6045 170.664 72.6027 170.668 72.6014C170.669 72.6007 170.671 72.6001 170.672 72.5996C170.673 72.5993 170.674 72.5991 170.674 72.5989C170.674 72.5988 170.675 72.5987 170.675 72.5987C170.675 72.5986 170.675 72.5986 170.675 72.5986C170.675 72.5985 170.675 72.5985 170.675 72.5985C170.675 72.5985 170.675 72.5985 170.675 72.5985C170.675 72.5985 170.675 72.5984 170.556 72.2808ZM170.126 72.4617L170.136 72.4812L170.743 72.1779L170.733 72.1584L170.126 72.4617ZM170.439 72.3296C170.473 71.992 170.473 71.992 170.473 71.992C170.473 71.992 170.473 71.992 170.473 71.992C170.473 71.992 170.473 71.992 170.473 71.992C170.473 71.992 170.474 71.992 170.474 71.992C170.474 71.992 170.474 71.9921 170.474 71.9921C170.474 71.9921 170.475 71.9921 170.475 71.9921C170.475 71.9922 170.475 71.9922 170.475 71.9921C170.474 71.9921 170.473 71.9919 170.471 71.9916C170.466 71.991 170.46 71.99 170.455 71.9889C170.448 71.9876 170.447 71.987 170.451 71.9881C170.453 71.9888 170.458 71.9908 170.466 71.9946C170.474 71.9983 170.489 72.0059 170.506 72.0191L170.099 72.5619C170.186 72.6269 170.29 72.6476 170.316 72.6532C170.34 72.6581 170.361 72.6615 170.376 72.6636C170.384 72.6646 170.39 72.6654 170.395 72.666C170.398 72.6663 170.4 72.6666 170.402 72.6667C170.402 72.6668 170.403 72.6669 170.404 72.667C170.404 72.667 170.404 72.6671 170.405 72.6671C170.405 72.6671 170.405 72.6671 170.405 72.6671C170.405 72.6671 170.405 72.6671 170.405 72.6671C170.405 72.6671 170.405 72.6671 170.405 72.6672C170.405 72.6672 170.405 72.6672 170.439 72.3296ZM170.489 72.007L114.872 35.4589L114.499 36.026L170.116 72.5741L170.489 72.007ZM114.45 35.9975C114.495 36.0313 114.54 36.0503 114.567 36.0604L114.804 35.4246C114.807 35.4256 114.813 35.428 114.821 35.432C114.829 35.4359 114.842 35.4431 114.857 35.4547L114.45 35.9975ZM114.01 35.7274C114.162 35.8173 114.32 35.9144 114.469 36.0109L114.838 35.4413C114.68 35.3388 114.514 35.237 114.355 35.1434L114.01 35.7274Z" fill="white"/>
  <path d="M176.442 77.9412L172.636 80.1466C173.261 79.7856 173.651 79.0049 173.651 77.9217C173.651 75.8237 172.246 73.2768 170.431 72.0765L174.236 69.8711C176.051 71.0714 177.457 73.6183 177.457 75.7163C177.457 76.8093 177.066 77.5802 176.442 77.9412Z" fill="#09090B"/>
  <path d="M172.646 80.4C172.558 80.4 172.48 80.361 172.431 80.2829C172.363 80.1658 172.402 80.0194 172.519 79.9511C173.095 79.6194 173.407 78.8972 173.407 77.9312C173.407 75.9209 172.05 73.4423 170.294 72.2908C170.226 72.242 170.187 72.164 170.187 72.0762C170.187 71.9883 170.235 71.9103 170.304 71.8712L174.109 69.6658C174.187 69.6171 174.285 69.6268 174.363 69.6658C176.266 70.9247 177.7 73.5204 177.691 75.716C177.691 76.8675 177.281 77.736 176.559 78.1556L172.763 80.361C172.724 80.3805 172.685 80.3903 172.636 80.3903L172.646 80.4ZM170.889 72.1054C172.636 73.4228 173.904 75.8624 173.904 77.9312C173.904 78.4386 173.826 78.8972 173.67 79.2876L176.325 77.7458C176.9 77.414 177.213 76.6919 177.213 75.7258C177.213 73.7644 175.915 71.354 174.226 70.1733L170.889 72.1152V72.1054Z" fill="#09090B"/>
  <path d="M114.272 35.1405C114.438 35.2381 114.613 35.3454 114.789 35.4625L170.431 72.0173C172.246 73.2175 173.651 75.7645 173.651 77.8625C173.651 79.9606 172.227 80.8876 170.412 79.9801L114.74 52.2664C114.565 52.1786 114.399 52.0907 114.223 51.9932C110.203 49.6707 106.904 44.0206 106.914 39.3268C106.924 34.6428 110.251 32.818 114.272 35.1405Z" fill="#09090B"/>
  <path d="M171.74 80.5651C171.291 80.5651 170.813 80.4382 170.305 80.1943L114.634 52.4904C114.458 52.4025 114.282 52.3049 114.107 52.2074C109.999 49.8361 106.661 44.0591 106.681 39.3361C106.681 37.0039 107.491 35.2571 108.954 34.4179C110.428 33.5689 112.36 33.7543 114.4 34.9351C114.575 35.0327 114.751 35.14 114.927 35.2571L170.569 71.8119C172.471 73.0707 173.906 75.6664 173.896 77.862C173.896 78.9842 173.506 79.843 172.803 80.2821C172.491 80.4773 172.13 80.5749 171.73 80.5749L171.74 80.5651ZM110.994 34.3789C110.33 34.3789 109.725 34.535 109.198 34.8375C107.901 35.5889 107.178 37.1795 107.169 39.3264C107.159 43.903 110.379 49.4848 114.351 51.778C114.517 51.8756 114.683 51.9634 114.848 52.0512L170.52 79.7552C171.3 80.1455 172.023 80.1845 172.55 79.8625C173.106 79.521 173.408 78.8086 173.408 77.862C173.408 75.8518 172.052 73.3732 170.295 72.2217L142.479 53.9395L114.663 35.6572C114.497 35.5499 114.322 35.4425 114.156 35.345C113.033 34.7009 111.96 34.3691 110.994 34.3691V34.3789Z" fill="white"/>
  <path fill-rule="evenodd" clip-rule="evenodd" d="M118.225 50.851C118.223 50.8673 118.223 50.8837 118.225 50.8997L118.187 64.7822C118.18 64.8051 118.176 64.8293 118.176 64.8542C118.166 67.1571 117.405 68.8746 116.009 69.6845C115.892 69.7529 115.853 69.8992 115.921 70.0163C115.968 70.0909 116.041 70.1299 116.124 70.1332L116.117 70.1334H116.136L116.124 70.1332C116.173 70.1304 116.243 70.1042 116.243 70.1042L120.049 67.8988C121.578 67.0084 122.445 65.168 122.459 62.7106C122.467 62.6877 122.47 62.6636 122.47 62.6387L122.509 48.7018C122.515 48.6807 122.519 48.6586 122.519 48.6358C122.528 43.6025 118.997 37.4564 114.622 34.8993C114.608 34.8863 114.593 34.8752 114.575 34.8665C112.38 33.5979 110.301 33.4027 108.73 34.32L104.924 36.5254C104.807 36.5937 104.768 36.7401 104.836 36.8572C104.905 36.9743 105.051 37.0133 105.168 36.945C106.578 36.1281 108.463 36.3289 110.495 37.4894C110.502 37.4939 110.509 37.4979 110.516 37.5016C114.78 39.9607 118.235 45.9523 118.225 50.851Z" fill="#09090B"/>
  <path d="M118.225 50.8997L118.565 50.9007L118.565 50.8786L118.562 50.8566L118.225 50.8997ZM118.225 50.851L118.562 50.8884L118.564 50.8701L118.564 50.8517L118.225 50.851ZM118.187 64.7822L118.51 64.8838L118.526 64.8347L118.526 64.7832L118.187 64.7822ZM118.176 64.8542L118.515 64.8556V64.8542H118.176ZM116.009 69.6845L115.839 69.3911L115.838 69.3915L116.009 69.6845ZM115.921 70.0163L115.628 70.1874L115.634 70.1961L115.921 70.0163ZM116.117 70.1334L116.107 69.7943L116.117 70.4727V70.1334ZM116.136 70.1334V70.4727L116.143 69.7942L116.136 70.1334ZM116.243 70.1042L116.363 70.4218L116.389 70.4119L116.414 70.3977L116.243 70.1042ZM120.049 67.8988L120.219 68.1923L120.22 68.192L120.049 67.8988ZM122.459 62.7106L122.136 62.609L122.12 62.6577L122.12 62.7086L122.459 62.7106ZM122.47 62.6387L122.131 62.6377V62.6387H122.47ZM122.509 48.7018L122.183 48.6084L122.17 48.6537L122.17 48.7009L122.509 48.7018ZM122.519 48.6358L122.179 48.6352V48.6358H122.519ZM114.622 34.8993L114.386 35.1439L114.415 35.1718L114.45 35.1922L114.622 34.8993ZM114.575 34.8665L114.405 35.1603L114.414 35.1654L114.423 35.17L114.575 34.8665ZM108.73 34.32L108.9 34.6136L108.901 34.613L108.73 34.32ZM104.924 36.5254L104.754 36.2319L104.753 36.2324L104.924 36.5254ZM104.836 36.8572L104.543 37.0282L104.543 37.0282L104.836 36.8572ZM105.168 36.945L104.998 36.6514L104.997 36.652L105.168 36.945ZM110.495 37.4894L110.685 37.2081L110.674 37.201L110.663 37.1948L110.495 37.4894ZM110.516 37.5016L110.685 37.2077L110.677 37.2026L110.668 37.1981L110.516 37.5016ZM118.562 50.8566C118.563 50.8665 118.563 50.8772 118.562 50.8884L117.888 50.8135C117.883 50.8575 117.883 50.9009 117.889 50.9428L118.562 50.8566ZM118.526 64.7832L118.565 50.9007L117.886 50.8988L117.847 64.7813L118.526 64.7832ZM117.863 64.6807C117.846 64.735 117.836 64.7933 117.836 64.8542H118.515C118.515 64.8652 118.513 64.8752 118.51 64.8838L117.863 64.6807ZM117.836 64.8527C117.827 67.0944 117.088 68.6664 115.839 69.3911L116.18 69.978C117.722 69.0829 118.505 67.2199 118.515 64.8556L117.836 64.8527ZM115.838 69.3915C115.56 69.5536 115.465 69.9072 115.628 70.1873L116.214 69.8454C116.241 69.8912 116.224 69.9521 116.18 69.9776L115.838 69.3915ZM115.634 70.1961C115.743 70.3713 115.922 70.4647 116.111 70.4722L116.138 69.7942C116.146 69.7945 116.16 69.7969 116.176 69.8059C116.192 69.8152 116.203 69.8273 116.209 69.8365L115.634 70.1961ZM116.114 69.7941L116.107 69.7943L116.127 70.4726L116.134 70.4723L116.114 69.7941ZM116.117 70.4727H116.136V69.7941H116.117V70.4727ZM116.143 69.7942L116.131 69.794L116.118 70.4724L116.129 70.4726L116.143 69.7942ZM116.143 70.4719C116.208 70.4683 116.269 70.4517 116.298 70.4433C116.315 70.4381 116.33 70.4331 116.341 70.4293C116.347 70.4275 116.352 70.4258 116.355 70.4245C116.357 70.4239 116.359 70.4233 116.36 70.4229C116.36 70.4227 116.361 70.4225 116.361 70.4223C116.362 70.4222 116.362 70.4221 116.362 70.422C116.362 70.422 116.362 70.422 116.362 70.4219C116.362 70.4219 116.362 70.4219 116.362 70.4219C116.362 70.4219 116.362 70.4219 116.362 70.4219C116.363 70.4218 116.363 70.4218 116.243 70.1042C116.124 69.7865 116.124 69.7865 116.124 69.7864C116.124 69.7864 116.124 69.7864 116.124 69.7864C116.124 69.7864 116.125 69.7864 116.125 69.7864C116.125 69.7864 116.125 69.7863 116.125 69.7863C116.125 69.7863 116.125 69.7862 116.125 69.7862C116.125 69.7861 116.125 69.786 116.126 69.786C116.126 69.7859 116.126 69.786 116.125 69.786C116.125 69.7862 116.124 69.7867 116.122 69.7873C116.118 69.7885 116.113 69.7903 116.107 69.792C116.088 69.7974 116.089 69.7953 116.105 69.7944L116.143 70.4719ZM116.414 70.3977L120.219 68.1923L119.879 67.6052L116.073 69.8106L116.414 70.3977ZM120.22 68.192C121.889 67.2199 122.784 65.2405 122.799 62.7126L122.12 62.7086C122.106 65.0955 121.267 66.797 119.878 67.6056L120.22 68.192ZM122.131 62.6387C122.131 62.6277 122.133 62.6176 122.136 62.609L122.783 62.8122C122.8 62.7579 122.81 62.6995 122.81 62.6387H122.131ZM122.17 48.7009L122.131 62.6377L122.81 62.6396L122.849 48.7028L122.17 48.7009ZM122.179 48.6358C122.179 48.6258 122.181 48.6165 122.183 48.6084L122.835 48.7953C122.85 48.745 122.858 48.6914 122.858 48.6358H122.179ZM114.45 35.1922C116.575 36.434 118.513 38.5606 119.92 41.008C121.327 43.4556 122.184 46.1922 122.179 48.6352L122.858 48.6365C122.863 46.0461 121.959 43.193 120.509 40.6699C119.058 38.1466 117.043 35.9217 114.793 34.6064L114.45 35.1922ZM114.423 35.17C114.409 35.1627 114.397 35.1536 114.386 35.1439L114.857 34.6547C114.82 34.619 114.776 34.5877 114.727 34.563L114.423 35.17ZM108.901 34.613C110.327 33.7803 112.269 33.9256 114.405 35.1603L114.745 34.5727C112.491 33.2702 110.275 33.0252 108.559 34.027L108.901 34.613ZM105.094 36.819L108.9 34.6136L108.56 34.0265L104.754 36.2319L105.094 36.819ZM105.129 36.6862C105.156 36.7321 105.139 36.793 105.095 36.8185L104.753 36.2324C104.475 36.3944 104.38 36.7481 104.543 37.0282L105.129 36.6862ZM104.997 36.652C105.043 36.6252 105.104 36.6426 105.129 36.6862L104.543 37.0282C104.705 37.306 105.059 37.4015 105.339 37.2381L104.997 36.652ZM110.663 37.1948C108.579 36.0042 106.556 35.7488 104.998 36.6515L105.338 37.2386C106.6 36.5074 108.348 36.6535 110.327 37.784L110.663 37.1948ZM110.668 37.1981C110.674 37.2011 110.679 37.2044 110.685 37.2081L110.305 37.7707C110.324 37.7833 110.344 37.7948 110.364 37.805L110.668 37.1981ZM118.564 50.8517C118.569 48.3283 117.684 45.5473 116.267 43.0918C114.85 40.6363 112.881 38.474 110.685 37.2077L110.346 37.7955C112.415 38.9882 114.306 41.0513 115.679 43.431C117.053 45.8108 117.89 48.475 117.886 50.8503L118.564 50.8517Z" fill="white"/>
  <path d="M110.632 37.2882C114.974 39.7961 118.478 45.856 118.458 50.8523L118.419 64.8555C118.409 69.842 114.877 71.8523 110.544 69.3444C106.202 66.8365 102.689 60.7668 102.708 55.7803L102.747 41.777C102.757 36.7905 106.299 34.7901 110.632 37.2882Z" fill="#09090B"/>
  <path d="M114.067 70.6705C112.944 70.6705 111.705 70.2997 110.417 69.5581C106.016 67.0209 102.444 60.8341 102.454 55.7793L102.493 41.7761C102.493 39.2877 103.362 37.4141 104.923 36.5261C106.494 35.6186 108.563 35.8235 110.749 37.0823C115.15 39.6195 118.712 45.7965 118.702 50.8513L118.663 64.8546C118.663 67.3527 117.794 69.2165 116.233 70.1143C115.589 70.4851 114.857 70.6705 114.067 70.6705ZM107.099 36.448C106.387 36.448 105.743 36.6139 105.167 36.9457C103.762 37.7556 102.991 39.4634 102.981 41.7761L102.942 55.7793C102.932 60.678 106.387 66.6696 110.661 69.1287C112.691 70.2997 114.584 70.4949 115.989 69.6849C117.394 68.875 118.165 67.1575 118.175 64.8448L118.214 50.8416C118.224 45.9429 114.769 39.9513 110.505 37.4922C109.295 36.7993 108.133 36.4383 107.099 36.4383V36.448Z" fill="white"/>
  <path fill-rule="evenodd" clip-rule="evenodd" d="M107.74 41.1516C106.852 40.651 106.033 40.5731 105.43 40.9177C105.313 40.986 105.166 40.947 105.098 40.8299C105.03 40.7128 105.069 40.5664 105.186 40.4981L107.499 39.1514C108.27 38.7025 109.284 38.7904 110.348 39.4051C110.365 39.4135 110.38 39.4241 110.393 39.4365C112.456 40.6653 114.125 43.563 114.115 45.9428C114.115 47.1529 113.686 48.0604 112.925 48.4995L110.612 49.8462C110.612 49.8462 110.534 49.8755 110.485 49.8755L110.495 49.8852C110.407 49.8852 110.329 49.8462 110.28 49.7681C110.212 49.651 110.251 49.5046 110.368 49.4363C110.973 49.085 111.315 48.3239 111.315 47.2992C111.315 45.0548 109.734 42.3127 107.782 41.1808C107.766 41.1729 107.752 41.163 107.74 41.1516Z" fill="#09090B"/>
  <path d="M107.908 40.9673C109.928 42.1383 111.568 44.9682 111.558 47.3004C111.558 49.6229 109.899 50.5695 107.879 49.3985C105.859 48.2275 104.22 45.3976 104.23 43.0653C104.23 40.7331 105.888 39.7963 107.908 40.9673Z" fill="white"/>
  <path d="M109.538 50.1406C108.991 50.1406 108.386 49.9649 107.772 49.6038C105.683 48.3938 103.985 45.4663 103.995 43.0658C103.995 41.8557 104.425 40.9384 105.195 40.4993C105.966 40.0504 106.981 40.148 108.045 40.7628C110.133 41.9728 111.831 44.9003 111.821 47.3009C111.821 48.5109 111.392 49.4282 110.621 49.8673C110.299 50.0527 109.938 50.1406 109.538 50.1406ZM106.269 40.7042C105.957 40.7042 105.683 40.7725 105.43 40.9189C104.815 41.2702 104.483 42.0314 104.473 43.0658C104.473 45.3102 106.054 48.0523 108.006 49.1842C108.913 49.7014 109.753 49.799 110.367 49.4379C110.982 49.0866 111.314 48.3255 111.324 47.2911C111.324 45.0467 109.743 42.3046 107.791 41.1726C107.245 40.8604 106.727 40.7042 106.269 40.7042Z" fill="#09090B"/>
  <path fill-rule="evenodd" clip-rule="evenodd" d="M108.501 55.865C108.495 55.8626 108.489 55.8601 108.485 55.8573C106.26 54.5692 104.182 54.3545 102.64 55.2523C102.523 55.3206 102.376 55.2816 102.308 55.1645C102.24 55.0474 102.279 54.901 102.396 54.8327L106.202 52.6273C107.884 51.6509 110.112 51.8525 112.468 53.1942C112.492 53.1993 112.514 53.2084 112.536 53.2222C114.498 54.3542 116.352 56.1595 117.894 58.4429C117.907 58.4623 117.916 58.4828 117.923 58.504L143.81 96.8706C143.825 96.8933 143.835 96.9174 143.842 96.9423C147.268 102.042 148.832 107.974 147.938 112.416C147.499 114.592 146.474 116.251 144.981 117.236C144.893 117.295 144.806 117.344 144.718 117.392L140.912 119.598C140.912 119.598 140.846 119.623 140.797 119.626C140.716 119.622 140.645 119.583 140.6 119.51C140.531 119.393 140.57 119.246 140.687 119.178L140.922 119.032C142.307 118.124 143.254 116.573 143.664 114.523C144.542 110.181 142.981 104.365 139.595 99.3589C139.586 99.3454 139.578 99.3314 139.572 99.3169L113.676 60.9209C113.671 60.9134 113.666 60.9057 113.662 60.8978C112.195 58.7281 110.363 56.9451 108.501 55.865ZM140.797 119.626C140.793 119.627 140.789 119.627 140.785 119.627H140.814C140.809 119.627 140.803 119.627 140.797 119.626Z" fill="#09090B"/>
  <path d="M108.485 55.8573L108.673 55.575L108.664 55.5691L108.655 55.5637L108.485 55.8573ZM108.501 55.865L108.671 55.5715L108.648 55.5584L108.624 55.549L108.501 55.865ZM102.64 55.2523L102.469 54.9591L102.469 54.9592L102.64 55.2523ZM102.396 54.8327L102.226 54.5391L102.225 54.5396L102.396 54.8327ZM106.202 52.6273L106.372 52.9208L106.372 52.9207L106.202 52.6273ZM112.468 53.1942L112.3 53.489L112.345 53.5145L112.395 53.5255L112.468 53.1942ZM112.536 53.2222L112.356 53.5101L112.367 53.516L112.536 53.2222ZM117.894 58.4429L118.176 58.2547L118.175 58.253L117.894 58.4429ZM117.923 58.504L117.6 58.6085L117.615 58.6541L117.642 58.6938L117.923 58.504ZM143.81 96.8706L144.092 96.6824L144.091 96.6809L143.81 96.8706ZM143.842 96.9423L143.515 97.0327L143.53 97.0858L143.561 97.1315L143.842 96.9423ZM147.938 112.416L148.271 112.483L148.271 112.483L147.938 112.416ZM144.981 117.236L144.794 116.953L144.793 116.954L144.981 117.236ZM144.718 117.392L144.553 117.096L144.548 117.099L144.718 117.392ZM140.912 119.598L141.031 119.915L141.058 119.905L141.082 119.891L140.912 119.598ZM140.6 119.51L140.306 119.681L140.312 119.69L140.6 119.51ZM140.687 119.178L140.859 119.471L140.867 119.466L140.687 119.178ZM140.922 119.032L141.102 119.319L141.108 119.316L140.922 119.032ZM143.664 114.523L143.331 114.456L143.331 114.457L143.664 114.523ZM139.595 99.3589L139.312 99.5471L139.314 99.549L139.595 99.3589ZM139.572 99.3169L139.885 99.1865L139.872 99.1553L139.853 99.1272L139.572 99.3169ZM113.676 60.9209L113.393 61.1091L113.394 61.1106L113.676 60.9209ZM113.662 60.8978L113.963 60.7414L113.954 60.724L113.943 60.7078L113.662 60.8978ZM108.297 56.1396C108.329 56.161 108.359 56.1739 108.377 56.181L108.624 55.549C108.628 55.5506 108.634 55.5532 108.642 55.5569C108.649 55.5606 108.66 55.5664 108.673 55.575L108.297 56.1396ZM102.811 55.5455C104.204 54.7339 106.144 54.8941 108.315 56.1509L108.655 55.5637C106.376 54.2443 104.159 53.9751 102.469 54.9591L102.811 55.5455ZM102.015 55.3354C102.177 55.6133 102.531 55.7087 102.811 55.5453L102.469 54.9592C102.515 54.9325 102.576 54.9499 102.601 54.9935L102.015 55.3354ZM102.225 54.5396C101.947 54.7017 101.852 55.0553 102.015 55.3354L102.601 54.9935C102.628 55.0394 102.61 55.1003 102.567 55.1257L102.225 54.5396ZM106.031 52.3337L102.226 54.5391L102.566 55.1262L106.372 52.9208L106.031 52.3337ZM112.636 52.8994C110.221 51.5242 107.857 51.2741 106.031 52.3339L106.372 52.9207C107.911 52.0276 110.003 52.1807 112.3 53.489L112.636 52.8994ZM112.716 52.9345C112.661 52.9002 112.602 52.8763 112.541 52.8629L112.395 53.5255C112.381 53.5223 112.367 53.5167 112.357 53.5099L112.716 52.9345ZM118.175 58.253C116.61 55.9359 114.721 54.091 112.706 52.9283L112.367 53.516C114.275 54.6174 116.093 56.383 117.613 58.6328L118.175 58.253ZM118.246 58.3996C118.23 58.3496 118.207 58.3008 118.176 58.2547L117.611 58.6311C117.607 58.6238 117.603 58.616 117.6 58.6085L118.246 58.3996ZM144.091 96.6809L118.204 58.3142L117.642 58.6938L143.528 97.0604L144.091 96.6809ZM144.169 96.8519C144.153 96.7937 144.128 96.7363 144.092 96.6824L143.527 97.0588C143.521 97.0502 143.518 97.0411 143.515 97.0327L144.169 96.8519ZM143.561 97.1315C146.954 102.183 148.476 108.023 147.605 112.349L148.271 112.483C149.188 107.925 147.582 101.901 144.124 96.7532L143.561 97.1315ZM147.605 112.348C147.18 114.457 146.196 116.028 144.794 116.953L145.168 117.519C146.753 116.473 147.818 114.726 148.271 112.483L147.605 112.348ZM144.793 116.954C144.718 117.004 144.642 117.046 144.553 117.096L144.882 117.689C144.969 117.641 145.068 117.586 145.169 117.518L144.793 116.954ZM144.548 117.099L140.742 119.304L141.082 119.891L144.888 117.686L144.548 117.099ZM140.912 119.598C140.793 119.28 140.793 119.28 140.793 119.28C140.793 119.28 140.793 119.28 140.793 119.28C140.793 119.28 140.793 119.28 140.793 119.28C140.793 119.28 140.793 119.28 140.793 119.28C140.793 119.28 140.793 119.28 140.794 119.28C140.794 119.28 140.794 119.28 140.794 119.28C140.794 119.279 140.794 119.28 140.794 119.28C140.794 119.28 140.792 119.28 140.791 119.281C140.787 119.282 140.782 119.284 140.776 119.285C140.759 119.29 140.758 119.289 140.77 119.288L140.824 119.965C140.885 119.96 140.941 119.944 140.969 119.936C140.986 119.931 141 119.926 141.011 119.923C141.016 119.921 141.021 119.919 141.024 119.918C141.026 119.917 141.027 119.917 141.028 119.916C141.029 119.916 141.029 119.916 141.03 119.916C141.03 119.916 141.03 119.916 141.031 119.916C141.031 119.916 141.031 119.915 141.031 119.915C141.031 119.915 141.031 119.915 141.031 119.915C141.031 119.915 141.031 119.915 141.031 119.915C141.031 119.915 141.031 119.915 140.912 119.598ZM140.817 119.288C140.826 119.288 140.84 119.291 140.855 119.3C140.871 119.309 140.882 119.321 140.887 119.33L140.312 119.69C140.419 119.86 140.592 119.954 140.777 119.965L140.817 119.288ZM140.893 119.339C140.919 119.385 140.902 119.446 140.858 119.471L140.517 118.885C140.239 119.047 140.143 119.401 140.307 119.681L140.893 119.339ZM140.867 119.466L141.102 119.319L140.742 118.744L140.508 118.89L140.867 119.466ZM141.108 119.316C142.588 118.346 143.574 116.704 143.996 114.59L143.331 114.457C142.934 116.441 142.027 117.902 140.736 118.748L141.108 119.316ZM143.996 114.591C144.898 110.13 143.294 104.222 139.876 99.1688L139.314 99.549C142.668 104.508 144.186 110.232 143.331 114.456L143.996 114.591ZM139.877 99.1707C139.88 99.1756 139.883 99.181 139.885 99.1865L139.259 99.4473C139.273 99.4817 139.291 99.5151 139.312 99.5471L139.877 99.1707ZM113.394 61.1106L139.291 99.5066L139.853 99.1272L113.957 60.7312L113.394 61.1106ZM113.361 61.0543C113.371 61.073 113.382 61.0913 113.393 61.1091L113.958 60.7327C113.96 60.7355 113.962 60.7384 113.963 60.7414L113.361 61.0543ZM108.33 56.1585C110.14 57.2081 111.937 58.9518 113.381 61.0879L113.943 60.7078C112.453 58.5043 110.585 56.6821 108.671 55.5715L108.33 56.1585ZM140.77 119.288C140.773 119.288 140.779 119.288 140.785 119.288V119.966C140.799 119.966 140.812 119.966 140.824 119.965L140.77 119.288ZM140.785 119.966H140.814V119.288H140.785V119.966ZM140.814 119.288C140.815 119.288 140.816 119.288 140.817 119.288L140.777 119.965C140.789 119.966 140.802 119.966 140.814 119.966V119.288Z" fill="white"/>
  <path d="M108.601 55.6436C110.455 56.717 112.319 58.4833 113.87 60.7862L139.798 99.2146C145.048 106.992 145.624 116.233 141.057 119.229C138.793 120.712 135.739 120.341 132.694 118.585C129.581 116.789 126.478 113.55 124.224 109.353L102.189 68.4075C99.2229 62.894 99.2814 57.1464 102.326 55.1654C104.014 54.0627 106.298 54.3262 108.601 55.6534V55.6436Z" fill="#09090B"/>
  <path d="M137.818 120.4C136.208 120.4 134.432 119.864 132.578 118.79C129.309 116.907 126.196 113.511 124.02 109.471L101.976 68.5152C98.9215 62.8456 99.0191 57.0199 102.191 54.9511C103.889 53.8387 106.27 54.0143 108.719 55.4293C110.68 56.5612 112.534 58.3665 114.076 60.65L140.004 99.0783C143.459 104.201 145.039 110.154 144.142 114.614C143.703 116.79 142.678 118.449 141.185 119.424C140.199 120.069 139.058 120.391 137.809 120.391L137.818 120.4ZM104.747 54.7169C103.889 54.7169 103.118 54.9316 102.454 55.361C99.5461 57.2541 99.5168 62.9334 102.405 68.2908L124.44 109.247C126.567 113.208 129.621 116.536 132.812 118.38C135.935 120.176 138.814 120.41 140.921 119.034C142.307 118.127 143.254 116.575 143.664 114.526C144.542 110.183 142.98 104.367 139.594 99.3613L113.676 60.9232C112.203 58.7373 110.358 56.9418 108.485 55.8586C107.177 55.1072 105.899 54.7169 104.757 54.7169H104.747Z" fill="white"/>
  <path fill-rule="evenodd" clip-rule="evenodd" d="M105.22 59.7124C104.342 59.2221 103.505 59.1446 102.912 59.4889C102.795 59.5572 102.649 59.5182 102.58 59.4011C102.512 59.284 102.551 59.1376 102.668 59.0693L104.981 57.7227C105.727 57.2825 106.737 57.3678 107.769 57.9418C107.787 57.9478 107.804 57.956 107.821 57.9664C109.909 59.1765 111.607 62.104 111.597 64.5045C111.597 65.7145 111.168 66.6221 110.407 67.0612L108.094 68.4078C108.094 68.4078 108.016 68.4371 107.967 68.4371L107.977 68.4469C107.889 68.4469 107.811 68.4078 107.762 68.3298C107.694 68.2127 107.733 68.0663 107.85 67.998C108.455 67.6467 108.796 66.8855 108.796 65.8609C108.796 63.6165 107.216 60.8744 105.264 59.7424C105.248 59.7344 105.233 59.7242 105.22 59.7124Z" fill="#09090B"/>
  <path d="M105.392 59.5274C107.412 60.6984 109.051 63.5284 109.041 65.8606C109.041 68.1831 107.383 69.1296 105.363 67.9586C103.343 66.7876 101.703 63.9577 101.713 61.6255C101.713 59.2932 103.372 58.3662 105.392 59.5274Z" fill="white"/>
  <path d="M105.392 59.5274C107.412 60.6984 109.051 63.5284 109.041 65.8606C109.041 68.1831 107.383 69.1296 105.363 67.9586C103.343 66.7876 101.703 63.9577 101.713 61.6255C101.713 59.2932 103.372 58.3662 105.392 59.5274Z" fill="white"/>
  <path d="M107.012 68.7008C106.465 68.7008 105.86 68.5252 105.245 68.1641C103.157 66.9541 101.459 64.0266 101.469 61.6261C101.469 60.416 101.898 59.4987 102.669 59.0596C103.44 58.6205 104.455 58.7083 105.519 59.3231C107.607 60.5331 109.305 63.4606 109.295 65.8612C109.295 67.0712 108.866 67.9885 108.095 68.4276C107.773 68.613 107.412 68.7008 107.012 68.7008ZM103.742 59.2645C103.44 59.2645 103.157 59.3328 102.903 59.4792C102.288 59.8305 101.957 60.5917 101.947 61.6261C101.947 63.8705 103.528 66.6126 105.479 67.7445C106.387 68.2617 107.226 68.3593 107.841 67.9983C108.456 67.647 108.788 66.8858 108.797 65.8514C108.797 63.607 107.216 60.8649 105.265 59.7329C104.718 59.4207 104.201 59.2645 103.742 59.2645Z" fill="#09090B"/>
  <path d="M107.012 68.7008C106.465 68.7008 105.86 68.5252 105.245 68.1641C103.157 66.9541 101.459 64.0266 101.469 61.6261C101.469 60.416 101.898 59.4987 102.669 59.0596C103.44 58.6205 104.455 58.7083 105.519 59.3231C107.607 60.5331 109.305 63.4606 109.295 65.8612C109.295 67.0712 108.866 67.9885 108.095 68.4276C107.773 68.613 107.412 68.7008 107.012 68.7008ZM103.742 59.2645C103.44 59.2645 103.157 59.3328 102.903 59.4792C102.288 59.8305 101.957 60.5917 101.947 61.6261C101.947 63.8705 103.528 66.6126 105.479 67.7445C106.387 68.2617 107.226 68.3593 107.841 67.9983C108.456 67.647 108.788 66.8858 108.797 65.8514C108.797 63.607 107.216 60.8649 105.265 59.7329C104.718 59.4207 104.201 59.2645 103.742 59.2645Z" fill="#09090B"/>
  <path d="M125.983 93.2128C133.819 97.7406 140.161 108.719 140.142 117.726L140.054 148.386L96.1416 123.034L113.336 94.7741C115.785 90.7439 120.664 90.1389 125.983 93.2128Z" fill="#09090B"/>
  <path d="M140.042 148.631C140.042 148.631 139.954 148.621 139.925 148.601L96.0127 123.249C95.9541 123.22 95.9151 123.161 95.8956 123.103C95.876 123.035 95.8956 122.976 95.9248 122.917L113.119 94.6573C115.656 90.4905 120.633 89.8562 126.098 93.0179C133.992 97.5751 140.403 108.67 140.374 117.746L140.286 148.406C140.286 148.494 140.237 148.572 140.159 148.621C140.12 148.64 140.081 148.65 140.042 148.65V148.631ZM96.4713 122.947L139.798 147.967L139.886 117.736C139.915 108.817 133.612 97.9166 125.854 93.4278C120.643 90.4222 115.92 90.9882 113.539 94.9013L96.4713 122.957V122.947Z" fill="white"/>
  <mask id="path-30-inside-1_122_3229" fill="white">
    <path fill-rule="evenodd" clip-rule="evenodd" d="M172.041 69.621C172.053 69.6092 172.066 69.5984 172.079 69.5887C173.358 68.8568 174.568 68.7397 175.495 69.2764L181.194 72.5942C181.311 72.6626 181.35 72.8089 181.282 72.926C181.213 73.0431 181.067 73.0822 180.95 73.0139C180.196 72.5748 179.19 72.6772 178.096 73.2844C178.078 73.3078 178.057 73.3284 178.033 73.3455C175.642 74.7214 173.71 78.0783 173.72 80.8204C173.72 82.089 174.139 83.0258 174.9 83.4649C175.018 83.5332 175.057 83.6796 174.988 83.7967C174.94 83.8748 174.861 83.9138 174.774 83.9138L174.783 83.904C174.783 83.904 174.696 83.8943 174.657 83.8748L168.948 80.5569C168.031 80.03 167.533 78.937 167.523 77.4928C167.523 74.6096 169.542 71.0889 172.041 69.621Z"/>
  </mask>
  <path fill-rule="evenodd" clip-rule="evenodd" d="M172.041 69.621C172.053 69.6092 172.066 69.5984 172.079 69.5887C173.358 68.8568 174.568 68.7397 175.495 69.2764L181.194 72.5942C181.311 72.6626 181.35 72.8089 181.282 72.926C181.213 73.0431 181.067 73.0822 180.95 73.0139C180.196 72.5748 179.19 72.6772 178.096 73.2844C178.078 73.3078 178.057 73.3284 178.033 73.3455C175.642 74.7214 173.71 78.0783 173.72 80.8204C173.72 82.089 174.139 83.0258 174.9 83.4649C175.018 83.5332 175.057 83.6796 174.988 83.7967C174.94 83.8748 174.861 83.9138 174.774 83.9138L174.783 83.904C174.783 83.904 174.696 83.8943 174.657 83.8748L168.948 80.5569C168.031 80.03 167.533 78.937 167.523 77.4928C167.523 74.6096 169.542 71.0889 172.041 69.621Z" fill="#09090B"/>
  <path d="M172.041 69.621L172.502 70.4048L172.603 70.3455L172.685 70.2624L172.041 69.621ZM172.079 69.5887L171.628 68.7999L171.588 68.8225L171.551 68.8491L172.079 69.5887ZM175.495 69.2764L175.952 68.4909L175.95 68.4898L175.495 69.2764ZM181.194 72.5942L181.652 71.8091L181.651 71.8087L181.194 72.5942ZM181.282 72.926L182.067 73.384L182.067 73.384L181.282 72.926ZM180.95 73.0139L181.408 72.2287L181.407 72.2284L180.95 73.0139ZM178.096 73.2844L177.655 72.4897L177.489 72.5819L177.374 72.7328L178.096 73.2844ZM178.033 73.3455L178.486 74.1333L178.525 74.111L178.561 74.0851L178.033 73.3455ZM173.72 80.8204H174.629L174.629 80.8172L173.72 80.8204ZM174.9 83.4649L175.358 82.6798L175.355 82.6776L174.9 83.4649ZM174.988 83.7967L175.759 84.2784L175.766 84.2667L175.773 84.2547L174.988 83.7967ZM174.774 83.9138L174.131 83.2709L172.579 84.8227H174.774V83.9138ZM174.783 83.904L175.426 84.5469L176.764 83.2096L174.884 83.0007L174.783 83.904ZM174.657 83.8748L174.2 84.6606L174.225 84.6749L174.25 84.6877L174.657 83.8748ZM168.948 80.5569L169.405 79.7711L169.401 79.7688L168.948 80.5569ZM167.523 77.4928H166.614L166.614 77.4989L167.523 77.4928ZM172.685 70.2624C172.661 70.2868 172.635 70.3088 172.608 70.3283L171.551 68.8491C171.497 68.8879 171.445 68.9316 171.397 68.9797L172.685 70.2624ZM172.531 70.3775C173.653 69.7352 174.498 69.7496 175.039 70.063L175.95 68.4898C174.638 67.7298 173.063 67.9784 171.628 68.7999L172.531 70.3775ZM175.038 70.0619L180.736 73.3797L181.651 71.8087L175.952 68.4909L175.038 70.0619ZM180.736 73.3794C180.422 73.1964 180.31 72.7875 180.496 72.4681L182.067 73.384C182.39 72.8304 182.199 72.1287 181.652 71.8091L180.736 73.3794ZM180.496 72.468C180.679 72.1545 181.088 72.0424 181.408 72.2287L180.492 73.799C181.045 74.1219 181.747 73.9317 182.067 73.384L180.496 72.468ZM181.407 72.2284C180.26 71.5605 178.887 71.8057 177.655 72.4897L178.537 74.079C179.493 73.5487 180.132 73.5892 180.492 73.7993L181.407 72.2284ZM177.374 72.7328C177.412 72.6821 177.457 72.6399 177.505 72.6059L178.561 74.0851C178.657 74.0169 178.744 73.9334 178.819 73.836L177.374 72.7328ZM177.58 72.5577C176.213 73.3445 175.028 74.6609 174.189 76.1166C173.349 77.5722 172.805 79.2538 172.811 80.8236L174.629 80.8172C174.624 79.6449 175.041 78.277 175.764 77.0246C176.486 75.7725 177.463 74.7225 178.486 74.1333L177.58 72.5577ZM172.811 80.8204C172.811 82.2562 173.29 83.585 174.446 84.2522L175.355 82.6776C174.989 82.4666 174.629 81.9217 174.629 80.8204H172.811ZM174.443 84.25C174.129 84.0671 174.017 83.6582 174.203 83.3387L175.773 84.2547C176.096 83.701 175.906 82.9993 175.358 82.6798L174.443 84.25ZM174.218 83.315C174.275 83.2234 174.36 83.1402 174.468 83.0825C174.574 83.0258 174.682 83.0049 174.774 83.0049V84.8227C175.152 84.8227 175.533 84.6409 175.759 84.2784L174.218 83.315ZM175.416 84.5566L175.426 84.5469L174.141 83.2612L174.131 83.2709L175.416 84.5566ZM174.783 83.904C174.884 83.0007 174.884 83.0007 174.884 83.0007C174.884 83.0007 174.884 83.0007 174.884 83.0007C174.884 83.0007 174.884 83.0007 174.884 83.0007C174.885 83.0008 174.885 83.0008 174.885 83.0008C174.885 83.0008 174.886 83.0009 174.886 83.0009C174.887 83.001 174.887 83.0011 174.888 83.0011C174.889 83.0013 174.89 83.0014 174.891 83.0015C174.892 83.0016 174.893 83.0017 174.893 83.0018C174.894 83.0019 174.895 83.002 174.897 83.0025C174.898 83.0027 174.909 83.0046 174.927 83.0093C174.936 83.0118 174.992 83.0262 175.063 83.0618L174.25 84.6877C174.399 84.7623 174.55 84.7869 174.572 84.791C174.601 84.7963 174.627 84.8001 174.645 84.8026C174.654 84.8039 174.662 84.8049 174.669 84.8057C174.672 84.8061 174.675 84.8064 174.677 84.8067C174.678 84.8068 174.679 84.807 174.68 84.8071C174.681 84.8071 174.681 84.8072 174.682 84.8072C174.682 84.8073 174.682 84.8073 174.682 84.8073C174.682 84.8073 174.683 84.8073 174.683 84.8074C174.683 84.8074 174.683 84.8074 174.683 84.8074C174.683 84.8074 174.683 84.8074 174.783 83.904ZM175.113 83.0889L169.405 79.7711L168.491 81.3428L174.2 84.6606L175.113 83.0889ZM169.401 79.7688C168.869 79.4634 168.441 78.7511 168.432 77.4867L166.614 77.4989C166.625 79.123 167.192 80.5966 168.495 81.345L169.401 79.7688ZM168.432 77.4928C168.432 76.2475 168.874 74.8017 169.633 73.4785C170.392 72.1556 171.42 71.04 172.502 70.4048L171.581 68.8373C170.163 69.67 168.932 71.0487 168.057 72.5738C167.182 74.0988 166.614 75.8548 166.614 77.4928H168.432Z" fill="white" mask="url(#path-30-inside-1_122_3229)"/>
  <path d="M177.916 73.1209C180.375 71.7059 182.375 72.8379 182.385 75.6678C182.385 78.488 180.404 81.9327 177.945 83.3574C175.486 84.7821 173.485 83.6306 173.476 80.8104C173.476 77.9805 175.447 74.5456 177.916 73.1209Z" fill="white"/>
  <path d="M175.955 84.2073C175.487 84.2073 175.057 84.1 174.667 83.8755C173.75 83.3486 173.242 82.2557 173.242 80.8017C173.242 77.9034 175.282 74.3612 177.799 72.9072C179.068 72.1753 180.278 72.0582 181.205 72.5949C182.122 73.1219 182.63 74.2148 182.63 75.6688C182.63 78.567 180.59 82.1093 178.073 83.5633C177.331 83.9926 176.609 84.2073 175.955 84.2073ZM178.043 73.3268C175.652 74.7027 173.72 78.0596 173.73 80.8017C173.73 82.0703 174.159 83.0168 174.911 83.4462C175.672 83.8853 176.716 83.778 177.829 83.1339C180.219 81.758 182.152 78.4011 182.142 75.659C182.142 74.3904 181.722 73.4439 180.961 73.0145C180.2 72.5754 179.156 72.6827 178.043 73.3268Z" fill="white"/>
  <path d="M184.191 96.7949L184.171 104.68C184.171 104.826 184.074 104.972 183.879 105.09C183.488 105.314 182.844 105.324 182.444 105.09C182.249 104.972 182.142 104.826 182.142 104.67L182.161 96.7852C182.161 96.9413 182.259 97.0877 182.464 97.2048C182.864 97.4292 183.508 97.4292 183.898 97.2048C184.093 97.0877 184.191 96.9413 184.191 96.7949Z" fill="#09090B"/>
  <path d="M183.147 105.509C182.844 105.509 182.551 105.441 182.317 105.304C182.054 105.148 181.897 104.923 181.897 104.67L181.917 96.785C181.917 96.6484 182.024 96.541 182.161 96.541C182.298 96.541 182.405 96.6484 182.405 96.785C182.405 96.8533 182.473 96.9313 182.581 96.9899C182.893 97.1753 183.449 97.1753 183.771 96.9899C183.878 96.9313 183.947 96.8533 183.947 96.7947C183.947 96.6581 184.054 96.5508 184.191 96.5508C184.327 96.5508 184.435 96.6581 184.435 96.7947L184.415 104.679C184.415 104.923 184.259 105.148 183.995 105.304C183.761 105.441 183.449 105.509 183.147 105.509ZM182.405 97.4583L182.385 104.679C182.385 104.748 182.454 104.826 182.561 104.884C182.873 105.07 183.43 105.07 183.752 104.884C183.859 104.826 183.927 104.748 183.927 104.689L183.947 97.4681C183.498 97.6925 182.854 97.6925 182.405 97.4681V97.4583Z" fill="white"/>
  <path d="M183.887 96.3754C184.287 96.5998 184.287 96.9706 183.887 97.2048C183.497 97.4293 182.853 97.439 182.452 97.2048C182.052 96.9804 182.052 96.5998 182.452 96.3656C182.843 96.1412 183.487 96.1412 183.887 96.3656V96.3754Z" fill="white"/>
  <path d="M183.175 97.6238C182.872 97.6238 182.58 97.5554 182.345 97.4188C182.082 97.2627 181.926 97.0383 181.926 96.7845C181.926 96.5406 182.072 96.3064 182.345 96.16C182.814 95.8868 183.546 95.8868 184.024 96.16C184.287 96.3161 184.443 96.5406 184.443 96.7845C184.443 97.0285 184.297 97.2529 184.024 97.4091C183.79 97.5457 183.477 97.614 183.175 97.614V97.6238ZM183.175 96.4527C182.96 96.4527 182.745 96.5015 182.589 96.5894C182.482 96.6479 182.414 96.726 182.414 96.7943C182.414 96.8626 182.482 96.9407 182.589 96.9992C182.902 97.1846 183.458 97.1749 183.78 96.9992C183.887 96.9407 183.956 96.8626 183.956 96.804C183.956 96.7455 183.887 96.6674 183.78 96.5991C183.614 96.5015 183.399 96.4625 183.175 96.4625V96.4527Z" fill="white"/>
  <path d="M181.898 99.7336L182.122 99.5873C182.025 99.558 181.927 99.5287 181.839 99.4897C181.722 99.4409 181.605 99.3921 181.498 99.3238C181.215 99.1579 181.019 98.9627 180.912 98.7578C181.029 98.8652 181.166 98.9627 181.322 99.0603C181.566 99.1969 181.849 99.314 182.181 99.3921C182.522 99.4702 182.834 99.5092 183.157 99.5092C183.488 99.5092 183.791 99.4702 184.093 99.4116L184.22 99.3823C184.542 99.2945 184.806 99.1969 185.03 99.0701C185.079 99.0408 185.108 99.0115 185.147 98.992L185.235 98.9237C185.284 98.8847 185.342 98.8456 185.381 98.8066C185.391 98.7968 185.401 98.7871 185.411 98.7773C185.411 98.7969 185.391 98.8164 185.381 98.8359L185.313 98.9335C185.255 99.0213 185.206 99.0701 185.157 99.1091C185.108 99.1481 185.059 99.1774 185.02 99.2067L184.845 99.3336C184.689 99.4214 184.513 99.4994 184.328 99.558C184.288 99.5678 183.937 99.6556 183.937 99.6556C183.771 99.6849 183.674 99.7044 183.566 99.7141C183.479 99.7141 183.391 99.7336 183.303 99.7336H183.059C182.981 99.7336 182.903 99.7337 182.825 99.7239C182.747 99.7239 182.669 99.7044 182.591 99.6946C182.512 99.6849 182.434 99.6653 182.356 99.6556L182.112 99.597L182.239 99.7629L181.898 99.7434V99.7336Z" fill="#09090B"/>
  <path d="M180.668 97.8789V98.4449C180.668 98.8157 180.912 99.1865 181.4 99.4695C181.517 99.5378 181.634 99.5964 181.761 99.6452C181.858 99.6842 181.956 99.7135 182.063 99.7525C182.112 99.7623 182.161 99.772 182.21 99.7915C182.22 99.7915 182.229 99.7915 182.239 99.7915C182.268 99.7915 182.288 99.8013 182.317 99.811C182.395 99.8306 182.483 99.8403 182.561 99.8501C182.639 99.8598 182.717 99.8696 182.805 99.8794C182.883 99.8794 182.971 99.8891 183.049 99.8891C183.049 99.8891 183.059 99.8891 183.069 99.8891C183.088 99.8891 183.108 99.8891 183.137 99.8891C183.137 99.8891 183.156 99.8891 183.166 99.8891H183.176C183.176 99.8891 183.225 99.8891 183.244 99.8891C183.264 99.8891 183.283 99.8891 183.303 99.8891C183.391 99.8891 183.488 99.8891 183.576 99.8696C183.683 99.8598 183.791 99.8403 183.898 99.8208C183.947 99.8208 183.986 99.8013 184.035 99.7915C184.074 99.7915 184.113 99.772 184.152 99.7622C184.22 99.7427 184.298 99.733 184.366 99.7037C184.562 99.6354 184.747 99.5573 184.913 99.4597C184.923 99.4597 184.932 99.45 184.942 99.4402C184.991 99.411 185.02 99.3817 185.059 99.3524C185.118 99.3134 185.186 99.2646 185.235 99.2158C185.235 99.2158 185.245 99.2158 185.254 99.206C185.313 99.1475 185.362 99.0987 185.411 99.0401C185.42 99.0304 185.43 99.0109 185.44 99.0011C185.45 98.9913 185.459 98.9718 185.469 98.9621C185.489 98.9425 185.498 98.9133 185.518 98.8938C185.547 98.845 185.567 98.7962 185.586 98.7474C185.586 98.7474 185.586 98.7376 185.586 98.7279C185.586 98.7279 185.586 98.7084 185.586 98.6986C185.586 98.6693 185.606 98.64 185.615 98.6108C185.615 98.562 185.635 98.5132 185.635 98.4644C185.635 98.4644 185.635 98.4546 185.635 98.4449V97.8789C185.635 97.9667 185.615 98.0545 185.596 98.1326C185.596 98.1326 185.596 98.1521 185.596 98.1619C185.567 98.2399 185.528 98.318 185.479 98.3961C185.479 98.4058 185.459 98.4254 185.45 98.4351C185.391 98.5132 185.332 98.5815 185.254 98.6498C185.206 98.6986 185.137 98.7376 185.079 98.7767C185.03 98.8157 184.981 98.8547 184.923 98.884C184.698 99.0109 184.435 99.1084 184.161 99.1767C184.122 99.1865 184.083 99.1963 184.044 99.206C183.771 99.2646 183.478 99.3036 183.186 99.3036C183.186 99.3036 183.176 99.3036 183.166 99.3036C183.166 99.3036 183.166 99.3036 183.156 99.3036C182.844 99.3036 182.542 99.2646 182.249 99.206C182.239 99.206 182.229 99.206 182.22 99.206C181.927 99.1377 181.644 99.0304 181.41 98.8938C180.912 98.6108 180.668 98.24 180.668 97.8594V97.8789Z" fill="white"/>
  <path d="M183.175 99.2441C182.521 99.2441 181.916 99.0977 181.448 98.8342C180.999 98.5805 180.755 98.239 180.755 97.8877C180.755 97.5364 180.999 97.2046 181.438 96.9411C181.897 96.6776 182.502 96.5312 183.155 96.5312C183.809 96.5312 184.414 96.6776 184.883 96.9411C185.332 97.2046 185.576 97.5364 185.576 97.8974C185.576 98.2487 185.332 98.5805 184.892 98.844C184.434 99.1075 183.829 99.2538 183.175 99.2538V99.2441Z" fill="#09090B"/>
  <path d="M183.166 96.6092C183.8 96.6092 184.396 96.7556 184.845 97.0093C185.264 97.2533 185.498 97.5656 185.498 97.8876C185.498 98.2096 185.274 98.5121 184.854 98.7561C184.405 99.0098 183.81 99.1562 183.176 99.1562C182.542 99.1562 181.946 99.0098 181.497 98.7561C181.078 98.5121 180.844 98.1998 180.844 97.8778C180.844 97.5558 181.068 97.2533 181.488 97.0093C181.937 96.7556 182.532 96.6092 183.166 96.6092ZM183.166 96.4336C182.532 96.4336 181.888 96.5702 181.4 96.8532C180.424 97.4192 180.434 98.3365 181.41 98.9025C181.898 99.1854 182.542 99.3221 183.176 99.3221C183.81 99.3221 184.454 99.1854 184.942 98.9025C185.918 98.3365 185.908 97.4192 184.932 96.8532C184.444 96.5702 183.8 96.4336 183.166 96.4336Z" fill="white"/>
  <path d="M184.417 88.1387L184.388 97.7506C184.388 97.936 184.271 98.1117 184.027 98.2483C183.549 98.5313 182.758 98.5313 182.28 98.2483C182.036 98.1117 181.919 97.9165 181.919 97.7311L181.948 88.1191C181.948 88.3045 182.065 88.49 182.309 88.6363C182.797 88.9193 183.578 88.9096 184.056 88.6363C184.29 88.4997 184.417 88.3143 184.417 88.1387Z" fill="#09090B"/>
  <path d="M183.146 98.7165C182.785 98.7165 182.434 98.6385 182.161 98.4726C181.849 98.2969 181.673 98.0334 181.673 97.7505L181.702 88.1385C181.702 88.0019 181.809 87.8945 181.946 87.8945C182.083 87.8945 182.19 88.0019 182.19 88.1385C182.19 88.2458 182.278 88.3532 182.434 88.441C182.844 88.6752 183.527 88.6752 183.937 88.441C184.083 88.3532 184.171 88.2458 184.171 88.1482C184.171 88.0116 184.278 87.9043 184.415 87.9043C184.552 87.9043 184.659 88.0116 184.659 88.1482L184.63 97.77C184.63 98.053 184.454 98.2969 184.151 98.4823C183.868 98.6482 183.507 98.7263 183.146 98.7263V98.7165ZM182.19 88.8606L182.161 97.7505C182.161 97.848 182.249 97.9651 182.405 98.053C182.815 98.2872 183.498 98.2872 183.908 98.053C184.054 97.9651 184.142 97.8578 184.142 97.7602L184.171 88.8606C183.605 89.1826 182.746 89.1826 182.19 88.8606Z" fill="white"/>
  <path d="M184.053 87.6324C184.541 87.9154 184.541 88.3643 184.053 88.6375C183.565 88.9108 182.785 88.9205 182.306 88.6375C181.818 88.3545 181.818 87.8959 182.306 87.6227C182.785 87.3397 183.575 87.3494 184.053 87.6227V87.6324Z" fill="white"/>
  <path d="M183.177 89.0957C182.825 89.0957 182.464 89.0177 182.191 88.8518C181.879 88.6761 181.703 88.4126 181.703 88.1296C181.703 87.8467 181.879 87.5832 182.181 87.4075C182.738 87.0855 183.616 87.0855 184.172 87.4075C184.484 87.5929 184.66 87.8467 184.66 88.1199C184.66 88.4029 184.494 88.6566 184.182 88.8323C183.899 88.9981 183.538 89.0762 183.177 89.0762V89.0957ZM183.177 87.6612C182.903 87.6612 182.64 87.7198 182.435 87.8369C182.279 87.9247 182.201 88.0321 182.201 88.1296C182.201 88.2272 182.289 88.3443 182.445 88.4322C182.855 88.6664 183.538 88.6664 183.948 88.4322C184.094 88.3443 184.182 88.237 184.182 88.1394C184.182 88.0418 184.094 87.9345 183.938 87.8467C183.733 87.7296 183.45 87.671 183.177 87.671V87.6612Z" fill="white"/>
  <path d="M185.02 80.2637L184.981 94.5596C184.981 94.8329 184.805 95.1061 184.444 95.311C183.732 95.7209 182.57 95.7209 181.848 95.311C181.487 95.0963 181.302 94.8231 181.302 94.5499L181.341 80.2539C181.341 80.5271 181.526 80.8101 181.887 81.0151C182.6 81.4249 183.771 81.4249 184.483 81.0151C184.844 80.8101 185.02 80.5369 185.02 80.2637Z" fill="#09090B"/>
  <path d="M183.145 95.8671C182.628 95.8671 182.121 95.75 181.72 95.5255C181.291 95.2718 181.047 94.9303 181.057 94.5497L181.096 80.2537C181.096 80.1171 181.203 80.0098 181.34 80.0098C181.477 80.0098 181.584 80.1171 181.584 80.2537C181.584 80.4489 181.74 80.6538 182.003 80.8099C182.648 81.1808 183.721 81.1808 184.355 80.8099C184.619 80.6538 184.775 80.4586 184.775 80.2732C184.775 80.1366 184.882 80.0293 185.019 80.0293C185.155 80.0293 185.263 80.1366 185.263 80.2732L185.224 94.5692C185.224 94.94 184.99 95.2816 184.56 95.5353C184.17 95.7597 183.653 95.8768 183.145 95.8768V95.8671ZM181.584 81.1125L181.545 94.5497C181.545 94.7449 181.701 94.94 181.964 95.0962C182.599 95.467 183.682 95.467 184.316 95.0962C184.58 94.94 184.736 94.7449 184.736 94.5497L184.775 81.1125C184.726 81.1515 184.668 81.1905 184.609 81.2198C183.828 81.6687 182.56 81.6784 181.769 81.2198C181.701 81.1808 181.642 81.1417 181.584 81.1027V81.1125Z" fill="white"/>
  <path d="M184.483 79.5139C185.196 79.9238 185.205 80.6069 184.483 81.0167C183.771 81.4266 182.61 81.4266 181.888 81.0167C181.165 80.5971 181.156 79.9238 181.868 79.5139C182.59 79.0943 183.751 79.0943 184.474 79.5139H184.483Z" fill="white"/>
  <path d="M183.184 81.5723C182.667 81.5723 182.159 81.4552 181.759 81.2307C181.33 80.9868 181.096 80.6355 181.096 80.2549C181.096 79.8841 181.33 79.5425 181.75 79.2986C182.55 78.8302 183.799 78.8302 184.599 79.2986C185.028 79.5425 185.253 79.8841 185.263 80.2646C185.263 80.6452 185.028 80.9868 184.599 81.2307C184.209 81.4552 183.691 81.5723 183.184 81.5723ZM183.174 79.4449C182.745 79.4449 182.315 79.5425 181.993 79.7279C181.73 79.8841 181.584 80.0695 181.584 80.2646C181.584 80.4598 181.74 80.655 182.003 80.8111C182.638 81.1819 183.721 81.1819 184.355 80.8111C184.618 80.655 184.775 80.4598 184.775 80.2646C184.775 80.0695 184.618 79.8743 184.355 79.7279C184.033 79.5425 183.604 79.4449 183.174 79.4449Z" fill="white"/>
  <path fill-rule="evenodd" clip-rule="evenodd" d="M177.827 74.8886C177.827 74.8881 177.828 74.8876 177.829 74.8871C178.756 74.3504 179.644 74.2723 180.327 74.6626L187.119 78.6148C187.236 78.6831 187.275 78.8294 187.207 78.9465C187.138 79.0636 186.992 79.1027 186.875 79.0344C186.361 78.7396 185.672 78.8062 184.924 79.2251C184.909 79.2413 184.893 79.2558 184.875 79.2685C183.187 80.2443 181.811 82.6156 181.821 84.5575C181.821 84.6453 181.772 84.7234 181.704 84.7722C181.665 84.7917 181.626 84.8014 181.587 84.8014L181.577 84.7917C181.577 84.7917 181.489 84.7819 181.45 84.7624L174.648 80.8103C174.57 80.7713 174.531 80.6834 174.531 80.5956C174.531 78.4987 176.003 75.9339 177.827 74.8886Z" fill="#09090B"/>
  <path d="M177.827 74.8886L177.995 75.183L178.011 75.1738L178.026 75.1629L177.827 74.8886ZM177.829 74.8871L177.659 74.5935L177.645 74.6016L177.632 74.611L177.829 74.8871ZM180.327 74.6626L180.498 74.3694L180.495 74.3681L180.327 74.6626ZM187.119 78.6148L187.29 78.3217L187.289 78.3215L187.119 78.6148ZM187.207 78.9465L186.914 78.7756L186.914 78.7756L187.207 78.9465ZM186.875 79.0344L187.046 78.7413L187.044 78.7401L186.875 79.0344ZM184.924 79.2251L184.758 78.929L184.709 78.9565L184.671 78.9984L184.924 79.2251ZM184.875 79.2685L185.045 79.5622L185.059 79.554L185.072 79.5446L184.875 79.2685ZM181.821 84.5575H182.16L182.16 84.5558L181.821 84.5575ZM181.704 84.7722L181.855 85.0756L181.879 85.0637L181.901 85.0483L181.704 84.7722ZM181.587 84.8014L181.347 85.0414L181.446 85.1407H181.587V84.8014ZM181.577 84.7917L181.817 84.5517L181.732 84.4676L181.614 84.4545L181.577 84.7917ZM181.45 84.7624L181.279 85.0558L181.289 85.0611L181.298 85.0659L181.45 84.7624ZM174.648 80.8103L174.819 80.5169L174.81 80.5116L174.8 80.5068L174.648 80.8103ZM178.026 75.1629L178.026 75.1632L177.632 74.611C177.63 74.6121 177.629 74.6132 177.627 74.6143L178.026 75.1629ZM177.999 75.1807C178.863 74.6803 179.617 74.6475 180.159 74.9572L180.495 74.3681C179.671 73.8971 178.649 74.0204 177.659 74.5935L177.999 75.1807ZM180.156 74.9559L186.948 78.908L187.289 78.3215L180.498 74.3694L180.156 74.9559ZM186.948 78.9078C186.904 78.8824 186.887 78.8215 186.914 78.7756L187.5 79.1175C187.663 78.8374 187.568 78.4838 187.29 78.3217L186.948 78.9078ZM186.914 78.7756C186.939 78.732 187 78.7146 187.046 78.7413L186.704 79.3274C186.984 79.4908 187.338 79.3953 187.5 79.1175L186.914 78.7756ZM187.044 78.7401C186.385 78.3619 185.56 78.4802 184.758 78.929L185.089 79.5211C185.784 79.1322 186.338 79.1173 186.706 79.3286L187.044 78.7401ZM184.671 78.9984C184.674 78.9959 184.676 78.9939 184.678 78.9924L185.072 79.5446C185.11 79.5178 185.145 79.4867 185.176 79.4518L184.671 78.9984ZM184.705 78.9747C183.798 79.4993 182.993 80.3853 182.417 81.3808C181.842 82.3762 181.476 83.5134 181.481 84.5592L182.16 84.5558C182.156 83.6597 182.473 82.6403 183.005 81.7206C183.537 80.801 184.264 80.0135 185.045 79.5622L184.705 78.9747ZM181.481 84.5575C181.481 84.5374 181.487 84.5218 181.493 84.5122C181.498 84.5033 181.503 84.4987 181.506 84.4961L181.901 85.0483C182.041 84.9482 182.16 84.7746 182.16 84.5575H181.481ZM181.552 84.4687C181.553 84.4683 181.556 84.4666 181.563 84.465C181.569 84.4633 181.577 84.4622 181.587 84.4622V85.1407C181.684 85.1407 181.775 85.1159 181.855 85.0756L181.552 84.4687ZM181.826 84.5615L181.817 84.5517L181.337 85.0317L181.347 85.0414L181.826 84.5615ZM181.577 84.7917C181.614 84.4545 181.614 84.4545 181.614 84.4545C181.614 84.4545 181.614 84.4545 181.614 84.4545C181.614 84.4545 181.614 84.4545 181.614 84.4545C181.615 84.4545 181.615 84.4545 181.615 84.4545C181.615 84.4545 181.615 84.4546 181.615 84.4546C181.615 84.4546 181.615 84.4546 181.615 84.4546C181.615 84.4546 181.615 84.4546 181.614 84.4545C181.613 84.4544 181.611 84.4541 181.609 84.4538C181.603 84.453 181.596 84.4519 181.589 84.4506C181.581 84.4491 181.576 84.4479 181.574 84.4474C181.568 84.446 181.581 84.4487 181.602 84.459L181.298 85.0659C181.366 85.0998 181.442 85.1136 181.467 85.1182C181.487 85.1217 181.504 85.1243 181.516 85.126C181.522 85.1268 181.528 85.1275 181.531 85.128C181.533 85.1282 181.535 85.1284 181.536 85.1286C181.537 85.1286 181.538 85.1287 181.538 85.1288C181.538 85.1288 181.539 85.1288 181.539 85.1288C181.539 85.1288 181.539 85.1289 181.539 85.1289C181.539 85.1289 181.539 85.1289 181.539 85.1289C181.539 85.1289 181.539 85.1289 181.539 85.1289C181.539 85.1289 181.539 85.1289 181.577 84.7917ZM181.62 84.4691L174.819 80.5169L174.478 81.1036L181.279 85.0558L181.62 84.4691ZM174.8 80.5068C174.834 80.524 174.853 80.5491 174.862 80.5656C174.87 80.5808 174.871 80.5911 174.871 80.5956H174.192C174.192 80.7684 174.269 81.0001 174.497 81.1137L174.8 80.5068ZM174.871 80.5956C174.871 79.6206 175.215 78.5132 175.789 77.5172C176.363 76.521 177.148 75.6686 177.995 75.183L177.658 74.5943C176.682 75.1539 175.819 76.1065 175.201 77.1783C174.583 78.2502 174.192 79.4737 174.192 80.5956H174.871Z" fill="#09090B"/>
  <path d="M184.756 79.0547C186.513 78.0398 187.938 78.8595 187.947 80.8795L181.585 84.5584C181.585 82.5384 183 80.0696 184.756 79.0547Z" fill="white"/>
  <path d="M181.577 84.7928C181.577 84.7928 181.489 84.783 181.46 84.7635C181.382 84.7245 181.343 84.6367 181.333 84.5488C181.333 82.4508 182.807 79.8843 184.631 78.8402C185.558 78.3035 186.446 78.2254 187.129 78.6158C187.813 79.0061 188.183 79.8063 188.183 80.8797C188.183 80.9675 188.135 81.0456 188.066 81.0944L181.704 84.7733C181.704 84.7733 181.626 84.8025 181.587 84.8025L181.577 84.7928ZM186.173 78.8597C185.783 78.8597 185.334 78.9963 184.875 79.2598C183.314 80.1673 182.016 82.2654 181.84 84.1195L187.695 80.7431C187.666 79.9331 187.383 79.3281 186.885 79.0451C186.681 78.928 186.437 78.8695 186.173 78.8695V78.8597Z" fill="white"/>
  <path d="M228.06 154.421L214.368 146.417L228.06 140.188V154.421Z" fill="#09090B"/>
  <path d="M235.775 135.181L227.846 139.761L213.336 146.368L228.073 154.964L235.787 150.509V135.168L235.775 135.181ZM215.4 146.469L227.582 140.919V153.58L215.4 146.469Z" fill="white"/>
  <path d="M129.725 211.292L116.032 203.288L129.725 197.059V211.292Z" fill="#09090B"/>
  <path d="M129.509 196.631L114.999 203.238L129.736 211.833L137.45 207.378V192.037L129.522 196.618L129.509 196.631ZM129.258 210.461L117.076 203.351L129.258 197.801V210.461Z" fill="white"/>
  <path d="M252.273 77.339L197.743 108.826L206.578 73.098L241.715 58.4492L252.273 77.339Z" fill="white"/>
  <path d="M197.014 109.796L206.175 72.7461L241.929 57.8457L252.915 77.5158L197.014 109.796ZM206.981 73.4509L198.474 107.845L251.619 77.1634L241.501 59.0538L206.981 73.4383V73.4509Z" fill="white"/>
  <path d="M224.813 87.9496C224.02 87.5217 223.001 87.5721 221.893 88.2139L59.0081 182.034C56.5037 183.481 54.4775 187.357 54.4775 190.692C54.4775 192.58 55.1319 193.901 56.1513 194.417L93.7296 215.824L134.228 187.319L256.678 117.738L262.643 109.595L224.813 87.9622V87.9496Z" fill="#09090B"/>
  <path d="M219.831 96.3287C218.56 95.5988 216.987 95.5988 215.716 96.3287L61.8666 185.077C60.8472 185.668 59.916 186.65 59.1609 187.833C58.2296 189.305 58.6826 191.256 60.1928 192.112L97.0286 213.128L134.003 187.103L256.478 117.358L219.831 96.3161V96.3287Z" fill="#09090B"/>
  <path d="M246.008 100.755C247.86 101.82 247.869 103.549 246.029 104.616L234.179 111.483C232.337 112.55 229.345 112.55 227.494 111.483L215.566 104.616C213.714 103.55 213.705 101.821 215.545 100.755L227.395 93.8871C229.235 92.8215 232.228 92.8215 234.079 93.8871L246.008 100.755Z" fill="#09090B" stroke="white" stroke-width="0.245039" stroke-miterlimit="10"/>
  <path d="M246.033 104.614L234.183 111.481C232.341 112.548 229.349 112.548 227.497 111.481L215.569 104.615C214.637 104.078 214.172 103.375 214.173 102.672L214.169 104.312C214.166 105.015 214.632 105.72 215.565 106.255L227.493 113.123C229.345 114.188 232.337 114.188 234.179 113.123L246.029 106.255C246.943 105.725 247.401 105.033 247.403 104.339L247.407 102.697C247.405 103.391 246.947 104.085 246.033 104.614Z" fill="white" stroke="white" stroke-width="0.245039" stroke-miterlimit="10"/>
  <g clip-path="url(#clip0_122_3229)">
    <mask id="mask0_122_3229" style="mask-type:luminance" maskUnits="userSpaceOnUse" x="221" y="96" width="20" height="12">
      <path d="M240.828 102.686L230.235 96.5703L221.241 101.763L231.833 107.879L240.828 102.686Z" fill="white"/>
    </mask>
    <g mask="url(#mask0_122_3229)">
      <path d="M233.842 100.604L229.505 100.05L230.464 102.554L226.126 102.001L225.176 99.4911L229.514 100.045L228.546 97.5457L232.884 98.0993L233.842 100.604ZM225.569 102.306L229.907 102.86L230.865 105.364L226.528 104.811L225.569 102.306ZM230.473 102.549L234.81 103.103L233.842 100.604L238.166 101.149L239.125 103.654L234.788 103.1L235.746 105.604L231.409 105.051L230.473 102.549Z" fill="white"/>
    </g>
  </g>
  <path d="M93.7555 216.377L55.9129 194.831C54.7048 194.215 54 192.705 54 190.691C54 187.205 56.1394 183.14 58.7696 181.617L221.655 87.7974C222.876 87.0927 224.084 87.0046 225.04 87.5332L263.336 109.431L256.905 118.139L134.455 187.721L93.7429 216.377H93.7555ZM223.681 88.1372C223.203 88.1372 222.687 88.3008 222.133 88.6154L59.2479 182.448C56.8819 183.807 54.9564 187.507 54.9564 190.691C54.9564 192.327 55.4724 193.535 56.3659 193.988L93.6925 215.257L133.951 186.915L256.351 117.359L261.939 109.733L224.575 88.3637C224.298 88.2127 223.996 88.1372 223.681 88.1372Z" fill="white"/>
  <path d="M259.938 122.027L97.0657 215.847C94.5613 217.294 92.5352 215.759 92.5352 212.424C92.5352 209.089 94.5613 205.212 97.0657 203.765L259.951 109.945C262.455 108.498 264.482 110.033 264.482 113.368C264.482 116.703 262.455 120.579 259.951 122.027H259.938Z" fill="#09090B"/>
  <path d="M95.2532 216.867C94.7498 216.867 94.2716 216.742 93.8563 216.502C92.7111 215.835 92.0566 214.35 92.0566 212.425C92.0566 208.939 94.1961 204.874 96.8263 203.351L259.712 109.519C260.958 108.802 262.178 108.713 263.16 109.28C264.305 109.947 264.959 111.432 264.959 113.357C264.959 116.843 262.82 120.908 260.19 122.431L97.3045 216.263C96.5998 216.666 95.9076 216.867 95.2658 216.867H95.2532ZM261.738 109.871C261.26 109.871 260.731 110.035 260.177 110.349L97.3045 204.182C94.9386 205.554 93.0131 209.241 93.0131 212.425C93.0131 213.998 93.4913 215.194 94.3471 215.672C95.0141 216.062 95.895 215.974 96.8389 215.433L259.724 121.6C262.09 120.229 264.016 116.541 264.016 113.357C264.016 111.784 263.537 110.589 262.694 110.11C262.417 109.947 262.103 109.871 261.763 109.871H261.738Z" fill="white"/>
  <path d="M197.743 56.5352L259.333 91.8482L313.863 60.3736L252.273 25.0605L197.743 56.5352Z" fill="#09090B"/>
  <path d="M259.333 155.089L245.641 147.286V102.396L209.787 81.1782V95.2103L197.743 102.157V56.5371L259.333 91.8501V155.089Z" fill="#09090B"/>
  <path d="M197.743 60.1231L259.333 95.4361V91.8494L310.742 62.1744L252.273 28.6484L197.743 60.1231Z" fill="#09090B"/>
  <path d="M314.342 60.0977L313.864 59.8208L252.274 24.5078L197.744 55.9825L197.266 56.2593V102.987L210.253 95.4862V82.0079L245.151 102.66V147.562L258.843 155.365L259.321 155.642L259.8 155.365L314.091 124.029L314.33 123.89V60.0977H314.342ZM198.713 56.5362L252.274 25.6153L312.908 60.3746L259.347 91.2955L244.194 82.5993L198.725 56.5236L198.713 56.5362ZM246.132 147.008V102.118L209.322 80.3341V94.9325L198.235 101.326V57.3668L243.716 83.4425L258.881 92.1386V154.27L246.145 147.008H246.132ZM313.398 123.336L259.825 154.27V122.676V107.407V92.1386L279.885 80.548L313.386 61.2052V123.336H313.398Z" fill="white"/>
  <path d="M259.847 91.8613L313.972 60.6953L313.972 123.027L259.847 154.193L259.847 91.8613Z" fill="#09090B"/>
  <path d="M57.0508 183.661L56.5703 184.488L94.4259 206.485L94.9064 205.658L57.0508 183.661Z" fill="white"/>
  <path d="M218.145 116.872C219.997 117.937 220.007 119.666 218.167 120.733L206.316 127.6C204.475 128.667 201.483 128.667 199.631 127.6L187.704 120.733C185.852 119.667 185.842 117.939 187.682 116.872L199.533 110.004C201.373 108.939 204.366 108.939 206.217 110.004L218.145 116.872Z" fill="#09090B" stroke="white" stroke-width="0.245039" stroke-miterlimit="10"/>
  <path d="M218.168 120.731L206.317 127.598C204.476 128.665 201.484 128.665 199.632 127.598L187.703 120.732C186.772 120.196 186.306 119.492 186.308 118.789L186.304 120.429C186.301 121.132 186.767 121.837 187.699 122.372L199.628 129.24C201.48 130.305 204.472 130.305 206.313 129.24L218.164 122.372C219.078 121.842 219.535 121.15 219.538 120.456L219.542 118.815C219.539 119.508 219.082 120.202 218.168 120.731Z" fill="white" stroke="white" stroke-width="0.245039" stroke-miterlimit="10"/>
  <g clip-path="url(#clip1_122_3229)">
    <mask id="mask1_122_3229" style="mask-type:luminance" maskUnits="userSpaceOnUse" x="192" y="112" width="22" height="12">
      <path d="M213.141 118.091L202.923 112.191L192.705 118.091L202.923 123.99L213.141 118.091Z" fill="white"/>
    </mask>
    <g mask="url(#mask1_122_3229)">
      <path d="M202.37 122.255C202.554 122.267 202.717 122.267 202.901 122.255C206.907 122.255 210.136 120.391 210.136 118.078C210.136 115.766 206.907 113.901 202.901 113.901C202.717 113.913 202.554 113.913 202.37 113.925L202.37 122.255Z" fill="white"/>
      <path d="M201.305 122.162L201.305 114.021C200.937 114.068 200.59 114.127 200.243 114.21L200.243 121.973C200.59 122.056 200.937 122.115 201.305 122.162Z" fill="white"/>
      <path d="M199.203 121.678L199.203 114.504C198.814 114.634 198.467 114.788 198.14 114.953L198.14 121.23C198.467 121.395 198.814 121.548 199.203 121.678Z" fill="white"/>
      <path d="M197.057 120.557L197.057 115.625C196.178 116.321 195.667 117.159 195.647 118.091C195.687 119.011 196.198 119.873 197.057 120.557Z" fill="white"/>
    </g>
  </g>
  <path d="M104.252 182.807C106.104 183.873 106.113 185.601 104.273 186.668L92.4228 193.536C90.5816 194.603 87.5896 194.603 85.7377 193.536L73.8103 186.668C71.9583 185.603 71.9489 183.874 73.7887 182.807L85.6394 175.94C87.4793 174.874 90.4726 174.874 92.3232 175.94L104.252 182.807Z" fill="#09090B" stroke="white" stroke-width="0.245039" stroke-miterlimit="10"/>
  <path d="M104.274 186.667L92.4238 193.534C90.5826 194.601 87.5906 194.601 85.7387 193.534L73.8099 186.668C72.8785 186.131 72.4129 185.428 72.4142 184.725L72.4102 186.365C72.4075 187.068 72.8732 187.772 73.8059 188.308L85.7346 195.175C87.5866 196.241 90.5785 196.241 92.4197 195.175L104.27 188.308C105.184 187.778 105.642 187.085 105.645 186.391L105.649 184.75C105.646 185.444 105.188 186.138 104.274 186.667Z" fill="white" stroke="white" stroke-width="0.245039" stroke-miterlimit="10"/>
  <g clip-path="url(#clip2_122_3229)">
    <mask id="mask2_122_3229" style="mask-type:luminance" maskUnits="userSpaceOnUse" x="79" y="178" width="20" height="12">
      <path d="M98.5212 184.068L88.8408 178.479L79.8842 183.65L89.5646 189.239L98.5212 184.068Z" fill="white"/>
    </mask>
    <g mask="url(#mask2_122_3229)">
      <path fill-rule="evenodd" clip-rule="evenodd" d="M91.6745 185.576C90.5136 184.906 88.6314 184.906 87.4704 185.576C86.3095 186.246 86.3094 187.333 87.4704 188.003C88.6313 188.673 90.5135 188.673 91.6744 188.003C92.8354 187.333 92.8354 186.246 91.6745 185.576ZM86.2131 182.423C85.0522 181.753 83.1701 181.752 82.0092 182.423C80.8482 183.093 80.8482 184.18 82.0091 184.85C83.1701 185.52 85.0524 185.52 86.2133 184.85C87.3743 184.18 87.3741 183.093 86.2131 182.423ZM93.6735 183.696C92.5124 184.366 90.6302 184.366 89.4693 183.696C88.3083 183.026 88.3085 181.939 89.4695 181.269C90.6302 180.598 92.5125 180.598 93.6735 181.269C94.8344 181.939 94.8342 183.026 93.6735 183.696Z" fill="white"/>
    </g>
  </g>
  <path d="M133.244 166.264C135.096 167.33 135.106 169.059 133.266 170.125L121.415 176.993C119.574 178.06 116.582 178.06 114.73 176.993L102.802 170.125C100.95 169.06 100.941 167.331 102.781 166.264L114.632 159.397C116.471 158.331 119.465 158.331 121.315 159.397L133.244 166.264Z" fill="#09090B" stroke="white" stroke-width="0.245039" stroke-miterlimit="10"/>
  <path d="M133.268 170.124L121.417 176.991C119.576 178.058 116.584 178.058 114.732 176.991L102.803 170.125C101.872 169.588 101.406 168.885 101.407 168.182L101.403 169.822C101.401 170.525 101.866 171.23 102.799 171.765L114.728 178.632C116.58 179.698 119.572 179.698 121.413 178.632L133.264 171.765C134.177 171.235 134.635 170.542 134.638 169.849L134.642 168.207C134.639 168.901 134.181 169.595 133.268 170.124Z" fill="white" stroke="white" stroke-width="0.245039" stroke-miterlimit="10"/>
  <g clip-path="url(#clip3_122_3229)">
    <path d="M113.749 167.486C113.187 167.81 112.278 167.81 111.716 167.486C111.154 167.161 111.153 166.636 111.716 166.312C112.278 165.987 113.187 165.987 113.749 166.312L114.766 166.899L113.749 167.486ZM114.257 167.779C114.819 167.455 115.729 167.454 116.291 167.779C116.853 168.104 116.853 168.629 116.291 168.953L113.749 170.421C113.187 170.745 112.278 170.745 111.716 170.421C111.153 170.096 111.153 169.571 111.716 169.247L114.257 167.779Z" fill="white"/>
    <path d="M119.356 166.008C118.794 165.684 118.794 165.159 119.356 164.834C119.918 164.51 120.827 164.51 121.389 164.834C121.951 165.159 121.951 165.684 121.389 166.008L120.373 166.595L119.356 166.008ZM118.84 166.306C119.402 166.631 119.402 167.156 118.84 167.48C118.278 167.805 117.368 167.805 116.807 167.48L114.257 166.008C113.695 165.684 113.695 165.159 114.257 164.834C114.819 164.51 115.728 164.51 116.291 164.834L118.84 166.306Z" fill="white"/>
    <path d="M121.898 169.245C122.46 168.921 123.37 168.92 123.932 169.245C124.494 169.57 124.494 170.095 123.932 170.419C123.37 170.744 122.46 170.744 121.898 170.419L120.882 169.832L121.898 169.245ZM121.39 168.952C120.828 169.276 119.919 169.276 119.357 168.952C118.794 168.627 118.794 168.102 119.357 167.778L121.906 166.306C122.468 165.981 123.377 165.981 123.94 166.306C124.501 166.63 124.501 167.155 123.94 167.48L121.39 168.952Z" fill="white"/>
    <path d="M116.298 170.717C116.86 171.041 116.86 171.566 116.298 171.891C115.736 172.215 114.827 172.215 114.265 171.891C113.702 171.566 113.702 171.041 114.265 170.717L115.281 170.13L116.298 170.717ZM116.807 170.423C116.244 170.098 116.244 169.574 116.807 169.249C117.368 168.925 118.278 168.924 118.84 169.249L121.389 170.721C121.951 171.045 121.951 171.571 121.389 171.895C120.827 172.22 119.918 172.219 119.356 171.895L116.807 170.423Z" fill="white"/>
  </g>
  <path d="M162.024 149.514C163.876 150.58 163.886 152.309 162.046 153.375L150.195 160.243C148.354 161.31 145.362 161.31 143.51 160.243L131.583 153.375C129.731 152.31 129.721 150.581 131.561 149.514L143.412 142.647C145.252 141.581 148.245 141.581 150.096 142.647L162.024 149.514Z" fill="#09090B" stroke="white" stroke-width="0.245039" stroke-miterlimit="10"/>
  <path d="M162.047 153.376L150.196 160.243C148.355 161.31 145.363 161.31 143.511 160.243L131.582 153.377C130.651 152.84 130.185 152.137 130.187 151.434L130.183 153.074C130.18 153.777 130.646 154.481 131.578 155.017L143.507 161.884C145.359 162.95 148.351 162.95 150.192 161.884L162.043 155.017C162.957 154.487 163.414 153.794 163.417 153.1L163.421 151.459C163.418 152.153 162.961 152.847 162.047 153.376Z" fill="white" stroke="white" stroke-width="0.245039" stroke-miterlimit="10"/>
  <g clip-path="url(#clip4_122_3229)">
    <mask id="mask3_122_3229" style="mask-type:luminance" maskUnits="userSpaceOnUse" x="137" y="145" width="21" height="13">
      <path d="M157.293 151.446L147.207 145.623L137.327 151.327L147.413 157.151L157.293 151.446Z" fill="white"/>
    </mask>
    <g mask="url(#mask3_122_3229)">
      <path fill-rule="evenodd" clip-rule="evenodd" d="M152.235 148.526C149.455 146.921 144.943 146.93 142.142 148.548C139.903 149.84 139.447 151.766 140.774 153.307C140.974 153.48 141.225 153.441 141.359 153.364C141.476 153.296 141.87 153.059 142.29 152.816C140.589 152.183 141.204 151.492 141.204 151.492C141.566 151.023 141.384 150.744 141.384 150.744C141.236 150.301 141.727 150.584 141.727 150.584C142.202 150.897 141.982 151.331 141.982 151.331C141.66 152.036 142.602 152.329 143.028 152.419C143.396 152.254 143.756 152.201 144.023 152.21C143.025 151.498 142.287 150.569 144.233 149.445C144.787 149.126 145.439 148.979 146.108 148.959C146.184 148.857 146.529 148.456 147.5 148.213C147.5 148.213 148.058 148.381 148.361 149.311C148.882 149.483 149.361 149.695 149.786 149.94C150.211 150.185 150.585 150.469 150.875 150.762C152.487 150.937 152.777 151.26 152.777 151.26C152.356 151.821 151.661 152.02 151.485 152.064C151.458 152.454 151.197 152.826 150.643 153.146C148.697 154.269 147.096 153.838 145.846 153.262C145.87 153.46 145.726 153.726 145.248 154.002C144.569 154.394 144.016 154.704 143.848 154.801C143.714 154.878 143.646 155.023 143.946 155.138C146.615 155.904 149.95 155.641 152.189 154.349C154.999 152.736 155.007 150.126 152.235 148.526Z" fill="white"/>
    </g>
  </g>
  <path d="M190.32 133.1C192.172 134.166 192.182 135.894 190.342 136.961L178.491 143.829C176.65 144.896 173.658 144.896 171.806 143.829L159.879 136.961C158.027 135.896 158.017 134.167 159.857 133.1L171.708 126.233C173.548 125.167 176.541 125.167 178.392 126.233L190.32 133.1Z" fill="#09090B" stroke="white" stroke-width="0.245039" stroke-miterlimit="10"/>
  <path d="M190.342 136.96L178.491 143.827C176.65 144.894 173.658 144.894 171.806 143.827L159.877 136.961C158.946 136.424 158.48 135.721 158.482 135.018L158.478 136.658C158.475 137.361 158.941 138.065 159.873 138.601L171.802 145.468C173.654 146.534 176.646 146.534 178.487 145.468L190.338 138.601C191.252 138.071 191.709 137.378 191.712 136.684L191.716 135.043C191.713 135.737 191.256 136.431 190.342 136.96Z" fill="white" stroke="white" stroke-width="0.245039" stroke-miterlimit="10"/>
  <g clip-path="url(#clip5_122_3229)">
    <path fill-rule="evenodd" clip-rule="evenodd" d="M175.511 131.379C175.569 131.7 175.704 131.756 176.32 132.067L182.09 135.021C182.205 135.088 182.225 134.966 182.205 134.933L181.955 134.033C181.916 133.856 181.839 133.634 181.358 133.4L175.703 130.579C175.492 130.479 175.357 130.512 175.357 130.601L175.511 131.379ZM174.57 132.3L168.842 135.607C168.534 135.784 168.573 135.94 168.938 136.128L175.267 139.383C175.632 139.572 175.883 139.472 176.133 139.327L181.822 136.043C182.072 135.898 182.11 135.765 181.879 135.654L175.262 132.255C175.012 132.133 174.819 132.155 174.57 132.3ZM180.168 135.887C180.034 136.009 179.822 136.087 179.629 135.998L179.284 135.865L175.055 138.306C174.67 138.239 174.363 138.15 174.17 138.039C173.862 137.861 173.881 137.761 173.939 137.462L175.013 134.664L172.15 136.318L172.612 136.74C172.612 136.74 172.266 136.94 171.784 136.662L170.38 135.94C170.419 135.873 170.649 135.785 170.822 135.84L171.265 135.985L175.051 133.798L174.609 133.499C174.744 133.376 175.089 133.288 175.378 133.432L176.898 134.199L175.862 137.063L178.514 135.531L178.071 135.209C178.245 135.065 178.552 135.065 178.763 135.165L180.168 135.887ZM175.779 130.024L181.666 132.956C182.397 133.312 182.531 133.434 182.647 133.856L183.167 135.577C183.244 135.865 183.283 135.954 183.053 136.087L176.306 139.983C175.883 140.227 175.479 140.282 174.902 139.993L168.151 136.539C167.727 136.317 167.592 136.173 167.65 135.895L168.033 134.185C168.11 133.874 168.244 133.686 168.514 133.53L174.511 130.068C174.856 129.868 175.299 129.791 175.779 130.024Z" fill="white"/>
  </g>
  <g clip-path="url(#clip6_122_3229)">
    <circle cx="13.3584" cy="13.3584" r="13.3584" transform="matrix(0.866025 -0.5 2.20305e-08 1 276.551 100.627)" fill="white"/>
    <g clip-path="url(#clip7_122_3229)">
      <path d="M288.73 104.638C290.187 103.797 290.779 103.725 290.779 104.508C290.439 105.097 288.73 105.767 288.73 104.638ZM288.114 118.293C288.094 118.304 288.074 118.315 288.054 118.327C286.689 114.73 289.166 108.868 293.136 106.576C295.225 105.37 295.981 102.172 295.862 100.919C295.85 100.823 295.779 100.788 295.696 100.836L291.783 103.089C291.715 103.128 291.651 103.131 291.607 103.096L291.204 102.781C291.007 102.627 290.723 102.629 290.419 102.787L289.635 103.194C289.536 103.246 289.453 103.214 289.426 103.119C289.096 101.948 288.445 101.238 287.919 101.031C287.884 101.017 287.831 101.064 287.81 101.123C287.532 101.92 287.318 102.67 287.207 103.474C287.199 103.535 287.134 103.572 287.109 103.53C286.644 102.755 286.043 102.118 285.423 101.762C285.393 101.744 285.342 101.778 285.316 101.833C284.782 102.977 284.126 104.807 284.012 107.537C284.007 107.659 283.937 107.799 283.838 107.885C282.832 108.761 281.476 110.388 281.009 110.96C280.903 111.089 280.923 111.127 281.012 111.087C281.102 111.048 282.576 110.375 282.641 110.345C282.706 110.316 282.731 110.361 282.651 110.442C281.857 111.242 280.232 113.372 279.733 114.033C279.637 114.159 279.698 114.17 279.751 114.143C279.805 114.117 281.524 113.215 281.602 113.174C281.68 113.133 281.72 113.188 281.62 113.285C281.565 113.338 280.241 114.688 279.053 115.901C278.758 115.011 278.598 113.972 278.598 112.799C278.598 106.73 282.859 99.3507 288.114 96.3165C293.37 93.2822 297.63 95.7419 297.63 101.81C297.63 107.879 293.37 115.258 288.114 118.293ZM288.114 94.7653C282.126 98.2223 277.255 106.66 277.255 113.574C277.255 120.488 282.126 123.301 288.114 119.844C294.102 116.387 298.973 107.949 298.973 101.035C298.973 94.1207 294.102 91.3082 288.114 94.7653Z" fill="#09090B"/>
    </g>
  </g>
  <defs>
    <clipPath id="clip0_122_3229">
      <rect width="15.7508" height="15.7508" fill="white" transform="matrix(0.866025 0.5 -0.866025 0.5 231.037 93.8867)"/>
    </clipPath>
    <clipPath id="clip1_122_3229">
      <rect width="13.6132" height="13.6132" fill="white" transform="matrix(0.866025 0.5 -0.866025 0.5 202.922 111.285)"/>
    </clipPath>
    <clipPath id="clip2_122_3229">
      <rect width="15.7508" height="15.7508" fill="white" transform="matrix(0.866025 0.5 -0.866025 0.5 89.2812 175.938)"/>
    </clipPath>
    <clipPath id="clip3_122_3229">
      <rect width="15.7521" height="15.7521" fill="white" transform="matrix(0.866025 0.5 -0.866025 0.5 117.824 160.488)"/>
    </clipPath>
    <clipPath id="clip4_122_3229">
      <rect width="16.4109" height="16.4109" fill="white" transform="matrix(0.866025 0.5 -0.866025 0.5 147.204 143.24)"/>
    </clipPath>
    <clipPath id="clip5_122_3229">
      <rect width="16.1691" height="16.1691" fill="white" transform="matrix(0.866025 0.5 -0.866025 0.5 175.419 126.936)"/>
    </clipPath>
    <clipPath id="clip6_122_3229">
      <rect width="28.4222" height="28.4222" fill="white" transform="matrix(0.866025 -0.5 2.20305e-08 1 275.811 100.199)"/>
    </clipPath>
    <clipPath id="clip7_122_3229">
      <rect width="25.0784" height="25.0784" fill="white" transform="matrix(0.866025 -0.5 2.20305e-08 1 277.259 101.035)"/>
    </clipPath>
  </defs>
</svg>
