<svg width="18" height="24" viewBox="0 0 18 24" fill="none" xmlns="http://www.w3.org/2000/svg">
<path d="M4.5 7.5H3.75C3.15326 7.5 2.58097 7.73705 2.15901 8.15901C1.73705 8.58097 1.5 9.15326 1.5 9.75V17.25C1.5 17.8467 1.73705 18.419 2.15901 18.841C2.58097 19.2629 3.15326 19.5 3.75 19.5H11.25C11.8467 19.5 12.419 19.2629 12.841 18.841C13.2629 18.419 13.5 17.8467 13.5 17.25V9.75C13.5 9.15326 13.2629 8.58097 12.841 8.15901C12.419 7.73705 11.8467 7.5 11.25 7.5H10.5M10.5 4.5L7.5 1.5M7.5 1.5L4.5 4.5M7.5 1.5V12.75M13.5 10.5H14.25C14.8467 10.5 15.419 10.7371 15.841 11.159C16.2629 11.581 16.5 12.1533 16.5 12.75V20.25C16.5 20.8467 16.2629 21.419 15.841 21.841C15.419 22.2629 14.8467 22.5 14.25 22.5H6.75C6.15326 22.5 5.58097 22.2629 5.15901 21.841C4.73705 21.419 4.5 20.8467 4.5 20.25V19.5" stroke="#8247FF" stroke-width="1.5" stroke-linecap="round" stroke-linejoin="round"/>
</svg>
