<svg width="24" height="24" viewBox="0 0 24 24" fill="none" xmlns="http://www.w3.org/2000/svg">
<path d="M15.75 5.24874C16.5456 5.24874 17.3087 5.56481 17.8713 6.12742C18.4339 6.69003 18.75 7.45309 18.75 8.24874M21.75 8.24874C21.7501 9.12385 21.5588 9.9884 21.1895 10.7818C20.8202 11.5751 20.2818 12.2781 19.6121 12.8414C18.9424 13.4047 18.1575 13.8147 17.3126 14.0426C16.4677 14.2705 15.5831 14.3108 14.721 14.1607C14.158 14.0637 13.562 14.1867 13.158 14.5907L10.5 17.2487H8.25V19.4987H6V21.7487H2.25V18.9307C2.25 18.3337 2.487 17.7607 2.909 17.3397L9.408 10.8407C9.812 10.4367 9.935 9.84074 9.838 9.27774C9.6962 8.4589 9.72604 7.61954 9.92563 6.81284C10.1252 6.00615 10.4902 5.24971 10.9975 4.59146C11.5047 3.93322 12.1432 3.38753 12.8724 2.98897C13.6016 2.59042 14.4057 2.34769 15.2336 2.27617C16.0616 2.20465 16.8953 2.3059 17.6821 2.5735C18.4688 2.8411 19.1914 3.26922 19.8041 3.83072C20.4167 4.39222 20.906 5.07486 21.241 5.83538C21.5759 6.5959 21.7493 7.41772 21.75 8.24874Z" stroke="#FBBC05" stroke-width="1.5" stroke-linecap="round" stroke-linejoin="round"/>
</svg>
