<svg width="24" height="22" viewBox="0 0 24 22" fill="none" xmlns="http://www.w3.org/2000/svg">
<path d="M13.5 9.42773V5.67773C13.5 4.48426 13.9741 3.33967 14.818 2.49575C15.6619 1.65184 16.8065 1.17773 18 1.17773C19.1935 1.17773 20.3381 1.65184 21.182 2.49575C22.0259 3.33967 22.5 4.48426 22.5 5.67773V9.42773M3.75 20.6777H14.25C14.8467 20.6777 15.419 20.4407 15.841 20.0187C16.2629 19.5968 16.5 19.0245 16.5 18.4277V11.6777C16.5 11.081 16.2629 10.5087 15.841 10.0867C15.419 9.66479 14.8467 9.42773 14.25 9.42773H3.75C3.15326 9.42773 2.58097 9.66479 2.15901 10.0867C1.73705 10.5087 1.5 11.081 1.5 11.6777V18.4277C1.5 19.0245 1.73705 19.5968 2.15901 20.0187C2.58097 20.4407 3.15326 20.6777 3.75 20.6777Z" stroke="black" stroke-width="1.5" stroke-linecap="round" stroke-linejoin="round"/>
</svg>
